# Blender v2.93.0 OBJ File: ''
# www.blender.org
mtllib 3.mtl
o Cube_Cube.001
v 0.020150 -1.497868 0.052881
v 0.020150 -0.839541 0.052881
v -0.020150 -0.839541 0.052881
v -0.020150 -1.497868 0.052881
v 0.052881 -1.497868 -0.020150
v 0.052881 -0.839541 -0.020150
v 0.052881 -0.839541 0.020150
v 0.052881 -1.497868 0.020148
v 0.043294 -0.839541 -0.043294
v 0.020150 -0.839541 -0.052882
v -0.020150 -0.839541 -0.052882
v -0.043294 -0.839541 -0.043294
v -0.052881 -0.839541 -0.020150
v -0.052881 -0.839541 0.020150
v -0.043294 -0.839541 0.043294
v 0.043294 -0.839541 0.043294
v -0.052881 -1.497868 0.020148
v -0.052881 -1.497868 -0.020150
v -0.020150 -1.497868 -0.052883
v 0.020150 -1.497868 -0.052883
v -0.043294 -1.497868 0.043294
v -0.043294 -1.497868 -0.043296
v 0.043294 -1.497868 -0.043296
v 0.043294 -1.497868 0.043294
vt 0.941420 0.254819
vt 0.943002 0.254819
vt 0.943002 0.255422
vt 0.941420 0.255422
vt 0.941420 0.253237
vt 0.943002 0.253237
vt 0.943002 0.253840
vt 0.941420 0.253840
vt 0.943146 0.252891
vt 0.943492 0.252747
vt 0.944095 0.252747
vt 0.944441 0.252891
vt 0.944584 0.253237
vt 0.944584 0.253840
vt 0.944441 0.254186
vt 0.944095 0.254329
vt 0.943492 0.254329
vt 0.943146 0.254186
vt 0.941420 0.250073
vt 0.943002 0.250073
vt 0.943002 0.250675
vt 0.941420 0.250675
vt 0.941420 0.251655
vt 0.943002 0.251655
vt 0.943002 0.252258
vt 0.941420 0.252258
vt 0.943002 0.255912
vt 0.941420 0.255912
vt 0.941420 0.249583
vt 0.943002 0.249583
vt 0.941420 0.251165
vt 0.943002 0.251165
vt 0.941420 0.252747
vt 0.943002 0.252747
vt 0.941420 0.254329
vt 0.943002 0.254329
vt 0.939838 0.253237
vt 0.939981 0.252891
vt 0.940328 0.252747
vt 0.940930 0.252747
vt 0.941277 0.252891
vt 0.941277 0.254186
vt 0.940930 0.254329
vt 0.940328 0.254329
vt 0.939981 0.254186
vt 0.939838 0.253840
vn 0.0000 -0.0000 1.0000
vn 1.0000 -0.0000 0.0000
vn 0.0000 1.0000 0.0000
vn -1.0000 0.0000 0.0000
vn 0.0000 0.0000 -1.0000
vn -0.3827 -0.0000 0.9239
vn -0.9239 -0.0000 0.3827
vn -0.3827 0.0000 -0.9239
vn -0.9239 0.0000 -0.3827
vn 0.9239 0.0000 -0.3827
vn 0.3827 0.0000 -0.9239
vn 0.3827 -0.0000 0.9239
vn 0.9239 -0.0000 0.3827
vn 0.0000 -1.0000 0.0000
usemtl Material.002
s 1
f 1/1/1 2/2/1 3/3/1 4/4/1
f 5/5/2 6/6/2 7/7/2 8/8/2
f 6/6/3 9/9/3 10/10/3 11/11/3 12/12/3 13/13/3 14/14/3 15/15/3 3/16/3 2/17/3 16/18/3 7/7/3
f 17/19/4 14/20/4 13/21/4 18/22/4
f 19/23/5 11/24/5 10/25/5 20/26/5
f 4/4/6 3/3/6 15/27/6 21/28/6
f 21/29/7 15/30/7 14/20/7 17/19/7
f 11/24/8 19/23/8 22/31/8 12/32/8
f 12/32/9 22/31/9 18/22/9 13/21/9
f 6/6/10 5/5/10 23/33/10 9/34/10
f 9/34/11 23/33/11 20/26/11 10/25/11
f 2/2/12 1/1/12 24/35/12 16/36/12
f 16/36/13 24/35/13 8/8/13 7/7/13
f 18/37/14 22/38/14 19/39/14 20/40/14 23/41/14 5/5/14 8/8/14 24/42/14 1/43/14 4/44/14 21/45/14 17/46/14
o Cylinder.001
v -0.007233 -0.863510 -0.054751
v -0.348840 -0.863510 -0.054751
v -0.348840 -0.852936 -0.054751
v -0.007233 -0.519582 -0.054751
v 0.333430 -0.863510 -0.054751
v 0.333430 -0.850116 -0.054751
v 0.333430 -0.876904 -0.054751
v -0.007233 -1.207439 -0.054751
v -0.348840 -0.874086 -0.054751
v -0.007233 -0.863510 -0.034160
v -0.007233 -0.519582 -0.034162
v -0.348840 -0.852936 -0.034160
v -0.348840 -0.863510 -0.034160
v 0.333430 -0.863510 -0.034160
v 0.333430 -0.850116 -0.034160
v 0.333430 -0.876904 -0.034160
v -0.007233 -1.207439 -0.034160
v -0.348840 -0.874086 -0.034160
vt 0.502874 0.499015
vt 0.495909 0.021506
vt 0.481115 0.021614
vt 0.021706 0.502539
vt 0.509820 0.975209
vt 0.491081 0.975346
vt 0.528559 0.975072
vt 0.984042 0.495490
vt 0.510702 0.021397
vt 0.489969 0.891208
vt 0.489969 0.904426
vt 0.503187 0.904426
vt 0.503187 0.891208
vt 0.476751 0.891208
vt 0.476751 0.904426
vt 0.476751 0.877989
vt 0.489969 0.877989
vt 0.503187 0.877989
vt 0.476751 0.877989
vt 0.489969 0.877989
vt 0.503187 0.891208
vt 0.503187 0.904426
vt 0.476751 0.891208
vt 0.476751 0.904426
vt 0.489969 0.904426
vt 0.503187 0.877989
vn -0.0000 -0.0000 -1.0000
vn 0.0000 0.0000 1.0000
vn 0.6964 -0.7177 -0.0000
vn -1.0000 0.0000 0.0000
vn 1.0000 0.0000 0.0000
vn -0.6984 0.7157 -0.0000
vn 0.6964 0.7177 0.0000
vn -0.6984 -0.7157 0.0000
usemtl Material.003
s 1
f 25/47/15 26/48/15 27/49/15 28/50/15
f 29/51/15 25/47/15 28/50/15 30/52/15
f 31/53/15 32/54/15 25/47/15 29/51/15
f 32/54/15 33/55/15 26/48/15 25/47/15
f 34/56/16 35/57/16 36/58/16 37/59/16
f 38/60/16 39/61/16 35/57/16 34/56/16
f 40/62/16 38/60/16 34/56/16 41/63/16
f 41/63/16 34/56/16 37/59/16 42/64/16
f 31/65/17 40/62/17 41/63/17 32/66/17
f 26/67/18 37/59/18 36/58/18 27/68/18
f 29/69/19 38/60/19 40/62/19 31/65/19
f 30/70/19 39/61/19 38/60/19 29/69/19
f 27/68/20 36/58/20 35/57/20 28/71/20
f 28/71/21 35/57/21 39/61/21 30/70/21
f 32/66/22 41/63/22 42/64/22 33/72/22
f 33/72/18 42/64/18 37/59/18 26/67/18
