# Blender v3.6.3 OBJ File: ''
# www.blender.org
mtllib chargepoint.mtl
o p2
v -0.530357 -0.327226 -0.274252
v -0.530357 -0.000000 -0.274252
v -0.310867 -0.000000 -0.274252
v -0.387128 -0.327226 -0.274252
v -0.387128 -0.327226 0.274252
v -0.418305 -0.461000 0.194670
v -0.418305 -0.461000 -0.194670
v -0.310233 0.000612 -0.059660
v -0.313289 -0.012500 -0.065703
v -0.329899 -0.083773 -0.032852
v -0.329899 -0.083773 0.032852
v -0.313289 -0.012500 0.065703
v -0.310233 0.000612 0.059659
v -0.310867 0.000000 0.274252
v -0.530357 0.000000 0.274252
v -0.530357 0.171804 0.274252
v -0.530357 0.293119 0.194670
v -0.530357 0.293119 -0.194670
v -0.530357 0.171804 -0.274252
v -0.530357 -0.327226 0.274252
v -0.310867 0.171804 0.274252
v -0.310867 0.293119 -0.194670
v -0.310867 0.293119 0.194670
v -0.310867 0.171804 -0.274252
v -0.530357 -0.461000 -0.194670
v -0.530357 -0.461000 0.194670
v -0.310233 0.076176 -0.032852
v -0.398195 0.179251 -0.029186
v -0.438076 0.148188 -0.058372
v -0.398195 0.179251 0.029186
v -0.310233 0.076176 0.032852
v -0.438076 0.148188 0.058372
v -0.477958 0.117125 0.029186
v -0.477958 0.117125 -0.029186
v -0.394237 0.132840 0.093804
v -0.271665 0.071259 0.093804
v -0.248954 0.059849 0.071500
v -0.234734 0.052705 0.017654
v -0.234734 0.052705 -0.017654
v -0.248954 0.059849 -0.071500
v -0.271665 0.071259 -0.093803
v -0.394237 0.132840 -0.093803
v -0.397674 0.125998 0.093804
v -0.397674 0.125998 -0.093803
v -0.275103 0.064417 -0.093803
v -0.252391 0.053006 -0.071500
v -0.238172 0.045863 -0.017654
v -0.238172 0.045863 0.017654
v -0.252391 0.053006 0.071500
v -0.275103 0.064417 0.093804
v -0.227311 0.048975 -0.017654
v -0.230749 0.042133 -0.017654
v -0.230749 0.042133 0.017654
v -0.227311 0.048975 0.017654
v -0.226021 0.039758 -0.010839
v -0.226021 0.039758 0.010839
v -0.222583 0.046600 0.010839
v -0.222583 0.046600 -0.010839
vt 0.718100 0.598999
vt 0.718100 0.401001
vt 0.360552 0.401001
vt 0.360552 0.598999
vt 0.358550 0.284073
vt 0.306673 0.398999
vt 0.052878 0.398999
vt 0.001001 0.284074
vt 0.001001 0.002951
vt 0.140886 0.001001
vt 0.136946 0.012265
vt 0.158361 0.073497
vt 0.201190 0.073497
vt 0.222605 0.012265
vt 0.218665 0.001001
vt 0.358550 0.002951
vt 0.807988 0.398999
vt 0.756476 0.398999
vt 0.720102 0.341253
vt 0.720102 0.058747
vt 0.756476 0.001001
vt 0.807988 0.001001
vt 0.718100 0.198999
vt 0.718100 0.001001
vt 0.360552 0.001001
vt 0.360552 0.198999
vt 0.987763 0.001001
vt 0.944821 0.001001
vt 0.944821 0.398999
vt 0.987763 0.398999
vt 0.360552 0.398999
vt 0.718100 0.398999
vt 0.718100 0.201001
vt 0.360552 0.201001
vt 0.942819 0.001001
vt 0.899877 0.001001
vt 0.899877 0.398999
vt 0.942819 0.398999
vt 0.001001 0.598999
vt 0.358550 0.598999
vt 0.358550 0.401001
vt 0.001001 0.401001
vt 0.952664 0.401001
vt 0.987763 0.405137
vt 0.987763 0.679070
vt 0.950457 0.798999
vt 0.944821 0.409603
vt 0.538325 0.998999
vt 0.538325 0.951001
vt 0.360552 0.951001
vt 0.360552 0.998999
vt 0.860570 0.401001
vt 0.897875 0.520930
vt 0.897875 0.794863
vt 0.862777 0.798999
vt 0.854934 0.790397
vt 0.718100 0.898999
vt 0.718100 0.801001
vt 0.360552 0.801001
vt 0.360552 0.898999
vt 0.720102 0.904291
vt 0.720102 0.805292
vt 0.741573 0.801001
vt 0.763044 0.895709
vt 0.763044 0.994708
vt 0.741573 0.998999
vt 0.718100 0.948999
vt 0.718100 0.901001
vt 0.360552 0.901001
vt 0.360552 0.948999
vt 0.897875 0.001001
vt 0.809990 0.001001
vt 0.809990 0.398999
vt 0.897875 0.398999
vt 0.140886 0.998816
vt 0.001001 0.998999
vt 0.001001 0.941560
vt 0.052878 0.901001
vt 0.306673 0.901001
vt 0.358550 0.941560
vt 0.358550 0.998999
vt 0.218665 0.998816
vt 0.201190 0.973552
vt 0.158361 0.973552
vt 0.807988 0.798999
vt 0.740451 0.798999
vt 0.727937 0.751683
vt 0.720102 0.637452
vt 0.720102 0.562548
vt 0.727937 0.448317
vt 0.740451 0.401001
vt 0.807988 0.401001
vt 0.358550 0.898999
vt 0.001001 0.898999
vt 0.001001 0.823691
vt 0.043508 0.809737
vt 0.146129 0.801001
vt 0.213421 0.801001
vt 0.316042 0.809737
vt 0.358549 0.823691
vt 0.998999 0.401001
vt 0.989765 0.401001
vt 0.989765 0.798999
vt 0.998999 0.798999
vt 0.785516 0.801001
vt 0.776282 0.801001
vt 0.776282 0.848999
vt 0.785516 0.848999
vt 0.785516 0.911499
vt 0.785516 0.888501
vt 0.776282 0.888501
vt 0.776282 0.911499
vt 0.774280 0.801001
vt 0.765046 0.801001
vt 0.765046 0.848999
vt 0.774280 0.848999
vt 0.852932 0.861499
vt 0.852932 0.851001
vt 0.765046 0.851001
vt 0.765046 0.861499
vt 0.998999 0.001001
vt 0.989765 0.001001
vt 0.989765 0.398999
vt 0.998999 0.398999
vt 0.807988 0.801001
vt 0.798754 0.801001
vt 0.798754 0.848999
vt 0.807988 0.848999
vt 0.796752 0.801001
vt 0.787518 0.801001
vt 0.787518 0.848999
vt 0.796752 0.848999
vt 0.774280 0.911499
vt 0.774280 0.888501
vt 0.765046 0.888501
vt 0.765046 0.911499
vt 0.787518 0.886499
vt 0.787518 0.872449
vt 0.791469 0.863501
vt 0.804037 0.863501
vt 0.807988 0.872449
vt 0.807988 0.886499
vt 0.785516 0.886499
vt 0.773010 0.886499
vt 0.765046 0.882060
vt 0.765046 0.867940
vt 0.773010 0.863501
vt 0.785516 0.863501
vt 0.807988 0.888501
vt 0.798754 0.888501
vt 0.798754 0.898999
vt 0.807988 0.898999
vt 0.796752 0.888501
vt 0.787518 0.888501
vt 0.787518 0.898999
vt 0.796752 0.898999
vt 0.819224 0.801001
vt 0.809990 0.801001
vt 0.809990 0.811499
vt 0.819224 0.811499
vt 0.360552 0.798999
vt 0.718100 0.798999
vt 0.718100 0.701001
vt 0.360552 0.701001
vt 0.852932 0.798999
vt 0.852932 0.401001
vt 0.809990 0.401001
vt 0.809990 0.798999
vt 0.360552 0.698999
vt 0.718100 0.698999
vt 0.718100 0.601001
vt 0.360552 0.601001
vt 0.942819 0.798999
vt 0.942819 0.401001
vt 0.899877 0.401001
vt 0.899877 0.798999
vt 0.306673 0.601001
vt 0.358550 0.658456
vt 0.358550 0.798999
vt 0.001001 0.798999
vt 0.001001 0.658456
vt 0.052878 0.601001
vn 0.0000 -0.0000 -1.0000
vn 0.9738 -0.2276 0.0000
vn -1.0000 -0.0000 0.0000
vn 0.0000 0.0000 1.0000
vn 0.0000 1.0000 0.0000
vn 0.0000 -1.0000 0.0000
vn -0.3584 -0.3249 0.8752
vn -0.7607 -0.6491 0.0000
vn -0.3584 -0.3249 -0.8752
vn 0.4192 0.2901 -0.8603
vn 0.6145 -0.7889 0.0000
vn 0.8050 0.5933 0.0000
vn 0.4192 0.2901 0.8603
vn 1.0000 0.0015 -0.0000
vn 0.4489 0.8936 -0.0000
vn -0.4489 -0.8936 0.0000
vn 0.5894 -0.2961 -0.7516
vn 0.5894 -0.2961 0.7516
vn -0.8936 0.4489 0.0000
vn 0.8569 -0.4305 -0.2834
vn 0.8569 -0.4305 0.2834
vn 0.7058 -0.3546 -0.6133
vn 0.7058 -0.3546 0.6133
vn 0.8936 -0.4489 0.0000
vn 0.0000 -0.5113 0.8594
vn 0.0000 0.5485 0.8361
vn 0.0000 -0.5113 -0.8594
vn 0.0000 0.5485 -0.8361
usemtl point
s off
f 1/1/1 2/2/1 3/3/1 4/4/1
f 5/5/2 6/6/2 7/7/2 4/8/2 3/9/2 8/10/2 9/11/2 10/12/2 11/13/2 12/14/2 13/15/2 14/16/2
f 15/17/3 16/18/3 17/19/3 18/20/3 19/21/3 2/22/3
f 5/23/4 14/24/4 15/25/4 20/26/4
f 14/27/4 21/28/4 16/29/4 15/30/4
f 22/31/5 18/32/5 17/33/5 23/34/5
f 2/35/1 19/36/1 24/37/1 3/38/1
f 25/39/6 7/40/6 6/41/6 26/42/6
f 8/43/7 27/44/7 28/45/7 29/46/7 9/47/7
f 30/48/8 28/49/8 27/50/8 31/51/8
f 32/52/9 30/53/9 31/54/9 13/55/9 12/56/9
f 33/57/10 32/58/10 12/59/10 11/60/10
f 29/61/11 28/62/11 30/63/11 32/64/11 33/65/11 34/66/11
f 34/67/12 33/68/12 11/69/12 10/70/12
f 29/71/13 34/72/13 10/73/13 9/74/13
f 8/75/14 3/76/14 24/77/14 22/78/14 23/79/14 21/80/14 14/81/14 13/82/14 31/83/14 27/84/14
f 35/85/15 36/86/15 37/87/15 38/88/15 39/89/15 40/90/15 41/91/15 42/92/15
f 43/93/16 44/94/16 45/95/16 46/96/16 47/97/16 48/98/16 49/99/16 50/100/16
f 35/101/4 43/102/4 50/103/4 36/104/4
f 40/105/17 46/106/17 45/107/17 41/108/17
f 39/109/1 51/110/1 52/111/1 47/112/1
f 36/113/18 50/114/18 49/115/18 37/116/18
f 42/117/19 44/118/19 43/119/19 35/120/19
f 41/121/1 45/122/1 44/123/1 42/124/1
f 39/125/20 47/126/20 46/127/20 40/128/20
f 37/129/21 49/130/21 48/131/21 38/132/21
f 48/133/4 53/134/4 54/135/4 38/136/4
f 47/137/16 52/138/16 55/139/16 56/140/16 53/141/16 48/142/16
f 38/143/15 54/144/15 57/145/15 58/146/15 51/147/15 39/148/15
f 51/149/22 58/150/22 55/151/22 52/152/22
f 53/153/23 56/154/23 57/155/23 54/156/23
f 57/157/24 56/158/24 55/159/24 58/160/24
f 26/161/25 6/162/25 5/163/25 20/164/25
f 16/165/26 21/166/26 23/167/26 17/168/26
f 1/169/27 4/170/27 7/171/27 25/172/27
f 18/173/28 22/174/28 24/175/28 19/176/28
f 26/177/3 20/178/3 15/179/3 2/180/3 1/181/3 25/182/3
o p1
v -0.207233 -0.148188 -0.058372
v -0.438076 0.148188 -0.058372
v -0.398195 0.179251 -0.029186
v -0.167352 -0.117125 -0.029186
v -0.398195 0.179251 0.029186
v -0.167352 -0.117125 0.029186
v -0.438076 0.148188 0.058372
v -0.207233 -0.148188 0.058372
v -0.477958 0.117125 0.029186
v -0.247115 -0.179251 0.029186
v -0.477958 0.117125 -0.029186
v -0.247115 -0.179251 -0.029186
v -0.207712 -0.148561 -0.031372
v -0.190244 -0.134955 -0.005331
v -0.184210 -0.205990 -0.005331
v -0.206184 -0.203266 -0.031372
v -0.190055 -0.134808 0.007021
v -0.206754 -0.147815 0.031372
v -0.224223 -0.161421 0.005331
v -0.224411 -0.161568 -0.007021
v -0.227190 -0.200661 -0.007021
v -0.251650 -0.252939 -0.031372
v -0.270227 -0.242795 -0.007021
v -0.226952 -0.200691 0.005331
v -0.204978 -0.203415 0.031372
v -0.183973 -0.206019 0.007021
v -0.270017 -0.242909 0.005331
v -0.357216 -0.300985 -0.007021
v -0.357093 -0.301190 0.005331
v -0.250584 -0.253521 0.031372
v -0.232006 -0.263665 0.007021
v -0.232216 -0.263550 -0.005331
v -0.345712 -0.320184 0.031372
v -0.456073 -0.335919 0.005332
v -0.449714 -0.357128 0.031372
v -0.334833 -0.338340 0.007021
v -0.334956 -0.338135 -0.005331
v -0.346337 -0.319142 -0.031372
v -0.450062 -0.355965 -0.031372
v -0.443703 -0.377174 -0.005331
v -0.443635 -0.377403 0.007021
v -0.456141 -0.335690 -0.007021
vt 0.591592 0.297297
vt 0.297297 0.297297
vt 0.297297 0.591592
vt 0.591592 0.591592
vt 0.813814 0.887888
vt 0.813814 0.593594
vt 0.741742 0.593594
vt 0.741742 0.887888
vt 0.295295 0.297297
vt 0.001001 0.297297
vt 0.001001 0.591592
vt 0.295295 0.591592
vt 0.591592 0.001001
vt 0.297297 0.001001
vt 0.297297 0.295295
vt 0.591592 0.295295
vt 0.295295 0.703203
vt 0.148148 0.739740
vt 0.001001 0.703203
vt 0.001001 0.630130
vt 0.148148 0.593594
vt 0.295295 0.630130
vt 0.739740 0.887888
vt 0.739740 0.593594
vt 0.667668 0.593594
vt 0.667668 0.887888
vt 0.295295 0.001001
vt 0.001001 0.001001
vt 0.001001 0.295295
vt 0.295295 0.295295
vt 0.445445 0.998999
vt 0.591592 0.998999
vt 0.591592 0.963964
vt 0.445445 0.963964
vt 0.887888 0.739740
vt 0.887888 0.593594
vt 0.815816 0.593594
vt 0.815816 0.739740
vt 0.443443 0.998999
vt 0.443443 0.963964
vt 0.297297 0.963964
vt 0.297297 0.998999
vt 0.887888 0.887888
vt 0.887888 0.741742
vt 0.815816 0.741742
vt 0.815816 0.887888
vt 0.297297 0.961962
vt 0.443443 0.961962
vt 0.443443 0.889890
vt 0.297297 0.889890
vt 0.961962 0.149149
vt 0.926927 0.149149
vt 0.926927 0.295295
vt 0.961962 0.295295
vt 0.741742 0.961962
vt 0.887888 0.961962
vt 0.887888 0.889890
vt 0.741742 0.889890
vt 0.739740 0.297297
vt 0.593594 0.297297
vt 0.593594 0.591592
vt 0.739740 0.591592
vt 0.926927 0.443443
vt 0.998999 0.443443
vt 0.998999 0.408408
vt 0.926927 0.408408
vt 0.961962 0.147147
vt 0.961962 0.001001
vt 0.926927 0.001001
vt 0.926927 0.147147
vt 0.998999 0.332332
vt 0.998999 0.297297
vt 0.926927 0.297297
vt 0.926927 0.332332
vt 0.961962 0.445445
vt 0.926927 0.445445
vt 0.926927 0.480480
vt 0.961962 0.480480
vt 0.961962 0.406406
vt 0.961962 0.334334
vt 0.926927 0.334334
vt 0.926927 0.406406
vt 0.739740 0.924925
vt 0.739740 0.889890
vt 0.445445 0.889890
vt 0.445445 0.924925
vt 0.887888 0.001001
vt 0.741742 0.001001
vt 0.741742 0.295295
vt 0.887888 0.295295
vt 0.739740 0.961962
vt 0.739740 0.926927
vt 0.445445 0.926927
vt 0.445445 0.961962
vt 0.924925 0.001001
vt 0.889890 0.001001
vt 0.889890 0.295295
vt 0.924925 0.295295
vt 0.591592 0.739740
vt 0.591592 0.593594
vt 0.297297 0.593594
vt 0.297297 0.739740
vt 0.739740 0.001001
vt 0.593594 0.001001
vt 0.593594 0.295295
vt 0.739740 0.295295
vt 0.295295 0.887888
vt 0.295295 0.815816
vt 0.001001 0.815816
vt 0.001001 0.887888
vt 0.887888 0.297297
vt 0.815816 0.297297
vt 0.815816 0.591592
vt 0.887888 0.591592
vt 0.591592 0.813814
vt 0.591592 0.741742
vt 0.297297 0.741742
vt 0.297297 0.813814
vt 0.813814 0.297297
vt 0.741742 0.297297
vt 0.741742 0.591592
vt 0.813814 0.591592
vt 0.591592 0.887888
vt 0.591592 0.815816
vt 0.297297 0.815816
vt 0.297297 0.887888
vt 0.924925 0.297297
vt 0.889890 0.297297
vt 0.889890 0.591592
vt 0.924925 0.591592
vt 0.889890 0.949571
vt 0.889890 0.899200
vt 0.904079 0.889890
vt 0.961962 0.902281
vt 0.961962 0.952652
vt 0.947773 0.961962
vt 0.295295 0.998999
vt 0.295295 0.963964
vt 0.001001 0.963964
vt 0.001001 0.998999
vt 0.924925 0.593594
vt 0.889890 0.593594
vt 0.889890 0.887888
vt 0.924925 0.887888
vt 0.295295 0.813814
vt 0.295295 0.741742
vt 0.001001 0.741742
vt 0.001001 0.813814
vt 0.665666 0.593594
vt 0.593594 0.593594
vt 0.593594 0.887888
vt 0.665666 0.887888
vt 0.295295 0.961962
vt 0.295295 0.889890
vt 0.001001 0.889890
vt 0.001001 0.961962
vn 0.3945 0.3072 -0.8660
vn 0.7889 0.6145 0.0000
vn 0.3945 0.3072 0.8660
vn -0.3945 -0.3072 0.8660
vn -0.6145 0.7889 -0.0000
vn -0.7889 -0.6145 0.0000
vn -0.3945 -0.3072 -0.8660
vn 0.7915 0.0476 -0.6093
vn 0.6145 -0.7889 -0.0000
vn -0.5713 0.5508 -0.6085
vn -0.7918 0.0105 -0.6107
vn -0.7980 0.0080 0.6026
vn 0.9962 0.0849 -0.0176
vn -0.9974 0.0701 0.0169
vn 0.7847 0.0486 0.6179
vn -0.5560 0.8310 0.0182
vn -0.5768 0.5539 0.6004
vn 0.7680 -0.6402 -0.0176
vn -0.6997 0.7142 0.0168
vn 0.5937 -0.5159 0.6176
vn 0.5980 -0.5212 -0.6089
vn -0.2548 0.7216 0.6438
vn 0.4484 -0.6280 0.6361
vn 0.4520 -0.6338 -0.6277
vn -0.4366 0.6377 -0.6346
vn -0.4409 0.6429 0.6263
vn 0.5874 -0.8091 -0.0184
vn -0.9579 -0.2872 0.0000
vn 0.3378 -0.9410 -0.0192
vn -0.3310 0.9434 0.0191
vn 0.2550 -0.7139 0.6521
vn 0.2573 -0.7206 -0.6439
vn -0.2523 0.7149 -0.6520
usemtl charger
s off
f 59/183/29 60/184/29 61/185/29 62/186/29
f 62/187/30 61/188/30 63/189/30 64/190/30
f 64/191/31 63/192/31 65/193/31 66/194/31
f 66/195/32 65/196/32 67/197/32 68/198/32
f 61/199/33 60/200/33 69/201/33 67/202/33 65/203/33 63/204/33
f 68/205/34 67/206/34 69/207/34 70/208/34
f 70/209/35 69/210/35 60/211/35 59/212/35
f 71/213/36 72/214/36 73/215/36 74/216/36
f 72/217/37 71/218/37 59/219/37 62/220/37
f 75/221/37 72/222/37 62/223/37 64/224/37
f 76/225/37 75/226/37 64/227/37 66/228/37
f 77/229/37 76/230/37 66/231/37 68/232/37
f 78/233/37 77/234/37 68/235/37 70/236/37
f 71/237/37 78/238/37 70/239/37 59/240/37
f 79/241/38 74/242/38 80/243/38 81/244/38
f 78/245/39 71/246/39 74/247/39 79/248/39
f 76/249/40 77/250/40 82/251/40 83/252/40
f 72/253/41 75/254/41 84/255/41 73/256/41
f 77/257/42 78/258/42 79/259/42 82/260/42
f 75/261/43 76/262/43 83/263/43 84/264/43
f 85/265/44 81/266/44 86/267/44 87/268/44
f 83/269/45 82/270/45 85/271/45 88/272/45
f 73/273/46 84/274/46 89/275/46 90/276/46
f 82/277/47 79/278/47 81/279/47 85/280/47
f 84/281/48 83/282/48 88/283/48 89/284/48
f 74/285/49 73/286/49 90/287/49 80/288/49
f 91/289/50 87/290/50 92/291/50 93/292/50
f 89/293/51 88/294/51 91/295/51 94/296/51
f 80/297/52 90/298/52 95/299/52 96/300/52
f 81/301/53 80/302/53 96/303/53 86/304/53
f 88/305/54 85/306/54 87/307/54 91/308/54
f 90/309/55 89/310/55 94/311/55 95/312/55
f 97/313/56 98/314/56 99/315/56 93/316/56 92/317/56 100/318/56
f 95/319/57 94/320/57 99/321/57 98/322/57
f 87/323/58 86/324/58 100/325/58 92/326/58
f 94/327/59 91/328/59 93/329/59 99/330/59
f 96/331/60 95/332/60 98/333/60 97/334/60
f 86/335/61 96/336/61 97/337/61 100/338/61
