# Blender v3.0.0 OBJ File: ''
# www.blender.org
mtllib untitled.mtl
o armLeft
v 0.255994 -0.059618 -0.137296
v 0.254222 -0.060350 -0.066437
v 0.255273 0.008596 -0.068306
v 0.252775 0.006102 -0.141838
v 0.515950 -0.056632 -0.134427
v 0.448050 -0.060377 -0.132224
v 0.445183 0.006051 -0.133948
v 0.511107 0.006761 -0.137913
v 0.509154 -0.056012 0.139029
v 0.511700 -0.058966 0.070833
v 0.511276 0.004806 0.069808
v 0.508188 0.010598 0.139336
v 0.251990 -0.056122 0.139424
v 0.320039 -0.059829 0.135384
v 0.316325 0.005219 0.138060
v 0.257285 0.007671 0.143723
v 0.448156 -0.259303 0.138136
v 0.446214 -0.259609 0.068617
v 0.513939 -0.255668 0.069280
v 0.508142 -0.261103 0.134394
v 0.320114 0.007187 0.067443
v 0.259847 0.010283 0.064345
v 0.452222 0.008733 0.137805
v 0.449288 0.005801 0.062292
v 0.386239 0.008155 0.072561
v 0.380976 0.007369 0.140750
v 0.450452 0.002714 0.003351
v 0.446915 0.007148 -0.068078
v 0.383018 0.011364 -0.070222
v 0.385849 0.007583 -0.002579
v 0.324034 0.005985 0.000525
v 0.322450 0.007352 -0.071045
v 0.257518 0.005825 0.006713
v 0.319921 -0.256920 0.137316
v 0.320654 -0.257578 0.070431
v 0.383940 -0.258997 0.062147
v 0.380804 -0.257167 0.136013
v 0.320076 -0.258585 0.000975
v 0.324452 -0.257707 -0.063033
v 0.383453 -0.254312 -0.064070
v 0.379333 -0.263524 -0.001678
v 0.444506 -0.258041 -0.001282
v 0.447946 -0.261109 -0.070973
v 0.515302 -0.256242 -0.072384
v 0.512145 -0.262951 0.003572
v 0.255926 -0.192232 0.137387
v 0.314067 -0.191256 0.140532
v 0.319668 -0.126012 0.137277
v 0.255869 -0.126461 0.136289
v 0.383701 -0.194499 0.141154
v 0.445228 -0.194394 0.139696
v 0.446705 -0.129427 0.139610
v 0.383209 -0.123783 0.136577
v 0.387941 -0.054526 0.135152
v 0.448446 -0.059403 0.137018
v 0.512481 -0.191012 0.135085
v 0.517737 -0.190561 0.065795
v 0.515393 -0.126849 0.068648
v 0.514204 -0.125032 0.138654
v 0.516381 -0.190806 0.002326
v 0.512051 -0.191711 -0.068528
v 0.513954 -0.130592 -0.069016
v 0.513326 -0.128242 0.000506
v 0.508733 -0.060305 -0.002541
v 0.512824 -0.061781 -0.063497
v 0.508245 0.006473 -0.070811
v 0.512006 0.003795 0.004393
v 0.514217 -0.196928 -0.138328
v 0.448357 -0.190903 -0.140353
v 0.448086 -0.126479 -0.138722
v 0.510664 -0.127409 -0.140031
v 0.384865 -0.190199 -0.139916
v 0.316980 -0.191401 -0.134824
v 0.322089 -0.127068 -0.141167
v 0.388375 -0.124835 -0.131900
v 0.386991 -0.059863 -0.141602
v 0.317767 -0.054427 -0.140061
v 0.324321 0.007592 -0.140834
v 0.384596 0.006755 -0.136573
v 0.258574 -0.193027 -0.135908
v 0.252439 -0.192308 -0.068895
v 0.258652 -0.128305 -0.071581
v 0.256395 -0.126704 -0.137195
v 0.258280 -0.191918 -0.001349
v 0.255544 -0.192353 0.063209
v 0.256039 -0.130968 0.072703
v 0.255583 -0.125032 0.000530
v 0.256569 -0.058929 0.002676
v 0.253799 -0.057625 0.069471
v 0.257004 -0.254733 0.001258
v 0.256118 -0.258117 0.068736
v 0.256791 -0.257918 0.136752
v 0.259235 -0.259866 -0.133795
v 0.255617 -0.260350 -0.066032
v 0.383723 -0.258669 -0.137482
v 0.319849 -0.258429 -0.137208
v 0.509032 -0.262893 -0.138206
v 0.449921 -0.263625 -0.134501
vt 0.453242 0.293640
vt 0.454414 0.344222
vt 0.403408 0.343517
vt 0.404602 0.291017
vt 0.356453 0.784781
vt 0.353448 0.732714
vt 0.402572 0.730304
vt 0.403333 0.780867
vt 0.803503 0.049269
vt 0.754807 0.051502
vt 0.754045 0.004337
vt 0.803692 0.000000
vt 0.603520 0.851042
vt 0.655684 0.847690
vt 0.653365 0.895846
vt 0.608096 0.898204
vt 0.997473 0.343033
vt 0.947839 0.344328
vt 0.948541 0.292402
vt 0.994973 0.297012
vt 0.754866 0.491535
vt 0.751156 0.441183
vt 0.797352 0.438231
vt 0.800219 0.494850
vt 0.650674 0.493055
vt 0.652034 0.439109
vt 0.700514 0.445662
vt 0.705333 0.494266
vt 0.650443 0.397042
vt 0.652354 0.346027
vt 0.701352 0.343715
vt 0.699941 0.392021
vt 0.747370 0.393462
vt 0.747764 0.342361
vt 0.799316 0.343484
vt 0.798446 0.397051
vt 0.996513 0.441388
vt 0.948765 0.440636
vt 0.943035 0.392072
vt 0.995766 0.394690
vt 0.899175 0.440881
vt 0.853501 0.437349
vt 0.852960 0.392107
vt 0.897432 0.395411
vt 0.897945 0.345447
vt 0.848187 0.342604
vt 0.847414 0.290958
vt 0.901586 0.293570
vt 0.605425 0.750339
vt 0.650015 0.750592
vt 0.654852 0.798766
vt 0.605923 0.798969
vt 0.703389 0.747608
vt 0.750578 0.747150
vt 0.752244 0.795181
vt 0.703601 0.799870
vt 0.707802 0.851033
vt 0.754159 0.846928
vt 0.757613 0.897289
vt 0.702958 0.896907
vt 0.800739 0.149134
vt 0.751248 0.148867
vt 0.753264 0.101732
vt 0.803244 0.100348
vt 0.705946 0.149069
vt 0.655388 0.149740
vt 0.654999 0.104552
vt 0.704630 0.102779
vt 0.702444 0.052506
vt 0.658909 0.053653
vt 0.653676 0.003147
vt 0.707344 0.005119
vt 0.252703 0.783913
vt 0.256945 0.733386
vt 0.304585 0.732967
vt 0.304111 0.780965
vt 0.257252 0.684689
vt 0.256118 0.632620
vt 0.303737 0.636341
vt 0.305576 0.687155
vt 0.353659 0.685900
vt 0.357441 0.632789
vt 0.403333 0.637617
vt 0.402900 0.683839
vt 0.551911 0.293391
vt 0.551981 0.341262
vt 0.504618 0.339904
vt 0.502854 0.293093
vt 0.552285 0.389454
vt 0.553182 0.435545
vt 0.507870 0.442885
vt 0.502840 0.391423
vt 0.453974 0.393558
vt 0.453605 0.441263
vt 0.403333 0.438200
vt 0.406121 0.397032
vt 0.505101 0.488316
vt 0.453116 0.491219
vt 0.405973 0.494850
vt 0.598763 0.390742
vt 0.601865 0.438883
vt 0.602321 0.487432
vt 0.553751 0.488494
vt 0.601358 0.294281
vt 0.602321 0.342664
vt 0.303772 0.585950
vt 0.353385 0.585425
vt 0.401996 0.582752
vt 0.206601 0.684030
vt 0.206565 0.635041
vt 0.205286 0.588552
vt 0.254724 0.587833
vt 0.203899 0.780149
vt 0.203147 0.734810
vt 0.604318 0.102208
vt 0.608255 0.049898
vt 0.605759 0.002984
vt 0.706894 0.202394
vt 0.652652 0.197488
vt 0.605699 0.202394
vt 0.605551 0.153645
vt 0.800304 0.200940
vt 0.753789 0.196990
vt 0.804046 0.797850
vt 0.800740 0.848936
vt 0.800546 0.898204
vt 0.700662 0.701249
vt 0.752293 0.699113
vt 0.798289 0.697244
vt 0.802190 0.749045
vt 0.605550 0.701752
vt 0.653971 0.701959
vt 0.800529 0.391680
vt 0.802828 0.340903
vt 0.800367 0.295561
vt 0.899209 0.489267
vt 0.851135 0.490124
vt 0.802776 0.487161
vt 0.800532 0.440669
vt 0.995913 0.489799
vt 0.947356 0.490124
vt 0.699348 0.296360
vt 0.745524 0.292571
vt 0.800367 0.290958
vt 0.603260 0.398555
vt 0.605290 0.344837
vt 0.602321 0.296977
vt 0.652915 0.298985
vt 0.607786 0.494850
vt 0.604581 0.445241
vn -1.0000 -0.0097 0.0008
vn -0.9997 -0.0239 0.0050
vn -0.9997 -0.0218 0.0095
vn -1.0000 -0.0078 0.0054
vn -0.0426 -0.0398 -0.9983
vn -0.0446 -0.0467 -0.9979
vn -0.0467 -0.0456 -0.9979
vn -0.0445 -0.0385 -0.9983
vn 0.9992 0.0102 0.0398
vn 0.9991 0.0118 0.0402
vn 0.9991 0.0116 0.0407
vn 0.9991 0.0100 0.0402
vn 0.0708 -0.0515 0.9962
vn 0.0731 -0.0594 0.9956
vn 0.0759 -0.0581 0.9954
vn 0.0733 -0.0498 0.9961
vn 0.0152 -0.9992 -0.0383
vn 0.0246 -0.9993 -0.0293
vn 0.0159 -0.9992 -0.0375
vn 0.0054 -0.9989 -0.0476
vn 0.0468 0.9984 0.0327
vn 0.0478 0.9983 0.0320
vn 0.0475 0.9984 0.0322
vn 0.0466 0.9984 0.0329
vn 0.0056 0.9999 -0.0146
vn 0.0111 0.9997 -0.0201
vn 0.0062 0.9999 -0.0151
vn 0.0008 1.0000 -0.0097
vn 0.0671 0.9962 0.0556
vn 0.0663 0.9962 0.0564
vn 0.0673 0.9962 0.0554
vn 0.0676 0.9962 0.0551
vn 0.0097 0.9996 0.0282
vn 0.0119 0.9996 0.0261
vn 0.0101 0.9996 0.0278
vn 0.0081 0.9995 0.0298
vn -0.0120 -0.9998 0.0175
vn -0.0140 -0.9998 0.0158
vn -0.0158 -0.9997 0.0161
vn -0.0187 -0.9997 0.0157
vn -0.0162 -0.9966 -0.0813
vn -0.0005 -0.9978 -0.0661
vn -0.0147 -0.9967 -0.0799
vn -0.0304 -0.9950 -0.0949
vn -0.0001 -0.9997 -0.0254
vn 0.0153 -0.9998 -0.0100
vn 0.0013 -0.9997 -0.0240
vn -0.0132 -0.9992 -0.0384
vn -0.0371 0.0378 0.9986
vn -0.0339 0.0297 0.9990
vn -0.0314 0.0315 0.9990
vn -0.0342 0.0393 0.9986
vn -0.0063 0.0292 0.9996
vn -0.0113 0.0431 0.9990
vn -0.0159 0.0402 0.9991
vn -0.0115 0.0265 0.9996
vn 0.0014 -0.0415 0.9991
vn 0.0068 -0.0590 0.9982
vn 0.0123 -0.0557 0.9984
vn 0.0075 -0.0391 0.9992
vn 0.9987 0.0084 0.0504
vn 0.9989 -0.0057 0.0464
vn 0.9991 -0.0037 0.0420
vn 0.9989 0.0104 0.0459
vn 0.9995 0.0009 -0.0314
vn 0.9995 0.0193 -0.0266
vn 0.9996 0.0170 -0.0218
vn 0.9996 -0.0015 -0.0267
vn 0.9997 0.0212 0.0110
vn 1.0000 -0.0060 0.0017
vn 1.0000 -0.0009 -0.0058
vn 0.9997 0.0246 0.0019
vn 0.0094 0.0038 -0.9999
vn 0.0053 -0.0068 -1.0000
vn 0.0016 -0.0049 -1.0000
vn 0.0058 0.0059 -1.0000
vn 0.0156 -0.0091 -0.9998
vn 0.0289 0.0389 -0.9988
vn 0.0461 0.0312 -0.9984
vn 0.0325 -0.0167 -0.9993
vn 0.0159 0.0245 -0.9996
vn 0.0220 0.0438 -0.9988
vn 0.0297 0.0405 -0.9987
vn 0.0223 0.0209 -0.9995
vn -0.9984 0.0417 -0.0382
vn -0.9995 0.0137 -0.0294
vn -0.9996 0.0180 -0.0198
vn -0.9985 0.0465 -0.0286
vn -0.9997 -0.0108 -0.0206
vn -0.9996 -0.0231 -0.0167
vn -0.9998 -0.0129 -0.0164
vn -0.9998 -0.0096 -0.0159
vn -0.9982 0.0591 -0.0119
vn -0.9990 0.0440 -0.0064
vn -0.9989 0.0467 -0.0001
vn -0.9980 0.0624 -0.0068
vn -0.9998 -0.0051 -0.0203
vn -0.9997 -0.0156 -0.0168
vn -0.9990 -0.0443 -0.0111
vn -0.9991 -0.0395 -0.0131
vn -0.9991 -0.0406 -0.0148
vn -0.9989 -0.0454 -0.0130
vn -0.9959 0.0856 -0.0286
vn -0.9959 0.0859 -0.0286
vn -0.9959 0.0855 -0.0284
vn -0.9959 0.0853 -0.0286
vn -0.9997 0.0009 -0.0252
vn -0.9996 0.0075 -0.0270
vn -0.9995 0.0064 -0.0294
vn -0.9996 -0.0002 -0.0274
vn -0.9999 -0.0113 0.0079
vn -0.9999 -0.0100 0.0074
vn -0.9999 -0.0101 0.0070
vn -0.9999 -0.0113 0.0074
vn -1.0000 0.0024 0.0020
vn -1.0000 0.0044 0.0014
vn -1.0000 0.0042 0.0007
vn -1.0000 0.0021 0.0016
vn -0.9970 -0.0345 -0.0693
vn -0.9971 -0.0263 -0.0720
vn -0.9968 -0.0277 -0.0749
vn -0.9967 -0.0359 -0.0722
vn -0.9988 -0.0064 0.0493
vn -0.9983 -0.0207 0.0543
vn -0.9981 -0.0185 0.0590
vn -0.9985 -0.0041 0.0543
vn -0.9995 0.0138 0.0287
vn -0.9988 0.0447 0.0187
vn -0.9992 0.0399 0.0096
vn -0.9998 0.0094 0.0188
vn 0.0679 -0.0444 -0.9967
vn 0.0550 -0.0812 -0.9952
vn 0.0433 -0.0744 -0.9963
vn 0.0565 -0.0387 -0.9977
vn -0.0539 0.0044 -0.9985
vn -0.0530 0.0073 -0.9986
vn -0.0519 0.0067 -0.9986
vn -0.0530 0.0035 -0.9986
vn -0.0150 -0.0469 -0.9988
vn -0.0112 -0.0337 -0.9994
vn -0.0074 -0.0359 -0.9993
vn -0.0104 -0.0488 -0.9988
vn -0.0356 0.0053 -0.9994
vn -0.0410 -0.0101 -0.9991
vn -0.0458 -0.0071 -0.9989
vn -0.0409 0.0079 -0.9991
vn -0.0249 -0.0041 -0.9997
vn -0.0196 0.0103 -0.9998
vn -0.0142 0.0072 -0.9999
vn -0.0197 -0.0074 -0.9998
vn -0.0167 -0.0511 -0.9986
vn -0.0227 -0.0678 -0.9974
vn -0.0284 -0.0643 -0.9975
vn -0.0231 -0.0483 -0.9986
vn -0.0221 -0.0493 -0.9985
vn -0.0152 -0.0327 -0.9993
vn -0.0088 -0.0365 -0.9993
vn -0.0150 -0.0528 -0.9985
vn 0.0206 -0.0550 -0.9983
vn 0.0169 -0.0642 -0.9978
vn 0.0134 -0.0624 -0.9980
vn 0.0171 -0.0531 -0.9984
vn -0.0493 0.0841 -0.9952
vn -0.0568 0.0634 -0.9964
vn -0.0650 0.0671 -0.9956
vn -0.0569 0.0883 -0.9945
vn 0.9989 0.0362 0.0309
vn 0.9982 0.0481 0.0344
vn 0.9982 0.0459 0.0392
vn 0.9988 0.0337 0.0348
vn 0.9992 -0.0374 -0.0099
vn 0.9998 -0.0186 -0.0034
vn 0.9998 -0.0219 0.0040
vn 0.9992 -0.0408 -0.0026
vn 0.9960 0.0757 0.0466
vn 0.9962 0.0741 0.0461
vn 0.9962 0.0745 0.0457
vn 0.9960 0.0759 0.0462
vn 1.0000 0.0028 -0.0009
vn 0.9997 -0.0211 -0.0085
vn 0.9997 -0.0181 -0.0160
vn 0.9999 0.0065 -0.0083
vn 0.9989 -0.0266 -0.0373
vn 0.9996 0.0032 -0.0298
vn 0.9998 -0.0015 -0.0208
vn 0.9991 -0.0311 -0.0278
vn 0.9998 0.0210 -0.0027
vn 1.0000 0.0021 -0.0079
vn 0.9999 0.0049 -0.0135
vn 0.9997 0.0236 -0.0079
vn 0.9951 -0.0575 0.0799
vn 0.9951 -0.0594 0.0792
vn 0.9952 -0.0591 0.0786
vn 0.9952 -0.0572 0.0793
vn 0.9980 -0.0591 -0.0209
vn 0.9980 -0.0590 -0.0207
vn 0.9980 -0.0592 -0.0209
vn 0.9980 -0.0593 -0.0211
vn 0.9987 0.0438 -0.0258
vn 0.9988 0.0415 -0.0265
vn 0.9988 0.0419 -0.0272
vn 0.9987 0.0441 -0.0266
vn -0.0380 0.0318 0.9988
vn -0.0370 0.0286 0.9989
vn -0.0356 0.0292 0.9989
vn -0.0369 0.0327 0.9988
vn -0.0056 0.0121 0.9999
vn -0.0091 0.0211 0.9997
vn -0.0129 0.0192 0.9997
vn -0.0090 0.0102 0.9999
vn -0.0302 -0.0073 0.9995
vn -0.0300 -0.0081 0.9995
vn -0.0297 -0.0077 0.9995
vn -0.0300 -0.0068 0.9995
vn -0.0101 -0.0471 0.9988
vn -0.0063 -0.0596 0.9982
vn -0.0019 -0.0576 0.9983
vn -0.0062 -0.0448 0.9990
vn 0.0651 -0.0168 0.9977
vn 0.0657 -0.0182 0.9977
vn 0.0658 -0.0174 0.9977
vn 0.0657 -0.0164 0.9977
vn 0.0470 -0.0328 0.9984
vn 0.0427 -0.0206 0.9989
vn 0.0389 -0.0226 0.9990
vn 0.0432 -0.0348 0.9985
vn -0.0267 -0.0342 0.9991
vn -0.0297 -0.0257 0.9992
vn -0.0334 -0.0274 0.9991
vn -0.0300 -0.0361 0.9989
vn 0.0059 -0.0679 0.9977
vn 0.0034 -0.0605 0.9982
vn 0.0012 -0.0617 0.9981
vn 0.0032 -0.0690 0.9976
vn -0.0001 0.0589 0.9983
vn 0.0009 0.0557 0.9984
vn 0.0021 0.0562 0.9984
vn 0.0009 0.0596 0.9982
vn -0.0125 -0.9988 -0.0472
vn -0.0343 -0.9971 -0.0686
vn -0.0130 -0.9988 -0.0478
vn 0.0073 -0.9996 -0.0277
vn -0.0882 -0.9949 0.0484
vn -0.0858 -0.9950 0.0506
vn -0.0881 -0.9949 0.0485
vn -0.0907 -0.9948 0.0460
vn 0.0465 -0.9966 0.0687
vn 0.0404 -0.9972 0.0632
vn 0.0524 -0.9959 0.0740
vn -0.0102 -0.9993 0.0356
vn -0.0008 -0.9990 0.0455
vn -0.0105 -0.9993 0.0353
vn -0.0205 -0.9995 0.0248
vn 0.0317 -0.9995 0.0016
vn 0.0298 -0.9996 -0.0001
vn 0.0312 -0.9995 0.0011
vn 0.0328 -0.9995 0.0026
vn 0.0268 -0.9991 0.0343
vn 0.0198 -0.9994 0.0288
vn 0.0253 -0.9991 0.0331
vn 0.0326 -0.9987 0.0389
vn 0.0121 -0.9999 0.0065
vn 0.0112 -0.9999 0.0056
vn 0.0118 -0.9999 0.0063
vn 0.0128 -0.9999 0.0071
vn -0.0255 -0.9995 -0.0172
vn -0.0330 -0.9992 -0.0243
vn -0.0261 -0.9995 -0.0178
vn -0.0188 -0.9998 -0.0108
vn -0.0476 -0.9979 0.0436
vn -0.0550 -0.9978 0.0375
vn -0.0483 -0.9979 0.0430
vn -0.0408 -0.9980 0.0491
vn -0.0446 0.9983 0.0379
vn -0.0495 0.9979 0.0425
vn -0.0454 0.9982 0.0387
vn -0.0409 0.9986 0.0346
vn -0.0255 0.9992 -0.0323
vn -0.0159 0.9991 -0.0402
vn -0.0242 0.9992 -0.0333
vn -0.0334 0.9991 -0.0257
vn -0.0015 0.9999 -0.0161
vn -0.0059 0.9999 -0.0119
vn -0.0023 0.9999 -0.0154
vn 0.0019 0.9998 -0.0196
vn -0.0030 0.9988 0.0489
vn 0.0005 0.9990 0.0458
vn -0.0023 0.9988 0.0483
vn -0.0059 0.9987 0.0515
vn -0.0001 1.0000 -0.0066
vn -0.0027 1.0000 -0.0040
vn -0.0007 1.0000 -0.0060
vn 0.0016 1.0000 -0.0083
vn 0.0413 0.9982 -0.0433
vn 0.0353 0.9987 -0.0378
vn 0.0408 0.9982 -0.0429
vn 0.0467 0.9977 -0.0482
vn -0.0037 0.9982 -0.0593
vn 0.0031 0.9979 -0.0645
vn -0.0021 0.9982 -0.0606
vn -0.0088 0.9984 -0.0554
vn 0.0017 0.9995 -0.0330
vn -0.0023 0.9996 -0.0293
vn 0.0019 0.9994 -0.0332
vn 0.0059 0.9993 -0.0368
vn 0.0559 0.9981 -0.0272
vn 0.0605 0.9977 -0.0318
vn 0.0558 0.9981 -0.0272
vn 0.0515 0.9984 -0.0230
vn -0.0253 0.9995 0.0185
vn -0.0230 0.9996 0.0166
vn -0.0248 0.9995 0.0181
vn -0.0269 0.9994 0.0199
vn -0.0194 0.9997 -0.0134
vn -0.0211 0.9997 -0.0118
vn -0.0200 0.9997 -0.0128
vn -0.0184 0.9997 -0.0142
vn 0.0223 0.9987 -0.0454
vn 0.0166 0.9991 -0.0395
vn 0.0224 0.9987 -0.0454
vn 0.0288 0.9982 -0.0521
vn -0.0215 -0.9997 0.0154
vn -0.0242 -0.9996 0.0128
vn 0.0367 -0.9991 0.0200
vn 0.0465 -0.9985 0.0295
vn 0.0374 -0.9991 0.0207
vn 0.0279 -0.9995 0.0116
vn -0.0087 -0.9991 0.0425
vn -0.0216 -0.9993 0.0294
vn -0.0090 -0.9991 0.0422
vn 0.0046 -0.9984 0.0559
vn 0.0176 -0.0023 0.9998
vn 0.0230 -0.0181 0.9996
vn 0.0283 -0.0151 0.9995
vn 0.0234 0.0005 0.9997
vn 0.0064 0.0235 0.9997
vn 0.0056 0.0254 0.9997
vn 0.0051 0.0250 0.9997
vn 0.0057 0.0232 0.9997
vn -0.0112 -0.0705 0.9975
vn -0.0145 -0.0602 0.9981
vn -0.0185 -0.0619 0.9979
vn -0.0150 -0.0723 0.9973
vn 0.9978 0.0615 0.0234
vn 0.9975 0.0657 0.0246
vn 0.9975 0.0651 0.0261
vn 0.9978 0.0607 0.0248
vn 0.9975 0.0614 -0.0361
vn 0.9976 0.0593 -0.0367
vn 0.9975 0.0597 -0.0373
vn 0.9974 0.0619 -0.0367
vn 0.9994 -0.0270 -0.0193
vn 0.9998 -0.0146 -0.0163
vn 0.9998 -0.0163 -0.0120
vn 0.9995 -0.0289 -0.0157
vn -0.0276 0.0903 -0.9955
vn -0.0288 0.0869 -0.9958
vn -0.0301 0.0876 -0.9957
vn -0.0289 0.0911 -0.9954
vn 0.0010 -0.0450 -0.9990
vn 0.0211 0.0068 -0.9998
vn 0.0400 -0.0033 -0.9992
vn 0.0207 -0.0554 -0.9982
vn 0.1063 0.0373 -0.9936
vn 0.0982 0.0156 -0.9950
vn 0.0905 0.0199 -0.9957
vn 0.0988 0.0419 -0.9942
vn -0.9991 -0.0415 0.0071
vn -0.9996 -0.0280 0.0026
vn -0.9995 -0.0303 -0.0012
vn -0.9990 -0.0437 0.0029
vn -0.9998 -0.0180 -0.0099
vn -0.9993 -0.0360 -0.0038
vn -0.9994 -0.0333 0.0013
vn -0.9999 -0.0150 -0.0049
vn -0.9994 0.0142 0.0321
vn -0.9994 0.0149 0.0320
vn -0.9994 0.0143 0.0321
vn -0.9994 0.0140 0.0320
usemtl wool
s 1
f 1/1/1 2/2/2 3/3/3
f 3/3/3 4/4/4 1/1/1
f 5/5/5 6/6/6 7/7/7
f 7/7/7 8/8/8 5/5/5
f 9/9/9 10/10/10 11/11/11
f 11/11/11 12/12/12 9/9/9
f 13/13/13 14/14/14 15/15/15
f 15/15/15 16/16/16 13/13/13
f 17/17/17 18/18/18 19/19/19
f 19/19/19 20/20/20 17/17/17
f 15/21/21 21/22/22 22/23/23
f 22/23/23 16/24/24 15/21/21
f 23/25/25 24/26/26 25/27/27
f 25/27/27 26/28/28 23/25/25
f 27/29/29 28/30/30 29/31/31
f 29/31/31 30/32/32 27/29/29
f 31/33/33 32/34/34 3/35/35
f 3/35/35 33/36/36 31/33/33
f 34/37/37 35/38/38 36/39/39
f 36/39/39 37/40/40 34/37/37
f 38/41/41 39/42/42 40/43/43
f 40/43/43 41/44/44 38/41/41
f 42/45/45 43/46/46 44/47/47
f 44/47/47 45/48/48 42/45/45
f 46/49/49 47/50/50 48/51/51
f 48/51/51 49/52/52 46/49/49
f 50/53/53 51/54/54 52/55/55
f 52/55/55 53/56/56 50/53/53
f 54/57/57 55/58/58 23/59/59
f 23/59/59 26/60/60 54/57/57
f 56/61/61 57/62/62 58/63/63
f 58/63/63 59/64/64 56/61/61
f 60/65/65 61/66/66 62/67/67
f 62/67/67 63/68/68 60/65/65
f 64/69/69 65/70/70 66/71/71
f 66/71/71 67/72/72 64/69/69
f 68/73/73 69/74/74 70/75/75
f 70/75/75 71/76/76 68/73/73
f 72/77/77 73/78/78 74/79/79
f 74/79/79 75/80/80 72/77/77
f 76/81/81 77/82/82 78/83/83
f 78/83/83 79/84/84 76/81/81
f 80/85/85 81/86/86 82/87/87
f 82/87/87 83/88/88 80/85/85
f 84/89/89 85/90/90 86/91/91
f 86/91/91 87/92/92 84/89/89
f 88/93/93 89/94/94 22/95/95
f 22/95/95 33/96/96 88/93/93
f 87/92/92 86/91/91 89/94/97
f 89/94/97 88/93/98 87/92/92
f 86/91/99 49/97/100 13/98/101
f 13/98/101 89/94/102 86/91/99
f 89/94/103 13/98/104 16/99/105
f 16/99/105 22/95/106 89/94/103
f 90/100/107 91/101/108 85/90/109
f 85/90/109 84/89/110 90/100/107
f 91/101/111 92/102/112 46/103/113
f 46/103/113 85/90/114 91/101/111
f 85/90/115 46/103/116 49/97/117
f 49/97/117 86/91/118 85/90/115
f 93/104/119 94/105/120 81/86/121
f 81/86/121 80/85/122 93/104/119
f 94/105/123 90/100/124 84/89/125
f 84/89/125 81/86/126 94/105/123
f 81/86/127 84/89/128 87/92/129
f 87/92/129 82/87/130 81/86/127
f 75/80/131 74/79/132 77/82/133
f 77/82/133 76/81/134 75/80/131
f 74/79/135 83/106/136 1/107/137
f 1/107/137 77/82/138 74/79/135
f 77/82/139 1/107/140 4/108/141
f 4/108/141 78/83/142 77/82/139
f 95/109/143 96/110/144 73/78/145
f 73/78/145 72/77/146 95/109/143
f 96/110/147 93/111/148 80/112/149
f 80/112/149 73/78/150 96/110/147
f 73/78/151 80/112/152 83/106/153
f 83/106/153 74/79/154 73/78/151
f 97/113/155 98/114/156 69/74/157
f 69/74/157 68/73/158 97/113/155
f 98/114/159 95/109/160 72/77/161
f 72/77/161 69/74/162 98/114/159
f 69/74/163 72/77/164 75/80/165
f 75/80/165 70/75/166 69/74/163
f 63/68/167 62/67/168 65/70/169
f 65/70/169 64/69/170 63/68/167
f 62/67/171 71/115/172 5/116/173
f 5/116/173 65/70/174 62/67/171
f 65/70/175 5/116/176 8/117/177
f 8/117/177 66/71/178 65/70/175
f 45/118/179 44/119/180 61/66/181
f 61/66/181 60/65/182 45/118/179
f 44/119/183 97/120/184 68/121/185
f 68/121/185 61/66/186 44/119/183
f 61/66/187 68/121/188 71/115/189
f 71/115/189 62/67/190 61/66/187
f 20/122/191 19/123/192 57/62/193
f 57/62/193 56/61/194 20/122/191
f 19/123/195 45/118/196 60/65/197
f 60/65/197 57/62/198 19/123/195
f 57/62/199 60/65/200 63/68/201
f 63/68/201 58/63/202 57/62/199
f 53/56/203 52/55/204 55/58/205
f 55/58/205 54/57/206 53/56/203
f 52/55/207 59/124/208 9/125/209
f 9/125/209 55/58/210 52/55/207
f 55/58/211 9/125/212 12/126/213
f 12/126/213 23/59/214 55/58/211
f 37/127/215 17/128/216 51/54/217
f 51/54/217 50/53/218 37/127/215
f 17/128/219 20/129/220 56/130/221
f 56/130/221 51/54/222 17/128/219
f 51/54/223 56/130/224 59/124/225
f 59/124/225 52/55/226 51/54/223
f 92/131/227 34/132/228 47/50/229
f 47/50/229 46/49/230 92/131/227
f 34/132/231 37/127/232 50/53/233
f 50/53/233 47/50/234 34/132/231
f 47/50/235 50/53/236 53/56/237
f 53/56/237 48/51/238 47/50/235
f 41/44/239 40/43/240 43/46/241
f 43/46/241 42/45/242 41/44/239
f 40/43/243 95/133/244 98/134/245
f 98/134/245 43/46/246 40/43/243
f 43/46/247 98/134/248 97/135/247
f 97/135/247 44/47/249 43/46/247
f 90/136/250 94/137/251 39/42/252
f 39/42/252 38/41/253 90/136/250
f 94/137/254 93/138/255 96/139/256
f 96/139/256 39/42/257 94/137/254
f 39/42/258 96/139/259 95/133/260
f 95/133/260 40/43/261 39/42/258
f 92/140/262 91/141/263 35/38/264
f 35/38/264 34/37/265 92/140/262
f 91/141/266 90/136/267 38/41/268
f 38/41/268 35/38/269 91/141/266
f 35/38/270 38/41/271 41/44/272
f 41/44/272 36/39/273 35/38/270
f 30/32/274 29/31/275 32/34/276
f 32/34/276 31/33/277 30/32/274
f 29/31/278 79/142/279 78/143/280
f 78/143/280 32/34/281 29/31/278
f 32/34/282 78/143/283 4/144/284
f 4/144/284 3/35/285 32/34/282
f 67/145/286 66/146/287 28/30/288
f 28/30/288 27/29/289 67/145/286
f 66/146/290 8/147/291 7/148/292
f 7/148/292 28/30/293 66/146/290
f 28/30/294 7/148/295 79/142/296
f 79/142/296 29/31/297 28/30/294
f 12/149/298 11/150/299 24/26/300
f 24/26/300 23/25/301 12/149/298
f 11/150/302 67/145/303 27/29/304
f 27/29/304 24/26/305 11/150/302
f 24/26/306 27/29/307 30/32/308
f 30/32/308 25/27/309 24/26/306
f 26/28/310 25/27/311 21/22/312
f 21/22/312 15/21/313 26/28/310
f 25/27/314 30/32/315 31/33/316
f 31/33/316 21/22/317 25/27/314
f 21/22/318 31/33/319 33/36/320
f 33/36/320 22/23/321 21/22/318
f 37/40/40 36/39/39 18/18/322
f 18/18/322 17/17/323 37/40/40
f 36/39/324 41/44/325 42/45/326
f 42/45/326 18/18/327 36/39/324
f 18/18/328 42/45/329 45/48/330
f 45/48/330 19/19/331 18/18/328
f 49/52/332 48/51/333 14/14/334
f 14/14/334 13/13/335 49/52/332
f 48/51/336 53/56/337 54/57/338
f 54/57/338 14/14/339 48/51/336
f 14/14/340 54/57/341 26/60/342
f 26/60/342 15/15/343 14/14/340
f 59/64/344 58/63/345 10/10/346
f 10/10/346 9/9/347 59/64/344
f 58/63/348 63/68/349 64/69/350
f 64/69/350 10/10/351 58/63/348
f 10/10/352 64/69/353 67/72/354
f 67/72/354 11/11/355 10/10/352
f 71/76/356 70/75/357 6/6/358
f 6/6/358 5/5/359 71/76/356
f 70/75/360 75/80/361 76/81/362
f 76/81/362 6/6/363 70/75/360
f 6/6/364 76/81/365 79/84/366
f 79/84/366 7/7/367 6/6/364
f 83/88/368 82/87/369 2/2/370
f 2/2/370 1/1/371 83/88/368
f 82/87/372 87/92/373 88/93/374
f 88/93/374 2/2/375 82/87/372
f 2/2/376 88/93/377 33/96/378
f 33/96/378 3/3/379 2/2/376
o armRight
v -0.504251 -0.059618 -0.137296
v -0.506024 -0.060350 -0.066437
v -0.504972 0.008596 -0.068306
v -0.507470 0.006102 -0.141838
v -0.244296 -0.056632 -0.134427
v -0.312195 -0.060377 -0.132224
v -0.315062 0.006051 -0.133948
v -0.249138 0.006761 -0.137913
v -0.251091 -0.056012 0.139029
v -0.248546 -0.058966 0.070833
v -0.248969 0.004806 0.069808
v -0.252057 0.010598 0.139336
v -0.508255 -0.056122 0.139424
v -0.440206 -0.059829 0.135384
v -0.443920 0.005219 0.138060
v -0.502960 0.007671 0.143723
v -0.312089 -0.259303 0.138136
v -0.314032 -0.259609 0.068617
v -0.246306 -0.255668 0.069280
v -0.252103 -0.261103 0.134394
v -0.440131 0.007187 0.067443
v -0.500398 0.010283 0.064345
v -0.308024 0.008733 0.137805
v -0.310958 0.005801 0.062292
v -0.374006 0.008155 0.072561
v -0.379269 0.007369 0.140750
v -0.309794 0.002714 0.003351
v -0.313330 0.007148 -0.068078
v -0.377227 0.011364 -0.070222
v -0.374397 0.007583 -0.002579
v -0.436212 0.005985 0.000525
v -0.437795 0.007352 -0.071045
v -0.502728 0.005825 0.006713
v -0.440325 -0.256920 0.137316
v -0.439591 -0.257578 0.070431
v -0.376305 -0.258997 0.062147
v -0.379442 -0.257167 0.136013
v -0.440169 -0.258585 0.000975
v -0.435794 -0.257707 -0.063033
v -0.376792 -0.254312 -0.064070
v -0.380912 -0.263524 -0.001678
v -0.315739 -0.258041 -0.001282
v -0.312300 -0.261109 -0.070973
v -0.244943 -0.256242 -0.072384
v -0.248101 -0.262951 0.003572
v -0.504319 -0.192232 0.137387
v -0.446178 -0.191256 0.140532
v -0.440577 -0.126012 0.137277
v -0.504376 -0.126461 0.136289
v -0.376544 -0.194499 0.141154
v -0.315017 -0.194394 0.139696
v -0.313540 -0.129427 0.139610
v -0.377036 -0.123783 0.136577
v -0.372304 -0.054526 0.135152
v -0.311799 -0.059403 0.137018
v -0.247765 -0.191012 0.135085
v -0.242508 -0.190561 0.065795
v -0.244852 -0.126849 0.068648
v -0.246042 -0.125032 0.138654
v -0.243865 -0.190806 0.002326
v -0.248194 -0.191711 -0.068528
v -0.246291 -0.130592 -0.069016
v -0.246919 -0.128242 0.000506
v -0.251513 -0.060305 -0.002541
v -0.247422 -0.061781 -0.063497
v -0.252000 0.006473 -0.070811
v -0.248239 0.003795 0.004393
v -0.246028 -0.196928 -0.138328
v -0.311888 -0.190903 -0.140353
v -0.312159 -0.126479 -0.138722
v -0.249581 -0.127409 -0.140031
v -0.375380 -0.190199 -0.139916
v -0.443265 -0.191401 -0.134824
v -0.438156 -0.127068 -0.141167
v -0.371870 -0.124835 -0.131900
v -0.373254 -0.059863 -0.141602
v -0.442478 -0.054427 -0.140061
v -0.435924 0.007592 -0.140834
v -0.375649 0.006755 -0.136573
v -0.501672 -0.193027 -0.135908
v -0.507806 -0.192308 -0.068895
v -0.501593 -0.128305 -0.071581
v -0.503850 -0.126704 -0.137195
v -0.501965 -0.191918 -0.001349
v -0.504701 -0.192353 0.063209
v -0.504206 -0.130968 0.072703
v -0.504662 -0.125032 0.000530
v -0.503676 -0.058929 0.002676
v -0.506447 -0.057625 0.069471
v -0.503241 -0.254733 0.001258
v -0.504127 -0.258117 0.068736
v -0.503454 -0.257918 0.136752
v -0.501010 -0.259866 -0.133795
v -0.504629 -0.260350 -0.066032
v -0.376522 -0.258669 -0.137482
v -0.440396 -0.258429 -0.137208
v -0.251213 -0.262893 -0.138206
v -0.310324 -0.263625 -0.134501
vt 0.455239 0.002623
vt 0.456411 0.053205
vt 0.405406 0.052500
vt 0.406599 0.000000
vt 0.556639 0.696879
vt 0.553634 0.644812
vt 0.602759 0.642402
vt 0.603520 0.692966
vt 0.802704 0.544119
vt 0.754009 0.546352
vt 0.753247 0.499187
vt 0.802894 0.494850
vt 0.203147 0.938578
vt 0.255311 0.935227
vt 0.252992 0.983382
vt 0.207723 0.985741
vt 1.000000 0.546925
vt 0.950365 0.548220
vt 0.951067 0.496293
vt 0.997500 0.500903
vt 0.152544 0.783801
vt 0.148834 0.733449
vt 0.195030 0.730497
vt 0.197898 0.787116
vt 0.048353 0.785321
vt 0.049713 0.731375
vt 0.098193 0.737928
vt 0.103012 0.786532
vt 0.048122 0.689308
vt 0.050033 0.638293
vt 0.099031 0.635981
vt 0.097620 0.684287
vt 0.145048 0.685728
vt 0.145443 0.634627
vt 0.196995 0.635750
vt 0.196125 0.689317
vt 0.999040 0.645279
vt 0.951291 0.644528
vt 0.945561 0.595963
vt 0.998292 0.598581
vt 0.901702 0.644773
vt 0.856027 0.641241
vt 0.855487 0.595999
vt 0.899958 0.599303
vt 0.900471 0.549339
vt 0.850713 0.546496
vt 0.849940 0.494850
vt 0.904112 0.497462
vt 0.205052 0.837876
vt 0.249642 0.838129
vt 0.254479 0.886303
vt 0.205550 0.886505
vt 0.303016 0.835144
vt 0.350205 0.834687
vt 0.351871 0.882717
vt 0.303228 0.887406
vt 0.307429 0.938570
vt 0.353786 0.934464
vt 0.357240 0.984825
vt 0.302585 0.984444
vt 0.799941 0.643983
vt 0.750450 0.643717
vt 0.752466 0.596581
vt 0.802446 0.595198
vt 0.705148 0.643919
vt 0.654590 0.644590
vt 0.654200 0.599402
vt 0.703832 0.597629
vt 0.701645 0.547356
vt 0.658110 0.548503
vt 0.652878 0.497997
vt 0.706546 0.499969
vt 0.452889 0.696011
vt 0.457132 0.645484
vt 0.504772 0.645065
vt 0.504298 0.693063
vt 0.457439 0.596787
vt 0.456304 0.544718
vt 0.503924 0.548439
vt 0.505763 0.599253
vt 0.553845 0.597998
vt 0.557628 0.544887
vt 0.603520 0.549715
vt 0.603087 0.595937
vt 0.553908 0.002373
vt 0.553978 0.050245
vt 0.506616 0.048887
vt 0.504851 0.002075
vt 0.554283 0.098436
vt 0.555179 0.144528
vt 0.509867 0.151867
vt 0.504837 0.100405
vt 0.455971 0.102541
vt 0.455602 0.150246
vt 0.405331 0.147183
vt 0.408118 0.106014
vt 0.507099 0.197298
vt 0.455113 0.200202
vt 0.407970 0.203833
vt 0.600760 0.099725
vt 0.603863 0.147866
vt 0.604318 0.196415
vt 0.555748 0.197477
vt 0.603355 0.003264
vt 0.604318 0.051647
vt 0.503958 0.498048
vt 0.553571 0.497523
vt 0.602183 0.494850
vt 0.406788 0.596128
vt 0.406751 0.547139
vt 0.405473 0.500651
vt 0.454910 0.499931
vt 0.404086 0.692247
vt 0.403333 0.646909
vt 0.603520 0.597058
vt 0.607457 0.544748
vt 0.604960 0.497833
vt 0.706096 0.697244
vt 0.651854 0.692338
vt 0.604900 0.697244
vt 0.604753 0.648495
vt 0.799506 0.695790
vt 0.752990 0.691840
vt 0.403673 0.885386
vt 0.400367 0.936472
vt 0.400173 0.985741
vt 0.300289 0.788785
vt 0.351920 0.786650
vt 0.397916 0.784781
vt 0.401817 0.836581
vt 0.205177 0.789289
vt 0.253598 0.789495
vt 0.803055 0.595572
vt 0.805354 0.544795
vt 0.802894 0.499452
vt 0.901735 0.693159
vt 0.853662 0.694016
vt 0.805303 0.691053
vt 0.803059 0.644561
vt 0.998439 0.693690
vt 0.949883 0.694016
vt 0.097027 0.588626
vt 0.143203 0.584837
vt 0.198046 0.583224
vt 0.000938 0.690821
vt 0.002968 0.637103
vt 0.000000 0.589243
vt 0.050594 0.591251
vt 0.005465 0.787116
vt 0.002260 0.737507
vn -1.0000 -0.0097 0.0008
vn -0.9997 -0.0239 0.0050
vn -0.9997 -0.0218 0.0095
vn -1.0000 -0.0078 0.0054
vn -0.0426 -0.0398 -0.9983
vn -0.0446 -0.0467 -0.9979
vn -0.0467 -0.0456 -0.9979
vn -0.0445 -0.0385 -0.9983
vn 0.9991 0.0105 0.0399
vn 0.9991 0.0118 0.0402
vn 0.9991 0.0116 0.0406
vn 0.9991 0.0100 0.0402
vn 0.0708 -0.0515 0.9962
vn 0.0731 -0.0594 0.9956
vn 0.0759 -0.0581 0.9954
vn 0.0733 -0.0498 0.9961
vn 0.0152 -0.9992 -0.0383
vn 0.0246 -0.9993 -0.0293
vn 0.0159 -0.9992 -0.0375
vn 0.0054 -0.9989 -0.0476
vn 0.0468 0.9984 0.0327
vn 0.0477 0.9983 0.0321
vn 0.0475 0.9984 0.0322
vn 0.0466 0.9984 0.0329
vn 0.0056 0.9999 -0.0146
vn 0.0111 0.9997 -0.0201
vn 0.0063 0.9999 -0.0153
vn 0.0008 1.0000 -0.0097
vn 0.0671 0.9962 0.0556
vn 0.0663 0.9962 0.0563
vn 0.0668 0.9962 0.0559
vn 0.0676 0.9962 0.0551
vn 0.0097 0.9996 0.0282
vn 0.0119 0.9996 0.0261
vn 0.0102 0.9996 0.0278
vn 0.0081 0.9995 0.0298
vn -0.0120 -0.9998 0.0175
vn -0.0140 -0.9998 0.0158
vn -0.0158 -0.9997 0.0161
vn -0.0186 -0.9997 0.0158
vn -0.0162 -0.9966 -0.0813
vn -0.0005 -0.9978 -0.0661
vn -0.0147 -0.9967 -0.0799
vn -0.0304 -0.9950 -0.0949
vn -0.0001 -0.9997 -0.0254
vn 0.0153 -0.9998 -0.0100
vn 0.0013 -0.9997 -0.0240
vn -0.0132 -0.9992 -0.0384
vn -0.0371 0.0378 0.9986
vn -0.0339 0.0297 0.9990
vn -0.0314 0.0314 0.9990
vn -0.0342 0.0393 0.9986
vn -0.0063 0.0292 0.9996
vn -0.0113 0.0431 0.9990
vn -0.0159 0.0402 0.9991
vn -0.0115 0.0265 0.9996
vn 0.0014 -0.0415 0.9991
vn 0.0068 -0.0590 0.9982
vn 0.0123 -0.0557 0.9984
vn 0.0075 -0.0391 0.9992
vn 0.9987 0.0084 0.0504
vn 0.9989 -0.0057 0.0464
vn 0.9991 -0.0037 0.0420
vn 0.9989 0.0104 0.0459
vn 0.9995 0.0009 -0.0314
vn 0.9995 0.0193 -0.0266
vn 0.9996 0.0170 -0.0218
vn 0.9996 -0.0015 -0.0267
vn 0.9997 0.0212 0.0110
vn 1.0000 -0.0060 0.0017
vn 1.0000 -0.0009 -0.0058
vn 0.9997 0.0246 0.0019
vn 0.0094 0.0038 -0.9999
vn 0.0053 -0.0068 -1.0000
vn 0.0016 -0.0049 -1.0000
vn 0.0058 0.0059 -1.0000
vn 0.0156 -0.0091 -0.9998
vn 0.0289 0.0389 -0.9988
vn 0.0461 0.0312 -0.9984
vn 0.0325 -0.0167 -0.9993
vn 0.0159 0.0245 -0.9996
vn 0.0220 0.0438 -0.9988
vn 0.0297 0.0405 -0.9987
vn 0.0223 0.0209 -0.9995
vn -0.9984 0.0417 -0.0382
vn -0.9995 0.0137 -0.0294
vn -0.9996 0.0180 -0.0198
vn -0.9985 0.0465 -0.0286
vn -0.9997 -0.0108 -0.0206
vn -0.9996 -0.0231 -0.0167
vn -0.9998 -0.0129 -0.0164
vn -0.9998 -0.0096 -0.0160
vn -0.9982 0.0590 -0.0119
vn -0.9990 0.0440 -0.0064
vn -0.9989 0.0467 -0.0001
vn -0.9980 0.0624 -0.0068
vn -0.9998 -0.0050 -0.0203
vn -0.9997 -0.0156 -0.0168
vn -0.9990 -0.0445 -0.0110
vn -0.9991 -0.0395 -0.0131
vn -0.9991 -0.0406 -0.0148
vn -0.9989 -0.0454 -0.0130
vn -0.9959 0.0856 -0.0285
vn -0.9959 0.0858 -0.0286
vn -0.9959 0.0858 -0.0288
vn -0.9959 0.0853 -0.0286
vn -0.9997 0.0009 -0.0252
vn -0.9996 0.0075 -0.0270
vn -0.9995 0.0064 -0.0294
vn -0.9996 -0.0002 -0.0274
vn -0.9999 -0.0106 0.0074
vn -0.9999 -0.0100 0.0074
vn -0.9999 -0.0101 0.0070
vn -0.9999 -0.0113 0.0074
vn -1.0000 0.0024 0.0020
vn -1.0000 0.0044 0.0014
vn -1.0000 0.0042 0.0007
vn -1.0000 0.0021 0.0016
vn -0.9970 -0.0344 -0.0694
vn -0.9971 -0.0263 -0.0720
vn -0.9968 -0.0277 -0.0749
vn -0.9967 -0.0359 -0.0722
vn -0.9988 -0.0064 0.0493
vn -0.9983 -0.0207 0.0543
vn -0.9981 -0.0186 0.0591
vn -0.9985 -0.0041 0.0543
vn -0.9995 0.0138 0.0287
vn -0.9988 0.0447 0.0187
vn -0.9992 0.0399 0.0096
vn -0.9998 0.0094 0.0188
vn 0.0679 -0.0444 -0.9967
vn 0.0550 -0.0812 -0.9952
vn 0.0433 -0.0744 -0.9963
vn 0.0565 -0.0387 -0.9977
vn -0.0539 0.0044 -0.9985
vn -0.0530 0.0073 -0.9986
vn -0.0519 0.0067 -0.9986
vn -0.0530 0.0035 -0.9986
vn -0.0150 -0.0469 -0.9988
vn -0.0112 -0.0337 -0.9994
vn -0.0073 -0.0359 -0.9993
vn -0.0105 -0.0489 -0.9988
vn -0.0356 0.0053 -0.9994
vn -0.0410 -0.0101 -0.9991
vn -0.0458 -0.0071 -0.9989
vn -0.0409 0.0079 -0.9991
vn -0.0249 -0.0042 -0.9997
vn -0.0196 0.0103 -0.9998
vn -0.0142 0.0071 -0.9999
vn -0.0197 -0.0074 -0.9998
vn -0.0167 -0.0511 -0.9986
vn -0.0227 -0.0678 -0.9974
vn -0.0284 -0.0643 -0.9975
vn -0.0231 -0.0483 -0.9986
vn -0.0221 -0.0493 -0.9985
vn -0.0152 -0.0327 -0.9993
vn -0.0088 -0.0365 -0.9993
vn -0.0150 -0.0528 -0.9985
vn 0.0206 -0.0550 -0.9983
vn 0.0169 -0.0642 -0.9978
vn 0.0134 -0.0624 -0.9980
vn 0.0171 -0.0531 -0.9984
vn -0.0493 0.0841 -0.9952
vn -0.0568 0.0634 -0.9964
vn -0.0650 0.0671 -0.9956
vn -0.0569 0.0883 -0.9945
vn 0.9989 0.0362 0.0309
vn 0.9983 0.0481 0.0344
vn 0.9982 0.0459 0.0392
vn 0.9988 0.0337 0.0348
vn 0.9993 -0.0374 -0.0099
vn 0.9998 -0.0186 -0.0034
vn 0.9998 -0.0219 0.0040
vn 0.9992 -0.0408 -0.0026
vn 0.9960 0.0757 0.0467
vn 0.9962 0.0742 0.0461
vn 0.9962 0.0745 0.0458
vn 0.9960 0.0759 0.0462
vn 1.0000 0.0028 -0.0009
vn 0.9997 -0.0211 -0.0085
vn 0.9997 -0.0181 -0.0160
vn 0.9999 0.0065 -0.0083
vn 0.9989 -0.0266 -0.0373
vn 0.9996 0.0032 -0.0298
vn 0.9998 -0.0015 -0.0208
vn 0.9991 -0.0311 -0.0278
vn 0.9998 0.0210 -0.0027
vn 1.0000 0.0021 -0.0079
vn 0.9999 0.0049 -0.0135
vn 0.9997 0.0236 -0.0079
vn 0.9951 -0.0574 0.0799
vn 0.9951 -0.0594 0.0792
vn 0.9952 -0.0590 0.0786
vn 0.9952 -0.0572 0.0793
vn 0.9980 -0.0591 -0.0209
vn 0.9980 -0.0590 -0.0207
vn 0.9980 -0.0592 -0.0209
vn 0.9980 -0.0593 -0.0211
vn 0.9987 0.0439 -0.0257
vn 0.9988 0.0416 -0.0265
vn 0.9988 0.0419 -0.0272
vn 0.9987 0.0441 -0.0266
vn -0.0380 0.0318 0.9988
vn -0.0370 0.0286 0.9989
vn -0.0356 0.0292 0.9989
vn -0.0369 0.0327 0.9988
vn -0.0056 0.0121 0.9999
vn -0.0091 0.0211 0.9997
vn -0.0129 0.0192 0.9997
vn -0.0090 0.0102 0.9999
vn -0.0302 -0.0073 0.9995
vn -0.0300 -0.0081 0.9995
vn -0.0297 -0.0077 0.9995
vn -0.0300 -0.0068 0.9995
vn -0.0101 -0.0471 0.9988
vn -0.0063 -0.0596 0.9982
vn -0.0019 -0.0576 0.9983
vn -0.0062 -0.0448 0.9990
vn 0.0651 -0.0168 0.9977
vn 0.0657 -0.0182 0.9977
vn 0.0663 -0.0179 0.9976
vn 0.0657 -0.0164 0.9977
vn 0.0470 -0.0328 0.9984
vn 0.0427 -0.0206 0.9989
vn 0.0389 -0.0226 0.9990
vn 0.0432 -0.0348 0.9985
vn -0.0266 -0.0342 0.9991
vn -0.0297 -0.0257 0.9992
vn -0.0334 -0.0274 0.9991
vn -0.0300 -0.0361 0.9989
vn 0.0059 -0.0679 0.9977
vn 0.0034 -0.0605 0.9982
vn 0.0012 -0.0617 0.9981
vn 0.0032 -0.0690 0.9976
vn -0.0001 0.0589 0.9983
vn 0.0009 0.0557 0.9984
vn 0.0021 0.0562 0.9984
vn 0.0009 0.0596 0.9982
vn -0.0126 -0.9988 -0.0474
vn -0.0343 -0.9971 -0.0686
vn -0.0130 -0.9988 -0.0478
vn 0.0073 -0.9996 -0.0277
vn -0.0887 -0.9949 0.0479
vn -0.0858 -0.9950 0.0506
vn -0.0881 -0.9949 0.0485
vn -0.0907 -0.9948 0.0460
vn 0.0468 -0.9965 0.0690
vn 0.0404 -0.9972 0.0632
vn 0.0466 -0.9965 0.0688
vn 0.0524 -0.9959 0.0740
vn -0.0105 -0.9993 0.0353
vn -0.0008 -0.9990 0.0455
vn -0.0102 -0.9993 0.0356
vn -0.0205 -0.9995 0.0248
vn 0.0317 -0.9995 0.0016
vn 0.0298 -0.9996 -0.0001
vn 0.0314 -0.9995 0.0013
vn 0.0328 -0.9995 0.0026
vn 0.0268 -0.9990 0.0343
vn 0.0198 -0.9994 0.0288
vn 0.0253 -0.9991 0.0331
vn 0.0326 -0.9987 0.0389
vn 0.0121 -0.9999 0.0065
vn 0.0112 -0.9999 0.0056
vn 0.0118 -0.9999 0.0063
vn 0.0128 -0.9999 0.0071
vn -0.0255 -0.9995 -0.0172
vn -0.0330 -0.9992 -0.0243
vn -0.0261 -0.9995 -0.0177
vn -0.0188 -0.9998 -0.0108
vn -0.0476 -0.9979 0.0436
vn -0.0550 -0.9978 0.0375
vn -0.0483 -0.9979 0.0430
vn -0.0408 -0.9980 0.0491
vn -0.0447 0.9983 0.0380
vn -0.0495 0.9979 0.0425
vn -0.0455 0.9982 0.0388
vn -0.0409 0.9986 0.0346
vn -0.0255 0.9992 -0.0323
vn -0.0159 0.9991 -0.0402
vn -0.0242 0.9992 -0.0334
vn -0.0334 0.9991 -0.0257
vn -0.0021 0.9999 -0.0157
vn -0.0059 0.9999 -0.0119
vn -0.0023 0.9999 -0.0154
vn 0.0019 0.9998 -0.0196
vn -0.0030 0.9988 0.0489
vn 0.0005 0.9989 0.0458
vn -0.0023 0.9988 0.0483
vn -0.0059 0.9987 0.0515
vn -0.0001 1.0000 -0.0066
vn -0.0027 1.0000 -0.0040
vn -0.0007 1.0000 -0.0060
vn 0.0016 1.0000 -0.0083
vn 0.0413 0.9982 -0.0433
vn 0.0353 0.9987 -0.0378
vn 0.0408 0.9982 -0.0429
vn 0.0467 0.9977 -0.0482
vn -0.0036 0.9982 -0.0594
vn 0.0031 0.9979 -0.0645
vn -0.0021 0.9982 -0.0606
vn -0.0088 0.9984 -0.0554
vn 0.0019 0.9994 -0.0332
vn -0.0023 0.9996 -0.0293
vn 0.0017 0.9995 -0.0329
vn 0.0059 0.9993 -0.0368
vn 0.0559 0.9981 -0.0272
vn 0.0605 0.9977 -0.0318
vn 0.0558 0.9981 -0.0272
vn 0.0515 0.9984 -0.0230
vn -0.0253 0.9995 0.0185
vn -0.0230 0.9996 0.0166
vn -0.0245 0.9995 0.0179
vn -0.0269 0.9994 0.0199
vn -0.0194 0.9997 -0.0134
vn -0.0211 0.9997 -0.0118
vn -0.0202 0.9997 -0.0126
vn -0.0184 0.9997 -0.0142
vn 0.0223 0.9987 -0.0453
vn 0.0166 0.9991 -0.0395
vn 0.0224 0.9987 -0.0455
vn 0.0288 0.9982 -0.0521
vn -0.0215 -0.9997 0.0154
vn -0.0242 -0.9996 0.0128
vn 0.0364 -0.9991 0.0198
vn 0.0465 -0.9985 0.0295
vn 0.0375 -0.9991 0.0208
vn 0.0279 -0.9995 0.0116
vn -0.0087 -0.9991 0.0425
vn -0.0216 -0.9993 0.0293
vn -0.0090 -0.9991 0.0422
vn 0.0046 -0.9984 0.0559
vn 0.0176 -0.0023 0.9998
vn 0.0230 -0.0181 0.9996
vn 0.0283 -0.0151 0.9995
vn 0.0234 0.0005 0.9997
vn 0.0064 0.0235 0.9997
vn 0.0056 0.0254 0.9997
vn 0.0051 0.0250 0.9997
vn 0.0057 0.0232 0.9997
vn -0.0112 -0.0705 0.9975
vn -0.0145 -0.0602 0.9981
vn -0.0185 -0.0619 0.9979
vn -0.0150 -0.0723 0.9973
vn 0.9978 0.0615 0.0234
vn 0.9975 0.0658 0.0246
vn 0.9975 0.0650 0.0261
vn 0.9978 0.0608 0.0248
vn 0.9975 0.0614 -0.0361
vn 0.9976 0.0593 -0.0366
vn 0.9975 0.0597 -0.0373
vn 0.9974 0.0619 -0.0367
vn 0.9994 -0.0270 -0.0193
vn 0.9998 -0.0146 -0.0163
vn 0.9998 -0.0164 -0.0120
vn 0.9995 -0.0289 -0.0157
vn -0.0276 0.0903 -0.9955
vn -0.0288 0.0869 -0.9958
vn -0.0301 0.0876 -0.9957
vn -0.0289 0.0911 -0.9954
vn 0.0010 -0.0450 -0.9990
vn 0.0211 0.0068 -0.9998
vn 0.0400 -0.0033 -0.9992
vn 0.0207 -0.0554 -0.9982
vn 0.1063 0.0373 -0.9936
vn 0.0982 0.0156 -0.9950
vn 0.0905 0.0199 -0.9957
vn 0.0988 0.0419 -0.9942
vn -0.9991 -0.0415 0.0071
vn -0.9996 -0.0280 0.0026
vn -0.9995 -0.0303 -0.0012
vn -0.9990 -0.0437 0.0029
vn -0.9998 -0.0179 -0.0099
vn -0.9993 -0.0360 -0.0038
vn -0.9994 -0.0333 0.0013
vn -0.9999 -0.0150 -0.0049
vn -0.9994 0.0142 0.0321
vn -0.9994 0.0148 0.0320
vn -0.9994 0.0143 0.0321
vn -0.9994 0.0140 0.0320
usemtl wool
s 1
f 99/151/380 100/152/381 101/153/382
f 101/153/382 102/154/383 99/151/380
f 103/155/384 104/156/385 105/157/386
f 105/157/386 106/158/387 103/155/384
f 107/159/388 108/160/389 109/161/390
f 109/161/390 110/162/391 107/159/388
f 111/163/392 112/164/393 113/165/394
f 113/165/394 114/166/395 111/163/392
f 115/167/396 116/168/397 117/169/398
f 117/169/398 118/170/399 115/167/396
f 113/171/400 119/172/401 120/173/402
f 120/173/402 114/174/403 113/171/400
f 121/175/404 122/176/405 123/177/406
f 123/177/406 124/178/407 121/175/404
f 125/179/408 126/180/409 127/181/410
f 127/181/410 128/182/411 125/179/408
f 129/183/412 130/184/413 101/185/414
f 101/185/414 131/186/415 129/183/412
f 132/187/416 133/188/417 134/189/418
f 134/189/418 135/190/419 132/187/416
f 136/191/420 137/192/421 138/193/422
f 138/193/422 139/194/423 136/191/420
f 140/195/424 141/196/425 142/197/426
f 142/197/426 143/198/427 140/195/424
f 144/199/428 145/200/429 146/201/430
f 146/201/430 147/202/431 144/199/428
f 148/203/432 149/204/433 150/205/434
f 150/205/434 151/206/435 148/203/432
f 152/207/436 153/208/437 121/209/438
f 121/209/438 124/210/439 152/207/436
f 154/211/440 155/212/441 156/213/442
f 156/213/442 157/214/443 154/211/440
f 158/215/444 159/216/445 160/217/446
f 160/217/446 161/218/447 158/215/444
f 162/219/448 163/220/449 164/221/450
f 164/221/450 165/222/451 162/219/448
f 166/223/452 167/224/453 168/225/454
f 168/225/454 169/226/455 166/223/452
f 170/227/456 171/228/457 172/229/458
f 172/229/458 173/230/459 170/227/456
f 174/231/460 175/232/461 176/233/462
f 176/233/462 177/234/463 174/231/460
f 178/235/464 179/236/465 180/237/466
f 180/237/466 181/238/467 178/235/464
f 182/239/468 183/240/469 184/241/470
f 184/241/470 185/242/471 182/239/468
f 186/243/472 187/244/473 120/245/474
f 120/245/474 131/246/475 186/243/472
f 185/242/471 184/241/470 187/244/476
f 187/244/476 186/243/477 185/242/471
f 184/241/478 147/247/479 111/248/480
f 111/248/480 187/244/481 184/241/478
f 187/244/482 111/248/483 114/249/484
f 114/249/484 120/245/485 187/244/482
f 188/250/486 189/251/487 183/240/488
f 183/240/488 182/239/489 188/250/486
f 189/251/490 190/252/491 144/253/492
f 144/253/492 183/240/493 189/251/490
f 183/240/494 144/253/495 147/247/496
f 147/247/496 184/241/497 183/240/494
f 191/254/498 192/255/499 179/236/500
f 179/236/500 178/235/501 191/254/498
f 192/255/502 188/250/503 182/239/504
f 182/239/504 179/236/505 192/255/502
f 179/236/506 182/239/507 185/242/508
f 185/242/508 180/237/509 179/236/506
f 173/230/510 172/229/511 175/232/512
f 175/232/512 174/231/513 173/230/510
f 172/229/514 181/256/515 99/257/516
f 99/257/516 175/232/517 172/229/514
f 175/232/518 99/257/519 102/258/520
f 102/258/520 176/233/521 175/232/518
f 193/259/522 194/260/523 171/228/524
f 171/228/524 170/227/525 193/259/522
f 194/260/526 191/261/527 178/262/528
f 178/262/528 171/228/529 194/260/526
f 171/228/530 178/262/531 181/256/532
f 181/256/532 172/229/533 171/228/530
f 195/263/534 196/264/535 167/224/536
f 167/224/536 166/223/537 195/263/534
f 196/264/538 193/259/539 170/227/540
f 170/227/540 167/224/541 196/264/538
f 167/224/542 170/227/543 173/230/544
f 173/230/544 168/225/545 167/224/542
f 161/218/546 160/217/547 163/220/548
f 163/220/548 162/219/549 161/218/546
f 160/217/550 169/265/551 103/266/552
f 103/266/552 163/220/553 160/217/550
f 163/220/554 103/266/555 106/267/556
f 106/267/556 164/221/557 163/220/554
f 143/268/558 142/269/559 159/216/560
f 159/216/560 158/215/561 143/268/558
f 142/269/562 195/270/563 166/271/564
f 166/271/564 159/216/565 142/269/562
f 159/216/566 166/271/567 169/265/568
f 169/265/568 160/217/569 159/216/566
f 118/272/570 117/273/571 155/212/572
f 155/212/572 154/211/573 118/272/570
f 117/273/574 143/268/575 158/215/576
f 158/215/576 155/212/577 117/273/574
f 155/212/578 158/215/579 161/218/580
f 161/218/580 156/213/581 155/212/578
f 151/206/582 150/205/583 153/208/584
f 153/208/584 152/207/585 151/206/582
f 150/205/586 157/274/587 107/275/588
f 107/275/588 153/208/589 150/205/586
f 153/208/590 107/275/591 110/276/592
f 110/276/592 121/209/593 153/208/590
f 135/277/594 115/278/595 149/204/596
f 149/204/596 148/203/597 135/277/594
f 115/278/598 118/279/599 154/280/600
f 154/280/600 149/204/601 115/278/598
f 149/204/602 154/280/603 157/274/604
f 157/274/604 150/205/605 149/204/602
f 190/281/606 132/282/607 145/200/608
f 145/200/608 144/199/609 190/281/606
f 132/282/610 135/277/611 148/203/612
f 148/203/612 145/200/613 132/282/610
f 145/200/614 148/203/615 151/206/616
f 151/206/616 146/201/617 145/200/614
f 139/194/618 138/193/619 141/196/620
f 141/196/620 140/195/621 139/194/618
f 138/193/622 193/283/623 196/284/624
f 196/284/624 141/196/625 138/193/622
f 141/196/626 196/284/627 195/285/628
f 195/285/628 142/197/629 141/196/626
f 188/286/630 192/287/631 137/192/632
f 137/192/632 136/191/633 188/286/630
f 192/287/634 191/288/635 194/289/636
f 194/289/636 137/192/637 192/287/634
f 137/192/638 194/289/639 193/283/640
f 193/283/640 138/193/641 137/192/638
f 190/290/642 189/291/643 133/188/644
f 133/188/644 132/187/645 190/290/642
f 189/291/646 188/286/647 136/191/648
f 136/191/648 133/188/649 189/291/646
f 133/188/650 136/191/651 139/194/652
f 139/194/652 134/189/653 133/188/650
f 128/182/654 127/181/655 130/184/656
f 130/184/656 129/183/657 128/182/654
f 127/181/658 177/292/659 176/293/660
f 176/293/660 130/184/661 127/181/658
f 130/184/662 176/293/663 102/294/664
f 102/294/664 101/185/665 130/184/662
f 165/295/666 164/296/667 126/180/668
f 126/180/668 125/179/669 165/295/666
f 164/296/670 106/297/671 105/298/672
f 105/298/672 126/180/673 164/296/670
f 126/180/674 105/298/675 177/292/676
f 177/292/676 127/181/677 126/180/674
f 110/299/678 109/300/679 122/176/680
f 122/176/680 121/175/681 110/299/678
f 109/300/682 165/295/683 125/179/684
f 125/179/684 122/176/685 109/300/682
f 122/176/686 125/179/687 128/182/688
f 128/182/688 123/177/689 122/176/686
f 124/178/690 123/177/691 119/172/692
f 119/172/692 113/171/693 124/178/690
f 123/177/694 128/182/695 129/183/696
f 129/183/696 119/172/697 123/177/694
f 119/172/698 129/183/699 131/186/700
f 131/186/700 120/173/701 119/172/698
f 135/190/419 134/189/418 116/168/702
f 116/168/702 115/167/703 135/190/419
f 134/189/704 139/194/705 140/195/706
f 140/195/706 116/168/707 134/189/704
f 116/168/708 140/195/709 143/198/710
f 143/198/710 117/169/711 116/168/708
f 147/202/712 146/201/713 112/164/714
f 112/164/714 111/163/715 147/202/712
f 146/201/716 151/206/717 152/207/718
f 152/207/718 112/164/719 146/201/716
f 112/164/720 152/207/721 124/210/722
f 124/210/722 113/165/723 112/164/720
f 157/214/724 156/213/725 108/160/726
f 108/160/726 107/159/727 157/214/724
f 156/213/728 161/218/729 162/219/730
f 162/219/730 108/160/731 156/213/728
f 108/160/732 162/219/733 165/222/734
f 165/222/734 109/161/735 108/160/732
f 169/226/736 168/225/737 104/156/738
f 104/156/738 103/155/739 169/226/736
f 168/225/740 173/230/741 174/231/742
f 174/231/742 104/156/743 168/225/740
f 104/156/744 174/231/745 177/234/746
f 177/234/746 105/157/747 104/156/744
f 181/238/748 180/237/749 100/152/750
f 100/152/750 99/151/751 181/238/748
f 180/237/752 185/242/753 186/243/754
f 186/243/754 100/152/755 180/237/752
f 100/152/756 186/243/757 131/246/758
f 131/246/758 101/153/759 100/152/756
o body
v -0.263495 -0.280258 -0.128652
v -0.263208 -0.279450 -0.098109
v -0.263514 -0.183719 -0.099838
v -0.263104 -0.183342 -0.130355
v -0.196667 0.007026 0.097681
v -0.262564 0.008570 0.097379
v -0.262862 0.008489 0.134608
v -0.197762 0.007436 0.131763
v 0.065620 0.007802 0.131627
v -0.000532 0.008404 0.132641
v 0.000698 -0.087741 0.131349
v 0.065717 -0.087671 0.130215
v -0.263127 -0.375047 0.129689
v -0.262234 -0.470240 0.128875
v -0.197579 -0.470846 0.130894
v -0.196284 -0.374840 0.133288
v 0.196915 0.008638 0.097381
v 0.132308 0.006779 0.096677
v 0.132392 0.008791 0.130692
v 0.197137 0.007617 0.129636
v -0.065907 -0.279034 -0.130125
v -0.131562 -0.279119 -0.132691
v -0.131952 -0.181868 -0.132185
v -0.066003 -0.183589 -0.131784
v 0.263235 -0.087962 -0.060986
v 0.263137 -0.088174 -0.098723
v 0.263122 0.008227 -0.098398
v 0.262468 0.008149 -0.066609
v -0.065654 0.008095 0.131361
v -0.132222 0.007793 0.130861
v -0.131798 -0.087425 0.130507
v -0.065843 -0.088555 0.132364
v 0.197384 -0.279208 -0.130292
v 0.132140 -0.279631 -0.130060
v 0.131611 -0.183558 -0.126999
v 0.197561 -0.184551 -0.130548
v -0.197667 0.007756 -0.066207
v -0.197715 0.008752 -0.099330
v -0.263434 0.008920 -0.095375
v -0.263238 0.008752 -0.064951
v -0.262819 0.007965 0.004442
v -0.262954 0.006985 -0.030678
v -0.263115 -0.087577 -0.032410
v -0.263212 -0.087749 0.000174
v 0.065663 -0.758467 0.098869
v 0.065666 -0.758279 0.066162
v 0.131268 -0.758305 0.065157
v 0.131976 -0.758495 0.095074
v -0.263436 -0.470738 -0.131827
v -0.263680 -0.469292 -0.100053
v -0.263033 -0.375018 -0.098062
v -0.263029 -0.375116 -0.130289
v 0.066495 -0.662550 0.130928
v 0.130840 -0.661936 0.131739
v 0.131084 -0.567062 0.131943
v 0.065714 -0.566878 0.129976
v 0.065652 -0.278906 -0.130713
v 0.065772 -0.182841 -0.129785
v 0.263161 -0.470666 -0.130153
v 0.197538 -0.470547 -0.128334
v 0.197257 -0.375024 -0.130478
v 0.262920 -0.375317 -0.132165
v -0.263331 -0.662262 0.033267
v -0.263924 -0.662253 0.065552
v -0.263188 -0.566482 0.061579
v -0.263550 -0.566657 0.031048
v 0.263108 -0.279959 0.063465
v 0.263093 -0.279246 0.033516
v 0.263000 -0.183276 0.032991
v 0.263114 -0.183157 0.066623
v 0.262283 -0.469959 0.132365
v 0.262980 -0.470345 0.097009
v 0.263062 -0.374992 0.097684
v 0.263582 -0.374641 0.131254
v -0.132205 -0.279070 0.128712
v -0.065859 -0.279453 0.130448
v -0.065693 -0.182900 0.130328
v -0.131527 -0.183402 0.129090
v 0.066226 -0.758763 0.036265
v 0.131143 -0.757421 0.035967
v -0.197345 0.006924 0.034498
v -0.197431 0.008231 -0.000516
v -0.263261 0.008350 0.032535
v 0.000380 0.008465 -0.001706
v 0.000716 0.009667 0.032825
v 0.065682 0.009368 0.035257
v 0.065728 0.009432 -0.002573
v 0.263075 -0.087722 0.029145
v 0.263198 -0.087309 -0.000049
v 0.263171 0.007389 0.002907
v 0.263332 0.007929 0.032782
v -0.263113 -0.087538 -0.065213
v 0.196296 0.008279 0.031754
v 0.197892 0.009828 -0.000040
v -0.197851 0.006562 -0.128699
v -0.263706 0.008044 -0.133361
v 0.064796 0.009299 -0.066289
v 0.066612 0.007136 -0.096506
v 0.000092 0.008055 -0.097662
v -0.000150 0.009539 -0.066219
v -0.065928 0.008986 0.032674
v -0.065557 0.008848 0.000045
v -0.000839 -0.759417 -0.001110
v -0.000483 -0.758209 0.032304
v -0.065735 -0.758163 0.032316
v -0.065855 -0.757106 -0.000921
v 0.197187 0.008049 -0.032337
v 0.131460 0.008584 -0.032504
v 0.132061 0.007081 0.002217
v -0.196895 -0.759190 0.035887
v -0.263730 -0.758149 0.036912
v -0.262915 -0.756920 0.000832
v -0.196607 -0.757795 -0.002108
v 0.065697 -0.758196 0.000708
v -0.000114 -0.374287 0.129880
v -0.066263 -0.375353 0.133351
v -0.065992 -0.470895 0.129697
v -0.001126 -0.471356 0.129800
v -0.000564 -0.757611 0.129506
v -0.065860 -0.757959 0.129722
v -0.066060 -0.758057 0.096428
v 0.000140 -0.757293 0.097723
v 0.262449 -0.758729 0.128435
v 0.197259 -0.758362 0.130371
v 0.197275 -0.757247 0.094886
v 0.263167 -0.758054 0.098695
v 0.000388 -0.663435 0.128496
v 0.065860 -0.757229 0.127583
v 0.131631 -0.758218 0.130911
v 0.263178 -0.279341 0.130634
v 0.263083 -0.278617 0.096569
v -0.000793 -0.279813 0.130995
v 0.263418 -0.375553 0.000335
v 0.263072 -0.374923 0.032193
v 0.264059 -0.471696 0.032903
v 0.263233 -0.470560 0.000216
v 0.197951 -0.757944 0.033037
v 0.197003 -0.757404 -0.001154
v 0.263197 -0.759254 0.002363
v 0.262951 -0.758270 0.033181
v 0.263077 -0.662164 0.130486
v 0.261996 -0.662349 0.100410
v 0.197646 -0.757412 -0.094048
v 0.196469 -0.758562 -0.133906
v 0.262615 -0.759237 -0.130957
v 0.263157 -0.758440 -0.100092
v 0.263280 -0.662145 -0.001003
v 0.263133 -0.758326 -0.032554
v 0.263081 -0.662047 -0.031671
v 0.263252 -0.279243 -0.130710
v 0.263226 -0.279583 -0.000562
v 0.000852 -0.374585 -0.126785
v 0.066116 -0.375395 -0.131384
v 0.065736 -0.470878 -0.130543
v 0.000296 -0.471356 -0.127647
v 0.065735 -0.757965 -0.097832
v -0.000487 -0.756698 -0.097861
v -0.000018 -0.758038 -0.130479
v 0.065880 -0.757661 -0.128643
v 0.262797 -0.662370 -0.130541
v 0.197505 -0.663264 -0.130991
v -0.197162 -0.757849 -0.097187
v -0.262965 -0.757925 -0.098365
v -0.262497 -0.758378 -0.128039
v -0.197562 -0.757878 -0.129816
v -0.000099 -0.663087 -0.131717
v -0.064842 -0.757689 -0.131769
v -0.066270 -0.662093 -0.129430
v -0.065739 -0.758415 -0.098068
v -0.131632 -0.757781 -0.097659
v -0.131563 -0.757969 -0.130297
v 0.000315 -0.279325 -0.131122
v -0.263180 -0.374641 0.000350
v -0.263433 -0.375609 -0.031260
v -0.263651 -0.471222 -0.035309
v -0.262884 -0.472635 0.001036
v -0.197346 -0.758107 -0.032272
v -0.262364 -0.758516 -0.031810
v -0.262423 -0.661409 -0.128402
v -0.262862 -0.661604 -0.098461
v -0.263152 -0.663125 0.130433
v -0.262954 -0.757824 0.129995
v -0.197463 -0.757118 0.129304
v -0.197010 -0.661918 0.129646
v -0.264309 -0.662088 -0.000832
v -0.197186 -0.757492 0.064451
v -0.263080 -0.757881 0.065236
v -0.196599 -0.759255 0.099849
v -0.263351 -0.757118 0.099144
v -0.262996 -0.183147 0.001770
v -0.263228 -0.183145 0.032729
v -0.262480 -0.087540 0.031727
v -0.262383 0.009232 0.062330
v -0.262693 -0.086055 0.063791
v -0.262676 -0.566359 -0.000892
v -0.263269 -0.471907 0.030386
v -0.263095 -0.376327 0.067861
v -0.263036 -0.374655 0.033173
v -0.263938 -0.471389 0.063633
v -0.262621 -0.566674 -0.129437
v -0.263017 -0.566567 -0.097551
v -0.262607 -0.375571 -0.067118
v -0.262990 -0.470480 -0.064412
v -0.000124 -0.087505 -0.130384
v 0.000593 -0.183412 -0.133204
v -0.065749 -0.087544 -0.130452
v -0.130726 0.008467 -0.132696
v -0.065622 0.007534 -0.127349
v -0.132001 -0.088109 -0.129020
v 0.000196 -0.565870 -0.132089
v -0.065976 -0.565938 -0.130064
v -0.065564 -0.469602 -0.129321
v -0.131144 -0.375220 -0.132917
v -0.066665 -0.374963 -0.129125
v -0.131195 -0.470872 -0.132531
v 0.263585 -0.567782 -0.131038
v 0.197155 -0.566502 -0.126903
v 0.131618 -0.375052 -0.131299
v 0.132195 -0.469920 -0.128894
v 0.262559 -0.183538 -0.001681
v 0.262880 -0.182709 -0.033812
v 0.262395 -0.088116 -0.032048
v 0.262391 0.008335 -0.031361
v 0.263990 -0.566043 0.001539
v 0.263713 -0.566741 -0.031073
v 0.263201 -0.472030 -0.030529
v 0.263536 -0.376221 -0.065421
v 0.263220 -0.374847 -0.032645
v 0.263025 -0.470657 -0.066049
v 0.263260 -0.566101 0.128892
v 0.262096 -0.565562 0.099964
v 0.263805 -0.375157 0.065178
v 0.263181 -0.470741 0.065475
v 0.000771 -0.181896 0.128937
v 0.064697 -0.182766 0.128184
v -0.000022 -0.567092 0.132908
v 0.065769 -0.469786 0.128393
v 0.131360 -0.375890 0.131887
v 0.065266 -0.374945 0.129137
v 0.131215 -0.470513 0.129447
v -0.131596 -0.374920 0.130343
v -0.131237 -0.471159 0.132992
v 0.130948 -0.757859 -0.000848
v 0.131519 -0.758056 -0.032516
v 0.197275 -0.757164 -0.036832
v 0.263788 -0.757348 -0.067649
v 0.197169 -0.757829 -0.065529
v -0.131520 -0.758014 0.000645
v -0.131413 -0.757175 -0.030615
v -0.065812 -0.757831 -0.032591
v -0.000068 -0.756800 -0.062148
v -0.000300 -0.757512 -0.033070
v -0.065738 -0.758029 -0.065313
v 0.000023 -0.758131 0.060876
v -0.065622 -0.757768 0.065120
v -0.130780 0.008011 0.000348
v -0.132669 0.008462 -0.030068
v -0.197939 0.007293 -0.030208
v 0.065616 0.008191 -0.033129
v -0.000065 0.008266 -0.032762
v 0.000453 0.008627 0.067767
v 0.000008 0.008135 0.097886
v 0.065644 0.008295 0.099397
v 0.065404 0.007114 0.064840
v -0.196946 0.009582 0.062052
v 0.263533 -0.757185 0.065596
v 0.197562 -0.758174 0.066430
v -0.197313 -0.087664 0.131065
v 0.263389 -0.086858 0.128073
v 0.262638 -0.182318 0.131502
v 0.263088 -0.183444 0.093913
v 0.262992 -0.087191 0.098337
v 0.131894 -0.663799 -0.132601
v 0.131669 -0.566071 -0.132378
v 0.263035 0.007676 0.065945
v 0.262864 0.009302 0.099580
v 0.263114 -0.087581 0.065067
v 0.264098 -0.088039 -0.129736
v 0.263909 -0.182494 -0.128457
v 0.196865 -0.087930 -0.132470
v -0.131412 -0.757728 0.066357
v -0.132054 -0.757701 0.098193
v 0.131075 0.008029 -0.128140
v 0.198047 0.007863 -0.131708
v 0.132179 -0.086644 -0.131159
v -0.263214 -0.087559 -0.132406
v -0.263360 -0.088811 -0.099441
v -0.263602 -0.278732 -0.061610
v -0.263435 -0.183550 -0.063714
v -0.197064 -0.087779 -0.131883
v -0.196645 -0.183223 -0.130677
v 0.131954 0.007725 -0.094825
v 0.197589 0.007946 -0.099770
v 0.197913 0.008826 -0.065719
v 0.131399 0.008341 -0.064801
v 0.262388 -0.184126 -0.098021
v 0.263690 -0.661171 -0.068724
v 0.263180 -0.566300 -0.065098
v 0.197848 -0.086664 0.130109
v 0.198397 -0.184010 0.130544
v -0.263597 -0.089271 0.096609
v 0.263923 -0.660711 0.065087
v -0.196621 -0.182428 0.127885
v -0.263001 -0.089456 0.129605
v -0.263852 -0.182349 0.131763
v 0.131529 -0.087529 0.130320
v 0.197226 0.007455 0.065437
v 0.131843 0.007959 0.060972
v -0.130929 0.007987 0.094751
v -0.131513 0.008352 0.064381
v 0.132382 0.007313 0.034958
v -0.066520 0.007046 -0.034819
v -0.131076 0.008399 -0.066764
v -0.131549 -0.757541 0.130369
v -0.131503 -0.757913 0.032443
v -0.130702 -0.757764 -0.061462
v -0.263276 -0.566832 0.098416
v -0.263116 -0.566448 0.130415
v -0.263109 -0.472193 0.095601
v 0.131592 -0.758731 -0.066716
v -0.197545 -0.567907 0.129732
v -0.132644 -0.566171 0.132497
v -0.065041 -0.566198 0.131528
v 0.065518 -0.279336 0.131809
v 0.131685 -0.183281 0.130171
v 0.197113 -0.470767 0.130714
v 0.196422 -0.565448 0.132850
v 0.264243 -0.565973 0.063290
v -0.131297 -0.663204 -0.128469
v -0.132099 -0.566212 -0.128720
v 0.263263 -0.566593 0.030611
v 0.263324 -0.183957 -0.061770
v 0.263117 -0.470637 -0.097826
v 0.263756 -0.567211 -0.094859
v 0.064960 -0.565254 -0.130956
v -0.131298 0.007743 -0.097512
v -0.065933 0.009006 -0.094296
v 0.065835 -0.086356 -0.130360
v -0.197219 -0.471386 -0.131620
v -0.197094 -0.566466 -0.131572
v -0.263099 -0.277813 0.133564
v -0.197464 -0.279010 0.129793
v -0.263768 -0.566470 -0.065341
v -0.262995 -0.565694 -0.030386
v -0.263001 -0.183498 -0.032515
v -0.262155 -0.278737 -0.033491
v -0.263012 -0.279094 0.003483
v -0.263514 -0.182776 0.065722
v -0.263294 -0.277885 0.068956
v -0.262146 -0.278357 0.030876
v -0.263027 -0.375023 0.098101
v -0.263186 -0.279193 0.100282
v -0.263608 -0.183677 0.096947
v -0.131569 0.008565 0.033169
v -0.263317 -0.662132 0.098269
v -0.197246 -0.757707 -0.067279
v -0.262302 -0.662685 -0.063889
v -0.263174 -0.758515 -0.063447
v -0.263319 -0.662414 -0.034679
v -0.066305 0.008215 0.097542
v -0.065610 0.007994 0.064257
v 0.263003 0.008231 -0.130764
v -0.197380 -0.374909 -0.130478
v -0.197333 -0.279069 -0.130433
v -0.196907 -0.662537 -0.128966
v -0.131213 -0.661177 0.133146
v -0.065602 -0.661756 0.133519
v 0.131961 -0.759445 -0.128506
v 0.065268 -0.660869 -0.129968
v 0.262921 -0.279193 -0.065856
v 0.262809 -0.279387 -0.033886
v 0.262256 -0.375319 -0.097080
v 0.262538 -0.280538 -0.096089
v 0.263161 -0.662298 -0.097807
v 0.065820 -0.757142 -0.029043
v 0.065520 -0.758072 -0.067553
v 0.196691 -0.661827 0.129591
v 0.262827 -0.663758 0.031570
v 0.131601 -0.279190 0.130712
v 0.197698 -0.374306 0.134245
v 0.197348 -0.279079 0.130254
v 0.262457 0.009321 0.131705
v 0.131326 -0.758046 -0.097793
v -0.065862 0.008058 -0.065134
v 0.000145 0.008229 -0.129877
v 0.065690 0.008241 -0.129915
vt 0.230674 0.700226
vt 0.227409 0.700021
vt 0.227561 0.675328
vt 0.230823 0.675227
vt 0.425284 0.438581
vt 0.425214 0.411813
vt 0.429192 0.411686
vt 0.428926 0.438131
vt 0.400240 0.491699
vt 0.400422 0.518570
vt 0.375622 0.518095
vt 0.375613 0.491684
vt 0.301621 0.625336
vt 0.277066 0.624998
vt 0.276884 0.598735
vt 0.301647 0.598184
vt 0.425485 0.598455
vt 0.425370 0.572212
vt 0.429007 0.572240
vt 0.428931 0.598540
vt 0.128290 0.491760
vt 0.128258 0.465091
vt 0.153343 0.464923
vt 0.152909 0.491711
vt 0.238728 0.650663
vt 0.234695 0.650715
vt 0.234744 0.625849
vt 0.238143 0.625871
vt 0.400369 0.545023
vt 0.400318 0.572063
vt 0.375757 0.571916
vt 0.375439 0.545125
vt 0.128285 0.598709
vt 0.128166 0.572207
vt 0.152948 0.571983
vt 0.152702 0.598772
vt 0.407768 0.438200
vt 0.404228 0.438186
vt 0.404612 0.411490
vt 0.407864 0.411564
vt 0.216351 0.625899
vt 0.220104 0.626147
vt 0.220322 0.650538
vt 0.216839 0.650588
vt 0.404034 0.759229
vt 0.407530 0.759238
vt 0.407580 0.785886
vt 0.404382 0.786167
vt 0.231079 0.749358
vt 0.227682 0.748990
vt 0.227437 0.724672
vt 0.230881 0.724693
vt 0.227327 0.491517
vt 0.227460 0.465380
vt 0.251931 0.465257
vt 0.252005 0.491810
vt 0.128343 0.545200
vt 0.153122 0.545239
vt 0.078911 0.625447
vt 0.078931 0.598791
vt 0.103570 0.598667
vt 0.103505 0.625340
vt 0.213499 0.798784
vt 0.210049 0.798786
vt 0.210441 0.774082
vt 0.213704 0.774123
vt 0.252001 0.700194
vt 0.248800 0.700009
vt 0.248758 0.675254
vt 0.252353 0.675225
vt 0.259338 0.749208
vt 0.255558 0.749305
vt 0.255644 0.724710
vt 0.259231 0.724621
vt 0.326324 0.572131
vt 0.326198 0.545181
vt 0.351103 0.545088
vt 0.351000 0.571830
vt 0.410725 0.759473
vt 0.410698 0.785842
vt 0.418530 0.438315
vt 0.414789 0.438286
vt 0.415280 0.411724
vt 0.418283 0.411540
vt 0.414778 0.518637
vt 0.418470 0.518768
vt 0.418768 0.545157
vt 0.414725 0.545182
vt 0.248361 0.650606
vt 0.245241 0.650498
vt 0.245571 0.626072
vt 0.248764 0.625934
vt 0.223828 0.650524
vt 0.223767 0.625687
vt 0.418470 0.598213
vt 0.418619 0.625444
vt 0.415426 0.625383
vt 0.415074 0.598867
vt 0.401088 0.438135
vt 0.400552 0.411385
vt 0.407915 0.544813
vt 0.404685 0.545556
vt 0.404523 0.518535
vt 0.407884 0.518432
vt 0.418414 0.491697
vt 0.414927 0.491853
vt 0.414779 0.732239
vt 0.411206 0.732376
vt 0.411262 0.705871
vt 0.414813 0.705829
vt 0.411621 0.598585
vt 0.411564 0.571887
vt 0.415275 0.572125
vt 0.410997 0.652592
vt 0.410945 0.625444
vt 0.414799 0.625783
vt 0.415056 0.652718
vt 0.414525 0.759266
vt 0.301710 0.518499
vt 0.301462 0.545370
vt 0.276817 0.545284
vt 0.276672 0.518936
vt 0.400817 0.732321
vt 0.400852 0.705797
vt 0.404410 0.705724
vt 0.404213 0.732614
vt 0.400702 0.839157
vt 0.400552 0.812677
vt 0.404343 0.812691
vt 0.403879 0.839456
vt 0.227126 0.518371
vt 0.202834 0.518781
vt 0.202906 0.491800
vt 0.400552 0.786018
vt 0.400964 0.759303
vt 0.259180 0.700039
vt 0.255539 0.699850
vt 0.326079 0.518751
vt 0.245239 0.724849
vt 0.248645 0.724688
vt 0.248704 0.749650
vt 0.245213 0.749355
vt 0.410954 0.812980
vt 0.414608 0.812603
vt 0.414176 0.839491
vt 0.410881 0.839383
vt 0.259107 0.798786
vt 0.258875 0.823694
vt 0.255695 0.823518
vt 0.255895 0.798831
vt 0.424536 0.812886
vt 0.428798 0.812417
vt 0.428425 0.839285
vt 0.425125 0.839498
vt 0.245054 0.798773
vt 0.245399 0.823821
vt 0.241668 0.823580
vt 0.241777 0.798746
vt 0.128287 0.625465
vt 0.245158 0.700094
vt 0.103653 0.518887
vt 0.103455 0.545398
vt 0.078825 0.545252
vt 0.078692 0.518670
vt 0.425056 0.759304
vt 0.425116 0.732404
vt 0.428603 0.732603
vt 0.428349 0.759370
vt 0.029462 0.625318
vt 0.004475 0.625253
vt 0.004639 0.598385
vt 0.029221 0.598796
vt 0.425218 0.652515
vt 0.425402 0.625786
vt 0.428574 0.625982
vt 0.428706 0.652360
vt 0.029236 0.518529
vt 0.004744 0.518571
vt 0.004824 0.492239
vt 0.029482 0.491650
vt 0.425198 0.705899
vt 0.425211 0.679133
vt 0.428700 0.679169
vt 0.428798 0.706271
vt 0.128225 0.518660
vt 0.216919 0.724589
vt 0.220298 0.724834
vt 0.220763 0.749497
vt 0.216879 0.749866
vt 0.418281 0.652425
vt 0.418289 0.626014
vt 0.230778 0.798541
vt 0.230772 0.823553
vt 0.227601 0.823441
vt 0.227578 0.798595
vt 0.227313 0.625421
vt 0.202886 0.625365
vt 0.203042 0.598762
vt 0.227598 0.598553
vt 0.217144 0.798734
vt 0.216998 0.823195
vt 0.213143 0.823518
vt 0.407943 0.652467
vt 0.407917 0.625701
vt 0.404161 0.652698
vt 0.401011 0.652340
vt 0.400996 0.625737
vt 0.404292 0.625583
vt 0.216702 0.675195
vt 0.213393 0.675199
vt 0.213467 0.650538
vt 0.210163 0.625581
vt 0.213348 0.625804
vt 0.210040 0.650160
vt 0.217117 0.774041
vt 0.213742 0.749682
vt 0.209704 0.725034
vt 0.213411 0.724597
vt 0.210189 0.749554
vt 0.230856 0.774104
vt 0.227448 0.774081
vt 0.224130 0.724820
vt 0.223873 0.749301
vt 0.177703 0.518462
vt 0.152965 0.518763
vt 0.177683 0.491805
vt 0.202438 0.465402
vt 0.202208 0.491847
vt 0.177527 0.464893
vt 0.054312 0.518639
vt 0.054285 0.491760
vt 0.079134 0.491918
vt 0.103469 0.465270
vt 0.103545 0.491461
vt 0.078796 0.465259
vt 0.053860 0.625629
vt 0.054180 0.598644
vt 0.103553 0.572004
vt 0.079083 0.572248
vt 0.245053 0.675319
vt 0.241619 0.675104
vt 0.241822 0.650704
vt 0.241910 0.625825
vt 0.245338 0.773984
vt 0.241853 0.774162
vt 0.241926 0.749732
vt 0.238211 0.725017
vt 0.241715 0.724664
vt 0.238131 0.749376
vt 0.258951 0.774007
vt 0.255861 0.773866
vt 0.252169 0.724751
vt 0.252187 0.749406
vt 0.351335 0.518090
vt 0.351084 0.492123
vt 0.251977 0.518512
vt 0.277049 0.491762
vt 0.301243 0.465095
vt 0.301513 0.491942
vt 0.276835 0.465178
vt 0.301600 0.571908
vt 0.276776 0.571787
vt 0.414634 0.785771
vt 0.418018 0.786010
vt 0.418421 0.812722
vt 0.421656 0.839746
vt 0.417907 0.839472
vt 0.421488 0.812685
vt 0.414705 0.679156
vt 0.418045 0.679207
vt 0.418199 0.705854
vt 0.421299 0.732566
vt 0.418192 0.732466
vt 0.421697 0.705892
vt 0.408152 0.732575
vt 0.407756 0.705909
vt 0.414920 0.465359
vt 0.411669 0.464597
vt 0.411615 0.438084
vt 0.411526 0.411675
vt 0.411458 0.545141
vt 0.411459 0.518461
vt 0.422204 0.518656
vt 0.425422 0.518471
vt 0.425623 0.545132
vt 0.421928 0.545040
vt 0.421477 0.438473
vt 0.421468 0.411892
vt 0.407415 0.839612
vt 0.407385 0.812814
vt 0.400253 0.598686
vt 0.375723 0.598528
vt 0.258934 0.650390
vt 0.259288 0.675013
vt 0.255269 0.675301
vt 0.255756 0.650474
vt 0.029073 0.572145
vt 0.054281 0.572044
vt 0.252309 0.626001
vt 0.255904 0.625584
vt 0.252200 0.650572
vt 0.177607 0.625790
vt 0.153242 0.625722
vt 0.177624 0.598480
vt 0.407681 0.679185
vt 0.404279 0.678917
vt 0.202366 0.571746
vt 0.202333 0.598951
vt 0.177946 0.572204
vt 0.231009 0.650520
vt 0.227487 0.650847
vt 0.223508 0.699841
vt 0.223701 0.675290
vt 0.227019 0.625639
vt 0.177602 0.438465
vt 0.152983 0.438644
vt 0.152942 0.411649
vt 0.177649 0.411594
vt 0.404903 0.572097
vt 0.404414 0.598759
vt 0.401000 0.598950
vt 0.401342 0.571745
vt 0.408054 0.598885
vt 0.408112 0.571867
vt 0.234757 0.675465
vt 0.231502 0.675043
vt 0.231379 0.650679
vt 0.237815 0.798517
vt 0.238218 0.774046
vt 0.375819 0.438012
vt 0.350709 0.437814
vt 0.351120 0.411719
vt 0.375742 0.411389
vt 0.206533 0.650994
vt 0.206417 0.625757
vt 0.252157 0.823292
vt 0.252116 0.798407
vt 0.351278 0.598271
vt 0.375287 0.625211
vt 0.351326 0.625581
vt 0.375623 0.464951
vt 0.400468 0.464576
vt 0.422070 0.598586
vt 0.421555 0.572028
vt 0.425010 0.465284
vt 0.421764 0.465052
vt 0.428868 0.464754
vt 0.429067 0.545117
vt 0.418774 0.572251
vt 0.411199 0.491468
vt 0.407748 0.465250
vt 0.400840 0.679114
vt 0.411306 0.679155
vt 0.237916 0.823326
vt 0.421342 0.679503
vt 0.206504 0.774177
vt 0.203084 0.774083
vt 0.203215 0.749267
vt 0.206772 0.749765
vt 0.421674 0.786048
vt 0.251847 0.598747
vt 0.252269 0.572383
vt 0.252251 0.625381
vt 0.252234 0.544923
vt 0.326175 0.491815
vt 0.350924 0.464913
vt 0.276743 0.438410
vt 0.252321 0.438715
vt 0.252125 0.411566
vt 0.276925 0.411938
vt 0.251938 0.773970
vt 0.029186 0.465236
vt 0.054204 0.464900
vt 0.248447 0.774128
vt 0.238630 0.675424
vt 0.234734 0.749369
vt 0.235036 0.774280
vt 0.231169 0.774424
vt 0.231279 0.749374
vt 0.054482 0.544946
vt 0.404461 0.465164
vt 0.404844 0.491715
vt 0.401311 0.491846
vt 0.400701 0.465402
vt 0.178010 0.545255
vt 0.078654 0.438439
vt 0.054128 0.438500
vt 0.054065 0.411882
vt 0.078810 0.411542
vt 0.326702 0.625300
vt 0.326366 0.598639
vt 0.224006 0.774061
vt 0.220269 0.773866
vt 0.220366 0.675281
vt 0.220503 0.699847
vt 0.216551 0.699944
vt 0.209866 0.675108
vt 0.209553 0.699642
vt 0.213623 0.699758
vt 0.206472 0.724702
vt 0.206206 0.699983
vt 0.202648 0.699632
vt 0.202808 0.675008
vt 0.206530 0.675345
vt 0.418428 0.465034
vt 0.203096 0.724712
vt 0.203007 0.651046
vt 0.202438 0.625783
vt 0.231079 0.625859
vt 0.210115 0.823452
vt 0.206491 0.823260
vt 0.206552 0.798759
vt 0.422022 0.652474
vt 0.203115 0.799020
vt 0.203194 0.823447
vt 0.223883 0.798879
vt 0.223869 0.823598
vt 0.220488 0.823602
vt 0.220761 0.798813
vt 0.429137 0.518246
vt 0.425346 0.491534
vt 0.421789 0.491822
vt 0.202438 0.625336
vt 0.103539 0.438365
vt 0.128260 0.438374
vt 0.127944 0.411499
vt 0.103476 0.411698
vt 0.202309 0.411385
vt 0.201937 0.438136
vt 0.004742 0.465137
vt 0.004755 0.438328
vt 0.029348 0.438585
vt 0.029629 0.411972
vt 0.227762 0.571827
vt 0.227586 0.545175
vt 0.004402 0.572182
vt 0.004852 0.545339
vt 0.029818 0.545081
vt 0.238180 0.699989
vt 0.241597 0.700041
vt 0.234830 0.724782
vt 0.234949 0.700334
vt 0.231248 0.699998
vt 0.231079 0.724779
vt 0.231285 0.625846
vt 0.234450 0.823605
vt 0.234708 0.798806
vt 0.417703 0.759323
vt 0.421821 0.759210
vt 0.231210 0.798823
vt 0.227461 0.438631
vt 0.202560 0.438425
vt 0.202439 0.411945
vt 0.227347 0.411665
vt 0.248694 0.823569
vt 0.248536 0.799191
vt 0.326186 0.464972
vt 0.301625 0.438148
vt 0.326187 0.438265
vt 0.326093 0.411525
vt 0.301511 0.411385
vt 0.400552 0.411743
vt 0.400138 0.438276
vt 0.202624 0.465084
vt 0.202906 0.571988
vt 0.202771 0.545305
vt 0.424995 0.785947
vt 0.421671 0.625693
vt 0.407960 0.491739
vt 0.401080 0.518562
vt 0.411763 0.625071
vt 0.407996 0.625108
vt 0.202411 0.545187
vt 0.404599 0.625378
vt 0.401140 0.625335
vt 0.401114 0.545186
vt 0.259338 0.625581
vt 0.425759 0.625243
vt 0.422163 0.625318
vt 0.429192 0.625073
vt 0.428961 0.491793
vt 0.202397 0.518562
vt 0.231151 0.823809
vt 0.428278 0.786212
vt 0.004616 0.411951
vt 0.400552 0.625129
vn -1.0000 0.0004 -0.0020
vn 0.0197 0.9998 -0.0042
vn 0.0163 -0.0140 0.9998
vn -0.0427 -0.0167 0.9989
vn -0.0053 0.9999 -0.0149
vn 0.0225 -0.0059 -0.9997
vn 1.0000 0.0043 0.0080
vn -0.0178 0.0034 0.9998
vn -0.0287 0.0146 -0.9995
vn 0.0096 0.9998 0.0183
vn -1.0000 0.0029 0.0005
vn -0.0006 -1.0000 -0.0060
vn -1.0000 0.0056 -0.0040
vn -0.0214 0.0039 0.9998
vn 0.0262 0.0208 -0.9994
vn -0.0268 -0.0218 -0.9994
vn -1.0000 0.0026 -0.0037
vn 1.0000 0.0005 -0.0020
vn 1.0000 -0.0072 0.0026
vn -0.0225 -0.0012 0.9997
vn 0.0100 -0.9999 -0.0067
vn 0.0092 0.9999 0.0147
vn -0.0049 0.9999 -0.0157
vn 1.0000 -0.0012 -0.0006
vn -1.0000 0.0001 0.0042
vn 0.0206 0.9996 0.0168
vn 0.0128 0.9989 -0.0455
vn 0.0093 0.9982 -0.0587
vn -0.0025 0.9998 -0.0199
vn -0.0181 -0.9998 0.0024
vn -0.0169 0.9999 -0.0038
vn -0.0154 -0.9992 -0.0356
vn 0.0046 -0.9999 0.0092
vn 0.0258 -0.0195 0.9995
vn 0.0085 -1.0000 -0.0033
vn -0.0086 -0.9996 -0.0275
vn -0.0037 -0.0123 0.9999
vn -0.0076 -0.9997 0.0234
vn 1.0000 0.0019 -0.0091
vn 0.0222 0.0094 0.9997
vn 1.0000 0.0042 -0.0074
vn -0.0168 -0.9998 0.0070
vn 1.0000 0.0029 -0.0060
vn -0.0123 -0.9995 0.0278
vn 1.0000 -0.0002 -0.0040
vn -0.0160 0.0086 -0.9998
vn 1.0000 0.0009 0.0073
vn -0.0572 0.0004 -0.9984
vn -0.0070 -0.9998 0.0163
vn 0.0258 0.0172 -0.9995
vn 0.0044 -1.0000 0.0077
vn -0.0076 0.0057 -1.0000
vn -0.0028 -1.0000 -0.0081
vn -1.0000 -0.0034 0.0046
vn -0.0321 -0.0193 -0.9993
vn -0.9999 -0.0007 0.0150
vn -0.0028 -0.9995 0.0304
vn -0.9999 0.0009 -0.0152
vn 0.0113 -0.0041 0.9999
vn -1.0000 -0.0052 0.0022
vn -0.0044 -0.9994 0.0346
vn -0.0108 -0.9997 0.0236
vn -1.0000 0.0029 0.0080
vn -0.9999 -0.0024 0.0108
vn -0.9998 0.0005 -0.0205
vn -0.9999 0.0060 -0.0106
vn -0.9999 -0.0079 -0.0099
vn -0.9998 0.0055 0.0169
vn -0.0103 0.0216 -0.9997
vn 0.0298 -0.0032 -0.9996
vn -0.0023 0.0272 -0.9996
vn 0.0537 -0.0007 -0.9986
vn -0.0451 -0.0028 -0.9990
vn 0.0104 -0.0238 -0.9997
vn 1.0000 -0.0007 -0.0075
vn 0.9999 0.0044 0.0143
vn 1.0000 0.0067 -0.0051
vn 1.0000 -0.0028 0.0020
vn 1.0000 0.0005 -0.0073
vn 0.9999 -0.0037 0.0148
vn 0.0145 -0.0235 0.9996
vn 0.0324 0.0245 0.9992
vn -0.0291 -0.0169 0.9994
vn 0.0065 0.0013 1.0000
vn 0.0102 -0.9999 -0.0005
vn -0.0051 -1.0000 -0.0049
vn 0.0019 -1.0000 -0.0018
vn 0.0120 -0.9999 -0.0083
vn 0.0032 -1.0000 0.0081
vn -0.0071 0.9999 -0.0078
vn 0.0055 0.9995 0.0317
vn 0.0147 0.9999 0.0039
vn 0.0025 0.9994 0.0357
vn 0.0102 0.9999 -0.0106
vn 0.0091 0.9989 0.0455
vn 0.0014 -1.0000 0.0010
vn 0.0112 -0.0055 0.9999
vn 1.0000 -0.0034 0.0009
vn 0.0539 0.0223 -0.9983
vn 1.0000 0.0010 0.0043
vn 0.0363 -0.0166 -0.9992
vn 0.0102 -0.9996 -0.0258
vn -0.0368 0.0198 -0.9991
vn -1.0000 0.0002 -0.0088
vn -1.0000 -0.0008 -0.0043
vn -1.0000 -0.0012 0.0069
vn 0.0015 -0.0170 -0.9999
vn -0.0002 1.0000 0.0034
vn -1.0000 0.0025 0.0046
vn 0.0004 1.0000 0.0081
vn 0.9992 -0.0045 0.0402
vn -0.0377 -0.0314 -0.9988
vn 1.0000 -0.0007 0.0011
vn 0.0081 0.0200 0.9998
vn -0.9999 0.0069 -0.0156
vn 1.0000 0.0005 0.0024
vn 0.9994 0.0039 0.0336
vn -0.0051 -0.0241 0.9997
vn 0.0183 -0.0055 0.9998
vn 0.0104 -0.9999 0.0126
vn 0.0084 -0.9999 -0.0117
vn 0.0063 -0.0093 0.9999
vn 0.0125 0.0104 -0.9999
vn -0.0104 0.9999 -0.0000
vn 0.0023 0.9990 0.0442
vn -0.0101 0.9999 -0.0034
vn 0.0050 1.0000 -0.0001
vn 0.0033 0.9997 -0.0229
vn 0.0332 0.9994 -0.0025
vn 0.0036 0.9998 -0.0208
vn 0.0041 0.9999 0.0132
vn -1.0000 0.0074 0.0016
vn -0.0029 -1.0000 0.0077
vn -0.0137 0.9999 0.0051
vn 0.9997 0.0006 -0.0239
vn -0.0031 -1.0000 -0.0042
vn -0.0070 0.9997 -0.0233
vn -0.0058 -1.0000 0.0040
vn 0.0048 -0.9999 -0.0147
vn 0.9998 0.0008 0.0175
vn -0.0065 -0.9999 0.0123
vn -0.9999 0.0059 0.0156
vn -0.0005 -1.0000 -0.0014
vn 0.0022 -0.0052 1.0000
vn 0.0142 -0.9997 0.0213
vn -0.0369 -0.0084 0.9993
vn -0.0154 -0.9997 -0.0187
vn -0.0102 0.0020 0.9999
vn -0.0111 0.0257 0.9996
vn -0.0004 0.0292 0.9996
vn -0.0229 0.0211 0.9995
vn 0.9993 -0.0019 -0.0380
vn 1.0000 0.0019 0.0022
vn -0.0158 -0.0113 0.9998
vn 0.0175 -0.0070 0.9998
vn 0.9994 0.0011 0.0344
vn 0.0163 -0.0043 0.9999
vn -0.0175 -0.0046 -0.9998
vn 1.0000 -0.0002 -0.0016
vn 0.9999 0.0035 -0.0101
vn -0.0279 0.0188 -0.9994
vn 1.0000 -0.0038 -0.0050
vn 0.0133 -0.0170 -0.9998
vn 0.9997 0.0027 0.0225
vn 1.0000 0.0055 -0.0019
vn 0.0462 0.0105 -0.9989
vn 1.0000 -0.0011 -0.0036
vn -0.0138 0.0258 -0.9996
vn -0.0018 0.9999 -0.0110
vn 0.0143 -0.0161 -0.9998
vn -0.9999 -0.0019 -0.0135
vn 0.0261 0.0118 -0.9996
vn -0.9997 0.0033 -0.0228
vn -0.0076 0.0237 -0.9997
vn -0.0147 -0.0128 -0.9998
vn 0.0576 0.0193 0.9982
vn -1.0000 0.0006 -0.0009
vn 0.0301 0.0056 -0.9995
vn -0.9999 -0.0043 0.0164
vn 0.0090 0.9980 -0.0618
vn -1.0000 -0.0024 -0.0048
vn -1.0000 -0.0017 -0.0014
vn -0.9999 0.0076 -0.0089
vn -0.9999 0.0080 -0.0079
vn 0.0112 -0.0003 0.9999
vn -1.0000 -0.0003 -0.0039
vn -0.9999 0.0034 -0.0165
vn -0.9998 0.0054 0.0167
vn -0.9999 0.0043 0.0144
vn -1.0000 -0.0062 -0.0021
vn -0.0107 0.9999 0.0110
vn -1.0000 -0.0034 0.0001
vn -1.0000 -0.0007 -0.0002
vn -1.0000 -0.0019 0.0029
vn -0.9999 -0.0056 0.0109
vn -1.0000 0.0059 0.0043
vn -1.0000 -0.0030 0.0018
vn -0.9999 0.0042 -0.0153
vn -1.0000 -0.0042 0.0051
vn -1.0000 -0.0023 0.0010
vn 0.0064 -1.0000 0.0029
vn -1.0000 0.0004 0.0051
vn -1.0000 -0.0008 0.0089
vn -0.9999 -0.0044 0.0121
vn -0.9999 -0.0030 0.0107
vn -1.0000 -0.0005 -0.0034
vn -1.0000 0.0051 0.0052
vn -0.9999 0.0104 -0.0105
vn -0.9997 -0.0128 -0.0228
vn 0.0033 1.0000 0.0034
vn 0.0009 1.0000 0.0023
vn -1.0000 0.0007 0.0017
vn 0.0278 -0.0014 -0.9996
vn 0.0488 -0.0041 -0.9988
vn 0.0101 -0.0279 -0.9996
vn -0.0253 0.0039 -0.9997
vn -0.0158 -0.0100 -0.9998
vn -0.0289 0.0014 -0.9996
vn -0.0150 0.0088 -0.9998
vn -0.0356 0.0013 -0.9994
vn -0.0182 -0.0195 -0.9996
vn 0.0394 0.0120 -0.9992
vn 0.0104 0.0104 -0.9999
vn 0.0002 0.0141 -0.9999
vn -0.0187 0.0218 -0.9996
vn -0.0207 -0.0191 -0.9996
vn -0.0002 -1.0000 0.0033
vn 0.0045 0.0139 0.9999
vn 0.0002 0.0139 -0.9999
vn 0.0149 -0.0203 -0.9997
vn -0.0198 -0.0282 -0.9994
vn -0.0290 -0.0060 -0.9996
vn 0.0223 -0.0070 -0.9997
vn 0.0276 -0.0133 -0.9995
vn 0.9984 -0.0015 0.0565
vn 0.0017 0.0204 -0.9998
vn 1.0000 0.0054 0.0065
vn 1.0000 0.0030 -0.0092
vn 0.9998 0.0020 -0.0187
vn 0.9994 -0.0027 0.0342
vn 0.9998 -0.0011 -0.0198
vn 0.9998 -0.0035 0.0197
vn 0.9996 0.0018 -0.0269
vn 1.0000 0.0031 -0.0014
vn 0.9999 0.0058 0.0133
vn 0.9999 -0.0034 -0.0140
vn 0.0051 -0.9999 0.0130
vn 0.9998 0.0006 -0.0189
vn -0.0115 -0.9997 0.0221
vn 0.9999 -0.0072 -0.0077
vn -0.0035 -0.9999 0.0111
vn 0.9999 0.0058 0.0105
vn -0.0218 -0.9996 -0.0166
vn 0.9999 0.0044 0.0108
vn 0.0079 -0.0066 0.9999
vn 0.9997 -0.0017 -0.0253
vn 0.9998 -0.0061 0.0189
vn 0.9999 0.0005 0.0110
vn -0.9998 -0.0070 -0.0201
vn 1.0000 0.0014 -0.0016
vn -0.0126 -0.0078 0.9999
vn -0.0006 -0.0199 0.9998
vn -0.0271 -0.0311 0.9991
vn -0.0102 -0.0060 0.9999
vn 0.0006 0.0013 1.0000
vn 0.0199 0.0243 0.9995
vn -0.0147 0.0269 0.9995
vn -0.0066 0.0216 0.9997
vn -0.0001 -0.0166 0.9999
vn -0.0012 0.0015 1.0000
vn 0.0204 -0.0001 0.9998
vn -0.0318 -0.0219 0.9993
vn 0.0229 -0.0086 0.9997
vn 0.0103 -0.0127 0.9999
vn -0.0168 0.0243 0.9996
vn 0.0018 -0.0341 0.9994
vn -0.0346 -0.0161 0.9993
vn 0.0275 -0.0126 0.9995
vn 0.0397 -0.0149 0.9991
vn 0.0184 -0.0236 0.9996
vn 0.0321 0.0069 0.9995
vn -0.0068 -1.0000 0.0032
vn 0.0141 -0.9988 -0.0477
vn -0.0194 -0.9998 -0.0031
vn -0.0049 -0.9999 -0.0140
vn 0.0123 -0.9998 -0.0184
vn 0.0091 -0.9999 -0.0061
vn 1.0000 -0.0001 0.0008
vn -0.0067 -1.0000 0.0059
vn -0.0132 -0.9998 -0.0144
vn 0.0080 -0.9998 -0.0185
vn 0.0039 -0.0180 0.9998
vn -0.0085 -0.0026 -1.0000
vn -0.0021 -1.0000 0.0087
vn -0.0207 0.9992 0.0356
vn -0.0062 0.9995 -0.0302
vn 0.0011 0.9998 -0.0199
vn -0.0043 1.0000 -0.0089
vn -0.0072 1.0000 0.0049
vn 0.0137 0.9998 0.0146
vn -0.0071 0.9997 -0.0228
vn 1.0000 0.0028 0.0049
vn 0.0027 1.0000 0.0053
vn 0.0030 1.0000 0.0086
vn 0.0169 0.9998 -0.0129
vn 0.0075 0.0183 -0.9998
vn 1.0000 -0.0027 0.0093
vn -0.0050 1.0000 -0.0013
vn 0.0031 0.9999 -0.0122
vn -1.0000 0.0047 0.0051
vn -0.0036 1.0000 0.0030
vn 0.0067 0.9998 0.0194
vn -0.0034 0.9998 0.0212
vn -0.0326 -0.0051 -0.9995
vn 0.0039 0.9989 -0.0459
vn 1.0000 0.0055 0.0001
vn -0.0058 0.9991 -0.0428
vn -0.0020 -0.0015 1.0000
vn -0.0185 0.9997 0.0155
vn -0.0278 0.9994 0.0198
vn 0.0057 -0.9999 -0.0086
vn 0.0097 0.0005 1.0000
vn 0.0008 0.9999 0.0161
vn 0.9999 -0.0069 -0.0075
vn -0.0004 0.9998 0.0192
vn 0.0100 0.9995 0.0291
vn -0.0043 1.0000 0.0042
vn -0.0017 1.0000 -0.0022
vn -0.0097 0.9999 -0.0107
vn -0.0107 0.9995 0.0305
vn -0.9995 -0.0034 0.0317
vn -0.0028 0.9991 -0.0415
vn -0.0105 -0.9999 0.0094
vn -0.0059 -0.9999 0.0152
vn 0.0129 -0.9999 -0.0019
vn -0.0060 -0.9999 0.0096
vn -0.0032 -0.9998 -0.0178
vn 0.0310 0.0270 0.9992
vn 0.0013 -0.0020 1.0000
vn 0.0064 0.0111 0.9999
vn -0.0358 0.0236 0.9991
vn -0.0236 -0.0182 0.9996
vn -0.0042 1.0000 0.0045
vn 0.9999 0.0037 0.0116
vn 1.0000 0.0039 -0.0045
vn 0.9999 0.0035 -0.0118
vn 1.0000 -0.0005 -0.0022
vn 0.0045 0.0074 -1.0000
vn 0.0294 -0.0061 -0.9996
vn 0.0056 0.0100 -0.9999
vn 0.0148 -0.0245 -0.9996
vn -1.0000 -0.0061 0.0005
vn -0.9999 -0.0044 -0.0120
vn -1.0000 0.0013 0.0097
vn -1.0000 0.0011 0.0067
vn -1.0000 -0.0022 0.0049
vn 0.0141 0.9986 0.0511
vn -0.0188 0.0190 -0.9996
vn -0.0000 -1.0000 0.0024
vn -0.0055 -0.9999 -0.0129
vn 0.0224 -0.9997 0.0040
vn 0.0097 -0.0181 0.9998
vn 0.0088 -0.9993 0.0373
vn 1.0000 -0.0005 0.0008
vn 0.9999 -0.0008 -0.0142
vn 0.0256 -0.0147 -0.9996
vn -0.0142 -0.9997 0.0176
vn 0.0120 -0.9993 0.0360
vn -0.0179 0.0026 -0.9998
vn -1.0000 0.0042 0.0075
vn 0.0066 -1.0000 -0.0069
vn -0.0064 0.9997 -0.0234
vn -1.0000 -0.0085 -0.0030
vn -0.0479 0.0025 0.9988
vn -0.0009 0.0080 1.0000
vn -0.0054 0.9995 -0.0295
vn 0.0104 -0.9999 0.0095
vn 0.0108 -0.0295 0.9995
vn -0.0002 0.0050 -1.0000
vn 0.0083 -0.9995 0.0302
vn 0.9995 -0.0044 -0.0311
vn -0.0305 -0.0040 -0.9995
vn -1.0000 -0.0059 -0.0037
vn 1.0000 -0.0010 0.0037
usemtl wool
s off
f 197/301/760 198/302/760 199/303/760 200/304/760
f 201/305/761 202/306/761 203/307/761 204/308/761
f 205/309/762 206/310/762 207/311/762 208/312/762
f 209/313/763 210/314/763 211/315/763 212/316/763
f 213/317/764 214/318/764 215/319/764 216/320/764
f 217/321/765 218/322/765 219/323/765 220/324/765
f 221/325/766 222/326/766 223/327/766 224/328/766
f 225/329/767 226/330/767 227/331/767 228/332/767
f 229/333/768 230/334/768 231/335/768 232/336/768
f 233/337/769 234/338/769 235/339/769 236/340/769
f 237/341/770 238/342/770 239/343/770 240/344/770
f 241/345/771 242/346/771 243/347/771 244/348/771
f 245/349/772 246/350/772 247/351/772 248/352/772
f 249/353/773 250/354/773 251/355/773 252/356/773
f 230/334/774 253/357/774 254/358/774 231/335/774
f 255/359/775 256/360/775 257/361/775 258/362/775
f 259/363/776 260/364/776 261/365/776 262/366/776
f 263/367/777 264/368/777 265/369/777 266/370/777
f 267/371/778 268/372/778 269/373/778 270/374/778
f 271/375/779 272/376/779 273/377/779 274/378/779
f 242/346/780 275/379/780 276/380/780 243/347/780
f 277/381/781 278/382/781 237/383/781 279/384/781
f 280/385/782 281/386/782 282/387/782 283/388/782
f 284/389/783 285/390/783 286/391/783 287/392/783
f 288/393/784 239/343/784 238/342/784 236/394/784
f 289/395/785 287/396/785 286/397/785 290/398/785
f 234/338/786 291/399/786 292/400/786 235/339/786
f 293/401/787 294/402/787 295/403/787 296/404/787
f 297/405/788 281/386/788 280/385/788 298/406/788
f 299/407/789 300/408/789 301/409/789 302/410/789
f 290/398/790 303/411/790 304/412/790 305/413/790
f 306/414/791 307/415/791 308/416/791 309/417/791
f 275/379/792 300/408/792 299/407/792 310/418/792
f 311/419/793 312/420/793 313/421/793 314/422/793
f 315/423/794 316/424/794 317/425/794 318/426/794
f 319/427/795 320/428/795 321/429/795 322/430/795
f 323/431/796 315/432/796 324/433/796 249/353/796
f 325/434/797 324/435/797 241/345/797 244/348/797
f 326/436/798 270/374/798 269/373/798 327/437/798
f 272/376/799 312/420/799 311/419/799 328/438/799
f 329/439/800 330/440/800 331/441/800 332/442/800
f 333/443/801 334/444/801 335/445/801 336/446/801
f 337/447/802 319/448/802 322/449/802 338/450/802
f 339/451/803 340/452/803 341/453/803 342/454/803
f 343/455/804 335/456/804 344/457/804 345/458/804
f 346/459/805 258/362/805 257/361/805 229/333/805
f 264/368/806 330/440/806 329/439/806 347/460/806
f 348/461/807 349/462/807 350/463/807 351/464/807
f 352/465/808 353/466/808 354/467/808 355/468/808
f 356/469/809 341/470/809 340/471/809 357/472/809
f 358/473/810 359/474/810 360/475/810 361/476/810
f 362/477/811 354/478/811 363/479/811 364/480/811
f 365/481/812 366/482/812 367/483/812 363/484/812
f 197/301/813 248/352/813 247/351/813 198/302/813
f 253/357/814 349/462/814 348/461/814 368/485/814
f 369/486/815 370/487/815 371/488/815 372/489/815
f 373/490/816 309/417/816 308/416/816 374/491/816
f 375/492/817 360/493/817 359/494/817 376/495/817
f 377/496/818 378/497/818 379/498/818 380/499/818
f 381/500/819 308/501/819 307/502/819 259/363/819
f 306/414/820 382/503/820 383/504/820 307/415/820
f 384/505/821 379/506/821 378/507/821 385/508/821
f 240/344/822 386/509/822 387/510/822 388/511/822
f 389/512/823 279/513/823 388/511/823 390/514/823
f 372/489/824 391/515/824 262/366/824 392/516/824
f 393/517/825 394/518/825 392/516/825 395/519/825
f 245/349/826 396/520/826 397/521/826 246/350/826
f 398/522/827 247/351/827 246/350/827 399/523/827
f 400/524/828 401/525/828 220/324/828 402/526/828
f 403/527/829 404/528/829 402/526/829 405/529/829
f 351/464/830 406/530/830 407/531/830 408/532/830
f 409/533/831 410/534/831 408/532/831 411/535/831
f 255/359/832 412/536/832 413/537/832 256/360/832
f 414/538/833 257/361/833 256/360/833 415/539/833
f 285/390/834 416/540/834 417/541/834 418/542/834
f 224/328/835 419/543/835 418/542/835 221/325/835
f 332/442/836 420/544/836 421/545/836 422/546/836
f 423/547/837 424/548/837 422/546/837 425/549/837
f 267/371/838 426/550/838 427/551/838 268/372/838
f 428/552/839 269/373/839 268/372/839 429/553/839
f 207/311/840 430/554/840 431/555/840 208/312/840
f 314/422/841 432/556/841 252/356/841 433/557/841
f 434/558/842 435/559/842 433/557/842 436/560/842
f 437/561/843 212/316/843 211/315/843 438/562/843
f 334/444/844 439/563/844 440/564/844 441/565/844
f 442/566/845 344/567/845 441/565/845 443/568/845
f 302/410/846 444/569/846 445/570/846 446/571/846
f 447/572/847 448/573/847 446/571/847 449/574/847
f 450/575/848 318/426/848 317/425/848 451/576/848
f 278/382/849 452/577/849 453/578/849 454/579/849
f 454/579/850 233/337/850 236/340/850 238/580/850
f 283/388/851 305/413/851 304/412/851 455/581/851
f 296/404/852 456/582/852 455/581/852 293/401/852
f 457/583/853 458/584/853 459/585/853 460/586/853
f 201/305/854 461/587/854 389/588/854 202/306/854
f 462/589/855 322/430/855 321/429/855 463/590/855
f 226/330/856 204/591/856 464/592/856 227/331/856
f 465/593/857 466/594/857 467/595/857 468/596/857
f 357/472/858 469/597/858 470/598/858 413/537/858
f 471/599/859 472/600/859 468/596/859 473/601/859
f 474/602/860 475/603/860 232/336/860 476/604/860
f 384/505/861 382/503/861 477/605/861 478/606/861
f 479/607/862 480/608/862 476/604/862 481/609/862
f 482/610/863 200/304/863 199/303/863 483/611/863
f 198/302/864 484/612/864 485/613/864 199/303/864
f 236/394/865 235/614/865 483/611/865 288/393/865
f 486/615/866 487/616/866 200/617/866 482/618/866
f 488/619/867 489/620/867 480/621/867 479/622/867
f 199/303/868 485/613/868 288/393/868 483/611/868
f 303/411/869 490/623/869 491/624/869 304/412/869
f 222/326/870 492/625/870 475/626/870 474/627/870
f 232/336/871 231/335/871 481/609/871 476/604/871
f 345/458/872 493/628/872 494/629/872 421/545/872
f 495/630/873 496/631/873 466/632/873 465/633/873
f 390/514/874 497/634/874 202/635/874 389/512/874
f 467/595/875 266/370/875 473/601/875 468/596/875
f 322/449/876 462/636/876 498/637/876 338/450/876
f 499/638/877 274/378/877 227/331/877 464/592/877
f 464/592/878 500/639/878 501/640/878 499/638/878
f 244/348/879 243/347/879 463/590/879 321/429/879
f 321/429/880 320/428/880 325/434/880 244/348/880
f 208/312/881 502/641/881 215/642/881 205/309/881
f 346/459/882 229/333/882 232/336/882 475/603/882
f 213/317/883 503/643/883 504/644/883 214/318/883
f 505/645/884 506/646/884 461/587/884 201/305/884
f 201/305/885 204/308/885 226/647/885 505/645/885
f 214/318/886 504/644/886 460/586/886 459/585/886
f 459/585/887 205/648/887 215/319/887 214/318/887
f 282/387/888 507/649/888 305/413/888 283/388/888
f 298/406/889 508/650/889 453/578/889 452/577/889
f 304/412/890 491/624/890 293/401/890 455/581/890
f 381/500/891 259/363/891 262/366/891 391/515/891
f 451/576/892 301/409/892 300/408/892 450/575/892
f 453/578/893 509/651/893 233/337/893 454/579/893
f 285/390/894 418/542/894 419/543/894 286/391/894
f 478/606/895 477/605/895 451/576/895 317/425/895
f 283/388/896 455/581/896 456/582/896 280/385/896
f 317/425/897 316/424/897 510/652/897 478/606/897
f 301/409/898 511/653/898 444/569/898 302/410/898
f 344/457/899 442/654/899 493/628/899 345/458/899
f 445/570/900 512/655/900 449/574/900 446/571/900
f 513/656/901 514/657/901 210/658/901 515/659/901
f 333/443/902 276/380/902 439/563/902 334/444/902
f 438/562/903 313/421/903 312/420/903 437/561/903
f 440/564/904 516/660/904 443/568/904 441/565/904
f 517/661/905 518/662/905 438/562/905 211/315/905
f 302/410/906 446/571/906 448/573/906 299/407/906
f 211/315/907 210/314/907 514/663/907 517/661/907
f 313/421/908 519/664/908 432/556/908 314/422/908
f 328/438/909 520/665/909 431/555/909 430/554/909
f 252/356/910 251/355/910 436/560/910 433/557/910
f 337/447/911 338/450/911 427/551/911 426/550/911
f 429/553/912 331/441/912 330/440/912 428/552/912
f 431/555/913 521/666/913 502/641/913 208/312/913
f 522/667/914 523/668/914 426/669/914 267/670/914
f 427/551/915 524/671/915 429/553/915 268/372/915
f 314/422/916 433/557/916 435/559/916 311/419/916
f 364/480/917 525/672/917 526/673/917 407/531/917
f 331/441/918 527/674/918 420/544/918 332/442/918
f 421/545/919 494/629/919 425/549/919 422/546/919
f 356/469/920 357/472/920 413/537/920 412/536/920
f 284/389/921 265/369/921 416/540/921 285/390/921
f 415/539/922 350/463/922 349/462/922 414/538/922
f 417/541/923 528/675/923 221/325/923 418/542/923
f 529/676/924 530/677/924 412/678/924 255/679/924
f 413/537/925 470/598/925 415/539/925 256/360/925
f 332/442/926 422/546/926 424/548/926 329/439/926
f 350/463/927 531/680/927 406/530/927 351/464/927
f 532/681/928 533/682/928 404/683/928 403/684/928
f 407/531/929 526/673/929 411/535/929 408/532/929
f 375/492/930 376/495/930 397/521/930 396/520/930
f 534/685/931 254/358/931 401/525/931 400/524/931
f 399/523/932 371/488/932 370/487/932 398/522/932
f 220/324/933 219/323/933 405/529/933 402/526/933
f 535/686/934 536/687/934 396/688/934 245/689/934
f 501/640/935 537/690/935 538/691/935 499/638/935
f 397/521/936 539/692/936 399/523/936 246/350/936
f 351/464/937 408/532/937 410/534/937 348/461/937
f 371/488/938 540/693/938 391/515/938 372/489/938
f 461/587/939 277/381/939 279/384/939 389/588/939
f 262/366/940 261/365/940 395/519/940 392/516/940
f 239/343/941 541/694/941 386/509/941 240/344/941
f 542/695/942 370/487/942 369/486/942 543/696/942
f 387/510/943 544/697/943 390/514/943 388/511/943
f 514/663/944 377/496/944 380/499/944 517/661/944
f 372/489/945 392/516/945 394/518/945 369/486/945
f 394/518/946 393/517/946 545/698/946 546/699/946
f 546/699/947 543/696/947 369/486/947 394/518/947
f 395/519/948 515/659/948 547/700/948 393/517/948
f 548/701/949 537/702/949 501/703/949 549/704/949
f 277/381/950 550/705/950 452/577/950 278/382/950
f 545/698/951 548/701/951 549/704/951 544/697/951
f 547/700/952 209/706/952 537/702/952 548/701/952
f 548/701/953 545/698/953 393/517/953 547/700/953
f 543/696/954 546/699/954 387/510/954 386/509/954
f 497/634/955 500/707/955 203/708/955 202/635/955
f 482/610/956 483/611/956 235/614/956 292/709/956
f 497/634/957 390/514/957 544/697/957 549/704/957
f 260/364/958 383/710/958 385/711/958 551/712/958
f 307/502/959 383/710/959 260/364/959 259/363/959
f 373/490/960 552/713/960 512/655/960 445/570/960
f 551/712/961 377/714/961 514/657/961 513/656/961
f 385/711/962 378/715/962 377/714/962 551/712/962
f 515/659/963 210/658/963 209/706/963 547/700/963
f 515/659/964 395/519/964 261/365/964 513/656/964
f 553/716/965 554/717/965 374/718/965 555/719/965
f 359/494/966 554/717/966 553/716/966 376/495/966
f 555/719/967 381/500/967 391/515/967 540/693/967
f 374/718/968 308/501/968 381/500/968 555/719/968
f 206/720/969 205/648/969 459/585/969 458/584/969
f 556/721/970 557/722/970 506/646/970 505/645/970
f 371/488/971 399/523/971 539/692/971 540/693/971
f 474/602/972 476/604/972 480/608/972 558/723/972
f 410/534/973 409/533/973 218/322/973 217/321/973
f 217/321/974 368/485/974 348/461/974 410/534/974
f 411/535/975 535/686/975 559/724/975 409/533/975
f 560/725/976 197/726/976 200/617/976 487/616/976
f 218/322/977 560/725/977 487/616/977 219/323/977
f 559/724/978 248/727/978 197/726/978 560/725/978
f 560/725/979 218/322/979 409/533/979 559/724/979
f 368/485/980 217/321/980 220/324/980 401/525/980
f 486/615/981 482/618/981 292/728/981 291/729/981
f 486/615/982 405/529/982 219/323/982 487/616/982
f 525/672/983 367/730/983 361/731/983 561/732/983
f 363/479/984 367/730/984 525/672/984 364/480/984
f 561/732/985 375/733/985 396/688/985 536/687/985
f 366/482/986 358/473/986 361/476/986 367/483/986
f 562/734/987 563/735/987 519/664/987 518/662/987
f 535/686/988 245/689/988 248/727/988 559/724/988
f 535/686/989 411/535/989 526/673/989 536/687/989
f 469/597/990 564/736/990 355/737/990 565/738/990
f 340/471/991 564/736/991 469/597/991 357/472/991
f 565/738/992 362/477/992 406/530/992 531/680/992
f 355/737/993 354/478/993 362/477/993 565/738/993
f 338/450/994 498/637/994 524/671/994 427/551/994
f 350/463/995 415/539/995 470/598/995 531/680/995
f 424/548/996 423/547/996 566/739/996 567/740/996
f 567/740/997 347/460/997 329/439/997 424/548/997
f 425/549/998 529/676/998 568/741/998 423/547/998
f 569/742/999 346/743/999 475/626/999 492/625/999
f 566/739/1000 569/742/1000 492/625/1000 528/675/1000
f 568/741/1001 258/744/1001 346/743/1001 569/742/1001
f 569/742/1002 566/739/1002 423/547/1002 568/741/1002
f 347/460/1003 567/740/1003 417/541/1003 416/540/1003
f 222/326/1004 474/627/1004 558/745/1004 223/327/1004
f 222/326/1005 221/325/1005 528/675/1005 492/625/1005
f 463/590/1006 333/443/1006 336/446/1006 462/589/1006
f 493/628/1007 442/654/1007 342/746/1007 570/747/1007
f 571/748/1008 572/749/1008 516/660/1008 440/564/1008
f 570/747/1009 356/750/1009 412/678/1009 530/677/1009
f 443/568/1010 339/451/1010 342/454/1010 442/566/1010
f 529/676/1011 255/679/1011 258/744/1011 568/741/1011
f 334/444/1012 441/565/1012 344/567/1012 335/445/1012
f 529/676/1013 425/549/1013 494/629/1013 530/677/1013
f 573/751/1014 320/752/1014 319/753/1014 337/754/1014
f 498/637/1015 462/636/1015 336/755/1015 574/756/1015
f 574/756/1016 343/455/1016 420/544/1016 527/674/1016
f 336/755/1017 335/456/1017 343/455/1017 574/756/1017
f 546/699/1018 545/698/1018 544/697/1018 387/510/1018
f 331/441/1019 429/553/1019 524/671/1019 527/674/1019
f 435/559/1020 434/558/1020 575/757/1020 520/665/1020
f 520/665/1021 328/438/1021 311/419/1021 435/559/1021
f 436/560/1022 522/667/1022 576/758/1022 434/558/1022
f 577/759/1023 326/760/1023 466/632/1023 496/631/1023
f 575/757/1024 577/759/1024 496/631/1024 521/666/1024
f 576/758/1025 270/761/1025 326/760/1025 577/759/1025
f 577/759/1026 575/757/1026 434/558/1026 576/758/1026
f 520/665/1027 575/757/1027 521/666/1027 431/555/1027
f 495/630/1028 465/633/1028 578/762/1028 216/763/1028
f 495/630/1029 502/641/1029 521/666/1029 496/631/1029
f 250/354/1030 325/764/1030 320/752/1030 573/751/1030
f 324/433/1031 325/764/1031 250/354/1031 249/353/1031
f 573/751/1032 337/754/1032 426/669/1032 523/668/1032
f 522/667/1033 267/670/1033 270/761/1033 576/758/1033
f 522/667/1034 436/560/1034 251/355/1034 523/668/1034
f 562/734/1035 510/765/1035 316/766/1035 563/735/1035
f 379/498/1036 510/765/1036 562/734/1036 380/499/1036
f 563/735/1037 323/431/1037 432/556/1037 519/664/1037
f 316/766/1038 315/432/1038 323/431/1038 563/735/1038
f 228/332/1039 273/377/1039 430/554/1039 207/311/1039
f 313/421/1040 438/562/1040 518/662/1040 519/664/1040
f 448/573/1041 447/572/1041 572/749/1041 571/748/1041
f 571/748/1042 310/418/1042 299/407/1042 448/573/1042
f 352/465/1043 572/749/1043 447/572/1043 353/466/1043
f 310/418/1044 571/748/1044 440/564/1044 439/563/1044
f 339/451/1045 443/568/1045 516/660/1045 579/767/1045
f 374/491/1046 554/768/1046 552/713/1046 373/490/1046
f 327/437/1047 263/367/1047 266/370/1047 467/595/1047
f 365/481/1048 449/574/1048 512/655/1048 366/482/1048
f 385/508/1049 383/504/1049 382/503/1049 384/505/1049
f 306/414/1050 309/417/1050 444/569/1050 511/653/1050
f 323/431/1051 249/353/1051 252/356/1051 432/556/1051
f 405/529/1052 486/615/1052 291/729/1052 403/527/1052
f 301/409/1053 451/576/1053 477/605/1053 511/653/1053
f 456/582/1054 296/404/1054 580/769/1054 508/650/1054
f 508/650/1055 298/406/1055 280/385/1055 456/582/1055
f 533/682/1056 295/403/1056 581/770/1056 404/683/1056
f 533/682/1057 580/769/1057 296/404/1057 295/403/1057
f 580/769/1058 533/682/1058 532/681/1058 509/651/1058
f 508/650/1059 580/769/1059 509/651/1059 453/578/1059
f 234/338/1060 532/681/1060 403/684/1060 291/399/1060
f 326/436/1061 327/437/1061 467/595/1061 466/594/1061
f 234/338/1062 233/337/1062 509/651/1062 532/681/1062
f 419/771/1063 224/772/1063 490/623/1063 303/411/1063
f 303/411/1064 290/398/1064 286/397/1064 419/771/1064
f 481/609/1065 534/685/1065 582/773/1065 479/607/1065
f 567/740/1066 566/739/1066 528/675/1066 417/541/1066
f 489/620/1067 223/774/1067 558/775/1067 480/621/1067
f 489/620/1068 490/623/1068 224/772/1068 223/774/1068
f 549/704/1069 501/703/1069 500/707/1069 497/634/1069
f 503/643/1070 289/395/1070 507/649/1070 504/644/1070
f 295/403/1071 294/402/1071 582/776/1071 581/770/1071
f 294/402/1072 488/619/1072 479/622/1072 582/776/1072
f 362/477/1073 364/480/1073 407/531/1073 406/530/1073
f 294/402/1074 293/401/1074 491/624/1074 488/619/1074
f 465/593/1075 468/596/1075 472/600/1075 578/777/1075
f 472/778/1076 471/779/1076 503/643/1076 213/317/1076
f 228/332/1077 207/311/1077 206/310/1077 225/329/1077
f 213/317/1078 216/320/1078 578/780/1078 472/778/1078
f 289/395/1079 290/398/1079 305/413/1079 507/649/1079
f 309/417/1080 373/490/1080 445/570/1080 444/569/1080
f 502/641/1081 495/630/1081 216/763/1081 215/642/1081
f 289/395/1082 503/643/1082 471/779/1082 287/396/1082
f 343/455/1083 345/458/1083 421/545/1083 420/544/1083
f 557/722/1084 297/405/1084 550/705/1084 506/646/1084
f 282/387/1085 460/586/1085 504/644/1085 507/649/1085
f 458/584/1086 457/583/1086 557/722/1086 556/721/1086
f 556/721/1087 225/781/1087 206/720/1087 458/584/1087
f 297/405/1088 298/406/1088 452/577/1088 550/705/1088
f 297/405/1089 557/722/1089 457/583/1089 281/386/1089
f 484/612/1090 542/695/1090 541/694/1090 485/613/1090
f 277/381/1091 461/587/1091 506/646/1091 550/705/1091
f 318/426/1092 450/575/1092 242/346/1092 241/345/1092
f 241/345/1093 324/435/1093 315/423/1093 318/426/1093
f 275/379/1094 310/418/1094 439/563/1094 276/380/1094
f 275/379/1095 242/346/1095 450/575/1095 300/408/1095
f 333/443/1096 463/590/1096 243/347/1096 276/380/1096
f 212/316/1097 437/561/1097 271/375/1097 538/691/1097
f 538/691/1098 537/690/1098 209/313/1098 212/316/1098
f 272/376/1099 328/438/1099 430/554/1099 273/377/1099
f 272/376/1100 271/375/1100 437/561/1100 312/420/1100
f 228/332/1101 227/331/1101 274/378/1101 273/377/1101
f 226/647/1102 225/781/1102 556/721/1102 505/645/1102
f 269/373/1103 428/552/1103 263/367/1103 327/437/1103
f 264/368/1104 347/460/1104 416/540/1104 265/369/1104
f 264/368/1105 263/367/1105 428/552/1105 330/440/1105
f 284/389/1106 473/601/1106 266/370/1106 265/369/1106
f 257/361/1107 414/538/1107 230/334/1107 229/333/1107
f 253/357/1108 368/485/1108 401/525/1108 254/358/1108
f 253/357/1109 230/334/1109 414/538/1109 349/462/1109
f 534/685/1110 481/609/1110 231/335/1110 254/358/1110
f 247/351/1111 398/522/1111 484/612/1111 198/302/1111
f 542/695/1112 543/696/1112 386/509/1112 541/694/1112
f 542/695/1113 484/612/1113 398/522/1113 370/487/1113
f 239/343/1114 288/393/1114 485/613/1114 541/694/1114
f 240/344/1115 388/511/1115 279/513/1115 237/341/1115
f 460/586/1116 282/387/1116 281/386/1116 457/583/1116
f 400/524/1117 402/526/1117 404/528/1117 581/782/1117
f 552/713/1118 358/473/1118 366/482/1118 512/655/1118
f 572/749/1119 352/465/1119 579/767/1119 516/660/1119
f 449/574/1120 365/481/1120 353/466/1120 447/572/1120
f 250/354/1121 573/751/1121 523/668/1121 251/355/1121
f 510/652/1122 379/506/1122 384/505/1122 478/606/1122
f 493/628/1123 570/747/1123 530/677/1123 494/629/1123
f 570/747/1124 342/746/1124 341/783/1124 356/750/1124
f 525/672/1125 561/732/1125 536/687/1125 526/673/1125
f 579/767/1126 352/465/1126 355/468/1126 564/784/1126
f 339/451/1127 579/767/1127 564/784/1127 340/452/1127
f 561/732/1128 361/731/1128 360/785/1128 375/733/1128
f 260/364/1129 551/712/1129 513/656/1129 261/365/1129
f 358/473/1130 552/713/1130 554/768/1130 359/474/1130
f 490/623/1131 489/620/1131 488/619/1131 491/624/1131
f 376/495/1132 553/716/1132 539/692/1132 397/521/1132
f 380/499/1133 562/734/1133 518/662/1133 517/661/1133
f 538/691/1134 271/375/1134 274/378/1134 499/638/1134
f 278/382/1135 454/579/1135 238/580/1135 237/383/1135
f 353/466/1136 365/481/1136 363/484/1136 354/467/1136
f 203/786/1137 500/639/1137 464/592/1137 204/591/1137
f 534/685/1138 400/524/1138 581/782/1138 582/773/1138
f 382/503/1139 306/414/1139 511/653/1139 477/605/1139
f 498/637/1140 574/756/1140 527/674/1140 524/671/1140
f 469/597/1141 565/738/1141 531/680/1141 470/598/1141
f 553/716/1142 555/719/1142 540/693/1142 539/692/1142
f 473/601/1143 284/389/1143 287/392/1143 471/599/1143
