# Blender v2.93.0 OBJ File: ''
# www.blender.org
mtllib 1.mtl
o Cube_Cube.001
v -0.021975 -0.549134 0.064892
v -0.028966 -0.556122 0.064892
v -0.035495 -0.566203 0.064892
v -0.042368 -0.578348 0.064892
v -0.051647 -0.594845 0.064892
v -0.065281 -0.617987 0.064892
v -0.078569 -0.641014 0.064892
v -0.096214 -0.671947 0.064892
v -0.108928 -0.693483 0.064892
v -0.126230 -0.723615 0.064892
v -0.148798 -0.762453 0.064892
v -0.179042 -0.815037 0.064892
v -0.210319 -0.869686 0.064892
v -0.359872 -1.128005 0.064892
v -0.367000 -1.143051 0.064892
v -0.369375 -1.153742 0.064892
v -0.369375 -1.162254 0.064892
v -0.368188 -1.166808 0.064892
v -0.365021 -1.176112 0.064892
v -0.359278 -1.185417 0.064892
v -0.353143 -1.189969 0.064892
v -0.345819 -1.194325 0.064892
v -0.339681 -1.196699 0.064892
v -0.333940 -1.197887 0.064892
v -0.118424 -1.197887 0.064892
v 0.009659 -1.197688 0.064892
v 0.303991 -1.197445 0.064892
v 0.342758 -1.197609 0.064892
v 0.351666 -1.194311 0.064892
v 0.360576 -1.188866 0.064892
v 0.368329 -1.181443 0.064892
v 0.372947 -1.173029 0.064892
v 0.376412 -1.163790 0.064892
v 0.376250 -1.150429 0.064892
v 0.373441 -1.140363 0.064892
v 0.358760 -1.114133 0.064892
v 0.324941 -1.056230 0.064892
v 0.271161 -0.963018 0.064892
v 0.215731 -0.866840 0.064892
v 0.161454 -0.772972 0.064892
v 0.109817 -0.683393 0.064892
v 0.041115 -0.564230 0.064892
v 0.031139 -0.550548 0.064892
v 0.018025 -0.542566 0.064892
v 0.004910 -0.540285 0.064892
v -0.005479 -0.541230 0.064892
v -0.014300 -0.544666 0.064892
v -0.021975 -0.549134 0.032758
v -0.014300 -0.544666 0.032758
v -0.005479 -0.541230 0.032758
v 0.004910 -0.540285 0.032758
v 0.018025 -0.542566 0.032758
v 0.031139 -0.550548 0.032758
v 0.041115 -0.564230 0.032758
v 0.109817 -0.683393 0.032758
v 0.161454 -0.772972 0.032758
v 0.215731 -0.866840 0.032758
v 0.271161 -0.963018 0.032758
v 0.324941 -1.056230 0.032758
v 0.358760 -1.114133 0.032758
v 0.373441 -1.140363 0.032758
v 0.376250 -1.150429 0.032758
v 0.376412 -1.163790 0.032758
v 0.372947 -1.173029 0.032758
v 0.368329 -1.181443 0.032758
v 0.360576 -1.188866 0.032758
v 0.351666 -1.194311 0.032758
v 0.342758 -1.197609 0.032758
v 0.303991 -1.197445 0.032758
v 0.009659 -1.197688 0.032758
v -0.118424 -1.197887 0.032758
v -0.333940 -1.197887 0.032758
v -0.339681 -1.196699 0.032758
v -0.345819 -1.194325 0.032758
v -0.353143 -1.189969 0.032758
v -0.359278 -1.185417 0.032758
v -0.365021 -1.176112 0.032758
v -0.368188 -1.166808 0.032758
v -0.369375 -1.162254 0.032758
v -0.369375 -1.153742 0.032758
v -0.367000 -1.143051 0.032758
v -0.359872 -1.128005 0.032758
v -0.210319 -0.869686 0.032758
v -0.179042 -0.815037 0.032758
v -0.148798 -0.762453 0.032758
v -0.126230 -0.723615 0.032758
v -0.108928 -0.693483 0.032758
v -0.096214 -0.671947 0.032758
v -0.078569 -0.641014 0.032758
v -0.065281 -0.617987 0.032758
v -0.051647 -0.594845 0.032758
v -0.042368 -0.578348 0.032758
v -0.035495 -0.566203 0.032758
v -0.028966 -0.556122 0.032758
v 0.002655 -0.540197 0.064892
vt 0.466724 0.977326
vt 0.457487 0.966905
vt 0.448856 0.951870
vt 0.439768 0.933758
vt 0.427502 0.909154
vt 0.409481 0.874639
vt 0.391913 0.840295
vt 0.368592 0.794161
vt 0.351783 0.762039
vt 0.328914 0.717101
vt 0.299080 0.659178
vt 0.259100 0.580750
vt 0.217756 0.499247
vt 0.020062 0.113975
vt 0.010639 0.091534
vt 0.007495 0.075587
vt 0.007492 0.062887
vt 0.009060 0.056092
vt 0.013241 0.042208
vt 0.020824 0.028321
vt 0.028929 0.021522
vt 0.038604 0.015018
vt 0.046712 0.011468
vt 0.054296 0.009690
vt 0.339034 0.009496
vt 0.508259 0.009676
vt 0.897129 0.009777
vt 0.948349 0.009496
vt 0.960120 0.014411
vt 0.971892 0.022525
vt 0.982139 0.033594
vt 0.988245 0.046142
vt 0.992827 0.059923
vt 0.992615 0.079860
vt 0.988912 0.094876
vt 0.969525 0.134024
vt 0.924866 0.220448
vt 0.853848 0.359561
vt 0.780652 0.503106
vt 0.708981 0.643204
vt 0.640796 0.776900
vt 0.550073 0.954745
vt 0.536897 0.975169
vt 0.519575 0.987090
vt 0.502250 0.990504
vt 0.488523 0.989105
vt 0.476867 0.983985
vt 0.030952 0.120372
vt 0.030952 0.120372
vt 0.030952 0.120372
vt 0.030952 0.120372
vt 0.030952 0.120372
vt 0.030952 0.120372
vt 0.030952 0.120372
vt 0.030952 0.120372
vt 0.030952 0.120372
vt 0.030952 0.120372
vt 0.030952 0.120372
vt 0.030952 0.120372
vt 0.030952 0.120372
vt 0.030952 0.120372
vt 0.030952 0.120372
vt 0.030952 0.120372
vt 0.030952 0.120372
vt 0.030952 0.120372
vt 0.030952 0.120372
vt 0.030952 0.120372
vt 0.030952 0.120372
vt 0.030952 0.120372
vt 0.030952 0.120372
vt 0.030952 0.120372
vt 0.030952 0.120372
vt 0.030952 0.120372
vt 0.030952 0.120372
vt 0.030952 0.120372
vt 0.030952 0.120372
vt 0.030952 0.120372
vt 0.030952 0.120372
vt 0.030952 0.120372
vt 0.030952 0.120372
vt 0.030952 0.120372
vt 0.030952 0.120372
vt 0.030952 0.120372
vt 0.030952 0.120372
vt 0.030952 0.120372
vt 0.030952 0.120372
vt 0.030952 0.120372
vt 0.030952 0.120372
vt 0.030952 0.120372
vt 0.030952 0.120372
vt 0.030952 0.120372
vt 0.030952 0.120372
vt 0.030952 0.120372
vt 0.030952 0.120372
vt 0.030952 0.120372
vt 0.030952 0.120372
vt 0.030952 0.120372
vt 0.030952 0.120372
vt 0.030952 0.120372
vt 0.030952 0.120372
vt 0.030952 0.120372
vt 0.030952 0.120372
vt 0.030952 0.120372
vt 0.030952 0.120372
vt 0.030952 0.120372
vt 0.030952 0.120372
vt 0.030952 0.120372
vt 0.030952 0.120372
vt 0.030952 0.120372
vt 0.030952 0.120372
vt 0.030952 0.120372
vt 0.030952 0.120372
vt 0.030952 0.120372
vt 0.030952 0.120372
vt 0.030952 0.120372
vt 0.030952 0.120372
vt 0.030952 0.120372
vt 0.030952 0.120372
vt 0.030952 0.120372
vt 0.030952 0.120372
vt 0.030952 0.120372
vt 0.030952 0.120372
vt 0.030952 0.120372
vt 0.030952 0.120372
vt 0.030952 0.120372
vt 0.030952 0.120372
vt 0.030952 0.120372
vt 0.030952 0.120372
vt 0.030952 0.120372
vt 0.030952 0.120372
vt 0.030952 0.120372
vt 0.030952 0.120372
vt 0.030952 0.120372
vt 0.030952 0.120372
vt 0.030952 0.120372
vt 0.030952 0.120372
vt 0.030952 0.120372
vt 0.030952 0.120372
vt 0.030952 0.120372
vt 0.030952 0.120372
vt 0.030952 0.120372
vn -0.0000 -0.0000 1.0000
vn 0.0000 0.0000 -1.0000
vn 0.9363 -0.3512 0.0000
vn -0.8510 -0.5252 0.0000
vn -0.8674 0.4977 0.0000
vn -0.8639 0.5037 0.0000
vn 0.9999 0.0122 0.0000
vn -0.5958 -0.8031 0.0000
vn -0.8686 0.4955 0.0000
vn 0.9632 0.2688 0.0000
vn -0.5112 -0.8595 0.0000
vn -0.8642 0.5032 0.0000
vn -0.8611 0.5084 0.0000
vn 0.8726 0.4884 0.0000
vn -0.3607 -0.9327 0.0000
vn -0.8659 0.5002 0.0000
vn 0.8648 0.5020 0.0000
vn 0.8635 0.5043 0.0000
vn -0.2027 -0.9792 0.0000
vn -0.8657 0.5005 0.0000
vn 0.8663 0.4995 0.0000
vn 0.0008 -1.0000 0.0000
vn 0.0000 -1.0000 0.0000
vn 0.8661 0.4999 0.0000
vn -0.7070 0.7072 0.0000
vn 0.0012 -1.0000 0.0000
vn -0.8667 0.4989 0.0000
vn 0.8660 0.5000 0.0000
vn -0.5030 0.8643 0.0000
vn -0.0017 -1.0000 0.0000
vn -0.8654 0.5010 0.0000
vn 0.8663 0.4994 0.0000
vn -0.0042 -1.0000 0.0000
vn -0.9037 0.4281 0.0000
vn -0.3630 0.9318 0.0000
vn 0.3473 -0.9378 0.0000
vn -0.9762 0.2169 0.0000
vn 0.8081 0.5891 0.0000
vn -0.8393 0.5436 0.0000
vn 0.5215 -0.8533 0.0000
vn -1.0000 0.0000 0.0000
vn 0.5199 0.8542 0.0000
vn -0.8709 0.4914 0.0000
vn -0.8703 0.4925 0.0000
vn 0.6916 -0.7223 0.0000
vn -0.9677 -0.2523 0.0000
vn 0.1714 0.9852 0.0000
vn -0.8716 0.4902 0.0000
vn 0.8766 -0.4812 0.0000
vn -0.9468 -0.3218 0.0000
vn -0.0907 0.9959 0.0000
vn -0.8616 0.5076 0.0000
usemtl Material.007
s 1
f 1/1/1 2/2/1 3/3/1 4/4/1 5/5/1 6/6/1 7/7/1 8/8/1 9/9/1 10/10/1 11/11/1 12/12/1 13/13/1 14/14/1 15/15/1 16/16/1 17/17/1 18/18/1 19/19/1 20/20/1 21/21/1 22/22/1 23/23/1 24/24/1 25/25/1 26/26/1 27/27/1 28/28/1 29/29/1 30/30/1 31/31/1 32/32/1 33/33/1 34/34/1 35/35/1 36/36/1 37/37/1 38/38/1 39/39/1 40/40/1 41/41/1 42/42/1 43/43/1 44/44/1 45/45/1 46/46/1 47/47/1
f 48/48/2 49/49/2 50/50/2 51/51/2 52/52/2 53/53/2 54/54/2 55/55/2 56/56/2 57/57/2 58/58/2 59/59/2 60/60/2 61/61/2 62/62/2 63/63/2 64/64/2 65/65/2 66/66/2 67/67/2 68/68/2 69/69/2 70/70/2 71/71/2 72/72/2 73/73/2 74/74/2 75/75/2 76/76/2 77/77/2 78/78/2 79/79/2 80/80/2 81/81/2 82/82/2 83/83/2 84/84/2 85/85/2 86/86/2 87/87/2 88/88/2 89/89/2 90/90/2 91/91/2 92/92/2 93/93/2 94/94/2
f 33/95/3 32/96/3 64/64/3 63/63/3
f 20/97/4 19/98/4 77/77/4 76/76/4
f 7/99/5 6/100/6 90/90/6 89/89/5
f 34/101/7 33/95/7 63/63/7 62/62/7
f 21/102/8 20/97/8 76/76/8 75/75/8
f 8/103/9 7/99/5 89/89/5 88/88/9
f 35/104/10 34/101/10 62/62/10 61/61/10
f 22/105/11 21/102/11 75/75/11 74/74/11
f 9/106/12 8/103/13 88/88/13 87/87/12
f 36/107/14 35/104/14 61/61/14 60/60/14
f 23/108/15 22/105/15 74/74/15 73/73/15
f 10/109/16 9/106/12 87/87/12 86/86/16
f 37/110/17 36/107/18 60/60/18 59/59/17
f 24/111/19 23/108/19 73/73/19 72/72/19
f 11/112/20 10/109/16 86/86/16 85/85/20
f 38/113/21 37/110/17 59/59/17 58/58/21
f 25/114/22 24/111/23 72/72/23 71/71/22
f 12/115/5 11/112/20 85/85/20 84/84/5
f 39/116/24 38/113/21 58/58/21 57/57/24
f 2/117/25 1/118/25 48/48/25 94/94/25
f 26/119/26 25/114/22 71/71/22 70/70/26
f 13/120/27 12/115/5 84/84/5 83/83/27
f 40/121/28 39/116/24 57/57/24 56/56/28
f 1/118/29 47/122/29 49/49/29 48/48/29
f 27/123/30 26/119/26 70/70/26 69/69/30
f 14/124/31 13/120/27 83/83/27 82/82/31
f 41/125/32 40/121/28 56/56/28 55/55/32
f 28/126/33 27/123/30 69/69/30 68/68/33
f 15/127/34 14/124/34 82/82/34 81/81/34
f 42/128/21 41/125/32 55/55/32 54/54/21
f 47/122/35 46/129/35 50/50/35 49/49/35
f 29/130/36 28/126/36 68/68/36 67/67/36
f 16/131/37 15/127/37 81/81/37 80/80/37
f 43/132/38 42/128/38 54/54/38 53/53/38
f 3/133/39 2/117/39 94/94/39 93/93/39
f 30/134/40 29/130/40 67/67/40 66/66/40
f 17/135/41 16/131/41 80/80/41 79/79/41
f 44/136/42 43/132/42 53/53/42 52/52/42
f 4/137/43 3/133/44 93/93/44 92/92/43
f 31/138/45 30/134/45 66/66/45 65/65/45
f 18/139/46 17/135/46 79/79/46 78/78/46
f 45/140/47 44/136/47 52/52/47 51/51/47
f 5/141/48 4/137/43 92/92/43 91/91/48
f 32/96/49 31/138/49 65/65/49 64/64/49
f 19/98/50 18/139/50 78/78/50 77/77/50
f 46/129/51 45/140/51 51/51/51 50/50/51
f 6/100/6 5/141/52 91/91/52 90/90/6
l 95 46
o Cube_Cube.003
v 0.020150 -1.497868 0.052881
v 0.020150 -0.839541 0.052881
v -0.020150 -0.839541 0.052881
v -0.020150 -1.497868 0.052881
v 0.052881 -1.497868 -0.020150
v 0.052881 -0.839541 -0.020150
v 0.052881 -0.839541 0.020150
v 0.052881 -1.497868 0.020148
v 0.043294 -0.839541 -0.043294
v 0.020150 -0.839541 -0.052882
v -0.020150 -0.839541 -0.052882
v -0.043294 -0.839541 -0.043294
v -0.052881 -0.839541 -0.020150
v -0.052881 -0.839541 0.020150
v -0.043294 -0.839541 0.043294
v 0.043294 -0.839541 0.043294
v -0.052881 -1.497868 0.020148
v -0.052881 -1.497868 -0.020150
v -0.020150 -1.497868 -0.052883
v 0.020150 -1.497868 -0.052883
v -0.043294 -1.497868 0.043294
v -0.043294 -1.497868 -0.043296
v 0.043294 -1.497868 -0.043296
v 0.043294 -1.497868 0.043294
vt 0.941420 0.254819
vt 0.943002 0.254819
vt 0.943002 0.255422
vt 0.941420 0.255422
vt 0.941420 0.253237
vt 0.943002 0.253237
vt 0.943002 0.253840
vt 0.941420 0.253840
vt 0.943146 0.252891
vt 0.943492 0.252747
vt 0.944095 0.252747
vt 0.944441 0.252891
vt 0.944584 0.253237
vt 0.944584 0.253840
vt 0.944441 0.254186
vt 0.944095 0.254329
vt 0.943492 0.254329
vt 0.943146 0.254186
vt 0.941420 0.250073
vt 0.943002 0.250073
vt 0.943002 0.250675
vt 0.941420 0.250675
vt 0.941420 0.251655
vt 0.943002 0.251655
vt 0.943002 0.252258
vt 0.941420 0.252258
vt 0.943002 0.255912
vt 0.941420 0.255912
vt 0.941420 0.249583
vt 0.943002 0.249583
vt 0.941420 0.251165
vt 0.943002 0.251165
vt 0.941420 0.252747
vt 0.943002 0.252747
vt 0.941420 0.254329
vt 0.943002 0.254329
vt 0.939838 0.253237
vt 0.939981 0.252891
vt 0.940328 0.252747
vt 0.940930 0.252747
vt 0.941277 0.252891
vt 0.941277 0.254186
vt 0.940930 0.254329
vt 0.940328 0.254329
vt 0.939981 0.254186
vt 0.939838 0.253840
vn 0.0000 -0.0000 1.0000
vn 1.0000 0.0000 0.0000
vn 0.0000 1.0000 -0.0000
vn -1.0000 0.0000 0.0000
vn 0.0000 0.0000 -1.0000
vn -0.3827 -0.0000 0.9239
vn -0.9239 -0.0000 0.3827
vn -0.3827 0.0000 -0.9239
vn -0.9239 0.0000 -0.3827
vn 0.9239 0.0000 -0.3827
vn 0.3827 0.0000 -0.9239
vn 0.3827 -0.0000 0.9239
vn 0.9239 -0.0000 0.3827
vn 0.0000 -1.0000 0.0000
usemtl Material.001
s 1
f 96/142/53 97/143/53 98/144/53 99/145/53
f 100/146/54 101/147/54 102/148/54 103/149/54
f 101/147/55 104/150/55 105/151/55 106/152/55 107/153/55 108/154/55 109/155/55 110/156/55 98/157/55 97/158/55 111/159/55 102/148/55
f 112/160/56 109/161/56 108/162/56 113/163/56
f 114/164/57 106/165/57 105/166/57 115/167/57
f 99/145/58 98/144/58 110/168/58 116/169/58
f 116/170/59 110/171/59 109/161/59 112/160/59
f 106/165/60 114/164/60 117/172/60 107/173/60
f 107/173/61 117/172/61 113/163/61 108/162/61
f 101/147/62 100/146/62 118/174/62 104/175/62
f 104/175/63 118/174/63 115/167/63 105/166/63
f 97/143/64 96/142/64 119/176/64 111/177/64
f 111/177/65 119/176/65 103/149/65 102/148/65
f 113/178/66 117/179/66 114/180/66 115/181/66 118/182/66 100/146/66 103/149/66 119/183/66 96/184/66 99/185/66 116/186/66 112/187/66
