# Blender v3.0.0 OBJ File: ''
# www.blender.org
mtllib park.mtl
o park
v -1.104001 -1.398767 1.861071
v -1.104001 -1.001234 1.861071
v -1.104001 -1.001233 -2.096024
v -1.104001 -1.398766 -2.096024
v 0.873969 -1.398766 -2.096024
v 0.873969 -1.001233 -2.096024
v 1.104001 -1.001233 -2.096024
v 1.104001 -1.398766 -2.096024
v 1.104001 -1.398767 1.861071
v 1.104001 -1.001234 1.861071
v -0.873969 -1.398767 2.096024
v -0.873969 -1.001234 2.096024
v 0.873969 -1.398767 1.861071
v 0.873969 -1.398767 2.096024
v -0.873969 -1.001234 1.861071
v 0.873969 -1.001234 1.861071
v 0.873969 -1.001234 2.096024
v -0.873969 -1.398767 1.861071
v -0.873969 -1.001233 -2.096024
v -0.873969 -1.398766 -2.096024
v 0.965476 -1.001234 2.096024
v 1.104001 -1.001234 1.957500
v 1.063428 -1.001234 2.055451
v 1.104001 -1.398767 1.957500
v 0.965476 -1.398767 2.096024
v 1.063428 -1.398767 2.055451
v -1.104001 -1.001234 1.957500
v -0.965476 -1.001234 2.096024
v -1.063428 -1.001234 2.055451
v -0.965476 -1.398767 2.096024
v -1.104001 -1.398767 1.957500
v -1.063428 -1.398767 2.055451
vt 0.375000 0.014012
vt 0.625000 0.014012
vt 0.625000 0.250000
vt 0.375000 0.250000
vt 0.375000 0.416667
vt 0.625000 0.416667
vt 0.625000 0.500000
vt 0.375000 0.500000
vt 0.625000 0.735988
vt 0.708333 0.735988
vt 0.708333 0.750000
vt 0.675183 0.750000
vt 0.639698 0.747580
vt 0.625000 0.741739
vt 0.375000 0.008261
vt 0.625000 0.008261
vt 0.791667 0.735988
vt 0.875000 0.735988
vt 0.875000 0.741739
vt 0.860302 0.747580
vt 0.824817 0.750000
vt 0.791667 0.750000
vt 0.375000 0.916667
vt 0.625000 0.916667
vt 0.625000 0.949817
vt 0.375000 0.949817
vt 0.291667 0.735988
vt 0.375000 0.735988
vt 0.375000 0.741739
vt 0.360302 0.747580
vt 0.324817 0.750000
vt 0.291667 0.750000
vt 0.208333 0.735988
vt 0.208333 0.750000
vt 0.375000 0.833333
vt 0.625000 0.833333
vt 0.625000 0.333333
vt 0.375000 0.333333
vt 0.291667 0.500000
vt 0.125000 0.500000
vt 0.208333 0.500000
vt 0.125000 0.735988
vt 0.708333 0.500000
vt 0.791667 0.500000
vt 0.875000 0.500000
vt 0.175183 0.750000
vt 0.139698 0.747580
vt 0.125000 0.741739
vt 0.625000 0.800183
vt 0.375000 0.800183
vt 0.375000 0.750000
vt 0.625000 0.750000
vt 0.375000 0.000000
vt 0.625000 0.000000
vt 0.625000 1.000000
vt 0.375000 1.000000
vn -1.0000 0.0000 0.0000
vn 0.0000 0.0000 -1.0000
vn 0.0000 1.0000 0.0000
vn 0.0000 0.0000 1.0000
vn 0.0000 -1.0000 -0.0000
vn 1.0000 0.0000 0.0000
vn 0.3827 0.0000 0.9239
vn 0.7071 0.0000 0.7071
vn 0.9239 0.0000 0.3827
vn -0.9239 0.0000 0.3827
vn -0.7071 0.0000 0.7071
vn -0.3827 0.0000 0.9239
usemtl Material.001
s 1
f 1/1/1 2/2/1 3/3/1 4/4/1
f 5/5/2 6/6/2 7/7/2 8/8/2
f 10/9/3 16/10/3 17/11/3 21/12/3 23/13/3 22/14/3
f 31/15/1 27/16/1 2/2/1 1/1/1
f 15/17/3 2/18/3 27/19/3 29/20/3 28/21/3 12/22/3
f 11/23/4 12/24/4 28/25/4 30/26/4
f 13/27/5 9/28/5 24/29/5 26/30/5 25/31/5 14/32/5
f 16/10/3 15/17/3 12/22/3 17/11/3
f 18/33/5 13/27/5 14/32/5 11/34/5
f 9/28/6 10/9/6 22/14/6 24/29/6
f 14/35/4 17/36/4 12/24/4 11/23/4
f 4/4/2 3/3/2 19/37/2 20/38/2
f 13/27/1 16/10/1 6/6/1 5/39/1
f 18/33/2 15/17/2 16/10/2 13/27/2
f 4/40/5 20/41/5 18/33/5 1/42/5
f 18/33/6 20/41/6 19/37/6 15/17/6
f 7/7/3 6/43/3 16/10/3 10/9/3
f 19/44/3 3/45/3 2/18/3 15/17/3
f 5/39/5 8/8/5 9/28/5 13/27/5
f 8/8/6 7/7/6 10/9/6 9/28/6
f 1/42/5 18/33/5 11/34/5 30/46/5 32/47/5 31/48/5
f 21/49/7 25/50/7 26/51/8 23/52/8
f 23/52/8 26/51/8 24/29/9 22/14/9
f 27/16/10 31/15/10 32/53/11 29/54/11
f 29/55/11 32/56/11 30/26/12 28/25/12
f 25/50/4 21/49/4 17/36/4 14/35/4
