# Blender v3.0.0 OBJ File: ''
# www.blender.org
mtllib churchlectern.mtl
o Cube_Cube.001
v -0.416701 -0.680968 0.268526
v 0.416701 -0.680968 0.268526
v 0.416701 -0.672992 0.273484
v -0.416701 -0.672992 0.273484
v 0.416701 -0.675487 0.259710
v 0.416701 -0.667511 0.264668
v -0.416701 -0.675487 0.259710
v -0.416701 -0.667511 0.264668
v -0.416701 -0.366245 -0.255633
v -0.416701 -0.683500 0.254729
v -0.416701 -0.358232 -0.250653
v 0.416701 -0.688980 0.263545
v 0.416701 -0.683500 0.254729
v -0.246444 -1.481407 0.246444
v -0.246444 -1.481407 -0.246444
v -0.246444 -1.519687 -0.246444
v -0.246444 -1.519687 0.224439
v -0.246444 -1.519687 0.232574
v -0.246444 -1.519687 0.246444
v 0.246444 -1.519687 -0.246444
v 0.246444 -1.519687 0.224439
v -0.110704 -1.481407 0.110704
v -0.110704 -1.481407 -0.110704
v 0.149289 -0.471924 -0.126788
v 0.416701 -0.366245 -0.255633
v 0.416701 -0.698325 0.278578
v 0.149289 -0.629555 0.126789
v -0.149289 -0.629555 0.126789
v -0.149289 -0.471924 -0.126788
v -0.416701 -0.688980 0.263545
v -0.416701 -0.698325 0.278578
v -0.416701 -0.690313 0.283559
v 0.416701 -0.690313 0.283559
v 0.246444 -1.519687 0.232574
v 0.416701 -0.358232 -0.250653
v 0.110704 -1.481407 -0.110704
v 0.110704 -1.481407 0.110704
v 0.246444 -1.481407 0.246444
v 0.246444 -1.481407 -0.246444
v 0.246444 -1.519687 0.246444
vt 0.709311 0.567764
vt 0.709311 0.987975
vt 0.704753 0.987975
vt 0.704753 0.567764
vt 0.676384 0.576689
vt 0.676384 0.581923
vt 0.671649 0.581923
vt 0.671649 0.576689
vt 0.685876 0.870761
vt 0.685876 0.875996
vt 0.681141 0.875996
vt 0.681141 0.870761
vt 0.695604 0.567764
vt 0.695604 0.987975
vt 0.690634 0.987975
vt 0.690634 0.567764
vt 0.690633 0.567764
vt 0.690633 0.870761
vt 0.685877 0.567764
vt 0.681141 0.576689
vt 0.681141 0.581923
vt 0.595931 0.816283
vt 0.595931 0.567764
vt 0.615232 0.567764
vt 0.615232 0.805189
vt 0.615232 0.809290
vt 0.615232 0.816283
vt 0.590435 0.668731
vt 0.590435 0.917250
vt 0.364915 0.917250
vt 0.364915 0.668731
vt 0.420900 0.600289
vt 0.529407 0.600289
vt 0.595931 0.668730
vt 0.354377 0.668730
vt 0.229836 0.285379
vt 0.308205 0.420211
vt 0.013759 0.420211
vt 0.008673 0.420211
vt 0.000000 0.420211
vt 0.083538 0.285379
vt 1.000000 0.592320
vt 0.888374 0.593842
vt 0.873239 0.081214
vt 1.000000 0.000000
vt 0.690633 0.875995
vt 0.690633 0.884920
vt 0.685877 0.884920
vt 0.713860 0.567764
vt 0.713860 0.987975
vt 0.709311 0.987975
vt 0.709311 0.567764
vt 0.681141 0.567764
vt 0.676385 0.567764
vt 0.361020 0.917250
vt 0.361020 0.668731
vt 0.595931 0.000000
vt 0.595931 0.420211
vt 0.308205 0.420211
vt 0.308205 0.000000
vt 0.704753 0.567764
vt 0.704753 0.987975
vt 0.700183 0.987975
vt 0.700183 0.567764
vt 0.700183 0.567764
vt 0.700183 0.987975
vt 0.695604 0.987975
vt 0.695604 0.567764
vt 0.254672 0.420211
vt 0.254672 0.840422
vt 0.246197 0.840422
vt 0.246197 0.420211
vt 0.434914 0.187567
vt 0.288616 0.187567
vt 0.205078 0.052734
vt 0.213751 0.052734
vt 0.218838 0.052734
vt 0.513283 0.052734
vt 0.229836 0.134832
vt 0.308205 0.000000
vt 0.321820 0.188543
vt 0.321820 0.339090
vt 0.238281 0.473922
vt 0.238281 0.053711
vt 0.681141 0.884920
vt 0.676385 0.884920
vt 0.727022 0.567764
vt 0.615386 0.567764
vt 0.595931 0.000000
vt 0.746477 0.000000
vt 0.131091 0.914892
vt 0.019455 0.914892
vt 0.000000 0.420211
vt 0.150546 0.420211
vt 0.873239 0.001523
vt 0.873239 0.593842
vt 0.746477 0.512628
vt 0.761613 0.000000
vt 0.529407 0.488653
vt 0.420900 0.488653
vt 0.354377 0.420211
vt 0.595931 0.420211
vt 0.354377 0.917250
vt 0.354377 0.668731
vt 0.615232 0.816284
vt 0.615232 0.567764
vt 0.634533 0.567764
vt 0.634533 0.574758
vt 0.634533 0.578859
vt 0.634533 0.816283
vt 0.671649 0.816284
vt 0.653111 0.816284
vt 0.653111 0.567764
vt 0.671649 0.567764
vt 0.653111 0.816284
vt 0.634533 0.816284
vt 0.634533 0.567764
vt 0.653111 0.567764
vn 0.0000 -0.5279 0.8493
vn 1.0000 -0.0000 0.0000
vn -1.0000 -0.0000 0.0000
vn 0.0000 0.8493 0.5279
vn 0.0000 -1.0000 -0.0000
vn 0.0000 1.0000 0.0000
vn 0.0810 -0.8465 -0.5262
vn -0.9990 -0.0414 -0.0137
vn 0.0000 0.5279 -0.8493
vn -0.0810 -0.8465 -0.5262
vn 0.0000 -0.7732 -0.6342
vn 0.0000 -0.9109 -0.4127
vn 0.0000 -0.0159 -0.9999
vn 0.0000 -0.0189 0.9998
vn 0.9990 -0.0414 -0.0137
vn 0.0000 0.0000 1.0000
vn 0.0000 0.0000 -1.0000
usemtl Pine_Wood
s 1
f 1/1/1 2/2/1 3/3/1 4/4/1
f 2/5/2 5/6/2 6/7/2 3/8/2
f 7/9/3 1/10/3 4/11/3 8/12/3
f 6/13/4 8/14/4 4/15/4 3/16/4
f 9/17/3 10/18/3 7/9/3 11/19/3
f 12/20/2 13/21/2 5/6/2 2/5/2
f 14/22/3 15/23/3 16/24/3 17/25/3 18/26/3 19/27/3
f 16/28/5 20/29/5 21/30/5 17/31/5
f 22/32/6 23/33/6 15/34/6 14/35/6
f 24/36/7 25/37/7 13/38/7 12/39/7 26/40/7 27/41/7
f 23/42/8 22/43/8 28/44/8 29/45/8
f 30/46/3 31/47/3 32/48/3 1/10/3
f 5/49/9 7/50/9 8/51/9 6/52/9
f 26/53/2 12/20/2 2/5/2 33/54/2
f 17/31/5 21/30/5 34/55/5 18/56/5
f 35/57/4 11/58/4 7/59/4 5/60/4
f 25/61/9 9/62/9 11/63/9 35/64/9
f 31/65/1 26/66/1 33/67/1 32/68/1
f 2/69/4 1/70/4 32/71/4 33/72/4
f 29/73/10 28/74/10 31/75/10 30/76/10 10/77/10 9/78/10
f 24/36/11 29/79/11 9/80/11 25/37/11
f 28/81/12 27/82/12 26/83/12 31/84/12
f 13/21/2 25/85/2 35/86/2 5/6/2
f 36/87/13 23/88/13 29/89/13 24/90/13
f 22/91/14 37/92/14 27/93/14 28/94/14
f 36/95/15 24/96/15 27/97/15 37/98/15
f 36/99/6 37/100/6 38/101/6 39/102/6
f 37/100/6 22/32/6 14/35/6 38/101/6
f 23/33/6 36/99/6 39/102/6 15/34/6
f 18/56/5 34/55/5 40/103/5 19/104/5
f 39/105/2 38/106/2 40/107/2 34/108/2 21/109/2 20/110/2
f 40/111/16 38/112/16 14/113/16 19/114/16
f 16/115/17 15/116/17 39/117/17 20/118/17
f 10/18/3 30/46/3 1/10/3 7/9/3
o Cube.001_Cube.002
v -0.032189 -0.865140 -0.105309
v -0.032189 -0.807658 -0.105309
v -0.032189 -0.807658 -0.127844
v -0.032189 -0.865140 -0.127844
v 0.032189 -0.807658 -0.127844
v 0.032189 -0.865140 -0.127844
v 0.032189 -0.807658 -0.105309
v 0.032189 -0.865140 -0.105309
v -0.032189 -1.196527 -0.127844
v 0.032189 -1.196527 -0.127844
v 0.032189 -1.196527 -0.105309
v -0.032189 -1.196527 -0.105309
v 0.032189 -0.915717 -0.105309
v -0.032189 -0.915717 -0.105309
v 0.032189 -0.915717 -0.127844
v 0.094852 -0.865140 -0.105309
v 0.094852 -0.865140 -0.127844
v -0.032189 -0.915717 -0.127844
v -0.094852 -0.865140 -0.127844
v -0.094852 -0.865140 -0.105309
v 0.094852 -0.915717 -0.127844
v 0.094852 -0.915717 -0.105309
v -0.094852 -0.915717 -0.105309
v -0.094852 -0.915717 -0.127844
vt 0.561555 0.531156
vt 0.561555 0.607155
vt 0.561555 0.607155
vt 0.561555 0.531156
vt 0.438445 0.607155
vt 0.438445 0.531156
vt 0.438445 0.607155
vt 0.438445 0.531156
vt 0.561555 0.093018
vt 0.438445 0.093018
vt 0.438445 0.093018
vt 0.561555 0.093018
vt 0.438445 0.464286
vt 0.561555 0.464286
vt 0.438445 0.464286
vt 0.318615 0.531156
vt 0.318615 0.531156
vt 0.561555 0.464286
vt 0.681385 0.531156
vt 0.681385 0.531156
vt 0.318615 0.464286
vt 0.318615 0.464286
vt 0.681385 0.464286
vt 0.681385 0.464286
vn -1.0000 -0.0000 0.0000
vn 0.0000 0.0000 -1.0000
vn 1.0000 0.0000 0.0000
vn 0.0000 -0.0000 1.0000
vn 0.0000 -1.0000 0.0000
vn 0.0000 1.0000 0.0000
usemtl Furniture_Wood
s 1
f 41/119/18 42/120/18 43/121/18 44/122/18
f 44/122/19 43/121/19 45/123/19 46/124/19
f 46/124/20 45/123/20 47/125/20 48/126/20
f 48/126/21 47/125/21 42/120/21 41/119/21
f 49/127/22 50/128/22 51/129/22 52/130/22
f 45/123/23 43/121/23 42/120/23 47/125/23
f 51/129/21 53/131/21 54/132/21 52/130/21
f 53/131/21 48/126/21 41/119/21 54/132/21
f 50/128/20 55/133/20 53/131/20 51/129/20
f 46/124/23 48/126/23 56/134/23 57/135/23
f 49/127/19 58/136/19 55/133/19 50/128/19
f 58/136/19 44/122/19 46/124/19 55/133/19
f 52/130/18 54/132/18 58/136/18 49/127/18
f 41/119/23 44/122/23 59/137/23 60/138/23
f 61/139/20 57/135/20 56/134/20 62/140/20
f 63/141/18 60/138/18 59/137/18 64/142/18
f 48/126/21 53/131/21 62/140/21 56/134/21
f 55/133/19 46/124/19 57/135/19 61/139/19
f 58/136/22 54/132/22 63/141/22 64/142/22
f 44/122/19 58/136/19 64/142/19 59/137/19
f 54/132/21 41/119/21 60/138/21 63/141/21
f 53/131/22 55/133/22 61/139/22 62/140/22
