# Blender v3.0.0 OBJ File: ''
# www.blender.org
mtllib churchbench.mtl
o cube
v 1.078833 -0.982013 0.105618
v 1.110188 -0.982013 0.105618
v 1.110188 -0.982013 0.127400
v 1.078833 -0.982013 0.127400
v 0.000000 -0.939510 -0.127400
v 0.000000 -0.947707 -0.204966
v 0.000000 -0.951623 -0.265497
v 0.000000 -0.982013 -0.265497
v 0.000000 -0.982013 -0.127400
v 1.078833 -0.982013 -0.127400
v 1.110188 -0.982013 -0.127400
v 1.110188 -0.982013 -0.105618
v 1.078833 -0.982013 -0.105618
v 1.110188 -0.897007 -0.127400
v 1.078833 -0.897007 -0.127400
v 1.078833 -0.897007 -0.105618
v 1.110188 -0.897007 -0.105618
v 1.110188 -0.897007 0.105618
v 1.078833 -0.897007 0.105618
v 1.078833 -0.897007 0.127400
v 1.110188 -0.897007 0.127400
v 1.110188 -0.897007 0.265497
v 1.110188 -0.939510 0.265497
v 1.110188 -0.941301 -0.181364
v 1.110188 -0.923746 -0.270227
v 1.110188 -0.894061 -0.273158
v 1.078833 -0.939510 -0.105618
v 1.078833 -0.939510 -0.127400
v 0.000000 -0.939510 0.127400
v 1.078833 -0.939510 0.127400
v 0.000000 -0.982013 0.127400
v 1.078833 -0.939510 0.105618
v 1.101117 -1.360255 -0.093397
v 1.101117 -1.360255 0.284557
v 1.101117 -1.404564 0.284557
v 1.101117 -1.404564 -0.093397
v 1.037972 -1.360255 0.284557
v 1.037972 -1.360255 -0.093397
v 1.037972 -1.404564 -0.093397
v 1.114013 -1.523304 -0.138013
v 1.114013 -1.363855 -0.051286
v 1.026480 -1.363855 -0.051286
v 1.026480 -1.523304 -0.138013
v 1.114013 -1.523304 -0.225545
v 1.114013 -1.363855 -0.138818
v 1.026480 -1.363855 -0.138818
v 1.026480 -1.523304 -0.225545
v 1.114013 -0.981211 -0.128811
v 1.026480 -0.981211 -0.128811
v 1.026480 -0.981211 -0.041278
v 1.114013 -0.981211 -0.041278
v 1.114013 -1.246449 -0.110889
v 1.114013 -1.246449 -0.023356
v 1.026480 -1.246449 -0.110889
v 1.026480 -1.246449 -0.023356
v 0.000000 -0.897007 0.127400
v 0.000000 -0.897007 0.265497
v 0.000000 -0.897007 -0.105618
v 0.000000 -0.897007 0.105618
v 0.000000 -0.894061 -0.273158
v 0.000000 -0.897007 -0.127400
v 0.000000 -0.939510 0.265497
v 0.000000 -0.982013 0.265497
v 0.000000 -0.939510 0.105618
v 0.000000 -0.939510 -0.105618
v 0.000000 -0.982013 -0.105618
v 0.000000 -0.982013 0.105618
v 0.000000 -0.923746 -0.270227
v 1.037972 -1.404564 0.284557
v 1.110188 -0.982013 0.265497
v 1.069057 -1.509120 0.347977
v 1.069057 -1.314914 0.335133
v 1.026679 -1.314914 0.335133
v 1.026679 -1.509120 0.347977
v 1.111435 -1.509120 0.275609
v 1.111435 -1.314914 0.262766
v 1.111435 -1.314914 0.335133
v 1.111435 -1.509120 0.347977
v 1.026679 -1.314914 0.262766
v 1.026679 -1.509120 0.275609
v 1.069057 -1.509120 0.275609
v 1.026679 -0.382025 0.269842
v 1.026679 -0.291265 0.275610
v 1.047498 -0.281101 0.275610
v 1.069057 -0.281134 0.275063
v 1.069057 -0.382025 0.269842
v 1.069057 -1.314914 0.262766
v 1.111435 -0.382025 0.269842
v 1.111435 -0.291265 0.275610
v 1.111435 -0.291265 0.347977
v 1.111435 -0.382025 0.342209
v 1.026679 -0.291265 0.347977
v 1.047498 -0.281101 0.347977
v 1.026679 -0.382025 0.342209
v 1.069057 -1.021789 0.330675
v 1.026679 -1.021789 0.330675
v 1.111435 -1.021789 0.258308
v 1.111435 -1.021789 0.330675
v 1.069057 -1.021789 0.258308
v 1.026679 -1.021789 0.258308
v 1.090616 -0.281101 0.347977
v 1.069057 -0.281134 0.347430
v 1.069057 -0.382025 0.342209
v 1.069057 -0.537748 0.336442
v 1.026679 -0.537748 0.336442
v 1.026679 -0.537748 0.264075
v 0.000000 -0.382025 0.269842
v 0.000000 -0.382025 0.342209
v 1.069057 -0.537748 0.264075
v 1.111435 -0.537748 0.264075
v 1.111435 -0.537748 0.336442
v 0.000000 -0.537748 0.336442
v 0.000000 -0.537748 0.264075
v 1.090616 -0.281101 0.275610
v 1.110188 -0.951623 -0.265497
v 1.110188 -0.982013 -0.265497
v -1.078833 -0.982013 0.105618
v -1.078833 -0.982013 0.127400
v -1.110188 -0.982013 0.127400
v -1.110188 -0.982013 0.105618
v -1.078833 -0.982013 -0.127400
v -1.078833 -0.982013 -0.105618
v -1.110188 -0.982013 -0.105618
v -1.110188 -0.982013 -0.127400
v -1.110188 -0.897007 -0.127400
v -1.110188 -0.897007 -0.105618
v -1.078833 -0.897007 -0.105618
v -1.078833 -0.897007 -0.127400
v -1.110188 -0.897007 0.105618
v -1.110188 -0.897007 0.127400
v -1.078833 -0.897007 0.127400
v -1.078833 -0.897007 0.105618
v -1.110188 -0.894061 -0.273158
v -1.110188 -0.923746 -0.270227
v -1.110188 -0.941301 -0.181364
v -1.110188 -0.939510 0.265497
v -1.110188 -0.897007 0.265497
v -1.078833 -0.939510 -0.105618
v -1.078833 -0.939510 -0.127400
v -1.078833 -0.939510 0.127400
v -1.078833 -0.939510 0.105618
v -1.101117 -1.360255 -0.093397
v -1.101117 -1.404564 -0.093397
v -1.101117 -1.404564 0.284557
v -1.101117 -1.360255 0.284557
v -1.037972 -1.360255 0.284557
v -1.037972 -1.360255 -0.093397
v -1.037972 -1.404564 -0.093397
v -1.114013 -1.523304 -0.138013
v -1.026480 -1.523304 -0.138013
v -1.026480 -1.363855 -0.051286
v -1.114013 -1.363855 -0.051286
v -1.114013 -1.523304 -0.225545
v -1.114013 -1.363855 -0.138818
v -1.026480 -1.523304 -0.225545
v -1.026480 -1.363855 -0.138818
v -1.114013 -0.981211 -0.128811
v -1.114013 -0.981211 -0.041278
v -1.026480 -0.981211 -0.041278
v -1.026480 -0.981211 -0.128811
v -1.114013 -1.246449 -0.110889
v -1.114013 -1.246449 -0.023356
v -1.026480 -1.246449 -0.110889
v -1.026480 -1.246449 -0.023356
v -1.037972 -1.404564 0.284557
v -1.110188 -0.982013 0.265497
v -1.069057 -1.509120 0.347977
v -1.026679 -1.509120 0.347977
v -1.026679 -1.314914 0.335133
v -1.069057 -1.314914 0.335133
v -1.111435 -1.509120 0.275609
v -1.111435 -1.509120 0.347977
v -1.111435 -1.314914 0.335133
v -1.111435 -1.314914 0.262766
v -1.026679 -1.509120 0.275609
v -1.026679 -1.314914 0.262766
v -1.069057 -1.509120 0.275609
v -1.026679 -0.382025 0.269842
v -1.069057 -0.382025 0.269842
v -1.069057 -0.281134 0.275063
v -1.047498 -0.281101 0.275610
v -1.026679 -0.291265 0.275610
v -1.069057 -1.314914 0.262766
v -1.111435 -0.382025 0.269842
v -1.111435 -0.382025 0.342209
v -1.111435 -0.291265 0.347977
v -1.111435 -0.291265 0.275610
v -1.047498 -0.281101 0.347977
v -1.026679 -0.291265 0.347977
v -1.026679 -0.382025 0.342209
v -1.069057 -1.021789 0.330675
v -1.026679 -1.021789 0.330675
v -1.111435 -1.021789 0.258308
v -1.111435 -1.021789 0.330675
v -1.069057 -1.021789 0.258308
v -1.026679 -1.021789 0.258308
v -1.069057 -0.382025 0.342209
v -1.069057 -0.281134 0.347430
v -1.090616 -0.281101 0.347977
v -1.026679 -0.537748 0.336442
v -1.069057 -0.537748 0.336442
v -1.026679 -0.537748 0.264075
v -1.111435 -0.537748 0.264075
v -1.069057 -0.537748 0.264075
v -1.111435 -0.537748 0.336442
v -1.090616 -0.281101 0.275610
v -1.110188 -0.951623 -0.265497
v -1.110188 -0.982013 -0.265497
vt 0.286043 0.354212
vt 0.286043 0.355202
vt 0.283203 0.355202
vt 0.283203 0.354212
vt 0.403377 0.180253
vt 0.413489 0.186928
vt 0.421380 0.190117
vt 0.421380 0.214864
vt 0.403377 0.214864
vt 0.316420 0.354212
vt 0.316420 0.355202
vt 0.313580 0.355202
vt 0.313580 0.354212
vt 0.335278 0.266058
vt 0.334289 0.266058
vt 0.334289 0.263219
vt 0.335278 0.263219
vt 0.335278 0.235695
vt 0.334289 0.235695
vt 0.334289 0.232857
vt 0.335278 0.232857
vt 0.284202 0.002399
vt 0.287042 0.002399
vt 0.314579 0.002399
vt 0.317419 0.002399
vt 0.335421 0.002399
vt 0.335421 0.037010
vt 0.277167 0.038468
vt 0.265583 0.024173
vt 0.265200 0.000000
vt 0.425303 0.103833
vt 0.422463 0.103833
vt 0.422463 0.069222
vt 0.425303 0.069222
vt 0.369471 0.034611
vt 0.369471 0.000000
vt 0.403520 0.000000
vt 0.403520 0.034611
vt 0.369328 0.177854
vt 0.335278 0.177854
vt 0.335278 0.143243
vt 0.369328 0.143243
vt 0.425303 0.034611
vt 0.425303 0.069222
vt 0.422463 0.069222
vt 0.422463 0.034611
vt 0.328820 0.404473
vt 0.328820 0.355202
vt 0.364902 0.355202
vt 0.364902 0.404473
vt 0.418757 0.285124
vt 0.420750 0.285124
vt 0.420750 0.334372
vt 0.418757 0.334372
vt 0.420926 0.118357
vt 0.418933 0.118357
vt 0.418933 0.082274
vt 0.420926 0.082274
vt 0.439829 0.355202
vt 0.439829 0.485087
vt 0.437066 0.485087
vt 0.437066 0.355202
vt 0.183602 0.000000
vt 0.176008 0.130113
vt 0.164602 0.130439
vt 0.172195 0.000326
vt 0.212014 0.441617
vt 0.204421 0.311505
vt 0.215827 0.311830
vt 0.223421 0.441943
vt 0.406283 0.126866
vt 0.409045 0.126866
vt 0.409045 0.138277
vt 0.406283 0.138277
vt 0.411808 0.138272
vt 0.409045 0.138272
vt 0.409045 0.126866
vt 0.411808 0.126866
vt 0.448117 0.355202
vt 0.448117 0.485062
vt 0.445354 0.485062
vt 0.445354 0.355202
vt 0.175099 0.225783
vt 0.183602 0.441617
vt 0.172195 0.441943
vt 0.163692 0.226109
vt 0.448117 0.580673
vt 0.448117 0.796659
vt 0.445354 0.796659
vt 0.445354 0.580673
vt 0.203511 0.215834
vt 0.212014 0.000000
vt 0.223421 0.000326
vt 0.214918 0.216160
vt 0.439829 0.580707
vt 0.437066 0.580707
vt 0.439829 0.796684
vt 0.437066 0.796684
vt 0.335278 0.214863
vt 0.300239 0.232857
vt 0.300239 0.214863
vt 0.300239 0.263219
vt 0.300239 0.235695
vt 0.335278 0.285124
vt 0.300239 0.285124
vt 0.300239 0.266058
vt 0.421380 0.249475
vt 0.403377 0.249475
vt 0.403377 0.214864
vt 0.421380 0.214864
vt 0.292738 0.389813
vt 0.265201 0.389813
vt 0.265201 0.355202
vt 0.292738 0.355202
vt 0.403377 0.145642
vt 0.422378 0.143243
vt 0.421996 0.167416
vt 0.416940 0.131546
vt 0.414947 0.131546
vt 0.414947 0.082274
vt 0.416940 0.082274
vt 0.426729 0.334372
vt 0.424736 0.334372
vt 0.424736 0.298290
vt 0.426729 0.298290
vt 0.335278 0.247076
vt 0.369328 0.247076
vt 0.369328 0.281687
vt 0.335278 0.281687
vt 0.403520 0.103832
vt 0.403520 0.138443
vt 0.369471 0.138443
vt 0.369471 0.103832
vt 0.369034 0.355202
vt 0.369034 0.320163
vt 0.403644 0.320163
vt 0.403644 0.355202
vt 0.437066 0.355202
vt 0.437066 0.404473
vt 0.400984 0.404473
vt 0.400984 0.355202
vt 0.138976 0.000000
vt 0.138976 0.158138
vt 0.137638 0.158138
vt 0.137638 0.000000
vt 0.149747 0.000000
vt 0.151422 0.158146
vt 0.141987 0.158146
vt 0.140313 0.000000
vt 0.254265 0.000000
vt 0.252892 0.158149
vt 0.243458 0.158167
vt 0.244831 0.000018
vt 0.299513 0.404473
vt 0.300851 0.404473
vt 0.300851 0.413907
vt 0.299513 0.413907
vt 0.002675 0.917813
vt 0.002675 0.991722
vt 0.002018 0.999998
vt 0.001338 0.999971
vt 0.001338 0.917813
vt 0.001338 0.000000
vt 0.001338 0.158143
vt 0.000000 0.158143
vt 0.000000 0.000000
vt 0.150499 0.917815
vt 0.149747 0.991723
vt 0.140313 0.991723
vt 0.141065 0.917815
vt 0.430889 0.214951
vt 0.430813 0.223228
vt 0.421380 0.223142
vt 0.421456 0.214865
vt 0.421456 0.297052
vt 0.430889 0.297139
vt 0.138976 0.396832
vt 0.137638 0.396832
vt 0.152003 0.396844
vt 0.142569 0.396844
vt 0.001338 0.396839
vt 0.000000 0.396839
vt 0.252764 0.396847
vt 0.243330 0.396865
vt 0.140313 0.917806
vt 0.139656 0.999992
vt 0.138976 0.999966
vt 0.138976 0.917806
vt 0.138976 0.790996
vt 0.137638 0.790996
vt 0.137638 0.917806
vt 0.254265 0.791009
vt 0.244831 0.791026
vt 0.431808 0.208049
vt 0.422378 0.208049
vt 0.422378 0.175646
vt 0.431808 0.175646
vt 0.001338 0.791004
vt 0.000000 0.791004
vt 0.000000 0.917813
vt 0.151251 0.791007
vt 0.141817 0.791007
vt 0.412954 0.000056
vt 0.412954 0.126866
vt 0.403520 0.126810
vt 0.403520 0.000000
vt 0.002675 0.791004
vt 0.035078 0.791004
vt 0.035078 0.917813
vt 0.105235 0.917806
vt 0.105235 0.790996
vt 0.413078 0.349931
vt 0.403644 0.349931
vt 0.403644 0.317527
vt 0.413078 0.317527
vt 0.002675 0.396839
vt 0.140313 0.790996
vt 0.140313 0.396832
vt 0.002675 0.158143
vt 0.140313 0.158138
vt 0.138295 0.999992
vt 0.137638 0.991715
vt 0.002675 0.000000
vt 0.000657 0.999998
vt 0.000000 0.991722
vt 0.298176 0.404473
vt 0.298176 0.413907
vt 0.302211 0.404544
vt 0.300851 0.404544
vt 0.301531 0.404473
vt 0.335349 0.283048
vt 0.335349 0.284409
vt 0.335278 0.283728
vt 0.302211 0.413973
vt 0.300851 0.413973
vt 0.149747 1.000000
vt 0.140313 1.000000
vt 0.334423 0.355202
vt 0.334423 0.320163
vt 0.403520 0.069222
vt 0.369471 0.069222
vt 0.335278 0.212465
vt 0.369328 0.212465
vt 0.292738 0.424424
vt 0.265201 0.424424
vt 0.421380 0.284086
vt 0.403377 0.284086
vt 0.425303 0.000000
vt 0.422463 0.000000
vt 0.369328 0.212465
vt 0.335278 0.212465
vt 0.369471 0.069222
vt 0.403520 0.069222
vt 0.425303 0.138444
vt 0.422463 0.138444
vt 0.266199 0.046874
vt 0.335421 0.071621
vt 0.317419 0.071621
vt 0.314579 0.071621
vt 0.287042 0.071621
vt 0.284202 0.071621
vt 0.266199 0.071621
vt 0.300239 0.214863
vt 0.265200 0.214863
vt 0.265200 0.190690
vt 0.300239 0.190690
vt 0.265200 0.167991
vt 0.300239 0.167991
vt 0.265200 0.143243
vt 0.300239 0.143243
vt 0.316420 0.320163
vt 0.334423 0.320163
vt 0.334423 0.355202
vt 0.265200 0.355202
vt 0.265200 0.320163
vt 0.283203 0.320163
vt 0.286043 0.320163
vt 0.313580 0.320163
vt 0.286043 0.286114
vt 0.283203 0.286114
vt 0.283203 0.285124
vt 0.286043 0.285124
vt 0.316420 0.286114
vt 0.313580 0.286114
vt 0.313580 0.285124
vt 0.316420 0.285124
vt 0.265200 0.266058
vt 0.265200 0.263219
vt 0.266190 0.263219
vt 0.266190 0.266058
vt 0.265200 0.235695
vt 0.265200 0.232857
vt 0.266190 0.232857
vt 0.266190 0.235695
vt 0.316420 0.074021
vt 0.335421 0.071621
vt 0.335039 0.095795
vt 0.323455 0.110090
vt 0.265200 0.108632
vt 0.265200 0.074021
vt 0.283203 0.074021
vt 0.286043 0.074021
vt 0.313580 0.074021
vt 0.415918 0.319735
vt 0.415918 0.285124
vt 0.418757 0.285124
vt 0.418757 0.319735
vt 0.335421 0.034611
vt 0.335421 0.000000
vt 0.403377 0.143243
vt 0.403377 0.177854
vt 0.413078 0.319735
vt 0.415918 0.319735
vt 0.415918 0.354346
vt 0.413078 0.354346
vt 0.292738 0.355202
vt 0.328820 0.355202
vt 0.328820 0.404473
vt 0.292738 0.404473
vt 0.418933 0.082274
vt 0.418933 0.131522
vt 0.416940 0.131522
vt 0.416940 0.082274
vt 0.420750 0.334373
vt 0.420750 0.298290
vt 0.422743 0.298290
vt 0.422743 0.334373
vt 0.439829 0.355202
vt 0.442592 0.355202
vt 0.442592 0.485087
vt 0.439829 0.485087
vt 0.243330 0.441943
vt 0.231924 0.441617
vt 0.224330 0.311505
vt 0.235736 0.311830
vt 0.192105 0.000326
vt 0.203511 0.000000
vt 0.195918 0.130113
vt 0.184511 0.130439
vt 0.406283 0.126866
vt 0.406283 0.138277
vt 0.403520 0.138277
vt 0.403520 0.126866
vt 0.292738 0.415879
vt 0.292738 0.404473
vt 0.295501 0.404473
vt 0.295501 0.415879
vt 0.442592 0.355202
vt 0.445354 0.355202
vt 0.445354 0.485062
vt 0.442591 0.485062
vt 0.234827 0.216160
vt 0.223421 0.215834
vt 0.231924 0.000000
vt 0.243330 0.000326
vt 0.442591 0.580673
vt 0.445354 0.580673
vt 0.445354 0.796659
vt 0.442591 0.796659
vt 0.183602 0.226109
vt 0.195008 0.225783
vt 0.203511 0.441617
vt 0.192105 0.441943
vt 0.439829 0.580707
vt 0.442592 0.580707
vt 0.442592 0.796684
vt 0.439829 0.796684
vt 0.265200 0.214863
vt 0.265200 0.285124
vt 0.412954 0.131546
vt 0.412954 0.082274
vt 0.414947 0.082274
vt 0.414947 0.131546
vt 0.422743 0.334372
vt 0.422743 0.298290
vt 0.424736 0.298290
vt 0.424736 0.334372
vt 0.403377 0.247076
vt 0.403377 0.281687
vt 0.335421 0.103832
vt 0.335421 0.138443
vt 0.369034 0.285124
vt 0.403644 0.285124
vt 0.400985 0.404473
vt 0.364902 0.404473
vt 0.364902 0.355202
vt 0.400985 0.355202
vt 0.071494 0.000000
vt 0.072832 0.000000
vt 0.072832 0.158138
vt 0.071494 0.158138
vt 0.154258 0.000000
vt 0.163692 0.000000
vt 0.162018 0.158146
vt 0.152584 0.158146
vt 0.265200 0.791026
vt 0.255767 0.791009
vt 0.254393 0.632859
vt 0.263827 0.632877
vt 0.296838 0.404473
vt 0.296838 0.413907
vt 0.295501 0.413907
vt 0.295501 0.404473
vt 0.067482 0.917813
vt 0.068819 0.917813
vt 0.068819 0.999971
vt 0.068139 0.999998
vt 0.067482 0.991722
vt 0.068819 0.000000
vt 0.070157 0.000000
vt 0.070157 0.158143
vt 0.068819 0.158143
vt 0.153506 0.917815
vt 0.162940 0.917815
vt 0.163692 0.991723
vt 0.154258 0.991723
vt 0.422463 0.082188
vt 0.413030 0.082274
vt 0.412954 0.073997
vt 0.422387 0.073912
vt 0.413030 0.000087
vt 0.422463 0.000000
vt 0.071494 0.396832
vt 0.072832 0.396832
vt 0.152003 0.396844
vt 0.161437 0.396844
vt 0.068819 0.396839
vt 0.070157 0.396839
vt 0.263699 0.394179
vt 0.254265 0.394161
vt 0.070157 0.917806
vt 0.071494 0.917806
vt 0.071494 0.999966
vt 0.070814 0.999992
vt 0.070157 0.991715
vt 0.072832 0.790996
vt 0.071494 0.790996
vt 0.072832 0.917806
vt 0.255767 0.000000
vt 0.265200 0.000018
vt 0.431808 0.143243
vt 0.422378 0.143243
vt 0.070157 0.791004
vt 0.068819 0.791004
vt 0.070157 0.917813
vt 0.162189 0.791007
vt 0.152755 0.791007
vt 0.067482 0.791004
vt 0.413078 0.285124
vt 0.403644 0.285124
vt 0.067482 0.396839
vt 0.070157 0.790996
vt 0.070157 0.396832
vt 0.067482 0.158143
vt 0.070157 0.158138
vt 0.072832 0.991715
vt 0.072175 0.999992
vt 0.067482 0.000000
vt 0.070157 0.991722
vt 0.069499 0.999998
vt 0.298175 0.404473
vt 0.298175 0.413907
vt 0.070157 0.000000
vt 0.302211 0.404544
vt 0.302892 0.404473
vt 0.303572 0.404544
vt 0.335349 0.283048
vt 0.335278 0.282368
vt 0.335349 0.281687
vt 0.303572 0.413973
vt 0.302211 0.413973
vt 0.163692 1.000000
vt 0.154258 1.000000
vt 0.334423 0.285124
vt 0.335421 0.069222
vt 0.403377 0.212465
vt 0.413078 0.285124
vt 0.415918 0.285124
vt 0.403377 0.212465
vt 0.335421 0.069222
vt 0.415918 0.354346
vt 0.418757 0.354346
vt 0.334423 0.118495
vt 0.334423 0.143243
vt 0.316420 0.143243
vt 0.313580 0.143243
vt 0.286043 0.143243
vt 0.283203 0.143243
vt 0.265200 0.143243
vt 0.335278 0.190690
vt 0.335278 0.214863
vt 0.335278 0.167991
vt 0.335278 0.143243
vt 0.334423 0.285124
vt 0.265200 0.285124
vn 0.0000 -1.0000 0.0000
vn -1.0000 0.0000 0.0000
vn 0.0000 1.0000 0.0000
vn 1.0000 -0.0000 0.0000
vn 0.0000 -0.0000 1.0000
vn 0.0000 0.0000 -1.0000
vn 0.0000 -0.4778 0.8785
vn 0.0000 0.4778 -0.8785
vn 0.0000 -0.0674 -0.9977
vn 0.0000 -0.2314 0.9729
vn 0.0000 0.2314 -0.9729
vn 0.0000 0.0674 0.9977
vn 0.0000 0.9998 0.0202
vn 0.0000 0.0660 0.9978
vn -0.0136 0.0571 -0.9983
vn 0.0000 -0.0660 -0.9978
vn -0.4387 0.8986 0.0000
vn 0.0000 0.0152 0.9999
vn 0.0000 -0.0152 -0.9999
vn -0.0136 -0.0571 0.9983
vn 0.0000 -0.0119 0.9999
vn 0.0000 -0.0370 0.9993
vn 0.0000 0.0119 -0.9999
vn 0.0000 0.0370 -0.9993
vn 0.0136 -0.0571 0.9983
vn 0.0136 0.0571 -0.9983
vn 0.0000 0.9982 -0.0598
vn 0.0000 -0.9982 0.0599
vn 0.4387 0.8986 0.0000
vn 0.0000 -0.0983 -0.9952
vn 0.0000 -0.1673 -0.9859
usemtl Stylised_wood_2
s 1
f 1/1/1 2/2/1 3/3/1 4/4/1
f 5/5/2 6/6/2 7/7/2 8/8/2 9/9/2
f 10/10/1 11/11/1 12/12/1 13/13/1
f 13/13/1 12/12/1 2/2/1 1/1/1
f 14/14/3 15/15/3 16/16/3 17/17/3
f 18/18/3 19/19/3 20/20/3 21/21/3
f 14/22/4 17/23/4 18/24/4 21/25/4 22/26/4 23/27/4 24/28/4 25/29/4 26/30/4
f 27/31/2 28/32/2 10/33/2 13/34/2
f 5/35/5 9/36/5 10/37/5 28/38/5
f 29/39/6 30/40/6 4/41/6 31/42/6
f 30/43/2 20/44/2 19/45/2 32/46/2
f 33/47/4 34/48/4 35/49/4 36/50/4
f 37/51/3 34/52/3 33/53/3 38/54/3
f 38/55/6 33/56/6 36/57/6 39/58/6
f 40/59/7 41/60/7 42/61/7 43/62/7
f 44/63/4 45/64/4 41/65/4 40/66/4
f 43/67/2 42/68/2 46/69/2 47/70/2
f 47/71/1 44/72/1 40/73/1 43/74/1
f 48/75/3 49/76/3 50/77/3 51/78/3
f 47/79/8 46/80/8 45/81/8 44/82/8
f 52/83/4 48/84/4 51/85/4 53/86/4
f 54/87/9 49/88/9 48/89/9 52/90/9
f 55/91/2 50/92/2 49/93/2 54/94/2
f 53/95/10 55/96/10 42/61/10 41/60/10
f 52/83/4 53/86/4 41/65/4 45/64/4
f 54/87/11 52/90/11 45/81/11 46/80/11
f 55/91/2 54/94/2 46/69/2 42/68/2
f 53/95/12 51/97/12 50/98/12 55/96/12
f 22/99/3 21/21/3 20/20/3 56/100/3 57/101/3
f 18/18/3 17/17/3 16/16/3 58/102/3 59/103/3 19/19/3
f 14/14/13 26/104/13 60/105/13 61/106/13 15/15/13
f 62/107/2 29/108/2 31/109/2 63/110/2
f 64/111/2 65/112/2 66/113/2 67/114/2
f 61/115/2 60/116/2 68/117/2 6/6/2 5/5/2
f 35/118/1 69/119/1 39/120/1 36/121/1
f 34/122/5 37/123/5 69/124/5 35/125/5
f 27/126/6 65/127/6 58/128/6 16/129/6
f 32/130/5 19/131/5 59/132/5 64/133/5
f 23/134/5 62/135/5 63/136/5 70/137/5
f 39/138/2 69/139/2 37/140/2 38/141/2
f 71/142/14 72/143/14 73/144/14 74/145/14
f 75/146/4 76/147/4 77/148/4 78/149/4
f 74/150/2 73/151/2 79/152/2 80/153/2
f 81/154/1 75/155/1 78/156/1 71/157/1
f 82/158/15 83/159/15 84/160/15 85/161/15 86/162/15
f 81/163/16 87/164/16 76/165/16 75/166/16
f 88/167/4 89/168/4 90/169/4 91/170/4
f 84/171/17 83/172/17 92/173/17 93/174/17
f 94/175/2 92/173/2 83/172/2 82/176/2
f 95/177/18 96/178/18 73/144/18 72/143/18
f 97/179/4 98/180/4 77/148/4 76/147/4
f 99/181/19 97/182/19 76/165/19 87/164/19
f 96/183/2 100/184/2 79/152/2 73/151/2
f 91/185/20 90/169/20 101/186/20 102/187/20 103/188/20
f 95/177/21 104/189/21 105/190/21 96/178/21
f 104/189/22 103/188/22 94/191/22 105/190/22
f 96/183/2 105/192/2 106/193/2 100/184/2
f 94/194/3 82/195/3 107/196/3 108/197/3
f 99/181/23 109/198/23 110/199/23 97/182/23
f 109/198/24 86/162/24 88/200/24 110/199/24
f 97/179/4 110/201/4 111/202/4 98/180/4
f 110/201/4 88/167/4 91/170/4 111/202/4
f 112/203/2 108/204/2 107/205/2 113/206/2
f 82/158/24 106/207/24 113/208/24 107/209/24
f 105/190/22 94/191/22 108/210/22 112/211/22
f 106/212/1 105/213/1 112/214/1 113/215/1
f 106/207/24 82/158/24 86/162/24 109/198/24
f 100/216/23 106/207/23 109/198/23 99/181/23
f 111/217/22 91/185/22 103/188/22 104/189/22
f 98/218/21 111/217/21 104/189/21 95/177/21
f 100/216/19 99/181/19 87/164/19 79/219/19
f 98/218/18 95/177/18 72/143/18 77/220/18
f 103/188/25 102/187/25 93/221/25 92/222/25 94/191/25
f 80/223/16 79/219/16 87/164/16 81/163/16
f 86/162/26 85/161/26 114/224/26 89/225/26 88/200/26
f 80/226/1 81/154/1 71/157/1 74/227/1
f 78/149/14 77/220/14 72/143/14 71/142/14
f 84/228/27 114/229/27 85/230/27
f 101/231/28 93/232/28 102/233/28
f 84/228/3 93/234/3 101/235/3 114/229/3
f 89/168/29 114/236/29 101/237/29 90/169/29
f 22/238/5 57/239/5 62/135/5 23/134/5
f 1/240/5 32/130/5 64/133/5 67/241/5
f 13/242/6 66/243/6 65/127/6 27/126/6
f 59/244/2 58/245/2 65/112/2 64/111/2
f 57/246/2 56/247/2 29/108/2 62/107/2
f 4/248/2 30/43/2 32/46/2 1/249/2
f 56/250/6 20/251/6 30/40/6 29/39/6
f 61/252/5 5/35/5 28/38/5 15/253/5
f 16/254/2 15/255/2 28/32/2 27/31/2
f 115/256/4 24/28/4 23/27/4 70/257/4 3/258/4 2/259/4 12/260/4 11/261/4 116/262/4
f 60/263/30 26/264/30 25/265/30 68/266/30
f 115/256/4 25/29/4 24/28/4
f 68/117/2 7/7/2 6/6/2
f 115/267/31 7/268/31 68/266/31 25/265/31
f 7/268/6 115/267/6 116/269/6 8/270/6
f 11/11/1 10/10/1 9/271/1 8/272/1 116/273/1
f 70/274/1 63/275/1 31/276/1 4/4/1 3/3/1
f 1/1/1 67/277/1 66/278/1 13/13/1
f 117/279/1 118/280/1 119/281/1 120/282/1
f 121/283/1 122/284/1 123/285/1 124/286/1
f 122/284/1 117/279/1 120/282/1 123/285/1
f 125/287/3 126/288/3 127/289/3 128/290/3
f 129/291/3 130/292/3 131/293/3 132/294/3
f 125/295/2 133/296/2 134/297/2 135/298/2 136/299/2 137/300/2 130/301/2 129/302/2 126/303/2
f 138/304/4 122/305/4 121/306/4 139/307/4
f 5/35/5 139/308/5 121/309/5 9/36/5
f 29/39/6 31/42/6 118/310/6 140/311/6
f 140/312/4 141/313/4 132/314/4 131/315/4
f 142/316/2 143/317/2 144/318/2 145/319/2
f 146/320/3 147/321/3 142/322/3 145/323/3
f 147/324/6 148/325/6 143/326/6 142/327/6
f 149/328/7 150/329/7 151/330/7 152/331/7
f 153/332/2 149/333/2 152/334/2 154/335/2
f 150/336/4 155/337/4 156/338/4 151/339/4
f 155/340/1 150/341/1 149/342/1 153/343/1
f 157/344/3 158/345/3 159/346/3 160/347/3
f 155/348/8 153/349/8 154/350/8 156/351/8
f 161/352/2 162/353/2 158/354/2 157/355/2
f 163/356/9 161/357/9 157/358/9 160/359/9
f 164/360/4 163/361/4 160/362/4 159/363/4
f 162/364/10 152/331/10 151/330/10 164/365/10
f 161/352/2 154/335/2 152/334/2 162/353/2
f 163/356/11 156/351/11 154/350/11 161/357/11
f 164/360/4 151/339/4 156/338/4 163/361/4
f 162/364/12 164/365/12 159/366/12 158/367/12
f 137/368/3 57/101/3 56/100/3 131/293/3 130/292/3
f 129/291/3 132/294/3 59/103/3 58/102/3 127/289/3 126/288/3
f 125/287/13 128/290/13 61/106/13 60/105/13 133/369/13
f 144/370/1 143/371/1 148/372/1 165/373/1
f 145/374/5 144/375/5 165/376/5 146/377/5
f 138/378/6 127/379/6 58/128/6 65/127/6
f 141/380/5 64/133/5 59/132/5 132/381/5
f 136/382/5 166/383/5 63/136/5 62/135/5
f 148/384/4 147/385/4 146/386/4 165/387/4
f 167/388/14 168/389/14 169/390/14 170/391/14
f 171/392/2 172/393/2 173/394/2 174/395/2
f 168/396/4 175/397/4 176/398/4 169/399/4
f 177/400/1 167/401/1 172/402/1 171/403/1
f 178/404/26 179/405/26 180/406/26 181/407/26 182/408/26
f 177/409/16 171/410/16 174/411/16 183/412/16
f 184/413/2 185/414/2 186/415/2 187/416/2
f 181/417/29 188/418/29 189/419/29 182/420/29
f 190/421/4 178/422/4 182/420/4 189/419/4
f 191/423/18 170/391/18 169/390/18 192/424/18
f 193/425/2 174/395/2 173/394/2 194/426/2
f 195/427/19 183/412/19 174/411/19 193/428/19
f 192/429/4 169/399/4 176/398/4 196/430/4
f 185/431/25 197/432/25 198/433/25 199/434/25 186/435/25
f 191/423/21 192/424/21 200/436/21 201/437/21
f 201/437/22 200/436/22 190/438/22 197/432/22
f 192/429/4 196/430/4 202/439/4 200/440/4
f 190/441/3 108/197/3 107/196/3 178/442/3
f 195/427/23 193/428/23 203/443/23 204/444/23
f 204/444/24 203/443/24 184/445/24 179/405/24
f 193/425/2 194/426/2 205/446/2 203/447/2
f 203/447/2 205/446/2 185/414/2 184/413/2
f 178/404/24 107/209/24 113/208/24 202/448/24
f 200/436/22 112/211/22 108/210/22 190/438/22
f 202/449/1 113/215/1 112/214/1 200/450/1
f 202/448/24 204/444/24 179/405/24 178/404/24
f 196/451/23 195/427/23 204/444/23 202/448/23
f 205/452/22 201/437/22 197/432/22 185/431/22
f 194/453/21 191/423/21 201/437/21 205/452/21
f 196/451/19 176/454/19 183/412/19 195/427/19
f 194/453/18 173/455/18 170/391/18 191/423/18
f 197/432/20 190/438/20 189/456/20 188/457/20 198/433/20
f 175/458/16 177/409/16 183/412/16 176/454/16
f 179/405/15 184/445/15 187/459/15 206/460/15 180/406/15
f 175/461/1 168/462/1 167/401/1 177/400/1
f 172/463/14 167/388/14 170/391/14 173/455/14
f 181/464/27 180/465/27 206/466/27
f 199/467/28 198/468/28 188/469/28
f 181/464/3 206/466/3 199/470/3 188/471/3
f 187/416/17 186/415/17 199/472/17 206/473/17
f 137/474/5 136/382/5 62/135/5 57/239/5
f 117/475/5 67/241/5 64/133/5 141/380/5
f 122/476/6 138/378/6 65/127/6 66/243/6
f 118/477/4 117/478/4 141/313/4 140/312/4
f 56/250/6 29/39/6 140/311/6 131/479/6
f 61/252/5 128/480/5 139/308/5 5/35/5
f 127/481/4 138/304/4 139/307/4 128/482/4
f 207/483/2 208/484/2 124/485/2 123/486/2 120/487/2 119/488/2 166/489/2 136/299/2 135/298/2
f 60/263/30 68/266/30 134/490/30 133/491/30
f 207/483/2 135/298/2 134/297/2
f 207/492/31 134/490/31 68/266/31 7/268/31
f 7/268/6 8/270/6 208/493/6 207/492/6
f 124/286/1 208/494/1 8/272/1 9/271/1 121/283/1
f 166/495/1 119/281/1 118/280/1 31/276/1 63/275/1
f 117/279/1 122/284/1 66/278/1 67/277/1
