# Blender v2.93.0 OBJ File: ''
# www.blender.org
mtllib 6.mtl
o Cylinder
v -0.021710 -1.060124 -0.077135
v -0.028426 -1.053406 -0.077135
v -0.034704 -1.043715 -0.077135
v -0.041313 -1.032040 -0.077135
v -0.050234 -1.016181 -0.077135
v -0.063339 -0.993935 -0.077135
v -0.076115 -0.971799 -0.077135
v -0.093073 -0.942063 -0.077135
v -0.105298 -0.921360 -0.077135
v -0.121928 -0.892395 -0.077135
v -0.143625 -0.855058 -0.077135
v -0.172699 -0.804509 -0.077135
v -0.202766 -0.751975 -0.077135
v -0.346533 -0.503650 -0.077135
v -0.353385 -0.489185 -0.077135
v -0.355669 -0.478909 -0.077135
v -0.355669 -0.470725 -0.077135
v -0.354526 -0.466348 -0.077135
v -0.351481 -0.457403 -0.077135
v -0.345960 -0.448458 -0.077135
v -0.340062 -0.444083 -0.077135
v -0.333022 -0.439894 -0.077135
v -0.327120 -0.437613 -0.077135
v -0.321603 -0.436470 -0.077135
v -0.114426 -0.436470 -0.077135
v 0.008703 -0.436659 -0.077135
v 0.291645 -0.436896 -0.077135
v 0.328914 -0.436739 -0.077135
v 0.337479 -0.439910 -0.077135
v 0.346040 -0.445144 -0.077135
v 0.353494 -0.452279 -0.077135
v 0.357937 -0.460367 -0.077135
v 0.361266 -0.469250 -0.077135
v 0.361107 -0.482094 -0.077135
v 0.358412 -0.491768 -0.077135
v 0.344298 -0.516984 -0.077135
v 0.311787 -0.572648 -0.077135
v 0.260085 -0.662252 -0.077135
v 0.206800 -0.754710 -0.077135
v 0.154625 -0.844946 -0.077135
v 0.104987 -0.931061 -0.077135
v 0.038942 -1.045611 -0.077135
v 0.029350 -1.058765 -0.077135
v 0.016745 -1.066438 -0.077135
v 0.004139 -1.068630 -0.077135
v -0.005849 -1.067721 -0.077135
v -0.014331 -1.064419 -0.077135
v -0.021710 -1.060124 -0.046244
v -0.014331 -1.064419 -0.046244
v -0.005849 -1.067721 -0.046244
v 0.004139 -1.068630 -0.046244
v 0.016745 -1.066438 -0.046244
v 0.029350 -1.058765 -0.046244
v 0.038942 -1.045611 -0.046244
v 0.104987 -0.931061 -0.046244
v 0.154625 -0.844946 -0.046244
v 0.206800 -0.754710 -0.046244
v 0.260085 -0.662252 -0.046244
v 0.311787 -0.572648 -0.046244
v 0.344298 -0.516984 -0.046244
v 0.358412 -0.491768 -0.046244
v 0.361107 -0.482094 -0.046244
v 0.361266 -0.469250 -0.046244
v 0.357937 -0.460367 -0.046244
v 0.353494 -0.452279 -0.046244
v 0.346040 -0.445144 -0.046244
v 0.337479 -0.439910 -0.046244
v 0.328914 -0.436739 -0.046244
v 0.291645 -0.436896 -0.046244
v 0.008703 -0.436659 -0.046244
v -0.114426 -0.436470 -0.046244
v -0.321603 -0.436470 -0.046244
v -0.327120 -0.437613 -0.046244
v -0.333022 -0.439894 -0.046244
v -0.340062 -0.444083 -0.046244
v -0.345960 -0.448458 -0.046244
v -0.351481 -0.457403 -0.046244
v -0.354526 -0.466348 -0.046244
v -0.355669 -0.470725 -0.046244
v -0.355669 -0.478909 -0.046244
v -0.353385 -0.489185 -0.046244
v -0.346533 -0.503650 -0.046244
v -0.202766 -0.751975 -0.046244
v -0.172699 -0.804509 -0.046244
v -0.143625 -0.855058 -0.046244
v -0.121928 -0.892395 -0.046244
v -0.105298 -0.921360 -0.046244
v -0.093073 -0.942063 -0.046244
v -0.076115 -0.971799 -0.046244
v -0.063339 -0.993935 -0.046244
v -0.050234 -1.016181 -0.046244
v -0.041313 -1.032040 -0.046244
v -0.034704 -1.043715 -0.046244
v -0.028426 -1.053406 -0.046244
v 0.001972 -1.068716 -0.077135
vt 0.798404 0.533318
vt 0.789928 0.542522
vt 0.777698 0.551122
vt 0.762966 0.560178
vt 0.742952 0.572402
vt 0.714877 0.590359
vt 0.686941 0.607865
vt 0.649415 0.631105
vt 0.623286 0.647854
vt 0.586733 0.670642
vt 0.539617 0.700372
vt 0.475823 0.740211
vt 0.409527 0.781410
vt 0.096141 0.978408
vt 0.077887 0.987798
vt 0.064915 0.990930
vt 0.054585 0.990934
vt 0.049058 0.989372
vt 0.037764 0.985205
vt 0.026468 0.977649
vt 0.020938 0.969572
vt 0.015647 0.959931
vt 0.012760 0.951852
vt 0.011314 0.944295
vt 0.011155 0.660558
vt 0.011302 0.491929
vt 0.011384 0.104427
vt 0.011155 0.053387
vt 0.015153 0.041658
vt 0.021753 0.029927
vt 0.030757 0.019716
vt 0.040964 0.013631
vt 0.052174 0.009066
vt 0.068390 0.009277
vt 0.080605 0.012967
vt 0.112449 0.032286
vt 0.182747 0.076788
vt 0.295904 0.147556
vt 0.412666 0.220494
vt 0.526624 0.291913
vt 0.635375 0.359859
vt 0.780036 0.450262
vt 0.796650 0.463392
vt 0.806347 0.480653
vt 0.809124 0.497916
vt 0.807986 0.511595
vt 0.803821 0.523210
vt 0.008170 0.240743
vt 0.008170 0.240743
vt 0.008170 0.240743
vt 0.008170 0.240743
vt 0.008170 0.240743
vt 0.008170 0.240743
vt 0.008170 0.240743
vt 0.008170 0.240743
vt 0.008170 0.240743
vt 0.008170 0.240743
vt 0.008170 0.240743
vt 0.008170 0.240743
vt 0.008170 0.240743
vt 0.008170 0.240743
vt 0.008170 0.240743
vt 0.008170 0.240743
vt 0.008170 0.240743
vt 0.008170 0.240743
vt 0.008170 0.240743
vt 0.008170 0.240743
vt 0.008170 0.240743
vt 0.008170 0.240743
vt 0.008170 0.240743
vt 0.008170 0.240743
vt 0.008170 0.240743
vt 0.008170 0.240743
vt 0.008170 0.240743
vt 0.008170 0.240743
vt 0.008170 0.240743
vt 0.008170 0.240743
vt 0.008170 0.240743
vt 0.008170 0.240743
vt 0.008170 0.240743
vt 0.008170 0.240743
vt 0.008170 0.240743
vt 0.008170 0.240743
vt 0.008170 0.240743
vt 0.008170 0.240743
vt 0.008170 0.240743
vt 0.008170 0.240743
vt 0.008170 0.240743
vt 0.008170 0.240743
vt 0.008170 0.240743
vt 0.008170 0.240743
vt 0.008170 0.240743
vt 0.008170 0.240743
vt 0.008170 0.240743
vt 0.008170 0.240743
vt 0.008170 0.240743
vt 0.008170 0.240743
vt 0.008170 0.240743
vt 0.008170 0.240743
vt 0.008170 0.240743
vt 0.008170 0.240743
vt 0.008170 0.240743
vt 0.008170 0.240743
vt 0.008170 0.240743
vt 0.008170 0.240743
vt 0.008170 0.240743
vt 0.008170 0.240743
vt 0.008170 0.240743
vt 0.008170 0.240743
vt 0.008170 0.240743
vt 0.008170 0.240743
vt 0.008170 0.240743
vt 0.008170 0.240743
vt 0.008170 0.240743
vt 0.008170 0.240743
vt 0.008170 0.240743
vt 0.008170 0.240743
vt 0.008170 0.240743
vt 0.008170 0.240743
vt 0.008170 0.240743
vt 0.008170 0.240743
vt 0.008170 0.240743
vt 0.008170 0.240743
vt 0.008170 0.240743
vt 0.008170 0.240743
vt 0.008170 0.240743
vt 0.008170 0.240743
vt 0.008170 0.240743
vt 0.008170 0.240743
vt 0.008170 0.240743
vt 0.008170 0.240743
vt 0.008170 0.240743
vt 0.008170 0.240743
vt 0.008170 0.240743
vt 0.008170 0.240743
vt 0.008170 0.240743
vt 0.008170 0.240743
vt 0.008170 0.240743
vt 0.008170 0.240743
vt 0.008170 0.240743
vt 0.008170 0.240743
vn -0.0000 -0.0000 -1.0000
vn 0.0000 0.0000 1.0000
vn 0.9364 0.3509 0.0000
vn -0.8510 0.5252 0.0000
vn -0.8674 -0.4976 0.0000
vn -0.8639 -0.5037 0.0000
vn 0.9999 -0.0124 0.0000
vn -0.5958 0.8032 0.0000
vn -0.8687 -0.4954 0.0000
vn 0.9633 -0.2684 0.0000
vn -0.5114 0.8594 0.0000
vn -0.8642 -0.5032 0.0000
vn -0.8611 -0.5085 0.0000
vn 0.8726 -0.4884 0.0000
vn -0.3608 0.9326 0.0000
vn -0.8659 -0.5002 0.0000
vn 0.8648 -0.5021 0.0000
vn 0.8635 -0.5043 0.0000
vn -0.2029 0.9792 0.0000
vn -0.8657 -0.5005 0.0000
vn 0.8663 -0.4996 0.0000
vn 0.0008 1.0000 0.0000
vn 0.0000 1.0000 0.0000
vn -0.8674 -0.4977 0.0000
vn 0.8661 -0.4999 0.0000
vn -0.7072 -0.7070 0.0000
vn 0.0012 1.0000 0.0000
vn -0.8667 -0.4989 0.0000
vn 0.8660 -0.5000 0.0000
vn -0.5030 -0.8643 0.0000
vn -0.0017 1.0000 0.0000
vn -0.8654 -0.5010 0.0000
vn 0.8663 -0.4994 -0.0000
vn -0.0042 1.0000 0.0000
vn -0.9037 -0.4281 0.0000
vn 0.8663 -0.4995 -0.0000
vn -0.3628 -0.9319 0.0000
vn 0.3472 0.9378 0.0000
vn -0.9762 -0.2170 0.0000
vn 0.8080 -0.5892 0.0000
vn -0.8393 -0.5437 0.0000
vn 0.5216 0.8532 0.0000
vn -1.0000 0.0000 0.0000
vn 0.5200 -0.8542 0.0000
vn -0.8709 -0.4915 0.0000
vn -0.8702 -0.4926 0.0000
vn 0.6915 0.7224 0.0000
vn -0.9676 0.2527 0.0000
vn 0.1713 -0.9852 0.0000
vn -0.8716 -0.4903 0.0000
vn 0.8765 0.4815 0.0000
vn -0.9467 0.3223 0.0000
vn -0.0906 -0.9959 0.0000
vn -0.8616 -0.5076 0.0000
usemtl Material.013
s 1
f 1/1/1 2/2/1 3/3/1 4/4/1 5/5/1 6/6/1 7/7/1 8/8/1 9/9/1 10/10/1 11/11/1 12/12/1 13/13/1 14/14/1 15/15/1 16/16/1 17/17/1 18/18/1 19/19/1 20/20/1 21/21/1 22/22/1 23/23/1 24/24/1 25/25/1 26/26/1 27/27/1 28/28/1 29/29/1 30/30/1 31/31/1 32/32/1 33/33/1 34/34/1 35/35/1 36/36/1 37/37/1 38/38/1 39/39/1 40/40/1 41/41/1 42/42/1 43/43/1 44/44/1 45/45/1 46/46/1 47/47/1
f 48/48/2 49/49/2 50/50/2 51/51/2 52/52/2 53/53/2 54/54/2 55/55/2 56/56/2 57/57/2 58/58/2 59/59/2 60/60/2 61/61/2 62/62/2 63/63/2 64/64/2 65/65/2 66/66/2 67/67/2 68/68/2 69/69/2 70/70/2 71/71/2 72/72/2 73/73/2 74/74/2 75/75/2 76/76/2 77/77/2 78/78/2 79/79/2 80/80/2 81/81/2 82/82/2 83/83/2 84/84/2 85/85/2 86/86/2 87/87/2 88/88/2 89/89/2 90/90/2 91/91/2 92/92/2 93/93/2 94/94/2
f 33/95/3 32/96/3 64/64/3 63/63/3
f 20/97/4 19/98/4 77/77/4 76/76/4
f 7/99/5 6/100/6 90/90/6 89/89/5
f 34/101/7 33/95/7 63/63/7 62/62/7
f 21/102/8 20/97/8 76/76/8 75/75/8
f 8/103/9 7/99/5 89/89/5 88/88/9
f 35/104/10 34/101/10 62/62/10 61/61/10
f 22/105/11 21/102/11 75/75/11 74/74/11
f 9/106/12 8/103/13 88/88/13 87/87/12
f 36/107/14 35/104/14 61/61/14 60/60/14
f 23/108/15 22/105/15 74/74/15 73/73/15
f 10/109/16 9/106/12 87/87/12 86/86/16
f 37/110/17 36/107/18 60/60/18 59/59/17
f 24/111/19 23/108/19 73/73/19 72/72/19
f 11/112/20 10/109/16 86/86/16 85/85/20
f 38/113/21 37/110/17 59/59/17 58/58/21
f 25/114/22 24/111/23 72/72/23 71/71/22
f 12/115/24 11/112/20 85/85/20 84/84/24
f 39/116/25 38/113/21 58/58/21 57/57/25
f 2/117/26 1/118/26 48/48/26 94/94/26
f 26/119/27 25/114/22 71/71/22 70/70/27
f 13/120/28 12/115/24 84/84/24 83/83/28
f 40/121/29 39/116/25 57/57/25 56/56/29
f 1/118/30 47/122/30 49/49/30 48/48/30
f 27/123/31 26/119/27 70/70/27 69/69/31
f 14/124/32 13/120/28 83/83/28 82/82/32
f 41/125/33 40/121/29 56/56/29 55/55/33
f 28/126/34 27/123/31 69/69/31 68/68/34
f 15/127/35 14/124/35 82/82/35 81/81/35
f 42/128/36 41/125/33 55/55/33 54/54/36
f 47/122/37 46/129/37 50/50/37 49/49/37
f 29/130/38 28/126/38 68/68/38 67/67/38
f 16/131/39 15/127/39 81/81/39 80/80/39
f 43/132/40 42/128/40 54/54/40 53/53/40
f 3/133/41 2/117/41 94/94/41 93/93/41
f 30/134/42 29/130/42 67/67/42 66/66/42
f 17/135/43 16/131/43 80/80/43 79/79/43
f 44/136/44 43/132/44 53/53/44 52/52/44
f 4/137/45 3/133/46 93/93/46 92/92/45
f 31/138/47 30/134/47 66/66/47 65/65/47
f 18/139/48 17/135/48 79/79/48 78/78/48
f 45/140/49 44/136/49 52/52/49 51/51/49
f 5/141/50 4/137/45 92/92/45 91/91/50
f 32/96/51 31/138/51 65/65/51 64/64/51
f 19/98/52 18/139/52 78/78/52 77/77/52
f 46/129/53 45/140/53 51/51/53 50/50/53
f 6/100/6 5/141/54 91/91/54 90/90/6
l 95 46
o Cylinder.006
v 0.285033 -1.160277 -0.047391
v 0.285033 -1.160277 -0.060821
v 0.276113 -1.144503 -0.060821
v 0.276113 -1.144503 -0.047391
v -0.251355 -1.160277 -0.060821
v -0.283636 -1.160277 -0.060821
v -0.274716 -1.144503 -0.060821
v -0.251355 -1.135203 -0.060821
v -0.283636 -1.160277 -0.047391
v -0.274716 -1.144503 -0.047391
v 0.254478 -1.160277 -0.047391
v 0.254478 -1.135203 -0.047391
v -0.251355 -1.355858 -0.060821
v -0.251355 -1.355858 -0.047391
v -0.275779 -1.346886 -0.047391
v -0.275779 -1.346886 -0.060821
v 0.254478 -1.135203 -0.060821
v -0.251355 -1.135203 -0.047391
v 0.000697 -1.135203 -0.047391
v 0.000697 -1.135203 -0.060821
v 0.254478 -1.355858 -0.060821
v 0.254478 -1.355858 -0.047391
v 0.000697 -1.355858 -0.047391
v 0.000697 -1.355858 -0.060821
v -0.251355 -1.160277 -0.047391
v 0.000697 -1.160277 -0.047391
v 0.254478 -1.160277 -0.060821
v 0.000697 -1.160277 -0.060821
v 0.277176 -1.346886 -0.060821
v 0.277176 -1.346886 -0.047391
v 0.000697 -1.328902 -0.060821
v -0.251355 -1.328902 -0.060821
v -0.251355 -1.245531 -0.060821
v 0.000697 -1.245531 -0.060821
v -0.283636 -1.328902 -0.047391
v -0.251355 -1.328902 -0.047391
v -0.251355 -1.245531 -0.047391
v -0.283636 -1.245531 -0.047391
v 0.000697 -1.328902 -0.047391
v 0.254478 -1.328902 -0.047391
v 0.254478 -1.245531 -0.047391
v 0.000697 -1.245531 -0.047391
v 0.285033 -1.328902 -0.060821
v 0.254478 -1.328902 -0.060821
v 0.254478 -1.245531 -0.060821
v 0.285033 -1.245531 -0.060821
v 0.285033 -1.328902 -0.047391
v 0.285033 -1.245531 -0.047391
v -0.283636 -1.328902 -0.060821
v -0.283636 -1.245531 -0.060821
vt 0.415587 0.524237
vt 0.415587 0.524141
vt 0.415576 0.524141
vt 0.415576 0.524237
vt 0.845700 0.710388
vt 0.845700 0.737334
vt 0.833576 0.729889
vt 0.826425 0.710388
vt 0.415587 0.524045
vt 0.415587 0.523948
vt 0.415576 0.523948
vt 0.415576 0.524045
vt 0.415587 0.523857
vt 0.415587 0.523852
vt 0.415576 0.523852
vt 0.415576 0.523857
vt 0.415678 0.524045
vt 0.415678 0.523948
vt 0.415672 0.523948
vt 0.415672 0.524045
vt 0.415485 0.524045
vt 0.415485 0.523948
vt 0.415480 0.523948
vt 0.415480 0.524045
vt 0.415571 0.524045
vt 0.415571 0.523948
vt 0.415528 0.523948
vt 0.415528 0.524045
vt 0.415763 0.524045
vt 0.415763 0.523948
vt 0.415720 0.523948
vt 0.415720 0.524045
vt 0.415587 0.523943
vt 0.415587 0.523900
vt 0.415576 0.523900
vt 0.845700 0.288169
vt 0.845701 0.500000
vt 0.826425 0.500000
vt 0.826425 0.288169
vt 0.845700 0.262666
vt 0.833576 0.270111
vt 0.415768 0.524045
vt 0.415768 0.523948
vt 0.975329 0.500000
vt 0.975329 0.710388
vt 0.911237 0.710388
vt 0.911237 0.500000
vt 0.415660 0.523948
vt 0.415660 0.523943
vt 0.415624 0.523943
vt 0.415624 0.523948
vt 0.415660 0.523900
vt 0.415660 0.523857
vt 0.415624 0.523857
vt 0.415624 0.523900
vt 0.975329 0.262666
vt 0.975329 0.288169
vt 0.911237 0.288169
vt 0.911237 0.262666
vt 0.415660 0.523852
vt 0.415624 0.523852
vt 0.415660 0.524045
vt 0.415624 0.524045
vt 0.975329 0.737334
vt 0.911237 0.737334
vt 0.415660 0.524237
vt 0.415660 0.524141
vt 0.415624 0.524141
vt 0.415624 0.524237
vt 0.415672 0.524237
vt 0.415672 0.524141
vt 0.996050 0.710388
vt 0.989153 0.730776
vt 0.415672 0.523857
vt 0.415672 0.523852
vt 0.996050 0.288169
vt 0.996050 0.500000
vt 0.989153 0.269224
vn 0.8705 0.4922 0.0000
vn -0.0000 -0.0000 -1.0000
vn -0.8705 0.4922 0.0000
vn 0.0000 0.0000 1.0000
vn -0.3448 -0.9387 0.0000
vn 0.3949 0.9187 0.0000
vn 0.0000 1.0000 -0.0000
vn 0.0000 -1.0000 -0.0000
vn 0.3676 -0.9300 0.0000
vn -0.3699 0.9291 0.0000
vn -1.0000 0.0000 0.0000
vn 1.0000 0.0000 0.0000
vn 0.9164 -0.4003 0.0000
vn -0.9164 -0.4003 0.0000
usemtl Material.013
s 1
f 96/142/55 97/143/55 98/144/55 99/145/55
f 100/146/56 101/147/56 102/148/56 103/149/56
f 101/150/57 104/151/57 105/152/57 102/153/57
f 106/154/58 96/155/58 99/156/58 107/157/58
f 108/158/59 109/159/59 110/160/59 111/161/59
f 112/162/60 107/163/60 99/164/60 98/165/60
f 103/166/61 113/167/61 114/168/61 115/169/61
f 116/170/62 117/171/62 118/172/62 119/173/62
f 120/174/58 121/175/58 114/176/58 113/167/58
f 122/177/56 123/178/56 115/179/56 112/180/56
f 97/181/56 122/177/56 112/180/56 98/182/56
f 124/183/63 125/184/63 117/171/63 116/170/63
f 115/169/61 114/168/61 107/163/61 112/162/61
f 121/175/58 106/154/58 107/157/58 114/176/58
f 104/151/58 120/174/58 113/167/58 105/152/58
f 102/153/64 105/152/64 113/167/64 103/166/64
f 119/173/62 118/172/62 109/159/62 108/158/62
f 123/178/56 100/146/56 103/149/56 115/179/56
f 126/185/56 127/186/56 128/187/56 129/188/56
f 130/189/58 131/190/58 132/191/58 133/192/58
f 134/193/58 135/194/58 136/195/58 137/196/58
f 138/197/56 139/198/56 140/199/56 141/200/56
f 139/198/56 126/185/56 129/188/56 140/199/56
f 131/190/58 134/193/58 137/196/58 132/191/58
f 135/194/58 142/201/58 143/202/58 136/195/58
f 144/203/65 130/189/65 133/192/65 145/204/65
f 127/186/56 144/205/56 145/206/56 128/187/56
f 142/207/66 138/208/66 141/209/66 143/210/66
f 125/211/67 124/212/67 138/208/67 142/207/67
f 108/213/56 111/214/56 144/205/56 127/186/56
f 111/161/68 110/160/68 130/189/68 144/203/68
f 117/215/58 125/216/58 142/201/58 135/194/58
f 109/159/58 118/172/58 134/193/58 131/190/58
f 116/217/56 119/218/56 126/185/56 139/198/56
f 124/219/56 116/217/56 139/198/56 138/197/56
f 118/172/58 117/215/58 135/194/58 134/193/58
f 110/160/58 109/159/58 131/190/58 130/189/58
f 119/218/56 108/213/56 127/186/56 126/185/56
f 129/188/56 128/187/56 100/146/56 123/178/56
f 133/192/58 132/191/58 120/174/58 104/151/58
f 137/196/58 136/195/58 106/154/58 121/175/58
f 141/200/56 140/199/56 122/177/56 97/181/56
f 140/199/56 129/188/56 123/178/56 122/177/56
f 132/191/58 137/196/58 121/175/58 120/174/58
f 136/195/58 143/202/58 96/155/58 106/154/58
f 145/204/65 133/192/65 104/151/65 101/150/65
f 128/187/56 145/206/56 101/147/56 100/146/56
f 143/210/66 141/209/66 97/143/66 96/142/66
o Cube_Cube.005
v 0.020150 -1.497868 0.052881
v 0.020150 -0.839541 0.052881
v -0.020150 -0.839541 0.052881
v -0.020150 -1.497868 0.052881
v 0.052881 -1.497868 -0.020150
v 0.052881 -0.839541 -0.020150
v 0.052881 -0.839541 0.020150
v 0.052881 -1.497868 0.020148
v 0.043294 -0.839541 -0.043294
v 0.020150 -0.839541 -0.052882
v -0.020150 -0.839541 -0.052882
v -0.043294 -0.839541 -0.043294
v -0.052881 -0.839541 -0.020150
v -0.052881 -0.839541 0.020150
v -0.043294 -0.839541 0.043294
v 0.043294 -0.839541 0.043294
v -0.052881 -1.497868 0.020148
v -0.052881 -1.497868 -0.020150
v -0.020150 -1.497868 -0.052883
v 0.020150 -1.497868 -0.052883
v -0.043294 -1.497868 0.043294
v -0.043294 -1.497868 -0.043296
v 0.043294 -1.497868 -0.043296
v 0.043294 -1.497868 0.043294
vt 0.941420 0.254819
vt 0.943002 0.254819
vt 0.943002 0.255422
vt 0.941420 0.255422
vt 0.941420 0.253237
vt 0.943002 0.253237
vt 0.943002 0.253840
vt 0.941420 0.253840
vt 0.943146 0.252891
vt 0.943492 0.252747
vt 0.944095 0.252747
vt 0.944441 0.252891
vt 0.944584 0.253237
vt 0.944584 0.253840
vt 0.944441 0.254186
vt 0.944095 0.254329
vt 0.943492 0.254329
vt 0.943146 0.254186
vt 0.941420 0.250073
vt 0.943002 0.250073
vt 0.943002 0.250675
vt 0.941420 0.250675
vt 0.941420 0.251655
vt 0.943002 0.251655
vt 0.943002 0.252258
vt 0.941420 0.252258
vt 0.943002 0.255912
vt 0.941420 0.255912
vt 0.941420 0.249583
vt 0.943002 0.249583
vt 0.941420 0.251165
vt 0.943002 0.251165
vt 0.941420 0.252747
vt 0.943002 0.252747
vt 0.941420 0.254329
vt 0.943002 0.254329
vt 0.939838 0.253237
vt 0.939981 0.252891
vt 0.940328 0.252747
vt 0.940930 0.252747
vt 0.941277 0.252891
vt 0.941277 0.254186
vt 0.940930 0.254329
vt 0.940328 0.254329
vt 0.939981 0.254186
vt 0.939838 0.253840
vn 0.0000 -0.0000 1.0000
vn 1.0000 -0.0000 0.0000
vn 0.0000 1.0000 0.0000
vn -1.0000 0.0000 0.0000
vn 0.0000 0.0000 -1.0000
vn -0.3827 -0.0000 0.9239
vn -0.9239 -0.0000 0.3827
vn -0.3827 0.0000 -0.9239
vn -0.9239 0.0000 -0.3827
vn 0.9239 0.0000 -0.3827
vn 0.3827 0.0000 -0.9239
vn 0.3827 -0.0000 0.9239
vn 0.9239 -0.0000 0.3827
vn 0.0000 -1.0000 0.0000
usemtl Material.007
s 1
f 146/220/69 147/221/69 148/222/69 149/223/69
f 150/224/70 151/225/70 152/226/70 153/227/70
f 151/225/71 154/228/71 155/229/71 156/230/71 157/231/71 158/232/71 159/233/71 160/234/71 148/235/71 147/236/71 161/237/71 152/226/71
f 162/238/72 159/239/72 158/240/72 163/241/72
f 164/242/73 156/243/73 155/244/73 165/245/73
f 149/223/74 148/222/74 160/246/74 166/247/74
f 166/248/75 160/249/75 159/239/75 162/238/75
f 156/243/76 164/242/76 167/250/76 157/251/76
f 157/251/77 167/250/77 163/241/77 158/240/77
f 151/225/78 150/224/78 168/252/78 154/253/78
f 154/253/79 168/252/79 165/245/79 155/244/79
f 147/221/80 146/220/80 169/254/80 161/255/80
f 161/255/81 169/254/81 153/227/81 152/226/81
f 163/256/82 167/257/82 164/258/82 165/259/82 168/260/82 150/224/82 153/227/82 169/261/82 146/262/82 149/263/82 166/264/82 162/265/82
