# Blender v3.2.0 OBJ File: ''
# www.blender.org
mtllib ralentisseur.mtl
o Cube_Cube.001
v -1.989221 -0.023837 1.268061
v -1.989221 0.005359 1.268061
v -1.993711 -0.023837 -1.246712
v -1.993711 0.005359 -1.246712
v 1.926554 -0.023837 1.268061
v 1.926554 0.005359 1.268061
v 1.931044 -0.023837 -1.246712
v 1.931044 0.005359 -1.246712
v -2.021010 -0.023837 0.010938
v -2.021010 -0.002446 0.010938
v 1.958343 -0.023837 0.010938
v 1.958343 -0.002446 0.010938
v -2.021010 -0.023837 0.026810
v 1.958343 0.005359 0.026810
v -2.021010 0.005359 0.026810
v 1.958343 -0.023837 0.026810
v -2.021010 0.005359 -0.004934
v 1.958343 -0.023837 -0.004934
v -2.021010 -0.023837 -0.004934
v 1.958343 0.005359 -0.004934
v 0.003517 -0.023837 -1.265174
v 0.003518 0.005359 -1.265174
v 0.003518 -0.023837 1.287051
v 0.003517 0.005359 1.287051
v 0.003518 0.105133 0.010938
v 0.003517 -0.023837 0.010938
v 0.003518 0.112938 0.026810
v 0.003517 -0.023837 0.026810
v 0.003517 -0.023837 -0.004934
v 0.003518 0.112938 -0.004934
v -0.713635 -0.023837 -1.265174
v -0.713635 -0.002446 1.287051
v -0.713635 -0.023837 0.010938
v -0.713635 -0.023837 0.026810
v -0.713635 -0.023837 -0.004934
v -0.713635 -0.002446 -1.265174
v -0.713635 -0.023837 1.287051
v -0.713635 0.105133 0.010938
v -0.713635 0.105133 0.026810
v -0.713635 0.105133 -0.004934
v -0.704199 0.005359 -1.265174
v -0.704199 -0.023837 1.287051
v -0.704199 0.105133 0.010938
v -0.704199 0.112938 0.026810
v -0.704199 0.112938 -0.004934
v -0.704199 -0.023837 -1.265174
v -0.704199 0.005359 1.287051
v -0.704199 -0.023837 0.010938
v -0.704199 -0.023837 0.026810
v -0.704199 -0.023837 -0.004934
v -0.726328 -0.023837 -1.265174
v -0.726328 0.005359 1.287051
v -0.726328 -0.023837 0.010938
v -0.726328 -0.023837 0.026810
v -0.726328 -0.023837 -0.004934
v -0.726328 0.005359 -1.265174
v -0.726328 -0.023837 1.287051
v -0.726328 0.105133 0.010938
v -0.726328 0.112938 0.026810
v -0.726328 0.112938 -0.004934
v 0.693084 0.005359 -1.265174
v 0.693084 -0.023837 1.287051
v 0.693084 0.105133 0.010938
v 0.693084 0.112938 0.026810
v 0.693084 0.112938 -0.004934
v 0.693084 -0.023837 -1.265174
v 0.693084 0.005359 1.287051
v 0.693084 -0.023837 0.010938
v 0.693084 -0.023837 0.026810
v 0.693084 -0.023837 -0.004934
v 0.683506 -0.023837 -1.265174
v 0.683506 -0.002446 1.287051
v 0.683506 -0.023837 0.010938
v 0.683506 -0.023837 0.026810
v 0.683506 -0.023837 -0.004934
v 0.683506 -0.002446 -1.265174
v 0.683506 -0.023837 1.287051
v 0.683506 0.105133 0.010938
v 0.683506 0.105133 0.026810
v 0.683506 0.105133 -0.004934
v 0.670796 -0.023837 -1.265174
v 0.670796 0.005359 1.287051
v 0.670796 -0.023837 0.010938
v 0.670796 -0.023837 0.026810
v 0.670796 -0.023837 -0.004934
v 0.670796 0.005359 -1.265174
v 0.670796 -0.023837 1.287051
v 0.670796 0.105133 0.010938
v 0.670796 0.112938 0.026810
v 0.670796 0.112938 -0.004934
v -1.395882 -0.023837 -1.265174
v -1.395882 0.005359 1.287051
v -1.395882 -0.023837 0.010938
v -1.395882 -0.023837 0.026810
v -1.395882 -0.023837 -0.004934
v -1.395882 0.005359 -1.265174
v -1.395882 -0.023837 1.287051
v -1.395882 0.105133 0.010938
v -1.395882 0.112938 0.026810
v -1.395882 0.112938 -0.004934
v 1.332040 0.005359 -1.265174
v 1.332040 -0.023837 1.287051
v 1.332040 0.105133 0.010938
v 1.332040 0.112938 0.026810
v 1.332040 0.112938 -0.004934
v 1.332040 -0.023837 -1.265174
v 1.332040 0.005359 1.287051
v 1.332040 -0.023837 0.010938
v 1.332040 -0.023837 0.026810
v 1.332040 -0.023837 -0.004934
v -2.021010 -0.023837 1.217389
v 1.958343 0.005359 1.217389
v -2.021010 0.005359 1.217389
v 1.958343 -0.023837 1.217389
v 0.003517 0.023837 1.217389
v 0.003518 -0.023837 1.217389
v -0.713635 -0.023837 1.217389
v -0.713635 0.016032 1.217389
v -0.704199 0.023837 1.217389
v -0.704199 -0.023837 1.217389
v -0.726328 -0.023837 1.217389
v -0.726328 0.023837 1.217389
v 0.693084 0.023837 1.217389
v 0.693084 -0.023837 1.217389
v 0.683506 -0.023837 1.217389
v 0.683506 0.016032 1.217389
v 0.670796 -0.023837 1.217389
v 0.670796 0.023837 1.217389
v -1.395882 -0.023837 1.217389
v -1.395882 0.023837 1.217389
v 1.332040 0.023837 1.217389
v 1.332040 -0.023837 1.217389
v -1.950843 -0.023837 -1.265174
v -1.950843 0.005359 1.287051
v -1.950843 -0.023837 0.010938
v -1.950843 -0.023837 0.026810
v -1.950843 -0.023837 -0.004934
v -1.950843 0.005359 -1.265174
v -1.950843 -0.023837 1.287051
v -1.950843 0.016032 0.010938
v -1.950843 0.023837 0.026810
v -1.950843 0.023837 -0.004934
v -1.950843 -0.023837 1.217389
v -1.950843 0.023837 1.217389
v -2.021010 0.005359 -1.212297
v 1.958343 -0.023837 -1.212297
v -2.021010 -0.023837 -1.212297
v 1.958343 0.005359 -1.212297
v 0.003518 0.023837 -1.212297
v 0.003517 -0.023837 -1.212297
v -0.713635 -0.023837 -1.212297
v -0.713635 0.016032 -1.212297
v -0.704199 0.023837 -1.212297
v -0.704199 -0.023837 -1.212297
v -0.726328 -0.023837 -1.212297
v -0.726328 0.023837 -1.212297
v 0.693084 0.023837 -1.212297
v 0.693084 -0.023837 -1.212297
v 0.683506 -0.023837 -1.212297
v 0.683506 0.016032 -1.212297
v 0.670796 -0.023837 -1.212297
v 0.670796 0.023837 -1.212297
v -1.395882 -0.023837 -1.212297
v -1.395882 0.023837 -1.212297
v 1.332040 0.023837 -1.212297
v 1.332040 -0.023837 -1.212297
v -1.950843 -0.023837 -1.212297
v -1.950843 0.023837 -1.212297
v 1.876176 0.005359 -1.265174
v 1.876176 -0.023837 1.287051
v 1.876176 0.016032 0.010938
v 1.876176 0.023837 0.026810
v 1.876176 0.023837 -0.004934
v 1.876176 -0.023837 -1.265174
v 1.876176 0.005359 1.287051
v 1.876176 -0.023837 0.010938
v 1.876176 -0.023837 0.026810
v 1.876176 -0.023837 -0.004934
v 1.876176 0.023837 1.217389
v 1.876176 -0.023837 1.217389
v 1.876176 0.023837 -1.212297
v 1.876176 -0.023837 -1.212297
v -2.021010 0.005359 0.807518
v 1.958343 -0.023837 0.807518
v -2.021010 -0.023837 0.807518
v 1.958343 0.005359 0.807518
v 0.003517 0.112938 0.807518
v 0.003517 -0.023837 0.807518
v -0.713635 -0.023837 0.807518
v -0.713635 0.105133 0.807518
v -0.704199 0.112938 0.807518
v -0.704199 -0.023837 0.807518
v -0.726328 -0.023837 0.807518
v -0.726328 0.112938 0.807518
v 0.693084 0.112938 0.807518
v 0.693084 -0.023837 0.807518
v 0.683506 -0.023837 0.807518
v 0.683506 0.105133 0.807518
v 0.670796 -0.023837 0.807518
v 0.670796 0.112938 0.807518
v -1.395882 -0.023837 0.807518
v -1.395882 0.112938 0.807518
v 1.332040 0.112938 0.807518
v 1.332040 -0.023837 0.807518
v -1.950843 0.023837 0.807518
v -1.950843 -0.023837 0.807518
v 1.876176 -0.023837 0.807518
v 1.876176 0.023837 0.807518
v -2.021010 -0.023837 -0.809843
v 1.958343 0.005359 -0.809843
v 0.003518 0.112938 -0.809843
v 0.003517 -0.023837 -0.809843
v -0.713635 -0.023837 -0.809843
v -0.713635 0.105133 -0.809843
v -0.704199 0.112938 -0.809843
v -0.704199 -0.023837 -0.809843
v -0.726328 -0.023837 -0.809843
v -0.726328 0.112938 -0.809843
v 0.693084 0.112938 -0.809843
v 0.693084 -0.023837 -0.809843
v 0.683506 -0.023837 -0.809843
v 0.683506 0.105133 -0.809843
v 0.670796 -0.023837 -0.809843
v 0.670796 0.112938 -0.809843
v -1.395882 -0.023837 -0.809843
v -1.395882 0.112938 -0.809843
v 1.332040 0.112938 -0.809843
v 1.332040 -0.023837 -0.809843
v -1.950843 -0.023837 -0.809843
v -1.950843 0.023837 -0.809843
v -2.021010 0.005359 -0.809843
v 1.958343 -0.023837 -0.809843
v 1.876176 0.023837 -0.809843
v 1.876176 -0.023837 -0.809843
vt 0.246943 0.593655
vt 0.252212 0.593655
vt 0.252212 0.593764
vt 0.246943 0.593764
vt 0.246943 0.598924
vt 0.252212 0.598924
vt 0.252212 0.599033
vt 0.246943 0.599033
vt 0.246943 0.604158
vt 0.252212 0.604158
vt 0.252212 0.604302
vt 0.246943 0.604302
vt 0.246943 0.609478
vt 0.252212 0.609478
vt 0.252212 0.609571
vt 0.246943 0.609571
vt 0.246834 0.604158
vt 0.246834 0.604302
vt 0.877144 0.809128
vt 0.886320 0.823583
vt 0.877144 0.829773
vt 0.877144 0.493659
vt 0.890967 0.493659
vt 0.890967 0.498362
vt 0.877144 0.498362
vt 0.246834 0.601635
vt 0.246943 0.601635
vt 0.246943 0.601668
vt 0.246834 0.601668
vt 0.252212 0.601635
vt 0.252212 0.601668
vt 0.246943 0.591097
vt 0.252212 0.591097
vt 0.252212 0.591130
vt 0.246943 0.591130
vt 0.246943 0.589485
vt 0.252212 0.589485
vt 0.890967 0.503066
vt 0.877144 0.503066
vt 0.246943 0.601700
vt 0.246834 0.601700
vt 0.252212 0.601700
vt 0.246943 0.599973
vt 0.252212 0.599973
vt 0.246834 0.599973
vt 0.877144 0.299139
vt 0.890967 0.299139
vt 0.252212 0.591162
vt 0.246943 0.591162
vt 0.350353 0.299139
vt 0.489036 0.299139
vt 0.489036 0.493659
vt 0.350353 0.493659
vt 0.243417 0.599973
vt 0.244354 0.599973
vt 0.244354 0.601635
vt 0.243417 0.601635
vt 0.243417 0.601668
vt 0.244354 0.601668
vt 0.244354 0.601700
vt 0.243417 0.601700
vt 0.350353 0.498362
vt 0.489036 0.498362
vt 0.489036 0.503066
vt 0.350353 0.503066
vt 0.350353 0.809128
vt 0.489036 0.809128
vt 0.489036 0.829773
vt 0.350353 0.829773
vt 0.243417 0.604158
vt 0.244354 0.604158
vt 0.244354 0.604302
vt 0.243417 0.604302
vt 0.246943 0.606007
vt 0.252212 0.606007
vt 0.252212 0.606890
vt 0.246943 0.606890
vt 0.246943 0.595508
vt 0.252212 0.595508
vt 0.252212 0.596445
vt 0.246943 0.596445
vt 0.246943 0.595478
vt 0.252212 0.595478
vt 0.252212 0.595495
vt 0.246943 0.595495
vt 0.243388 0.604158
vt 0.243405 0.604158
vt 0.243405 0.604302
vt 0.243388 0.604302
vt 0.243388 0.601635
vt 0.243405 0.601635
vt 0.243405 0.601668
vt 0.243388 0.601668
vt 0.243405 0.601700
vt 0.243388 0.601700
vt 0.243388 0.599973
vt 0.243405 0.599973
vt 0.631555 0.299139
vt 0.633414 0.299139
vt 0.633414 0.493659
vt 0.631555 0.493659
vt 0.631555 0.498362
vt 0.633414 0.498362
vt 0.633414 0.503066
vt 0.631555 0.503066
vt 0.631555 0.809128
vt 0.633414 0.809128
vt 0.633414 0.829773
vt 0.631555 0.829773
vt 0.246943 0.607828
vt 0.252212 0.607828
vt 0.252212 0.607840
vt 0.246943 0.607840
vt 0.242501 0.599973
vt 0.242501 0.601635
vt 0.242501 0.601668
vt 0.242501 0.601700
vt 0.242501 0.604158
vt 0.242501 0.604302
vt 0.246943 0.594592
vt 0.252212 0.594592
vt 0.635914 0.299139
vt 0.635915 0.493659
vt 0.635915 0.498362
vt 0.635915 0.503066
vt 0.635914 0.809128
vt 0.635914 0.829773
vt 0.252212 0.607857
vt 0.246943 0.607857
vt 0.246943 0.605131
vt 0.252212 0.605131
vt 0.252212 0.605977
vt 0.246943 0.605977
vt 0.220088 0.809128
vt 0.345962 0.809128
vt 0.345962 0.829773
vt 0.220088 0.829773
vt 0.220088 0.493659
vt 0.345962 0.493659
vt 0.345962 0.498362
vt 0.220088 0.498362
vt 0.345962 0.503066
vt 0.220088 0.503066
vt 0.220088 0.299139
vt 0.345962 0.299139
vt 0.245255 0.599973
vt 0.245267 0.599973
vt 0.245267 0.601635
vt 0.245255 0.601635
vt 0.245255 0.601668
vt 0.245267 0.601668
vt 0.245267 0.601700
vt 0.245255 0.601700
vt 0.245255 0.604158
vt 0.245267 0.604158
vt 0.245267 0.604302
vt 0.245255 0.604302
vt 0.246943 0.597345
vt 0.252212 0.597345
vt 0.252212 0.597358
vt 0.246943 0.597358
vt 0.246943 0.597328
vt 0.252212 0.597328
vt 0.245238 0.604158
vt 0.245238 0.604302
vt 0.245238 0.601635
vt 0.245238 0.601668
vt 0.245238 0.601700
vt 0.245238 0.599973
vt 0.252212 0.605990
vt 0.246943 0.605990
vt 0.347849 0.809128
vt 0.347849 0.829773
vt 0.347849 0.493659
vt 0.347849 0.498362
vt 0.347849 0.503066
vt 0.347849 0.299139
vt 0.246943 0.593857
vt 0.252212 0.593857
vt 0.241766 0.604158
vt 0.241766 0.604302
vt 0.241766 0.601635
vt 0.241766 0.601668
vt 0.241766 0.601700
vt 0.241766 0.599973
vt 0.767817 0.299139
vt 0.767817 0.493659
vt 0.767817 0.498362
vt 0.767817 0.503066
vt 0.767817 0.809128
vt 0.767817 0.829773
vt 0.252212 0.608743
vt 0.246943 0.608743
vt 0.112892 0.299139
vt 0.112892 0.493659
vt 0.112892 0.498362
vt 0.112892 0.503066
vt 0.112892 0.809129
vt 0.112892 0.829773
vt 0.246943 0.604411
vt 0.252212 0.604411
vt 0.246113 0.599973
vt 0.246113 0.601635
vt 0.246113 0.601668
vt 0.246113 0.601700
vt 0.246113 0.604158
vt 0.246113 0.604302
vt 0.252212 0.598204
vt 0.246943 0.598204
vt 0.245267 0.603312
vt 0.246113 0.603312
vt 0.112892 0.687663
vt 0.220088 0.687663
vt 0.635915 0.687663
vt 0.767817 0.687663
vt 0.241766 0.603312
vt 0.242501 0.603312
vt 0.347849 0.687663
vt 0.350353 0.687663
vt 0.244354 0.603312
vt 0.245238 0.603312
vt 0.345962 0.687663
vt 0.245255 0.603312
vt 0.633414 0.687663
vt 0.243388 0.603312
vt 0.243405 0.603312
vt 0.243417 0.603312
vt 0.489036 0.687663
vt 0.631555 0.687663
vt 0.246943 0.588495
vt 0.252212 0.588495
vt 0.252212 0.588639
vt 0.246943 0.588639
vt 0.877144 0.687663
vt 0.890967 0.687663
vt 0.890967 0.809129
vt 0.246834 0.603312
vt 0.246943 0.603312
vt 0.252212 0.603312
vt 0.241673 0.603312
vt 0.241673 0.604158
vt 0.241673 0.599973
vt 0.241673 0.601635
vt 0.241673 0.601668
vt 0.241673 0.601700
vt 0.241673 0.604302
vt 0.767817 0.164201
vt 0.877144 0.164201
vt 0.877144 0.179871
vt 0.767817 0.179871
vt 0.241673 0.599033
vt 0.241766 0.599033
vt 0.241766 0.599142
vt 0.241673 0.599142
vt 0.245267 0.599033
vt 0.246113 0.599033
vt 0.246113 0.599142
vt 0.245267 0.599142
vt 0.112892 0.164201
vt 0.220088 0.164201
vt 0.220088 0.179871
vt 0.112892 0.179871
vt 0.635915 0.164201
vt 0.635915 0.179871
vt 0.242501 0.599033
vt 0.242501 0.599142
vt 0.347849 0.164201
vt 0.350353 0.164201
vt 0.350353 0.179871
vt 0.347849 0.179871
vt 0.244354 0.599033
vt 0.245238 0.599033
vt 0.245238 0.599142
vt 0.244354 0.599142
vt 0.345962 0.164201
vt 0.345962 0.179871
vt 0.245255 0.599033
vt 0.245255 0.599142
vt 0.633414 0.164201
vt 0.633414 0.179871
vt 0.243388 0.599033
vt 0.243388 0.599142
vt 0.243405 0.599033
vt 0.243417 0.599033
vt 0.243417 0.599142
vt 0.243405 0.599142
vt 0.489036 0.164201
vt 0.631555 0.164201
vt 0.631555 0.179871
vt 0.489036 0.179871
vt 0.886320 0.167640
vt 0.246834 0.599033
vt 0.246943 0.599142
vt 0.246834 0.599142
vt 0.252212 0.599142
vt 0.246943 0.592824
vt 0.252212 0.592824
vt 0.103673 0.171843
vt 0.096705 0.179871
vt 0.096705 0.687663
vt 0.096705 0.809129
vt 0.102033 0.823768
vt 0.096705 0.493659
vt 0.096705 0.498362
vt 0.096705 0.503066
vt 0.096705 0.299139
vt 0.890967 0.179871
vn -0.7834 0.0000 -0.6215
vn 0.3189 0.0000 -0.9478
vn 0.8471 0.0000 0.5314
vn -0.4435 0.0000 0.8963
vn 0.0000 -1.0000 0.0000
vn -0.1259 0.9589 0.2543
vn -0.2300 0.8733 0.4294
vn 1.0000 0.0000 0.0000
vn -1.0000 0.0000 0.0000
vn -0.2300 0.8733 -0.4294
vn -0.2547 0.9670 0.0000
vn 0.0000 1.0000 0.0000
vn 0.0000 0.8974 -0.4413
vn 0.0000 0.8974 0.4413
vn 0.0000 0.9666 0.2564
vn 0.0000 0.0000 1.0000
vn 0.0000 0.0000 -1.0000
vn -0.6373 0.7706 0.0000
vn -0.3727 0.9011 -0.2216
vn -0.3727 0.9011 0.2216
vn -0.6244 0.7550 0.2003
vn 0.5238 0.8518 0.0000
vn 0.2861 0.9305 -0.2288
vn 0.2861 0.9305 0.2288
vn 0.5109 0.8309 0.2204
vn -0.6188 0.7593 0.2014
vn -0.3679 0.9030 0.2220
vn -0.3679 0.9030 -0.2220
vn -0.6317 0.7752 0.0000
vn 0.5104 0.8312 0.2205
vn 0.2857 0.9306 0.2288
vn 0.2857 0.9306 -0.2288
vn 0.5233 0.8522 0.0000
vn 0.1616 0.9869 0.0000
vn 0.1454 0.8878 -0.4366
vn 0.1454 0.8878 0.4366
vn 0.0000 0.9772 0.2124
vn 0.5145 0.8379 0.1822
vn -0.6229 0.7644 0.1662
vn 0.5150 0.8376 0.1821
vn -0.6286 0.7600 0.1652
vn -0.8471 0.0000 0.5314
vn -0.1585 0.9874 0.0000
vn -0.3956 0.0000 -0.9184
vn -0.1426 0.8882 -0.4368
vn -0.1426 0.8882 0.4368
vn 0.0000 0.9440 -0.3299
vn 0.5015 0.8167 -0.2854
vn -0.6097 0.7482 -0.2615
vn 0.5020 0.8164 -0.2853
vn -0.6154 0.7441 -0.2600
vn -0.1407 0.9346 -0.3266
vn 0.7834 0.0000 -0.6215
vn 0.2162 0.9612 -0.1715
vn 0.2194 0.9756 0.0000
vn 0.3527 0.0000 0.9357
vn 0.2173 0.9665 0.1364
vn 0.1978 0.8796 0.4325
vn 0.1978 0.8796 -0.4325
vn -0.6374 0.7706 -0.0000
vn 0.0000 0.9764 -0.2162
vn 0.5142 0.8374 -0.1854
vn -0.6226 0.7640 -0.1692
vn 0.5147 0.8371 -0.1853
vn -0.6283 0.7596 -0.1682
vn 0.1103 0.9383 -0.3279
vn 0.0962 0.9621 0.2552
vn -0.2515 0.9549 0.1578
vn -0.2496 0.9479 -0.1980
usemtl Material.001
s off
f 147/1/1 145/2/1 4/3/1 3/4/1
f 174/5/2 169/6/2 8/7/2 7/8/2
f 114/9/3 112/10/3 6/11/3 5/12/3
f 139/13/4 134/14/4 2/15/4 1/16/4
f 180/17/5 114/9/5 5/12/5 170/18/5
f 144/19/6 2/20/6 134/21/6
f 142/22/7 17/23/7 10/24/7 140/25/7
f 178/26/5 18/27/5 11/28/5 176/29/5
f 18/27/8 20/30/8 12/31/8 11/28/8
f 13/32/9 15/33/9 10/34/9 9/35/9
f 185/36/9 183/37/9 15/33/9 13/32/9
f 140/25/10 10/24/10 15/38/10 141/39/10
f 176/29/5 11/28/5 16/40/5 177/41/5
f 11/28/8 12/31/8 14/42/8 16/40/8
f 232/43/8 210/44/8 20/30/8 18/27/8
f 234/45/5 232/43/5 18/27/5 178/26/5
f 230/46/11 231/47/11 17/23/11 142/22/11
f 9/35/9 10/34/9 17/48/9 19/49/9
f 224/50/12 211/51/12 30/52/12 90/53/12
f 216/54/5 212/55/5 29/56/5 50/57/5
f 48/58/5 26/59/5 28/60/5 49/61/5
f 88/62/13 25/63/13 27/64/13 89/65/13
f 50/57/5 29/56/5 26/59/5 48/58/5
f 90/53/14 30/52/14 25/63/14 88/62/14
f 128/66/15 115/67/15 24/68/15 82/69/15
f 120/70/5 116/71/5 23/72/5 42/73/5
f 87/74/16 82/75/16 24/76/16 23/77/16
f 46/78/17 41/79/17 22/80/17 21/81/17
f 51/82/17 56/83/17 36/84/17 31/85/17
f 121/86/5 117/87/5 37/88/5 57/89/5
f 55/90/5 35/91/5 33/92/5 53/93/5
f 53/93/5 33/92/5 34/94/5 54/95/5
f 217/96/5 213/97/5 35/91/5 55/90/5
f 215/98/18 214/99/18 40/100/18 45/101/18
f 43/102/19 38/103/19 39/104/19 44/105/19
f 45/101/20 40/100/20 38/103/20 43/102/20
f 119/106/21 118/107/21 32/108/21 47/109/21
f 42/110/16 47/111/16 32/112/16 37/113/16
f 23/77/16 24/76/16 47/111/16 42/110/16
f 115/67/15 119/106/15 47/109/15 24/68/15
f 30/52/14 45/101/14 43/102/14 25/63/14
f 25/63/13 43/102/13 44/105/13 27/64/13
f 211/51/12 215/98/12 45/101/12 30/52/12
f 31/85/17 36/84/17 41/79/17 46/78/17
f 117/87/5 120/70/5 42/73/5 37/88/5
f 35/91/5 50/57/5 48/58/5 33/92/5
f 33/92/5 48/58/5 49/61/5 34/94/5
f 213/97/5 216/54/5 50/57/5 35/91/5
f 225/114/5 217/96/5 55/90/5 95/115/5
f 93/116/5 53/93/5 54/95/5 94/117/5
f 95/115/5 55/90/5 53/93/5 93/116/5
f 129/118/5 121/86/5 57/89/5 97/119/5
f 91/120/17 96/121/17 56/83/17 51/82/17
f 214/99/22 218/122/22 60/123/22 40/100/22
f 38/103/23 58/124/23 59/125/23 39/104/23
f 40/100/24 60/123/24 58/124/24 38/103/24
f 118/107/25 122/126/25 52/127/25 32/108/25
f 37/113/16 32/112/16 52/128/16 57/129/16
f 102/130/16 107/131/16 67/132/16 62/133/16
f 131/134/15 123/135/15 67/136/15 107/137/15
f 105/138/14 65/139/14 63/140/14 103/141/14
f 103/141/13 63/140/13 64/142/13 104/143/13
f 227/144/12 219/145/12 65/139/12 105/138/12
f 221/146/5 220/147/5 70/148/5 75/149/5
f 73/150/5 68/151/5 69/152/5 74/153/5
f 75/149/5 70/148/5 68/151/5 73/150/5
f 125/154/5 124/155/5 62/156/5 77/157/5
f 71/158/17 76/159/17 61/160/17 66/161/17
f 81/162/17 86/163/17 76/159/17 71/158/17
f 127/164/5 125/154/5 77/157/5 87/165/5
f 85/166/5 75/149/5 73/150/5 83/167/5
f 83/167/5 73/150/5 74/153/5 84/168/5
f 223/169/5 221/146/5 75/149/5 85/166/5
f 62/133/16 67/132/16 72/170/16 77/171/16
f 123/135/26 126/172/26 72/173/26 67/136/26
f 65/139/27 80/174/27 78/175/27 63/140/27
f 63/140/28 78/175/28 79/176/28 64/142/28
f 219/145/29 222/177/29 80/174/29 65/139/29
f 212/55/5 223/169/5 85/166/5 29/56/5
f 26/59/5 83/167/5 84/168/5 28/60/5
f 29/56/5 85/166/5 83/167/5 26/59/5
f 116/71/5 127/164/5 87/165/5 23/72/5
f 21/81/17 22/80/17 86/163/17 81/162/17
f 77/171/16 72/170/16 82/75/16 87/74/16
f 126/172/30 128/66/30 82/69/30 72/173/30
f 80/174/31 90/53/31 88/62/31 78/175/31
f 78/175/32 88/62/32 89/65/32 79/176/32
f 222/177/33 224/50/33 90/53/33 80/174/33
f 133/178/17 138/179/17 96/121/17 91/120/17
f 143/180/5 129/118/5 97/119/5 139/181/5
f 137/182/5 95/115/5 93/116/5 135/183/5
f 135/183/5 93/116/5 94/117/5 136/184/5
f 229/185/5 225/114/5 95/115/5 137/182/5
f 218/122/12 226/186/12 100/187/12 60/123/12
f 58/124/13 98/188/13 99/189/13 59/125/13
f 60/123/14 100/187/14 98/188/14 58/124/14
f 122/126/15 130/190/15 92/191/15 52/127/15
f 57/129/16 52/128/16 92/192/16 97/193/16
f 233/194/34 227/144/34 105/138/34 173/195/34
f 171/196/35 103/141/35 104/143/35 172/197/35
f 173/195/36 105/138/36 103/141/36 171/196/36
f 179/198/15 131/134/15 107/137/15 175/199/15
f 170/200/16 175/201/16 107/131/16 102/130/16
f 220/147/5 228/202/5 110/203/5 70/148/5
f 68/151/5 108/204/5 109/205/5 69/152/5
f 70/148/5 110/203/5 108/204/5 68/151/5
f 124/155/5 132/206/5 102/207/5 62/156/5
f 66/161/17 61/160/17 101/208/17 106/209/17
f 196/210/5 204/211/5 132/206/5 124/155/5
f 208/212/34 203/213/34 179/198/34
f 194/214/37 202/215/37 130/190/37 122/126/37
f 206/216/5 201/217/5 129/118/5 143/180/5
f 198/218/38 200/219/38 128/66/38 126/172/38
f 188/220/5 199/221/5 127/164/5 116/71/5
f 195/222/39 198/218/39 126/172/39 123/135/39
f 199/221/5 197/223/5 125/154/5 127/164/5
f 197/223/5 196/210/5 124/155/5 125/154/5
f 203/213/37 195/222/37 123/135/37 131/134/37
f 190/224/40 194/214/40 122/126/40 118/107/40
f 201/217/5 193/225/5 121/86/5 129/118/5
f 189/226/5 192/227/5 120/70/5 117/87/5
f 187/228/37 191/229/37 119/106/37 115/67/37
f 191/229/41 190/224/41 118/107/41 119/106/41
f 193/225/5 189/226/5 117/87/5 121/86/5
f 192/227/5 188/220/5 116/71/5 120/70/5
f 200/219/37 187/228/37 115/67/37 128/66/37
f 1/230/42 2/231/42 113/232/42 111/233/42
f 205/234/11 183/235/11 113/236/11 144/19/11
f 207/237/5 184/238/5 114/9/5 180/17/5
f 184/238/8 186/239/8 112/10/8 114/9/8
f 202/215/43 205/234/43 144/19/43
f 185/240/5 206/216/5 143/180/5 111/241/5
f 209/242/5 229/185/5 137/182/5 19/243/5
f 9/244/5 135/183/5 136/184/5 13/245/5
f 19/243/5 137/182/5 135/183/5 9/244/5
f 111/241/5 143/180/5 139/181/5 1/246/5
f 3/4/44 4/3/44 138/179/44 133/178/44
f 226/186/43 230/46/43 142/22/43 100/187/43
f 98/188/45 140/25/45 141/39/45 99/189/45
f 100/187/46 142/22/46 140/25/46 98/188/46
f 130/190/15 144/19/15 134/21/15 92/191/15
f 97/193/16 92/192/16 134/14/16 139/13/16
f 96/247/47 138/248/47 168/249/47 164/250/47
f 3/251/5 133/252/5 167/253/5 147/254/5
f 66/255/5 106/256/5 166/257/5 158/258/5
f 169/259/47 101/260/47 165/261/47 181/262/47
f 56/263/47 96/247/47 164/250/47 156/264/47
f 133/252/5 91/265/5 163/266/5 167/253/5
f 76/267/48 86/268/48 162/269/48 160/270/48
f 21/271/5 81/272/5 161/273/5 150/274/5
f 61/275/49 76/267/49 160/270/49 157/276/49
f 81/272/5 71/277/5 159/278/5 161/273/5
f 71/277/5 66/255/5 158/258/5 159/278/5
f 101/260/47 61/275/47 157/276/47 165/261/47
f 36/279/50 56/263/50 156/264/50 152/280/50
f 91/265/5 51/281/5 155/282/5 163/266/5
f 31/283/5 46/284/5 154/285/5 151/286/5
f 22/287/47 41/288/47 153/289/47 149/290/47
f 41/288/51 36/279/51 152/280/51 153/289/51
f 51/281/5 31/283/5 151/286/5 155/282/5
f 46/284/5 21/271/5 150/274/5 154/285/5
f 86/268/47 22/287/47 149/290/47 162/269/47
f 138/248/52 4/291/52 168/249/52
f 174/292/5 7/8/5 146/293/5 182/294/5
f 7/8/53 8/7/53 148/295/53 146/293/53
f 209/296/9 231/297/9 145/2/9 147/1/9
f 106/256/5 174/292/5 182/294/5 166/257/5
f 8/298/54 181/262/54 148/299/54
f 204/211/5 207/237/5 180/17/5 132/206/5
f 186/300/55 208/212/55 179/198/55 112/301/55
f 5/12/56 6/11/56 175/201/56 170/200/56
f 112/301/57 179/198/57 6/302/57
f 20/303/58 173/195/58 171/196/58 12/304/58
f 12/304/59 171/196/59 172/197/59 14/305/59
f 210/306/55 233/194/55 173/195/55 20/303/55
f 228/202/5 234/45/5 178/26/5 110/203/5
f 108/204/5 176/29/5 177/41/5 109/205/5
f 110/203/5 178/26/5 176/29/5 108/204/5
f 132/206/5 180/17/5 170/18/5 102/207/5
f 106/209/17 101/208/17 169/6/17 174/5/17
f 14/305/55 172/197/55 208/212/55 186/300/55
f 109/205/5 177/41/5 207/237/5 204/211/5
f 13/245/5 136/184/5 206/216/5 185/240/5
f 99/189/43 141/39/43 205/234/43 202/215/43
f 16/40/8 14/42/8 186/239/8 184/238/8
f 177/41/5 16/40/5 184/238/5 207/237/5
f 141/39/11 15/38/11 183/235/11 205/234/11
f 89/65/12 27/64/12 187/228/12 200/219/12
f 49/61/5 28/60/5 188/220/5 192/227/5
f 54/95/5 34/94/5 189/226/5 193/225/5
f 44/105/60 39/104/60 190/224/60 191/229/60
f 27/64/12 44/105/12 191/229/12 187/228/12
f 34/94/5 49/61/5 192/227/5 189/226/5
f 94/117/5 54/95/5 193/225/5 201/217/5
f 39/104/22 59/125/22 194/214/22 190/224/22
f 104/143/12 64/142/12 195/222/12 203/213/12
f 74/153/5 69/152/5 196/210/5 197/223/5
f 84/168/5 74/153/5 197/223/5 199/221/5
f 64/142/29 79/176/29 198/218/29 195/222/29
f 28/60/5 84/168/5 199/221/5 188/220/5
f 79/176/33 89/65/33 200/219/33 198/218/33
f 136/184/5 94/117/5 201/217/5 206/216/5
f 59/125/12 99/189/12 202/215/12 194/214/12
f 172/197/34 104/143/34 203/213/34 208/212/34
f 69/152/5 109/205/5 204/211/5 196/210/5
f 111/233/9 113/232/9 183/37/9 185/36/9
f 166/257/5 182/294/5 234/45/5 228/202/5
f 148/299/55 181/262/55 233/194/55 210/306/55
f 19/49/9 17/48/9 231/297/9 209/296/9
f 164/250/61 168/249/61 226/186/61
f 147/254/5 167/253/5 229/185/5 209/242/5
f 158/258/5 166/257/5 228/202/5 220/147/5
f 181/262/34 227/144/34 233/194/34
f 156/264/61 164/250/61 226/186/61 218/122/61
f 167/253/5 163/266/5 225/114/5 229/185/5
f 160/270/62 162/269/62 224/50/62 222/177/62
f 150/274/5 161/273/5 223/169/5 212/55/5
f 157/276/63 160/270/63 222/177/63 219/145/63
f 161/273/5 159/278/5 221/146/5 223/169/5
f 159/278/5 158/258/5 220/147/5 221/146/5
f 165/261/61 157/276/61 219/145/61 227/144/61
f 152/280/64 156/264/64 218/122/64 214/99/64
f 163/266/5 155/282/5 217/96/5 225/114/5
f 151/286/5 154/285/5 216/54/5 213/97/5
f 149/290/61 153/289/61 215/98/61 211/51/61
f 153/289/65 152/280/65 214/99/65 215/98/65
f 155/282/5 151/286/5 213/97/5 217/96/5
f 154/285/5 150/274/5 212/55/5 216/54/5
f 162/269/61 149/290/61 211/51/61 224/50/61
f 168/249/11 145/307/11 231/47/11 230/46/11
f 182/294/5 146/293/5 232/43/5 234/45/5
f 146/293/8 148/295/8 210/44/8 232/43/8
f 227/144/61 181/262/61 165/261/61
f 179/198/37 203/213/37 131/134/37
f 144/19/37 130/190/37 202/215/37
f 226/186/43 168/249/43 230/46/43
f 181/262/66 8/298/66 169/259/66
f 6/302/67 179/198/67 175/199/67
f 2/20/68 144/19/68 113/236/68
f 168/249/69 4/291/69 145/307/69
