# Blender v2.93.0 OBJ File: ''
# www.blender.org
mtllib cone.mtl
o Cube_Cube.001
v -0.172554 -1.505189 -0.149871
v -0.172554 -1.485717 -0.149871
v -0.164296 -1.485717 -0.166000
v -0.164296 -1.505189 -0.166000
v 0.150807 -1.505189 -0.172697
v 0.150807 -1.485717 -0.172697
v 0.164107 -1.485717 -0.166000
v 0.164107 -1.505189 -0.166000
v 0.172365 -1.505189 0.150343
v 0.172365 -1.485717 0.150343
v 0.166972 -1.485717 0.163883
v 0.166972 -1.505189 0.163883
v -0.150675 -1.505189 0.172222
v -0.150675 -1.485717 0.172222
v -0.167161 -1.485717 0.163883
v -0.167161 -1.505189 0.163883
v 0.150807 -1.505189 0.150343
v 0.150807 -1.505189 0.172222
v -0.150675 -1.468475 0.150343
v -0.172554 -1.485717 0.150343
v 0.150807 -1.468475 0.150343
v -0.000095 -1.468475 0.150343
v -0.000095 -1.485717 0.172222
v 0.150807 -1.485717 0.172222
v -0.150675 -1.505189 0.150343
v -0.000095 -1.505189 0.150343
v -0.000095 -1.505189 0.172222
v -0.150675 -1.505189 -0.172697
v -0.150675 -1.485717 -0.172697
v -0.000095 -1.485717 -0.172697
v -0.000095 -1.505189 -0.172697
v -0.172554 -1.505189 0.150343
v -0.000095 -1.505189 -0.149871
v 0.150807 -1.505189 -0.149871
v 0.150807 -1.505189 -0.000237
v -0.000095 -1.505189 -0.000237
v 0.172365 -1.485717 -0.149871
v 0.150807 -1.468475 -0.149871
v 0.150807 -1.468475 -0.000237
v 0.172365 -1.485717 -0.000237
v -0.000010 -1.008806 0.032421
v 0.032469 -1.008806 0.032421
v 0.015564 -0.943139 0.015575
v 0.000002 -0.943139 0.015575
v -0.150675 -1.505189 -0.149871
v -0.150675 -1.505189 -0.000237
v -0.172554 -1.505189 -0.000237
v -0.032421 -1.008806 0.032421
v -0.015528 -0.943139 0.015575
v -0.150675 -1.468475 -0.149871
v -0.172554 -1.485717 -0.000237
v -0.150675 -1.468475 -0.000237
v 0.172365 -1.505189 -0.149871
v 0.172365 -1.505189 -0.000237
v 0.032469 -1.008806 0.000010
v 0.015564 -0.943139 0.000046
v 0.010797 -0.937923 -0.010627
v 0.003427 -0.937923 -0.010627
v 0.003427 -0.937923 -0.003376
v 0.010797 -0.937923 -0.003376
v -0.000095 -1.468475 -0.149871
v -0.000010 -1.008806 -0.032197
v -0.032421 -1.008806 -0.032197
v -0.015528 -0.943139 -0.015386
v 0.000002 -0.943139 -0.015386
v -0.003422 -0.937923 0.003473
v -0.010762 -0.937923 0.003473
v -0.010762 -0.937923 0.010813
v -0.003422 -0.937923 0.010813
v 0.010797 -0.937923 0.003473
v 0.003427 -0.937923 0.003473
v 0.003427 -0.937923 0.010813
v 0.010797 -0.937923 0.010813
v -0.032421 -1.008806 0.000010
v -0.015528 -0.943139 0.000046
v -0.003422 -0.937923 -0.010627
v -0.010762 -0.937923 -0.010627
v -0.010762 -0.937923 -0.003376
v -0.003422 -0.937923 -0.003376
v 0.032469 -1.008806 -0.032197
v 0.015564 -0.943139 -0.015386
v -0.001139 -0.937923 -0.010627
v -0.000583 -0.938762 -0.012704
v -0.002334 -0.938613 -0.012505
v 0.001144 -0.937923 -0.010627
v 0.000588 -0.938762 -0.012704
v 0.002338 -0.938690 -0.012496
v 0.001090 -0.940547 -0.014269
v 0.000002 -0.939632 -0.013598
v -0.001086 -0.940591 -0.014230
v 0.001144 -0.937923 -0.003376
v 0.000811 -0.937923 -0.000760
v 0.003427 -0.937923 -0.001093
v -0.001139 -0.937923 -0.003376
v -0.000806 -0.937923 -0.000760
v -0.003422 -0.937923 -0.001093
v -0.003422 -0.937923 0.001190
v -0.000806 -0.937923 0.000857
v -0.001139 -0.937923 0.003473
v 0.001144 -0.937923 0.003473
v 0.000811 -0.937923 0.000857
v 0.003427 -0.937923 0.001190
v -0.014369 -0.940590 0.001135
v -0.013735 -0.939631 0.000047
v -0.014408 -0.940547 -0.001042
v -0.012641 -0.938613 0.002384
v -0.012840 -0.938762 0.000634
v -0.010762 -0.937923 0.001190
v -0.010762 -0.937923 -0.001093
v -0.012840 -0.938762 -0.000537
v -0.012632 -0.938690 -0.002289
v 0.010797 -0.937923 -0.001093
v 0.012875 -0.938762 -0.000537
v 0.012677 -0.938613 -0.002289
v 0.010797 -0.937923 0.001190
v 0.012876 -0.938762 0.000634
v 0.012668 -0.938690 0.002384
v 0.014444 -0.940547 0.001135
v 0.013772 -0.939631 0.000047
v 0.014405 -0.940590 -0.001042
v 0.001144 -0.937923 0.010813
v 0.000588 -0.938762 0.012890
v 0.002338 -0.938613 0.012692
v -0.001139 -0.937923 0.010813
v -0.000583 -0.938762 0.012890
v -0.002334 -0.938690 0.012683
v -0.001086 -0.940547 0.014457
v 0.000002 -0.939631 0.013785
v 0.001090 -0.940590 0.014418
v -0.014398 -0.940531 -0.014260
v -0.012654 -0.938622 -0.012518
v 0.012689 -0.938622 -0.012518
v 0.014434 -0.940531 -0.014260
v -0.014398 -0.940531 0.014447
v -0.012654 -0.938622 0.012704
v 0.012689 -0.938622 0.012704
v 0.014434 -0.940531 0.014447
v 0.116997 -1.337141 -0.116251
v -0.000070 -1.337141 -0.116251
v -0.000046 -1.205807 -0.082629
v 0.083186 -1.205807 -0.082629
v 0.116997 -1.337141 -0.000167
v 0.083186 -1.205807 -0.000096
v -0.116888 -1.337141 -0.000167
v -0.116888 -1.337141 0.116651
v -0.083101 -1.205807 0.082959
v -0.083101 -1.205807 -0.000096
v -0.116888 -1.337141 -0.116251
v -0.083102 -1.205807 -0.082629
v 0.116997 -1.337141 0.116651
v 0.083186 -1.205807 0.082959
v -0.000070 -1.337141 0.116651
v -0.000046 -1.205807 0.082959
v -0.000023 -1.074473 -0.049008
v 0.049375 -1.074473 -0.049008
v 0.049375 -1.074473 -0.000025
v -0.049314 -1.074473 0.049267
v -0.049314 -1.074473 -0.000025
v -0.049314 -1.074473 -0.049008
v 0.049375 -1.074473 0.049267
v -0.000023 -1.074473 0.049267
vt 0.730855 0.446026
vt 0.790817 0.446026
vt 0.790817 0.449997
vt 0.730855 0.449997
vt 0.730855 0.506190
vt 0.790817 0.506190
vt 0.790817 0.509960
vt 0.730855 0.509960
vt 0.730855 0.566102
vt 0.790817 0.566102
vt 0.790817 0.569922
vt 0.730855 0.569922
vt 0.730855 0.626064
vt 0.790817 0.626064
vt 0.790817 0.629884
vt 0.730855 0.629884
vt 0.727084 0.566102
vt 0.727084 0.569922
vt 0.846959 0.566102
vt 0.850779 0.566102
vt 0.850779 0.569922
vt 0.846959 0.569922
vt 0.794587 0.566102
vt 0.820823 0.566102
vt 0.820823 0.569922
vt 0.794587 0.569922
vt 0.674662 0.566102
vt 0.700848 0.566102
vt 0.700848 0.569922
vt 0.674662 0.569922
vt 0.730855 0.573692
vt 0.790817 0.573692
vt 0.790817 0.599928
vt 0.730855 0.599928
vt 0.730855 0.453768
vt 0.790817 0.453768
vt 0.790817 0.479954
vt 0.730855 0.479954
vt 0.670892 0.566102
vt 0.670892 0.569922
vt 0.700848 0.513930
vt 0.727084 0.513930
vt 0.727084 0.539916
vt 0.700848 0.539916
vt 0.790817 0.513930
vt 0.794587 0.513930
vt 0.794587 0.539916
vt 0.790817 0.539916
vt 0.820823 0.566102
vt 0.794587 0.566102
vt 0.794587 0.566102
vt 0.820823 0.566102
vt 0.670892 0.513930
vt 0.674662 0.513930
vt 0.674662 0.539916
vt 0.670892 0.539916
vt 0.846959 0.566102
vt 0.846959 0.566102
vt 0.846959 0.513930
vt 0.850779 0.513930
vt 0.850779 0.539916
vt 0.846959 0.539916
vt 0.730855 0.513930
vt 0.730855 0.539916
vt 0.730855 0.393804
vt 0.790817 0.393804
vt 0.790817 0.419991
vt 0.730855 0.419991
vt 0.730855 0.390036
vt 0.790817 0.390036
vt 0.794587 0.539916
vt 0.794587 0.539916
vt 0.800869 0.520214
vt 0.814490 0.520214
vt 0.814490 0.533634
vt 0.800869 0.533634
vt 0.727084 0.509960
vt 0.846959 0.509960
vt 0.850779 0.509960
vt 0.794587 0.509960
vt 0.820823 0.509960
vt 0.820823 0.513930
vt 0.674662 0.509960
vt 0.700848 0.509960
vt 0.670892 0.509960
vt 0.820823 0.513930
vt 0.846959 0.513930
vt 0.846959 0.513930
vt 0.820823 0.513930
vt 0.827106 0.546249
vt 0.840677 0.546249
vt 0.840677 0.559820
vt 0.827106 0.559820
vt 0.800869 0.546249
vt 0.814490 0.546249
vt 0.814490 0.559820
vt 0.800869 0.559820
vt 0.846959 0.539916
vt 0.846959 0.539916
vt 0.827106 0.520214
vt 0.840677 0.520214
vt 0.840677 0.533634
vt 0.827106 0.533634
vt 0.794587 0.513930
vt 0.794587 0.513930
vt 0.822884 0.520214
vt 0.821879 0.516394
vt 0.825095 0.516745
vt 0.818712 0.520214
vt 0.819717 0.516394
vt 0.816500 0.516796
vt 0.819265 0.513930
vt 0.820823 0.513930
vt 0.822582 0.513930
vt 0.818712 0.533634
vt 0.819315 0.538458
vt 0.814490 0.537805
vt 0.822884 0.533634
vt 0.822281 0.538458
vt 0.827106 0.537805
vt 0.827106 0.542026
vt 0.822281 0.541424
vt 0.822884 0.546249
vt 0.818712 0.546249
vt 0.819315 0.541424
vt 0.814490 0.542026
vt 0.846959 0.541725
vt 0.846959 0.539916
vt 0.846959 0.538407
vt 0.844144 0.544239
vt 0.844496 0.541021
vt 0.840677 0.542026
vt 0.840677 0.537805
vt 0.844496 0.538860
vt 0.844094 0.535644
vt 0.800869 0.537805
vt 0.797049 0.538860
vt 0.797401 0.535644
vt 0.800869 0.542026
vt 0.797049 0.541021
vt 0.797451 0.544239
vt 0.794587 0.541474
vt 0.794587 0.539916
vt 0.794587 0.538157
vt 0.818712 0.559820
vt 0.819717 0.563640
vt 0.816500 0.563237
vt 0.822884 0.559820
vt 0.821879 0.563640
vt 0.825095 0.563237
vt 0.822331 0.566102
vt 0.820823 0.566102
vt 0.819014 0.566102
vt 0.846708 0.514182
vt 0.844144 0.516745
vt 0.797401 0.516745
vt 0.794837 0.514182
vt 0.846708 0.565851
vt 0.844144 0.563288
vt 0.797401 0.563288
vt 0.794837 0.565851
vt 0.179810 0.437161
vt 0.258891 0.437161
vt 0.258891 0.437161
vt 0.179810 0.437161
vt 0.179810 0.515637
vt 0.179810 0.515637
vt 0.337828 0.515637
vt 0.337828 0.594574
vt 0.337828 0.594574
vt 0.337828 0.515637
vt 0.337828 0.437161
vt 0.337828 0.437161
vt 0.179810 0.594574
vt 0.179810 0.594574
vt 0.258891 0.594574
vt 0.258891 0.594574
vt 0.794587 0.566102
vt 0.820823 0.566102
vt 0.846959 0.566102
vt 0.794587 0.539916
vt 0.846959 0.513930
vt 0.820823 0.513930
vt 0.846959 0.539916
vt 0.794587 0.513930
vt 0.794587 0.513930
vt 0.820823 0.513930
vt 0.820823 0.513930
vt 0.794587 0.513930
vt 0.794587 0.539916
vt 0.794587 0.539916
vt 0.846959 0.539916
vt 0.846959 0.566102
vt 0.846959 0.566102
vt 0.846959 0.539916
vt 0.846959 0.513930
vt 0.846959 0.513930
vt 0.794587 0.566102
vt 0.794587 0.566102
vt 0.820823 0.566102
vt 0.820823 0.566102
vt 0.179810 0.437161
vt 0.258891 0.437161
vt 0.258891 0.437161
vt 0.179810 0.437161
vt 0.179810 0.515637
vt 0.179810 0.515637
vt 0.337828 0.515637
vt 0.337828 0.594574
vt 0.337828 0.594574
vt 0.337828 0.515637
vt 0.337828 0.437161
vt 0.337828 0.437161
vt 0.179810 0.594574
vt 0.179810 0.594574
vt 0.258891 0.594574
vt 0.258891 0.594574
vn -0.8901 0.0000 -0.4557
vn 0.4497 0.0000 -0.8932
vn 0.9290 0.0000 0.3700
vn -0.4514 0.0000 0.8923
vn 0.0000 -1.0000 0.0000
vn -0.4458 0.7763 0.4458
vn 0.0000 0.7854 0.6190
vn 0.0000 0.0000 1.0000
vn 0.0000 0.0000 -1.0000
vn -0.4412 0.0000 -0.8974
vn 0.4585 0.0000 0.8887
vn 0.4518 0.7731 0.4452
vn 0.6246 0.7809 0.0000
vn 0.0000 0.2485 0.9686
vn -0.6190 0.7854 0.0000
vn 1.0000 0.0000 0.0000
vn -1.0000 -0.0000 0.0000
vn -0.9290 0.0000 0.3700
vn 0.9684 0.2493 0.0000
vn 0.0000 1.0000 0.0000
vn 0.8901 0.0000 -0.4557
vn -0.4582 0.7728 -0.4392
vn 0.0000 0.7979 -0.6027
vn 0.4647 0.7690 -0.4389
vn 0.0000 0.2480 -0.9688
vn -0.9685 0.2491 0.0000
vn 0.0170 0.9351 -0.3539
vn 0.0000 0.9272 -0.3746
vn 0.0002 0.9272 -0.3746
vn 0.0026 0.9260 -0.3774
vn 0.0029 0.9260 -0.3776
vn 0.0784 0.6696 -0.7386
vn -0.0252 0.4541 -0.8906
vn -0.0701 0.6507 -0.7561
vn -0.0701 0.6508 -0.7560
vn 0.0000 0.7172 -0.6969
vn -0.8902 0.4550 0.0249
vn -0.7556 0.6512 0.0701
vn -0.3542 0.9350 -0.0171
vn -0.3741 0.9274 -0.0000
vn -0.3748 0.9271 -0.0000
vn -0.3773 0.9261 -0.0024
vn -0.3779 0.9258 -0.0030
vn -0.7377 0.6706 -0.0780
vn -0.6966 0.7175 0.0000
vn 0.3541 0.9350 0.0172
vn 0.3739 0.9275 -0.0001
vn 0.3747 0.9271 0.0001
vn 0.3772 0.9261 0.0024
vn 0.3774 0.9260 0.0029
vn 0.7379 0.6704 0.0784
vn 0.8903 0.4548 -0.0249
vn 0.7553 0.6516 -0.0701
vn 0.6963 0.7177 -0.0002
vn -0.0172 0.9350 0.3542
vn 0.0000 0.9272 0.3746
vn 0.0001 0.9271 0.3748
vn -0.0024 0.9260 0.3775
vn -0.0029 0.9258 0.3779
vn -0.0783 0.6701 0.7382
vn 0.0254 0.4543 0.8905
vn 0.0700 0.6510 0.7558
vn -0.0000 0.7172 0.6969
vn -0.9178 0.3971 -0.0001
vn -0.7307 0.6826 0.0028
vn -0.3636 0.9316 0.0040
vn 0.3455 0.9384 -0.0002
vn 0.7458 0.6662 0.0027
vn 0.9140 0.4057 0.0018
vn -0.9140 0.4057 -0.0017
vn -0.7459 0.6661 -0.0027
vn -0.3452 0.9385 0.0002
vn 0.3638 0.9315 -0.0040
vn 0.7306 0.6828 -0.0028
vn 0.9178 0.3971 0.0001
vn -0.0001 0.3965 0.9180
vn 0.0028 0.6823 0.7310
vn 0.0040 0.9315 0.3636
vn -0.0017 0.4051 0.9143
vn -0.0027 0.6658 0.7462
vn 0.0002 0.9384 0.3457
vn -0.0040 0.9315 -0.3637
vn -0.0028 0.6821 -0.7312
vn 0.0001 0.3956 -0.9184
vn -0.0002 0.9383 -0.3458
vn 0.0028 0.6654 -0.7464
vn 0.0018 0.4047 -0.9144
usemtl Material.002
s 1
f 1/1/1 2/2/1 3/3/1 4/4/1
f 5/5/2 6/6/2 7/7/2 8/8/2
f 9/9/3 10/10/3 11/11/3 12/12/3
f 13/13/4 14/14/4 15/15/4 16/16/4
f 17/17/5 9/9/5 12/12/5 18/18/5
f 19/19/6 20/20/6 15/21/6 14/22/6
f 21/23/7 22/24/7 23/25/7 24/26/7
f 25/27/5 26/28/5 27/29/5 13/30/5
f 18/31/8 24/32/8 23/33/8 27/34/8
f 28/35/9 29/36/9 30/37/9 31/38/9
f 4/4/10 3/3/10 29/36/10 28/35/10
f 32/39/5 25/27/5 13/30/5 16/40/5
f 22/24/7 19/19/7 14/22/7 23/25/7
f 27/34/8 23/33/8 14/14/8 13/13/8
f 12/12/11 11/11/11 24/32/11 18/31/11
f 10/10/12 21/23/12 24/26/12 11/11/12
f 26/28/5 17/17/5 18/18/5 27/29/5
f 31/38/9 30/37/9 6/6/9 5/5/9
f 33/41/5 34/42/5 35/43/5 36/44/5
f 37/45/13 38/46/13 39/47/13 40/48/13
f 41/49/14 42/50/14 43/51/14 44/52/14
f 1/53/5 45/54/5 46/55/5 47/56/5
f 45/54/5 33/41/5 36/44/5 46/55/5
f 48/57/14 41/49/14 44/52/14 49/58/14
f 50/59/15 2/60/15 51/61/15 52/62/15
f 34/42/5 53/63/5 54/64/5 35/43/5
f 53/63/16 37/45/16 40/48/16 54/64/16
f 32/65/17 20/66/17 51/67/17 47/68/17
f 16/69/18 15/70/18 20/66/18 32/65/18
f 36/44/5 35/43/5 17/17/5 26/28/5
f 40/48/13 39/47/13 21/23/13 10/10/13
f 42/50/19 55/71/19 56/72/19 43/51/19
f 47/56/5 46/55/5 25/27/5 32/39/5
f 46/55/5 36/44/5 26/28/5 25/27/5
f 57/73/20 58/74/20 59/75/20 60/76/20
f 52/62/15 51/61/15 20/20/15 19/19/15
f 35/43/5 54/64/5 9/9/5 17/17/5
f 54/64/16 40/48/16 10/10/16 9/9/16
f 8/8/21 7/7/21 37/45/21 53/63/21
f 5/77/5 8/8/5 53/63/5 34/42/5
f 29/78/22 3/79/22 2/60/22 50/59/22
f 6/80/23 30/81/23 61/82/23 38/46/23
f 28/83/5 31/84/5 33/41/5 45/54/5
f 4/85/5 28/83/5 45/54/5 1/53/5
f 30/81/23 29/78/23 50/59/23 61/82/23
f 7/7/24 6/80/24 38/46/24 37/45/24
f 31/84/5 5/77/5 34/42/5 33/41/5
f 47/68/17 51/67/17 2/2/17 1/1/17
f 62/86/25 63/87/25 64/88/25 65/89/25
f 66/90/20 67/91/20 68/92/20 69/93/20
f 70/94/20 71/95/20 72/96/20 73/97/20
f 63/87/26 74/98/26 75/99/26 64/88/26
f 76/100/20 77/101/20 78/102/20 79/103/20
f 74/98/26 48/57/26 49/58/26 75/99/26
f 55/71/19 80/104/19 81/105/19 56/72/19
f 76/100/27 82/106/27 83/107/27 84/108/27
f 82/106/28 85/109/29 86/110/30 83/107/28
f 58/74/31 87/111/31 86/110/30 85/109/29
f 87/111/32 88/112/32 89/113/32 86/110/32
f 65/89/33 90/114/33 89/113/33 88/112/33
f 90/114/34 84/108/35 83/107/34 89/113/35
f 83/107/36 86/110/36 89/113/36
f 59/75/20 91/115/20 92/116/20 93/117/20
f 91/115/20 94/118/20 95/119/20 92/116/20
f 79/103/20 96/120/20 95/119/20 94/118/20
f 96/120/20 97/121/20 98/122/20 95/119/20
f 66/90/20 99/123/20 98/122/20 97/121/20
f 99/123/20 100/124/20 101/125/20 98/122/20
f 71/95/20 102/126/20 101/125/20 100/124/20
f 102/126/20 93/117/20 92/116/20 101/125/20
f 92/116/20 95/119/20 98/122/20 101/125/20
f 75/99/37 103/127/37 104/128/37 105/129/37
f 103/127/38 106/130/38 107/131/38 104/128/38
f 67/91/39 108/132/39 107/131/39 106/130/39
f 108/132/40 109/133/41 110/134/42 107/131/40
f 78/102/43 111/135/43 110/134/42 109/133/41
f 111/135/44 105/129/44 104/128/44 110/134/44
f 104/128/45 107/131/45 110/134/45
f 60/76/46 112/136/46 113/137/46 114/138/46
f 112/136/47 115/139/48 116/140/49 113/137/47
f 70/94/50 117/141/50 116/140/49 115/139/48
f 117/141/51 118/142/51 119/143/51 116/140/51
f 56/72/52 120/144/52 119/143/52 118/142/52
f 120/144/53 114/138/53 113/137/53 119/143/53
f 113/137/54 116/140/54 119/143/54
f 72/96/55 121/145/55 122/146/55 123/147/55
f 121/145/56 124/148/57 125/149/58 122/146/56
f 69/93/59 126/150/59 125/149/58 124/148/57
f 126/150/60 127/151/60 128/152/60 125/149/60
f 44/52/61 129/153/61 128/152/61 127/151/61
f 129/153/62 123/147/62 122/146/62 128/152/62
f 122/146/63 125/149/63 128/152/63
f 76/100/20 79/103/20 94/118/20 82/106/20
f 82/106/20 94/118/20 91/115/20 85/109/20
f 85/109/20 91/115/20 59/75/20 58/74/20
f 64/88/64 75/99/64 105/129/64 130/154/64
f 130/154/65 105/129/65 111/135/65 131/155/65
f 131/155/66 111/135/66 78/102/66 77/101/66
f 57/73/67 60/76/67 114/138/67 132/156/67
f 132/156/68 114/138/68 120/144/68 133/157/68
f 133/157/69 120/144/69 56/72/69 81/105/69
f 67/91/20 66/90/20 97/121/20 108/132/20
f 108/132/20 97/121/20 96/120/20 109/133/20
f 109/133/20 96/120/20 79/103/20 78/102/20
f 71/95/20 70/94/20 115/139/20 102/126/20
f 102/126/20 115/139/20 112/136/20 93/117/20
f 93/117/20 112/136/20 60/76/20 59/75/20
f 66/90/20 69/93/20 124/148/20 99/123/20
f 99/123/20 124/148/20 121/145/20 100/124/20
f 100/124/20 121/145/20 72/96/20 71/95/20
f 75/99/70 49/58/70 134/158/70 103/127/70
f 103/127/71 134/158/71 135/159/71 106/130/71
f 106/130/72 135/159/72 68/92/72 67/91/72
f 70/94/73 73/97/73 136/160/73 117/141/73
f 117/141/74 136/160/74 137/161/74 118/142/74
f 118/142/75 137/161/75 43/51/75 56/72/75
f 49/58/76 44/52/76 127/151/76 134/158/76
f 134/158/77 127/151/77 126/150/77 135/159/77
f 135/159/78 126/150/78 69/93/78 68/92/78
f 44/52/79 43/51/79 137/161/79 129/153/79
f 129/153/80 137/161/80 136/160/80 123/147/80
f 123/147/81 136/160/81 73/97/81 72/96/81
f 58/74/82 57/73/82 132/156/82 87/111/82
f 87/111/83 132/156/83 133/157/83 88/112/83
f 88/112/84 133/157/84 81/105/84 65/89/84
f 77/101/85 76/100/85 84/108/85 131/155/85
f 131/155/86 84/108/86 90/114/86 130/154/86
f 130/154/87 90/114/87 65/89/87 64/88/87
f 80/104/25 62/86/25 65/89/25 81/105/25
f 138/162/25 139/163/25 140/164/25 141/165/25
f 142/166/19 138/162/19 141/165/19 143/167/19
f 144/168/26 145/169/26 146/170/26 147/171/26
f 148/172/26 144/168/26 147/171/26 149/173/26
f 139/163/25 148/172/25 149/173/25 140/164/25
f 150/174/19 142/166/19 143/167/19 151/175/19
f 145/169/14 152/176/14 153/177/14 146/170/14
f 152/176/14 150/174/14 151/175/14 153/177/14
f 22/24/14 21/23/14 150/178/14 152/179/14
f 19/19/14 22/24/14 152/179/14 145/180/14
f 21/23/19 39/47/19 142/181/19 150/178/19
f 61/82/25 50/59/25 148/182/25 139/183/25
f 50/59/26 52/62/26 144/184/26 148/182/26
f 52/62/26 19/19/26 145/180/26 144/184/26
f 39/47/19 38/46/19 138/185/19 142/181/19
f 38/46/25 61/82/25 139/183/25 138/185/25
f 141/186/25 140/187/25 154/188/25 155/189/25
f 143/190/19 141/186/19 155/189/19 156/191/19
f 147/192/26 146/193/26 157/194/26 158/195/26
f 149/196/26 147/192/26 158/195/26 159/197/26
f 140/187/25 149/196/25 159/197/25 154/188/25
f 151/198/19 143/190/19 156/191/19 160/199/19
f 146/193/14 153/200/14 161/201/14 157/194/14
f 153/200/14 151/198/14 160/199/14 161/201/14
f 155/202/25 154/203/25 62/204/25 80/205/25
f 156/206/19 155/202/19 80/205/19 55/207/19
f 158/208/26 157/209/26 48/210/26 74/211/26
f 159/212/26 158/208/26 74/211/26 63/213/26
f 154/203/25 159/212/25 63/213/25 62/204/25
f 160/214/19 156/206/19 55/207/19 42/215/19
f 157/209/14 161/216/14 41/217/14 48/210/14
f 161/216/14 160/214/14 42/215/14 41/217/14
