# Blender v3.0.0 OBJ File: ''
# www.blender.org
mtllib sign.mtl
o Cube_Cube.001
v 0.039705 0.038489 -0.638616
v 0.039705 0.038489 0.638616
v -0.027799 0.038489 0.638616
v -0.027799 0.038489 -0.638616
v -0.033446 -0.279420 0.707861
v -0.033446 -0.279419 -0.707860
v -0.033446 0.009135 -0.701771
v -0.033446 0.009135 0.701760
v 0.045351 -0.551762 0.745463
v -0.033446 -0.562343 0.701760
v 0.045351 -0.279420 0.745463
v -0.033446 -0.562343 -0.701771
v 0.045351 -0.551762 -0.745462
v 0.045351 -0.279419 -0.745462
v 0.045351 -0.007077 0.745463
v 0.045351 -0.007076 -0.745462
v -0.027799 -0.597328 -0.638616
v -0.027799 -0.597328 0.638616
v 0.039705 -0.597328 0.638616
v 0.039705 -0.597328 -0.638616
v -0.029544 -0.595098 -0.671633
v -0.029544 -0.595098 0.671634
v -0.031118 -0.588625 -0.701419
v -0.031118 -0.588626 0.701419
v -0.032367 -0.578545 -0.725056
v -0.032367 -0.578545 0.725057
v -0.033169 -0.565843 -0.740233
v -0.033169 -0.565843 0.740233
v -0.029544 0.036259 0.671634
v -0.029544 0.036259 -0.671633
v -0.031118 0.029787 0.701419
v -0.031118 0.029787 -0.701419
v -0.032367 0.019706 0.725057
v -0.032367 0.019706 -0.725056
v -0.033169 0.007004 0.740233
v -0.033169 0.007004 -0.740233
v 0.041450 -0.595098 -0.671633
v 0.043024 -0.588625 -0.701419
v 0.044273 -0.578545 -0.725056
v 0.045075 -0.565843 -0.740233
v 0.041450 0.036259 -0.671633
v 0.043024 0.029787 -0.701419
v 0.044273 0.019706 -0.725056
v 0.045075 0.007004 -0.740233
v 0.041450 -0.595098 0.671634
v 0.043024 -0.588626 0.701419
v 0.044273 -0.578545 0.725057
v 0.045075 -0.565843 0.740233
v 0.041450 0.036259 0.671634
v 0.043024 0.029787 0.701419
v 0.044273 0.019706 0.725057
v 0.045075 0.007004 0.740233
v 0.037099 0.013951 -0.589323
v -0.025194 0.013951 -0.589323
v -0.025194 0.013950 0.589324
v 0.037099 0.013950 0.589324
v -0.030405 -0.279420 0.687922
v -0.030405 -0.028098 0.687922
v -0.030405 -0.028098 -0.687922
v -0.030405 -0.279419 -0.687922
v 0.042310 -0.530741 0.687922
v 0.042310 -0.279420 0.687922
v -0.030405 -0.530741 0.687922
v -0.030405 -0.530741 -0.687922
v 0.042310 -0.279419 -0.687922
v 0.042310 -0.530741 -0.687922
v 0.042310 -0.028098 0.687922
v 0.042310 -0.028098 -0.687922
v -0.025194 -0.572789 -0.589323
v 0.037099 -0.572789 -0.589323
v 0.037099 -0.572789 0.589323
v -0.025194 -0.572789 0.589323
v -0.026804 -0.570731 0.619792
v -0.026804 -0.570731 -0.619792
v -0.028257 -0.564759 0.647278
v -0.028257 -0.564759 -0.647278
v -0.029410 -0.555457 0.669092
v -0.029410 -0.555456 -0.669091
v -0.030150 -0.543735 0.683097
v -0.030150 -0.543734 -0.683096
v -0.026804 0.011893 -0.619792
v -0.026804 0.011892 0.619792
v -0.028257 0.005920 -0.647278
v -0.028257 0.005920 0.647278
v -0.029410 -0.003382 -0.669091
v -0.029410 -0.003383 0.669092
v -0.030150 -0.015104 -0.683096
v -0.030150 -0.015104 0.683097
v 0.038710 -0.570731 -0.619792
v 0.040162 -0.564759 -0.647278
v 0.041315 -0.555456 -0.669091
v 0.042055 -0.543734 -0.683096
v 0.038710 0.011893 -0.619792
v 0.040162 0.005920 -0.647278
v 0.041315 -0.003382 -0.669091
v 0.042055 -0.015104 -0.683096
v 0.038710 -0.570731 0.619792
v 0.040162 -0.564759 0.647278
v 0.041315 -0.555457 0.669092
v 0.042055 -0.543735 0.683097
v 0.038710 0.011892 0.619792
v 0.040162 0.005920 0.647278
v 0.041315 -0.003383 0.669092
v 0.042055 -0.015104 0.683097
v 0.000000 -1.500000 -0.027020
v 0.000000 -0.577392 -0.027020
v 0.005271 -0.577392 -0.026501
v 0.005271 -1.500000 -0.026501
v 0.010340 -0.577392 -0.024963
v 0.010340 -1.500000 -0.024964
v 0.015012 -0.577392 -0.022467
v 0.015012 -1.500000 -0.022467
v 0.019106 -0.577392 -0.019106
v 0.019106 -1.500000 -0.019106
v 0.022467 -0.577392 -0.015012
v 0.022467 -1.500000 -0.015012
v 0.024964 -0.577392 -0.010340
v 0.024964 -1.500000 -0.010340
v 0.026501 -0.577392 -0.005271
v 0.026501 -1.500000 -0.005271
v 0.027020 -0.577392 0.000000
v 0.027020 -1.500000 0.000000
v 0.026501 -0.577392 0.005272
v 0.026501 -1.500000 0.005271
v 0.024964 -0.577392 0.010340
v 0.024964 -1.500000 0.010340
v 0.022467 -0.577392 0.015012
v 0.022467 -1.500000 0.015012
v 0.019106 -0.577392 0.019107
v 0.019106 -1.500000 0.019106
v 0.015012 -0.577392 0.022467
v 0.015012 -1.500000 0.022467
v 0.010340 -0.577392 0.024964
v 0.010340 -1.500000 0.024964
v 0.005271 -0.577392 0.026501
v 0.005271 -1.500000 0.026501
v 0.000000 -0.577392 0.027021
v 0.000000 -1.500000 0.027020
v -0.005271 -0.577392 0.026501
v -0.005271 -1.500000 0.026501
v -0.010340 -0.577392 0.024964
v -0.010340 -1.500000 0.024964
v -0.015012 -0.577392 0.022467
v -0.015012 -1.500000 0.022467
v -0.019106 -0.577392 0.019107
v -0.019106 -1.500000 0.019106
v -0.022467 -0.577392 0.015012
v -0.022467 -1.500000 0.015012
v -0.024964 -0.577392 0.010340
v -0.024964 -1.500000 0.010340
v -0.026501 -0.577392 0.005272
v -0.026501 -1.500000 0.005271
v -0.027020 -0.577392 0.000000
v -0.027020 -1.500000 0.000000
v -0.026501 -0.577392 -0.005271
v -0.026501 -1.500000 -0.005271
v -0.024964 -0.577392 -0.010340
v -0.024964 -1.500000 -0.010340
v -0.022467 -0.577392 -0.015012
v -0.022467 -1.500000 -0.015012
v -0.019106 -0.577392 -0.019106
v -0.019106 -1.500000 -0.019106
v -0.015012 -0.577392 -0.022467
v -0.015012 -1.500000 -0.022467
v -0.010340 -0.577392 -0.024963
v -0.010340 -1.500000 -0.024964
v -0.005271 -0.577392 -0.026501
v -0.005271 -1.500000 -0.026501
v -0.033446 -0.279420 0.745463
v -0.033446 -0.007077 0.745463
v -0.033446 -0.551762 0.745463
v -0.033446 -0.007076 -0.745462
v -0.033446 -0.279419 -0.745462
v -0.033446 -0.551762 -0.745462
v -0.033446 -0.279420 0.726662
v -0.033446 -0.017318 0.720399
v -0.033446 -0.540872 0.720399
v -0.033446 -0.015105 -0.721516
v -0.033446 -0.279095 -0.720410
v -0.033446 -0.540872 -0.720410
v -0.033446 0.011314 0.000000
v -0.033446 0.010891 -0.694165
v -0.033446 0.010891 0.694154
v -0.033446 0.002228 -0.711090
v -0.033446 -0.279439 -0.717261
v -0.033446 -0.557908 -0.711090
v -0.033446 -0.279095 0.711079
v -0.033446 -0.551608 0.711079
v -0.033446 -0.004092 0.711079
v 0.040265 0.044678 -0.648805
v 0.040265 0.044678 0.648806
v -0.028315 0.044678 -0.648805
v -0.034052 -0.278303 0.757357
v -0.034052 -0.001615 0.757357
v 0.046002 -0.554992 0.757357
v -0.034052 -0.554992 0.757357
v 0.046002 -0.278303 0.757357
v 0.046002 -0.554991 -0.757357
v 0.046002 -0.278303 -0.757357
v 0.046002 -0.001615 0.757357
v -0.034052 -0.001615 -0.757357
v 0.046002 -0.001615 -0.757357
v -0.030703 -0.546836 0.693996
v 0.042654 -0.546836 0.693996
v -0.028315 -0.601284 -0.648806
v -0.028315 -0.601284 0.648806
v 0.040265 -0.601284 -0.648806
v -0.030088 -0.599018 -0.682350
v -0.031687 -0.592443 -0.712610
v -0.032956 -0.582201 -0.736625
v -0.033771 -0.569297 -0.752044
v -0.028315 0.044678 0.648806
v -0.030088 0.042412 0.682350
v -0.031687 0.035836 0.712611
v -0.032956 0.025595 0.736626
v -0.033771 0.012690 0.752044
v 0.042038 -0.599018 -0.682350
v 0.043638 -0.592443 -0.712610
v 0.044907 -0.582201 -0.736625
v 0.045722 -0.569297 -0.752044
v 0.042038 0.042412 -0.682350
v 0.043638 0.035837 -0.712610
v 0.044907 0.025595 -0.736625
v 0.045722 0.012690 -0.752044
v 0.040265 -0.601284 0.648806
v 0.042038 -0.599019 0.682350
v 0.043638 -0.592443 0.712611
v 0.044907 -0.582202 0.736626
v 0.045722 -0.569297 0.752044
v 0.042038 0.042412 0.682350
v 0.043638 0.035836 0.712611
v 0.044907 0.025595 0.736626
v 0.045722 0.012690 0.752044
v 0.037619 0.019748 -0.598726
v -0.025668 0.019748 -0.598726
v 0.037619 0.019747 0.598727
v -0.030962 -0.278303 0.698899
v -0.030962 -0.022972 0.698899
v 0.042913 -0.533635 0.698899
v 0.042913 -0.278303 0.698899
v -0.030962 -0.533635 0.698899
v 0.042913 -0.278303 -0.698898
v 0.042913 -0.533634 -0.698898
v -0.030962 -0.022972 -0.698898
v 0.042913 -0.022972 -0.698898
v -0.025668 -0.576354 -0.598726
v 0.037619 -0.576354 -0.598726
v -0.025668 -0.576354 0.598727
v -0.027304 -0.574263 -0.629681
v -0.027304 -0.574263 0.629681
v -0.028780 -0.568195 0.657606
v -0.029951 -0.558745 0.679768
v -0.027304 0.017657 -0.629681
v -0.028780 0.011589 -0.657606
v -0.029951 0.002138 -0.679767
v -0.030703 -0.009771 -0.693995
v 0.039255 -0.574263 -0.629681
v 0.040731 -0.568195 -0.657606
v 0.041902 -0.558744 -0.679767
v 0.042654 -0.546836 -0.693996
v 0.039255 0.017657 -0.629681
v 0.040731 0.011589 -0.657606
v 0.041902 0.002138 -0.679767
v 0.042654 -0.009771 -0.693995
v 0.037619 -0.576354 0.598727
v 0.039255 -0.574263 0.629681
v 0.040731 -0.568195 0.657606
v 0.041902 -0.558745 0.679768
v 0.039255 0.017657 0.629681
v 0.040731 0.011589 0.657606
v 0.041902 0.002138 0.679768
v 0.042654 -0.009771 0.693996
v -0.025668 0.019747 0.598727
v -0.027304 0.017657 0.629681
v 0.042913 -0.022972 0.698899
v -0.030703 -0.009771 0.693996
v -0.030962 -0.533634 -0.698898
v -0.030703 -0.546836 -0.693996
v -0.033771 0.012690 -0.752044
v -0.030962 -0.278303 -0.698898
v -0.034052 -0.278303 -0.757357
v -0.034052 -0.554991 -0.757357
v -0.030088 -0.599019 0.682350
v -0.031687 -0.592443 0.712611
v -0.032956 -0.582202 0.736626
v -0.033771 -0.569297 0.752044
v -0.030088 0.042412 -0.682350
v -0.031687 0.035837 -0.712610
v -0.032956 0.025595 -0.736625
v -0.028780 -0.568195 -0.657606
v -0.029951 -0.558744 -0.679767
v -0.028780 0.011589 0.657606
v -0.029951 0.002138 0.679768
v -0.000073 -0.581030 -0.027451
v 0.005283 -0.581030 -0.026924
v 0.010433 -0.581030 -0.025362
v 0.015179 -0.581030 -0.022825
v 0.019339 -0.581030 -0.019411
v 0.022753 -0.581030 -0.015251
v 0.025289 -0.581030 -0.010505
v 0.026852 -0.581030 -0.005355
v 0.027379 -0.581030 0.000000
v 0.026852 -0.581030 0.005356
v 0.025289 -0.581030 0.010505
v 0.022753 -0.581030 0.015251
v 0.019339 -0.581030 0.019411
v 0.015179 -0.581030 0.022825
v 0.010433 -0.581030 0.025362
v 0.005283 -0.581030 0.026924
v -0.000073 -0.581030 0.027452
v -0.005428 -0.581030 0.026924
v -0.010578 -0.581030 0.025362
v -0.015324 -0.581030 0.022825
v -0.019484 -0.581030 0.019411
v -0.022898 -0.581030 0.015251
v -0.025435 -0.581030 0.010505
v -0.026997 -0.581030 0.005356
v -0.027524 -0.581030 0.000000
v -0.026997 -0.581030 -0.005355
v -0.025435 -0.581030 -0.010505
v -0.022898 -0.581030 -0.015251
v -0.015324 -0.581030 -0.022825
v -0.010578 -0.581030 -0.025362
v -0.005428 -0.581030 -0.026924
v -0.019484 -0.581030 -0.019411
vt 0.974585 0.901778
vt 0.974585 0.901778
vt 0.974560 0.901731
vt 0.974560 0.901731
vt 0.980673 0.904736
vt 0.980673 0.904736
vt 0.980673 0.904735
vt 0.980673 0.904735
vt 0.975134 0.902242
vt 0.975134 0.902242
vt 0.975134 0.902242
vt 0.975134 0.902242
vt 0.980665 0.904736
vt 0.980665 0.904736
vt 0.980669 0.904736
vt 0.980669 0.904736
vt 0.980669 0.904745
vt 0.980669 0.904745
vt 0.980665 0.904745
vt 0.980665 0.904745
vt 0.970982 0.901154
vt 0.970982 0.901158
vt 0.970982 0.901158
vt 0.970982 0.901154
vt 0.975131 0.902230
vt 0.975131 0.902230
vt 0.975131 0.902230
vt 0.975131 0.902230
vt 0.972946 0.901731
vt 0.972946 0.901731
vt 0.972921 0.901778
vt 0.972921 0.901778
vt 0.975131 0.902230
vt 0.975131 0.902230
vt 0.971396 0.903281
vt 0.971396 0.903281
vt 0.971442 0.903256
vt 0.971442 0.903256
vt 0.972889 0.901809
vt 0.972889 0.901809
vt 0.972854 0.901844
vt 0.972854 0.901844
vt 0.974492 0.898610
vt 0.974492 0.898610
vt 0.974461 0.898594
vt 0.974461 0.898594
vt 0.971473 0.903225
vt 0.971473 0.903225
vt 0.975131 0.902230
vt 0.975131 0.902230
vt 0.975131 0.902230
vt 0.975131 0.902230
vt 0.980674 0.904736
vt 0.980674 0.904736
vt 0.980674 0.904744
vt 0.980674 0.904744
vt 0.971508 0.901844
vt 0.971508 0.901844
vt 0.971473 0.901809
vt 0.971473 0.901809
vt 0.975131 0.902230
vt 0.975131 0.902230
vt 0.976064 0.903256
vt 0.976064 0.903256
vt 0.976110 0.903281
vt 0.976110 0.903281
vt 0.971508 0.903190
vt 0.971508 0.903190
vt 0.976032 0.903225
vt 0.976032 0.903225
vt 0.974426 0.901731
vt 0.974426 0.901731
vt 0.973753 0.901731
vt 0.973753 0.901731
vt 0.973753 0.898588
vt 0.973753 0.900160
vt 0.974426 0.900160
vt 0.974426 0.898588
vt 0.973753 0.900160
vt 0.974426 0.900160
vt 0.980664 0.904745
vt 0.980664 0.904745
vt 0.980664 0.904744
vt 0.980664 0.904744
vt 0.973753 0.898588
vt 0.973080 0.898588
vt 0.973080 0.898588
vt 0.971442 0.901778
vt 0.971396 0.901753
vt 0.973014 0.900138
vt 0.973045 0.900154
vt 0.973045 0.898594
vt 0.973014 0.898610
vt 0.973080 0.900160
vt 0.975998 0.903190
vt 0.976032 0.901809
vt 0.975998 0.901844
vt 0.976064 0.901778
vt 0.976110 0.901753
vt 0.974461 0.900154
vt 0.974492 0.900138
vt 0.973014 0.900138
vt 0.973045 0.900154
vt 0.971442 0.901778
vt 0.971396 0.901753
vt 0.973080 0.901731
vt 0.973080 0.901731
vt 0.980664 0.904744
vt 0.980664 0.904736
vt 0.980664 0.904736
vt 0.980664 0.904744
vt 0.975131 0.902230
vt 0.975131 0.902230
vt 0.973080 0.903303
vt 0.973080 0.903303
vt 0.973753 0.903303
vt 0.973753 0.903303
vt 0.973045 0.901726
vt 0.973045 0.901726
vt 0.972854 0.903190
vt 0.972854 0.903190
vt 0.974426 0.898588
vt 0.974651 0.903190
vt 0.974651 0.903190
vt 0.974651 0.901844
vt 0.974651 0.901844
vt 0.974426 0.903303
vt 0.974426 0.903303
vt 0.973045 0.898594
vt 0.973014 0.898610
vt 0.972889 0.903225
vt 0.972889 0.903225
vt 0.972921 0.903256
vt 0.972921 0.903256
vt 0.974461 0.903308
vt 0.974461 0.903308
vt 0.974492 0.903324
vt 0.974492 0.903324
vt 0.972946 0.903303
vt 0.972946 0.903303
vt 0.972921 0.901778
vt 0.972889 0.901809
vt 0.974492 0.901710
vt 0.974492 0.901710
vt 0.974461 0.901726
vt 0.974461 0.901726
vt 0.974426 0.903303
vt 0.973080 0.903303
vt 0.973753 0.903303
vt 0.973014 0.903324
vt 0.973014 0.903324
vt 0.973045 0.903308
vt 0.973045 0.903308
vt 0.974651 0.901844
vt 0.974617 0.901809
vt 0.974617 0.901809
vt 0.972946 0.901731
vt 0.974426 0.901731
vt 0.974651 0.903190
vt 0.974585 0.901778
vt 0.974617 0.903225
vt 0.974617 0.903225
vt 0.973045 0.901726
vt 0.973014 0.901710
vt 0.973014 0.901710
vt 0.972854 0.903190
vt 0.972854 0.901844
vt 0.973753 0.901731
vt 0.973080 0.901731
vt 0.974585 0.903256
vt 0.974585 0.903256
vt 0.974560 0.901731
vt 0.974560 0.903303
vt 0.974560 0.903303
vt 0.976737 0.904306
vt 0.976724 0.904306
vt 0.976712 0.904306
vt 0.976712 0.904298
vt 0.976712 0.904290
vt 0.976712 0.904283
vt 0.976712 0.904275
vt 0.976724 0.904275
vt 0.976737 0.904275
vt 0.026725 0.473226
vt 0.026725 0.473226
vt 0.026723 0.473226
vt 0.026723 0.473226
vt 0.026727 0.473226
vt 0.026727 0.473226
vt 0.026723 0.473222
vt 0.026723 0.473222
vt 0.026725 0.473222
vt 0.026725 0.473222
vt 0.026727 0.473222
vt 0.026727 0.473222
vt 0.970988 0.901162
vt 0.970988 0.901162
vt 0.970989 0.901162
vt 0.970989 0.901162
vt 0.970986 0.901162
vt 0.970986 0.901162
vt 0.970989 0.901166
vt 0.970989 0.901166
vt 0.970988 0.901166
vt 0.970988 0.901166
vt 0.970986 0.901166
vt 0.970986 0.901166
vt 0.026719 0.473214
vt 0.026719 0.473217
vt 0.026719 0.473217
vt 0.026719 0.473217
vt 0.026723 0.473222
vt 0.026723 0.473222
vt 0.026723 0.473222
vt 0.026723 0.473223
vt 0.026723 0.473224
vt 0.026723 0.473225
vt 0.026723 0.473226
vt 0.026723 0.473226
vt 0.026723 0.473226
vt 0.026723 0.473226
vt 0.026719 0.473214
vt 0.027246 0.473904
vt 0.027246 0.475250
vt 0.027211 0.475285
vt 0.027179 0.475316
vt 0.026731 0.473214
vt 0.026727 0.473226
vt 0.026727 0.473226
vt 0.026727 0.473226
vt 0.026727 0.473222
vt 0.026727 0.473222
vt 0.026727 0.473222
vt 0.026727 0.473222
vt 0.026731 0.473217
vt 0.027211 0.473869
vt 0.970986 0.901162
vt 0.970988 0.901162
vt 0.970989 0.901162
vt 0.970988 0.901166
vt 0.970986 0.901166
vt 0.970989 0.901166
vt 0.980682 0.904736
vt 0.980682 0.904744
vt 0.980669 0.904754
vt 0.980665 0.904754
vt 0.980665 0.904726
vt 0.980669 0.904726
vt 0.980673 0.904745
vt 0.980673 0.904754
vt 0.980673 0.904726
vt 0.980656 0.904736
vt 0.980656 0.904744
vt 0.980655 0.904736
vt 0.980664 0.904736
vt 0.980655 0.904736
vt 0.980664 0.904736
vt 0.980655 0.904736
vt 0.980664 0.904736
vt 0.980664 0.904726
vt 0.980664 0.904735
vt 0.980674 0.904736
vt 0.980682 0.904736
vt 0.980674 0.904736
vt 0.980682 0.904736
vt 0.980673 0.904736
vt 0.980682 0.904736
vt 0.980673 0.904726
vt 0.980664 0.904744
vt 0.980655 0.904744
vt 0.980655 0.904744
vt 0.980655 0.904745
vt 0.980664 0.904754
vt 0.980664 0.904745
vt 0.980664 0.904754
vt 0.980682 0.904744
vt 0.980674 0.904744
vt 0.980682 0.904744
vt 0.980674 0.904744
vt 0.980682 0.904745
vt 0.980673 0.904745
vt 0.980673 0.904754
vt 0.980673 0.904754
vt 0.980673 0.904745
vt 0.975998 0.903190
vt 0.975998 0.901844
vt 0.973080 0.904875
vt 0.973753 0.904875
vt 0.973080 0.900160
vt 0.974426 0.904875
vt 0.971417 0.901731
vt 0.973014 0.901710
vt 0.973014 0.900181
vt 0.976032 0.901809
vt 0.974617 0.901809
vt 0.976064 0.901778
vt 0.976089 0.901731
vt 0.974492 0.900181
vt 0.974461 0.900165
vt 0.974461 0.901726
vt 0.974492 0.901710
vt 0.972889 0.903225
vt 0.972921 0.903256
vt 0.972946 0.903303
vt 0.973014 0.904853
vt 0.973045 0.904869
vt 0.973045 0.903308
vt 0.973014 0.903324
vt 0.974617 0.903225
vt 0.974585 0.903256
vt 0.974560 0.903303
vt 0.974492 0.903324
vt 0.974461 0.903308
vt 0.974461 0.904869
vt 0.974492 0.904853
vt 0.980673 0.904745
vt 0.975133 0.902242
vt 0.975133 0.902242
vt 0.975131 0.902230
vt 0.975131 0.902230
vt 0.975131 0.902230
vt 0.975131 0.902230
vt 0.975134 0.902234
vt 0.975134 0.902234
vt 0.975131 0.902230
vt 0.975131 0.902230
vt 0.974492 0.900138
vt 0.980673 0.904736
vt 0.980674 0.904736
vt 0.975134 0.902234
vt 0.975134 0.902234
vt 0.980652 0.904732
vt 0.980652 0.904732
vt 0.975131 0.902230
vt 0.975131 0.902230
vt 0.975131 0.902230
vt 0.975131 0.902230
vt 0.975131 0.902230
vt 0.975131 0.902230
vt 0.975131 0.902230
vt 0.975131 0.902230
vt 0.975131 0.902230
vt 0.975131 0.902230
vt 0.975131 0.902230
vt 0.975131 0.902230
vt 0.980652 0.904732
vt 0.980652 0.904732
vt 0.980673 0.904745
vt 0.980664 0.904736
vt 0.975131 0.902230
vt 0.975131 0.902230
vt 0.975131 0.902230
vt 0.975131 0.902230
vt 0.980664 0.904735
vt 0.980664 0.904736
vt 0.980664 0.904736
vt 0.975131 0.902230
vt 0.975131 0.902230
vt 0.980674 0.904736
vt 0.980664 0.904744
vt 0.980674 0.904744
vt 0.976110 0.901753
vt 0.980674 0.904744
vt 0.980673 0.904745
vt 0.980664 0.904745
vt 0.971218 0.529225
vt 0.971286 0.529225
vt 0.971286 0.529225
vt 0.971218 0.529225
vt 0.971353 0.529225
vt 0.971353 0.529225
vt 0.971421 0.529225
vt 0.971421 0.529225
vt 0.969659 0.529225
vt 0.969726 0.529225
vt 0.969726 0.529225
vt 0.969659 0.529225
vt 0.971489 0.529225
vt 0.971489 0.529225
vt 0.971557 0.529225
vt 0.971557 0.529225
vt 0.969794 0.529225
vt 0.969862 0.529225
vt 0.969862 0.529225
vt 0.969794 0.529225
vt 0.971625 0.529225
vt 0.971625 0.529225
vt 0.971692 0.529225
vt 0.971692 0.529225
vt 0.971760 0.529225
vt 0.971760 0.529225
vt 0.969998 0.529225
vt 0.970065 0.529225
vt 0.970065 0.529225
vt 0.969998 0.529225
vt 0.971828 0.529225
vt 0.971828 0.529225
vt 0.970133 0.529225
vt 0.970133 0.529225
vt 0.970201 0.529225
vt 0.970201 0.529225
vt 0.971828 0.528140
vt 0.971760 0.528140
vt 0.971692 0.528140
vt 0.971625 0.528140
vt 0.971557 0.528140
vt 0.971489 0.528140
vt 0.971421 0.528140
vt 0.971353 0.528140
vt 0.971286 0.528140
vt 0.971218 0.528140
vt 0.971150 0.529225
vt 0.971150 0.528140
vt 0.971082 0.529225
vt 0.971082 0.528140
vt 0.971014 0.529225
vt 0.971014 0.528140
vt 0.970947 0.529225
vt 0.970947 0.528140
vt 0.970879 0.529225
vt 0.970879 0.528140
vt 0.970811 0.529225
vt 0.970811 0.528140
vt 0.970743 0.529225
vt 0.970743 0.528140
vt 0.970675 0.529225
vt 0.970675 0.528140
vt 0.970608 0.529225
vt 0.970608 0.528140
vt 0.970540 0.529225
vt 0.970540 0.528140
vt 0.970472 0.529225
vt 0.970472 0.528140
vt 0.970404 0.529225
vt 0.970404 0.528140
vt 0.970336 0.529225
vt 0.970336 0.528140
vt 0.970269 0.529225
vt 0.970269 0.528140
vt 0.970201 0.528140
vt 0.970133 0.528140
vt 0.970065 0.528140
vt 0.969998 0.528140
vt 0.969930 0.529225
vt 0.969930 0.528140
vt 0.969862 0.528140
vt 0.969794 0.528140
vt 0.970269 0.529225
vt 0.969726 0.528140
vt 0.969659 0.528140
vt 0.971286 0.528118
vt 0.971387 0.528108
vt 0.971485 0.528079
vt 0.971575 0.528031
vt 0.971654 0.527966
vt 0.971718 0.527887
vt 0.971767 0.527797
vt 0.971796 0.527699
vt 0.971806 0.527598
vt 0.971796 0.527496
vt 0.971767 0.527399
vt 0.971718 0.527309
vt 0.971654 0.527230
vt 0.971575 0.527165
vt 0.971485 0.527117
vt 0.971387 0.527087
vt 0.971286 0.527077
vt 0.971184 0.527087
vt 0.971086 0.527117
vt 0.970996 0.527165
vt 0.970917 0.527230
vt 0.970853 0.527309
vt 0.970805 0.527399
vt 0.970775 0.527496
vt 0.970765 0.527598
vt 0.970775 0.527699
vt 0.970805 0.527797
vt 0.970853 0.527887
vt 0.970917 0.527966
vt 0.970996 0.528031
vt 0.971086 0.528079
vt 0.971184 0.528108
vt 0.970302 0.528108
vt 0.970201 0.528118
vt 0.970099 0.528108
vt 0.970002 0.528079
vt 0.969912 0.528031
vt 0.969833 0.527966
vt 0.969768 0.527887
vt 0.969720 0.527797
vt 0.969690 0.527699
vt 0.969680 0.527598
vt 0.969690 0.527496
vt 0.969720 0.527399
vt 0.969768 0.527309
vt 0.969833 0.527230
vt 0.969912 0.527165
vt 0.970002 0.527117
vt 0.970099 0.527087
vt 0.970201 0.527077
vt 0.970302 0.527087
vt 0.970400 0.527117
vt 0.970490 0.527165
vt 0.970569 0.527230
vt 0.970634 0.527309
vt 0.970682 0.527399
vt 0.970711 0.527496
vt 0.970722 0.527598
vt 0.970711 0.527699
vt 0.970682 0.527797
vt 0.970634 0.527887
vt 0.970569 0.527966
vt 0.970490 0.528031
vt 0.970400 0.528079
vt 0.971150 0.529225
vt 0.971082 0.529225
vt 0.971014 0.529225
vt 0.970811 0.529225
vt 0.970743 0.529225
vt 0.970947 0.529225
vt 0.970879 0.529225
vt 0.970675 0.529225
vt 0.970608 0.529225
vt 0.969930 0.529225
vt 0.970540 0.529225
vt 0.970472 0.529225
vt 0.970404 0.529225
vt 0.970336 0.529225
vn -0.9986 0.0022 -0.0537
vn 0.9985 -0.0006 0.0544
vn -0.8139 0.0798 -0.5755
vn -0.8337 -0.5336 -0.1419
vn -0.8634 -0.0922 0.4960
vn -0.8457 0.5235 0.1035
vn 0.9985 0.0000 0.0546
vn 0.9985 0.0000 -0.0546
vn -0.7876 0.6162 0.0000
vn -0.9987 0.0000 -0.0509
vn -0.9985 -0.0029 -0.0540
vn 0.9987 0.0028 0.0516
vn -0.9986 -0.0053 -0.0531
vn 0.9987 -0.0015 0.0515
vn 0.9986 0.0039 0.0519
vn -0.9987 0.0000 0.0509
vn 0.9959 -0.0903 -0.0000
vn 0.9986 0.0053 -0.0524
vn 0.9987 -0.0022 0.0518
vn -0.9913 0.1320 0.0000
vn 0.9986 -0.0028 0.0522
vn -0.9985 0.0000 -0.0548
vn 1.0000 0.0000 0.0000
vn 0.9987 0.0000 -0.0507
vn 0.9985 0.0026 -0.0539
vn 0.9987 0.0000 0.0507
vn 0.7876 0.6162 0.0000
vn 0.9717 0.2364 0.0000
vn 0.9924 0.1230 0.0000
vn 0.9980 0.0630 0.0000
vn 0.9998 0.0196 0.0000
vn 0.7876 -0.6162 -0.0000
vn 0.9717 -0.2364 -0.0000
vn 0.9924 -0.1230 -0.0000
vn 0.9980 -0.0630 -0.0000
vn 0.9998 -0.0196 -0.0000
vn 0.9987 0.0018 -0.0513
vn 0.9987 0.0028 -0.0516
vn -0.9901 -0.1404 -0.0000
vn 0.9986 0.0039 -0.0519
vn -0.9987 0.0010 0.0508
vn -0.9987 0.0002 0.0507
vn -0.9978 -0.0431 0.0511
vn -0.9955 -0.0022 0.0947
vn 0.9986 0.0053 0.0524
vn -0.9985 0.0000 0.0548
vn -0.9985 -0.0007 -0.0546
vn -0.9896 -0.1442 -0.0000
vn -0.9960 0.0892 0.0000
vn 0.9987 0.0018 0.0513
vn 0.9986 0.0000 -0.0528
vn 0.9986 0.0000 0.0528
vn 0.9944 -0.1056 -0.0000
vn 0.9944 0.1056 0.0000
vn -1.0000 0.0000 0.0000
vn -0.9489 0.3156 0.0002
vn -0.9489 0.3156 -0.0002
vn -0.9489 0.3157 -0.0002
vn -0.9788 0.2049 0.0001
vn -0.9893 0.1458 -0.0000
vn -0.9948 0.1021 0.0002
vn -0.9952 0.0910 0.0372
vn -0.9915 0.1181 0.0554
vn -0.9943 0.0993 0.0398
vn -0.9963 0.0851 -0.0089
vn -0.9962 0.0856 -0.0149
vn -0.9958 0.0887 -0.0225
vn -0.9931 0.1077 -0.0473
vn -0.9891 0.1334 -0.0622
vn -0.9955 0.0886 -0.0335
vn -0.9966 0.0824 -0.0000
vn -0.9947 0.1033 0.0001
vn -0.9788 0.2051 0.0001
vn -0.7464 -0.6655 -0.0008
vn -0.7464 -0.6655 0.0008
vn -0.7470 -0.6648 0.0012
vn -0.9544 -0.2984 0.0001
vn -0.9824 -0.1870 -0.0000
vn -0.9918 -0.1279 0.0000
vn -0.9965 -0.0838 0.0001
vn -0.9967 -0.0700 -0.0415
vn -0.9909 -0.1114 -0.0760
vn -0.9944 -0.0897 -0.0550
vn -0.9962 -0.0775 0.0396
vn -0.9890 -0.1242 0.0805
vn -0.9962 -0.0730 0.0481
vn -0.9980 -0.0640 -0.0001
vn -0.9964 -0.0849 -0.0001
vn -0.9544 -0.2985 -0.0003
vn 0.0000 1.0000 0.0000
vn 0.0000 0.0000 1.0000
vn 0.0000 0.0000 -1.0000
vn 0.0000 -0.9977 -0.0674
vn 0.0000 -0.9772 -0.2123
vn 0.0000 -0.9198 -0.3923
vn 0.0000 -0.7668 -0.6418
vn 0.0000 -0.3482 -0.9374
vn 0.0000 0.9977 -0.0674
vn 0.0000 0.9772 -0.2123
vn 0.0000 0.9198 -0.3923
vn 0.0000 0.7668 -0.6418
vn 0.0000 0.3482 -0.9374
vn 0.0000 -0.9977 0.0674
vn 0.0000 -0.9772 0.2123
vn 0.0000 -0.9198 0.3923
vn 0.0000 -0.7668 0.6418
vn 0.0000 -0.3481 0.9374
vn 0.0000 0.9977 0.0674
vn 0.0000 0.9772 0.2123
vn 0.0000 0.9198 0.3923
vn 0.0000 0.7668 0.6418
vn 0.0000 0.3482 0.9374
vn 0.0000 -1.0000 -0.0000
vn 0.0000 0.9199 0.3923
vn 0.0000 -0.3482 0.9374
vn 0.0000 0.9199 -0.3923
vn -0.8073 0.0493 -0.5881
vn -0.8281 -0.5406 -0.1482
vn -0.9948 -0.0209 0.0995
vn -0.9901 0.1403 -0.0020
vn 0.9986 -0.0028 -0.0522
vn -0.9985 0.0007 -0.0545
vn -0.9792 0.0035 -0.2028
vn -0.9850 -0.1511 -0.0838
vn -0.9999 -0.0059 -0.0150
vn -0.9989 0.0310 -0.0365
vn -0.9906 -0.0083 0.1364
vn -0.9950 0.0853 0.0519
vn -0.9988 0.0494 0.0047
vn -0.9988 -0.0488 0.0028
vn -0.9985 -0.0029 0.0540
vn 0.7675 -0.6303 0.1170
vn 0.7675 -0.6303 -0.1170
vn 0.8487 -0.0076 -0.5288
vn 0.8487 -0.0076 0.5288
vn -0.9961 -0.0017 -0.0882
vn -0.9975 -0.0376 -0.0593
vn -0.9980 0.0206 -0.0605
vn -0.9974 -0.0171 -0.0698
vn 0.9987 -0.0015 -0.0515
vn 0.9986 -0.0021 0.0537
vn -0.9986 0.0035 0.0530
vn -0.9899 0.1415 0.0110
vn -0.9948 -0.0292 -0.0978
vn -0.8337 -0.5336 0.1419
vn -0.8139 0.0798 0.5755
vn -0.9986 0.0032 0.0526
vn -0.9987 0.0311 0.0400
vn -0.9998 -0.0078 0.0155
vn -0.9850 -0.1526 0.0804
vn -0.9793 0.0110 0.2024
vn -0.9750 -0.0283 0.2205
vn -0.9811 0.1696 0.0927
vn -0.9921 0.0400 -0.1193
vn -0.9872 -0.1587 -0.0161
vn -0.9986 -0.0039 -0.0536
vn -0.9986 0.0022 0.0537
vn -0.9977 -0.0228 0.0646
vn -0.9976 0.0154 0.0675
vn -0.9975 -0.0385 0.0595
vn -0.9961 -0.0011 0.0883
vn -0.9743 -0.0225 0.2241
vn -0.9804 0.1700 0.0998
vn -0.9999 0.0142 -0.0071
vn -0.9984 -0.0515 0.0244
vn -0.9936 -0.0456 0.1033
vn -0.9951 0.0614 0.0772
vn -0.9990 0.0197 0.0405
vn -0.9993 -0.0162 0.0324
vn -0.9935 -0.0034 -0.1141
vn -0.9967 -0.0626 -0.0510
vn -0.9995 -0.0280 -0.0171
vn -0.9992 0.0332 -0.0210
vn -0.9985 -0.0018 -0.0543
vn -0.9986 0.0032 -0.0526
vn -0.9938 -0.0054 0.1112
vn -0.9959 0.0594 0.0675
vn -0.9987 0.0009 0.0518
vn -0.9986 0.0017 0.0521
vn -0.9986 0.0035 -0.0530
vn 0.9985 -0.0006 -0.0544
vn 0.9986 0.0048 0.0531
vn -0.9986 0.0028 -0.0534
vn -0.9982 -0.0527 -0.0289
vn -0.9999 0.0154 0.0065
vn -0.9811 0.1696 -0.0927
vn -0.9750 -0.0283 -0.2205
vn 0.9985 0.0006 0.0545
vn 0.9987 0.0007 0.0509
vn -0.9965 -0.0831 -0.0000
vn 0.9985 0.0026 0.0539
vn -0.9985 0.0015 -0.0541
vn 0.9987 -0.0006 -0.0510
vn -0.9957 0.0256 -0.0888
vn -0.9969 -0.0403 -0.0668
vn -0.9987 0.0010 -0.0513
vn -0.9987 0.0018 -0.0511
vn -0.9986 -0.0053 0.0531
vn -0.9986 -0.0039 0.0536
vn -0.9986 0.0026 -0.0523
vn -0.9986 0.0016 -0.0523
vn -0.9959 0.0597 -0.0685
vn -0.9938 -0.0064 -0.1112
vn 0.9986 0.0036 0.0536
vn -0.9985 -0.0018 0.0543
vn 0.9985 0.0017 0.0542
vn 0.9986 -0.0032 0.0530
vn -0.9986 0.0028 0.0534
vn 0.9986 -0.0026 0.0533
vn 0.9985 -0.0014 0.0540
vn -0.9985 0.0015 0.0541
vn 0.9986 0.0048 -0.0531
vn 0.9986 -0.0032 -0.0530
vn 0.9986 -0.0035 0.0525
vn 0.9987 -0.0022 -0.0518
vn 0.9986 0.0036 -0.0536
vn 0.9986 -0.0021 -0.0537
vn -0.9993 -0.0177 -0.0340
vn -0.9993 0.0171 -0.0347
vn -0.9965 0.0659 -0.0517
vn -0.9931 -0.0065 -0.1172
vn 0.9985 0.0017 -0.0542
vn 0.9986 -0.0035 -0.0525
vn -0.9985 -0.0007 0.0546
vn 0.9967 0.0816 0.0000
vn 0.9987 -0.0006 0.0510
vn 0.9986 -0.0026 -0.0533
vn -0.9985 0.0007 0.0545
vn 0.9985 0.0006 -0.0545
vn 0.9985 -0.0014 -0.0540
vn 0.9987 0.0007 -0.0509
vn -0.0134 -0.9999 -0.0001
vn -0.0133 -0.9999 0.0000
vn -0.7605 0.6493 0.0000
vn -0.7460 0.6492 -0.1486
vn -0.0134 -0.9999 0.0001
vn -0.7460 0.6492 0.1486
vn -0.0135 -0.9999 0.0004
vn -0.7029 0.6488 0.2915
vn -0.0106 -0.9999 0.0035
vn -0.0095 -0.9999 0.0035
vn 0.1507 0.6404 0.7531
vn 0.0009 0.6419 0.7668
vn -0.0135 -0.9999 0.0008
vn -0.6329 0.6481 0.4235
vn -0.0134 -0.9999 0.0014
vn -0.5386 0.6472 0.5395
vn -0.0086 -1.0000 0.0032
vn -0.0078 -1.0000 0.0028
vn 0.4286 0.6377 0.6400
vn 0.2952 0.6390 0.7103
vn -0.0130 -0.9999 0.0021
vn -0.4234 0.6460 0.6351
vn -0.0124 -0.9999 0.0027
vn -0.2917 0.6447 0.7066
vn -0.0115 -0.9999 0.0032
vn -0.1485 0.6433 0.7511
vn -0.0068 -1.0000 0.0017
vn -0.0066 -1.0000 0.0011
vn 0.7139 0.6350 0.2953
vn 0.6422 0.6357 0.4284
vn -0.0064 -1.0000 0.0005
vn 0.7581 0.6345 0.1506
vn -0.0064 -1.0000 0.0000
vn 0.7730 0.6344 0.0000
vn 0.0000 -0.6857 -0.7279
vn 0.1420 -0.6857 -0.7139
vn 0.2786 -0.6857 -0.6725
vn 0.4044 -0.6857 -0.6052
vn 0.5147 -0.6857 -0.5147
vn 0.6052 -0.6857 -0.4044
vn 0.6725 -0.6857 -0.2785
vn 0.7139 -0.6857 -0.1420
vn 0.7279 -0.6857 0.0000
vn 0.7139 -0.6857 0.1420
vn 0.0000 0.0000 0.0000
vn 0.6725 -0.6857 0.2786
vn 0.6052 -0.6857 0.4044
vn 0.5147 -0.6857 0.5147
vn 0.4044 -0.6857 0.6052
vn 0.2785 -0.6857 0.6725
vn 0.1420 -0.6857 0.7139
vn 0.0000 -0.6857 0.7279
vn -0.1420 -0.6857 0.7139
vn -0.2785 -0.6857 0.6725
vn -0.4044 -0.6857 0.6052
vn -0.5147 -0.6857 0.5147
vn -0.6052 -0.6857 0.4044
vn -0.6725 -0.6857 0.2786
vn -0.7139 -0.6857 0.1420
vn -0.7279 -0.6857 0.0000
vn -0.7139 -0.6857 -0.1420
vn -0.6725 -0.6857 -0.2785
vn -0.6052 -0.6857 -0.4044
vn -0.5147 -0.6857 -0.5147
vn -0.4044 -0.6857 -0.6052
vn -0.2786 -0.6857 -0.6725
vn 0.7581 0.6345 -0.1506
vn -0.1420 -0.6857 -0.7139
vn 0.5458 0.6366 0.5449
vn 0.7139 0.6350 -0.2953
vn 0.6422 0.6357 -0.4284
vn 0.5458 0.6366 -0.5449
vn 0.4286 0.6377 -0.6400
vn 0.2952 0.6390 -0.7103
vn 0.1507 0.6404 -0.7531
vn 0.0009 0.6419 -0.7668
vn -0.1485 0.6433 -0.7511
vn -0.2917 0.6447 -0.7066
vn -0.4234 0.6460 -0.6351
vn -0.5386 0.6472 -0.5395
vn -0.6329 0.6481 -0.4235
vn -0.7029 0.6488 -0.2915
usemtl None
s off
f 94/1/1 262/2/1 263/3/1 95/4/1
f 16/5/2 202/6/2 224/7/2 44/8/2
f 18/9/3 206/10/4 283/11/5 22/12/6
f 13/13/7 198/14/7 199/15/7 14/16/7
f 11/17/8 197/18/8 195/19/8 9/20/8
f 3/21/9 4/22/9 30/23/9 29/24/9
f 171/25/10 196/26/10 193/27/10 169/28/10
f 14/16/7 199/15/7 202/6/7 16/5/7
f 91/29/11 259/30/11 258/31/11 90/32/11
f 169/28/10 193/27/10 194/33/10 170/34/10
f 77/35/12 252/36/12 251/37/12 75/38/12
f 89/39/13 257/40/13 247/41/13 70/42/13
f 86/43/14 293/44/14 276/45/14 88/46/14
f 75/38/15 251/37/15 250/47/15 73/48/15
f 173/49/16 281/50/16 282/51/16 174/52/16
f 1/53/17 190/54/17 191/55/17 2/56/17
f 69/57/18 246/58/18 249/59/18 74/60/18
f 172/61/16 201/62/16 281/50/16 173/49/16
f 84/63/19 292/64/19 293/65/19 86/66/19
f 72/67/20 69/57/20 246/58/20 248/68/20
f 82/69/21 274/70/21 292/64/21 84/63/21
f 68/71/22 245/72/22 242/73/22 65/74/22
f 57/75/23 60/76/23 59/77/23 58/78/23
f 60/76/24 280/79/24 244/80/24 59/77/24
f 47/81/25 228/82/25 227/83/25 46/84/25
f 57/75/26 237/85/26 241/86/26 63/87/26
f 69/57/27 74/60/27 73/48/27 72/67/27
f 74/60/28 76/88/28 75/38/28 73/48/28
f 76/88/29 78/89/29 77/35/29 75/38/29
f 78/90/30 80/91/30 79/92/30 77/93/30
f 80/91/31 64/94/31 63/87/31 79/92/31
f 55/95/32 82/69/32 81/96/32 54/97/32
f 82/69/33 84/63/33 83/98/33 81/96/33
f 84/63/34 86/66/34 85/99/34 83/98/34
f 86/43/35 88/46/35 87/100/35 85/101/35
f 88/46/36 58/78/36 59/77/36 87/100/36
f 78/90/37 291/102/37 278/103/37 80/91/37
f 76/88/38 290/104/38 291/105/38 78/89/38
f 65/74/22 242/73/22 243/106/22 66/107/22
f 19/108/39 20/109/39 207/110/39 225/111/39
f 74/60/40 249/59/40 290/104/40 76/88/40
f 36/112/41 279/113/42 201/62/43 172/61/44
f 73/48/45 250/47/45 248/68/45 72/67/45
f 61/114/46 239/115/46 240/116/46 62/117/46
f 66/107/47 243/106/47 260/118/47 92/119/47
f 70/42/48 247/41/48 265/120/48 71/121/48
f 58/78/26 238/122/26 237/85/26 57/75/26
f 56/123/49 236/124/49 234/125/49 53/126/49
f 62/117/46 240/116/46 275/127/46 67/128/46
f 79/92/50 203/129/50 252/130/50 77/93/50
f 63/87/23 64/94/23 60/76/23 57/75/23
f 45/131/51 97/132/51 98/133/51 46/134/51
f 52/135/51 104/136/51 103/137/51 51/138/51
f 46/134/51 98/133/51 99/139/51 47/140/51
f 38/141/52 90/32/52 89/39/52 37/142/52
f 43/143/52 95/144/52 96/145/52 44/146/52
f 15/147/51 67/128/51 104/136/51 52/135/51
f 9/148/51 61/114/51 62/117/51 11/149/51
f 47/150/51 99/151/51 100/152/51 48/153/51
f 11/149/51 62/117/51 67/128/51 15/147/51
f 1/154/52 53/126/52 93/155/52 41/156/52
f 48/153/51 100/152/51 61/114/51 9/148/51
f 39/157/52 91/29/52 90/32/52 38/141/52
f 44/146/52 96/145/52 68/71/52 16/158/52
f 2/159/53 56/123/53 53/126/53 1/154/53
f 41/156/52 93/155/52 94/1/52 42/160/52
f 49/161/51 101/162/51 56/123/51 2/159/51
f 40/163/52 92/119/52 91/164/52 39/165/52
f 19/166/51 71/121/51 97/132/51 45/131/51
f 37/142/52 89/39/52 70/42/52 20/167/52
f 14/168/52 65/74/52 66/107/52 13/169/52
f 50/170/51 102/171/51 101/162/51 49/161/51
f 20/167/54 70/42/54 71/121/54 19/166/54
f 16/158/52 68/71/52 65/74/52 14/168/52
f 42/160/52 94/1/52 95/4/52 43/172/52
f 51/173/51 103/174/51 102/171/51 50/170/51
f 13/169/52 66/107/52 92/119/52 40/163/52
f 10/175/55 5/176/55 8/177/55 183/178/55 181/179/55 182/180/55 7/181/55 6/182/55 12/183/55
f 175/184/55 169/185/55 170/186/55 176/187/55
f 177/188/55 171/189/55 169/185/55 175/184/55
f 178/190/55 172/191/55 173/192/55 179/193/55
f 179/193/55 173/192/55 174/194/55 180/195/55
f 185/196/55 179/197/55 180/198/55 186/199/55
f 184/200/55 178/201/55 179/197/55 185/196/55
f 188/202/55 177/203/55 175/204/55 187/205/55
f 187/205/55 175/204/55 176/206/55 189/207/55
f 29/208/56 30/209/57 32/210/58 34/211/59 36/212/60 172/191/61 178/190/62 184/213/63 7/214/64 182/215/65 181/216/66 183/217/67 8/218/68 189/219/69 176/187/70 170/186/71 35/220/72 33/221/60 31/222/73
f 17/223/74 18/224/75 22/225/76 24/226/77 26/227/78 28/228/79 171/189/80 177/188/81 188/229/82 10/230/83 12/231/84 186/232/85 180/195/86 174/194/87 27/233/88 25/234/79 23/235/78 21/236/89
f 7/237/55 184/200/55 185/196/55 6/238/55
f 6/238/55 185/196/55 186/199/55 12/239/55
f 5/240/55 187/205/55 189/207/55 8/241/55
f 10/242/55 188/202/55 187/205/55 5/240/55
f 190/54/90 192/243/90 212/244/90 191/55/90
f 195/19/91 197/18/91 193/245/91 196/246/91
f 282/247/92 281/248/92 199/15/92 198/14/92
f 197/18/91 200/249/91 194/250/91 193/245/91
f 281/248/92 201/251/92 202/6/92 199/15/92
f 205/252/90 206/253/90 225/111/90 207/110/90
f 207/110/93 205/252/93 208/254/93 217/255/93
f 217/255/94 208/254/94 209/256/94 218/257/94
f 218/257/95 209/256/95 210/258/95 219/259/95
f 219/259/96 210/258/96 211/260/96 220/261/96
f 220/261/97 211/260/97 282/247/97 198/14/97
f 192/243/98 190/54/98 221/262/98 287/263/98
f 287/263/99 221/262/99 222/264/99 288/265/99
f 288/265/100 222/264/100 223/266/100 289/267/100
f 289/267/101 223/266/101 224/7/101 279/268/101
f 279/268/102 224/7/102 202/6/102 201/251/102
f 206/253/103 225/111/103 226/269/103 283/270/103
f 283/270/104 226/269/104 227/83/104 284/271/104
f 284/271/105 227/83/105 228/82/105 285/272/105
f 285/273/106 228/82/106 229/274/106 286/275/106
f 286/275/107 229/274/107 195/19/107 196/246/107
f 191/55/108 212/244/108 213/276/108 230/277/108
f 230/277/109 213/276/109 214/278/109 231/279/109
f 231/279/110 214/278/110 215/280/110 232/281/110
f 232/281/111 215/282/111 216/283/111 233/284/111
f 233/284/112 216/283/112 194/250/112 200/249/112
f 234/125/113 236/124/113 273/285/113 235/286/113
f 239/115/92 241/287/92 237/288/92 240/116/92
f 277/289/91 243/106/91 242/73/91 280/79/91
f 240/116/92 237/288/92 238/290/92 275/127/92
f 280/79/91 242/73/91 245/72/91 244/80/91
f 246/58/90 248/68/90 265/120/90 247/41/90
f 247/41/108 257/40/108 249/59/108 246/58/108
f 257/40/109 258/31/109 290/104/109 249/59/109
f 258/31/114 259/30/114 291/291/114 290/104/114
f 259/292/111 260/118/111 278/103/111 291/293/111
f 260/118/112 243/106/112 277/289/112 278/103/112
f 235/286/103 253/294/103 261/295/103 234/125/103
f 253/294/104 254/296/104 262/2/104 261/295/104
f 254/296/105 255/297/105 263/3/105 262/2/105
f 255/298/106 256/299/106 264/300/106 263/301/106
f 256/299/115 244/80/115 245/72/115 264/300/115
f 248/68/98 250/47/98 266/302/98 265/120/98
f 250/47/99 251/37/99 267/303/99 266/302/99
f 251/37/116 252/36/116 268/304/116 267/303/116
f 252/305/101 203/306/101 204/307/101 268/308/101
f 203/306/102 241/287/102 239/115/102 204/307/102
f 236/124/93 269/309/93 274/70/93 273/285/93
f 269/309/94 270/310/94 292/64/94 274/70/94
f 270/310/95 271/311/95 293/65/95 292/64/95
f 271/312/96 272/313/96 276/314/96 293/315/96
f 272/313/97 275/127/97 238/290/97 276/314/97
f 15/316/8 200/249/8 197/18/8 11/17/8
f 22/12/117 283/11/118 284/317/119 24/318/120
f 83/98/121 254/296/121 253/294/121 81/96/121
f 96/145/122 264/300/122 245/72/122 68/71/122
f 24/318/123 284/317/124 285/319/125 26/320/126
f 174/52/127 282/51/128 211/321/129 27/322/130
f 98/133/131 267/303/131 268/304/131 99/139/131
f 17/323/132 18/9/133 206/10/134 205/324/135
f 26/320/136 285/319/137 286/325/138 28/326/139
f 87/100/140 256/299/140 255/327/140 85/101/140
f 43/328/141 223/266/141 222/264/141 42/329/141
f 101/162/142 269/309/142 236/124/142 56/123/142
f 21/330/143 208/331/144 205/324/145 17/323/146
f 4/332/147 192/243/147 287/263/147 30/333/147
f 23/334/148 209/335/149 208/331/150 21/330/151
f 30/336/152 287/337/153 288/338/154 32/339/155
f 90/32/156 258/31/156 257/40/156 89/39/156
f 103/174/157 271/311/157 270/310/157 102/171/157
f 25/340/158 210/341/159 209/335/160 23/334/161
f 32/339/162 288/338/163 289/342/164 34/343/165
f 27/322/166 211/321/167 210/341/168 25/340/169
f 170/34/170 194/33/171 216/344/172 35/345/173
f 92/119/174 260/118/174 259/292/174 91/164/174
f 29/346/175 213/276/175 212/244/175 3/347/175
f 34/343/176 289/342/177 279/113/178 36/112/179
f 53/126/180 234/125/180 261/295/180 93/155/180
f 52/348/181 233/284/181 200/249/181 15/316/181
f 20/109/182 207/110/182 217/255/182 37/349/182
f 93/155/183 261/295/183 262/2/183 94/1/183
f 31/350/184 214/351/185 213/352/186 29/353/187
f 40/354/188 220/261/188 198/14/188 13/13/188
f 63/87/189 241/86/189 203/129/189 79/92/189
f 3/347/190 212/244/190 192/243/190 4/332/190
f 38/355/191 218/257/191 219/259/191 39/356/191
f 95/144/192 263/301/192 264/300/192 96/145/192
f 59/77/193 244/80/193 256/299/193 87/100/193
f 35/345/194 216/344/195 215/357/196 33/358/197
f 71/121/198 265/120/198 266/302/198 97/132/198
f 97/132/199 266/302/199 267/303/199 98/133/199
f 33/358/200 215/357/201 214/351/202 31/350/203
f 37/349/204 217/255/204 218/257/204 38/355/204
f 99/151/205 268/308/205 204/307/205 100/152/205
f 39/356/206 219/259/206 220/261/206 40/354/206
f 41/359/207 221/262/207 190/54/207 1/53/207
f 102/171/208 270/310/208 269/309/208 101/162/208
f 42/329/209 222/264/209 221/262/209 41/359/209
f 44/8/210 224/7/210 223/266/210 43/328/210
f 104/136/211 272/313/211 271/312/211 103/137/211
f 45/360/212 226/269/212 225/111/212 19/108/212
f 2/56/213 191/55/213 230/277/213 49/361/213
f 55/95/214 273/285/214 274/70/214 82/69/214
f 85/99/215 255/362/215 254/296/215 83/98/215
f 46/84/216 227/83/216 226/269/216 45/360/216
f 50/363/217 231/279/217 232/281/217 51/364/217
f 28/326/218 286/325/219 196/26/220 171/25/221
f 48/365/222 229/274/222 228/82/222 47/81/222
f 81/96/223 253/294/223 235/286/223 54/97/223
f 100/152/224 204/307/224 239/115/224 61/114/224
f 54/97/225 235/286/225 273/285/225 55/95/225
f 88/46/226 276/45/226 238/122/226 58/78/226
f 49/361/227 230/277/227 231/279/227 50/363/227
f 67/128/228 275/127/228 272/313/228 104/136/228
f 9/20/229 195/19/229 229/274/229 48/365/229
f 51/364/230 232/281/230 233/284/230 52/348/230
f 64/94/24 277/289/24 280/79/24 60/76/24
f 80/91/231 278/103/231 277/289/231 64/94/231
s 1
f 123/366/232 121/367/233 302/368/234 303/369/235
f 121/367/233 119/370/236 301/371/237 302/368/234
f 119/370/236 117/372/238 300/373/239 301/371/237
f 106/374/240 167/375/241 324/376/242 294/377/243
f 117/372/238 115/378/244 299/379/245 300/373/239
f 115/378/244 113/380/246 298/381/247 299/379/245
f 165/382/248 163/383/249 322/384/250 323/385/251
f 113/380/246 111/386/252 297/387/253 298/381/247
f 111/386/252 109/388/254 296/389/255 297/387/253
f 109/388/254 107/390/256 295/391/257 296/389/255
f 159/392/258 157/393/259 320/394/260 321/395/261
f 107/390/256 106/396/240 294/397/243 295/391/257
f 157/393/259 155/398/262 319/399/263 320/394/260
f 155/398/262 153/400/264 318/401/265 319/399/263
f 105/402/266 106/396/240 107/390/256 108/403/267
f 108/403/267 107/390/256 109/388/254 110/404/268
f 110/404/268 109/388/254 111/386/252 112/405/269
f 112/405/269 111/386/252 113/380/246 114/406/270
f 114/406/270 113/380/246 115/378/244 116/407/271
f 116/407/271 115/378/244 117/372/238 118/408/272
f 118/408/272 117/372/238 119/370/236 120/409/273
f 120/409/273 119/370/236 121/367/233 122/410/274
f 122/410/274 121/367/233 123/366/232 124/411/275
f 124/411/275 123/366/232 125/412/276 126/413/277
f 126/413/277 125/412/276 127/414/276 128/415/278
f 128/415/278 127/414/276 129/416/276 130/417/279
f 130/417/279 129/416/276 131/418/276 132/419/280
f 132/419/280 131/418/276 133/420/276 134/421/281
f 134/421/281 133/420/276 135/422/276 136/423/282
f 136/423/282 135/422/276 137/424/276 138/425/283
f 138/425/283 137/424/276 139/426/276 140/427/284
f 140/427/284 139/426/276 141/428/276 142/429/285
f 142/429/285 141/428/276 143/430/276 144/431/286
f 144/431/286 143/430/276 145/432/276 146/433/287
f 146/433/287 145/432/276 147/434/276 148/435/288
f 148/435/288 147/434/276 149/436/276 150/437/289
f 150/437/289 149/436/276 151/438/276 152/439/290
f 152/439/290 151/438/276 153/400/264 154/440/291
f 154/440/291 153/400/264 155/398/262 156/441/292
f 156/441/292 155/398/262 157/393/259 158/442/293
f 158/442/293 157/393/259 159/392/258 160/443/294
f 160/443/294 159/392/258 161/444/276 162/445/295
f 162/445/295 161/444/276 163/383/249 164/446/296
f 164/446/296 163/383/249 165/382/248 166/447/297
f 153/400/264 151/438/276 317/448/298 318/401/265
f 166/447/297 165/382/248 167/375/241 168/449/299
f 168/449/299 167/375/241 106/374/240 105/450/266
f 105/451/266 108/452/267 110/453/268 112/454/269 114/455/270 116/456/271 118/457/272 120/458/273 122/459/274 124/460/275 126/461/277 128/462/278 130/463/279 132/464/280 134/465/281 136/466/282 138/467/283 140/468/284 142/469/285 144/470/286 146/471/287 148/472/288 150/473/289 152/474/290 154/475/291 156/476/292 158/477/293 160/478/294 162/479/295 164/480/296 166/481/297 168/482/299
f 295/483/257 294/484/243 324/485/242 323/486/251 322/487/250 325/488/300 321/489/261 320/490/260 319/491/263 318/492/265 317/493/298 316/494/301 315/495/302 314/496/303 313/497/304 312/498/305 311/499/306 310/500/307 309/501/308 308/502/309 307/503/310 306/504/311 305/505/312 304/506/313 303/507/235 302/508/234 301/509/237 300/510/239 299/511/245 298/512/247 297/513/253 296/514/255
f 125/412/276 123/366/232 303/369/235 304/515/313
f 127/414/276 125/412/276 304/515/313 305/516/312
f 129/416/276 127/414/276 305/516/312 306/517/311
f 137/424/276 135/422/276 309/518/308 310/519/307
f 131/418/276 129/416/276 306/517/311 307/520/310
f 133/420/276 131/418/276 307/520/310 308/521/309
f 167/375/241 165/382/248 323/385/251 324/376/242
f 135/422/276 133/420/276 308/521/309 309/518/308
f 141/428/276 139/426/276 311/522/306 312/523/305
f 139/426/276 137/424/276 310/519/307 311/522/306
f 161/444/276 159/392/258 321/395/261 325/524/300
f 143/430/276 141/428/276 312/523/305 313/525/304
f 163/383/249 161/444/276 325/524/300 322/384/250
f 145/432/276 143/430/276 313/525/304 314/526/303
f 147/434/276 145/432/276 314/526/303 315/527/302
f 149/436/276 147/434/276 315/527/302 316/528/301
f 151/438/276 149/436/276 316/528/301 317/448/298
