# Blender v3.6.3 OBJ File: ''
# www.blender.org
mtllib tablet.mtl
o Cube_Cube.001
v 0.658304 -0.020287 0.096345
v 0.658304 0.020287 0.096345
v 0.658304 0.020287 0.289035
v 0.658304 -0.020287 0.289035
v 0.000000 -0.020287 -0.388213
v 0.000000 0.020287 -0.388213
v 0.568682 0.020287 -0.388213
v 0.568682 -0.020287 -0.388213
v 0.658304 0.020287 -0.289035
v 0.658304 -0.020287 -0.289035
v 0.632054 -0.020287 -0.359165
v 0.632054 0.020287 -0.359165
v 0.568682 0.020287 0.388213
v 0.568682 -0.020287 0.388213
v 0.632054 -0.020287 0.359165
v 0.632054 0.020287 0.359165
v 0.000000 -0.020287 0.388213
v 0.658304 -0.020287 -0.096345
v 0.615213 0.020287 -0.340528
v 0.636300 0.020287 -0.284192
v 0.564305 0.020287 -0.363863
v 0.615213 0.020287 0.340528
v 0.564305 0.020287 0.363863
v 0.636300 0.020287 0.284192
v 0.636300 0.020287 0.094731
v 0.000000 0.020287 -0.363863
v 0.564305 0.004851 -0.363863
v 0.615213 0.004851 -0.340528
v 0.000000 0.020287 0.363863
v 0.564305 0.004851 0.363863
v 0.000000 0.004851 0.363863
v 0.615213 0.004851 0.340528
v 0.636300 0.020287 -0.094731
v 0.636300 0.004851 -0.284192
v 0.636300 0.004851 -0.094731
v 0.636300 0.004851 0.284192
v 0.658304 0.030262 0.096345
v 0.636300 0.030262 0.094731
v 0.636300 0.004851 0.094731
v 0.658304 0.020287 -0.096345
v 0.658304 0.030262 -0.096345
v 0.658304 0.030262 -0.096345
v 0.669927 0.027340 -0.096345
v 0.674741 0.020287 -0.096345
v 0.674741 0.020287 -0.096345
v 0.636300 0.030262 -0.094731
v 0.000000 0.004851 -0.363863
v 0.000000 0.020287 0.388213
v 0.674741 -0.001502 -0.096345
v 0.669927 -0.014785 -0.096345
v 0.658304 -0.020287 -0.096345
v 0.674741 0.020287 0.096345
v 0.674741 0.020287 0.096345
v 0.669927 0.027340 0.096345
v 0.658304 0.030262 0.096345
v 0.674741 -0.001502 0.096345
v 0.658304 -0.020287 0.096345
v 0.669927 -0.014785 0.096345
v -0.658304 -0.020287 0.096345
v -0.658304 -0.020287 0.289035
v -0.658304 0.020287 0.289035
v -0.658304 0.020287 0.096345
v -0.568682 -0.020287 -0.388213
v -0.568682 0.020287 -0.388213
v -0.658304 0.020287 -0.289035
v -0.632054 0.020287 -0.359165
v -0.632054 -0.020287 -0.359165
v -0.658304 -0.020287 -0.289035
v -0.568682 0.020287 0.388213
v -0.632054 0.020287 0.359165
v -0.632054 -0.020287 0.359165
v -0.568682 -0.020287 0.388213
v -0.658304 -0.020287 -0.096345
v -0.615213 0.020287 -0.340528
v -0.636300 0.020287 -0.284192
v -0.564305 0.020287 -0.363863
v -0.615213 0.020287 0.340528
v -0.564305 0.020287 0.363863
v -0.636300 0.020287 0.284192
v -0.636300 0.020287 0.094731
v -0.615213 0.004851 -0.340528
v -0.564305 0.004851 -0.363863
v -0.564305 0.004851 0.363863
v -0.615213 0.004851 0.340528
v -0.636300 0.020287 -0.094731
v -0.636300 0.004851 -0.094731
v -0.636300 0.004851 -0.284192
v -0.636300 0.004851 0.284192
v -0.636300 0.030262 0.094731
v -0.658304 0.030262 0.096345
v -0.636300 0.004851 0.094731
v -0.658304 0.020287 -0.096345
v -0.674741 0.020287 -0.096345
v -0.674741 0.020287 -0.096345
v -0.669927 0.027340 -0.096345
v -0.658304 0.030262 -0.096345
v -0.658304 0.030262 -0.096345
v -0.636300 0.030262 -0.094731
v -0.658304 -0.020287 -0.096345
v -0.669927 -0.014785 -0.096345
v -0.674741 -0.001502 -0.096345
v -0.658304 0.030262 0.096345
v -0.669927 0.027340 0.096345
v -0.674741 0.020287 0.096345
v -0.674741 0.020287 0.096345
v -0.674741 -0.001502 0.096345
v -0.669927 -0.014785 0.096345
v -0.658304 -0.020287 0.096345
vt 0.357945 0.754304
vt 0.357945 0.492112
vt 0.422411 0.492112
vt 0.422411 0.754304
vt 0.715890 0.711789
vt 0.456132 0.711789
vt 0.456132 0.499267
vt 0.715890 0.499267
vt 0.293479 0.492112
vt 0.293479 0.754304
vt 0.270017 0.754223
vt 0.270017 0.492030
vt 0.456132 0.475584
vt 0.715890 0.475584
vt 0.000000 0.940758
vt 0.259759 0.940758
vt 0.259759 0.964441
vt 0.000000 0.964441
vt 0.445873 0.492030
vt 0.445873 0.754223
vt 0.000000 0.246015
vt 0.259759 0.246015
vt 0.259759 0.458538
vt 0.250040 0.482220
vt 0.226578 0.492030
vt 0.162112 0.492030
vt 0.097646 0.492030
vt 0.033181 0.492030
vt 0.009718 0.482220
vt 0.000000 0.458538
vt 0.341992 0.016104
vt 0.323144 0.008223
vt 0.324764 0.000000
vt 0.348227 0.009810
vt 0.349799 0.035128
vt 0.357945 0.033493
vt 0.373899 0.016104
vt 0.366092 0.035128
vt 0.357945 0.033493
vt 0.367664 0.009810
vt 0.392746 0.008223
vt 0.391126 0.000000
vt 0.456132 0.008223
vt 0.455592 0.000000
vt 0.349799 0.246015
vt 0.357945 0.246015
vt 0.699597 0.459823
vt 0.699597 0.440798
vt 0.798422 0.440798
vt 0.798422 0.459823
vt 0.798422 0.229912
vt 0.798422 0.019025
vt 0.897247 0.019025
vt 0.897247 0.229912
vt 0.798422 0.000000
vt 0.897247 0.000000
vt 0.333875 0.837311
vt 0.333875 0.773329
vt 0.432696 0.773329
vt 0.432696 0.837311
vt 0.333940 0.984299
vt 0.333875 0.965274
vt 0.432696 0.965274
vt 0.432761 0.984299
vt 0.333940 0.754304
vt 0.432761 0.754304
vt 0.730115 0.540013
vt 0.721973 0.540271
vt 0.719971 0.475842
vt 0.728114 0.475584
vt 0.333875 0.901293
vt 0.432696 0.901293
vt 0.259759 0.008223
vt 0.260299 0.000000
vt 0.357945 0.492112
vt 0.357945 0.754304
vt 0.752483 0.540271
vt 0.754485 0.475842
vt 0.754485 0.475842
vt 0.758199 0.494849
vt 0.758565 0.540463
vt 0.758565 0.540463
vt 0.261871 0.556557
vt 0.261871 0.492576
vt 0.270017 0.492030
vt 0.270017 0.557102
vt 0.270017 0.901293
vt 0.270017 0.837311
vt 0.744340 0.540013
vt 0.746342 0.475584
vt 0.699597 0.229912
vt 0.798422 0.229912
vt 0.366092 0.246015
vt 0.357945 0.246015
vt 0.000000 0.728236
vt 0.259759 0.728236
vt 0.744340 0.802344
vt 0.754193 0.681200
vt 0.749746 0.766941
vt 0.744340 0.802344
vt 0.715890 0.540463
vt 0.715890 0.540463
vt 0.716256 0.494849
vt 0.719971 0.475842
vt 0.259759 0.492030
vt 0.259759 0.492030
vt 0.259759 0.492030
vt 0.259759 0.492030
vt 0.897247 0.140802
vt 0.897247 0.000000
vt 0.961712 0.000000
vt 0.961712 0.140802
vt 0.730115 0.802344
vt 0.730115 0.802344
vt 0.724710 0.766941
vt 0.720263 0.681200
vt 0.961155 0.262142
vt 0.961155 0.327214
vt 0.915986 0.327214
vt 0.915986 0.262142
vt 0.897247 0.327214
vt 0.897247 0.262142
vt 0.259759 0.492030
vt 0.259759 0.492030
vt 0.259759 0.492030
vt 0.259759 0.492030
vt 0.961712 0.226623
vt 0.897247 0.226623
vt 0.961712 0.262142
vt 0.897247 0.262142
vt 0.259759 0.492030
vt 0.259759 0.492030
vt 0.259759 0.492030
vt 0.259759 0.492030
vt 0.860719 0.737858
vt 0.796253 0.737858
vt 0.796253 0.475665
vt 0.860719 0.475665
vt 0.715890 0.924312
vt 0.456132 0.924312
vt 0.925184 0.475665
vt 0.948647 0.475584
vt 0.948647 0.737777
vt 0.925184 0.737858
vt 0.456132 0.947995
vt 0.715890 0.947995
vt 0.000000 0.515713
vt 0.000000 0.492030
vt 0.259759 0.492030
vt 0.259759 0.515713
vt 0.772791 0.475584
vt 0.772791 0.737777
vt 0.000000 0.033493
vt 0.009718 0.009810
vt 0.033181 0.000000
vt 0.097646 0.000000
vt 0.162112 0.000000
vt 0.226578 0.000000
vt 0.250040 0.009810
vt 0.259759 0.033493
vt 0.341992 0.475927
vt 0.348227 0.482220
vt 0.324764 0.492030
vt 0.323144 0.483807
vt 0.349799 0.456902
vt 0.357945 0.458538
vt 0.373899 0.475927
vt 0.367664 0.482220
vt 0.357945 0.458538
vt 0.366092 0.456902
vt 0.392746 0.483807
vt 0.391126 0.492030
vt 0.456132 0.483807
vt 0.455592 0.492030
vt 0.699597 0.000000
vt 0.798422 0.000000
vt 0.798422 0.019025
vt 0.699597 0.019025
vt 0.897247 0.440798
vt 0.798422 0.440798
vt 0.897247 0.459823
vt 0.798422 0.459823
vt 0.901114 0.884846
vt 0.999935 0.884846
vt 0.999935 0.948828
vt 0.901114 0.948828
vt 0.901179 0.737858
vt 1.000000 0.737858
vt 0.999935 0.756883
vt 0.901114 0.756883
vt 1.000000 0.967853
vt 0.901179 0.967853
vt 0.758565 0.540013
vt 0.760567 0.475584
vt 0.768710 0.475842
vt 0.766708 0.540271
vt 0.999935 0.820865
vt 0.901114 0.820865
vt 0.260299 0.492030
vt 0.259759 0.483807
vt 0.860719 0.737858
vt 0.860719 0.475665
vt 0.736198 0.540271
vt 0.730115 0.540463
vt 0.730115 0.540463
vt 0.730481 0.494849
vt 0.734196 0.475842
vt 0.734196 0.475842
vt 0.454020 0.556557
vt 0.445873 0.557102
vt 0.445873 0.492030
vt 0.454020 0.492576
vt 0.837256 0.884846
vt 0.837256 0.820865
vt 0.742339 0.475584
vt 0.744340 0.540013
vt 0.744340 0.802344
vt 0.744340 0.802344
vt 0.738935 0.766941
vt 0.734488 0.681200
vt 0.768710 0.475842
vt 0.772425 0.494849
vt 0.772791 0.540463
vt 0.772791 0.540463
vt 0.259759 0.492030
vt 0.259759 0.492030
vt 0.259759 0.492030
vt 0.259759 0.492030
vt 0.837256 0.878659
vt 0.772791 0.878659
vt 0.772791 0.737858
vt 0.837256 0.737858
vt 0.768418 0.681200
vt 0.763971 0.766941
vt 0.758565 0.802344
vt 0.758565 0.802344
vt 0.961155 0.392286
vt 0.915986 0.392286
vt 0.915986 0.327214
vt 0.961155 0.327214
vt 0.897247 0.392286
vt 0.897247 0.327214
vt 0.259759 0.492030
vt 0.259759 0.492030
vt 0.259759 0.492030
vt 0.259759 0.492030
vt 0.837256 0.964481
vt 0.772791 0.964481
vt 0.837256 1.000000
vt 0.772791 1.000000
vt 0.259759 0.492030
vt 0.259759 0.492030
vt 0.259759 0.492030
vt 0.259759 0.492030
vn 1.0000 0.0000 0.0000
vn 0.0000 0.0000 -1.0000
vn 0.9365 0.0000 -0.3506
vn 0.4167 0.0000 -0.9090
vn 0.4167 0.0000 0.9090
vn 0.9365 0.0000 0.3506
vn 0.0000 -1.0000 0.0000
vn 0.0000 1.0000 -0.0000
vn -0.4167 0.0000 0.9090
vn -0.4167 0.0000 -0.9090
vn -1.0000 0.0000 0.0000
vn -0.9365 0.0000 -0.3506
vn -0.9365 0.0000 0.3506
vn -0.0732 0.0000 0.9973
vn -0.0732 0.0000 -0.9973
vn 0.0000 0.0000 1.0000
vn 17611439592529985536.0000 1090269647117686508435275776.0000 18013871624354378670931968.0000
vn 17841137465769667036446720.0000 0.0000 281751455506530041856.0000
vn 775911819168806619393818624.0000 73651750386127937599376772300800.0000 0.0000
vn 774317725332932934781370368.0000 73651750386127937599376772300800.0000 18496736707570211650347301076992.0000
vn 13.2659 1131649314716915859456.0000 279065508332621619509141176320.0000
vn 0.0000 0.0000 180694290664521728.0000
vn 4121434014616020582400.0000 73480244424676374398434803712.0000 0.0000
vn 11705891840.0000 0.0000 1102305944711597180059648.0000
vn 0.8259 0.5638 -0.0000
vn 0.2438 0.9698 -0.0000
vn 50760730320318377259281932091392.0000 50760735156021655717798630916096.0000 0.0000
vn 0.0000 12106727262784094692442112.0000 774848253692492821485846528.0000
vn 0.9402 -0.3407 0.0000
vn 0.4279 -0.9038 0.0000
vn 77782780475739643869298643959808.0000 19420942362778301434972552036352.0000 189357647370878005018624.0000
vn 3365.3328 13.3919 13632037453824.0000
vn 0.0732 0.0000 0.9973
vn 0.0732 0.0000 -0.9973
vn 71390009755837155544552578220032.0000 0.0000 12098714458327077105958912.0000
vn 16575935241672168447148032.0000 2954675763104031178752.0000 70368455197888870293805465600.0000
vn 0.0000 198225753253481323832809619456.0000 274834067216377315328.0000
vn 0.0000 17441305025841775453551984640.0000 12871901350474106798080.0000
vn 3141.9565 55903512.0000 0.0000
vn 0.0000 0.0000 17408233887533869706510336.0000
vn 0.0000 18305995416427147737169920.0000 71390009755837155544552578220032.0000
vn 0.0000 71462830656738878816256.0000 18759341123043107780920606720.0000
vn -0.8259 0.5637 -0.0000
vn -0.2438 0.9698 -0.0000
vn 272618137870036631552.0000 4756200085320290033093914394624.0000 0.0000
vn 184982557536662061056.0000 2958715773444759224320.0000 4436943406018046884099129344.0000
vn -0.9402 -0.3407 0.0000
vn -0.4279 -0.9038 0.0000
vn 17033493400017436672.0000 1090269647117686508435275776.0000 17443040495524230048168017920.0000
vn 4742491168757315041910040035328.0000 80539408410916040946801501100048384.0000 0.0000
usemtl Material.001
s 1
f 1/1/1 2/2/1 3/3/1 4/4/1
f 5/5/2 6/6/2 7/7/2 8/8/2
f 9/9/3 10/10/3 11/11/3 12/12/3
f 12/13/4 11/14/4 8/8/4 7/7/4
f 13/15/5 14/16/5 15/17/5 16/18/5
f 16/19/6 15/20/6 4/4/6 3/3/6
f 17/21/7 5/22/7 8/23/7 11/24/7 10/25/7 18/26/7 1/27/7 4/28/7 15/29/7 14/30/7
f 19/31/8 20/32/8 9/33/8 12/34/8
f 21/35/8 19/31/8 12/34/8 7/36/8
f 22/37/8 23/38/8 13/39/8 16/40/8
f 24/41/8 22/37/8 16/40/8 3/42/8
f 25/43/8 24/41/8 3/42/8 2/44/8
f 26/45/8 21/35/8 7/36/8 6/46/8
f 19/47/9 21/48/9 27/49/9 28/50/9
f 29/51/2 23/52/2 30/53/2 31/54/2
f 23/52/10 22/55/10 32/56/10 30/53/10
f 33/57/11 20/58/11 34/59/11 35/60/11
f 22/61/12 24/62/12 36/63/12 32/64/12
f 20/58/13 19/65/13 28/66/13 34/59/13
f 25/67/14 2/68/14 37/69/14 38/70/14
f 24/62/11 25/71/11 39/72/11 36/63/11
f 25/71/11 33/57/11 35/60/11 39/72/11
f 20/32/8 33/73/8 40/74/8 9/33/8
f 10/10/1 9/9/1 40/75/1 18/76/1
f 40/77/2 41/78/2 42/79/2 43/80/2 44/81/2 45/82/2
f 46/83/8 38/84/8 37/85/8 41/86/8
f 33/57/11 25/71/11 38/87/11 46/88/11
f 40/77/15 33/89/15 46/90/15 41/78/15
f 21/48/16 26/91/16 47/92/16 27/49/16
f 23/38/8 29/93/8 48/94/8 13/39/8
f 14/16/16 13/15/16 48/95/16 17/96/16
f 18/97/2 40/77/2 45/82/2 49/98/2 50/99/2 51/100/2
f 37/69/17 2/68/16 52/101/18 53/102/19 54/103/16 55/104/20
f 52/105/18 45/106/21 44/107/22 53/108/19
f 49/109/1 45/110/1 52/111/1 56/112/1
f 2/68/16 1/113/23 57/114/24 58/115/16 56/116/16 52/101/18
f 53/117/25 44/118/25 43/119/25 54/120/25
f 54/120/26 43/119/26 42/121/26 55/122/26
f 41/123/27 37/124/17 55/125/20 42/126/28
f 49/109/29 56/112/29 58/127/29 50/128/29
f 50/128/30 58/127/30 57/129/30 51/130/30
f 1/131/23 18/132/31 51/133/32 57/134/24
f 59/135/11 60/136/11 61/137/11 62/138/11
f 5/5/2 63/139/2 64/140/2 6/6/2
f 65/141/12 66/142/12 67/143/12 68/144/12
f 66/145/10 64/140/10 63/139/10 67/146/10
f 69/147/9 70/148/9 71/149/9 72/150/9
f 70/151/13 61/137/13 60/136/13 71/152/13
f 17/21/7 72/153/7 71/154/7 60/155/7 59/156/7 73/157/7 68/158/7 67/159/7 63/160/7 5/22/7
f 74/161/8 66/162/8 65/163/8 75/164/8
f 76/165/8 64/166/8 66/162/8 74/161/8
f 77/167/8 70/168/8 69/169/8 78/170/8
f 79/171/8 61/172/8 70/168/8 77/167/8
f 80/173/8 62/174/8 61/172/8 79/171/8
f 26/45/8 6/46/8 64/166/8 76/165/8
f 74/175/5 81/176/5 82/177/5 76/178/5
f 29/51/2 31/54/2 83/179/2 78/180/2
f 78/180/4 83/179/4 84/181/4 77/182/4
f 85/183/1 86/184/1 87/185/1 75/186/1
f 77/187/3 84/188/3 88/189/3 79/190/3
f 75/186/6 87/185/6 81/191/6 74/192/6
f 80/193/33 89/194/33 90/195/33 62/196/33
f 79/190/1 88/189/1 91/197/1 80/198/1
f 80/198/1 91/197/1 86/184/1 85/183/1
f 75/164/8 65/163/8 92/199/8 85/200/8
f 68/144/11 73/201/11 92/202/11 65/141/11
f 92/203/2 93/204/2 94/205/2 95/206/2 96/207/2 97/208/2
f 98/209/8 97/210/8 90/211/8 89/212/8
f 85/183/1 98/213/1 89/214/1 80/198/1
f 92/203/34 97/208/34 98/215/34 85/216/34
f 76/178/16 82/177/16 47/92/16 26/91/16
f 78/170/8 69/169/8 48/94/8 29/93/8
f 72/150/16 17/96/16 48/95/16 69/147/16
f 73/217/2 99/218/2 100/219/2 101/220/2 93/204/2 92/203/2
f 90/195/35 102/221/36 103/222/16 104/223/37 105/224/38 62/196/16
f 105/225/38 104/226/37 94/227/39 93/228/40
f 101/229/11 106/230/11 105/231/11 93/232/11
f 62/196/16 105/224/38 106/233/16 107/234/16 108/235/41 59/236/42
f 104/237/43 103/238/43 95/239/43 94/240/43
f 103/238/44 102/241/44 96/242/44 95/239/44
f 97/243/45 96/244/46 102/245/36 90/246/35
f 101/229/47 100/247/47 107/248/47 106/230/47
f 100/247/48 99/249/48 108/250/48 107/248/48
f 59/251/42 108/252/41 99/253/49 73/254/50
o Cube.001_Cube.003
v -0.636300 0.004851 -0.284192
v -0.636300 0.004851 -0.094731
v -0.636300 0.004851 0.094731
v -0.636300 0.004851 0.284192
v -0.615213 0.004851 0.340528
v -0.564305 0.004851 0.363863
v 0.000000 0.004851 0.363863
v 0.564305 0.004851 0.363863
v 0.615213 0.004851 0.340528
v 0.636300 0.004851 0.284192
v 0.636300 0.004851 0.094731
v 0.636300 0.004851 -0.094731
v 0.636300 0.004851 -0.284192
v 0.615213 0.004851 -0.340528
v 0.564305 0.004851 -0.363863
v 0.000000 0.004851 -0.363863
v -0.564305 0.004851 -0.363863
v -0.615213 0.004851 -0.340528
vt 0.672943 0.475584
vt 0.609557 0.475584
vt 0.546172 0.475584
vt 0.482786 0.475584
vt 0.463939 0.467704
vt 0.456132 0.448679
vt 0.456132 0.237792
vt 0.456132 0.026905
vt 0.463939 0.007880
vt 0.482786 0.000000
vt 0.546172 0.000000
vt 0.609557 0.000000
vt 0.672943 0.000000
vt 0.691790 0.007880
vt 0.699597 0.026905
vt 0.699597 0.237792
vt 0.699597 0.448679
vt 0.691790 0.467704
vn 0.0000 1.0000 -0.0000
usemtl Material.002
s 1
f 109/255/51 110/256/51 111/257/51 112/258/51 113/259/51 114/260/51 115/261/51 116/262/51 117/263/51 118/264/51 119/265/51 120/266/51 121/267/51 122/268/51 123/269/51 124/270/51 125/271/51 126/272/51
