# Blender v2.93.0 OBJ File: ''
# www.blender.org
mtllib panneauruesp.mtl
o Plane_Plane.001
v -0.308531 -1.334437 0.489546
v 0.309132 -1.334437 0.489546
v 0.309132 -1.334437 0.503588
v -0.308531 -1.334437 0.503588
v 0.309132 -0.907637 0.489546
v -0.308531 -0.907637 0.489546
v -0.308531 -0.907637 0.503588
v 0.309132 -0.907637 0.503588
v -0.317728 -1.331972 0.489546
v -0.324461 -1.325241 0.489546
v -0.326925 -1.316044 0.489546
v -0.326925 -0.926030 0.489546
v -0.324461 -0.916833 0.489546
v -0.317728 -0.910101 0.489546
v 0.318328 -0.910101 0.489546
v 0.325061 -0.916833 0.489546
v 0.327526 -0.926030 0.489546
v 0.327526 -1.316044 0.489546
v 0.325061 -1.325241 0.489546
v 0.318328 -1.331972 0.489546
v -0.326925 -1.316044 0.503588
v -0.324461 -1.325241 0.503588
v -0.317728 -1.331972 0.503588
v 0.318328 -1.331972 0.503588
v 0.325061 -1.325241 0.503588
v 0.327526 -1.316044 0.503588
v 0.327526 -0.926030 0.503588
v 0.325061 -0.916833 0.503588
v 0.318328 -0.910101 0.503588
v -0.317728 -0.910101 0.503588
v -0.324461 -0.916833 0.503588
v -0.326925 -0.926030 0.503588
vt 0.582122 0.446648
vt 0.600429 0.446648
vt 0.600429 0.446648
vt 0.582122 0.446648
vt 0.600429 0.466045
vt 0.582122 0.466045
vt 0.582122 0.466045
vt 0.600429 0.466045
vt 0.969301 0.319063
vt 0.983334 0.320317
vt 0.996114 0.333104
vt 0.997368 0.347145
vt 0.997368 0.942587
vt 0.996114 0.956628
vt 0.983334 0.969414
vt 0.969301 0.970668
vt 0.026793 0.970668
vt 0.012760 0.969414
vt -0.000020 0.956628
vt -0.001274 0.942587
vt -0.001274 0.347145
vt -0.000020 0.333104
vt 0.012760 0.320317
vt 0.026793 0.319063
vt 0.581577 0.447484
vt 0.581601 0.447066
vt 0.581850 0.446685
vt 0.600702 0.446685
vt 0.600950 0.447066
vt 0.600974 0.447484
vt 0.600974 0.465209
vt 0.600950 0.465627
vt 0.600702 0.466008
vt 0.581850 0.466008
vt 0.581601 0.465627
vt 0.581577 0.465209
vt 0.600974 0.447484
vt 0.600974 0.465209
vt 0.600702 0.466008
vt 0.600950 0.465627
vt 0.600702 0.446685
vt 0.600950 0.447066
vt 0.581850 0.446685
vt 0.581601 0.447066
vt 0.581577 0.447484
vt 0.581850 0.466008
vt 0.581601 0.465627
vt 0.581577 0.465209
vn 0.0000 -1.0000 0.0000
vn 0.0000 1.0000 0.0000
vn -0.0000 0.0000 -1.0000
vn 0.0000 -0.0000 1.0000
vn 1.0000 -0.0000 0.0000
vn 0.2588 0.9659 0.0000
vn 0.7071 0.7072 0.0000
vn 0.9659 0.2589 0.0000
vn 0.2589 -0.9659 0.0000
vn 0.7070 -0.7072 0.0000
vn 0.9659 -0.2589 0.0000
vn -0.2589 -0.9659 0.0000
vn -0.7070 -0.7072 0.0000
vn -0.9659 -0.2588 0.0000
vn -0.2588 0.9659 0.0000
vn -0.7071 0.7072 0.0000
vn -0.9659 0.2588 0.0000
vn -1.0000 -0.0000 0.0000
usemtl Material.008
s off
f 1/1/1 2/2/1 3/3/1 4/4/1
f 5/5/2 6/6/2 7/7/2 8/8/2
f 1/9/3 9/10/3 10/11/3 11/12/3 12/13/3 13/14/3 14/15/3 6/16/3 5/17/3 15/18/3 16/19/3 17/20/3 18/21/3 19/22/3 20/23/3 2/24/3
f 21/25/4 22/26/4 23/27/4 4/4/4 3/3/4 24/28/4 25/29/4 26/30/4 27/31/4 28/32/4 29/33/4 8/8/4 7/7/4 30/34/4 31/35/4 32/36/4
f 18/37/5 17/38/5 27/31/5 26/30/5
f 5/5/6 8/8/6 29/33/6 15/39/6
f 15/39/7 29/33/7 28/32/7 16/40/7
f 16/40/8 28/32/8 27/31/8 17/38/8
f 3/3/9 2/2/9 20/41/9 24/28/9
f 24/28/10 20/41/10 19/42/10 25/29/10
f 25/29/11 19/42/11 18/37/11 26/30/11
f 1/1/12 4/4/12 23/27/12 9/43/12
f 9/43/13 23/27/13 22/26/13 10/44/13
f 10/44/14 22/26/14 21/25/14 11/45/14
f 7/7/15 6/6/15 14/46/15 30/34/15
f 30/34/16 14/46/16 13/47/16 31/35/16
f 31/35/17 13/47/17 12/48/17 32/36/17
f 12/48/18 11/45/18 21/25/18 32/36/18
