# Blender v2.93.0 OBJ File: ''
# www.blender.org
mtllib 4.mtl
o Cylinder.004
v 0.006627 -0.553794 0.038221
v 0.006627 -0.553794 0.056956
v 0.070687 -0.560104 0.056956
v 0.070687 -0.560104 0.038221
v 0.132288 -0.578788 0.056956
v 0.132288 -0.578788 0.038221
v 0.189059 -0.609135 0.056956
v 0.189059 -0.609135 0.038221
v 0.238818 -0.649971 0.056956
v 0.238818 -0.649971 0.038221
v 0.279652 -0.699730 0.056956
v 0.279652 -0.699730 0.038221
v 0.309999 -0.756501 0.056956
v 0.309999 -0.756501 0.038221
v 0.328683 -0.818100 0.056956
v 0.328683 -0.818100 0.038221
v 0.334993 -0.882162 0.056956
v 0.334993 -0.882162 0.038221
v 0.328683 -0.946221 0.056956
v 0.328683 -0.946221 0.038221
v 0.309999 -1.007822 0.056956
v 0.309999 -1.007822 0.038221
v 0.279652 -1.064591 0.056956
v 0.279652 -1.064591 0.038221
v 0.238818 -1.114351 0.056954
v 0.238818 -1.114351 0.038221
v 0.189059 -1.155186 0.056954
v 0.189059 -1.155186 0.038221
v 0.132288 -1.185532 0.056954
v 0.132288 -1.185532 0.038221
v 0.070687 -1.204216 0.056954
v 0.070687 -1.204216 0.038221
v 0.006627 -1.210526 0.056954
v 0.006627 -1.210526 0.038221
v -0.057434 -1.204216 0.056954
v -0.057434 -1.204216 0.038221
v -0.119033 -1.185532 0.056954
v -0.119033 -1.185532 0.038221
v -0.175804 -1.155186 0.056954
v -0.175804 -1.155186 0.038221
v -0.225562 -1.114351 0.056954
v -0.225562 -1.114351 0.038221
v -0.266399 -1.064591 0.056956
v -0.266399 -1.064591 0.038221
v -0.296745 -1.007822 0.056956
v -0.296745 -1.007822 0.038221
v -0.315430 -0.946223 0.056956
v -0.315430 -0.946221 0.038221
v -0.321737 -0.882162 0.056956
v -0.321737 -0.882162 0.038221
v -0.315430 -0.818100 0.056956
v -0.315430 -0.818100 0.038221
v -0.296745 -0.756501 0.056956
v -0.296745 -0.756501 0.038221
v -0.266399 -0.699730 0.056956
v -0.266399 -0.699730 0.038221
v -0.225562 -0.649971 0.056956
v -0.225562 -0.649971 0.038221
v -0.175804 -0.609135 0.056956
v -0.175804 -0.609135 0.038221
v -0.119033 -0.578788 0.056956
v -0.119033 -0.578788 0.038221
v -0.057434 -0.560104 0.056956
v -0.057434 -0.560104 0.038221
vt 0.478056 0.987923
vt 0.478056 0.988548
vt 0.478017 0.988548
vt 0.478017 0.987923
vt 0.477977 0.988548
vt 0.477977 0.987923
vt 0.477938 0.988548
vt 0.477938 0.987923
vt 0.477899 0.988548
vt 0.477899 0.987923
vt 0.477860 0.988548
vt 0.477860 0.987923
vt 0.477821 0.988548
vt 0.477821 0.987923
vt 0.477782 0.988548
vt 0.477782 0.987923
vt 0.477743 0.988548
vt 0.477743 0.987923
vt 0.477704 0.988548
vt 0.477704 0.987923
vt 0.477665 0.988548
vt 0.477665 0.987923
vt 0.477626 0.988548
vt 0.477626 0.987923
vt 0.477587 0.988548
vt 0.477587 0.987923
vt 0.477548 0.988548
vt 0.477548 0.987923
vt 0.477509 0.988548
vt 0.477509 0.987923
vt 0.477469 0.988548
vt 0.477469 0.987923
vt 0.477430 0.988548
vt 0.477430 0.987923
vt 0.477391 0.988548
vt 0.477391 0.987923
vt 0.477352 0.988548
vt 0.477352 0.987923
vt 0.477313 0.988548
vt 0.477313 0.987923
vt 0.477274 0.988548
vt 0.477274 0.987923
vt 0.477235 0.988548
vt 0.477235 0.987923
vt 0.477196 0.988548
vt 0.477196 0.987923
vt 0.477157 0.988548
vt 0.477157 0.987923
vt 0.477118 0.988548
vt 0.477118 0.987923
vt 0.477079 0.988548
vt 0.477079 0.987923
vt 0.477040 0.988548
vt 0.477040 0.987923
vt 0.477000 0.988548
vt 0.477000 0.987923
vt 0.476961 0.988548
vt 0.476961 0.987923
vt 0.476922 0.988548
vt 0.476922 0.987923
vt 0.476883 0.988548
vt 0.476883 0.987923
vt 0.600083 0.984916
vt 0.503282 0.994450
vt 0.406481 0.984916
vt 0.313401 0.956680
vt 0.227617 0.910828
vt 0.152427 0.849121
vt 0.090721 0.773931
vt 0.044869 0.688148
vt 0.016633 0.595067
vt 0.007099 0.498267
vt 0.016633 0.401466
vt 0.044869 0.308385
vt 0.090721 0.222602
vt 0.152428 0.147412
vt 0.227617 0.085705
vt 0.313401 0.039853
vt 0.406481 0.011617
vt 0.503282 0.002083
vt 0.600083 0.011617
vt 0.693163 0.039853
vt 0.778947 0.085705
vt 0.854136 0.147412
vt 0.915843 0.222602
vt 0.961695 0.308385
vt 0.989931 0.401466
vt 0.999465 0.498266
vt 0.989931 0.595067
vt 0.961695 0.688148
vt 0.915843 0.773931
vt 0.854136 0.849121
vt 0.778947 0.910828
vt 0.693163 0.956680
vt 0.476844 0.988548
vt 0.476844 0.987923
vt 0.476805 0.988548
vt 0.476805 0.987923
vt 0.501734 0.667222
vt 0.534206 0.664024
vt 0.565431 0.654552
vt 0.594207 0.639171
vt 0.619430 0.618471
vt 0.640130 0.593248
vt 0.655512 0.564471
vt 0.664983 0.533247
vt 0.668182 0.500774
vt 0.664983 0.468302
vt 0.655512 0.437077
vt 0.640130 0.408301
vt 0.619430 0.383078
vt 0.594207 0.362378
vt 0.565431 0.346996
vt 0.534206 0.337524
vt 0.501734 0.334326
vt 0.469261 0.337524
vt 0.438037 0.346996
vt 0.409260 0.362378
vt 0.384037 0.383078
vt 0.363337 0.408301
vt 0.347956 0.437077
vt 0.338484 0.468302
vt 0.335285 0.500774
vt 0.338484 0.533247
vt 0.347956 0.564471
vt 0.363337 0.593248
vt 0.384037 0.618471
vt 0.409260 0.639171
vt 0.438037 0.654552
vt 0.469261 0.664024
vn 0.0980 0.9952 0.0000
vn 0.2903 0.9569 0.0000
vn 0.4714 0.8819 0.0000
vn 0.6344 0.7730 0.0000
vn 0.7730 0.6344 0.0000
vn 0.8819 0.4714 0.0000
vn 0.9569 0.2903 0.0000
vn 0.9952 0.0980 0.0000
vn 0.9952 -0.0980 0.0000
vn 0.9570 -0.2903 0.0000
vn 0.8819 -0.4714 0.0000
vn 0.7730 -0.6344 0.0000
vn 0.6344 -0.7730 0.0000
vn 0.4714 -0.8819 0.0000
vn 0.2903 -0.9569 0.0000
vn 0.0980 -0.9952 0.0000
vn -0.0980 -0.9952 0.0000
vn -0.2903 -0.9569 0.0000
vn -0.4714 -0.8819 0.0000
vn -0.6344 -0.7730 0.0000
vn -0.7730 -0.6344 0.0000
vn -0.8819 -0.4714 0.0000
vn -0.9569 -0.2903 -0.0000
vn -0.9952 -0.0980 -0.0000
vn -0.9952 0.0980 0.0000
vn -0.9569 0.2903 0.0000
vn -0.8819 0.4714 0.0000
vn -0.7730 0.6344 0.0000
vn -0.6344 0.7730 0.0000
vn -0.4714 0.8819 0.0000
vn -0.0000 -0.0000 1.0000
vn -0.2903 0.9569 0.0000
vn -0.0980 0.9952 0.0000
vn 0.0000 0.0000 -1.0000
usemtl Material.009
s 1
f 1/1/1 2/2/1 3/3/1 4/4/1
f 4/4/2 3/3/2 5/5/2 6/6/2
f 6/6/3 5/5/3 7/7/3 8/8/3
f 8/8/4 7/7/4 9/9/4 10/10/4
f 10/10/5 9/9/5 11/11/5 12/12/5
f 12/12/6 11/11/6 13/13/6 14/14/6
f 14/14/7 13/13/7 15/15/7 16/16/7
f 16/16/8 15/15/8 17/17/8 18/18/8
f 18/18/9 17/17/9 19/19/9 20/20/9
f 20/20/10 19/19/10 21/21/10 22/22/10
f 22/22/11 21/21/11 23/23/11 24/24/11
f 24/24/12 23/23/12 25/25/12 26/26/12
f 26/26/13 25/25/13 27/27/13 28/28/13
f 28/28/14 27/27/14 29/29/14 30/30/14
f 30/30/15 29/29/15 31/31/15 32/32/15
f 32/32/16 31/31/16 33/33/16 34/34/16
f 34/34/17 33/33/17 35/35/17 36/36/17
f 36/36/18 35/35/18 37/37/18 38/38/18
f 38/38/19 37/37/19 39/39/19 40/40/19
f 40/40/20 39/39/20 41/41/20 42/42/20
f 42/42/21 41/41/21 43/43/21 44/44/21
f 44/44/22 43/43/22 45/45/22 46/46/22
f 46/46/23 45/45/23 47/47/23 48/48/23
f 48/48/24 47/47/24 49/49/24 50/50/24
f 50/50/25 49/49/25 51/51/25 52/52/25
f 52/52/26 51/51/26 53/53/26 54/54/26
f 54/54/27 53/53/27 55/55/27 56/56/27
f 56/56/28 55/55/28 57/57/28 58/58/28
f 58/58/29 57/57/29 59/59/29 60/60/29
f 60/60/30 59/59/30 61/61/30 62/62/30
f 3/63/31 2/64/31 63/65/31 61/66/31 59/67/31 57/68/31 55/69/31 53/70/31 51/71/31 49/72/31 47/73/31 45/74/31 43/75/31 41/76/31 39/77/31 37/78/31 35/79/31 33/80/31 31/81/31 29/82/31 27/83/31 25/84/31 23/85/31 21/86/31 19/87/31 17/88/31 15/89/31 13/90/31 11/91/31 9/92/31 7/93/31 5/94/31
f 62/62/32 61/61/32 63/95/32 64/96/32
f 64/96/33 63/95/33 2/97/33 1/98/33
f 1/99/34 4/100/34 6/101/34 8/102/34 10/103/34 12/104/34 14/105/34 16/106/34 18/107/34 20/108/34 22/109/34 24/110/34 26/111/34 28/112/34 30/113/34 32/114/34 34/115/34 36/116/34 38/117/34 40/118/34 42/119/34 44/120/34 46/121/34 48/122/34 50/123/34 52/124/34 54/125/34 56/126/34 58/127/34 60/128/34 62/129/34 64/130/34
o Cube_Cube.003
v 0.020150 -1.497868 0.052881
v 0.020150 -0.839541 0.052881
v -0.020150 -0.839541 0.052881
v -0.020150 -1.497868 0.052881
v 0.052881 -1.497868 -0.020150
v 0.052881 -0.839541 -0.020150
v 0.052881 -0.839541 0.020150
v 0.052881 -1.497868 0.020148
v 0.043294 -0.839541 -0.043294
v 0.020150 -0.839541 -0.052882
v -0.020150 -0.839541 -0.052882
v -0.043294 -0.839541 -0.043294
v -0.052881 -0.839541 -0.020150
v -0.052881 -0.839541 0.020150
v -0.043294 -0.839541 0.043294
v 0.043294 -0.839541 0.043294
v -0.052881 -1.497868 0.020148
v -0.052881 -1.497868 -0.020150
v -0.020150 -1.497868 -0.052883
v 0.020150 -1.497868 -0.052883
v -0.043294 -1.497868 0.043294
v -0.043294 -1.497868 -0.043296
v 0.043294 -1.497868 -0.043296
v 0.043294 -1.497868 0.043294
vt 0.941420 0.254819
vt 0.943002 0.254819
vt 0.943002 0.255422
vt 0.941420 0.255422
vt 0.941420 0.253237
vt 0.943002 0.253237
vt 0.943002 0.253840
vt 0.941420 0.253840
vt 0.943146 0.252891
vt 0.943492 0.252747
vt 0.944095 0.252747
vt 0.944441 0.252891
vt 0.944584 0.253237
vt 0.944584 0.253840
vt 0.944441 0.254186
vt 0.944095 0.254329
vt 0.943492 0.254329
vt 0.943146 0.254186
vt 0.941420 0.250073
vt 0.943002 0.250073
vt 0.943002 0.250675
vt 0.941420 0.250675
vt 0.941420 0.251655
vt 0.943002 0.251655
vt 0.943002 0.252258
vt 0.941420 0.252258
vt 0.943002 0.255912
vt 0.941420 0.255912
vt 0.941420 0.249583
vt 0.943002 0.249583
vt 0.941420 0.251165
vt 0.943002 0.251165
vt 0.941420 0.252747
vt 0.943002 0.252747
vt 0.941420 0.254329
vt 0.943002 0.254329
vt 0.939838 0.253237
vt 0.939981 0.252891
vt 0.940328 0.252747
vt 0.940930 0.252747
vt 0.941277 0.252891
vt 0.941277 0.254186
vt 0.940930 0.254329
vt 0.940328 0.254329
vt 0.939981 0.254186
vt 0.939838 0.253840
vn 0.0000 -0.0000 1.0000
vn 1.0000 -0.0000 0.0000
vn 0.0000 1.0000 0.0000
vn -1.0000 0.0000 0.0000
vn 0.0000 0.0000 -1.0000
vn -0.3827 -0.0000 0.9239
vn -0.9239 -0.0000 0.3827
vn -0.3827 0.0000 -0.9239
vn -0.9239 0.0000 -0.3827
vn 0.9239 0.0000 -0.3827
vn 0.3827 0.0000 -0.9239
vn 0.3827 -0.0000 0.9239
vn 0.9239 -0.0000 0.3827
vn 0.0000 -1.0000 0.0000
usemtl Material.001
s 1
f 65/131/35 66/132/35 67/133/35 68/134/35
f 69/135/36 70/136/36 71/137/36 72/138/36
f 70/136/37 73/139/37 74/140/37 75/141/37 76/142/37 77/143/37 78/144/37 79/145/37 67/146/37 66/147/37 80/148/37 71/137/37
f 81/149/38 78/150/38 77/151/38 82/152/38
f 83/153/39 75/154/39 74/155/39 84/156/39
f 68/134/40 67/133/40 79/157/40 85/158/40
f 85/159/41 79/160/41 78/150/41 81/149/41
f 75/154/42 83/153/42 86/161/42 76/162/42
f 76/162/43 86/161/43 82/152/43 77/151/43
f 70/136/44 69/135/44 87/163/44 73/164/44
f 73/164/45 87/163/45 84/156/45 74/155/45
f 66/132/46 65/131/46 88/165/46 80/166/46
f 80/166/47 88/165/47 72/138/47 71/137/47
f 82/167/48 86/168/48 83/169/48 84/170/48 87/171/48 69/135/48 72/138/48 88/172/48 65/173/48 68/174/48 85/175/48 81/176/48
