# Blender v3.6.3 OBJ File: 'untitled.blend'
# www.blender.org
mtllib busstop.mtl
o 1
v 0.495981 2.101205 2.024672
v 0.495981 2.101205 1.977944
v 0.496092 2.146746 1.977944
v 0.496092 2.146746 2.024672
v 0.542819 2.101313 0.790413
v 0.496055 2.101277 0.790413
v 0.496092 2.101313 -0.000000
v 0.542819 2.101313 -0.000000
v 0.542819 2.101313 1.977944
v 0.542819 2.146746 1.977944
v 0.542819 2.146746 2.024672
v 0.542819 2.101313 2.024672
v 0.542819 -0.034599 2.024672
v 0.496092 -0.034599 2.024672
v 0.542819 -0.034599 1.977944
v 0.496092 -0.034599 1.977944
v 0.496092 2.146746 -0.000000
v 0.542819 2.146746 -0.000000
v 0.496092 2.146746 0.790413
v 0.542819 2.146746 0.790413
v -0.528180 2.246762 1.977944
v -0.524492 2.280823 1.977944
v -0.528180 2.246762 2.024671
v -0.524492 2.280823 2.024671
v 0.496092 2.146746 0.833809
v 0.496018 2.101241 0.833809
v -0.524555 2.225366 0.790005
v -0.524518 2.270835 0.790005
v 0.542819 2.101313 0.833809
v 0.542819 2.146746 0.833809
v -0.524591 2.225330 0.833400
v -0.524518 2.270835 0.833400
v 0.783078 2.104247 2.041754
v 0.783078 2.104247 -0.000000
v 0.790375 2.173816 -0.000000
v 0.790375 2.173816 2.041754
v -0.523429 2.241276 2.041754
v -0.516132 2.310845 2.041754
v -0.533793 2.312698 2.041754
v -0.541090 2.243129 2.041754
v 0.790375 2.173816 2.050981
v 0.783078 2.104247 2.050981
v -0.541090 2.243129 -0.000000
v -0.533793 2.312698 -0.000000
v -0.516132 2.310845 -0.000000
v -0.523429 2.241276 2.050981
v -0.524760 2.228584 2.050981
v 0.781747 2.091555 2.050981
v -0.516132 2.310845 2.050981
v 0.781747 2.091555 2.041754
v -0.524760 2.228584 2.041754
v -0.542421 2.230436 2.041754
v -0.524760 2.228584 -0.000000
v -0.542421 2.230436 -0.000000
v -0.523429 2.241276 -0.000000
v -0.424119 2.106809 1.988035
v -0.424119 2.214233 1.988035
v -0.417378 2.214233 1.991281
v -0.417378 2.106809 1.991281
v -0.415714 2.214233 1.998575
v -0.415714 2.106809 1.998575
v -0.420378 2.214233 2.004423
v -0.420378 2.106809 2.004424
v -0.427859 2.214233 2.004423
v -0.427859 2.106809 2.004424
v -0.432524 2.214233 1.998575
v -0.432524 2.106809 1.998575
v -0.430859 2.214233 1.991281
v -0.430859 2.106809 1.991281
v 0.495981 2.101205 -2.024672
v 0.495981 2.101205 -1.977944
v 0.496092 2.146745 -1.977944
v 0.496092 2.146745 -2.024672
v 0.542819 2.101313 -0.790414
v 0.496055 2.101277 -0.790414
v 0.542819 2.101313 -1.977944
v 0.542819 2.101313 -2.024672
v 0.542819 2.146745 -2.024672
v 0.542819 2.146745 -1.977944
v 0.542819 -0.034599 -2.024672
v 0.496092 -0.034599 -2.024672
v 0.542819 -0.034599 -1.977944
v 0.496092 -0.034599 -1.977944
v 0.496092 2.146745 -0.790414
v 0.542819 2.146745 -0.790414
v -0.524492 2.280823 -1.977944
v -0.528180 2.246762 -1.977944
v -0.528180 2.246762 -2.024672
v -0.524492 2.280823 -2.024672
v 0.496018 2.101241 -0.833810
v 0.496092 2.146745 -0.833810
v -0.524518 2.270835 -0.790005
v -0.524555 2.225366 -0.790005
v 0.542819 2.146745 -0.833810
v 0.542819 2.101313 -0.833810
v -0.524591 2.225330 -0.833400
v -0.524518 2.270835 -0.833400
v 0.783078 2.104247 -2.041755
v 0.790375 2.173816 -2.041755
v -0.523429 2.241276 -2.041755
v -0.541090 2.243128 -2.041755
v -0.533793 2.312697 -2.041755
v -0.516132 2.310845 -2.041755
v 0.783078 2.104247 -2.050981
v 0.790375 2.173816 -2.050981
v 0.781747 2.091555 -2.050981
v -0.524760 2.228584 -2.050982
v -0.523429 2.241276 -2.050982
v -0.516132 2.310845 -2.050982
v -0.524760 2.228584 -2.041755
v 0.781747 2.091555 -2.041755
v -0.542421 2.230436 -2.041755
v -0.424119 2.106809 -1.988035
v -0.417378 2.106809 -1.991281
v -0.417378 2.214233 -1.991281
v -0.424119 2.214233 -1.988035
v -0.415714 2.106809 -1.998575
v -0.415714 2.214233 -1.998575
v -0.420378 2.106809 -2.004424
v -0.420378 2.214233 -2.004424
v -0.427859 2.106809 -2.004424
v -0.427859 2.214233 -2.004424
v -0.432524 2.106809 -1.998575
v -0.432524 2.214233 -1.998575
v -0.430859 2.214233 -1.991281
v -0.430859 2.106809 -1.991281
v 0.496089 2.101310 -0.056332
v 0.496092 2.146746 -0.056332
v 0.542819 2.101313 -0.056332
v 0.542819 2.146746 -0.056332
v 0.496149 -0.034599 0.000047
v 0.542876 -0.034599 0.000047
v 0.496146 -0.034602 -0.056284
v 0.542876 -0.034599 -0.056284
vt 0.964516 0.918539
vt 0.964516 0.736633
vt 0.955024 0.736633
vt 0.955024 0.918539
vt 0.734631 0.998999
vt 0.734631 0.989507
vt 0.368817 0.989507
vt 0.368817 0.998999
vt 0.941528 0.736633
vt 0.932036 0.736633
vt 0.932036 0.918539
vt 0.941528 0.918539
vt 0.861068 0.874564
vt 0.851576 0.874564
vt 0.851576 0.884056
vt 0.861068 0.884056
vt 0.918539 0.918539
vt 0.918539 0.909047
vt 0.736633 0.909047
vt 0.736633 0.918539
vt 0.976011 0.366815
vt 0.976011 0.001001
vt 0.966518 0.001001
vt 0.966518 0.366815
vt 0.368817 0.734631
vt 0.734631 0.734631
vt 0.734631 0.552725
vt 0.368817 0.552725
vt 0.964516 0.366815
vt 0.964516 0.001001
vt 0.955024 0.001001
vt 0.955024 0.366815
vt 0.001001 0.550723
vt 0.366815 0.550723
vt 0.366815 0.368817
vt 0.001001 0.368817
vt 0.872562 0.863070
vt 0.863070 0.863070
vt 0.863070 0.872562
vt 0.872562 0.872562
vt 0.941528 0.368817
vt 0.932036 0.368817
vt 0.932036 0.734631
vt 0.941528 0.734631
vt 0.734631 0.953022
vt 0.734631 0.943530
vt 0.368817 0.943530
vt 0.368817 0.953022
vt 0.930034 0.368817
vt 0.920541 0.368817
vt 0.920541 0.734631
vt 0.930034 0.734631
vt 0.366815 0.941528
vt 0.366815 0.932036
vt 0.001001 0.932036
vt 0.001001 0.941528
vt 0.366815 0.366815
vt 0.366815 0.001001
vt 0.184909 0.001001
vt 0.184909 0.366815
vt 0.366815 0.930034
vt 0.366815 0.920541
vt 0.001001 0.920541
vt 0.001001 0.930034
vt 0.953022 0.736633
vt 0.943530 0.736633
vt 0.943530 0.918539
vt 0.953022 0.918539
vt 0.366815 0.734631
vt 0.366815 0.552725
vt 0.001001 0.552725
vt 0.001001 0.734631
vt 0.907045 0.001001
vt 0.897553 0.001001
vt 0.897553 0.366815
vt 0.907045 0.366815
vt 0.734631 0.907045
vt 0.734631 0.897553
vt 0.368817 0.897553
vt 0.368817 0.907045
vt 0.884056 0.368817
vt 0.874564 0.368817
vt 0.874564 0.734631
vt 0.884056 0.734631
vt 0.895551 0.736633
vt 0.886058 0.736633
vt 0.886058 0.826585
vt 0.895551 0.826585
vt 0.734631 0.884056
vt 0.734631 0.874564
vt 0.368817 0.874564
vt 0.368817 0.884056
vt 0.884056 0.736633
vt 0.874564 0.736633
vt 0.874564 0.826585
vt 0.884056 0.826585
vt 0.998999 0.368817
vt 0.989507 0.368817
vt 0.989507 0.734631
vt 0.998999 0.734631
vt 0.918539 0.736633
vt 0.909047 0.736633
vt 0.909047 0.826585
vt 0.918539 0.826585
vt 0.907045 0.736633
vt 0.897553 0.736633
vt 0.897553 0.826585
vt 0.907045 0.826585
vt 0.734631 0.826585
vt 0.734631 0.736633
vt 0.368817 0.736633
vt 0.368817 0.826585
vt 0.826585 0.001001
vt 0.736633 0.001001
vt 0.736633 0.366815
vt 0.826585 0.366815
vt 0.734631 0.895551
vt 0.734631 0.886058
vt 0.368817 0.886058
vt 0.368817 0.895551
vt 0.895551 0.366815
vt 0.895551 0.001001
vt 0.874564 0.001001
vt 0.874564 0.366815
vt 0.803597 0.884056
vt 0.803597 0.863070
vt 0.794104 0.863070
vt 0.794104 0.884056
vt 0.849574 0.863070
vt 0.828587 0.863070
vt 0.828587 0.884056
vt 0.849574 0.884056
vt 0.368817 0.872562
vt 0.734631 0.872562
vt 0.734631 0.851576
vt 0.368817 0.851576
vt 0.895551 0.734631
vt 0.895551 0.368817
vt 0.886058 0.368817
vt 0.886058 0.734631
vt 0.001001 0.918539
vt 0.366815 0.918539
vt 0.366815 0.909047
vt 0.001001 0.909047
vt 0.872562 0.734631
vt 0.872562 0.368817
vt 0.851576 0.368817
vt 0.851576 0.734631
vt 0.001001 0.872562
vt 0.366815 0.872562
vt 0.366815 0.851576
vt 0.001001 0.851576
vt 0.918539 0.366815
vt 0.918539 0.001001
vt 0.909047 0.001001
vt 0.909047 0.366815
vt 0.780608 0.759622
vt 0.759622 0.759622
vt 0.759622 0.780608
vt 0.780608 0.780608
vt 0.757620 0.759622
vt 0.736633 0.759622
vt 0.736633 0.780608
vt 0.757620 0.780608
vt 0.792102 0.884056
vt 0.792102 0.863070
vt 0.782610 0.863070
vt 0.782610 0.884056
vt 0.792102 0.806600
vt 0.792102 0.826585
vt 0.783611 0.826585
vt 0.368817 0.918539
vt 0.734631 0.918539
vt 0.734631 0.909047
vt 0.368817 0.909047
vt 0.849574 0.734631
vt 0.849574 0.368817
vt 0.828587 0.368817
vt 0.828587 0.734631
vt 0.782610 0.825584
vt 0.791101 0.805599
vt 0.782610 0.805599
vt 0.826585 0.884056
vt 0.826585 0.863070
vt 0.817093 0.863070
vt 0.817093 0.884056
vt 0.368817 0.930034
vt 0.734631 0.930034
vt 0.734631 0.920541
vt 0.368817 0.920541
vt 0.918539 0.734631
vt 0.918539 0.368817
vt 0.909047 0.368817
vt 0.909047 0.734631
vt 0.815091 0.884056
vt 0.815091 0.863070
vt 0.805599 0.863070
vt 0.805599 0.884056
vt 0.780608 0.736633
vt 0.759622 0.736633
vt 0.759622 0.757620
vt 0.780608 0.757620
vt 0.757620 0.736633
vt 0.736633 0.736633
vt 0.736633 0.757620
vt 0.757620 0.757620
vt 0.803597 0.907045
vt 0.803597 0.886058
vt 0.794104 0.886058
vt 0.794104 0.907045
vt 0.826585 0.759622
vt 0.805599 0.759622
vt 0.805599 0.780608
vt 0.826585 0.780608
vt 0.750008 0.871738
vt 0.754232 0.863070
vt 0.757620 0.871813
vt 0.757620 0.891384
vt 0.754232 0.907045
vt 0.750008 0.907004
vt 0.748127 0.891291
vt 0.803597 0.759622
vt 0.782610 0.759622
vt 0.782610 0.780608
vt 0.803597 0.780608
vt 0.792102 0.907045
vt 0.792102 0.886058
vt 0.782610 0.886058
vt 0.782610 0.907045
vt 0.736633 0.885058
vt 0.738513 0.867425
vt 0.742738 0.863070
vt 0.746125 0.875272
vt 0.746125 0.894843
vt 0.742738 0.907045
vt 0.738513 0.902690
vt 0.736633 0.861068
vt 0.918539 0.861068
vt 0.918539 0.851576
vt 0.736633 0.851576
vt 0.920541 0.027072
vt 0.930034 0.027072
vt 0.930034 0.027072
vt 0.920541 0.027072
vt 0.736633 0.849574
vt 0.918539 0.849574
vt 0.918539 0.840081
vt 0.736633 0.840081
vt 0.861068 0.863070
vt 0.851576 0.863070
vt 0.851576 0.872562
vt 0.861068 0.872562
vt 0.930034 0.918539
vt 0.930034 0.736633
vt 0.920541 0.736633
vt 0.920541 0.918539
vt 0.366815 0.953022
vt 0.366815 0.943530
vt 0.001001 0.943530
vt 0.001001 0.953022
vt 0.182907 0.001001
vt 0.001001 0.001001
vt 0.001001 0.366815
vt 0.182907 0.366815
vt 0.366815 0.964516
vt 0.366815 0.955024
vt 0.001001 0.955024
vt 0.001001 0.964516
vt 0.734631 0.184909
vt 0.552725 0.184909
vt 0.552725 0.550723
vt 0.734631 0.550723
vt 0.708560 0.964516
vt 0.734631 0.964516
vt 0.734631 0.955024
vt 0.708560 0.955024
vt 0.953022 0.027072
vt 0.953022 0.001001
vt 0.943530 0.001001
vt 0.943530 0.027072
vt 0.340744 0.976011
vt 0.366815 0.976011
vt 0.366815 0.966518
vt 0.340744 0.966518
vt 0.953022 0.734631
vt 0.953022 0.368817
vt 0.943530 0.368817
vt 0.943530 0.734631
vt 0.734631 0.182907
vt 0.734631 0.001001
vt 0.368817 0.001001
vt 0.368817 0.182907
vt 0.964516 0.734631
vt 0.964516 0.368817
vt 0.955024 0.368817
vt 0.955024 0.734631
vt 0.736633 0.838079
vt 0.918539 0.838079
vt 0.918539 0.828587
vt 0.736633 0.828587
vt 0.550723 0.550723
vt 0.550723 0.184909
vt 0.368817 0.184909
vt 0.368817 0.550723
vt 0.368817 0.976011
vt 0.734631 0.976011
vt 0.734631 0.966518
vt 0.368817 0.966518
vt 0.987505 0.366815
vt 0.987505 0.001001
vt 0.978013 0.001001
vt 0.978013 0.366815
vt 0.001001 0.987505
vt 0.366815 0.987505
vt 0.366815 0.978013
vt 0.001001 0.978013
vt 0.849574 0.826585
vt 0.849574 0.736633
vt 0.840081 0.736633
vt 0.840081 0.826585
vt 0.987505 0.734631
vt 0.987505 0.368817
vt 0.978013 0.368817
vt 0.978013 0.734631
vt 0.838079 0.826585
vt 0.838079 0.736633
vt 0.828587 0.736633
vt 0.828587 0.826585
vt 0.368817 0.987505
vt 0.734631 0.987505
vt 0.734631 0.978013
vt 0.368817 0.978013
vt 0.872562 0.826585
vt 0.872562 0.736633
vt 0.863070 0.736633
vt 0.863070 0.826585
vt 0.861068 0.826585
vt 0.861068 0.736633
vt 0.851576 0.736633
vt 0.851576 0.826585
vt 0.826585 0.734631
vt 0.826585 0.368817
vt 0.736633 0.368817
vt 0.736633 0.734631
vt 0.001001 0.826585
vt 0.366815 0.826585
vt 0.366815 0.736633
vt 0.001001 0.736633
vt 0.998999 0.366815
vt 0.998999 0.001001
vt 0.989507 0.001001
vt 0.989507 0.366815
vt 0.366815 0.895551
vt 0.366815 0.874564
vt 0.001001 0.874564
vt 0.001001 0.895551
vt 0.826585 0.886058
vt 0.817093 0.886058
vt 0.817093 0.907045
vt 0.826585 0.907045
vt 0.826585 0.736633
vt 0.805599 0.736633
vt 0.805599 0.757620
vt 0.826585 0.757620
vt 0.872562 0.001001
vt 0.851576 0.001001
vt 0.851576 0.366815
vt 0.872562 0.366815
vt 0.734631 0.941528
vt 0.734631 0.932036
vt 0.368817 0.932036
vt 0.368817 0.941528
vt 0.941528 0.001001
vt 0.932036 0.001001
vt 0.932036 0.366815
vt 0.941528 0.366815
vt 0.366815 0.849574
vt 0.366815 0.828587
vt 0.001001 0.828587
vt 0.001001 0.849574
vt 0.849574 0.001001
vt 0.828587 0.001001
vt 0.828587 0.366815
vt 0.849574 0.366815
vt 0.366815 0.907045
vt 0.366815 0.897553
vt 0.001001 0.897553
vt 0.001001 0.907045
vt 0.803597 0.736633
vt 0.782610 0.736633
vt 0.782610 0.757620
vt 0.803597 0.757620
vt 0.780608 0.805599
vt 0.759622 0.805599
vt 0.759622 0.826585
vt 0.780608 0.826585
vt 0.815091 0.886058
vt 0.805599 0.886058
vt 0.805599 0.907045
vt 0.815091 0.907045
vt 0.803597 0.806600
vt 0.795105 0.826585
vt 0.803597 0.826585
vt 0.907045 0.368817
vt 0.897553 0.368817
vt 0.897553 0.734631
vt 0.907045 0.734631
vt 0.734631 0.849574
vt 0.734631 0.828587
vt 0.368817 0.828587
vt 0.368817 0.849574
vt 0.794104 0.825584
vt 0.794104 0.805599
vt 0.802596 0.805599
vt 0.803597 0.782610
vt 0.794104 0.782610
vt 0.794104 0.803597
vt 0.803597 0.803597
vt 0.976011 0.368817
vt 0.966518 0.368817
vt 0.966518 0.734631
vt 0.976011 0.734631
vt 0.366815 0.998999
vt 0.366815 0.989507
vt 0.001001 0.989507
vt 0.001001 0.998999
vt 0.792102 0.782610
vt 0.782610 0.782610
vt 0.782610 0.803597
vt 0.792102 0.803597
vt 0.757620 0.805599
vt 0.736633 0.805599
vt 0.736633 0.826585
vt 0.757620 0.826585
vt 0.780608 0.782610
vt 0.759622 0.782610
vt 0.759622 0.803597
vt 0.780608 0.803597
vt 0.826585 0.782610
vt 0.817093 0.782610
vt 0.817093 0.803597
vt 0.826585 0.803597
vt 0.757620 0.782610
vt 0.736633 0.782610
vt 0.736633 0.803597
vt 0.757620 0.803597
vt 0.780608 0.871813
vt 0.780608 0.891384
vt 0.777220 0.907045
vt 0.772996 0.907004
vt 0.771116 0.891291
vt 0.772996 0.871739
vt 0.777220 0.863070
vt 0.826585 0.805599
vt 0.805599 0.805599
vt 0.805599 0.826585
vt 0.826585 0.826585
vt 0.815091 0.782610
vt 0.805599 0.782610
vt 0.805599 0.803597
vt 0.815091 0.803597
vt 0.765727 0.907045
vt 0.761502 0.898376
vt 0.759622 0.878823
vt 0.761502 0.863112
vt 0.765725 0.863070
vt 0.769114 0.878730
vt 0.769114 0.898301
vt 0.001001 0.976011
vt 0.001001 0.966518
vt 0.953022 0.366815
vt 0.943530 0.366815
vt 0.368817 0.964516
vt 0.368817 0.955024
vt 0.930034 0.366815
vt 0.920541 0.366815
vt 0.930034 0.001001
vt 0.920541 0.001001
vt 0.872562 0.863070
vt 0.872562 0.872562
vt 0.943530 0.001001
vt 0.943530 0.027072
vt 0.340744 0.976011
vt 0.366815 0.976011
vn 1.0000 -0.0024 0.0000
vn 0.7074 -0.7068 -0.0002
vn -0.3341 -0.8938 -0.2991
vn -0.7071 -0.7071 -0.0000
vn 0.7072 -0.7070 -0.0000
vn 0.9047 -0.3014 -0.3013
vn 0.7071 0.7071 -0.0000
vn 0.5773 0.5774 0.5774
vn 0.7071 0.0000 0.7071
vn -0.0000 0.7071 0.7071
vn -0.4471 -0.0000 0.8945
vn -0.4468 0.8946 -0.0000
vn -0.7071 -0.0000 0.7071
vn 0.7071 -0.0000 -0.7071
vn -0.7071 -0.0000 -0.7071
vn -0.8165 -0.4078 -0.4087
vn 0.0000 -0.0000 -1.0000
vn -0.2683 0.9137 -0.3053
vn -0.7070 0.7073 -0.0000
vn 0.0921 0.7011 -0.7071
vn -0.0995 -0.7001 -0.7071
vn -0.6481 -0.5039 -0.5711
vn -0.5026 0.6395 -0.5818
vn -0.0995 -0.7001 0.7071
vn -0.6481 -0.5039 0.5710
vn -0.5026 0.6395 0.5818
vn 0.0921 0.7011 0.7071
vn -0.2684 0.9137 0.3051
vn -0.3342 -0.8940 0.2985
vn -0.6223 -0.5508 -0.5562
vn -0.5289 0.5981 -0.6020
vn 0.7077 -0.7066 -0.0002
vn -0.6231 -0.5511 0.5550
vn -0.5294 0.5981 0.6016
vn 0.9435 -0.0990 -0.3162
vn 0.9945 -0.1043 0.0000
vn 0.9362 0.3515 0.0000
vn -0.7033 0.0738 0.7071
vn -0.7032 0.0738 0.7071
vn 0.0000 0.0000 1.0000
vn 0.6344 0.5140 0.5774
vn 0.7032 -0.0738 0.7071
vn -0.9945 0.1043 -0.0000
vn -0.8501 0.0892 0.5191
vn -0.6295 0.7770 -0.0000
vn 0.1043 0.9945 -0.0000
vn -0.2360 0.0248 0.9714
vn -0.2393 -0.6961 0.6769
vn 0.5140 -0.6344 0.5773
vn 0.0738 0.7032 0.7071
vn 0.7033 -0.0738 -0.7071
vn 0.5140 -0.6344 -0.5773
vn 0.2055 -0.9310 -0.3015
vn -0.2505 0.7373 0.6275
vn -0.6316 -0.6981 0.3373
vn 0.6295 -0.7770 0.0000
vn -0.7770 -0.6295 0.0000
vn -0.0000 -0.4852 -0.8744
vn -0.0000 0.4852 -0.8744
vn 0.6836 0.4852 -0.5451
vn 0.6836 -0.4852 -0.5451
vn 0.8524 0.4852 0.1946
vn 0.8525 -0.4852 0.1946
vn 0.3794 0.4853 0.7878
vn 0.3794 -0.4852 0.7878
vn -0.3793 0.4852 0.7878
vn -0.3793 -0.4852 0.7878
vn -0.8524 0.4853 0.1946
vn -0.8525 -0.4852 0.1946
vn -0.6836 0.4853 -0.5452
vn -0.6836 -0.4853 -0.5452
vn -1.0000 0.0024 0.0000
vn -0.9011 -0.3117 -0.3015
vn 0.9046 -0.3015 -0.3015
vn 0.5774 -0.5773 -0.5773
vn -0.5750 -0.5693 -0.5875
vn 0.9047 -0.3014 0.3013
vn 0.5773 0.5774 -0.5774
vn -0.4471 -0.0000 -0.8945
vn -0.0000 0.7071 -0.7071
vn -0.8164 -0.4078 0.4089
vn -0.6984 0.7157 0.0000
vn -0.7071 0.7071 0.0000
vn 0.8944 0.0000 0.4472
vn -0.8944 0.0000 0.4472
vn -0.0995 -0.7000 -0.7071
vn -0.6481 -0.5039 -0.5710
vn -0.3342 -0.8940 -0.2985
vn -0.2684 0.9137 -0.3051
vn -0.2450 0.9120 0.3290
vn -0.5289 0.5981 0.6020
vn -0.6223 -0.5508 0.5562
vn -0.3518 -0.8985 0.2625
vn 0.7077 -0.7066 0.0002
vn 0.7074 -0.7068 0.0002
vn -0.6230 -0.5511 -0.5550
vn -0.5294 0.5981 -0.6016
vn 0.9435 -0.0990 0.3162
vn -0.7032 0.0738 -0.7071
vn -0.7033 0.0738 -0.7071
vn 0.7032 -0.0738 -0.7071
vn 0.6344 0.5140 -0.5773
vn -0.8501 0.0892 -0.5191
vn 0.5140 -0.6344 -0.5774
vn -0.2393 -0.6961 -0.6769
vn -0.2360 0.0248 -0.9714
vn 0.0738 0.7032 -0.7071
vn 0.7033 -0.0738 0.7071
vn 0.2055 -0.9310 0.3015
vn -0.2505 0.7373 -0.6274
vn -0.6316 -0.6981 -0.3373
vn -0.0000 -0.4852 0.8744
vn 0.6836 -0.4852 0.5451
vn 0.6836 0.4852 0.5451
vn -0.0000 0.4852 0.8744
vn 0.8525 -0.4852 -0.1946
vn 0.8525 0.4852 -0.1946
vn 0.3794 -0.4852 -0.7878
vn 0.3794 0.4852 -0.7878
vn -0.3794 -0.4853 -0.7878
vn -0.3794 0.4853 -0.7878
vn -0.8525 -0.4852 -0.1946
vn -0.8525 0.4852 -0.1946
vn -0.6836 0.4853 0.5452
vn -0.6836 -0.4853 0.5452
vn 0.5774 -0.5773 0.5774
vn -0.5773 -0.5773 0.5774
usemtl 001
s 1
f 1/1/1 2/2/1 3/3/1 4/4/1
f 5/5/2 6/6/3 7/7/4 8/8/5
f 9/9/6 10/10/7 11/11/8 12/12/9
f 12/13/9 11/14/8 4/15/10 1/16/11
f 10/17/7 3/18/12 4/19/10 11/20/8
f 13/21/9 12/22/9 1/23/11 14/24/13
f 15/25/14 9/26/6 12/27/9 13/28/9
f 16/29/15 2/30/16 9/31/6 15/32/14
f 14/33/13 1/34/11 2/35/16 16/36/15
f 7/37/17 17/38/17 18/39/17 8/40/17
f 19/41/18 20/42/7 18/43/7 17/44/19
f 20/45/7 5/46/2 8/47/5 18/48/7
f 6/49/3 19/50/18 17/51/19 7/52/4
f 3/53/20 2/54/21 21/55/22 22/56/23
f 1/57/24 23/58/25 21/59/22 2/60/21
f 24/61/26 23/62/25 1/63/24 4/64/27
f 22/65/23 21/66/22 23/67/25 24/68/26
f 4/69/27 3/70/20 22/71/23 24/72/26
f 2/73/16 3/74/12 25/75/28 26/76/29
f 19/77/18 6/78/3 27/79/30 28/80/31
f 10/81/7 9/82/6 29/83/32 30/84/7
f 30/85/7 29/86/32 5/87/2 20/88/7
f 3/89/12 10/90/7 30/91/7 25/92/28
f 25/93/28 30/94/7 20/95/7 19/96/18
f 9/97/6 2/98/16 26/99/29 29/100/32
f 29/101/32 26/102/29 6/103/3 5/104/2
f 31/105/33 32/106/34 28/107/31 27/108/30
f 25/109/28 19/110/18 28/111/31 32/112/34
f 6/113/3 26/114/29 31/115/33 27/116/30
f 26/117/29 25/118/28 32/119/34 31/120/33
f 33/121/35 34/122/36 35/123/36 36/124/37
f 37/125/38 38/126/39 39/127/40 40/128/40
f 33/129/35 36/130/37 41/131/41 42/132/42
f 43/133/43 40/134/44 39/135/45 44/136/45
f 38/137/46 45/138/46 44/139/45 39/140/45
f 42/141/42 46/142/47 47/143/48 48/144/49
f 46/145/47 42/146/42 41/147/41 49/148/50
f 36/149/37 38/150/46 49/151/50 41/152/41
f 37/153/51 33/154/35 50/155/52 51/156/53
f 38/157/39 37/158/38 46/159/43 49/160/43
f 39/161/54 40/162/44 46/163/47 49/164/54
f 46/165/47 40/166/44 52/167/55 47/168/48
f 49/169/54 38/170/46 39/171/54
f 53/172/56 51/173/53 52/174/55 54/175/57
f 51/176/53 50/177/52 48/178/49 47/179/48
f 47/180/48 52/181/55 51/182/53
f 33/183/35 42/184/42 48/185/49 50/186/52
f 55/187/36 37/188/51 51/189/53 53/190/56
f 40/191/44 43/192/43 54/193/57 52/194/55
f 56/195/58 57/196/59 58/197/60 59/198/61
f 59/199/61 58/200/60 60/201/62 61/202/63
f 61/203/63 60/204/62 62/205/64 63/206/65
f 63/207/65 62/208/64 64/209/66 65/210/67
f 65/211/67 64/212/66 66/213/68 67/214/69
f 58/215/60 57/216/59 68/217/70 66/218/68 64/219/66 62/220/64 60/221/62
f 67/222/69 66/223/68 68/224/70 69/225/71
f 69/226/71 68/227/70 57/228/59 56/229/58
f 56/230/58 59/231/61 61/232/63 63/233/65 65/234/67 67/235/69 69/236/71
f 70/237/72 71/238/72 72/239/72 73/240/72
f 127/241/73 129/242/74 134/243/75 133/244/76
f 76/245/77 77/246/14 78/247/78 79/248/7
f 77/249/14 70/250/79 73/251/80 78/252/78
f 79/253/7 78/254/78 73/255/80 72/256/12
f 80/257/14 81/258/15 70/259/79 77/260/14
f 82/261/9 80/262/14 77/263/14 76/264/77
f 83/265/13 82/266/9 76/267/77 71/268/81
f 81/269/15 83/270/13 71/271/81 70/272/79
f 128/273/82 17/274/83 18/275/7 130/276/7
f 130/277/7 18/278/7 8/279/84 129/280/74
f 127/281/73 7/282/85 17/283/83 128/284/82
f 72/285/27 86/286/26 87/287/25 71/288/24
f 70/289/86 71/290/24 87/291/25 88/292/87
f 89/293/23 73/294/20 70/295/86 88/296/87
f 86/297/26 89/298/23 88/299/87 87/300/25
f 73/301/20 89/302/23 86/303/26 72/304/27
f 71/305/81 90/306/88 91/307/89 72/308/12
f 84/309/90 92/310/91 93/311/92 75/312/93
f 79/313/7 94/314/7 95/315/94 76/316/77
f 94/317/7 85/318/7 74/319/95 95/320/94
f 72/321/12 91/322/89 94/323/7 79/324/7
f 91/325/89 84/326/90 85/327/7 94/328/7
f 76/329/77 95/330/94 90/331/88 71/332/81
f 95/333/94 74/334/95 75/335/93 90/336/88
f 96/337/96 93/338/92 92/339/91 97/340/97
f 91/341/89 97/342/97 92/343/91 84/344/90
f 75/345/93 93/346/92 96/347/96 90/348/88
f 90/349/88 96/350/96 97/351/97 91/352/89
f 98/353/98 99/354/37 35/355/36 34/356/36
f 100/357/99 101/358/17 102/359/17 103/360/100
f 98/361/98 104/362/101 105/363/102 99/364/37
f 43/365/43 44/366/45 102/367/45 101/368/103
f 103/369/46 102/370/45 44/371/45 45/372/46
f 104/373/101 106/374/104 107/375/105 108/376/106
f 108/377/106 109/378/107 105/379/102 104/380/101
f 99/381/37 105/382/102 109/383/107 103/384/46
f 100/385/108 110/386/109 111/387/49 98/388/98
f 103/389/100 109/390/43 108/391/43 100/392/99
f 102/393/110 109/394/110 108/395/106 101/396/103
f 108/397/106 107/398/105 112/399/111 101/400/103
f 109/401/110 102/402/110 103/403/46
f 53/404/56 54/405/57 112/406/111 110/407/109
f 110/408/109 107/409/105 106/410/104 111/411/49
f 107/412/105 110/413/109 112/414/111
f 98/415/98 111/416/49 106/417/104 104/418/101
f 55/419/36 53/420/56 110/421/109 100/422/108
f 101/423/103 112/424/111 54/425/57 43/426/43
f 113/427/112 114/428/113 115/429/114 116/430/115
f 114/431/113 117/432/116 118/433/117 115/434/114
f 117/435/116 119/436/118 120/437/119 118/438/117
f 119/439/118 121/440/120 122/441/121 120/442/119
f 121/443/120 123/444/122 124/445/123 122/446/121
f 115/447/114 118/448/117 120/449/119 122/450/121 124/451/123 125/452/124 116/453/115
f 123/454/122 126/455/125 125/456/124 124/457/123
f 126/458/125 113/459/112 116/460/115 125/461/124
f 113/462/112 126/463/125 123/464/122 121/465/120 119/466/118 117/467/116 114/468/113
f 75/469/93 127/281/73 128/284/82 84/470/90
f 85/471/7 130/277/7 129/280/74 74/472/95
f 84/473/90 128/273/82 130/276/7 85/474/7
f 74/475/95 129/242/74 127/241/73 75/476/93
f 134/243/75 132/477/126 131/478/127 133/244/76
f 8/40/84 7/37/85 131/479/127 132/480/126
f 129/280/74 8/279/84 132/481/126 134/482/75
f 7/282/85 127/281/73 133/483/76 131/484/127
o 2
v 0.496092 -0.034599 1.977944
v 0.542819 -0.034599 1.977944
v 0.542819 -0.034599 2.024672
v 0.496092 -0.034599 2.024672
v 0.496092 -0.034599 -1.977944
v 0.496092 -0.034599 -2.024672
v 0.542819 -0.034599 -2.024672
v 0.542819 -0.034599 -1.977944
v -0.409793 1.905144 -1.973418
v -0.409793 2.135909 -1.921580
v -0.409793 2.139807 -2.019056
v -0.409793 1.910195 -2.009914
v 0.373679 2.139807 -2.019056
v 0.373679 1.910195 -2.009914
v 0.373679 2.135909 -1.921580
v 0.373679 1.905144 -1.973418
v 0.353566 2.127844 -1.923392
v -0.389678 2.127844 -1.923392
v -0.380838 2.117941 -1.928500
v 0.337284 2.117941 -1.927668
v -0.389678 1.913208 -1.971607
v 0.353566 1.913208 -1.971607
v -0.380898 1.924054 -1.976714
v 0.337222 1.924054 -1.975883
v -0.529995 2.146105 0.499208
v -0.529995 2.146105 -0.499208
v -0.529995 2.413817 -0.499208
v -0.529995 2.413817 0.499208
v -0.558077 2.146105 0.499208
v -0.558077 2.413817 0.499208
v -0.558077 2.413817 -0.499208
v -0.558077 2.146105 -0.499208
vt 0.525315 0.498999
vt 0.525315 0.459334
vt 0.316790 0.459334
vt 0.316790 0.498999
vt 0.630578 0.332332
vt 0.630578 0.167668
vt 0.579948 0.167668
vt 0.579948 0.332332
vt 0.525315 0.332332
vt 0.525315 0.251001
vt 0.316790 0.251001
vt 0.316790 0.332332
vt 0.577946 0.001001
vt 0.527317 0.001001
vt 0.527317 0.165666
vt 0.577946 0.165666
vt 0.525315 0.248999
vt 0.525315 0.167668
vt 0.316790 0.167668
vt 0.316790 0.248999
vt 0.577946 0.332332
vt 0.577946 0.167668
vt 0.527317 0.167668
vt 0.527317 0.332332
vt 0.106264 0.457332
vt 0.314788 0.457332
vt 0.314788 0.376001
vt 0.106264 0.376001
vt 0.314788 0.001001
vt 0.106264 0.001001
vt 0.106264 0.332332
vt 0.314788 0.332332
vt 0.316790 0.457332
vt 0.525315 0.457332
vt 0.525315 0.417668
vt 0.316790 0.417668
vt 0.683210 0.165666
vt 0.683210 0.001001
vt 0.632580 0.001001
vt 0.632580 0.165666
vt 0.106264 0.498999
vt 0.314788 0.498999
vt 0.314788 0.459334
vt 0.106264 0.459334
vt 0.683210 0.332332
vt 0.683210 0.167668
vt 0.632580 0.167668
vt 0.632580 0.332332
vt 0.525315 0.001001
vt 0.316790 0.001001
vt 0.316790 0.165666
vt 0.525315 0.165666
vt 0.316790 0.415666
vt 0.525315 0.415666
vt 0.525315 0.376001
vt 0.316790 0.376001
vt 0.630578 0.165666
vt 0.630578 0.001001
vt 0.579948 0.001001
vt 0.579948 0.165666
vt 0.106264 0.540666
vt 0.314788 0.540666
vt 0.314788 0.501001
vt 0.106264 0.501001
vt 0.104262 0.665666
vt 0.104262 0.001001
vt 0.001001 0.001001
vt 0.001001 0.665666
vt 0.841104 0.748999
vt 0.841104 0.667668
vt 0.001001 0.667668
vt 0.001001 0.748999
vt 0.577946 0.376001
vt 0.527317 0.376001
vt 0.527317 0.457332
vt 0.577946 0.457332
vt 0.946367 0.373999
vt 0.946367 0.334334
vt 0.106264 0.334334
vt 0.106264 0.373999
vt 0.998999 0.334334
vt 0.948369 0.334334
vt 0.948369 0.998999
vt 0.998999 0.998999
vt 0.630578 0.498999
vt 0.630578 0.459334
vt 0.527317 0.459334
vt 0.527317 0.498999
vn 0.0000 -1.0000 0.0000
vn -1.0000 -0.0000 0.0000
vn 0.0000 -0.0398 -0.9992
vn 1.0000 -0.0000 0.0000
vn -0.0005 -0.4281 0.9037
vn 0.0000 -0.9906 -0.1371
vn 0.0000 0.9992 0.0400
vn 0.0000 -0.2191 0.9757
vn 0.0000 -0.2192 0.9757
vn -0.0011 -0.2413 0.9704
vn -0.2533 -0.2222 0.9415
vn -0.0005 0.3969 0.9179
vn 0.4995 -0.1991 0.8431
vn 0.0000 0.0000 1.0000
vn 0.0000 1.0000 0.0000
vn 0.0000 -0.0000 -1.0000
usemtl 003
s 1
f 135/485/128 136/486/128 137/487/128 138/488/128
f 139/489/128 140/490/128 141/491/128 142/492/128
f 143/493/129 144/494/129 145/495/129 146/496/129
f 146/497/130 145/498/130 147/499/130 148/500/130
f 148/501/131 147/502/131 149/503/131 150/504/131
f 151/505/132 152/506/132 153/507/132 154/508/132
f 146/509/133 148/510/133 150/511/133 143/512/133
f 147/513/134 145/514/134 144/515/134 149/516/134
f 155/517/135 152/518/136 144/519/136 143/520/135
f 151/521/136 156/522/135 150/523/135 149/524/136
f 156/525/135 155/526/135 143/527/135 150/528/135
f 152/529/136 151/530/136 149/531/136 144/532/136
f 157/533/137 158/534/137 154/535/137 153/536/137
f 156/537/138 151/538/138 154/539/138 158/540/138
f 155/541/139 156/542/139 158/543/139 157/544/139
f 152/545/140 155/546/140 157/547/140 153/548/140
usemtl 001
f 159/549/131 160/550/131 161/551/131 162/552/131
f 163/553/129 164/554/129 165/555/129 166/556/129
f 162/557/141 164/558/141 163/559/141 159/560/141
f 161/561/142 165/562/142 164/563/142 162/564/142
f 159/565/128 163/566/128 166/567/128 160/568/128
f 160/569/143 166/570/143 165/571/143 161/572/143
o 3
v 0.039449 2.164161 1.302197
v 0.039449 2.212653 1.302197
v 0.131119 2.212653 1.346343
v 0.131119 2.164161 1.346343
v 0.153759 2.212653 1.445537
v 0.153759 2.164161 1.445537
v 0.090322 2.212653 1.525085
v 0.090322 2.164161 1.525085
v -0.011424 2.212653 1.525085
v -0.011424 2.164161 1.525085
v -0.074862 2.212653 1.445537
v -0.074862 2.164161 1.445537
v -0.052221 2.212653 1.346343
v -0.052221 2.164161 1.346343
v 0.136061 2.164161 1.443680
v 0.073927 2.164161 1.516002
v 0.073927 2.171517 1.516002
v 0.136061 2.171517 1.443680
v 0.113472 2.164161 1.351815
v 0.039449 2.164161 1.318726
v 0.004971 2.164161 1.516002
v -0.057163 2.164161 1.443680
v -0.034574 2.164161 1.351815
v 0.039449 2.171517 1.318726
v 0.113472 2.171517 1.351815
v 0.004971 2.171517 1.516002
v -0.057163 2.171517 1.443680
v -0.034574 2.171517 1.351815
v 0.039449 2.164161 0.251414
v 0.039449 2.212653 0.251414
v 0.131119 2.212653 0.295560
v 0.131119 2.164161 0.295560
v 0.153759 2.212653 0.394755
v 0.153759 2.164161 0.394755
v 0.090322 2.212653 0.474304
v 0.090322 2.164161 0.474304
v -0.011424 2.212653 0.474304
v -0.011424 2.164161 0.474304
v -0.074862 2.212653 0.394755
v -0.074862 2.164161 0.394755
v -0.052221 2.212653 0.295560
v -0.052221 2.164161 0.295560
v 0.136061 2.164161 0.392898
v 0.073927 2.164161 0.465219
v 0.073927 2.171517 0.465219
v 0.136061 2.171517 0.392898
v 0.113472 2.164161 0.301034
v 0.039449 2.164161 0.267944
v 0.004971 2.164161 0.465219
v -0.057163 2.164161 0.392898
v -0.034574 2.164161 0.301034
v 0.039449 2.171517 0.267944
v 0.113472 2.171517 0.301034
v 0.004971 2.171517 0.465219
v -0.057163 2.171517 0.392898
v -0.034574 2.171517 0.301034
v 0.039449 2.164161 -1.302197
v 0.131119 2.164161 -1.346343
v 0.131119 2.212653 -1.346343
v 0.039449 2.212653 -1.302197
v 0.153759 2.164161 -1.445537
v 0.153759 2.212653 -1.445537
v 0.090322 2.164161 -1.525086
v 0.090322 2.212653 -1.525086
v -0.011424 2.164161 -1.525086
v -0.011424 2.212653 -1.525086
v -0.074862 2.164161 -1.445537
v -0.074862 2.212653 -1.445537
v -0.052221 2.212653 -1.346343
v -0.052221 2.164161 -1.346343
v 0.136061 2.164161 -1.443680
v 0.136061 2.171517 -1.443680
v 0.073927 2.171517 -1.516002
v 0.073927 2.164161 -1.516002
v 0.113472 2.164161 -1.351816
v 0.039449 2.164161 -1.318727
v 0.004971 2.164161 -1.516002
v -0.057163 2.164161 -1.443680
v -0.034574 2.164161 -1.351816
v 0.039449 2.171517 -1.318727
v -0.034574 2.171517 -1.351816
v -0.057163 2.171517 -1.443680
v 0.004971 2.171517 -1.516002
v 0.113472 2.171517 -1.351816
v 0.039449 2.164161 -0.251415
v 0.131119 2.164161 -0.295561
v 0.131119 2.212653 -0.295561
v 0.039449 2.212653 -0.251415
v 0.153759 2.164161 -0.394756
v 0.153759 2.212653 -0.394756
v 0.090322 2.164161 -0.474304
v 0.090322 2.212653 -0.474304
v -0.011424 2.164161 -0.474304
v -0.011424 2.212653 -0.474304
v -0.074862 2.164161 -0.394756
v -0.074862 2.212653 -0.394756
v -0.052221 2.212653 -0.295561
v -0.052221 2.164161 -0.295561
v 0.136061 2.164161 -0.392899
v 0.136061 2.171517 -0.392899
v 0.073927 2.171517 -0.465220
v 0.073927 2.164161 -0.465220
v 0.113472 2.164161 -0.301034
v 0.039449 2.164161 -0.267945
v 0.004971 2.164161 -0.465220
v -0.057163 2.164161 -0.392899
v -0.034574 2.164161 -0.301034
v 0.039449 2.171517 -0.267945
v -0.034574 2.171517 -0.301034
v -0.057163 2.171517 -0.392899
v 0.004971 2.171517 -0.465220
v 0.113472 2.171517 -0.301034
vt 0.975189 0.001001
vt 0.953382 0.001001
vt 0.953382 0.362635
vt 0.975189 0.362635
vt 0.760904 0.953544
vt 0.760904 0.932819
vt 0.381953 0.932819
vt 0.381953 0.953544
vt 0.903761 0.364637
vt 0.881953 0.364637
vt 0.881953 0.726272
vt 0.903761 0.726272
vt 0.689475 0.364637
vt 0.667668 0.364637
vt 0.667668 0.408090
vt 0.689475 0.408090
vt 0.570428 0.885363
vt 0.570428 0.864637
vt 0.191477 0.864637
vt 0.191477 0.885363
vt 0.400420 0.072287
vt 0.441914 0.001001
vt 0.475189 0.072900
vt 0.475189 0.233842
vt 0.441914 0.362635
vt 0.400420 0.362295
vt 0.381953 0.233079
vt 0.760904 0.862635
vt 0.760904 0.841910
vt 0.381953 0.841910
vt 0.381953 0.862635
vt 0.879951 0.001001
vt 0.858144 0.001001
vt 0.858144 0.362635
vt 0.879951 0.362635
vt 0.381953 0.817181
vt 0.760904 0.817181
vt 0.760904 0.796456
vt 0.381953 0.796456
vt 0.737094 0.635363
vt 0.737094 0.455546
vt 0.691477 0.455546
vt 0.691477 0.635363
vt 0.381953 0.748999
vt 0.760904 0.748999
vt 0.760904 0.728274
vt 0.381953 0.728274
vt 0.427570 0.726272
vt 0.427570 0.364637
vt 0.381953 0.364637
vt 0.381953 0.726272
vt 0.737094 0.682819
vt 0.691477 0.682819
vt 0.691477 0.726272
vt 0.737094 0.726272
vt 0.001001 0.453544
vt 0.379951 0.453544
vt 0.379951 0.410092
vt 0.001001 0.410092
vt 0.784713 0.362635
vt 0.784713 0.001001
vt 0.762906 0.001001
vt 0.762906 0.362635
vt 0.001001 0.771726
vt 0.189475 0.771726
vt 0.189475 0.728274
vt 0.001001 0.728274
vt 0.762906 0.817181
vt 0.951380 0.817181
vt 0.951380 0.796456
vt 0.762906 0.796456
vt 0.594237 0.726272
vt 0.594237 0.364637
vt 0.572430 0.364637
vt 0.572430 0.726272
vt 0.665666 0.408090
vt 0.665666 0.364637
vt 0.643858 0.364637
vt 0.643858 0.408090
vt 0.001001 0.567181
vt 0.379951 0.567181
vt 0.379951 0.546456
vt 0.001001 0.546456
vt 0.998999 0.362635
vt 0.998999 0.182819
vt 0.977191 0.182819
vt 0.977191 0.362635
vt 0.001001 0.612635
vt 0.379951 0.612635
vt 0.379951 0.591910
vt 0.001001 0.591910
vt 0.618047 0.364637
vt 0.596239 0.364637
vt 0.596239 0.726272
vt 0.618047 0.726272
vt 0.379951 0.635363
vt 0.379951 0.614637
vt 0.001001 0.614637
vt 0.001001 0.635363
vt 0.641856 0.364637
vt 0.620049 0.364637
vt 0.620049 0.726272
vt 0.641856 0.726272
vt 0.737094 0.364637
vt 0.715287 0.364637
vt 0.715287 0.408090
vt 0.737094 0.408090
vt 0.379951 0.658090
vt 0.379951 0.637365
vt 0.001001 0.637365
vt 0.001001 0.658090
vt 0.019468 0.072287
vt 0.060961 0.001001
vt 0.094237 0.072900
vt 0.094237 0.233842
vt 0.060962 0.362635
vt 0.019468 0.362296
vt 0.001001 0.233078
vt 0.379951 0.680817
vt 0.379951 0.660092
vt 0.001001 0.660092
vt 0.001001 0.680817
vt 0.760904 0.364637
vt 0.739096 0.364637
vt 0.739096 0.726272
vt 0.760904 0.726272
vt 0.001001 0.703544
vt 0.379951 0.703544
vt 0.379951 0.682819
vt 0.001001 0.682819
vt 0.689475 0.635363
vt 0.689475 0.455546
vt 0.643858 0.455546
vt 0.643858 0.635363
vt 0.001001 0.726272
vt 0.379951 0.726272
vt 0.379951 0.705546
vt 0.001001 0.705546
vt 0.475189 0.726272
vt 0.475189 0.364637
vt 0.429572 0.364637
vt 0.429572 0.726272
vt 0.689475 0.682819
vt 0.643858 0.682819
vt 0.643858 0.726272
vt 0.689475 0.726272
vt 0.001001 0.498999
vt 0.379951 0.498999
vt 0.379951 0.455546
vt 0.001001 0.455546
vt 0.784713 0.726272
vt 0.784713 0.364637
vt 0.762906 0.364637
vt 0.762906 0.726272
vt 0.191477 0.771726
vt 0.379951 0.771726
vt 0.379951 0.728274
vt 0.191477 0.728274
vt 0.762906 0.794454
vt 0.951380 0.794454
vt 0.951380 0.773728
vt 0.762906 0.773728
vt 0.808523 0.362635
vt 0.808523 0.001001
vt 0.786715 0.001001
vt 0.786715 0.362635
vt 0.713285 0.408090
vt 0.713285 0.364637
vt 0.691477 0.364637
vt 0.691477 0.408090
vt 0.381953 0.771726
vt 0.760904 0.771726
vt 0.760904 0.751001
vt 0.381953 0.751001
vt 0.975189 0.908090
vt 0.975189 0.728274
vt 0.953382 0.728274
vt 0.953382 0.908090
vt 0.001001 0.794454
vt 0.379951 0.794454
vt 0.379951 0.773728
vt 0.001001 0.773728
vt 0.832332 0.362635
vt 0.832332 0.001001
vt 0.810525 0.001001
vt 0.810525 0.362635
vt 0.381953 0.794454
vt 0.760904 0.794454
vt 0.760904 0.773728
vt 0.381953 0.773728
vt 0.832332 0.726272
vt 0.832332 0.364637
vt 0.810525 0.364637
vt 0.810525 0.726272
vt 0.689475 0.453544
vt 0.689475 0.410092
vt 0.667668 0.410092
vt 0.667668 0.453544
vt 0.001001 0.817181
vt 0.379951 0.817181
vt 0.379951 0.796456
vt 0.001001 0.796456
vt 0.665666 0.072899
vt 0.665666 0.233842
vt 0.632390 0.362635
vt 0.590896 0.362296
vt 0.572430 0.233078
vt 0.590896 0.072287
vt 0.632390 0.001001
vt 0.001001 0.839908
vt 0.379951 0.839908
vt 0.379951 0.819183
vt 0.001001 0.819183
vt 0.856142 0.362635
vt 0.856142 0.001001
vt 0.834334 0.001001
vt 0.834334 0.362635
vt 0.760904 0.839908
vt 0.760904 0.819183
vt 0.381953 0.819183
vt 0.381953 0.839908
vt 0.879951 0.364637
vt 0.834334 0.364637
vt 0.834334 0.544454
vt 0.879951 0.544454
vt 0.379951 0.862635
vt 0.379951 0.841910
vt 0.001001 0.841910
vt 0.001001 0.862635
vt 0.570428 0.364637
vt 0.524811 0.364637
vt 0.524811 0.726272
vt 0.570428 0.726272
vt 0.737094 0.637365
vt 0.691477 0.637365
vt 0.691477 0.680817
vt 0.737094 0.680817
vt 0.379951 0.408090
vt 0.379951 0.364637
vt 0.001001 0.364637
vt 0.001001 0.408090
vt 0.903761 0.001001
vt 0.881953 0.001001
vt 0.881953 0.362635
vt 0.903761 0.362635
vt 0.189475 0.908090
vt 0.189475 0.864637
vt 0.001001 0.864637
vt 0.001001 0.908090
vt 0.951380 0.748999
vt 0.951380 0.728274
vt 0.762906 0.728274
vt 0.762906 0.748999
vt 0.927570 0.001001
vt 0.905763 0.001001
vt 0.905763 0.362635
vt 0.927570 0.362635
vt 0.665666 0.410092
vt 0.643858 0.410092
vt 0.643858 0.453544
vt 0.665666 0.453544
vt 0.570428 0.908090
vt 0.570428 0.887365
vt 0.191477 0.887365
vt 0.191477 0.908090
vt 0.998999 0.364637
vt 0.977191 0.364637
vt 0.977191 0.544454
vt 0.998999 0.544454
vt 0.379951 0.930817
vt 0.379951 0.910092
vt 0.001001 0.910092
vt 0.001001 0.930817
vt 0.927570 0.726272
vt 0.927570 0.364637
vt 0.905763 0.364637
vt 0.905763 0.726272
vt 0.381953 0.930817
vt 0.760904 0.930817
vt 0.760904 0.910092
vt 0.381953 0.910092
vt 0.951380 0.362635
vt 0.951380 0.001001
vt 0.929572 0.001001
vt 0.929572 0.362635
vt 0.737094 0.453544
vt 0.737094 0.410092
vt 0.715287 0.410092
vt 0.715287 0.453544
vt 0.001001 0.953544
vt 0.379951 0.953544
vt 0.379951 0.932819
vt 0.001001 0.932819
vt 0.114706 0.036814
vt 0.156200 0.001001
vt 0.189475 0.101347
vt 0.189475 0.262289
vt 0.156200 0.362635
vt 0.114706 0.326822
vt 0.096239 0.181818
vt 0.001001 0.976272
vt 0.379951 0.976272
vt 0.379951 0.955546
vt 0.001001 0.955546
vt 0.951380 0.726272
vt 0.951380 0.364637
vt 0.929572 0.364637
vt 0.929572 0.726272
vt 0.760904 0.976272
vt 0.760904 0.955546
vt 0.381953 0.955546
vt 0.381953 0.976272
vt 0.879951 0.546456
vt 0.834334 0.546456
vt 0.834334 0.726272
vt 0.879951 0.726272
vt 0.379951 0.998999
vt 0.379951 0.978274
vt 0.001001 0.978274
vt 0.001001 0.998999
vt 0.522809 0.364637
vt 0.477191 0.364637
vt 0.477191 0.726272
vt 0.522809 0.726272
vt 0.689475 0.637365
vt 0.643858 0.637365
vt 0.643858 0.680817
vt 0.689475 0.680817
vt 0.379951 0.544454
vt 0.379951 0.501001
vt 0.001001 0.501001
vt 0.001001 0.544454
vt 0.975189 0.364637
vt 0.953382 0.364637
vt 0.953382 0.726272
vt 0.975189 0.726272
vt 0.760904 0.908090
vt 0.760904 0.864637
vt 0.572430 0.864637
vt 0.572430 0.908090
vt 0.951380 0.771726
vt 0.951380 0.751001
vt 0.762906 0.751001
vt 0.762906 0.771726
vt 0.808523 0.364637
vt 0.786715 0.364637
vt 0.786715 0.726272
vt 0.808523 0.726272
vt 0.713285 0.410092
vt 0.691477 0.410092
vt 0.691477 0.453544
vt 0.713285 0.453544
vt 0.760904 0.998999
vt 0.760904 0.978274
vt 0.381953 0.978274
vt 0.381953 0.998999
vt 0.998999 0.001001
vt 0.977191 0.001001
vt 0.977191 0.180817
vt 0.998999 0.180817
vt 0.379951 0.589908
vt 0.379951 0.569183
vt 0.001001 0.569183
vt 0.001001 0.589908
vn 0.4339 0.0000 -0.9010
vn 0.9749 0.0000 -0.2225
vn 0.7818 0.0000 0.6235
vn 0.0000 0.0000 1.0000
vn -0.7818 0.0000 0.6235
vn 0.0000 1.0000 0.0000
vn -0.9749 0.0000 -0.2225
vn -0.4339 0.0000 -0.9010
vn -0.7585 0.0000 -0.6517
vn 0.0000 -1.0000 -0.0000
vn -0.4081 0.0000 0.9129
vn 0.9711 0.0000 0.2388
vn 0.0000 0.0000 -1.0000
vn -0.9711 0.0000 0.2388
vn 0.4081 0.0000 0.9129
vn 0.7585 0.0000 -0.6517
vn 0.4339 0.0000 0.9010
vn 0.9749 0.0000 0.2225
vn 0.7818 0.0000 -0.6235
vn -0.7818 0.0000 -0.6235
vn -0.9749 0.0000 0.2225
vn -0.4339 0.0000 0.9010
vn -0.7585 0.0000 0.6517
vn -0.4081 0.0000 -0.9129
vn 0.9711 0.0000 -0.2388
vn -0.9711 0.0000 -0.2388
vn 0.4081 0.0000 -0.9129
vn 0.7585 0.0000 0.6517
usemtl 004
s 1
f 167/573/144 168/574/144 169/575/144 170/576/144
f 170/577/145 169/578/145 171/579/145 172/580/145
f 172/581/146 171/582/146 173/583/146 174/584/146
f 174/585/147 173/586/147 175/587/147 176/588/147
f 176/589/148 175/590/148 177/591/148 178/592/148
f 169/593/149 168/594/149 179/595/149 177/596/149 175/597/149 173/598/149 171/599/149
f 178/600/150 177/601/150 179/602/150 180/603/150
f 180/604/151 179/605/151 168/606/151 167/607/151
f 181/608/152 182/609/152 183/610/152 184/611/152
f 185/612/153 186/613/153 167/614/153 170/615/153
f 181/616/153 185/617/153 170/618/153 172/619/153
f 182/620/153 181/621/153 172/622/153 174/623/153
f 187/624/153 182/625/153 174/626/153 176/627/153
f 188/628/153 187/629/153 176/630/153 178/631/153
f 189/632/153 188/633/153 178/634/153 180/635/153
f 186/636/153 189/637/153 180/638/153 167/639/153
f 186/640/154 185/641/154 191/642/154 190/643/154
f 188/644/155 189/645/155 194/646/155 193/647/155
f 182/648/156 187/649/156 192/650/156 183/651/156
f 185/652/157 181/653/157 184/654/157 191/655/157
f 189/656/158 186/657/158 190/658/158 194/659/158
f 187/660/159 188/661/159 193/662/159 192/663/159
f 195/664/144 196/665/144 197/666/144 198/667/144
f 198/668/145 197/669/145 199/670/145 200/671/145
f 200/672/146 199/673/146 201/674/146 202/675/146
f 202/676/147 201/677/147 203/678/147 204/679/147
f 204/680/148 203/681/148 205/682/148 206/683/148
f 197/684/149 196/685/149 207/686/149 205/687/149 203/688/149 201/689/149 199/690/149
f 206/691/150 205/692/150 207/693/150 208/694/150
f 208/695/151 207/696/151 196/697/151 195/698/151
f 209/699/152 210/700/152 211/701/152 212/702/152
f 213/703/153 214/704/153 195/705/153 198/706/153
f 209/707/153 213/708/153 198/709/153 200/710/153
f 210/711/153 209/712/153 200/713/153 202/714/153
f 215/715/153 210/716/153 202/717/153 204/718/153
f 216/719/153 215/720/153 204/721/153 206/722/153
f 217/723/153 216/724/153 206/725/153 208/726/153
f 214/727/153 217/728/153 208/729/153 195/730/153
f 214/731/154 213/732/154 219/733/154 218/734/154
f 216/735/155 217/736/155 222/737/155 221/738/155
f 210/739/156 215/740/156 220/741/156 211/742/156
f 213/743/157 209/744/157 212/745/157 219/746/157
f 217/747/158 214/748/158 218/749/158 222/750/158
f 215/751/159 216/752/159 221/753/159 220/754/159
f 223/755/160 224/756/160 225/757/160 226/758/160
f 224/759/161 227/760/161 228/761/161 225/762/161
f 227/763/162 229/764/162 230/765/162 228/766/162
f 229/767/156 231/768/156 232/769/156 230/770/156
f 231/771/163 233/772/163 234/773/163 232/774/163
f 225/775/149 228/776/149 230/777/149 232/778/149 234/779/149 235/780/149 226/781/149
f 233/782/164 236/783/164 235/784/164 234/785/164
f 236/786/165 223/787/165 226/788/165 235/789/165
f 237/790/166 238/791/166 239/792/166 240/793/166
f 241/794/153 224/795/153 223/796/153 242/797/153
f 237/798/153 227/799/153 224/800/153 241/801/153
f 240/802/153 229/803/153 227/804/153 237/805/153
f 243/806/153 231/807/153 229/808/153 240/809/153
f 244/810/153 233/811/153 231/812/153 243/813/153
f 245/814/153 236/815/153 233/816/153 244/817/153
f 242/818/153 223/819/153 236/820/153 245/821/153
f 242/822/167 246/823/167 250/824/167 241/825/167
f 244/826/168 248/827/168 247/828/168 245/829/168
f 240/830/147 239/831/147 249/832/147 243/833/147
f 241/834/169 250/835/169 238/836/169 237/837/169
f 245/838/170 247/839/170 246/840/170 242/841/170
f 243/842/171 249/843/171 248/844/171 244/845/171
f 251/846/160 252/847/160 253/848/160 254/849/160
f 252/850/161 255/851/161 256/852/161 253/853/161
f 255/854/162 257/855/162 258/856/162 256/857/162
f 257/858/156 259/859/156 260/860/156 258/861/156
f 259/862/163 261/863/163 262/864/163 260/865/163
f 253/866/149 256/867/149 258/868/149 260/869/149 262/870/149 263/871/149 254/872/149
f 261/873/164 264/874/164 263/875/164 262/876/164
f 264/877/165 251/878/165 254/879/165 263/880/165
f 265/881/166 266/882/166 267/883/166 268/884/166
f 269/885/153 252/886/153 251/887/153 270/888/153
f 265/889/153 255/890/153 252/891/153 269/892/153
f 268/893/153 257/894/153 255/895/153 265/896/153
f 271/897/153 259/898/153 257/899/153 268/900/153
f 272/901/153 261/902/153 259/903/153 271/904/153
f 273/905/153 264/906/153 261/907/153 272/908/153
f 270/909/153 251/910/153 264/911/153 273/912/153
f 270/913/167 274/914/167 278/915/167 269/916/167
f 272/917/168 276/918/168 275/919/168 273/920/168
f 268/921/147 267/922/147 277/923/147 271/924/147
f 269/925/169 278/926/169 266/927/169 265/928/169
f 273/929/170 275/930/170 274/931/170 270/932/170
f 271/933/171 277/934/171 276/935/171 272/936/171
o 4
v -0.499208 0.102118 1.987396
v -0.499208 0.102118 2.006266
v -0.499208 2.109819 2.006266
v -0.499208 2.109819 1.987396
v 0.484580 0.102118 2.006266
v 0.499208 0.114314 2.012463
v 0.499208 2.097623 2.012463
v 0.484580 2.109819 2.006266
v 0.499208 0.114314 1.981198
v 0.499208 2.097623 1.981198
v -0.224366 0.102118 1.987396
v -0.224366 2.109819 1.987396
v -0.499208 0.100792 1.981198
v -0.499208 0.077211 1.981198
v -0.499208 0.077211 2.012463
v -0.499208 0.100792 2.012463
v -0.224366 2.109819 2.006266
v 0.484580 0.077211 2.012463
v 0.484580 0.077211 1.981198
v 0.499208 0.077211 1.981198
v 0.499208 0.077211 2.012463
v 0.499208 0.100792 2.012463
v 0.499208 0.100792 1.981198
v -0.224366 0.100792 1.981198
v -0.224366 0.077211 1.981198
v 0.484580 0.100792 2.012463
v -0.224366 0.077211 2.012463
v -0.224366 0.100792 2.012463
v -0.190478 0.100792 1.981198
v -0.190478 0.077211 1.981198
v -0.190478 2.109819 2.006266
v -0.190478 2.109819 1.987396
v -0.190478 0.102118 1.987396
v -0.224366 0.102118 2.006266
v 0.499208 -0.013440 2.012463
v 0.499208 -0.013440 1.981198
v 0.484580 0.102118 1.987396
v 0.484580 2.109819 1.987396
v 0.484580 0.100792 1.981198
v -0.190478 0.100792 2.012463
v -0.190478 0.077211 2.012463
v -0.190478 0.102118 2.006266
v 0.484580 0.008167 1.981198
v 0.484580 0.008167 2.012463
v -0.523429 2.241276 2.041754
v -0.523429 2.241276 -0.000000
v 0.783078 2.104247 -0.000000
v 0.783078 2.104247 2.041754
v -0.516132 2.310845 2.041754
v 0.790375 2.173816 2.041754
v 0.790375 2.173816 -0.000000
v -0.516132 2.310845 -0.000000
v 0.504063 0.096066 -0.000000
v 0.504063 0.096066 1.996144
v 0.504063 2.107030 1.996144
v 0.504063 2.107030 -0.000000
v 0.534472 0.096066 1.996144
v 0.534472 2.107030 1.996144
v 0.534472 0.096066 -0.000000
v 0.534472 2.107030 -0.000000
v 0.542655 0.078084 -0.000000
v 0.542655 0.098385 -0.000000
v 0.542655 0.098385 1.994652
v 0.542655 0.078085 1.994652
v 0.496034 0.078084 -0.000000
v 0.496034 0.098385 -0.000000
v -0.499208 0.102118 -1.987396
v -0.499208 2.109819 -1.987396
v -0.499208 2.109819 -2.006266
v -0.499208 0.102118 -2.006266
v 0.484580 0.102118 -2.006266
v 0.484580 2.109819 -2.006266
v 0.499208 2.097623 -2.012463
v 0.499208 0.114314 -2.012463
v 0.499208 2.097623 -1.981198
v 0.499208 0.114314 -1.981198
v -0.224366 0.102118 -1.987396
v -0.224366 2.109819 -1.987396
v -0.499208 0.100792 -1.981198
v -0.499208 0.100792 -2.012463
v -0.499208 0.077211 -2.012463
v -0.499208 0.077211 -1.981198
v -0.224366 2.109819 -2.006266
v 0.484580 0.077211 -2.012463
v 0.499208 0.077211 -2.012463
v 0.499208 0.077211 -1.981198
v 0.484580 0.077211 -1.981198
v 0.499208 0.100792 -2.012463
v 0.499208 0.100792 -1.981198
v -0.224366 0.100792 -1.981198
v -0.224366 0.077211 -1.981198
v 0.484580 0.100792 -2.012463
v -0.224366 0.100792 -2.012463
v -0.224366 0.077211 -2.012463
v -0.190478 0.100792 -1.981198
v -0.190478 0.077211 -1.981198
v -0.190478 2.109819 -2.006266
v -0.190478 2.109819 -1.987396
v -0.190478 0.102118 -1.987396
v -0.224366 0.102118 -2.006266
v 0.499208 -0.013440 -1.981198
v 0.499208 -0.013440 -2.012463
v 0.484580 2.109819 -1.987396
v 0.484580 0.102118 -1.987396
v 0.484580 0.100792 -1.981198
v -0.190478 0.100792 -2.012463
v -0.190478 0.077211 -2.012463
v -0.190478 0.102118 -2.006266
v 0.484580 0.008167 -2.012463
v 0.484580 0.008167 -1.981198
v -0.523429 2.241276 -2.041755
v 0.783078 2.104247 -2.041755
v -0.516132 2.310845 -2.041755
v 0.790375 2.173816 -2.041755
v 0.504063 2.107030 -1.996144
v 0.504063 0.096066 -1.996144
v 0.534472 2.107030 -1.996144
v 0.534472 0.096066 -1.996144
v 0.542655 0.078084 -1.994652
v 0.542655 0.098385 -1.994652
vt 0.815666 0.143858
vt 0.801001 0.143858
vt 0.801001 0.284713
vt 0.815666 0.284713
vt 0.798999 0.784713
vt 0.798999 0.777787
vt 0.667668 0.777787
vt 0.667668 0.784713
vt 0.765666 0.143858
vt 0.734334 0.143858
vt 0.734334 0.284713
vt 0.765666 0.284713
vt 0.598999 0.829356
vt 0.598999 0.813501
vt 0.467668 0.813501
vt 0.467668 0.829356
vt 0.648999 0.795644
vt 0.642668 0.795644
vt 0.642668 0.829356
vt 0.648999 0.829356
vt 0.632332 0.777787
vt 0.617668 0.777787
vt 0.617668 0.793642
vt 0.632332 0.793642
vt 0.640666 0.829356
vt 0.640666 0.795644
vt 0.634334 0.795644
vt 0.634334 0.829356
vt 0.665666 0.795644
vt 0.659334 0.795644
vt 0.659334 0.829356
vt 0.665666 0.829356
vt 0.582332 0.001001
vt 0.576001 0.001001
vt 0.576001 0.016856
vt 0.582332 0.016856
vt 0.090666 0.786715
vt 0.084334 0.786715
vt 0.084334 0.793642
vt 0.090666 0.793642
vt 0.573999 0.001001
vt 0.567668 0.001001
vt 0.567668 0.016856
vt 0.573999 0.016856
vt 0.648999 0.768858
vt 0.642668 0.768858
vt 0.642668 0.775785
vt 0.648999 0.775785
vt 0.082332 0.820428
vt 0.082332 0.786715
vt 0.067668 0.786715
vt 0.067668 0.820428
vt 0.598999 0.016856
vt 0.598999 0.001001
vt 0.592668 0.001001
vt 0.592668 0.016856
vt 0.798999 0.775785
vt 0.798999 0.768858
vt 0.667668 0.768858
vt 0.667668 0.775785
vt 0.782332 0.143858
vt 0.767668 0.143858
vt 0.767668 0.284713
vt 0.782332 0.284713
vt 0.657332 0.795644
vt 0.651001 0.795644
vt 0.651001 0.829356
vt 0.657332 0.829356
vt 0.665666 0.001001
vt 0.634334 0.001001
vt 0.634334 0.070428
vt 0.665666 0.070428
vt 0.798999 0.766856
vt 0.798999 0.759930
vt 0.667668 0.759930
vt 0.667668 0.766856
vt 0.590666 0.016856
vt 0.590666 0.001001
vt 0.584334 0.001001
vt 0.584334 0.016856
vt 0.640666 0.768858
vt 0.634334 0.768858
vt 0.634334 0.775785
vt 0.640666 0.775785
vt 0.448999 0.759930
vt 0.442668 0.759930
vt 0.442668 0.829356
vt 0.448999 0.829356
vt 0.632332 0.001001
vt 0.601001 0.001001
vt 0.601001 0.070428
vt 0.632332 0.070428
vt 0.732332 0.001001
vt 0.667668 0.001001
vt 0.667668 0.141856
vt 0.732332 0.141856
vt 0.615666 0.795644
vt 0.609334 0.795644
vt 0.609334 0.829356
vt 0.615666 0.829356
vt 0.665666 0.856142
vt 0.665666 0.849215
vt 0.534334 0.849215
vt 0.534334 0.856142
vt 0.607332 0.829356
vt 0.607332 0.795644
vt 0.601001 0.795644
vt 0.601001 0.829356
vt 0.648999 0.759930
vt 0.642668 0.759930
vt 0.642668 0.766856
vt 0.648999 0.766856
vt 0.732332 0.143858
vt 0.667668 0.143858
vt 0.667668 0.284713
vt 0.732332 0.284713
vt 0.098999 0.715287
vt 0.084334 0.715287
vt 0.084334 0.784713
vt 0.098999 0.784713
vt 0.440666 0.759930
vt 0.434334 0.759930
vt 0.434334 0.829356
vt 0.440666 0.829356
vt 0.598999 0.072430
vt 0.567668 0.072430
vt 0.567668 0.141856
vt 0.598999 0.141856
vt 0.640666 0.759930
vt 0.634334 0.759930
vt 0.634334 0.766856
vt 0.640666 0.766856
vt 0.465666 0.829356
vt 0.465666 0.759930
vt 0.459334 0.759930
vt 0.459334 0.829356
vt 0.665666 0.768858
vt 0.659334 0.768858
vt 0.659334 0.775785
vt 0.665666 0.775785
vt 0.457332 0.759930
vt 0.451001 0.759930
vt 0.451001 0.829356
vt 0.457332 0.829356
vt 0.267668 0.427570
vt 0.798999 0.427570
vt 0.798999 0.286715
vt 0.267668 0.286715
vt 0.265666 0.286715
vt 0.134334 0.286715
vt 0.134334 0.856142
vt 0.265666 0.856142
vt 0.134334 0.284713
vt 0.665666 0.284713
vt 0.665666 0.143858
vt 0.134334 0.143858
vt 0.823999 0.001001
vt 0.817668 0.001001
vt 0.817668 0.141856
vt 0.823999 0.141856
vt 0.401001 0.722213
vt 0.932332 0.722213
vt 0.932332 0.715287
vt 0.401001 0.715287
vt 0.998999 0.998999
vt 0.998999 0.429572
vt 0.992668 0.429572
vt 0.992668 0.998999
vt 0.932332 0.731142
vt 0.932332 0.724215
vt 0.401001 0.724215
vt 0.401001 0.731142
vt 0.615666 0.777787
vt 0.601001 0.777787
vt 0.601001 0.793642
vt 0.615666 0.793642
vt 0.982332 0.429572
vt 0.976001 0.429572
vt 0.976001 0.998999
vt 0.982332 0.998999
vt 0.932332 0.740070
vt 0.932332 0.733144
vt 0.401001 0.733144
vt 0.401001 0.740070
vt 0.657332 0.768858
vt 0.651001 0.768858
vt 0.651001 0.775785
vt 0.657332 0.775785
vt 0.948999 0.429572
vt 0.934334 0.429572
vt 0.934334 0.998999
vt 0.948999 0.998999
vt 0.532332 0.856142
vt 0.532332 0.849215
vt 0.401001 0.849215
vt 0.401001 0.856142
vt 0.132332 0.713285
vt 0.132332 0.143858
vt 0.001001 0.143858
vt 0.001001 0.713285
vt 0.415666 0.829356
vt 0.415666 0.759930
vt 0.409334 0.759930
vt 0.409334 0.829356
vt 0.665666 0.759930
vt 0.659334 0.759930
vt 0.659334 0.766856
vt 0.665666 0.766856
vt 0.407332 0.829356
vt 0.407332 0.759930
vt 0.401001 0.759930
vt 0.401001 0.829356
vt 0.657332 0.759930
vt 0.651001 0.759930
vt 0.651001 0.766856
vt 0.657332 0.766856
vt 0.582332 0.034713
vt 0.582332 0.018858
vt 0.576001 0.018858
vt 0.576001 0.034713
vt 0.648999 0.786715
vt 0.642668 0.786715
vt 0.642668 0.793642
vt 0.648999 0.793642
vt 0.573999 0.034713
vt 0.573999 0.018858
vt 0.567668 0.018858
vt 0.567668 0.034713
vt 0.632332 0.829356
vt 0.632332 0.795644
vt 0.626001 0.795644
vt 0.626001 0.829356
vt 0.640666 0.786715
vt 0.634334 0.786715
vt 0.634334 0.793642
vt 0.640666 0.793642
vt 0.598999 0.034713
vt 0.598999 0.018858
vt 0.592668 0.018858
vt 0.592668 0.034713
vt 0.467668 0.811499
vt 0.598999 0.811499
vt 0.598999 0.795644
vt 0.467668 0.795644
vt 0.815666 0.427570
vt 0.815666 0.286715
vt 0.809334 0.286715
vt 0.809334 0.427570
vt 0.467668 0.793642
vt 0.598999 0.793642
vt 0.598999 0.759930
vt 0.467668 0.759930
vt 0.798999 0.284713
vt 0.798999 0.143858
vt 0.784334 0.143858
vt 0.784334 0.284713
vt 0.623999 0.829356
vt 0.623999 0.795644
vt 0.617668 0.795644
vt 0.617668 0.829356
vt 0.632332 0.759930
vt 0.617668 0.759930
vt 0.617668 0.775785
vt 0.632332 0.775785
vt 0.582332 0.036715
vt 0.576001 0.036715
vt 0.576001 0.070428
vt 0.582332 0.070428
vt 0.573999 0.070428
vt 0.573999 0.036715
vt 0.567668 0.036715
vt 0.567668 0.070428
vt 0.590666 0.034713
vt 0.590666 0.018858
vt 0.584334 0.018858
vt 0.584334 0.034713
vt 0.648999 0.777787
vt 0.642668 0.777787
vt 0.642668 0.784713
vt 0.648999 0.784713
vt 0.548999 0.016856
vt 0.548999 0.001001
vt 0.542668 0.001001
vt 0.542668 0.016856
vt 0.640666 0.777787
vt 0.634334 0.777787
vt 0.634334 0.784713
vt 0.640666 0.784713
vt 0.565666 0.036715
vt 0.551001 0.036715
vt 0.551001 0.070428
vt 0.565666 0.070428
vt 0.540666 0.001001
vt 0.534334 0.001001
vt 0.534334 0.016856
vt 0.540666 0.016856
vt 0.534334 0.847213
vt 0.665666 0.847213
vt 0.665666 0.840287
vt 0.534334 0.840287
vt 0.815666 0.141856
vt 0.815666 0.001001
vt 0.801001 0.001001
vt 0.801001 0.141856
vt 0.598999 0.070428
vt 0.598999 0.036715
vt 0.592668 0.036715
vt 0.592668 0.070428
vt 0.565666 0.141856
vt 0.565666 0.072430
vt 0.534334 0.072430
vt 0.534334 0.141856
vt 0.401001 0.847213
vt 0.532332 0.847213
vt 0.532332 0.840287
vt 0.401001 0.840287
vt 0.565666 0.001001
vt 0.559334 0.001001
vt 0.559334 0.016856
vt 0.565666 0.016856
vt 0.665666 0.786715
vt 0.659334 0.786715
vt 0.659334 0.793642
vt 0.665666 0.793642
vt 0.432332 0.829356
vt 0.432332 0.759930
vt 0.426001 0.759930
vt 0.426001 0.829356
vt 0.665666 0.141856
vt 0.665666 0.072430
vt 0.634334 0.072430
vt 0.634334 0.141856
vt 0.798999 0.141856
vt 0.798999 0.001001
vt 0.734334 0.001001
vt 0.734334 0.141856
vt 0.590666 0.070428
vt 0.590666 0.036715
vt 0.584334 0.036715
vt 0.584334 0.070428
vt 0.667668 0.793642
vt 0.798999 0.793642
vt 0.798999 0.786715
vt 0.667668 0.786715
vt 0.548999 0.036715
vt 0.542668 0.036715
vt 0.542668 0.070428
vt 0.548999 0.070428
vt 0.657332 0.786715
vt 0.651001 0.786715
vt 0.651001 0.793642
vt 0.657332 0.793642
vt 0.065666 0.856142
vt 0.065666 0.715287
vt 0.001001 0.715287
vt 0.001001 0.856142
vt 0.082332 0.784713
vt 0.082332 0.715287
vt 0.067668 0.715287
vt 0.067668 0.784713
vt 0.423999 0.829356
vt 0.423999 0.759930
vt 0.417668 0.759930
vt 0.417668 0.829356
vt 0.632332 0.141856
vt 0.632332 0.072430
vt 0.601001 0.072430
vt 0.601001 0.141856
vt 0.665666 0.777787
vt 0.659334 0.777787
vt 0.659334 0.784713
vt 0.665666 0.784713
vt 0.115666 0.715287
vt 0.109334 0.715287
vt 0.109334 0.784713
vt 0.115666 0.784713
vt 0.657332 0.777787
vt 0.651001 0.777787
vt 0.651001 0.784713
vt 0.657332 0.784713
vt 0.107332 0.784713
vt 0.107332 0.715287
vt 0.101001 0.715287
vt 0.101001 0.784713
vt 0.532332 0.141856
vt 0.532332 0.001001
vt 0.001001 0.001001
vt 0.001001 0.141856
vt 0.398999 0.998999
vt 0.398999 0.429572
vt 0.267668 0.429572
vt 0.267668 0.998999
vt 0.932332 0.713285
vt 0.932332 0.572430
vt 0.401001 0.572430
vt 0.401001 0.713285
vt 0.807332 0.427570
vt 0.807332 0.286715
vt 0.801001 0.286715
vt 0.801001 0.427570
vt 0.932332 0.838285
vt 0.932332 0.831358
vt 0.401001 0.831358
vt 0.401001 0.838285
vt 0.990666 0.429572
vt 0.984334 0.429572
vt 0.984334 0.998999
vt 0.990666 0.998999
vt 0.401001 0.757928
vt 0.932332 0.757928
vt 0.932332 0.751001
vt 0.401001 0.751001
vt 0.565666 0.018858
vt 0.551001 0.018858
vt 0.551001 0.034713
vt 0.565666 0.034713
vt 0.973999 0.998999
vt 0.973999 0.429572
vt 0.967668 0.429572
vt 0.967668 0.998999
vt 0.401001 0.748999
vt 0.932332 0.748999
vt 0.932332 0.742072
vt 0.401001 0.742072
vt 0.965666 0.998999
vt 0.965666 0.429572
vt 0.951001 0.429572
vt 0.951001 0.998999
vt 0.932332 0.570428
vt 0.932332 0.429572
vt 0.401001 0.429572
vt 0.401001 0.570428
vt 0.132332 0.715287
vt 0.126001 0.715287
vt 0.126001 0.784713
vt 0.132332 0.784713
vt 0.615666 0.768858
vt 0.609334 0.768858
vt 0.609334 0.775785
vt 0.615666 0.775785
vt 0.123999 0.715287
vt 0.117668 0.715287
vt 0.117668 0.784713
vt 0.123999 0.784713
vt 0.607332 0.768858
vt 0.601001 0.768858
vt 0.601001 0.775785
vt 0.607332 0.775785
vt 0.557332 0.001001
vt 0.551001 0.001001
vt 0.551001 0.016856
vt 0.557332 0.016856
vt 0.615666 0.759930
vt 0.609334 0.759930
vt 0.609334 0.766856
vt 0.615666 0.766856
vt 0.548999 0.018858
vt 0.542668 0.018858
vt 0.542668 0.034713
vt 0.548999 0.034713
vt 0.540666 0.036715
vt 0.534334 0.036715
vt 0.534334 0.070428
vt 0.540666 0.070428
vt 0.607332 0.759930
vt 0.601001 0.759930
vt 0.601001 0.766856
vt 0.607332 0.766856
vt 0.540666 0.018858
vt 0.534334 0.018858
vt 0.534334 0.034713
vt 0.540666 0.034713
vn -1.0000 0.0000 0.0000
vn -0.3901 0.0000 0.9208
vn 1.0000 0.0000 0.0000
vn 0.0000 -0.0000 -1.0000
vn 0.0000 1.0000 0.0000
vn 0.0000 -1.0000 0.0000
vn 0.0000 0.0000 1.0000
vn -0.1243 -0.9922 0.0000
vn -0.3901 -0.0000 -0.9208
vn 0.6404 0.7681 0.0000
vn 0.1017 0.9948 -0.0000
vn -0.1043 -0.9945 0.0000
vn 0.1043 0.9945 0.0000
vn 0.2604 0.8098 0.5258
vn -0.2434 -0.9699 0.0057
vn 0.0268 0.9996 -0.0006
vn -1.0000 0.0024 0.0016
vn 0.0000 0.9779 -0.2089
vn 0.0000 0.9779 -0.2092
vn 0.0000 0.9779 0.2092
vn -0.3355 0.3629 -0.8694
vn -0.0000 0.9779 0.2089
vn -0.3354 0.3628 0.8694
vn 0.2604 0.8098 -0.5258
vn -0.2434 -0.9699 -0.0057
vn 0.0268 0.9996 0.0006
vn -1.0000 0.0024 -0.0016
vn -0.3355 0.3629 0.8693
vn -0.3354 0.3628 -0.8694
usemtl 002
s 1
f 279/937/172 280/938/172 281/939/172 282/940/172
f 283/941/173 284/942/173 285/943/173 286/944/173
f 284/945/174 287/946/174 288/947/174 285/948/174
f 289/949/175 279/950/175 282/951/175 290/952/175
f 291/953/172 292/954/172 293/955/172 294/956/172
f 295/957/176 290/958/176 282/959/176 281/960/176
f 296/961/177 297/962/177 298/963/177 299/964/177
f 300/965/174 299/966/174 298/967/174 301/968/174
f 302/969/175 303/970/175 292/971/175 291/972/175
f 304/973/178 296/974/178 299/975/178 300/976/178
f 294/977/178 293/978/178 305/979/178 306/980/178
f 307/981/175 308/982/175 303/983/175 302/984/175
f 293/985/177 292/986/177 303/987/177 305/988/177
f 309/989/176 310/990/176 290/991/176 295/992/176
f 311/993/175 289/994/175 290/995/175 310/996/175
f 280/997/178 312/998/178 295/999/178 281/1000/178
f 299/1001/174 313/1002/174 314/1003/174 298/1004/174
f 314/1005/179 313/1006/179 305/1007/179 303/1008/179
f 287/1009/180 315/1010/180 316/1011/180 288/1012/180
f 285/1013/181 288/1014/181 316/1015/181 286/1016/181
f 301/1017/175 298/1018/175 297/1019/175 317/1020/175
f 318/1021/178 319/1022/178 296/1023/178 304/1024/178
f 319/1025/177 308/1026/177 297/1027/177 296/1028/177
f 320/1029/178 283/1030/178 286/1031/178 309/1032/178
f 297/1033/172 321/1034/172 322/1035/172 296/1036/172
f 312/1037/178 320/1038/178 309/1039/178 295/1040/178
f 305/1041/177 303/1042/177 308/1043/177 319/1044/177
f 306/1045/178 305/1046/178 319/1047/178 318/1048/178
f 315/1049/175 311/1050/175 310/1051/175 316/1052/175
f 286/1053/176 316/1054/176 310/1055/176 309/1056/176
f 317/1057/175 297/1058/175 308/1059/175 307/1060/175
f 308/1061/182 319/1062/182 322/1063/182 321/1064/182
f 297/1065/175 298/1066/175 314/1067/175 321/1068/175
f 308/1069/175 321/1070/175 314/1071/175 303/1072/175
f 313/1073/178 299/1074/178 296/1075/178 322/1076/178
f 319/1077/178 305/1078/178 313/1079/178 322/1080/178
f 323/1081/183 324/1082/183 325/1083/183 326/1084/183
f 327/1085/184 328/1086/184 329/1087/184 330/1088/184
f 331/1089/172 332/1090/172 333/1091/172 334/1092/172
f 332/1093/178 335/1094/178 336/1095/178 333/1096/178
f 337/1097/177 335/1098/177 332/1099/177 331/1100/177
f 334/1101/176 333/1102/176 336/1103/176 338/1104/176
f 339/1105/174 340/1106/174 341/1107/174 342/1108/174
f 342/1109/185 341/1110/185 301/1111/185 300/1112/185
f 343/1113/186 339/1114/186 342/1115/186 300/1116/186
f 340/1117/187 344/1118/187 301/1119/187 341/1120/187
f 339/1121/178 340/1122/178 344/1123/178 343/1124/178
f 300/1125/188 301/1126/188 344/1127/188 343/1128/188
f 331/1129/178 337/1130/178 338/1131/178 334/1132/178
f 335/1133/174 337/1134/174 338/1135/174 336/1136/174
f 317/1137/189 307/1138/190 311/1139/190 315/1140/189
f 306/1141/191 318/1142/191 320/1143/191 312/1144/191
f 318/1145/191 304/1146/191 283/1147/191 320/1148/191
f 301/1149/192 317/1150/192 315/1151/192 287/1152/192
f 294/1153/193 306/1154/191 312/1155/191 280/1156/193
f 307/1157/190 302/1158/190 289/1159/190 311/1160/190
f 302/1161/190 291/1162/189 279/1163/189 289/1164/190
f 300/1165/174 301/1166/174 287/1167/174 284/1168/174
f 304/1169/194 300/1170/194 284/1171/194 283/1172/194
f 291/1173/172 294/1174/172 280/1175/172 279/1176/172
f 345/1177/172 346/1178/172 347/1179/172 348/1180/172
f 349/1181/180 350/1182/180 351/1183/180 352/1184/180
f 352/1185/174 351/1186/174 353/1187/174 354/1188/174
f 355/1189/178 356/1190/178 346/1191/178 345/1192/178
f 357/1193/172 358/1194/172 359/1195/172 360/1196/172
f 361/1197/176 347/1198/176 346/1199/176 356/1200/176
f 362/1201/177 363/1202/177 364/1203/177 365/1204/177
f 366/1205/174 367/1206/174 364/1207/174 363/1208/174
f 368/1209/178 357/1210/178 360/1211/178 369/1212/178
f 370/1213/175 366/1214/175 363/1215/175 362/1216/175
f 358/1217/175 371/1218/175 372/1219/175 359/1220/175
f 373/1221/178 368/1222/178 369/1223/178 374/1224/178
f 359/1225/177 372/1226/177 369/1227/177 360/1228/177
f 375/1229/176 361/1230/176 356/1231/176 376/1232/176
f 377/1233/178 376/1234/178 356/1235/178 355/1236/178
f 348/1237/175 347/1238/175 361/1239/175 378/1240/175
f 363/1241/174 364/1242/174 379/1243/174 380/1244/174
f 379/1245/179 369/1246/179 372/1247/179 380/1248/179
f 354/1249/173 353/1250/173 381/1251/173 382/1252/173
f 351/1253/181 350/1254/181 381/1255/181 353/1256/181
f 367/1257/178 383/1258/178 365/1259/178 364/1260/178
f 384/1261/175 370/1262/175 362/1263/175 385/1264/175
f 385/1265/177 362/1266/177 365/1267/177 374/1268/177
f 386/1269/175 375/1270/175 350/1271/175 349/1272/175
f 365/1273/172 362/1274/172 387/1275/172 388/1276/172
f 378/1277/175 361/1278/175 375/1279/175 386/1280/175
f 372/1281/177 385/1282/177 374/1283/177 369/1284/177
f 371/1285/175 384/1286/175 385/1287/175 372/1288/175
f 382/1289/178 381/1290/178 376/1291/178 377/1292/178
f 350/1293/176 375/1294/176 376/1295/176 381/1296/176
f 383/1297/178 373/1298/178 374/1299/178 365/1300/178
f 374/1301/182 388/1302/182 387/1303/182 385/1304/182
f 365/1305/178 388/1306/178 379/1307/178 364/1308/178
f 374/1309/178 369/1310/178 379/1311/178 388/1312/178
f 380/1313/175 387/1314/175 362/1315/175 363/1316/175
f 385/1317/175 387/1318/175 380/1319/175 372/1320/175
f 389/1321/183 390/1322/183 325/1323/183 324/1324/183
f 391/1325/184 330/1326/184 329/1327/184 392/1328/184
f 331/1329/172 334/1330/172 393/1331/172 394/1332/172
f 394/1333/175 393/1334/175 395/1335/175 396/1336/175
f 337/1337/177 331/1338/177 394/1339/177 396/1340/177
f 334/1341/176 338/1342/176 395/1343/176 393/1344/176
f 339/1345/174 397/1346/174 398/1347/174 340/1348/174
f 397/1349/195 366/1350/195 367/1351/195 398/1352/195
f 343/1353/196 366/1354/196 397/1355/196 339/1356/196
f 340/1357/197 398/1358/197 367/1359/197 344/1360/197
f 366/1361/198 343/1362/198 344/1363/198 367/1364/198
f 396/1365/174 395/1366/174 338/1367/174 337/1368/174
f 383/1369/193 382/1370/193 377/1371/191 373/1372/191
f 371/1373/190 378/1374/190 386/1375/190 384/1376/190
f 384/1377/190 386/1378/190 349/1379/190 370/1380/190
f 367/1381/199 354/1382/199 382/1383/199 383/1384/199
f 358/1385/189 348/1386/189 378/1387/190 371/1388/190
f 373/1389/191 377/1390/191 355/1391/191 368/1392/191
f 368/1393/191 355/1394/191 345/1395/193 357/1396/193
f 366/1397/174 352/1398/174 354/1399/174 367/1400/174
f 370/1401/200 349/1402/200 352/1403/200 366/1404/200
f 357/1405/172 345/1406/172 348/1407/172 358/1408/172
o 5
v 0.478938 1.232187 1.336673
v 0.478938 1.701001 1.336673
v 0.478938 1.232187 0.843547
v 0.478938 1.701001 0.843547
v 0.517748 1.061398 1.706162
v 0.517748 1.871790 1.706162
v 0.517748 1.061398 0.474058
v 0.517748 1.871790 0.474058
v 0.506706 1.825835 0.536070
v 0.506706 2.120852 0.536070
v 0.514277 1.825835 0.539716
v 0.514277 2.120852 0.539716
v 0.516147 1.825835 0.547908
v 0.516147 2.120852 0.547908
v 0.510907 1.825835 0.554478
v 0.510907 2.120852 0.554478
v 0.502504 1.825835 0.554478
v 0.502504 2.120852 0.554478
v 0.497265 1.825835 0.547908
v 0.497265 2.120852 0.547908
v 0.499135 1.825835 0.539716
v 0.499135 2.120852 0.539716
v 0.506706 1.825835 1.638669
v 0.506706 2.120852 1.638669
v 0.514277 1.825835 1.642315
v 0.514277 2.120852 1.642315
v 0.516147 1.825835 1.650507
v 0.516147 2.120852 1.650507
v 0.510907 1.825835 1.657077
v 0.510907 2.120852 1.657077
v 0.502504 1.825835 1.657077
v 0.502504 2.120852 1.657077
v 0.497265 1.825835 1.650507
v 0.497265 2.120852 1.650507
v 0.499135 1.825835 1.642315
v 0.499135 2.120852 1.642315
v 0.478938 1.061398 0.474058
v 0.478938 1.061398 1.706162
v 0.478938 1.871790 1.706162
v 0.478938 1.871790 0.474058
v 0.478938 1.075985 0.490367
v 0.478938 1.075985 1.689854
v 0.478938 1.857203 1.689854
v 0.478938 1.857203 0.490367
vt 0.375000 0.250000
vt 0.625000 0.250000
vt 0.625000 0.500000
vt 0.375000 0.500000
vt 0.625000 0.750000
vt 0.375000 0.750000
vt 0.625000 1.000000
vt 0.375000 1.000000
vt 0.125000 0.500000
vt 0.125000 0.750000
vt 0.875000 0.500000
vt 0.875000 0.750000
vt 1.000000 0.500000
vt 1.000000 1.000000
vt 0.857143 1.000000
vt 0.857143 0.500000
vt 0.714286 1.000000
vt 0.714286 0.500000
vt 0.571429 1.000000
vt 0.571429 0.500000
vt 0.428571 1.000000
vt 0.428571 0.500000
vt 0.285714 1.000000
vt 0.285714 0.500000
vt 0.437640 0.399638
vt 0.250000 0.490000
vt 0.062360 0.399638
vt 0.016017 0.196595
vt 0.145868 0.033768
vt 0.354132 0.033768
vt 0.483983 0.196595
vt 0.142857 1.000000
vt 0.142857 0.500000
vt 0.000000 1.000000
vt 0.000000 0.500000
vt 0.750000 0.490000
vt 0.937640 0.399638
vt 0.983983 0.196595
vt 0.854132 0.033768
vt 0.645868 0.033768
vt 0.516017 0.196595
vt 0.562360 0.399638
vt 1.000000 0.500000
vt 1.000000 1.000000
vt 0.857143 1.000000
vt 0.857143 0.500000
vt 0.714286 1.000000
vt 0.714286 0.500000
vt 0.571429 1.000000
vt 0.571429 0.500000
vt 0.428571 1.000000
vt 0.428571 0.500000
vt 0.285714 1.000000
vt 0.285714 0.500000
vt 0.437640 0.399638
vt 0.250000 0.490000
vt 0.062360 0.399638
vt 0.016017 0.196595
vt 0.145868 0.033768
vt 0.354132 0.033768
vt 0.483983 0.196595
vt 0.142857 1.000000
vt 0.142857 0.500000
vt 0.000000 1.000000
vt 0.000000 0.500000
vt 0.750000 0.490000
vt 0.937640 0.399638
vt 0.983983 0.196595
vt 0.854132 0.033768
vt 0.645868 0.033768
vt 0.516017 0.196595
vt 0.562360 0.399638
vt 0.381282 0.006282
vt 0.381282 0.243718
vt 0.375000 0.000000
vt 0.618718 0.006282
vt 0.625000 0.000000
vt 0.618718 0.243718
vt 0.949355 0.023401
vt 0.949355 0.988318
vt 0.003751 0.988317
vt 0.003751 0.023401
vt 0.707081 0.622150
vt 0.816337 0.622150
vt 0.832536 0.638892
vt 0.690882 0.638892
vt 0.707081 0.510663
vt 0.690882 0.493921
vt 0.816337 0.510663
vt 0.832536 0.493921
vn 0.0000 0.0000 -1.0000
vn 1.0000 0.0000 0.0000
vn 0.0000 0.0000 1.0000
vn 0.0000 -1.0000 0.0000
vn 0.0000 1.0000 0.0000
vn 0.4339 0.0000 -0.9010
vn 0.9749 0.0000 -0.2225
vn 0.7818 0.0000 0.6235
vn -0.7818 0.0000 0.6235
vn -0.9749 0.0000 -0.2225
vn -0.4339 0.0000 -0.9010
vn -1.0000 0.0000 0.0000
usemtl 001
s off
f 435/1409/201 438/1410/201 406/1411/201 405/1412/201
f 405/1412/202 406/1411/202 404/1413/202 403/1414/202
f 403/1414/203 404/1413/203 437/1415/203 436/1416/203
f 435/1417/204 405/1412/204 403/1414/204 436/1418/204
f 406/1411/205 438/1419/205 437/1420/205 404/1413/205
f 407/1421/206 408/1422/206 410/1423/206 409/1424/206
f 409/1424/207 410/1423/207 412/1425/207 411/1426/207
f 411/1426/208 412/1425/208 414/1427/208 413/1428/208
f 413/1428/203 414/1427/203 416/1429/203 415/1430/203
f 415/1430/209 416/1429/209 418/1431/209 417/1432/209
f 410/1433/205 408/1434/205 420/1435/205 418/1436/205 416/1437/205 414/1438/205 412/1439/205
f 417/1432/210 418/1431/210 420/1440/210 419/1441/210
f 419/1441/211 420/1440/211 408/1442/211 407/1443/211
f 407/1444/204 409/1445/204 411/1446/204 413/1447/204 415/1448/204 417/1449/204 419/1450/204
f 421/1451/206 422/1452/206 424/1453/206 423/1454/206
f 423/1454/207 424/1453/207 426/1455/207 425/1456/207
f 425/1456/208 426/1455/208 428/1457/208 427/1458/208
f 427/1458/203 428/1457/203 430/1459/203 429/1460/203
f 429/1460/209 430/1459/209 432/1461/209 431/1462/209
f 424/1463/205 422/1464/205 434/1465/205 432/1466/205 430/1467/205 428/1468/205 426/1469/205
f 431/1462/210 432/1461/210 434/1470/210 433/1471/210
f 433/1471/211 434/1470/211 422/1472/211 421/1473/211
f 421/1474/204 423/1475/204 425/1476/204 427/1477/204 429/1478/204 431/1479/204 433/1480/204
f 440/1481/212 439/1482/212 435/1409/212 436/1483/212
f 441/1484/212 440/1481/212 436/1483/212 437/1485/212
f 442/1486/212 441/1484/212 437/1485/212 438/1410/212
f 439/1482/212 442/1486/212 438/1410/212 435/1409/212
usemtl map
f 399/1487/212 400/1488/212 402/1489/212 401/1490/212
f 399/1491/212 401/1492/212 439/1493/212 440/1494/212
f 400/1495/212 399/1491/212 440/1494/212 441/1496/212
f 402/1497/212 400/1495/212 441/1496/212 442/1498/212
f 401/1492/212 402/1497/212 442/1498/212 439/1493/212
o 6
v 0.268153 -0.082737 0.528198
v 0.268153 0.366901 0.528198
v 0.268153 -0.082737 0.477510
v 0.268153 0.366901 0.477510
v 0.433628 -0.082737 0.528198
v 0.433628 0.366901 0.528198
v 0.433628 -0.082737 0.477510
v 0.433628 0.366901 0.477510
v 0.268153 -0.082737 1.662612
v 0.268153 0.366901 1.662612
v 0.268153 -0.082737 1.611925
v 0.268153 0.366901 1.611925
v 0.433628 -0.082737 1.662612
v 0.433628 0.366901 1.662612
v 0.433628 -0.082737 1.611925
v 0.433628 0.366901 1.611925
v 0.196998 0.359397 1.809995
v 0.196998 0.359397 0.368493
v 0.504783 0.359397 1.809995
v 0.504783 0.412742 1.809995
v 0.504783 0.359397 0.368493
v 0.504783 0.412742 0.368493
v 0.235675 0.412742 1.809995
v 0.196998 0.374065 1.809995
v 0.208326 0.401414 1.809995
v 0.196998 0.374065 0.368493
v 0.235675 0.412742 0.368493
v 0.208326 0.401414 0.368493
vt 0.358142 0.156974
vt 0.358142 0.126105
vt 0.342879 0.126105
vt 0.342879 0.156974
vt 0.280454 0.203793
vt 0.311323 0.203793
vt 0.311323 0.188530
vt 0.280454 0.188530
vt 0.342535 0.172580
vt 0.342535 0.141711
vt 0.327273 0.141711
vt 0.327273 0.172580
vt 0.280454 0.172580
vt 0.311323 0.172580
vt 0.311323 0.157318
vt 0.280454 0.157318
vt 0.342535 0.188530
vt 0.327273 0.188530
vt 0.327273 0.203793
vt 0.342535 0.203793
vt 0.326929 0.188530
vt 0.311666 0.188530
vt 0.311666 0.203793
vt 0.326929 0.203793
vt 0.295716 0.156974
vt 0.295716 0.126105
vt 0.280454 0.126105
vt 0.280454 0.156974
vt 0.311666 0.188187
vt 0.342535 0.188187
vt 0.342535 0.172924
vt 0.311666 0.172924
vt 0.311323 0.156974
vt 0.311323 0.126105
vt 0.296060 0.126105
vt 0.296060 0.156974
vt 0.280454 0.188187
vt 0.311323 0.188187
vt 0.311323 0.172924
vt 0.280454 0.172924
vt 0.295716 0.204137
vt 0.280454 0.204137
vt 0.280454 0.219399
vt 0.295716 0.219399
vt 0.358142 0.157318
vt 0.342879 0.157318
vt 0.342879 0.172580
vt 0.358142 0.172580
vt 0.280110 0.110498
vt 0.249241 0.110498
vt 0.249241 0.235006
vt 0.280110 0.235006
vt 0.404961 0.125761
vt 0.404961 0.110498
vt 0.280454 0.110498
vt 0.280454 0.125761
vt 0.420567 0.110498
vt 0.405305 0.110498
vt 0.405305 0.235006
vt 0.420567 0.235006
vt 0.373748 0.266218
vt 0.373748 0.235349
vt 0.249241 0.235349
vt 0.249241 0.266218
vt 0.311666 0.141711
vt 0.315863 0.141711
vt 0.323688 0.142847
vt 0.326929 0.145590
vt 0.326929 0.172580
vt 0.311666 0.172580
vt 0.249241 0.281825
vt 0.373748 0.281825
vt 0.373748 0.266562
vt 0.249241 0.266562
vt 0.404961 0.250612
vt 0.404961 0.126105
vt 0.389698 0.126105
vt 0.389698 0.250612
vt 0.342535 0.141367
vt 0.311666 0.141367
vt 0.311666 0.128023
vt 0.318222 0.126667
vt 0.334048 0.126105
vt 0.342535 0.126105
vn -1.0000 0.0000 0.0000
vn 0.0000 0.0000 -1.0000
vn 1.0000 0.0000 0.0000
vn 0.0000 0.0000 1.0000
vn 0.0000 -1.0000 0.0000
vn 0.0000 1.0000 0.0000
vn -0.1951 0.9808 0.0000
vn -0.9808 0.1951 0.0000
vn -0.3827 0.9239 0.0000
vn -0.9239 0.3827 0.0000
usemtl 003
s 1
f 443/1499/213 444/1500/213 446/1501/213 445/1502/213
f 445/1503/214 446/1504/214 450/1505/214 449/1506/214
f 449/1507/215 450/1508/215 448/1509/215 447/1510/215
f 447/1511/216 448/1512/216 444/1513/216 443/1514/216
f 445/1515/217 449/1516/217 447/1517/217 443/1518/217
f 450/1519/218 446/1520/218 444/1521/218 448/1522/218
f 451/1523/213 452/1524/213 454/1525/213 453/1526/213
f 453/1527/214 454/1528/214 458/1529/214 457/1530/214
f 457/1531/215 458/1532/215 456/1533/215 455/1534/215
f 455/1535/216 456/1536/216 452/1537/216 451/1538/216
f 453/1539/217 457/1540/217 455/1541/217 451/1542/217
f 458/1543/218 454/1544/218 452/1545/218 456/1546/218
f 464/1547/218 469/1548/219 465/1549/219 462/1550/218
f 463/1551/215 464/1552/215 462/1553/215 461/1554/215
f 459/1555/213 466/1556/220 468/1557/220 460/1558/213
f 460/1559/217 463/1560/217 461/1561/217 459/1562/217
f 460/1563/214 468/1564/214 470/1565/214 469/1566/214 464/1567/214 463/1568/214
f 465/1569/219 469/1570/219 470/1571/221 467/1572/221
f 467/1573/222 470/1574/222 468/1575/220 466/1576/220
f 461/1577/216 462/1578/216 465/1579/216 467/1580/216 466/1581/216 459/1582/216
o lights
v 0.073927 2.171517 1.516002
v 0.136061 2.171517 1.443680
v 0.039449 2.171517 1.318726
v 0.113472 2.171517 1.351815
v 0.004971 2.171517 1.516002
v -0.057163 2.171517 1.443680
v -0.034574 2.171517 1.351815
v 0.073927 2.171517 0.465219
v 0.136061 2.171517 0.392898
v 0.039449 2.171517 0.267944
v 0.113472 2.171517 0.301034
v 0.004971 2.171517 0.465219
v -0.057163 2.171517 0.392898
v -0.034574 2.171517 0.301034
v 0.136061 2.171517 -1.443680
v 0.073927 2.171517 -1.516002
v 0.039449 2.171517 -1.318727
v -0.034574 2.171517 -1.351816
v -0.057163 2.171517 -1.443680
v 0.004971 2.171517 -1.516002
v 0.113472 2.171517 -1.351816
v 0.136061 2.171517 -0.392899
v 0.073927 2.171517 -0.465220
v 0.039449 2.171517 -0.267945
v -0.034574 2.171517 -0.301034
v -0.057163 2.171517 -0.392899
v 0.004971 2.171517 -0.465220
v 0.113472 2.171517 -0.301034
vt 0.729111 0.362635
vt 0.689467 0.302302
vt 0.667668 0.134059
vt 0.689068 0.001281
vt 0.722341 0.001001
vt 0.760904 0.133273
vt 0.760904 0.301700
vt 0.538635 0.362635
vt 0.498991 0.302302
vt 0.477191 0.134059
vt 0.498592 0.001282
vt 0.531865 0.001001
vt 0.570428 0.133273
vt 0.570428 0.301700
vt 0.348160 0.362635
vt 0.308516 0.302303
vt 0.286715 0.134060
vt 0.308116 0.001282
vt 0.341387 0.001001
vt 0.379951 0.133273
vt 0.379951 0.301701
vt 0.252921 0.362635
vt 0.213277 0.302302
vt 0.191477 0.134059
vt 0.212878 0.001282
vt 0.246151 0.001001
vt 0.284713 0.133273
vt 0.284713 0.301700
vn 0.0000 -1.0000 0.0000
usemtl Material.001
s 1
f 473/1583/223 474/1584/223 472/1585/223 471/1586/223 475/1587/223 476/1588/223 477/1589/223
f 480/1590/223 481/1591/223 479/1592/223 478/1593/223 482/1594/223 483/1595/223 484/1596/223
f 487/1597/223 488/1598/223 489/1599/223 490/1600/223 486/1601/223 485/1602/223 491/1603/223
f 494/1604/223 495/1605/223 496/1606/223 497/1607/223 493/1608/223 492/1609/223 498/1610/223
