# Blender v3.0.0 OBJ File: ''
# www.blender.org
mtllib armors_epau.mtl
o rightArmModel
v -0.487500 0.018750 0.043750
v -0.281250 0.025000 0.043750
v -0.281250 0.025000 -0.043750
v -0.487500 0.018750 -0.043750
v -0.484375 -0.009375 -0.056250
v -0.262500 -0.009375 -0.056250
v -0.262500 -0.009375 0.056250
v -0.484375 -0.009375 0.056250
vt -0.000422 0.005038
vt 0.997361 0.005038
vt 0.997361 1.001559
vt -0.000422 1.001559
vt 0.988791 0.017695
vt 0.977195 0.017695
vt 0.977195 0.017695
vt 0.988791 0.017695
vt 0.978175 0.014154
vt 0.988954 0.014798
vt 0.988954 0.014798
vt 0.978175 0.014154
vt 0.982676 0.019808
vt 0.986546 0.019808
vt 0.987099 0.022805
vt 0.982123 0.022805
vt 0.986546 0.020353
vt 0.982676 0.020353
vt 0.982123 0.022805
vt 0.987099 0.022805
vn -0.0303 0.9995 0.0000
vn 0.0000 -1.0000 -0.0000
vn -0.0054 0.3698 0.9291
vn -0.0054 0.3698 -0.9291
vn 0.8779 0.4789 0.0000
vn -0.9939 -0.1104 -0.0000
usemtl ModelMaterial
s off
f 1/1/1 2/2/1 3/3/1 4/4/1
f 5/5/2 6/6/2 7/7/2 8/8/2
f 2/9/3 1/10/3 8/8/3 7/7/3
f 4/11/4 3/12/4 6/6/4 5/5/4
f 3/13/5 2/14/5 7/15/5 6/16/5
f 1/17/6 4/18/6 5/19/6 8/20/6
o leftArmModel
v 0.487500 0.018750 0.043750
v 0.281250 0.025000 0.043750
v 0.281250 0.025000 -0.043750
v 0.487500 0.018750 -0.043750
v 0.484375 -0.009375 -0.056250
v 0.262500 -0.009375 -0.056250
v 0.262500 -0.009375 0.056250
v 0.484375 -0.009375 0.056250
vt -0.000422 0.005038
vt -0.000422 1.001559
vt 0.997361 1.001559
vt 0.997361 0.005038
vt 0.988791 0.017695
vt 0.988791 0.017695
vt 0.977195 0.017695
vt 0.977195 0.017695
vt 0.978175 0.014154
vt 0.988954 0.014798
vt 0.988954 0.014798
vt 0.978175 0.014154
vt 0.982676 0.019808
vt 0.982123 0.022805
vt 0.987099 0.022805
vt 0.986546 0.019808
vt 0.986546 0.020353
vt 0.987099 0.022805
vt 0.982123 0.022805
vt 0.982676 0.020353
vn 0.0303 0.9995 0.0000
vn 0.0000 -1.0000 -0.0000
vn 0.0054 0.3698 0.9291
vn 0.0054 0.3698 -0.9291
vn -0.8779 0.4789 0.0000
vn 0.9939 -0.1104 -0.0000
usemtl ModelMaterial
s off
f 9/21/7 12/22/7 11/23/7 10/24/7
f 13/25/8 16/26/8 15/27/8 14/28/8
f 10/29/9 15/27/9 16/26/9 9/30/9
f 12/31/10 13/25/10 14/28/10 11/32/10
f 11/33/11 14/34/11 15/35/11 10/36/11
f 9/37/12 16/38/12 13/39/12 12/40/12
