# Blender v2.93.0 OBJ File: ''
# www.blender.org
mtllib balise.mtl
o Cylinder.003_Cylinder.004
v 0.000000 -1.316626 -0.110198
v 0.000000 -1.038986 -0.110197
v 0.021498 -1.038986 -0.108079
v 0.021498 -1.316626 -0.108079
v 0.042170 -1.038986 -0.101808
v 0.042170 -1.316626 -0.101808
v 0.061222 -1.038986 -0.091625
v 0.061222 -1.316626 -0.091625
v 0.077921 -1.038986 -0.077921
v 0.077921 -1.316626 -0.077921
v 0.091624 -1.038986 -0.061223
v 0.091624 -1.316626 -0.061223
v 0.101808 -1.038986 -0.042171
v 0.101808 -1.316626 -0.042171
v 0.108079 -1.038986 -0.021499
v 0.108079 -1.316626 -0.021499
v 0.110196 -1.038986 -0.000001
v 0.110196 -1.316626 -0.000001
v 0.108079 -1.038986 0.021498
v 0.108079 -1.316626 0.021498
v 0.101808 -1.038986 0.042169
v 0.101808 -1.316626 0.042169
v 0.091624 -1.038986 0.061221
v 0.091624 -1.316626 0.061221
v 0.077921 -1.038986 0.077920
v 0.077921 -1.316626 0.077920
v 0.061222 -1.038986 0.091624
v 0.061222 -1.316626 0.091624
v 0.042170 -1.038986 0.101807
v 0.042170 -1.316626 0.101807
v 0.021498 -1.038986 0.108078
v 0.021498 -1.316626 0.108078
v 0.000000 -1.038986 0.110196
v 0.000000 -1.316626 0.110195
v -0.021498 -1.038986 0.108078
v -0.021498 -1.316626 0.108078
v -0.042170 -1.038986 0.101807
v -0.042170 -1.316626 0.101807
v -0.061222 -1.038986 0.091624
v -0.061222 -1.316626 0.091624
v -0.077921 -1.038986 0.077920
v -0.077921 -1.316626 0.077920
v -0.091624 -1.038986 0.061221
v -0.091624 -1.316626 0.061221
v -0.101808 -1.038986 0.042169
v -0.101808 -1.316626 0.042169
v -0.108079 -1.038986 0.021498
v -0.108079 -1.316626 0.021498
v -0.110196 -1.038986 -0.000001
v -0.110196 -1.316626 -0.000001
v -0.108079 -1.038986 -0.021499
v -0.108079 -1.316626 -0.021499
v -0.101808 -1.038986 -0.042171
v -0.101808 -1.316626 -0.042171
v -0.091624 -1.038986 -0.061223
v -0.091624 -1.316626 -0.061223
v -0.077921 -1.038986 -0.077921
v -0.077921 -1.316626 -0.077921
v -0.061222 -1.038986 -0.091625
v -0.061222 -1.316626 -0.091625
v -0.042170 -1.038986 -0.101808
v -0.042170 -1.316626 -0.101808
v 0.089425 -1.038986 -0.059752
v 0.099364 -1.038986 -0.041158
v -0.021498 -1.038986 -0.108079
v -0.021498 -1.316626 -0.108079
v 0.020208 -1.483603 0.101589
v 0.039638 -1.483603 0.095694
v -0.020208 -1.483603 -0.101590
v 0.000000 -1.483603 -0.103580
v 0.000000 -1.487937 -0.147460
v -0.028767 -1.487937 -0.144626
v -0.103580 -1.483603 -0.000001
v -0.101589 -1.483603 0.020206
v 0.039638 -1.483603 -0.095696
v 0.020208 -1.483603 -0.101590
v 0.086124 -1.483603 0.057545
v 0.095695 -1.483603 0.039638
v -0.073242 -1.483603 0.073241
v -0.057546 -1.483603 0.086123
v -0.057546 -1.483603 -0.086124
v -0.073242 -1.483603 -0.073243
v 0.101589 -1.483603 -0.020208
v 0.095695 -1.483603 -0.039639
v 0.000000 -1.483603 0.103578
v -0.101589 -1.483603 -0.020208
v 0.057546 -1.483603 -0.086124
v 0.073242 -1.483603 0.073241
v -0.086124 -1.483603 0.057545
v -0.039638 -1.483603 -0.095696
v 0.103580 -1.483603 -0.000001
v -0.020208 -1.483603 0.101589
v -0.095695 -1.483603 -0.039639
v 0.073242 -1.483603 -0.073243
v 0.057546 -1.483603 0.086123
v -0.095695 -1.483603 0.039638
v 0.101589 -1.483603 0.020206
v -0.039638 -1.483603 0.095694
v -0.086124 -1.483603 -0.057547
v 0.086124 -1.483603 -0.057547
v -0.041158 -1.038986 0.099363
v -0.020982 -1.038986 0.105482
v -0.020982 -0.916855 0.105482
v -0.041158 -0.916855 0.099363
v 0.041158 -1.038986 0.099363
v 0.020982 -1.038986 0.105482
v -0.105483 -1.038986 0.020981
v -0.107550 -1.038986 -0.000001
v 0.020982 -1.038986 -0.105483
v 0.041158 -1.038986 -0.099364
v 0.099364 -1.038986 0.041157
v 0.089425 -1.038986 0.059751
v -0.059751 -1.038986 0.089424
v -0.076049 -1.038986 0.076048
v -0.076049 -1.038986 -0.076050
v -0.059751 -1.038986 -0.089425
v 0.105483 -1.038986 -0.020983
v 0.000000 -1.038986 0.107549
v -0.105483 -1.038986 -0.020983
v 0.059751 -1.038986 -0.089425
v 0.076049 -1.038986 0.076048
v -0.089425 -1.038986 0.059751
v -0.041158 -1.038986 -0.099364
v 0.107550 -1.038986 -0.000001
v -0.099364 -1.038986 -0.041158
v 0.076049 -1.038986 -0.076050
v 0.059751 -1.038986 0.089424
v -0.099364 -1.038986 0.041157
v -0.020982 -1.038986 -0.105483
v 0.105483 -1.038986 0.020981
v -0.089425 -1.038986 -0.059752
v 0.000000 -1.038986 -0.107551
v -0.089425 -0.916855 0.059751
v -0.076049 -0.916855 0.076049
v -0.081478 -0.916855 0.081478
v -0.095807 -0.916855 0.064016
v 0.076049 -0.916855 -0.076049
v 0.089425 -0.916855 -0.059751
v -0.020982 -0.916855 -0.105483
v 0.000000 -0.916855 -0.107551
v -0.059751 -0.916855 0.089424
v 0.099364 -0.916855 -0.041158
v 0.105483 -0.916855 -0.020982
v 0.107550 -0.916855 -0.000001
v -0.099364 -0.916855 0.041158
v 0.105483 -0.916855 0.020982
v -0.105483 -0.916855 0.020982
v 0.099364 -0.916855 0.041158
v -0.107550 -0.916855 -0.000001
v 0.089425 -0.916855 0.059751
v -0.105483 -0.916855 -0.020982
v 0.076049 -0.916855 0.076049
v -0.099364 -0.916855 -0.041158
v 0.059751 -0.916855 0.089424
v -0.089425 -0.916855 -0.059751
v 0.041158 -0.916855 0.099363
v 0.020982 -0.916855 -0.105483
v -0.076049 -0.916855 -0.076049
v 0.020982 -0.916855 0.105482
v 0.041158 -0.916855 -0.099364
v -0.059751 -0.916855 -0.089425
v 0.000000 -0.916855 0.107549
v 0.059751 -0.916855 -0.089425
v -0.041158 -0.916855 -0.099364
v -0.115227 -0.916855 -0.000001
v -0.113012 -0.916855 0.022479
v -0.113012 -0.857697 0.022480
v -0.115227 -0.857697 -0.000001
v 0.113012 -0.916855 -0.022480
v 0.115227 -0.916855 -0.000001
v -0.106455 -0.916855 0.044095
v 0.113012 -0.916855 0.022479
v 0.106455 -0.916855 0.044095
v 0.095808 -0.916855 0.064016
v -0.113012 -0.916855 -0.022480
v 0.081478 -0.916855 0.081478
v -0.106455 -0.916855 -0.044097
v 0.064017 -0.916855 0.095807
v -0.095808 -0.916855 -0.064018
v 0.044095 -0.916855 0.106455
v 0.000000 -0.916855 -0.115228
v 0.022480 -0.916855 -0.113013
v -0.081478 -0.916855 -0.081479
v 0.022480 -0.916855 0.113012
v 0.044095 -0.916855 -0.106456
v -0.064017 -0.916855 -0.095808
v 0.000000 -0.916855 0.115226
v 0.064017 -0.916855 -0.095808
v -0.044095 -0.916855 -0.106456
v -0.022480 -0.916855 0.113012
v 0.081478 -0.916855 -0.081479
v -0.022480 -0.916855 -0.113013
v -0.044095 -0.916855 0.106455
v 0.095808 -0.916855 -0.064018
v -0.064017 -0.916855 0.095807
v 0.106455 -0.916855 -0.044096
v -0.095808 -0.857697 -0.064018
v -0.106455 -0.857697 -0.044096
v -0.102926 -0.857697 -0.042633
v -0.092631 -0.857697 -0.061894
v 0.106455 -0.857697 0.044095
v 0.095807 -0.857697 0.064017
v -0.113012 -0.857697 -0.022480
v 0.081478 -0.857697 0.081478
v 0.064017 -0.857697 0.095807
v 0.044095 -0.857697 0.106455
v 0.000000 -0.857697 -0.115228
v 0.022480 -0.857697 -0.113013
v -0.081478 -0.857697 -0.081479
v 0.022480 -0.857697 0.113012
v 0.044095 -0.857697 -0.106456
v -0.064017 -0.857697 -0.095808
v 0.000000 -0.857697 0.115226
v 0.064017 -0.857697 -0.095808
v -0.044095 -0.857697 -0.106456
v -0.022480 -0.857697 0.113012
v 0.081478 -0.857697 -0.081479
v -0.022480 -0.857697 -0.113013
v -0.044095 -0.857697 0.106455
v 0.095807 -0.857697 -0.064018
v -0.064017 -0.857697 0.095807
v 0.106455 -0.857697 -0.044096
v -0.081478 -0.857697 0.081478
v 0.113012 -0.857697 -0.022480
v -0.095808 -0.857697 0.064017
v 0.115227 -0.857697 -0.000001
v -0.106455 -0.857697 0.044095
v 0.113012 -0.857697 0.022480
v -0.042633 -0.857697 -0.102927
v -0.061894 -0.857697 -0.092631
v -0.061894 -0.758465 -0.092631
v -0.042633 -0.758465 -0.102926
v 0.061894 -0.857697 0.092630
v 0.042633 -0.857697 0.102926
v 0.000000 -0.857697 -0.111407
v 0.021734 -0.857697 -0.109266
v -0.078776 -0.857697 -0.078777
v 0.021734 -0.857697 0.109266
v 0.042633 -0.857697 -0.102927
v 0.000000 -0.857697 0.111407
v 0.061894 -0.857697 -0.092631
v -0.021734 -0.857697 0.109266
v 0.078776 -0.857697 -0.078777
v -0.021734 -0.857697 -0.109266
v -0.042633 -0.857697 0.102926
v 0.092631 -0.857697 -0.061894
v -0.061894 -0.857697 0.092630
v 0.102926 -0.857697 -0.042633
v -0.078776 -0.857697 0.078776
v 0.109266 -0.857697 -0.021735
v -0.092631 -0.857697 0.061893
v 0.111406 -0.857697 -0.000001
v -0.102926 -0.857697 0.042632
v 0.109266 -0.857697 0.021734
v -0.109266 -0.857697 0.021734
v 0.102926 -0.857697 0.042632
v -0.111406 -0.857697 -0.000001
v 0.092631 -0.857697 0.061893
v -0.109266 -0.857697 -0.021735
v 0.078776 -0.857697 0.078776
v -0.078776 -0.758465 0.078776
v -0.061894 -0.758465 0.092630
v -0.063891 -0.758465 0.095618
v -0.081317 -0.758465 0.081317
v 0.000000 -0.758465 0.111407
v -0.021734 -0.758465 0.109266
v 0.061894 -0.758465 -0.092631
v 0.078776 -0.758465 -0.078777
v -0.021734 -0.758465 -0.109266
v -0.042633 -0.758465 0.102926
v 0.092631 -0.758465 -0.061894
v 0.000000 -0.758465 -0.111406
v 0.102926 -0.758465 -0.042633
v 0.109266 -0.758465 -0.021735
v -0.092631 -0.758465 0.061894
v 0.111406 -0.758465 -0.000001
v -0.102926 -0.758465 0.042632
v 0.109266 -0.758465 0.021734
v -0.109266 -0.758465 0.021734
v 0.102926 -0.758465 0.042632
v -0.111406 -0.758465 -0.000001
v 0.092631 -0.758465 0.061894
v -0.109266 -0.758465 -0.021735
v 0.078776 -0.758465 0.078776
v -0.102926 -0.758465 -0.042633
v 0.061894 -0.758465 0.092630
v -0.092631 -0.758465 -0.061894
v 0.042633 -0.758465 0.102926
v 0.021734 -0.758465 -0.109266
v -0.078776 -0.758465 -0.078777
v 0.021734 -0.758465 0.109266
v 0.042633 -0.758465 -0.102926
v -0.114999 -0.758465 -0.000001
v -0.112790 -0.758465 0.022435
v -0.112790 -0.690423 0.022435
v -0.114999 -0.690423 -0.000001
v 0.106246 -0.758465 -0.044009
v 0.112790 -0.758465 -0.022435
v -0.095619 -0.758465 0.063891
v 0.114999 -0.758465 -0.000001
v -0.106246 -0.758465 0.044009
v 0.112790 -0.758465 0.022435
v 0.106246 -0.758465 0.044009
v 0.095619 -0.758465 0.063891
v -0.112790 -0.758465 -0.022435
v 0.081317 -0.758465 0.081317
v -0.106246 -0.758465 -0.044009
v 0.063891 -0.758465 0.095618
v -0.095619 -0.758465 -0.063892
v 0.044009 -0.758465 0.106246
v 0.000000 -0.758465 -0.114999
v 0.022435 -0.758465 -0.112790
v -0.081317 -0.758465 -0.081317
v 0.022435 -0.758465 0.112790
v 0.044009 -0.758465 -0.106247
v -0.063891 -0.758465 -0.095619
v 0.000000 -0.758465 0.114999
v 0.063891 -0.758465 -0.095619
v -0.044009 -0.758465 -0.106247
v -0.022435 -0.758465 0.112790
v 0.081317 -0.758465 -0.081317
v -0.022435 -0.758465 -0.112790
v -0.044009 -0.758465 0.106246
v 0.095619 -0.758465 -0.063892
v 0.022435 -0.690423 -0.112790
v 0.044009 -0.690423 -0.106247
v 0.106246 -0.690423 0.044009
v 0.095619 -0.690423 0.063891
v -0.112790 -0.690423 -0.022435
v 0.081317 -0.690423 0.081317
v -0.106246 -0.690423 -0.044009
v 0.063891 -0.690423 0.095619
v -0.095619 -0.690423 -0.063892
v 0.044009 -0.690423 0.106246
v -0.081317 -0.690423 -0.081317
v 0.022435 -0.690423 0.112790
v 0.018519 -0.678503 -0.093105
v 0.000000 -0.678503 -0.094929
v -0.018519 -0.678503 -0.093105
v -0.036327 -0.678503 -0.087702
v -0.052740 -0.678503 -0.078930
v -0.067125 -0.678503 -0.067124
v -0.078931 -0.678503 -0.052740
v -0.087702 -0.678503 -0.036328
v -0.093105 -0.678503 -0.018519
v -0.094929 -0.678503 -0.000001
v -0.093105 -0.678503 0.018519
v -0.087702 -0.678503 0.036327
v -0.078931 -0.678503 0.052740
v -0.067125 -0.678503 0.067125
v -0.052740 -0.678503 0.078931
v -0.036327 -0.678503 0.087703
v -0.018519 -0.678503 0.093105
v 0.000000 -0.678503 0.094929
v 0.018519 -0.678503 0.093105
v 0.036327 -0.678503 0.087703
v 0.052740 -0.678503 0.078931
v 0.067125 -0.678503 0.067125
v 0.078931 -0.678503 0.052740
v 0.087702 -0.678503 0.036327
v 0.093105 -0.678503 0.018519
v 0.094929 -0.678503 -0.000001
v 0.093105 -0.678503 -0.018519
v 0.087702 -0.678503 -0.036328
v 0.078931 -0.678503 -0.052740
v 0.067125 -0.678503 -0.067124
v 0.052740 -0.678503 -0.078930
v 0.036327 -0.678503 -0.087702
v -0.063891 -0.690423 -0.095619
v 0.000000 -0.690423 0.115000
v -0.022435 -0.690423 -0.112790
v 0.000000 -0.690423 -0.114999
v -0.044009 -0.690423 -0.106247
v -0.022435 -0.690423 0.112790
v 0.063891 -0.690423 -0.095619
v 0.081317 -0.690423 -0.081317
v -0.044009 -0.690423 0.106246
v 0.095619 -0.690423 -0.063892
v -0.063891 -0.690423 0.095619
v 0.106246 -0.690423 -0.044009
v -0.081317 -0.690423 0.081317
v 0.112790 -0.690423 -0.022435
v -0.095619 -0.690423 0.063891
v 0.114999 -0.690423 -0.000001
v -0.106246 -0.690423 0.044009
v 0.112790 -0.690423 0.022435
v -0.122607 -1.487937 0.081923
v -0.136234 -1.487937 0.056429
v -0.136234 -1.505972 0.056429
v -0.122607 -1.505972 0.081923
v -0.081923 -1.487937 0.122606
v -0.056430 -1.487937 0.136233
v 0.136234 -1.487937 -0.056430
v 0.122607 -1.487937 -0.081924
v -0.104269 -1.487937 0.104268
v 0.144625 -1.487937 -0.028769
v 0.147458 -1.487937 -0.000001
v 0.144625 -1.487937 0.028767
v -0.144625 -1.487937 0.028767
v 0.136234 -1.487937 0.056429
v -0.147458 -1.487937 -0.000001
v 0.122607 -1.487937 0.081923
v -0.144625 -1.487937 -0.028769
v 0.104269 -1.487937 0.104268
v -0.136234 -1.487937 -0.056430
v 0.081923 -1.487937 0.122606
v -0.122607 -1.487937 -0.081924
v 0.056430 -1.487937 0.136233
v 0.028767 -1.487937 -0.144626
v -0.104269 -1.487937 -0.104270
v 0.028767 -1.487937 0.144625
v 0.056430 -1.487937 -0.136235
v -0.081923 -1.487937 -0.122608
v 0.000000 -1.487937 0.147458
v 0.081923 -1.487937 -0.122608
v -0.056430 -1.487937 -0.136235
v -0.028767 -1.487937 0.144625
v 0.104269 -1.487937 -0.104270
v 0.000000 -1.505972 -0.147460
v 0.028767 -1.505972 -0.144626
v 0.056430 -1.505972 -0.136235
v 0.081923 -1.505972 -0.122608
v 0.104269 -1.505972 -0.104270
v 0.122607 -1.505972 -0.081924
v 0.136234 -1.505972 -0.056430
v 0.144625 -1.505972 -0.028769
v 0.147458 -1.505972 -0.000001
v 0.144625 -1.505972 0.028767
v 0.136234 -1.505972 0.056429
v 0.122607 -1.505972 0.081923
v 0.104269 -1.505972 0.104268
v 0.081923 -1.505972 0.122606
v 0.056430 -1.505972 0.136233
v 0.028767 -1.505972 0.144624
v 0.000000 -1.505972 0.147458
v -0.028767 -1.505972 0.144624
v -0.056430 -1.505972 0.136233
v -0.081923 -1.505972 0.122606
v -0.104269 -1.505972 0.104268
v -0.144625 -1.505972 0.028767
v -0.147458 -1.505972 -0.000001
v -0.144625 -1.505972 -0.028769
v -0.136234 -1.505972 -0.056430
v -0.122607 -1.505972 -0.081924
v -0.104269 -1.505972 -0.104270
v -0.081923 -1.505972 -0.122608
v -0.056430 -1.505972 -0.136235
v -0.028767 -1.505972 -0.144626
vt 0.642023 0.264412
vt 0.642023 0.419470
vt 0.632325 0.419470
vt 0.632325 0.264412
vt 0.622625 0.419470
vt 0.622625 0.264412
vt 0.612926 0.419470
vt 0.612926 0.264412
vt 0.603259 0.419470
vt 0.603259 0.264412
vt 0.593560 0.419470
vt 0.593560 0.264412
vt 0.583861 0.419470
vt 0.583861 0.264412
vt 0.574162 0.419470
vt 0.574162 0.264412
vt 0.564494 0.419470
vt 0.564494 0.264412
vt 0.554796 0.419470
vt 0.554796 0.264412
vt 0.545096 0.419470
vt 0.545096 0.264412
vt 0.535397 0.419470
vt 0.535397 0.264412
vt 0.525699 0.419470
vt 0.525699 0.264412
vt 0.516031 0.419470
vt 0.516031 0.264412
vt 0.506332 0.419470
vt 0.506332 0.264412
vt 0.496633 0.419470
vt 0.496633 0.264412
vt 0.486934 0.419470
vt 0.486934 0.264412
vt 0.477266 0.419470
vt 0.477266 0.264412
vt 0.467567 0.419470
vt 0.467567 0.264412
vt 0.457869 0.419470
vt 0.457869 0.264412
vt 0.448170 0.419470
vt 0.448170 0.264412
vt 0.438471 0.419470
vt 0.438471 0.264412
vt 0.428803 0.419470
vt 0.428803 0.264412
vt 0.419104 0.419470
vt 0.419104 0.264412
vt 0.409405 0.419470
vt 0.409405 0.264412
vt 0.399706 0.419470
vt 0.399706 0.264412
vt 0.390039 0.419470
vt 0.390039 0.264412
vt 0.380340 0.419470
vt 0.380340 0.264412
vt 0.370640 0.419470
vt 0.370640 0.264412
vt 0.360942 0.419470
vt 0.360942 0.264412
vt 0.351274 0.419470
vt 0.351274 0.264412
vt 0.593560 0.419470
vt 0.583861 0.419470
vt 0.341575 0.419470
vt 0.341575 0.264412
vt 0.331876 0.419470
vt 0.331876 0.264412
vt 0.496633 0.264412
vt 0.506332 0.264412
vt 0.884487 0.708187
vt 0.891129 0.708187
vt 0.891129 0.708187
vt 0.884487 0.708187
vt 0.409405 0.264412
vt 0.419104 0.264412
vt 0.622625 0.264412
vt 0.632325 0.264412
vt 0.535397 0.264412
vt 0.545096 0.264412
vt 0.448170 0.264412
vt 0.457869 0.264412
vt 0.360942 0.264412
vt 0.370640 0.264412
vt 0.574162 0.264412
vt 0.583861 0.264412
vt 0.486934 0.264412
vt 0.399706 0.264412
vt 0.612926 0.264412
vt 0.525699 0.264412
vt 0.438471 0.264412
vt 0.351274 0.264412
vt 0.564494 0.264412
vt 0.477266 0.264412
vt 0.390039 0.264412
vt 0.603259 0.264412
vt 0.516031 0.264412
vt 0.428803 0.264412
vt 0.341575 0.264412
vt 0.554796 0.264412
vt 0.467567 0.264412
vt 0.380340 0.264412
vt 0.593560 0.264412
vt 0.642023 0.264412
vt 0.331876 0.264412
vt 0.224416 0.653514
vt 0.238781 0.653514
vt 0.238781 0.653514
vt 0.224416 0.653514
vt 0.506332 0.419470
vt 0.496633 0.419470
vt 0.419104 0.419470
vt 0.409405 0.419470
vt 0.632325 0.419470
vt 0.622625 0.419470
vt 0.545096 0.419470
vt 0.535397 0.419470
vt 0.457869 0.419470
vt 0.448170 0.419470
vt 0.370640 0.419470
vt 0.360942 0.419470
vt 0.574162 0.419470
vt 0.486934 0.419470
vt 0.399706 0.419470
vt 0.612926 0.419470
vt 0.525699 0.419470
vt 0.438471 0.419470
vt 0.351274 0.419470
vt 0.564494 0.419470
vt 0.477266 0.419470
vt 0.390039 0.419470
vt 0.603259 0.419470
vt 0.516031 0.419470
vt 0.428803 0.419470
vt 0.341575 0.419470
vt 0.554796 0.419470
vt 0.467567 0.419470
vt 0.380340 0.419470
vt 0.642023 0.419470
vt 0.331876 0.419470
vt 0.471290 0.224021
vt 0.477392 0.224021
vt 0.477392 0.224021
vt 0.471290 0.224021
vt 0.411305 0.653514
vt 0.425667 0.653514
vt 0.425667 0.653514
vt 0.411305 0.653514
vt 0.027372 0.846721
vt 0.037530 0.653514
vt 0.037530 0.653514
vt 0.023166 0.653514
vt 0.210054 0.653514
vt 0.210054 0.653514
vt 0.396899 0.653514
vt 0.396899 0.653514
vt 0.195649 0.653514
vt 0.195649 0.653514
vt 0.380171 0.846721
vt 0.382537 0.653514
vt 0.181287 0.653514
vt 0.181287 0.653514
vt 0.368173 0.653514
vt 0.368173 0.653514
vt 0.166922 0.653514
vt 0.166922 0.653514
vt 0.353811 0.653514
vt 0.353811 0.653514
vt 0.152519 0.653514
vt 0.152519 0.653514
vt 0.339405 0.653514
vt 0.339405 0.653514
vt 0.138154 0.653514
vt 0.140258 0.846721
vt 0.325043 0.653514
vt 0.325043 0.653514
vt 0.123792 0.653514
vt 0.123792 0.653514
vt 0.310679 0.653514
vt 0.310679 0.653514
vt 0.109428 0.653514
vt 0.109428 0.653514
vt 0.296275 0.653514
vt 0.296275 0.653514
vt 0.095024 0.653514
vt 0.095024 0.653514
vt 0.281911 0.653514
vt 0.281385 0.846721
vt 0.468799 0.653514
vt 0.478958 0.846721
vt 0.483164 0.653514
vt 0.468799 0.653514
vt 0.080660 0.653514
vt 0.080660 0.653514
vt 0.267549 0.653514
vt 0.267549 0.653514
vt 0.454435 0.653514
vt 0.454435 0.653514
vt 0.066296 0.653514
vt 0.066296 0.653514
vt 0.253184 0.653514
vt 0.253184 0.653514
vt 0.440032 0.653514
vt 0.440032 0.653514
vt 0.051892 0.653514
vt 0.051892 0.653514
vt 0.452988 0.224021
vt 0.459089 0.224021
vt 0.459089 0.224021
vt 0.452988 0.224021
vt 0.550572 0.224021
vt 0.556673 0.224021
vt 0.556673 0.224021
vt 0.550572 0.224021
vt 0.465190 0.224021
vt 0.465190 0.224021
vt 0.544471 0.224021
vt 0.544471 0.224021
vt 0.459089 0.224021
vt 0.538370 0.224021
vt 0.538370 0.224021
vt 0.452988 0.224021
vt 0.532269 0.224021
vt 0.532269 0.224021
vt 0.446887 0.224021
vt 0.446887 0.224021
vt 0.526168 0.224021
vt 0.526168 0.224021
vt 0.440786 0.224021
vt 0.440786 0.224021
vt 0.520067 0.224021
vt 0.520067 0.224021
vt 0.434685 0.224021
vt 0.434685 0.224021
vt 0.513997 0.224021
vt 0.513997 0.224021
vt 0.593278 0.224021
vt 0.599379 0.224021
vt 0.599379 0.224021
vt 0.593278 0.224021
vt 0.428584 0.224021
vt 0.428584 0.224021
vt 0.507896 0.224021
vt 0.507896 0.224021
vt 0.587177 0.224021
vt 0.587177 0.224021
vt 0.422483 0.224021
vt 0.422483 0.224021
vt 0.501795 0.224021
vt 0.501795 0.224021
vt 0.581076 0.224021
vt 0.581076 0.224021
vt 0.416382 0.224021
vt 0.416382 0.224021
vt 0.495694 0.224021
vt 0.495694 0.224021
vt 0.574975 0.224021
vt 0.574975 0.224021
vt 0.410281 0.224021
vt 0.410281 0.224021
vt 0.489593 0.224021
vt 0.489593 0.224021
vt 0.568874 0.224021
vt 0.568874 0.224021
vt 0.404180 0.224021
vt 0.404180 0.224021
vt 0.483493 0.224021
vt 0.483493 0.224021
vt 0.562774 0.224021
vt 0.562774 0.224021
vt 0.434685 0.224021
vt 0.440786 0.224021
vt 0.440786 0.224021
vt 0.434685 0.224021
vt 0.538370 0.224021
vt 0.532269 0.224021
vt 0.446887 0.224021
vt 0.526168 0.224021
vt 0.520067 0.224021
vt 0.513997 0.224021
vt 0.599379 0.224021
vt 0.593278 0.224021
vt 0.428584 0.224021
vt 0.507896 0.224021
vt 0.587177 0.224021
vt 0.422483 0.224021
vt 0.501795 0.224021
vt 0.581076 0.224021
vt 0.416382 0.224021
vt 0.495694 0.224021
vt 0.574975 0.224021
vt 0.410281 0.224021
vt 0.489593 0.224021
vt 0.568874 0.224021
vt 0.404180 0.224021
vt 0.483493 0.224021
vt 0.562774 0.224021
vt 0.477392 0.224021
vt 0.556673 0.224021
vt 0.471290 0.224021
vt 0.550572 0.224021
vt 0.465190 0.224021
vt 0.544471 0.224021
vt 0.055573 0.846721
vt 0.069713 0.846721
vt 0.066296 0.653514
vt 0.051892 0.653514
vt 0.520067 0.224021
vt 0.513997 0.224021
vt 0.599379 0.224021
vt 0.593278 0.224021
vt 0.428584 0.224021
vt 0.507896 0.224021
vt 0.587177 0.224021
vt 0.422483 0.224021
vt 0.501795 0.224021
vt 0.581076 0.224021
vt 0.416382 0.224021
vt 0.495694 0.224021
vt 0.574975 0.224021
vt 0.410281 0.224021
vt 0.489593 0.224021
vt 0.568874 0.224021
vt 0.404180 0.224021
vt 0.483493 0.224021
vt 0.562774 0.224021
vt 0.477392 0.224021
vt 0.556673 0.224021
vt 0.471290 0.224021
vt 0.550572 0.224021
vt 0.465190 0.224021
vt 0.544471 0.224021
vt 0.459089 0.224021
vt 0.538370 0.224021
vt 0.452988 0.224021
vt 0.532269 0.224021
vt 0.446887 0.224021
vt 0.526168 0.224021
vt 0.470853 0.283905
vt 0.476672 0.283905
vt 0.476672 0.283905
vt 0.470853 0.283905
vt 0.238781 0.653514
vt 0.253184 0.653514
vt 0.253184 0.846721
vt 0.239044 0.846721
vt 0.422512 0.846721
vt 0.440032 0.653514
vt 0.436614 0.846721
vt 0.425667 0.653514
vt 0.041474 0.846721
vt 0.037530 0.653514
vt 0.224416 0.653514
vt 0.224942 0.846721
vt 0.411305 0.653514
vt 0.408413 0.846721
vt 0.023166 0.653514
vt 0.023166 0.653514
vt 0.210054 0.653514
vt 0.210843 0.846721
vt 0.396899 0.653514
vt 0.394271 0.846721
vt 0.195649 0.653514
vt 0.196701 0.846721
vt 0.380171 0.846721
vt 0.382537 0.653514
vt 0.182601 0.846721
vt 0.181287 0.653514
vt 0.368173 0.653514
vt 0.366069 0.846721
vt 0.166922 0.653514
vt 0.168499 0.846721
vt 0.353811 0.653514
vt 0.351970 0.846721
vt 0.152519 0.653514
vt 0.154359 0.846721
vt 0.339405 0.653514
vt 0.337828 0.846721
vt 0.138154 0.653514
vt 0.140258 0.846721
vt 0.323728 0.846721
vt 0.325043 0.653514
vt 0.123792 0.653514
vt 0.126158 0.846721
vt 0.309627 0.846721
vt 0.310679 0.653514
vt 0.109428 0.653514
vt 0.112057 0.846721
vt 0.296275 0.653514
vt 0.295487 0.846721
vt 0.095024 0.653514
vt 0.097917 0.846721
vt 0.281911 0.653514
vt 0.281385 0.846721
vt 0.464856 0.846721
vt 0.483164 0.653514
vt 0.483164 0.653514
vt 0.468799 0.653514
vt 0.080660 0.653514
vt 0.083815 0.846721
vt 0.267286 0.846721
vt 0.267549 0.653514
vt 0.454435 0.653514
vt 0.450754 0.846721
vt 0.447606 0.283905
vt 0.453426 0.283905
vt 0.453426 0.283905
vt 0.447606 0.283905
vt 0.546473 0.283905
vt 0.552292 0.283905
vt 0.552292 0.283905
vt 0.546473 0.283905
vt 0.465034 0.283905
vt 0.465034 0.283905
vt 0.540654 0.283905
vt 0.540654 0.283905
vt 0.459245 0.283905
vt 0.459245 0.283905
vt 0.534835 0.283905
vt 0.534835 0.283905
vt 0.453426 0.283905
vt 0.529015 0.283905
vt 0.529015 0.283905
vt 0.447606 0.283905
vt 0.523195 0.283905
vt 0.523195 0.283905
vt 0.441787 0.283905
vt 0.441787 0.283905
vt 0.517376 0.283905
vt 0.517376 0.283905
vt 0.435968 0.283905
vt 0.435968 0.283905
vt 0.511588 0.283905
vt 0.511588 0.283905
vt 0.430148 0.283905
vt 0.430148 0.283905
vt 0.505768 0.283905
vt 0.505768 0.283905
vt 0.581358 0.283905
vt 0.587177 0.283905
vt 0.587177 0.283905
vt 0.581358 0.283905
vt 0.424329 0.283905
vt 0.424329 0.283905
vt 0.499949 0.283905
vt 0.499949 0.283905
vt 0.575539 0.283905
vt 0.575539 0.283905
vt 0.418510 0.283905
vt 0.418510 0.283905
vt 0.494130 0.283905
vt 0.494130 0.283905
vt 0.569750 0.283905
vt 0.569750 0.283905
vt 0.412690 0.283905
vt 0.412690 0.283905
vt 0.488311 0.283905
vt 0.488311 0.283905
vt 0.563931 0.283905
vt 0.563931 0.283905
vt 0.406871 0.283905
vt 0.406871 0.283905
vt 0.482491 0.283905
vt 0.482491 0.283905
vt 0.558112 0.283905
vt 0.558112 0.283905
vt 0.401083 0.283905
vt 0.401083 0.283905
vt 0.581358 0.283905
vt 0.575539 0.283905
vt 0.529015 0.283905
vt 0.523195 0.283905
vt 0.441787 0.283905
vt 0.517376 0.283905
vt 0.435968 0.283905
vt 0.511588 0.283905
vt 0.430148 0.283905
vt 0.505768 0.283905
vt 0.424329 0.283905
vt 0.499949 0.283905
vt 0.455678 0.184944
vt 0.447606 0.185757
vt 0.439503 0.184944
vt 0.431744 0.182597
vt 0.424579 0.178749
vt 0.418290 0.173618
vt 0.413160 0.167329
vt 0.409311 0.160164
vt 0.406965 0.152405
vt 0.406151 0.144302
vt 0.406965 0.136230
vt 0.409311 0.128471
vt 0.413160 0.121306
vt 0.418290 0.115018
vt 0.424579 0.109855
vt 0.431744 0.106038
vt 0.439503 0.103692
vt 0.447606 0.102878
vt 0.455678 0.103692
vt 0.463469 0.106038
vt 0.470602 0.109855
vt 0.476891 0.115018
vt 0.482053 0.121306
vt 0.485870 0.128471
vt 0.488248 0.136230
vt 0.489030 0.144302
vt 0.488248 0.152405
vt 0.485870 0.160164
vt 0.482053 0.167329
vt 0.476891 0.173618
vt 0.470602 0.178749
vt 0.463469 0.182597
vt 0.418510 0.283905
vt 0.494130 0.283905
vt 0.406871 0.283905
vt 0.401083 0.283905
vt 0.412690 0.283905
vt 0.488311 0.283905
vt 0.569750 0.283905
vt 0.563931 0.283905
vt 0.482491 0.283905
vt 0.558112 0.283905
vt 0.476672 0.283905
vt 0.552292 0.283905
vt 0.470853 0.283905
vt 0.546473 0.283905
vt 0.465034 0.283905
vt 0.540654 0.283905
vt 0.459245 0.283905
vt 0.534835 0.283905
vt 0.456304 0.188134
vt 0.447606 0.188979
vt 0.464689 0.185569
vt 0.472417 0.181440
vt 0.479175 0.175902
vt 0.484744 0.169144
vt 0.488874 0.161416
vt 0.491408 0.153031
vt 0.492253 0.144302
vt 0.491408 0.135605
vt 0.488874 0.127219
vt 0.484744 0.119491
vt 0.479175 0.112733
vt 0.472417 0.107165
vt 0.464689 0.103034
vt 0.456304 0.100501
vt 0.447606 0.099656
vt 0.438878 0.100501
vt 0.430492 0.103034
vt 0.422796 0.107165
vt 0.416006 0.112733
vt 0.410469 0.119491
vt 0.406339 0.127219
vt 0.403773 0.135605
vt 0.402929 0.144302
vt 0.403773 0.153031
vt 0.406339 0.161416
vt 0.410469 0.169144
vt 0.416006 0.175902
vt 0.422796 0.181440
vt 0.430492 0.185569
vt 0.438878 0.188134
vt 0.587177 0.283905
vt 0.817941 0.708187
vt 0.824583 0.708187
vt 0.824583 0.708187
vt 0.817941 0.708187
vt 0.797966 0.708187
vt 0.804633 0.708187
vt 0.804633 0.708187
vt 0.797966 0.708187
vt 0.711469 0.708187
vt 0.718136 0.708187
vt 0.718136 0.708187
vt 0.711469 0.708187
vt 0.811275 0.708187
vt 0.811275 0.708187
vt 0.724779 0.708187
vt 0.724779 0.708187
vt 0.817941 0.708187
vt 0.731444 0.708187
vt 0.731444 0.708187
vt 0.824583 0.708187
vt 0.738087 0.708187
vt 0.738087 0.708187
vt 0.831250 0.708187
vt 0.831250 0.708187
vt 0.744754 0.708187
vt 0.744754 0.708187
vt 0.837893 0.708187
vt 0.837893 0.708187
vt 0.751396 0.708187
vt 0.751396 0.708187
vt 0.844560 0.708187
vt 0.844560 0.708187
vt 0.758039 0.708187
vt 0.758039 0.708187
vt 0.851202 0.708187
vt 0.851202 0.708187
vt 0.764706 0.708187
vt 0.764706 0.708187
vt 0.857869 0.708187
vt 0.857869 0.708187
vt 0.771371 0.708187
vt 0.771371 0.708187
vt 0.678209 0.708187
vt 0.684852 0.708187
vt 0.684852 0.708187
vt 0.678209 0.708187
vt 0.864510 0.708187
vt 0.864510 0.708187
vt 0.778014 0.708187
vt 0.778014 0.708187
vt 0.691517 0.708187
vt 0.691517 0.708187
vt 0.871177 0.708187
vt 0.871177 0.708187
vt 0.784681 0.708187
vt 0.784681 0.708187
vt 0.698160 0.708187
vt 0.698160 0.708187
vt 0.877820 0.708187
vt 0.877820 0.708187
vt 0.791323 0.708187
vt 0.791323 0.708187
vt 0.704827 0.708187
vt 0.704827 0.708187
vt 0.731444 0.710296
vt 0.721457 0.711290
vt 0.711881 0.714200
vt 0.703032 0.718926
vt 0.695300 0.725278
vt 0.688948 0.733012
vt 0.684220 0.741859
vt 0.681311 0.751436
vt 0.680317 0.761424
vt 0.681311 0.771387
vt 0.684220 0.780963
vt 0.688948 0.789812
vt 0.695300 0.797545
vt 0.703032 0.803896
vt 0.711881 0.808623
vt 0.721457 0.811532
vt 0.731444 0.812526
vt 0.741409 0.811532
vt 0.750984 0.808623
vt 0.759832 0.803896
vt 0.767565 0.797545
vt 0.773917 0.789812
vt 0.778645 0.780963
vt 0.781554 0.771387
vt 0.782548 0.761424
vt 0.781554 0.751436
vt 0.778645 0.741859
vt 0.773917 0.733012
vt 0.767565 0.725278
vt 0.759832 0.718926
vt 0.750984 0.714200
vt 0.741409 0.711290
vt 0.738087 0.708187
vt 0.731444 0.708187
vt 0.831250 0.708187
vt 0.744754 0.708187
vt 0.837893 0.708187
vt 0.751396 0.708187
vt 0.844560 0.708187
vt 0.758039 0.708187
vt 0.851202 0.708187
vt 0.764706 0.708187
vt 0.857869 0.708187
vt 0.771371 0.708187
vt 0.684852 0.708187
vt 0.678209 0.708187
vt 0.864510 0.708187
vt 0.778014 0.708187
vt 0.691517 0.708187
vt 0.871177 0.708187
vt 0.784681 0.708187
vt 0.698160 0.708187
vt 0.877820 0.708187
vt 0.791323 0.708187
vt 0.704827 0.708187
vt 0.884487 0.708187
vt 0.797966 0.708187
vt 0.711469 0.708187
vt 0.891129 0.708187
vt 0.804633 0.708187
vt 0.718136 0.708187
vt 0.811275 0.708187
vt 0.724779 0.708187
vn 0.0981 0.0000 -0.9952
vn 0.2903 0.0000 -0.9569
vn 0.4714 0.0000 -0.8819
vn 0.6344 0.0000 -0.7730
vn 0.7730 0.0000 -0.6344
vn 0.8819 0.0000 -0.4714
vn 0.9569 0.0000 -0.2903
vn 0.9952 0.0000 -0.0980
vn 0.9952 -0.0000 0.0980
vn 0.9569 -0.0000 0.2903
vn 0.8819 -0.0000 0.4714
vn 0.7730 -0.0000 0.6344
vn 0.6344 -0.0000 0.7730
vn 0.4714 -0.0000 0.8819
vn 0.2903 -0.0000 0.9569
vn 0.0980 -0.0000 0.9952
vn -0.0980 -0.0000 0.9952
vn -0.2903 -0.0000 0.9569
vn -0.4714 -0.0000 0.8819
vn -0.6344 -0.0000 0.7730
vn -0.7730 -0.0000 0.6344
vn -0.8819 -0.0000 0.4714
vn -0.9569 -0.0000 0.2903
vn -0.9952 -0.0000 0.0980
vn -0.9952 0.0000 -0.0980
vn -0.9569 0.0000 -0.2903
vn -0.8819 0.0000 -0.4714
vn -0.7730 0.0000 -0.6344
vn -0.6344 0.0000 -0.7730
vn -0.4714 0.0000 -0.8819
vn 0.0000 1.0000 0.0000
vn -0.2903 0.0000 -0.9569
vn -0.0981 0.0000 -0.9952
vn 0.2901 -0.0394 0.9562
vn -0.0097 0.9951 -0.0983
vn -0.9944 -0.0394 0.0979
vn 0.2901 -0.0394 -0.9562
vn 0.8812 -0.0394 0.4710
vn -0.6339 -0.0394 0.7724
vn -0.6339 -0.0394 -0.7724
vn 0.9562 -0.0394 -0.2901
vn 0.0979 -0.0394 0.9944
vn -0.9944 -0.0394 -0.0980
vn 0.4710 -0.0394 -0.8812
vn 0.7724 -0.0394 0.6339
vn -0.7724 -0.0394 0.6339
vn -0.4710 -0.0394 -0.8812
vn 0.9944 -0.0394 -0.0980
vn -0.0979 -0.0394 0.9944
vn -0.9562 -0.0394 -0.2901
vn 0.6339 -0.0394 -0.7724
vn 0.6339 -0.0394 0.7724
vn -0.8812 -0.0394 0.4710
vn -0.2901 -0.0394 -0.9562
vn 0.9944 -0.0394 0.0979
vn -0.2901 -0.0394 0.9562
vn -0.8812 -0.0394 -0.4710
vn 0.7724 -0.0394 -0.6339
vn 0.4710 -0.0394 0.8813
vn -0.9562 -0.0394 0.2901
vn 0.0980 -0.0394 -0.9944
vn -0.0980 -0.0394 -0.9944
vn 0.9562 -0.0394 0.2901
vn -0.4710 -0.0394 0.8813
vn -0.7724 -0.0394 -0.6339
vn 0.8812 -0.0394 -0.4710
vn -0.2902 -0.0000 0.9570
vn 0.0000 -1.0000 0.0000
vn 0.9570 0.0000 -0.2902
vn -0.9570 -0.0000 0.2902
vn 0.9570 -0.0000 0.2902
vn -0.9570 0.0000 -0.2902
vn 0.2902 -0.0000 0.9570
vn 0.2902 0.0000 -0.9570
vn -0.2902 0.0000 -0.9570
vn -0.9952 -0.0000 0.0981
vn -0.9952 0.0000 -0.0981
vn 0.9952 0.0000 -0.0981
vn 0.9952 -0.0000 0.0981
vn -0.0980 0.0000 -0.9952
vn 0.0980 0.0000 -0.9952
vn 0.0502 0.8587 -0.5100
vn 0.1487 0.8587 -0.4904
vn 0.2416 0.8587 -0.4519
vn 0.3251 0.8587 -0.3961
vn 0.3961 0.8587 -0.3251
vn 0.4519 0.8587 -0.2415
vn 0.4904 0.8587 -0.1488
vn 0.5100 0.8587 -0.0502
vn 0.5100 0.8587 0.0502
vn 0.4904 0.8587 0.1488
vn 0.4519 0.8587 0.2415
vn 0.3961 0.8587 0.3251
vn 0.3251 0.8587 0.3961
vn 0.2416 0.8587 0.4519
vn 0.1488 0.8587 0.4904
vn 0.0502 0.8587 0.5100
vn -0.0502 0.8587 0.5100
vn -0.1488 0.8587 0.4904
vn -0.2416 0.8587 0.4519
vn -0.3251 0.8587 0.3961
vn -0.3961 0.8587 0.3251
vn -0.4519 0.8587 0.2415
vn -0.4904 0.8587 0.1488
vn -0.5100 0.8587 0.0502
vn -0.5100 0.8587 -0.0502
vn -0.4904 0.8587 -0.1488
vn -0.4519 0.8587 -0.2415
vn -0.3961 0.8587 -0.3251
vn -0.3251 0.8587 -0.3961
vn -0.2416 0.8587 -0.4519
vn -0.1487 0.8587 -0.4904
vn -0.0502 0.8587 -0.5100
vn -0.0466 0.9951 0.0871
vn 0.0871 0.9951 -0.0466
vn -0.0627 0.9951 0.0764
vn 0.0945 0.9951 -0.0287
vn -0.0763 0.9951 0.0627
vn 0.0983 0.9951 -0.0097
vn -0.0871 0.9951 0.0466
vn 0.0983 0.9951 0.0097
vn -0.0945 0.9951 0.0287
vn 0.0945 0.9951 0.0287
vn -0.0983 0.9951 0.0097
vn 0.0871 0.9951 0.0466
vn -0.0983 0.9951 -0.0097
vn 0.0763 0.9951 0.0627
vn -0.0945 0.9951 -0.0287
vn 0.0627 0.9951 0.0763
vn -0.0871 0.9951 -0.0466
vn 0.0466 0.9951 0.0871
vn 0.0097 0.9951 -0.0983
vn -0.0763 0.9951 -0.0627
vn 0.0287 0.9951 0.0945
vn 0.0287 0.9951 -0.0945
vn -0.0627 0.9951 -0.0763
vn 0.0097 0.9951 0.0983
vn 0.0466 0.9951 -0.0871
vn -0.0466 0.9951 -0.0871
vn -0.0097 0.9951 0.0983
vn 0.0627 0.9951 -0.0764
vn -0.0287 0.9951 -0.0945
vn -0.0287 0.9951 0.0945
vn 0.0763 0.9951 -0.0627
usemtl Material.005
s 1
f 1/1/1 2/2/1 3/3/1 4/4/1
f 4/4/2 3/3/2 5/5/2 6/6/2
f 6/6/3 5/5/3 7/7/3 8/8/3
f 8/8/4 7/7/4 9/9/4 10/10/4
f 10/10/5 9/9/5 11/11/5 12/12/5
f 12/12/6 11/11/6 13/13/6 14/14/6
f 14/14/7 13/13/7 15/15/7 16/16/7
f 16/16/8 15/15/8 17/17/8 18/18/8
f 18/18/9 17/17/9 19/19/9 20/20/9
f 20/20/10 19/19/10 21/21/10 22/22/10
f 22/22/11 21/21/11 23/23/11 24/24/11
f 24/24/12 23/23/12 25/25/12 26/26/12
f 26/26/13 25/25/13 27/27/13 28/28/13
f 28/28/14 27/27/14 29/29/14 30/30/14
f 30/30/15 29/29/15 31/31/15 32/32/15
f 32/32/16 31/31/16 33/33/16 34/34/16
f 34/34/17 33/33/17 35/35/17 36/36/17
f 36/36/18 35/35/18 37/37/18 38/38/18
f 38/38/19 37/37/19 39/39/19 40/40/19
f 40/40/20 39/39/20 41/41/20 42/42/20
f 42/42/21 41/41/21 43/43/21 44/44/21
f 44/44/22 43/43/22 45/45/22 46/46/22
f 46/46/23 45/45/23 47/47/23 48/48/23
f 48/48/24 47/47/24 49/49/24 50/50/24
f 50/50/25 49/49/25 51/51/25 52/52/25
f 52/52/26 51/51/26 53/53/26 54/54/26
f 54/54/27 53/53/27 55/55/27 56/56/27
f 56/56/28 55/55/28 57/57/28 58/58/28
f 58/58/29 57/57/29 59/59/29 60/60/29
f 60/60/30 59/59/30 61/61/30 62/62/30
f 13/13/31 11/11/31 63/63/31 64/64/31
f 62/62/32 61/61/32 65/65/32 66/66/32
f 66/66/33 65/65/33 2/67/33 1/68/33
f 30/30/34 32/32/34 67/69/34 68/70/34
f 69/71/35 70/72/35 71/73/35 72/74/35
f 48/48/36 50/50/36 73/75/36 74/76/36
f 4/4/37 6/6/37 75/77/37 76/78/37
f 22/22/38 24/24/38 77/79/38 78/80/38
f 40/40/39 42/42/39 79/81/39 80/82/39
f 58/58/40 60/60/40 81/83/40 82/84/40
f 14/14/41 16/16/41 83/85/41 84/86/41
f 32/32/42 34/34/42 85/87/42 67/69/42
f 50/50/43 52/52/43 86/88/43 73/75/43
f 6/6/44 8/8/44 87/89/44 75/77/44
f 24/24/45 26/26/45 88/90/45 77/79/45
f 42/42/46 44/44/46 89/91/46 79/81/46
f 60/60/47 62/62/47 90/92/47 81/83/47
f 16/16/48 18/18/48 91/93/48 83/85/48
f 34/34/49 36/36/49 92/94/49 85/87/49
f 52/52/50 54/54/50 93/95/50 86/88/50
f 8/8/51 10/10/51 94/96/51 87/89/51
f 26/26/52 28/28/52 95/97/52 88/90/52
f 44/44/53 46/46/53 96/98/53 89/91/53
f 62/62/54 66/66/54 69/99/54 90/92/54
f 18/18/55 20/20/55 97/100/55 91/93/55
f 36/36/56 38/38/56 98/101/56 92/94/56
f 54/54/57 56/56/57 99/102/57 93/95/57
f 10/10/58 12/12/58 100/103/58 94/96/58
f 28/28/59 30/30/59 68/70/59 95/97/59
f 46/46/60 48/48/60 74/76/60 96/98/60
f 1/1/61 4/4/61 76/78/61 70/104/61
f 66/66/62 1/68/62 70/105/62 69/99/62
f 20/20/63 22/22/63 78/80/63 97/100/63
f 38/38/64 40/40/64 80/82/64 98/101/64
f 56/56/65 58/58/65 82/84/65 99/102/65
f 12/12/66 14/14/66 84/86/66 100/103/66
f 101/106/67 102/107/67 103/108/67 104/109/67
f 31/31/31 29/29/31 105/110/31 106/111/31
f 49/49/31 47/47/31 107/112/31 108/113/31
f 5/5/31 3/3/31 109/114/31 110/115/31
f 23/23/31 21/21/31 111/116/31 112/117/31
f 41/41/31 39/39/31 113/118/31 114/119/31
f 59/59/31 57/57/31 115/120/31 116/121/31
f 15/15/31 13/13/31 64/64/31 117/122/31
f 33/33/31 31/31/31 106/111/31 118/123/31
f 51/51/31 49/49/31 108/113/31 119/124/31
f 7/7/31 5/5/31 110/115/31 120/125/31
f 25/25/31 23/23/31 112/117/31 121/126/31
f 43/43/31 41/41/31 114/119/31 122/127/31
f 61/61/31 59/59/31 116/121/31 123/128/31
f 17/17/31 15/15/31 117/122/31 124/129/31
f 35/35/31 33/33/31 118/123/31 102/130/31
f 53/53/31 51/51/31 119/124/31 125/131/31
f 9/9/31 7/7/31 120/125/31 126/132/31
f 27/27/31 25/25/31 121/126/31 127/133/31
f 45/45/31 43/43/31 122/127/31 128/134/31
f 65/65/31 61/61/31 123/128/31 129/135/31
f 19/19/31 17/17/31 124/129/31 130/136/31
f 37/37/31 35/35/31 102/130/31 101/137/31
f 55/55/31 53/53/31 125/131/31 131/138/31
f 11/11/31 9/9/31 126/132/31 63/63/31
f 29/29/31 27/27/31 127/133/31 105/110/31
f 47/47/31 45/45/31 128/134/31 107/112/31
f 3/3/31 2/2/31 132/139/31 109/114/31
f 2/67/31 65/65/31 129/135/31 132/140/31
f 21/21/31 19/19/31 130/136/31 111/116/31
f 39/39/31 37/37/31 101/137/31 113/118/31
f 57/57/31 55/55/31 131/138/31 115/120/31
f 133/141/68 134/142/68 135/143/68 136/144/68
f 63/145/5 126/146/5 137/147/5 138/148/5
f 132/149/33 129/150/33 139/151/33 140/152/33
f 113/153/19 101/106/19 104/109/19 141/154/19
f 64/155/6 63/145/6 138/148/6 142/156/6
f 114/157/20 113/153/20 141/154/20 134/158/20
f 117/159/69 64/155/69 142/156/69 143/160/69
f 122/161/21 114/157/21 134/158/21 133/162/21
f 124/163/8 117/159/8 143/160/8 144/164/8
f 128/165/22 122/161/22 133/162/22 145/166/22
f 130/167/9 124/163/9 144/164/9 146/168/9
f 107/169/70 128/165/70 145/166/70 147/170/70
f 111/171/71 130/167/71 146/168/71 148/172/71
f 108/173/24 107/169/24 147/170/24 149/174/24
f 112/175/11 111/171/11 148/172/11 150/176/11
f 119/177/25 108/173/25 149/174/25 151/178/25
f 121/179/12 112/175/12 150/176/12 152/180/12
f 125/181/72 119/177/72 151/178/72 153/182/72
f 127/183/13 121/179/13 152/180/13 154/184/13
f 131/185/27 125/181/27 153/182/27 155/186/27
f 105/187/14 127/183/14 154/184/14 156/188/14
f 109/189/1 132/190/1 140/191/1 157/192/1
f 115/193/28 131/185/28 155/186/28 158/194/28
f 106/195/73 105/187/73 156/188/73 159/196/73
f 110/197/74 109/189/74 157/192/74 160/198/74
f 116/199/29 115/193/29 158/194/29 161/200/29
f 118/201/16 106/195/16 159/196/16 162/202/16
f 120/203/3 110/197/3 160/198/3 163/204/3
f 123/205/30 116/199/30 161/200/30 164/206/30
f 102/107/17 118/201/17 162/202/17 103/108/17
f 126/146/4 120/203/4 163/204/4 137/147/4
f 129/150/75 123/205/75 164/206/75 139/151/75
f 165/207/76 166/208/76 167/209/76 168/210/76
f 144/211/68 143/212/68 169/213/68 170/214/68
f 145/215/68 133/141/68 136/144/68 171/216/68
f 146/217/68 144/211/68 170/214/68 172/218/68
f 147/219/68 145/215/68 171/216/68 166/208/68
f 148/220/68 146/217/68 172/218/68 173/221/68
f 149/222/68 147/219/68 166/208/68 165/207/68
f 150/223/68 148/220/68 173/221/68 174/224/68
f 151/225/68 149/222/68 165/207/68 175/226/68
f 152/227/68 150/223/68 174/224/68 176/228/68
f 153/229/68 151/225/68 175/226/68 177/230/68
f 154/231/68 152/227/68 176/228/68 178/232/68
f 155/233/68 153/229/68 177/230/68 179/234/68
f 156/235/68 154/231/68 178/232/68 180/236/68
f 157/237/68 140/238/68 181/239/68 182/240/68
f 158/241/68 155/233/68 179/234/68 183/242/68
f 159/243/68 156/235/68 180/236/68 184/244/68
f 160/245/68 157/237/68 182/240/68 185/246/68
f 161/247/68 158/241/68 183/242/68 186/248/68
f 162/249/68 159/243/68 184/244/68 187/250/68
f 163/251/68 160/245/68 185/246/68 188/252/68
f 164/253/68 161/247/68 186/248/68 189/254/68
f 103/255/68 162/249/68 187/250/68 190/256/68
f 137/257/68 163/251/68 188/252/68 191/258/68
f 139/259/68 164/253/68 189/254/68 192/260/68
f 104/261/68 103/255/68 190/256/68 193/262/68
f 138/263/68 137/257/68 191/258/68 194/264/68
f 140/265/68 139/259/68 192/260/68 181/266/68
f 141/267/68 104/261/68 193/262/68 195/268/68
f 142/269/68 138/263/68 194/264/68 196/270/68
f 134/142/68 141/267/68 195/268/68 135/143/68
f 143/212/68 142/269/68 196/270/68 169/213/68
f 197/271/31 198/272/31 199/273/31 200/274/31
f 174/224/11 173/221/11 201/275/11 202/276/11
f 175/226/77 165/207/77 168/210/77 203/277/77
f 176/228/12 174/224/12 202/276/12 204/278/12
f 177/230/26 175/226/26 203/277/26 198/272/26
f 178/232/13 176/228/13 204/278/13 205/279/13
f 179/234/27 177/230/27 198/272/27 197/271/27
f 180/236/14 178/232/14 205/279/14 206/280/14
f 182/240/1 181/239/1 207/281/1 208/282/1
f 183/242/28 179/234/28 197/271/28 209/283/28
f 184/244/15 180/236/15 206/280/15 210/284/15
f 185/246/2 182/240/2 208/282/2 211/285/2
f 186/248/29 183/242/29 209/283/29 212/286/29
f 187/250/16 184/244/16 210/284/16 213/287/16
f 188/252/3 185/246/3 211/285/3 214/288/3
f 189/254/30 186/248/30 212/286/30 215/289/30
f 190/256/17 187/250/17 213/287/17 216/290/17
f 191/258/4 188/252/4 214/288/4 217/291/4
f 192/260/32 189/254/32 215/289/32 218/292/32
f 193/262/18 190/256/18 216/290/18 219/293/18
f 194/264/5 191/258/5 217/291/5 220/294/5
f 181/266/33 192/260/33 218/292/33 207/295/33
f 195/268/19 193/262/19 219/293/19 221/296/19
f 196/270/6 194/264/6 220/294/6 222/297/6
f 135/143/20 195/268/20 221/296/20 223/298/20
f 169/213/7 196/270/7 222/297/7 224/299/7
f 136/144/21 135/143/21 223/298/21 225/300/21
f 170/214/78 169/213/78 224/299/78 226/301/78
f 171/216/22 136/144/22 225/300/22 227/302/22
f 172/218/79 170/214/79 226/301/79 228/303/79
f 166/208/23 171/216/23 227/302/23 167/209/23
f 173/221/10 172/218/10 228/303/10 201/275/10
f 229/304/30 230/305/30 231/306/30 232/307/30
f 206/280/31 205/279/31 233/308/31 234/309/31
f 208/282/31 207/281/31 235/310/31 236/311/31
f 209/283/31 197/271/31 200/274/31 237/312/31
f 210/284/31 206/280/31 234/309/31 238/313/31
f 211/285/31 208/282/31 236/311/31 239/314/31
f 212/286/31 209/283/31 237/312/31 230/315/31
f 213/287/31 210/284/31 238/313/31 240/316/31
f 214/288/31 211/285/31 239/314/31 241/317/31
f 215/289/31 212/286/31 230/315/31 229/318/31
f 216/290/31 213/287/31 240/316/31 242/319/31
f 217/291/31 214/288/31 241/317/31 243/320/31
f 218/292/31 215/289/31 229/318/31 244/321/31
f 219/293/31 216/290/31 242/319/31 245/322/31
f 220/294/31 217/291/31 243/320/31 246/323/31
f 207/295/31 218/292/31 244/321/31 235/324/31
f 221/296/31 219/293/31 245/322/31 247/325/31
f 222/297/31 220/294/31 246/323/31 248/326/31
f 223/298/31 221/296/31 247/325/31 249/327/31
f 224/299/31 222/297/31 248/326/31 250/328/31
f 225/300/31 223/298/31 249/327/31 251/329/31
f 226/301/31 224/299/31 250/328/31 252/330/31
f 227/302/31 225/300/31 251/329/31 253/331/31
f 228/303/31 226/301/31 252/330/31 254/332/31
f 167/209/31 227/302/31 253/331/31 255/333/31
f 201/275/31 228/303/31 254/332/31 256/334/31
f 168/210/31 167/209/31 255/333/31 257/335/31
f 202/276/31 201/275/31 256/334/31 258/336/31
f 203/277/31 168/210/31 257/335/31 259/337/31
f 204/278/31 202/276/31 258/336/31 260/338/31
f 198/272/31 203/277/31 259/337/31 199/273/31
f 205/279/31 204/278/31 260/338/31 233/308/31
f 261/339/68 262/340/68 263/341/68 264/342/68
f 242/343/17 240/344/17 265/345/17 266/346/17
f 243/347/4 241/348/4 267/349/4 268/350/4
f 244/351/32 229/304/32 232/307/32 269/352/32
f 245/353/18 242/343/18 266/346/18 270/354/18
f 246/355/5 243/347/5 268/350/5 271/356/5
f 235/357/80 244/351/80 269/352/80 272/358/80
f 247/359/19 245/353/19 270/354/19 262/360/19
f 248/361/6 246/355/6 271/356/6 273/362/6
f 249/363/20 247/359/20 262/360/20 261/364/20
f 250/365/7 248/361/7 273/362/7 274/366/7
f 251/367/21 249/363/21 261/364/21 275/368/21
f 252/369/8 250/365/8 274/366/8 276/370/8
f 253/371/22 251/367/22 275/368/22 277/372/22
f 254/373/9 252/369/9 276/370/9 278/374/9
f 255/375/23 253/371/23 277/372/23 279/376/23
f 256/377/10 254/373/10 278/374/10 280/378/10
f 257/379/24 255/375/24 279/376/24 281/380/24
f 258/381/11 256/377/11 280/378/11 282/382/11
f 259/383/25 257/379/25 281/380/25 283/384/25
f 260/385/12 258/381/12 282/382/12 284/386/12
f 199/387/26 259/383/26 283/384/26 285/388/26
f 233/389/13 260/385/13 284/386/13 286/390/13
f 200/391/27 199/387/27 285/388/27 287/392/27
f 234/393/14 233/389/14 286/390/14 288/394/14
f 236/395/81 235/396/81 272/397/81 289/398/81
f 237/399/28 200/391/28 287/392/28 290/400/28
f 238/401/15 234/393/15 288/394/15 291/402/15
f 239/403/2 236/395/2 289/398/2 292/404/2
f 230/305/29 237/399/29 290/400/29 231/306/29
f 240/344/16 238/401/16 291/402/16 265/345/16
f 241/348/3 239/403/3 292/404/3 267/349/3
f 293/405/24 294/406/24 295/407/24 296/408/24
f 274/409/68 273/410/68 297/411/68 298/412/68
f 275/413/68 261/339/68 264/342/68 299/414/68
f 276/415/68 274/409/68 298/412/68 300/416/68
f 277/417/68 275/413/68 299/414/68 301/418/68
f 278/419/68 276/415/68 300/416/68 302/420/68
f 279/421/68 277/417/68 301/418/68 294/406/68
f 280/422/68 278/419/68 302/420/68 303/423/68
f 281/424/68 279/421/68 294/406/68 293/405/68
f 282/425/68 280/422/68 303/423/68 304/426/68
f 283/427/68 281/424/68 293/405/68 305/428/68
f 284/429/68 282/425/68 304/426/68 306/430/68
f 285/431/68 283/427/68 305/428/68 307/432/68
f 286/433/68 284/429/68 306/430/68 308/434/68
f 287/435/68 285/431/68 307/432/68 309/436/68
f 288/437/68 286/433/68 308/434/68 310/438/68
f 289/439/68 272/440/68 311/441/68 312/442/68
f 290/443/68 287/435/68 309/436/68 313/444/68
f 291/445/68 288/437/68 310/438/68 314/446/68
f 292/447/68 289/439/68 312/442/68 315/448/68
f 231/449/68 290/443/68 313/444/68 316/450/68
f 265/451/68 291/445/68 314/446/68 317/452/68
f 267/453/68 292/447/68 315/448/68 318/454/68
f 232/455/68 231/449/68 316/450/68 319/456/68
f 266/457/68 265/451/68 317/452/68 320/458/68
f 268/459/68 267/453/68 318/454/68 321/460/68
f 269/461/68 232/455/68 319/456/68 322/462/68
f 270/463/68 266/457/68 320/458/68 323/464/68
f 271/465/68 268/459/68 321/460/68 324/466/68
f 272/467/68 269/461/68 322/462/68 311/468/68
f 262/340/68 270/463/68 323/464/68 263/341/68
f 273/410/68 271/465/68 324/466/68 297/411/68
f 315/448/74 312/442/74 325/469/74 326/470/74
f 304/426/11 303/423/11 327/471/11 328/472/11
f 305/428/25 293/405/25 296/408/25 329/473/25
f 306/430/12 304/426/12 328/472/12 330/474/12
f 307/432/26 305/428/26 329/473/26 331/475/26
f 308/434/13 306/430/13 330/474/13 332/476/13
f 309/436/27 307/432/27 331/475/27 333/477/27
f 310/438/14 308/434/14 332/476/14 334/478/14
f 313/444/28 309/436/28 333/477/28 335/479/28
f 314/446/15 310/438/15 334/478/15 336/480/15
f 337/481/31 338/482/31 339/483/31 340/484/31 341/485/31 342/486/31 343/487/31 344/488/31 345/489/31 346/490/31 347/491/31 348/492/31 349/493/31 350/494/31 351/495/31 352/496/31 353/497/31 354/498/31 355/499/31 356/500/31 357/501/31 358/502/31 359/503/31 360/504/31 361/505/31 362/506/31 363/507/31 364/508/31 365/509/31 366/510/31 367/511/31 368/512/31
f 316/450/29 313/444/29 335/479/29 369/513/29
f 317/452/16 314/446/16 336/480/16 370/514/16
f 311/468/80 322/462/80 371/515/80 372/516/80
f 319/456/30 316/450/30 369/513/30 373/517/30
f 320/458/17 317/452/17 370/514/17 374/518/17
f 321/460/4 318/454/4 375/519/4 376/520/4
f 322/462/75 319/456/75 373/517/75 371/515/75
f 323/464/18 320/458/18 374/518/18 377/521/18
f 324/466/5 321/460/5 376/520/5 378/522/5
f 263/341/19 323/464/19 377/521/19 379/523/19
f 297/411/6 324/466/6 378/522/6 380/524/6
f 318/454/3 315/448/3 326/470/3 375/519/3
f 264/342/20 263/341/20 379/523/20 381/525/20
f 298/412/7 297/411/7 380/524/7 382/526/7
f 299/414/21 264/342/21 381/525/21 383/527/21
f 300/416/8 298/412/8 382/526/8 384/528/8
f 301/418/22 299/414/22 383/527/22 385/529/22
f 302/420/9 300/416/9 384/528/9 386/530/9
f 294/406/23 301/418/23 385/529/23 295/407/23
f 303/423/10 302/420/10 386/530/10 327/471/10
f 325/531/82 372/532/82 338/482/82 337/481/82
f 326/533/83 325/531/83 337/481/83 368/512/83
f 375/534/84 326/533/84 368/512/84 367/511/84
f 376/535/85 375/534/85 367/511/85 366/510/85
f 378/536/86 376/535/86 366/510/86 365/509/86
f 380/537/87 378/536/87 365/509/87 364/508/87
f 382/538/88 380/537/88 364/508/88 363/507/88
f 384/539/89 382/538/89 363/507/89 362/506/89
f 386/540/90 384/539/90 362/506/90 361/505/90
f 327/541/91 386/540/91 361/505/91 360/504/91
f 328/542/92 327/541/92 360/504/92 359/503/92
f 330/543/93 328/542/93 359/503/93 358/502/93
f 332/544/94 330/543/94 358/502/94 357/501/94
f 334/545/95 332/544/95 357/501/95 356/500/95
f 336/546/96 334/545/96 356/500/96 355/499/96
f 370/547/97 336/546/97 355/499/97 354/498/97
f 374/548/98 370/547/98 354/498/98 353/497/98
f 377/549/99 374/548/99 353/497/99 352/496/99
f 379/550/100 377/549/100 352/496/100 351/495/100
f 381/551/101 379/550/101 351/495/101 350/494/101
f 383/552/102 381/551/102 350/494/102 349/493/102
f 385/553/103 383/552/103 349/493/103 348/492/103
f 295/554/104 385/553/104 348/492/104 347/491/104
f 296/555/105 295/554/105 347/491/105 346/490/105
f 329/556/106 296/555/106 346/490/106 345/489/106
f 331/557/107 329/556/107 345/489/107 344/488/107
f 333/558/108 331/557/108 344/488/108 343/487/108
f 335/559/109 333/558/109 343/487/109 342/486/109
f 369/560/110 335/559/110 342/486/110 341/485/110
f 373/561/111 369/560/111 341/485/111 340/484/111
f 371/562/112 373/561/112 340/484/112 339/483/112
f 372/532/113 371/562/113 339/483/113 338/482/113
f 312/442/81 311/441/81 372/563/81 325/469/81
f 387/564/22 388/565/22 389/566/22 390/567/22
f 98/568/114 80/569/114 391/570/114 392/571/114
f 100/572/115 84/573/115 393/574/115 394/575/115
f 80/569/116 79/576/116 395/577/116 391/570/116
f 84/573/117 83/578/117 396/579/117 393/574/117
f 79/576/118 89/580/118 387/564/118 395/577/118
f 83/578/119 91/581/119 397/582/119 396/579/119
f 89/580/120 96/583/120 388/565/120 387/564/120
f 91/581/121 97/584/121 398/585/121 397/582/121
f 96/583/122 74/586/122 399/587/122 388/565/122
f 97/584/123 78/588/123 400/589/123 398/585/123
f 74/586/124 73/590/124 401/591/124 399/587/124
f 78/588/125 77/592/125 402/593/125 400/589/125
f 73/590/126 86/594/126 403/595/126 401/591/126
f 77/592/127 88/596/127 404/597/127 402/593/127
f 86/594/128 93/598/128 405/599/128 403/595/128
f 88/596/129 95/600/129 406/601/129 404/597/129
f 93/598/130 99/602/130 407/603/130 405/599/130
f 95/600/131 68/604/131 408/605/131 406/601/131
f 70/606/132 76/607/132 409/608/132 71/609/132
f 99/602/133 82/610/133 410/611/133 407/603/133
f 68/604/134 67/612/134 411/613/134 408/605/134
f 76/607/135 75/614/135 412/615/135 409/608/135
f 82/610/136 81/616/136 413/617/136 410/611/136
f 67/612/137 85/618/137 414/619/137 411/613/137
f 75/614/138 87/620/138 415/621/138 412/615/138
f 81/616/139 90/622/139 416/623/139 413/617/139
f 85/618/140 92/624/140 417/625/140 414/619/140
f 87/620/141 94/626/141 418/627/141 415/621/141
f 90/622/142 69/71/142 72/74/142 416/623/142
f 92/624/143 98/568/143 392/571/143 417/625/143
f 94/626/144 100/572/144 394/575/144 418/627/144
f 419/628/68 420/629/68 421/630/68 422/631/68 423/632/68 424/633/68 425/634/68 426/635/68 427/636/68 428/637/68 429/638/68 430/639/68 431/640/68 432/641/68 433/642/68 434/643/68 435/644/68 436/645/68 437/646/68 438/647/68 439/648/68 390/649/68 389/650/68 440/651/68 441/652/68 442/653/68 443/654/68 444/655/68 445/656/68 446/657/68 447/658/68 448/659/68
f 397/582/9 398/585/9 428/660/9 427/661/9
f 388/565/23 399/587/23 440/662/23 389/566/23
f 398/585/10 400/589/10 429/663/10 428/660/10
f 399/587/24 401/591/24 441/664/24 440/662/24
f 400/589/11 402/593/11 430/665/11 429/663/11
f 401/591/25 403/595/25 442/666/25 441/664/25
f 402/593/12 404/597/12 431/667/12 430/665/12
f 403/595/26 405/599/26 443/668/26 442/666/26
f 404/597/13 406/601/13 432/669/13 431/667/13
f 405/599/27 407/603/27 444/670/27 443/668/27
f 406/601/14 408/605/14 433/671/14 432/669/14
f 71/609/81 409/608/81 420/672/81 419/673/81
f 407/603/28 410/611/28 445/674/28 444/670/28
f 408/605/15 411/613/15 434/675/15 433/671/15
f 409/608/2 412/615/2 421/676/2 420/672/2
f 410/611/29 413/617/29 446/677/29 445/674/29
f 411/613/16 414/619/16 435/678/16 434/675/16
f 412/615/3 415/621/3 422/679/3 421/676/3
f 413/617/30 416/623/30 447/680/30 446/677/30
f 414/619/17 417/625/17 436/681/17 435/678/17
f 415/621/4 418/627/4 423/682/4 422/679/4
f 416/623/32 72/74/32 448/683/32 447/680/32
f 417/625/18 392/571/18 437/684/18 436/681/18
f 418/627/5 394/575/5 424/685/5 423/682/5
f 72/74/80 71/73/80 419/686/80 448/683/80
f 392/571/19 391/570/19 438/687/19 437/684/19
f 394/575/6 393/574/6 425/688/6 424/685/6
f 391/570/20 395/577/20 439/689/20 438/687/20
f 393/574/7 396/579/7 426/690/7 425/688/7
f 395/577/21 387/564/21 390/567/21 439/689/21
f 396/579/8 397/582/8 427/661/8 426/690/8
