# Blender v3.0.0 OBJ File: ''
# www.blender.org
mtllib warningsign.mtl
o base
v -0.390666 -0.044204 0.213158
v -0.390666 0.044204 0.213158
v -0.390666 0.044204 -0.213158
v -0.390666 -0.044204 -0.213158
v 0.390666 0.044204 -0.213158
v 0.390666 -0.044204 -0.213158
v 0.390666 0.044204 0.213158
v 0.390666 -0.044204 0.213158
v 0.357447 0.102161 -0.189517
v -0.357447 0.102161 -0.189517
v -0.357447 0.102161 0.189518
v 0.357447 0.102161 0.189518
vt 0.375000 0.000000
vt 0.625000 0.000000
vt 0.625000 0.250000
vt 0.375000 0.250000
vt 0.625000 0.500000
vt 0.375000 0.500000
vt 0.625000 0.750000
vt 0.375000 0.750000
vt 0.625000 1.000000
vt 0.375000 1.000000
vt 0.125000 0.500000
vt 0.125000 0.750000
vt 0.642928 0.517928
vt 0.857072 0.517928
vt 0.857072 0.732072
vt 0.642928 0.732072
vt 0.875000 0.500000
vt 0.875000 0.750000
vn -1.0000 0.0000 0.0000
vn 0.0000 0.0000 -1.0000
vn 1.0000 0.0000 0.0000
vn 0.0000 0.0000 1.0000
vn 0.0000 -1.0000 -0.0000
vn 0.0000 1.0000 0.0000
vn 0.0000 0.3777 -0.9259
vn -0.8676 0.4973 0.0000
vn 0.0000 0.3777 0.9259
vn 0.8676 0.4973 0.0000
usemtl Material.003
s 1
f 1/1/1 2/2/1 3/3/1 4/4/1
f 4/4/2 3/3/2 5/5/2 6/6/2
f 6/6/3 5/5/3 7/7/3 8/8/3
f 8/8/4 7/7/4 2/9/4 1/10/4
f 4/11/5 6/6/5 8/8/5 1/12/5
f 9/13/6 10/14/6 11/15/6 12/16/6
f 5/5/7 3/17/7 10/14/7 9/13/7
f 3/17/8 2/18/8 11/15/8 10/14/8
f 2/18/9 7/7/9 12/16/9 11/15/9
f 7/7/10 5/5/10 9/13/10 12/16/10
o moving
v -0.275726 0.422674 0.008035
v -0.083084 0.422674 0.008035
v 0.000000 0.422674 0.008035
v 0.000000 1.775005 0.008035
v -0.275726 1.775005 0.008035
v -0.275726 0.422674 -0.008035
v -0.275726 1.775005 -0.008034
v 0.000000 1.775005 -0.008034
v 0.000000 0.422674 -0.008035
v -0.083084 0.422674 -0.008035
v 0.275726 0.422674 0.008035
v 0.275726 1.775005 0.008035
v 0.083084 0.422674 0.008035
v 0.275726 0.422674 -0.008035
v 0.083084 0.422674 -0.008035
v 0.275726 1.775005 -0.008034
v -0.083084 0.079765 -0.008035
v -0.083084 0.399790 -0.008035
v -0.083084 0.399790 -0.024104
v -0.083084 0.079765 -0.024104
v 0.000000 0.079765 0.024104
v 0.000000 0.399790 0.024104
v -0.083084 0.399790 0.024104
v -0.083084 0.079765 0.024104
v 0.000000 0.399790 -0.024104
v -0.083084 0.422674 -0.024104
v 0.000000 0.422674 -0.024104
v -0.083084 0.422674 0.024104
v 0.000000 0.422674 0.024104
v -0.083084 0.399790 0.008035
v -0.275726 0.399790 0.024104
v -0.275726 0.399790 0.008035
v -0.083084 0.079765 0.008035
v 0.000000 0.079765 0.008035
v 0.000000 0.079765 -0.024104
v -0.275726 0.422674 -0.024104
v -0.275726 0.399790 -0.024104
v -0.284902 0.399790 -0.024104
v -0.290927 0.404597 -0.024104
v -0.293423 0.416202 -0.024104
v -0.293423 0.422674 -0.024104
v -0.275726 0.422674 0.024104
v -0.293423 0.422674 0.024104
v -0.293423 0.416202 0.024104
v -0.290927 0.404597 0.024104
v -0.284902 0.399790 0.024104
v -0.293423 1.775005 -0.024104
v -0.275726 1.775005 -0.024104
v -0.293423 1.775005 0.008035
v -0.293423 1.775005 0.024104
v -0.293423 1.775005 0.024104
v -0.293423 0.416202 0.008035
v -0.293423 0.422674 0.008035
v -0.293423 1.775005 -0.024104
v -0.290927 1.786115 -0.024104
v -0.284902 1.790717 -0.024104
v -0.275726 1.790717 -0.024104
v -0.275726 1.775005 0.024104
v -0.275726 1.790717 0.024104
v -0.284902 1.790717 0.024104
v -0.290927 1.786115 0.024104
v 0.000000 1.775005 -0.024104
v -0.275726 1.790717 -0.008034
v -0.284902 1.790717 -0.008034
v 0.000000 1.790717 -0.024104
v 0.000000 1.790717 -0.008034
v 0.000000 1.775005 0.024104
v 0.000000 1.790717 0.024104
v -0.275726 1.790717 0.008035
v 0.000000 1.790717 0.008035
v 0.000000 1.820524 -0.015016
v 0.000000 1.873299 -0.015016
v 0.008119 1.873299 -0.012633
v 0.008119 1.820524 -0.012633
v 0.013660 1.873299 -0.006238
v 0.013660 1.820524 -0.006238
v 0.014864 1.873299 0.002137
v 0.014864 1.820524 0.002137
v 0.011349 1.873299 0.009834
v 0.011349 1.820524 0.009834
v 0.004231 1.873299 0.014409
v 0.004231 1.820524 0.014409
v -0.004231 1.873299 0.014409
v -0.004231 1.820524 0.014409
v -0.011349 1.873299 0.009834
v -0.011349 1.820524 0.009834
v -0.014864 1.873299 0.002137
v -0.014864 1.820524 0.002137
v -0.013660 1.873299 -0.006238
v -0.013660 1.820524 -0.006238
v -0.008119 1.873299 -0.012633
v -0.008119 1.820524 -0.012633
v -0.017231 1.783797 0.017231
v -0.015856 1.833633 0.015856
v -0.015856 1.833633 -0.015856
v -0.017231 1.783797 -0.017231
v 0.015856 1.833633 -0.015856
v 0.017231 1.783797 -0.017231
v 0.015856 1.833633 0.015856
v 0.017231 1.783797 0.017231
v -0.293423 0.416202 -0.008035
v -0.290927 0.404597 -0.008035
v -0.284902 0.399790 -0.008035
v -0.290927 1.786115 -0.008034
v -0.293423 1.775005 -0.008034
v -0.284902 0.399790 0.008035
v -0.275726 0.399790 -0.008035
v -0.290927 1.786115 0.008035
v -0.284902 1.790717 0.008035
v -0.290927 0.404597 0.008035
v -0.293423 0.422674 -0.008035
v 0.000000 0.079765 -0.008035
v 0.083084 0.079765 -0.008035
v 0.083084 0.079765 -0.024104
v 0.083084 0.399790 -0.024104
v 0.083084 0.399790 -0.008035
v 0.083084 0.079765 0.024104
v 0.083084 0.399790 0.024104
v 0.083084 0.422674 -0.024104
v 0.083084 0.422674 0.024104
v 0.083084 0.399790 0.008035
v 0.275726 0.399790 0.008035
v 0.275726 0.399790 0.024104
v 0.083084 0.079765 0.008035
v 0.275726 0.422674 -0.024104
v 0.293423 0.422674 -0.024104
v 0.293423 0.416202 -0.024104
v 0.290927 0.404597 -0.024104
v 0.284902 0.399790 -0.024104
v 0.275726 0.399790 -0.024104
v 0.275726 0.422674 0.024104
v 0.284902 0.399790 0.024104
v 0.290927 0.404597 0.024104
v 0.293423 0.416202 0.024104
v 0.293423 0.422674 0.024104
v 0.275726 1.775005 -0.024104
v 0.293423 1.775005 -0.024104
v 0.293423 1.775005 0.008035
v 0.293423 1.775005 0.024104
v 0.293423 1.775005 0.024104
v 0.293423 0.416202 0.008035
v 0.293423 0.422674 0.008035
v 0.275726 1.790717 -0.024104
v 0.284902 1.790717 -0.024104
v 0.290927 1.786115 -0.024104
v 0.293423 1.775005 -0.024104
v 0.275726 1.775005 0.024104
v 0.290927 1.786115 0.024104
v 0.284902 1.790717 0.024104
v 0.275726 1.790717 0.024104
v 0.275726 1.790717 -0.008034
v 0.284902 1.790717 -0.008034
v 0.275726 1.790717 0.008035
v -0.008119 1.820524 -0.012633
v -0.008119 1.873299 -0.012633
v -0.013660 1.820524 -0.006238
v -0.013660 1.873299 -0.006238
v -0.014864 1.820524 0.002137
v -0.014864 1.873299 0.002137
v -0.011349 1.820524 0.009834
v -0.011349 1.873299 0.009834
v -0.004231 1.820524 0.014409
v -0.004231 1.873299 0.014409
v 0.004231 1.820524 0.014409
v 0.004231 1.873299 0.014409
v 0.011349 1.820524 0.009834
v 0.011349 1.873299 0.009834
v 0.014864 1.820524 0.002137
v 0.014864 1.873299 0.002137
v 0.013660 1.820524 -0.006238
v 0.013660 1.873299 -0.006238
v 0.008119 1.873299 -0.012633
v 0.008119 1.820524 -0.012633
v 0.017231 1.783797 0.017231
v 0.017231 1.783797 -0.017231
v 0.015856 1.833633 -0.015856
v 0.015856 1.833633 0.015856
v -0.017231 1.783797 -0.017231
v -0.015856 1.833633 -0.015856
v -0.017231 1.783797 0.017231
v -0.015856 1.833633 0.015856
v 0.293423 0.416202 -0.008035
v 0.290927 0.404597 -0.008035
v 0.284902 0.399790 -0.008035
v 0.290927 1.786115 -0.008034
v 0.293423 1.775005 -0.008034
v 0.284902 0.399790 0.008035
v 0.275726 0.399790 -0.008035
v 0.290927 1.786115 0.008035
v 0.284902 1.790717 0.008035
v 0.290927 0.404597 0.008035
v 0.293423 0.422674 -0.008035
v -0.277513 0.418817 -0.014517
v 0.277513 0.418817 -0.014517
v -0.277513 1.780220 -0.014517
v 0.277513 1.780220 -0.014517
v -0.277513 0.418817 0.010697
v 0.277513 0.418817 0.010697
v -0.277513 1.780220 0.010697
v 0.277513 1.780220 0.010697
vt 0.000000 0.000000
vt 1.000000 0.000000
vt 1.000000 1.000000
vt 0.000000 1.000000
vt 0.000000 0.000000
vt 0.000000 1.000000
vt 1.000000 1.000000
vt 1.000000 0.000000
vt 0.643531 0.948000
vt 0.643531 0.799068
vt 0.666666 0.799043
vt 0.666666 0.947975
vt 0.791777 0.000000
vt 0.791777 0.149457
vt 0.717045 0.149457
vt 0.717045 0.000000
vt 0.000000 0.149459
vt 0.074732 0.149459
vt 0.074732 0.160147
vt 0.000000 0.160147
vt 0.907461 0.890469
vt 0.907461 0.815899
vt 0.930597 0.815899
vt 0.930597 0.890469
vt 0.574125 0.799043
vt 0.597261 0.799043
vt 0.597261 0.971914
vt 0.574125 0.971914
vt 0.791777 0.160144
vt 0.717045 0.160144
vt 0.712940 0.873601
vt 0.712940 0.799043
vt 0.736076 0.799043
vt 0.736076 0.873601
vt 0.074732 0.000000
vt 0.000000 0.000000
vt 0.248007 0.160147
vt 0.248007 0.149459
vt 0.256261 0.149459
vt 0.261681 0.151704
vt 0.263926 0.157124
vt 0.263926 0.160147
vt 0.543770 0.160144
vt 0.543770 0.149457
vt 0.884324 0.815899
vt 0.861187 0.815899
vt 0.861187 0.642998
vt 0.884324 0.642998
vt 0.527851 0.160144
vt 0.527851 0.157122
vt 0.530096 0.151702
vt 0.535516 0.149457
vt 0.263926 0.791716
vt 0.248007 0.791716
vt 0.666666 0.799043
vt 0.666666 0.799043
vt 0.666666 0.799043
vt 0.838047 0.005236
vt 0.861182 0.005211
vt 0.861182 0.008223
vt 0.838047 0.008248
vt 0.263926 0.791716
vt 0.261681 0.796905
vt 0.256261 0.799054
vt 0.248007 0.799054
vt 0.884337 0.631588
vt 0.861210 0.631592
vt 0.861210 0.000011
vt 0.884337 0.000008
vt 0.543770 0.791706
vt 0.527851 0.791706
vt 0.861182 0.637565
vt 0.838047 0.637590
vt 0.543770 0.799043
vt 0.535516 0.799043
vt 0.530096 0.796894
vt 0.527851 0.791706
vt 0.953727 0.247428
vt 0.930590 0.247428
vt 0.930590 0.000000
vt 0.953727 0.000000
vt 0.814914 0.656784
vt 0.791777 0.656784
vt 0.791777 0.648548
vt 0.814914 0.648548
vt 0.201480 0.822181
vt 0.201480 0.799054
vt 0.208817 0.799055
vt 0.208817 0.822182
vt 0.000000 0.799054
vt 0.000000 0.791716
vt 0.791777 0.791706
vt 0.791777 0.799043
vt 0.838050 0.656784
vt 0.861187 0.656784
vt 0.861187 0.904254
vt 0.838050 0.904254
vt 0.216120 0.799054
vt 0.216120 0.823701
vt 0.208817 0.823729
vt 0.208817 0.799081
vt 0.154875 0.831474
vt 0.130227 0.831482
vt 0.130249 0.822131
vt 0.154897 0.822123
vt 0.130249 0.810045
vt 0.154897 0.810037
vt 0.130227 0.799062
vt 0.154875 0.799054
vt 0.237436 0.799116
vt 0.237436 0.823763
vt 0.231033 0.823701
vt 0.231033 0.799054
vt 0.223422 0.823701
vt 0.223422 0.799054
vt 0.105667 0.799214
vt 0.130227 0.799054
vt 0.129738 0.805724
vt 0.105178 0.805884
vt 0.129556 0.816846
vt 0.104996 0.817006
vt 0.129738 0.828889
vt 0.105178 0.829049
vt 0.074187 0.837522
vt 0.067236 0.841591
vt 0.059672 0.838822
vt 0.053896 0.830096
vt 0.051744 0.818182
vt 0.053896 0.806862
vt 0.059672 0.799732
vt 0.067236 0.799054
vt 0.074187 0.805044
vt 0.078319 0.815800
vt 0.078319 0.827907
vt 0.130227 0.838030
vt 0.105667 0.838190
vt 0.223422 0.799081
vt 0.223422 0.823729
vt 0.091657 0.799054
vt 0.098942 0.802486
vt 0.103915 0.811694
vt 0.104995 0.823752
vt 0.101841 0.834834
vt 0.095454 0.841421
vt 0.087860 0.841421
vt 0.081473 0.834834
vt 0.078319 0.823752
vt 0.079399 0.811694
vt 0.084372 0.802486
vt 0.790298 0.848659
vt 0.767002 0.846669
vt 0.767002 0.801014
vt 0.790298 0.799043
vt 0.178189 0.799054
vt 0.201479 0.800291
vt 0.201479 0.828815
vt 0.178189 0.830052
vt 0.051744 0.848652
vt 0.028461 0.846705
vt 0.028461 0.801066
vt 0.051744 0.799054
vt 0.154897 0.799054
vt 0.178189 0.800291
vt 0.178189 0.828815
vt 0.154897 0.830052
vt 0.736076 0.799043
vt 0.767002 0.799043
vt 0.767002 0.848662
vt 0.736076 0.848662
vt 0.000000 0.799054
vt 0.028462 0.799054
vt 0.028462 0.844713
vt 0.000000 0.844713
vt 0.814912 0.005260
vt 0.791777 0.005285
vt 0.791805 0.000074
vt 0.814940 0.000049
vt 0.550988 0.985709
vt 0.527851 0.985709
vt 0.527851 0.980148
vt 0.550988 0.980148
vt 0.791777 0.642998
vt 0.814914 0.642998
vt 0.791777 0.637639
vt 0.814912 0.637614
vt 0.597261 0.980148
vt 0.574125 0.980148
vt 0.527851 0.971914
vt 0.550988 0.971914
vt 0.861210 0.642925
vt 0.838075 0.642949
vt 0.861182 0.637565
vt 0.861187 0.648548
vt 0.838050 0.648548
vt 0.838050 0.642998
vt 0.861187 0.642998
vt 0.597261 0.985709
vt 0.574125 0.985709
vt 0.838075 0.000024
vt 0.861210 0.000000
vt 0.814914 0.904254
vt 0.791777 0.904254
vt 0.201480 0.868434
vt 0.201480 0.845307
vt 0.208817 0.845308
vt 0.208817 0.868435
vt 1.000000 0.247428
vt 0.976863 0.247428
vt 0.976863 0.000000
vt 1.000000 0.000000
vt 0.791777 0.008297
vt 0.814912 0.008272
vt 0.791777 0.637639
vt 0.930590 0.631580
vt 0.907463 0.631584
vt 0.907463 0.000004
vt 0.930590 0.000000
vt 0.666666 0.799043
vt 0.666666 0.799043
vt 0.666666 0.799043
vt 0.907461 0.642998
vt 0.930597 0.642998
vt 0.666666 0.873601
vt 0.666666 0.799043
vt 0.689803 0.799043
vt 0.689803 0.873601
vt 0.527851 0.799043
vt 0.550988 0.799043
vt 0.861187 0.890469
vt 0.884324 0.890469
vt 0.597261 0.948049
vt 0.597261 0.799117
vt 0.620396 0.799092
vt 0.620396 0.948024
vt 0.643531 0.948000
vt 0.666666 0.947975
vt 0.666666 0.799043
vt 0.643531 0.799068
vt 0.717045 0.000000
vt 0.717045 0.149457
vt 0.074732 0.160147
vt 0.074732 0.149459
vt 0.930597 0.815899
vt 0.907461 0.815899
vt 0.574125 0.799043
vt 0.574125 0.971914
vt 0.597261 0.971914
vt 0.597261 0.799043
vt 0.717045 0.160144
vt 0.712940 0.873601
vt 0.736076 0.873601
vt 0.074732 0.000000
vt 0.248007 0.160147
vt 0.263926 0.160147
vt 0.263926 0.157124
vt 0.261681 0.151704
vt 0.256261 0.149459
vt 0.248007 0.149459
vt 0.543770 0.149457
vt 0.543770 0.160144
vt 0.884324 0.815899
vt 0.884324 0.642998
vt 0.861187 0.642998
vt 0.861187 0.815899
vt 0.535516 0.149457
vt 0.530096 0.151702
vt 0.527851 0.157122
vt 0.527851 0.160144
vt 0.248007 0.791716
vt 0.263926 0.791716
vt 0.666666 0.799043
vt 0.666666 0.799043
vt 0.666666 0.799043
vt 0.838047 0.005236
vt 0.838047 0.008248
vt 0.861182 0.008223
vt 0.861182 0.005211
vt 0.248007 0.799054
vt 0.256261 0.799054
vt 0.261681 0.796905
vt 0.263926 0.791716
vt 0.884337 0.631588
vt 0.884337 0.000008
vt 0.861210 0.000011
vt 0.861210 0.631592
vt 0.527851 0.791706
vt 0.543770 0.791706
vt 0.838047 0.637590
vt 0.861182 0.637565
vt 0.527851 0.791706
vt 0.530096 0.796894
vt 0.535516 0.799043
vt 0.543770 0.799043
vt 0.953727 0.247428
vt 0.930590 0.247428
vt 0.814914 0.656784
vt 0.814914 0.648548
vt 0.791777 0.648548
vt 0.791777 0.656784
vt 0.838050 0.656784
vt 0.861187 0.656784
vt 0.208817 0.799081
vt 0.208817 0.823729
vt 0.154875 0.831474
vt 0.154897 0.822123
vt 0.130249 0.822131
vt 0.130227 0.831482
vt 0.154897 0.810037
vt 0.130249 0.810045
vt 0.154875 0.799054
vt 0.130227 0.799062
vt 0.237436 0.799116
vt 0.231033 0.799054
vt 0.231033 0.823701
vt 0.237436 0.823763
vt 0.223422 0.799054
vt 0.223422 0.823701
vt 0.105667 0.799214
vt 0.105178 0.805884
vt 0.129738 0.805724
vt 0.130227 0.799054
vt 0.104996 0.817006
vt 0.129556 0.816846
vt 0.105178 0.829049
vt 0.129738 0.828889
vt 0.074187 0.837522
vt 0.078319 0.827907
vt 0.078319 0.815800
vt 0.074187 0.805044
vt 0.067236 0.799054
vt 0.059672 0.799732
vt 0.053896 0.806862
vt 0.051744 0.818182
vt 0.053896 0.830096
vt 0.059672 0.838822
vt 0.105667 0.838190
vt 0.130227 0.838030
vt 0.223422 0.799081
vt 0.223422 0.823729
vt 0.084372 0.802486
vt 0.079399 0.811694
vt 0.078319 0.823752
vt 0.081473 0.834834
vt 0.087860 0.841421
vt 0.095454 0.841421
vt 0.101841 0.834834
vt 0.104995 0.823752
vt 0.103915 0.811694
vt 0.098942 0.802486
vt 0.790298 0.848659
vt 0.790298 0.799043
vt 0.767002 0.801014
vt 0.767002 0.846669
vt 0.178189 0.799054
vt 0.178189 0.830052
vt 0.201479 0.828815
vt 0.201479 0.800291
vt 0.051744 0.848652
vt 0.051744 0.799054
vt 0.028461 0.801066
vt 0.028461 0.846705
vt 0.154897 0.799054
vt 0.154897 0.830052
vt 0.178189 0.828815
vt 0.178189 0.800291
vt 0.736076 0.799043
vt 0.736076 0.848662
vt 0.767002 0.848662
vt 0.767002 0.799043
vt 0.000000 0.799054
vt 0.000000 0.844713
vt 0.028462 0.844713
vt 0.028462 0.799054
vt 0.814912 0.005260
vt 0.814940 0.000049
vt 0.791805 0.000074
vt 0.791777 0.005285
vt 0.550988 0.985709
vt 0.550988 0.980148
vt 0.527851 0.980148
vt 0.527851 0.985709
vt 0.814914 0.642998
vt 0.791777 0.642998
vt 0.814912 0.637614
vt 0.791777 0.637639
vt 0.574125 0.980148
vt 0.597261 0.980148
vt 0.527851 0.971914
vt 0.550988 0.971914
vt 0.861210 0.642925
vt 0.861182 0.637565
vt 0.838075 0.642949
vt 0.861187 0.648548
vt 0.861187 0.642998
vt 0.838050 0.642998
vt 0.838050 0.648548
vt 0.597261 0.985709
vt 0.574125 0.985709
vt 0.861210 0.000000
vt 0.838075 0.000024
vt 1.000000 0.247428
vt 0.976863 0.247428
vt 0.791777 0.008297
vt 0.791777 0.637639
vt 0.814912 0.008272
vt 0.930590 0.631580
vt 0.930590 0.000000
vt 0.907463 0.000004
vt 0.907463 0.631584
vt 0.666666 0.799043
vt 0.666666 0.799043
vt 0.666666 0.799043
vt 0.930597 0.642998
vt 0.907461 0.642998
vt 0.666666 0.873601
vt 0.689803 0.873601
vt 0.527851 0.799043
vt 0.550988 0.799043
vt 0.597261 0.948049
vt 0.620396 0.948024
vt 0.620396 0.799092
vt 0.597261 0.799117
vn 0.0000 -0.0000 1.0000
vn 0.0000 0.0000 -1.0000
vn -0.7071 -0.7071 -0.0000
vn -0.3015 -0.3015 -0.9045
vn -0.5774 -0.5774 -0.5774
vn 0.0000 -0.7071 0.7071
vn -0.3015 -0.3015 0.9045
vn -0.5774 -0.5774 0.5774
vn 0.0000 0.7071 -0.7071
vn 0.0000 1.0000 0.0000
vn 0.0000 0.7071 0.7071
vn 0.0000 -1.0000 0.0000
vn 0.0000 -0.7071 -0.7071
vn 0.3015 0.3015 -0.9045
vn -0.2919 -0.8340 -0.4681
vn -0.7509 -0.4651 -0.4689
vn -0.8884 -0.0944 -0.4492
vn -0.7071 0.0000 -0.7071
vn 0.3015 0.3015 0.9045
vn 0.7071 0.7071 0.0000
vn -0.7071 -0.0000 0.7071
vn -0.8884 -0.0945 0.4492
vn -0.7508 -0.4651 0.4689
vn -0.2920 -0.8340 0.4681
vn -0.6621 0.0000 -0.7495
vn 0.3015 -0.3015 -0.9045
vn -0.9893 0.1098 0.0958
vn -0.3162 -0.0000 0.9487
vn -0.9388 0.2109 0.2723
vn -0.9944 -0.1057 0.0000
vn -1.0000 -0.0000 0.0000
vn -0.9757 0.2192 0.0000
vn -0.7432 0.4764 -0.4697
vn -0.2832 0.8378 -0.4667
vn 0.7071 -0.7071 0.0000
vn 0.3015 -0.3015 0.9045
vn -0.2833 0.8377 0.4668
vn -0.7434 0.4762 0.4697
vn -0.3204 0.9473 0.0000
vn 1.0000 0.0000 0.0000
vn 0.0000 -0.4621 -0.8868
vn 0.0000 0.4621 -0.8868
vn 0.4794 0.4622 -0.7460
vn 0.4794 -0.4622 -0.7460
vn 0.8067 0.4621 -0.3684
vn 0.8067 -0.4621 -0.3684
vn 0.8778 0.4621 0.1262
vn 0.8778 -0.4621 0.1262
vn 0.6702 0.4621 0.5807
vn 0.6702 -0.4621 0.5807
vn 0.2499 0.4621 0.8509
vn 0.2499 -0.4621 0.8509
vn -0.2499 0.4621 0.8509
vn -0.2499 -0.4621 0.8509
vn -0.6702 0.4621 0.5807
vn -0.6702 -0.4621 0.5807
vn -0.8778 0.4621 0.1262
vn -0.8778 -0.4621 0.1262
vn -0.8067 0.4621 -0.3684
vn -0.8067 -0.4621 -0.3684
vn -0.4794 0.4622 -0.7460
vn -0.4794 -0.4622 -0.7460
vn -0.5879 -0.5556 0.5879
vn -0.5667 0.5982 0.5667
vn -0.5667 0.5982 -0.5667
vn -0.5879 -0.5556 -0.5879
vn 0.5667 0.5982 -0.5667
vn 0.5879 -0.5556 -0.5879
vn 0.5667 0.5982 0.5667
vn 0.5879 -0.5556 0.5879
vn -0.8501 -0.5266 0.0000
vn -0.3304 -0.9438 0.0000
vn -0.8420 0.5394 0.0000
vn -0.9832 0.1091 -0.1467
vn 0.5774 -0.5774 -0.5774
vn 0.5774 -0.5774 0.5774
vn -0.3015 0.3015 -0.9045
vn 0.7071 -0.0000 -0.7071
vn 0.8884 -0.0945 -0.4492
vn 0.7508 -0.4651 -0.4689
vn 0.2920 -0.8340 -0.4681
vn -0.3015 0.3015 0.9045
vn -0.7071 0.7071 0.0000
vn 0.2919 -0.8340 0.4681
vn 0.7509 -0.4651 0.4689
vn 0.8884 -0.0944 0.4492
vn 0.7071 0.0000 0.7071
vn 0.9893 0.1098 0.0958
vn 0.4363 0.0980 0.8944
vn 0.9899 -0.0000 0.1414
vn 0.9944 -0.1057 0.0000
vn 0.2832 0.8378 -0.4667
vn 0.7433 0.4764 -0.4697
vn 0.9757 0.2192 0.0000
vn 0.7434 0.4762 0.4697
vn 0.2833 0.8378 0.4668
vn 0.3204 0.9473 0.0000
vn 0.8501 -0.5266 0.0000
vn 0.3304 -0.9438 0.0000
vn 0.8420 0.5394 0.0000
vn 0.9832 0.1091 -0.1467
usemtl Material.001
s off
f 209/19/11 210/20/11 212/21/11 211/22/11
f 205/23/12 207/24/12 208/25/12 206/26/12
usemtl Material.002
s 1
f 29/27/13 30/28/13 31/29/14 32/30/15
f 33/31/16 34/32/11 35/33/17 36/34/18
f 37/35/12 31/36/14 38/37/19 39/38/19
f 15/39/20 14/40/20 40/41/21 41/42/21
f 42/43/13 35/44/17 43/45/16 44/46/22
f 35/33/17 34/32/11 41/47/21 40/48/21
f 45/49/13 46/50/22 33/51/16 36/52/18
f 32/53/15 31/36/14 37/35/12 47/54/23
f 48/55/24 49/56/23 50/57/25 51/58/26 52/59/27 53/60/28
f 35/33/17 40/48/21 54/61/29 43/62/16
f 38/37/19 31/36/14 49/56/23 48/55/24
f 22/63/20 38/64/19 48/65/24 18/66/30
f 43/62/16 54/61/29 55/67/31 56/68/32 57/69/33 58/70/34
f 48/55/24 53/60/28 59/71/35 60/72/36
f 61/73/37 62/74/38 63/75/39
f 64/76/40 56/77/32 55/78/31 65/79/41
f 60/72/36 59/71/35 66/80/42 67/81/43 68/82/44 69/83/19
f 18/84/30 48/85/24 60/86/36 19/87/45
f 55/67/31 54/61/29 70/88/46 62/89/38
f 65/79/41 55/78/31 62/90/38 61/91/37
f 62/89/38 70/88/46 71/92/21 72/93/47 73/94/48 63/95/39
f 19/96/45 60/97/36 74/98/23 20/99/22
f 75/100/20 69/101/19 68/102/44 76/103/49
f 20/104/50 74/105/50 77/106/50 78/107/50
f 60/72/36 69/83/19 77/108/19 74/109/23
f 71/92/21 70/88/46 79/110/16 80/111/21
f 81/112/20 71/113/21 80/114/21 82/115/20
f 83/116/51 84/117/52 85/118/53 86/119/54
f 86/120/54 85/121/53 87/122/55 88/123/56
f 88/123/56 87/122/55 89/124/57 90/125/58
f 90/125/58 89/124/57 91/126/59 92/127/60
f 92/128/60 91/129/59 93/130/61 94/131/62
f 94/131/62 93/130/61 95/132/63 96/133/64
f 96/134/64 95/135/63 97/136/65 98/137/66
f 98/137/66 97/136/65 99/138/67 100/139/68
f 100/139/68 99/138/67 101/140/69 102/141/70
f 85/142/53 84/143/52 103/144/71 101/145/69 99/146/67 97/147/65 95/148/63 93/149/61 91/150/59 89/151/57 87/152/55
f 102/141/70 101/140/69 103/153/71 104/154/72
f 104/155/72 103/156/71 84/117/52 83/116/51
f 83/157/51 86/158/54 88/159/56 90/160/58 92/161/60 94/162/62 96/163/64 98/164/66 100/165/68 102/166/70 104/167/72
f 105/168/73 106/169/74 107/170/75 108/171/76
f 108/172/76 107/173/75 109/174/77 110/175/78
f 110/176/78 109/177/77 111/178/79 112/179/80
f 112/180/80 111/181/79 106/182/74 105/183/73
f 108/184/76 110/185/78 112/186/80 105/187/73
f 109/188/77 107/189/75 106/190/74 111/191/79
f 113/192/40 52/193/27 51/194/26 114/195/81
f 114/196/81 51/197/26 50/198/25 115/199/82
f 76/103/49 68/102/44 67/200/43 116/201/83
f 116/201/83 67/200/43 66/202/42 117/203/84
f 44/46/22 43/45/16 58/204/34 118/205/82
f 49/206/23 119/207/22 115/199/82 50/198/25
f 119/207/22 44/46/22 118/205/82 115/199/82
f 73/208/48 120/209/83 61/91/37 63/210/39
f 120/209/83 116/201/83 117/203/84 61/91/37
f 72/211/47 121/212/49 120/213/83 73/214/48
f 121/212/49 76/103/49 116/201/83 120/213/83
f 57/215/33 122/216/81 118/205/82 58/204/34
f 122/216/81 114/196/81 115/199/82 118/205/82
f 56/77/32 64/76/40 122/217/81 57/218/33
f 64/76/40 113/192/40 114/195/81 122/217/81
f 69/101/19 75/100/20 78/219/20 77/220/19
f 75/100/20 81/112/20 82/115/20 78/219/20
f 79/221/50 16/222/50 82/223/50 80/224/50
f 16/222/50 20/104/50 78/107/50 82/223/50
f 71/113/21 81/112/20 121/212/49 72/211/47
f 81/112/20 75/100/20 76/103/49 121/212/49
f 70/225/46 17/226/45 16/227/22 79/228/16
f 17/226/45 19/96/45 20/99/22 16/227/22
f 53/229/28 123/230/41 117/203/84 59/231/35
f 123/230/41 65/79/41 61/91/37 117/203/84
f 54/232/29 13/233/30 17/234/45 70/235/46
f 13/233/30 18/84/30 19/87/45 17/234/45
f 52/193/27 113/192/40 123/230/41 53/229/28
f 113/192/40 64/76/40 65/79/41 123/230/41
f 59/236/35 117/237/84 66/238/42
f 40/41/21 14/40/20 13/239/30 54/240/29
f 14/40/20 22/63/20 18/66/30 13/239/30
f 32/241/15 47/242/23 124/243/22 29/244/13
f 29/244/13 124/243/22 46/50/22 45/49/13
f 31/245/14 30/246/13 119/207/22 49/206/23
f 30/246/13 42/43/13 44/46/22 119/207/22
f 39/247/19 38/64/19 22/63/20 21/248/20
f 21/248/20 22/63/20 14/40/20 15/39/20
f 36/249/18 35/250/17 42/251/13 45/252/13
f 45/252/13 42/251/13 30/28/13 29/27/13
f 125/253/45 126/254/85 127/255/36 128/256/45
f 33/31/16 129/257/86 130/258/46 34/32/11
f 37/35/12 39/38/19 131/259/19 127/260/36
f 15/39/20 41/42/21 132/261/21 25/262/20
f 133/263/45 134/264/22 135/265/16 130/266/46
f 130/258/46 132/267/21 41/47/21 34/32/11
f 136/268/45 129/269/86 33/51/16 46/50/22
f 126/270/85 47/54/23 37/35/12 127/260/36
f 137/271/87 138/272/88 139/273/89 140/274/90 141/275/91 142/276/23
f 130/258/46 135/277/16 143/278/92 132/267/21
f 131/259/19 137/271/87 142/276/23 127/260/36
f 27/279/20 26/280/93 137/281/87 131/282/19
f 135/277/16 144/283/94 145/284/95 146/285/96 147/286/97 143/278/92
f 137/271/87 148/287/14 149/288/88 138/272/88
f 150/289/98 151/290/99 152/291/100
f 153/292/101 154/293/50 147/294/97 146/295/96
f 148/287/14 155/296/19 156/297/102 157/298/103 158/299/104 149/288/88
f 26/300/93 28/301/13 148/302/14 137/303/87
f 147/286/97 152/304/100 159/305/17 143/278/92
f 154/293/50 150/306/98 152/307/100 147/294/97
f 152/304/100 151/308/99 160/309/105 161/310/106 162/311/21 159/305/17
f 28/312/13 20/99/22 74/98/23 148/313/14
f 163/314/20 164/315/107 156/316/102 155/317/19
f 148/287/14 74/109/23 77/108/19 155/296/19
f 162/311/21 80/111/21 79/110/16 159/305/17
f 165/318/20 82/115/20 80/114/21 162/319/21
f 83/116/51 166/320/72 167/321/71 84/117/52
f 166/322/72 168/323/70 169/324/69 167/325/71
f 168/323/70 170/326/68 171/327/67 169/324/69
f 170/326/68 172/328/66 173/329/65 171/327/67
f 172/330/66 174/331/64 175/332/63 173/333/65
f 174/331/64 176/334/62 177/335/61 175/332/63
f 176/336/62 178/337/60 179/338/59 177/339/61
f 178/337/60 180/340/58 181/341/57 179/338/59
f 180/340/58 182/342/56 183/343/55 181/341/57
f 167/344/71 169/345/69 171/346/67 173/347/65 175/348/63 177/349/61 179/350/59 181/351/57 183/352/55 184/353/53 84/143/52
f 182/342/56 185/354/54 184/355/53 183/343/55
f 185/356/54 83/116/51 84/117/52 184/357/53
f 83/157/51 185/358/54 182/359/56 180/360/58 178/361/60 176/362/62 174/363/64 172/364/66 170/365/68 168/366/70 166/367/72
f 186/368/80 187/369/78 188/370/77 189/371/79
f 187/372/78 190/373/76 191/374/75 188/375/77
f 190/376/76 192/377/73 193/378/74 191/379/75
f 192/380/73 186/381/80 189/382/79 193/383/74
f 187/384/78 186/385/80 192/386/73 190/387/76
f 191/388/75 193/389/74 189/390/79 188/391/77
f 194/392/101 195/393/108 140/394/90 139/395/89
f 195/396/108 196/397/109 141/398/91 140/399/90
f 164/315/107 197/400/110 157/401/103 156/316/102
f 197/400/110 198/402/111 158/403/104 157/401/103
f 134/264/22 199/404/109 144/405/94 135/265/16
f 142/406/23 141/398/91 196/397/109 200/407/22
f 200/407/22 196/397/109 199/404/109 134/264/22
f 160/408/105 151/409/99 150/306/98 201/410/110
f 201/410/110 150/306/98 198/402/111 197/400/110
f 161/411/106 160/412/105 201/413/110 202/414/107
f 202/414/107 201/413/110 197/400/110 164/315/107
f 145/415/95 144/405/94 199/404/109 203/416/108
f 203/416/108 199/404/109 196/397/109 195/396/108
f 146/295/96 145/417/95 203/418/108 153/292/101
f 153/292/101 203/418/108 195/393/108 194/392/101
f 155/317/19 77/220/19 78/219/20 163/314/20
f 163/314/20 78/219/20 82/115/20 165/318/20
f 162/319/21 161/411/106 202/414/107 165/318/20
f 165/318/20 202/414/107 164/315/107 163/314/20
f 159/419/17 79/228/16 16/227/22 24/420/13
f 24/420/13 16/227/22 20/99/22 28/312/13
f 138/421/88 149/422/88 198/402/111 204/423/50
f 204/423/50 198/402/111 150/306/98 154/293/50
f 143/424/92 159/425/17 24/426/13 23/427/93
f 23/427/93 24/426/13 28/301/13 26/300/93
f 139/395/89 138/421/88 204/423/50 194/392/101
f 194/392/101 204/423/50 154/293/50 153/292/101
f 149/428/88 158/429/104 198/430/111
f 132/261/21 143/431/92 23/432/93 25/262/20
f 25/262/20 23/432/93 26/280/93 27/279/20
f 126/433/85 125/434/45 124/243/22 47/242/23
f 125/434/45 136/268/45 46/50/22 124/243/22
f 127/435/36 142/406/23 200/407/22 128/436/45
f 128/436/45 200/407/22 134/264/22 133/263/45
f 39/247/19 21/248/20 27/279/20 131/282/19
f 21/248/20 15/39/20 25/262/20 27/279/20
f 129/437/86 136/438/45 133/439/45 130/440/46
f 136/438/45 125/253/45 128/256/45 133/439/45
