# Blender v3.6.3 OBJ File: ''
# www.blender.org
mtllib lightcontroller.mtl
o base
v -0.716354 -1.311304 -0.869144
v -0.676873 -0.960031 -0.869145
v -0.676873 -0.960031 -1.448574
v -0.716354 -1.311304 -1.448574
v 0.000000 -1.311304 -1.448574
v -0.039482 -1.199104 -1.448574
v 0.716354 -1.235435 -1.448574
v 0.716354 -1.311304 -1.448574
v 0.098866 -1.231514 -1.230693
v 0.100994 -1.200693 -1.230693
v 0.100994 -1.200693 -1.268955
v 0.098866 -1.231514 -1.268955
v 0.143145 -1.202249 -1.268955
v 0.141017 -1.233070 -1.268955
v 0.143145 -1.202249 -1.230693
v 0.141017 -1.233070 -1.230693
v 0.149643 -1.233540 -1.230693
v 0.151772 -1.202718 -1.230693
v 0.151772 -1.202718 -1.268955
v 0.149643 -1.233540 -1.268955
v 0.193923 -1.204274 -1.268955
v 0.191794 -1.235096 -1.268955
v 0.193923 -1.204274 -1.230693
v 0.191794 -1.235096 -1.230693
v 0.200421 -1.235565 -1.230693
v 0.202549 -1.204743 -1.230693
v 0.202549 -1.204743 -1.268955
v 0.200421 -1.235565 -1.268955
v 0.244700 -1.206299 -1.268955
v 0.242572 -1.237121 -1.268955
v 0.244700 -1.206299 -1.230693
v 0.242572 -1.237121 -1.230693
v 0.251198 -1.237590 -1.230693
v 0.253327 -1.206769 -1.230693
v 0.253327 -1.206769 -1.268955
v 0.251198 -1.237590 -1.268955
v 0.295478 -1.208325 -1.268955
v 0.293349 -1.239146 -1.268955
v 0.295478 -1.208325 -1.230693
v 0.293349 -1.239146 -1.230693
v 0.301976 -1.239615 -1.230693
v 0.304104 -1.208794 -1.230693
v 0.304104 -1.208794 -1.268955
v 0.301976 -1.239615 -1.268955
v 0.346255 -1.210350 -1.268955
v 0.344127 -1.241171 -1.268955
v 0.346255 -1.210350 -1.230693
v 0.344127 -1.241171 -1.230693
v 0.352753 -1.241641 -1.230693
v 0.354882 -1.210819 -1.230693
v 0.354882 -1.210819 -1.268955
v 0.352753 -1.241641 -1.268955
v 0.397032 -1.212375 -1.268955
v 0.394904 -1.243197 -1.268955
v 0.397032 -1.212375 -1.230693
v 0.394904 -1.243197 -1.230693
v 0.403531 -1.243666 -1.230693
v 0.405659 -1.212844 -1.230693
v 0.405659 -1.212844 -1.268955
v 0.403531 -1.243666 -1.268955
v 0.447810 -1.214400 -1.268955
v 0.445682 -1.245222 -1.268955
v 0.447810 -1.214400 -1.230693
v 0.445682 -1.245222 -1.230693
v 0.454308 -1.245691 -1.230693
v 0.456436 -1.214869 -1.230693
v 0.456436 -1.214869 -1.268955
v 0.454308 -1.245691 -1.268955
v 0.498587 -1.216426 -1.268955
v 0.496459 -1.247247 -1.268955
v 0.498587 -1.216426 -1.230693
v 0.496459 -1.247247 -1.230693
v 0.505086 -1.247716 -1.230693
v 0.507214 -1.216895 -1.230693
v 0.507214 -1.216895 -1.268955
v 0.505086 -1.247716 -1.268955
v 0.549365 -1.218451 -1.268955
v 0.547237 -1.249273 -1.268955
v 0.549365 -1.218451 -1.230693
v 0.547237 -1.249273 -1.230693
v 0.098866 -1.231514 -1.146480
v 0.100994 -1.200693 -1.146480
v 0.100994 -1.200693 -1.184741
v 0.098866 -1.231514 -1.184741
v 0.143145 -1.202249 -1.184741
v 0.141017 -1.233070 -1.184741
v 0.143145 -1.202249 -1.146480
v 0.141017 -1.233070 -1.146480
v 0.149643 -1.233540 -1.146480
v 0.151772 -1.202718 -1.146480
v 0.151772 -1.202718 -1.184741
v 0.149643 -1.233540 -1.184741
v 0.193923 -1.204274 -1.184741
v 0.191794 -1.235096 -1.184741
v 0.193923 -1.204274 -1.146480
v 0.191794 -1.235096 -1.146480
v 0.200421 -1.235565 -1.146480
v 0.202549 -1.204743 -1.146480
v 0.202549 -1.204743 -1.184741
v 0.200421 -1.235565 -1.184741
v 0.244700 -1.206299 -1.184741
v 0.242572 -1.237121 -1.184741
v 0.244700 -1.206299 -1.146480
v 0.242572 -1.237121 -1.146480
v 0.251198 -1.237590 -1.146480
v 0.253327 -1.206769 -1.146480
v 0.253327 -1.206769 -1.184741
v 0.251198 -1.237590 -1.184741
v 0.295478 -1.208325 -1.184741
v 0.293349 -1.239146 -1.184741
v 0.295478 -1.208325 -1.146480
v 0.293349 -1.239146 -1.146480
v 0.301976 -1.239615 -1.146480
v 0.304104 -1.208794 -1.146480
v 0.304104 -1.208794 -1.184741
v 0.301976 -1.239615 -1.184741
v 0.346255 -1.210350 -1.184741
v 0.344127 -1.241171 -1.184741
v 0.346255 -1.210350 -1.146480
v 0.344127 -1.241171 -1.146480
v 0.352753 -1.241641 -1.146480
v 0.354882 -1.210819 -1.146480
v 0.354882 -1.210819 -1.184741
v 0.352753 -1.241641 -1.184741
v 0.397032 -1.212375 -1.184741
v 0.394904 -1.243197 -1.184741
v 0.397032 -1.212375 -1.146480
v 0.394904 -1.243197 -1.146480
v 0.403531 -1.243666 -1.146480
v 0.405659 -1.212844 -1.146480
v 0.405659 -1.212844 -1.184741
v 0.403531 -1.243666 -1.184741
v 0.447810 -1.214400 -1.184741
v 0.445682 -1.245222 -1.184741
v 0.447810 -1.214400 -1.146480
v 0.445682 -1.245222 -1.146480
v 0.454308 -1.245691 -1.146480
v 0.456436 -1.214869 -1.146480
v 0.456436 -1.214869 -1.184741
v 0.454308 -1.245691 -1.184741
v 0.498587 -1.216426 -1.184741
v 0.496459 -1.247247 -1.184741
v 0.498587 -1.216426 -1.146480
v 0.496459 -1.247247 -1.146480
v 0.505086 -1.247716 -1.146480
v 0.507214 -1.216895 -1.146480
v 0.507214 -1.216895 -1.184741
v 0.505086 -1.247716 -1.184741
v 0.549365 -1.218451 -1.184741
v 0.547237 -1.249273 -1.184741
v 0.549365 -1.218451 -1.146480
v 0.547237 -1.249273 -1.146480
v 0.098866 -1.231514 -1.062266
v 0.100994 -1.200693 -1.062266
v 0.100994 -1.200693 -1.100528
v 0.098866 -1.231514 -1.100528
v 0.143145 -1.202249 -1.100528
v 0.141017 -1.233070 -1.100528
v 0.143145 -1.202249 -1.062266
v 0.141017 -1.233070 -1.062266
v 0.149643 -1.233540 -1.062266
v 0.151772 -1.202718 -1.062266
v 0.151772 -1.202718 -1.100528
v 0.149643 -1.233540 -1.100528
v 0.193923 -1.204274 -1.100528
v 0.191794 -1.235096 -1.100528
v 0.193923 -1.204274 -1.062266
v 0.191794 -1.235096 -1.062266
v 0.200421 -1.235565 -1.062266
v 0.202549 -1.204743 -1.062266
v 0.202549 -1.204743 -1.100528
v 0.200421 -1.235565 -1.100528
v 0.244700 -1.206299 -1.100528
v 0.242572 -1.237121 -1.100528
v 0.244700 -1.206299 -1.062266
v 0.242572 -1.237121 -1.062266
v 0.251198 -1.237590 -1.062266
v 0.253327 -1.206769 -1.062266
v 0.253327 -1.206769 -1.100528
v 0.251198 -1.237590 -1.100528
v 0.295478 -1.208325 -1.100528
v 0.293349 -1.239146 -1.100528
v 0.295478 -1.208325 -1.062266
v 0.293349 -1.239146 -1.062266
v 0.301976 -1.239615 -1.062266
v 0.304104 -1.208794 -1.062266
v 0.304104 -1.208794 -1.100528
v 0.301976 -1.239615 -1.100528
v 0.346255 -1.210350 -1.100528
v 0.344127 -1.241171 -1.100528
v 0.346255 -1.210350 -1.062266
v 0.344127 -1.241171 -1.062266
v 0.352753 -1.241641 -1.062266
v 0.354882 -1.210819 -1.062266
v 0.354882 -1.210819 -1.100528
v 0.352753 -1.241641 -1.100528
v 0.397032 -1.212375 -1.100528
v 0.394904 -1.243197 -1.100528
v 0.397032 -1.212375 -1.062266
v 0.394904 -1.243197 -1.062266
v 0.403531 -1.243666 -1.062266
v 0.405659 -1.212844 -1.062266
v 0.405659 -1.212844 -1.100528
v 0.403531 -1.243666 -1.100528
v 0.447810 -1.214400 -1.100528
v 0.445682 -1.245222 -1.100528
v 0.447810 -1.214400 -1.062266
v 0.445682 -1.245222 -1.062266
v 0.454308 -1.245691 -1.062266
v 0.456436 -1.214869 -1.062266
v 0.456436 -1.214869 -1.100528
v 0.454308 -1.245691 -1.100528
v 0.498587 -1.216426 -1.100528
v 0.496459 -1.247247 -1.100528
v 0.498587 -1.216426 -1.062266
v 0.496459 -1.247247 -1.062266
v 0.505086 -1.247716 -1.062266
v 0.507214 -1.216895 -1.062266
v 0.507214 -1.216895 -1.100528
v 0.505086 -1.247716 -1.100528
v 0.549365 -1.218451 -1.100528
v 0.547237 -1.249273 -1.100528
v 0.549365 -1.218451 -1.062266
v 0.547237 -1.249273 -1.062266
v 0.134159 -1.234691 0.016236
v 0.138557 -1.207783 0.016236
v 0.138557 -1.207783 -0.016236
v 0.134159 -1.234691 -0.016236
v 0.649335 -1.220822 -0.016236
v 0.644937 -1.247729 -0.016236
v 0.649335 -1.220822 0.016236
v 0.644937 -1.247729 0.016236
v 0.134159 -1.234691 0.091813
v 0.138557 -1.207783 0.091813
v 0.138557 -1.207783 0.059340
v 0.134159 -1.234691 0.059340
v 0.649335 -1.220822 0.059340
v 0.644937 -1.247729 0.059340
v 0.649335 -1.220822 0.091813
v 0.644937 -1.247729 0.091813
v 0.134159 -1.234690 0.167390
v 0.138557 -1.207783 0.167390
v 0.138557 -1.207783 0.134916
v 0.134159 -1.234690 0.134916
v 0.649335 -1.220822 0.134916
v 0.644937 -1.247729 0.134916
v 0.649335 -1.220822 0.167390
v 0.644937 -1.247729 0.167390
v 0.134159 -1.234690 0.242966
v 0.138557 -1.207783 0.242966
v 0.138557 -1.207783 0.210493
v 0.134159 -1.234690 0.210493
v 0.649335 -1.220822 0.210493
v 0.644937 -1.247729 0.210493
v 0.649335 -1.220822 0.242966
v 0.644937 -1.247729 0.242966
v 0.134159 -1.234690 0.318543
v 0.138557 -1.207783 0.318543
v 0.138557 -1.207783 0.286069
v 0.134159 -1.234690 0.286069
v 0.649335 -1.220822 0.286069
v 0.644937 -1.247729 0.286069
v 0.649335 -1.220822 0.318543
v 0.644937 -1.247729 0.318543
v 0.134159 -1.234690 0.394119
v 0.138557 -1.207783 0.394119
v 0.138557 -1.207783 0.361646
v 0.134159 -1.234690 0.361646
v 0.649335 -1.220822 0.361646
v 0.644937 -1.247729 0.361646
v 0.649335 -1.220822 0.394119
v 0.644937 -1.247729 0.394119
v 0.134159 -1.234690 0.469696
v 0.138557 -1.207783 0.469696
v 0.138557 -1.207783 0.437223
v 0.134159 -1.234690 0.437223
v 0.649335 -1.220822 0.437223
v 0.644937 -1.247729 0.437223
v 0.649335 -1.220822 0.469696
v 0.644937 -1.247729 0.469696
v 0.134159 -1.234690 0.545272
v 0.138557 -1.207783 0.545272
v 0.138557 -1.207783 0.512799
v 0.134159 -1.234690 0.512799
v 0.649335 -1.220822 0.512799
v 0.644937 -1.247729 0.512799
v 0.649335 -1.220822 0.545272
v 0.644937 -1.247729 0.545272
v 0.134159 -1.234690 0.620849
v 0.138557 -1.207783 0.620849
v 0.138557 -1.207783 0.588376
v 0.134159 -1.234690 0.588376
v 0.649335 -1.220822 0.588376
v 0.644937 -1.247729 0.588376
v 0.649335 -1.220822 0.620849
v 0.644937 -1.247729 0.620849
v 0.000000 -1.311304 -0.869144
v 0.000000 -1.311304 -0.289715
v -0.716354 -1.311304 -0.289715
v 0.000000 -1.311304 0.289715
v -0.716354 -1.311304 0.289715
v 0.000000 -1.311304 0.869144
v -0.716354 -1.311304 0.869144
v -0.039482 -1.199104 -0.869144
v 0.716354 -1.235435 -0.869144
v 0.016831 -1.201811 -0.336933
v 0.660042 -1.232728 -0.336933
v 0.642021 -1.247245 -0.336933
v -0.001190 -1.216328 -0.336933
v 0.716354 -1.235435 -0.289715
v -0.039482 -1.199104 -0.289715
v -0.039482 -1.199104 0.289715
v 0.716354 -1.235435 0.289715
v -0.039482 -1.199104 0.869145
v 0.716354 -1.235435 0.869144
v -0.071191 -1.187210 -0.247078
v -0.645163 -0.971925 -0.247078
v -0.656969 -0.973144 -0.247078
v -0.082998 -1.188429 -0.247078
v -0.646140 -0.971559 -0.319083
v -0.070214 -1.187577 -0.319083
v -0.082020 -1.188795 -0.319083
v -0.657946 -0.972777 -0.319083
v 0.716354 -1.311304 -0.869144
v 0.716354 -1.311304 -0.289715
v 0.716354 -1.311304 0.289715
v 0.716354 -1.311304 0.869144
v -0.676873 -0.960031 0.869144
v -0.676873 -0.960031 0.289715
v -0.676873 -0.960031 -0.289715
v -0.070214 -1.187577 -0.869144
v -0.082020 -1.188795 -0.869144
v -0.645163 -0.971925 0.247078
v -0.071191 -1.187210 0.247078
v -0.645163 -0.971925 0.332352
v -0.071191 -1.187210 0.332352
v -0.645163 -0.971925 0.826507
v -0.071191 -1.187210 0.826507
v -0.697437 -1.258860 -0.677855
v -0.737121 -1.258862 -0.677855
v -0.737120 -1.268888 -0.660748
v -0.697436 -1.268886 -0.660748
v -0.737119 -1.285109 -0.667284
v -0.697434 -1.285107 -0.667284
v -0.737119 -1.285108 -0.688431
v -0.697434 -1.285106 -0.688431
v -0.737120 -1.268886 -0.694964
v -0.697436 -1.268884 -0.694964
v -0.697437 -1.258860 -0.642801
v -0.737121 -1.258862 -0.642801
v -0.737120 -1.268888 -0.625694
v -0.697436 -1.268886 -0.625694
v -0.737119 -1.285109 -0.632230
v -0.697434 -1.285107 -0.632230
v -0.737119 -1.285108 -0.653377
v -0.697434 -1.285106 -0.653377
v -0.737120 -1.268886 -0.659910
v -0.697436 -1.268884 -0.659910
v -0.697437 -1.258860 -0.607747
v -0.737121 -1.258862 -0.607747
v -0.737120 -1.268888 -0.590639
v -0.697436 -1.268886 -0.590640
v -0.737119 -1.285109 -0.597176
v -0.697434 -1.285107 -0.597176
v -0.737119 -1.285108 -0.618322
v -0.697434 -1.285106 -0.618322
v -0.737120 -1.268886 -0.624856
v -0.697436 -1.268884 -0.624856
v -0.697437 -1.258860 -0.572693
v -0.737121 -1.258862 -0.572693
v -0.737120 -1.268888 -0.555585
v -0.697436 -1.268886 -0.555585
v -0.737119 -1.285109 -0.562121
v -0.697434 -1.285107 -0.562121
v -0.737119 -1.285108 -0.583268
v -0.697434 -1.285106 -0.583268
v -0.737120 -1.268886 -0.589801
v -0.697436 -1.268884 -0.589801
v -0.697437 -1.258860 -0.537638
v -0.737121 -1.258862 -0.537638
v -0.737120 -1.268888 -0.520531
v -0.697436 -1.268886 -0.520531
v -0.737119 -1.285109 -0.527067
v -0.697434 -1.285107 -0.527067
v -0.737119 -1.285108 -0.548214
v -0.697434 -1.285106 -0.548214
v -0.737120 -1.268886 -0.554747
v -0.697436 -1.268884 -0.554747
v -0.646140 -0.971559 -0.869145
v -0.646140 -0.971559 -1.419207
v -0.070214 -1.187577 -1.419207
v -0.656969 -0.973144 0.247078
v -0.082998 -1.188429 0.247078
v -0.082998 -1.188429 0.332352
v -0.656969 -0.973144 0.332352
v -0.656969 -0.973144 0.826507
v -0.082998 -1.188429 0.826507
v -0.657946 -0.972777 -0.869145
v -0.082020 -1.188796 -1.419207
v -0.657946 -0.972778 -1.419207
v 0.660042 -1.232728 -0.821926
v 0.016831 -1.201811 -0.821926
v 0.642021 -1.247245 -0.821926
v -0.001190 -1.216328 -0.821926
vt 0.522809 0.743185
vt 0.522809 0.373094
vt 0.477191 0.373094
vt 0.477191 0.743185
vt 0.001001 0.557139
vt 0.379951 0.557139
vt 0.379951 0.373094
vt 0.001001 0.373094
vt 0.379951 0.001001
vt 0.001001 0.001001
vt 0.001001 0.371092
vt 0.379951 0.371092
vt 0.993047 0.743185
vt 0.993047 0.652164
vt 0.989096 0.652164
vt 0.989096 0.743185
vt 0.762906 0.923418
vt 0.856142 0.923418
vt 0.856142 0.913792
vt 0.762906 0.913792
vt 0.993047 0.557139
vt 0.993047 0.466117
vt 0.989096 0.466117
vt 0.989096 0.557139
vt 0.858144 0.923418
vt 0.951380 0.923418
vt 0.951380 0.913792
vt 0.858144 0.913792
vt 0.106142 0.929232
vt 0.106142 0.919606
vt 0.102191 0.919606
vt 0.102191 0.929232
vt 0.100189 0.929232
vt 0.100189 0.919606
vt 0.096239 0.919606
vt 0.096239 0.929232
vt 0.993047 0.371092
vt 0.993047 0.280071
vt 0.989096 0.280071
vt 0.989096 0.371092
vt 0.667668 0.935046
vt 0.760904 0.935046
vt 0.760904 0.925420
vt 0.667668 0.925420
vt 0.993047 0.185046
vt 0.993047 0.094024
vt 0.989096 0.094024
vt 0.989096 0.185046
vt 0.858144 0.935046
vt 0.951380 0.935046
vt 0.951380 0.925420
vt 0.858144 0.925420
vt 0.118047 0.929232
vt 0.118047 0.919606
vt 0.114096 0.919606
vt 0.114096 0.929232
vt 0.112094 0.929232
vt 0.112094 0.919606
vt 0.108144 0.919606
vt 0.108144 0.929232
vt 0.987094 0.836208
vt 0.987094 0.745187
vt 0.983144 0.745187
vt 0.983144 0.836208
vt 0.096239 0.940859
vt 0.189475 0.940859
vt 0.189475 0.931234
vt 0.096239 0.931234
vt 0.987094 0.650162
vt 0.987094 0.559141
vt 0.983144 0.559141
vt 0.983144 0.650162
vt 0.286715 0.940859
vt 0.379951 0.940859
vt 0.379951 0.931234
vt 0.286715 0.931234
vt 0.129951 0.894348
vt 0.129951 0.884722
vt 0.126001 0.884722
vt 0.126001 0.894348
vt 0.123999 0.894348
vt 0.123999 0.884722
vt 0.120049 0.884722
vt 0.120049 0.894348
vt 0.987094 0.464115
vt 0.987094 0.373094
vt 0.983144 0.373094
vt 0.983144 0.464115
vt 0.477191 0.940859
vt 0.570428 0.940859
vt 0.570428 0.931234
vt 0.477191 0.931234
vt 0.981142 0.557139
vt 0.981142 0.466117
vt 0.977191 0.466117
vt 0.977191 0.557139
vt 0.667668 0.946673
vt 0.760904 0.946673
vt 0.760904 0.937048
vt 0.667668 0.937048
vt 0.141856 0.894348
vt 0.141856 0.884722
vt 0.137906 0.884722
vt 0.137906 0.894348
vt 0.135904 0.894348
vt 0.135904 0.884722
vt 0.131953 0.884722
vt 0.131953 0.894348
vt 0.981142 0.371092
vt 0.981142 0.280071
vt 0.977191 0.280071
vt 0.977191 0.371092
vt 0.858144 0.946673
vt 0.951380 0.946673
vt 0.951380 0.937048
vt 0.858144 0.937048
vt 0.981142 0.185046
vt 0.981142 0.094024
vt 0.977191 0.094024
vt 0.977191 0.185046
vt 0.096239 0.952487
vt 0.189475 0.952487
vt 0.189475 0.942861
vt 0.096239 0.942861
vt 0.129951 0.905976
vt 0.129951 0.896350
vt 0.126001 0.896350
vt 0.126001 0.905976
vt 0.123999 0.905976
vt 0.123999 0.896350
vt 0.120049 0.896350
vt 0.120049 0.905976
vt 0.975189 0.836208
vt 0.975189 0.745187
vt 0.971239 0.745187
vt 0.971239 0.836208
vt 0.286715 0.952487
vt 0.379951 0.952487
vt 0.379951 0.942861
vt 0.286715 0.942861
vt 0.975189 0.650162
vt 0.975189 0.559141
vt 0.971239 0.559141
vt 0.971239 0.650162
vt 0.477191 0.952487
vt 0.570428 0.952487
vt 0.570428 0.942861
vt 0.477191 0.942861
vt 0.141856 0.905976
vt 0.141856 0.896350
vt 0.137906 0.896350
vt 0.137906 0.905976
vt 0.135904 0.905976
vt 0.135904 0.896350
vt 0.131953 0.896350
vt 0.131953 0.905976
vt 0.975189 0.464115
vt 0.975189 0.373094
vt 0.971239 0.373094
vt 0.971239 0.464115
vt 0.667668 0.958301
vt 0.760904 0.958301
vt 0.760904 0.948675
vt 0.667668 0.948675
vt 0.975189 0.278069
vt 0.975189 0.187048
vt 0.971239 0.187048
vt 0.971239 0.278069
vt 0.858144 0.958301
vt 0.951380 0.958301
vt 0.951380 0.948675
vt 0.858144 0.948675
vt 0.106142 0.894348
vt 0.106142 0.884722
vt 0.102191 0.884722
vt 0.102191 0.894348
vt 0.100189 0.894348
vt 0.100189 0.884722
vt 0.096239 0.884722
vt 0.096239 0.894348
vt 0.975189 0.092022
vt 0.975189 0.001001
vt 0.971239 0.001001
vt 0.971239 0.092022
vt 0.096239 0.964115
vt 0.189475 0.964115
vt 0.189475 0.954489
vt 0.096239 0.954489
vt 0.969237 0.743185
vt 0.969237 0.652164
vt 0.965287 0.652164
vt 0.965287 0.743185
vt 0.286715 0.964115
vt 0.379951 0.964115
vt 0.379951 0.954489
vt 0.286715 0.954489
vt 0.118047 0.894348
vt 0.118047 0.884722
vt 0.114096 0.884722
vt 0.114096 0.894348
vt 0.112094 0.894348
vt 0.112094 0.884722
vt 0.108144 0.884722
vt 0.108144 0.894348
vt 0.969237 0.557139
vt 0.969237 0.466117
vt 0.965287 0.466117
vt 0.965287 0.557139
vt 0.477191 0.964115
vt 0.570428 0.964115
vt 0.570428 0.954489
vt 0.477191 0.954489
vt 0.969237 0.371092
vt 0.969237 0.280071
vt 0.965287 0.280071
vt 0.965287 0.371092
vt 0.667668 0.969929
vt 0.760904 0.969929
vt 0.760904 0.960303
vt 0.667668 0.960303
vt 0.106142 0.905976
vt 0.106142 0.896350
vt 0.102191 0.896350
vt 0.102191 0.905976
vt 0.100189 0.905976
vt 0.100189 0.896350
vt 0.096239 0.896350
vt 0.096239 0.905976
vt 0.963285 0.557139
vt 0.963285 0.466117
vt 0.959334 0.466117
vt 0.959334 0.557139
vt 0.286715 0.975743
vt 0.379951 0.975743
vt 0.379951 0.966117
vt 0.286715 0.966117
vt 0.963285 0.185046
vt 0.963285 0.094024
vt 0.959334 0.094024
vt 0.959334 0.185046
vt 0.477191 0.975743
vt 0.570428 0.975743
vt 0.570428 0.966117
vt 0.477191 0.966117
vt 0.891856 0.871092
vt 0.891856 0.861466
vt 0.887906 0.861466
vt 0.887906 0.871092
vt 0.885904 0.871092
vt 0.885904 0.861466
vt 0.881953 0.861466
vt 0.881953 0.871092
vt 0.957332 0.650162
vt 0.957332 0.559141
vt 0.953382 0.559141
vt 0.953382 0.650162
vt 0.905763 0.859464
vt 0.998999 0.859464
vt 0.998999 0.849838
vt 0.905763 0.849838
vt 0.957332 0.278069
vt 0.957332 0.187048
vt 0.953382 0.187048
vt 0.953382 0.278069
vt 0.905763 0.882720
vt 0.998999 0.882720
vt 0.998999 0.873094
vt 0.905763 0.873094
vt 0.903761 0.871092
vt 0.903761 0.861466
vt 0.899811 0.861466
vt 0.899811 0.871092
vt 0.897809 0.871092
vt 0.897809 0.861466
vt 0.893858 0.861466
vt 0.893858 0.871092
vt 0.998999 0.185046
vt 0.998999 0.094024
vt 0.995049 0.094024
vt 0.995049 0.185046
vt 0.096239 0.987371
vt 0.189475 0.987371
vt 0.189475 0.977745
vt 0.096239 0.977745
vt 0.945428 0.743185
vt 0.945428 0.652164
vt 0.941477 0.652164
vt 0.941477 0.743185
vt 0.286715 0.987371
vt 0.379951 0.987371
vt 0.379951 0.977745
vt 0.286715 0.977745
vt 0.891856 0.882720
vt 0.891856 0.873094
vt 0.887906 0.873094
vt 0.887906 0.882720
vt 0.885904 0.882720
vt 0.885904 0.873094
vt 0.881953 0.873094
vt 0.881953 0.882720
vt 0.939475 0.743185
vt 0.939475 0.652164
vt 0.935525 0.652164
vt 0.935525 0.743185
vt 0.381953 0.987371
vt 0.475189 0.987371
vt 0.475189 0.977745
vt 0.381953 0.977745
vt 0.933523 0.743185
vt 0.933523 0.652164
vt 0.929572 0.652164
vt 0.929572 0.743185
vt 0.477191 0.987371
vt 0.570428 0.987371
vt 0.570428 0.977745
vt 0.477191 0.977745
vt 0.903761 0.882720
vt 0.903761 0.873094
vt 0.899811 0.873094
vt 0.899811 0.882720
vt 0.897809 0.882720
vt 0.897809 0.873094
vt 0.893858 0.873094
vt 0.893858 0.882720
vt 0.933523 0.836208
vt 0.933523 0.745187
vt 0.929572 0.745187
vt 0.929572 0.836208
vt 0.858144 0.981557
vt 0.951380 0.981557
vt 0.951380 0.971931
vt 0.858144 0.971931
vt 0.998999 0.278069
vt 0.998999 0.187048
vt 0.995049 0.187048
vt 0.995049 0.278069
vt 0.762906 0.905976
vt 0.856142 0.905976
vt 0.856142 0.896350
vt 0.762906 0.896350
vt 0.868047 0.871092
vt 0.868047 0.861466
vt 0.864096 0.861466
vt 0.864096 0.871092
vt 0.862094 0.871092
vt 0.862094 0.861466
vt 0.858144 0.861466
vt 0.858144 0.871092
vt 0.993047 0.836208
vt 0.993047 0.745187
vt 0.989096 0.745187
vt 0.989096 0.836208
vt 0.667668 0.923418
vt 0.760904 0.923418
vt 0.760904 0.913792
vt 0.667668 0.913792
vt 0.993047 0.650162
vt 0.993047 0.559141
vt 0.989096 0.559141
vt 0.989096 0.650162
vt 0.858144 0.905976
vt 0.951380 0.905976
vt 0.951380 0.896350
vt 0.858144 0.896350
vt 0.879951 0.871092
vt 0.879951 0.861466
vt 0.876001 0.861466
vt 0.876001 0.871092
vt 0.873999 0.871092
vt 0.873999 0.861466
vt 0.870049 0.861466
vt 0.870049 0.871092
vt 0.993047 0.464115
vt 0.993047 0.373094
vt 0.989096 0.373094
vt 0.989096 0.464115
vt 0.572430 0.935046
vt 0.665666 0.935046
vt 0.665666 0.925420
vt 0.572430 0.925420
vt 0.993047 0.278069
vt 0.993047 0.187048
vt 0.989096 0.187048
vt 0.989096 0.278069
vt 0.762906 0.935046
vt 0.856142 0.935046
vt 0.856142 0.925420
vt 0.762906 0.925420
vt 0.868047 0.882720
vt 0.868047 0.873094
vt 0.864096 0.873094
vt 0.864096 0.882720
vt 0.862094 0.882720
vt 0.862094 0.873094
vt 0.858144 0.873094
vt 0.858144 0.882720
vt 0.993047 0.092022
vt 0.993047 0.001001
vt 0.989096 0.001001
vt 0.989096 0.092022
vt 0.001001 0.940859
vt 0.094237 0.940859
vt 0.094237 0.931234
vt 0.001001 0.931234
vt 0.987094 0.743185
vt 0.987094 0.652164
vt 0.983144 0.652164
vt 0.983144 0.743185
vt 0.191477 0.940859
vt 0.284713 0.940859
vt 0.284713 0.931234
vt 0.191477 0.931234
vt 0.879951 0.882720
vt 0.879951 0.873094
vt 0.876001 0.873094
vt 0.876001 0.882720
vt 0.873999 0.882720
vt 0.873999 0.873094
vt 0.870049 0.873094
vt 0.870049 0.882720
vt 0.987094 0.557139
vt 0.987094 0.466117
vt 0.983144 0.466117
vt 0.983144 0.557139
vt 0.381953 0.940859
vt 0.475189 0.940859
vt 0.475189 0.931234
vt 0.381953 0.931234
vt 0.981142 0.650162
vt 0.981142 0.559141
vt 0.977191 0.559141
vt 0.977191 0.650162
vt 0.572430 0.946673
vt 0.665666 0.946673
vt 0.665666 0.937048
vt 0.572430 0.937048
vt 0.891856 0.847836
vt 0.891856 0.838210
vt 0.887906 0.838210
vt 0.887906 0.847836
vt 0.885904 0.847836
vt 0.885904 0.838210
vt 0.881953 0.838210
vt 0.881953 0.847836
vt 0.981142 0.092022
vt 0.981142 0.001001
vt 0.977191 0.001001
vt 0.977191 0.092022
vt 0.191477 0.952487
vt 0.284713 0.952487
vt 0.284713 0.942861
vt 0.191477 0.942861
vt 0.975189 0.743185
vt 0.975189 0.652164
vt 0.971239 0.652164
vt 0.971239 0.743185
vt 0.381953 0.952487
vt 0.475189 0.952487
vt 0.475189 0.942861
vt 0.381953 0.942861
vt 0.891856 0.859464
vt 0.891856 0.849838
vt 0.887906 0.849838
vt 0.887906 0.859464
vt 0.885904 0.859464
vt 0.885904 0.849838
vt 0.881953 0.849838
vt 0.881953 0.859464
vt 0.975189 0.557139
vt 0.975189 0.466117
vt 0.971239 0.466117
vt 0.971239 0.557139
vt 0.572430 0.958301
vt 0.665666 0.958301
vt 0.665666 0.948675
vt 0.572430 0.948675
vt 0.975189 0.371092
vt 0.975189 0.280071
vt 0.971239 0.280071
vt 0.971239 0.371092
vt 0.762906 0.958301
vt 0.856142 0.958301
vt 0.856142 0.948675
vt 0.762906 0.948675
vt 0.903761 0.859464
vt 0.903761 0.849838
vt 0.899811 0.849838
vt 0.899811 0.859464
vt 0.897809 0.859464
vt 0.897809 0.849838
vt 0.893858 0.849838
vt 0.893858 0.859464
vt 0.975189 0.185046
vt 0.975189 0.094024
vt 0.971239 0.094024
vt 0.971239 0.185046
vt 0.001001 0.964115
vt 0.094237 0.964115
vt 0.094237 0.954489
vt 0.001001 0.954489
vt 0.969237 0.836208
vt 0.969237 0.745187
vt 0.965287 0.745187
vt 0.965287 0.836208
vt 0.191477 0.964115
vt 0.284713 0.964115
vt 0.284713 0.954489
vt 0.191477 0.954489
vt 0.868047 0.847836
vt 0.868047 0.838210
vt 0.864096 0.838210
vt 0.864096 0.847836
vt 0.862094 0.847836
vt 0.862094 0.838210
vt 0.858144 0.838210
vt 0.858144 0.847836
vt 0.969237 0.650162
vt 0.969237 0.559141
vt 0.965287 0.559141
vt 0.965287 0.650162
vt 0.381953 0.964115
vt 0.475189 0.964115
vt 0.475189 0.954489
vt 0.381953 0.954489
vt 0.969237 0.464115
vt 0.969237 0.373094
vt 0.965287 0.373094
vt 0.965287 0.464115
vt 0.572430 0.969929
vt 0.665666 0.969929
vt 0.665666 0.960303
vt 0.572430 0.960303
vt 0.879951 0.847836
vt 0.879951 0.838210
vt 0.876001 0.838210
vt 0.876001 0.847836
vt 0.873999 0.847836
vt 0.873999 0.838210
vt 0.870049 0.838210
vt 0.870049 0.847836
vt 0.969237 0.278069
vt 0.969237 0.187048
vt 0.965287 0.187048
vt 0.965287 0.278069
vt 0.762906 0.969929
vt 0.856142 0.969929
vt 0.856142 0.960303
vt 0.762906 0.960303
vt 0.969237 0.092022
vt 0.969237 0.001001
vt 0.965287 0.001001
vt 0.965287 0.092022
vt 0.001001 0.975743
vt 0.094237 0.975743
vt 0.094237 0.966117
vt 0.001001 0.966117
vt 0.868047 0.859464
vt 0.868047 0.849838
vt 0.864096 0.849838
vt 0.864096 0.859464
vt 0.862094 0.859464
vt 0.862094 0.849838
vt 0.858144 0.849838
vt 0.858144 0.859464
vt 0.963285 0.650162
vt 0.963285 0.559141
vt 0.959334 0.559141
vt 0.959334 0.650162
vt 0.191477 0.975743
vt 0.284713 0.975743
vt 0.284713 0.966117
vt 0.191477 0.966117
vt 0.963285 0.278069
vt 0.963285 0.187048
vt 0.959334 0.187048
vt 0.959334 0.278069
vt 0.381953 0.975743
vt 0.475189 0.975743
vt 0.475189 0.966117
vt 0.381953 0.966117
vt 0.879951 0.859464
vt 0.879951 0.849838
vt 0.876001 0.849838
vt 0.876001 0.859464
vt 0.873999 0.859464
vt 0.873999 0.849838
vt 0.870049 0.849838
vt 0.870049 0.859464
vt 0.957332 0.743185
vt 0.957332 0.652164
vt 0.953382 0.652164
vt 0.953382 0.743185
vt 0.905763 0.847836
vt 0.998999 0.847836
vt 0.998999 0.838210
vt 0.905763 0.838210
vt 0.957332 0.371092
vt 0.957332 0.280071
vt 0.953382 0.280071
vt 0.953382 0.371092
vt 0.905763 0.871092
vt 0.998999 0.871092
vt 0.998999 0.861466
vt 0.905763 0.861466
vt 0.177570 0.929232
vt 0.177570 0.919606
vt 0.173620 0.919606
vt 0.173620 0.929232
vt 0.171618 0.929232
vt 0.171618 0.919606
vt 0.167668 0.919606
vt 0.167668 0.929232
vt 0.951380 0.836208
vt 0.951380 0.745187
vt 0.947430 0.745187
vt 0.947430 0.836208
vt 0.572430 0.981557
vt 0.665666 0.981557
vt 0.665666 0.971931
vt 0.572430 0.971931
vt 0.951380 0.743185
vt 0.951380 0.652164
vt 0.947430 0.652164
vt 0.947430 0.743185
vt 0.762906 0.981557
vt 0.856142 0.981557
vt 0.856142 0.971931
vt 0.762906 0.971931
vt 0.165666 0.929232
vt 0.165666 0.919606
vt 0.161715 0.919606
vt 0.161715 0.929232
vt 0.159713 0.929232
vt 0.159713 0.919606
vt 0.155763 0.919606
vt 0.155763 0.929232
vt 0.998999 0.371092
vt 0.998999 0.280071
vt 0.995049 0.280071
vt 0.995049 0.371092
vt 0.001001 0.987371
vt 0.094237 0.987371
vt 0.094237 0.977745
vt 0.001001 0.977745
vt 0.945428 0.836208
vt 0.945428 0.745187
vt 0.941477 0.745187
vt 0.941477 0.836208
vt 0.191477 0.987371
vt 0.284713 0.987371
vt 0.284713 0.977745
vt 0.191477 0.977745
vt 0.153761 0.929232
vt 0.153761 0.919606
vt 0.149811 0.919606
vt 0.149811 0.929232
vt 0.147809 0.929232
vt 0.147809 0.919606
vt 0.143858 0.919606
vt 0.143858 0.929232
vt 0.939475 0.836208
vt 0.939475 0.745187
vt 0.935525 0.745187
vt 0.935525 0.836208
vt 0.856142 0.745187
vt 0.762906 0.745187
vt 0.762906 0.836208
vt 0.856142 0.836208
vt 0.572430 0.987371
vt 0.665666 0.987371
vt 0.665666 0.983559
vt 0.572430 0.983559
vt 0.856142 0.001001
vt 0.762906 0.001001
vt 0.762906 0.092022
vt 0.856142 0.092022
vt 0.927570 0.743185
vt 0.927570 0.652164
vt 0.923620 0.652164
vt 0.923620 0.743185
vt 0.667668 0.987371
vt 0.760904 0.987371
vt 0.760904 0.983559
vt 0.667668 0.983559
vt 0.927570 0.836208
vt 0.927570 0.745187
vt 0.923620 0.745187
vt 0.923620 0.836208
vt 0.760904 0.466117
vt 0.667668 0.466117
vt 0.667668 0.557139
vt 0.760904 0.557139
vt 0.762906 0.987371
vt 0.856142 0.987371
vt 0.856142 0.983559
vt 0.762906 0.983559
vt 0.760904 0.373094
vt 0.667668 0.373094
vt 0.667668 0.464115
vt 0.760904 0.464115
vt 0.939475 0.557139
vt 0.939475 0.466117
vt 0.935525 0.466117
vt 0.935525 0.557139
vt 0.858144 0.987371
vt 0.951380 0.987371
vt 0.951380 0.983559
vt 0.858144 0.983559
vt 0.939475 0.650162
vt 0.939475 0.559141
vt 0.935525 0.559141
vt 0.935525 0.650162
vt 0.665666 0.559141
vt 0.572430 0.559141
vt 0.572430 0.650162
vt 0.665666 0.650162
vt 0.001001 0.993185
vt 0.094237 0.993185
vt 0.094237 0.989373
vt 0.001001 0.989373
vt 0.665666 0.466117
vt 0.572430 0.466117
vt 0.572430 0.557139
vt 0.665666 0.557139
vt 0.945428 0.557139
vt 0.945428 0.466117
vt 0.941477 0.466117
vt 0.941477 0.557139
vt 0.096239 0.993185
vt 0.189475 0.993185
vt 0.189475 0.989373
vt 0.096239 0.989373
vt 0.945428 0.650162
vt 0.945428 0.559141
vt 0.941477 0.559141
vt 0.941477 0.650162
vt 0.665666 0.373094
vt 0.572430 0.373094
vt 0.572430 0.464115
vt 0.665666 0.464115
vt 0.191477 0.993185
vt 0.284713 0.993185
vt 0.284713 0.989373
vt 0.191477 0.989373
vt 0.856142 0.094024
vt 0.762906 0.094024
vt 0.762906 0.185046
vt 0.856142 0.185046
vt 0.951380 0.557139
vt 0.951380 0.466117
vt 0.947430 0.466117
vt 0.947430 0.557139
vt 0.286715 0.993185
vt 0.379951 0.993185
vt 0.379951 0.989373
vt 0.286715 0.989373
vt 0.951380 0.650162
vt 0.951380 0.559141
vt 0.947430 0.559141
vt 0.947430 0.650162
vt 0.903761 0.187048
vt 0.810525 0.187048
vt 0.810525 0.278069
vt 0.903761 0.278069
vt 0.381953 0.993185
vt 0.475189 0.993185
vt 0.475189 0.989373
vt 0.381953 0.989373
vt 0.903761 0.280071
vt 0.810525 0.280071
vt 0.810525 0.371092
vt 0.903761 0.371092
vt 0.957332 0.092022
vt 0.957332 0.001001
vt 0.953382 0.001001
vt 0.953382 0.092022
vt 0.477191 0.993185
vt 0.570428 0.993185
vt 0.570428 0.989373
vt 0.477191 0.989373
vt 0.957332 0.185046
vt 0.957332 0.094024
vt 0.953382 0.094024
vt 0.953382 0.185046
vt 0.903761 0.373094
vt 0.810525 0.373094
vt 0.810525 0.464115
vt 0.903761 0.464115
vt 0.572430 0.993185
vt 0.665666 0.993185
vt 0.665666 0.989373
vt 0.572430 0.989373
vt 0.903761 0.466117
vt 0.810525 0.466117
vt 0.810525 0.557139
vt 0.903761 0.557139
vt 0.957332 0.464115
vt 0.957332 0.373094
vt 0.953382 0.373094
vt 0.953382 0.464115
vt 0.667668 0.993185
vt 0.760904 0.993185
vt 0.760904 0.989373
vt 0.667668 0.989373
vt 0.957332 0.557139
vt 0.957332 0.466117
vt 0.953382 0.466117
vt 0.953382 0.557139
vt 0.903761 0.559141
vt 0.810525 0.559141
vt 0.810525 0.650162
vt 0.903761 0.650162
vt 0.762906 0.993185
vt 0.856142 0.993185
vt 0.856142 0.989373
vt 0.762906 0.989373
vt 0.903761 0.652164
vt 0.810525 0.652164
vt 0.810525 0.743185
vt 0.903761 0.743185
vt 0.957332 0.836208
vt 0.957332 0.745187
vt 0.953382 0.745187
vt 0.953382 0.836208
vt 0.858144 0.993185
vt 0.951380 0.993185
vt 0.951380 0.989373
vt 0.858144 0.989373
vt 0.963285 0.092022
vt 0.963285 0.001001
vt 0.959334 0.001001
vt 0.959334 0.092022
vt 0.284713 0.838210
vt 0.191477 0.838210
vt 0.191477 0.929232
vt 0.284713 0.929232
vt 0.001001 0.998999
vt 0.094237 0.998999
vt 0.094237 0.995187
vt 0.001001 0.995187
vt 0.379951 0.838210
vt 0.286715 0.838210
vt 0.286715 0.929232
vt 0.379951 0.929232
vt 0.963285 0.371092
vt 0.963285 0.280071
vt 0.959334 0.280071
vt 0.959334 0.371092
vt 0.096239 0.998999
vt 0.189475 0.998999
vt 0.189475 0.995187
vt 0.096239 0.995187
vt 0.963285 0.464115
vt 0.963285 0.373094
vt 0.959334 0.373094
vt 0.959334 0.464115
vt 0.475189 0.838210
vt 0.381953 0.838210
vt 0.381953 0.929232
vt 0.475189 0.929232
vt 0.191477 0.998999
vt 0.284713 0.998999
vt 0.284713 0.995187
vt 0.191477 0.995187
vt 0.570428 0.838210
vt 0.477191 0.838210
vt 0.477191 0.929232
vt 0.570428 0.929232
vt 0.963285 0.743185
vt 0.963285 0.652164
vt 0.959334 0.652164
vt 0.959334 0.743185
vt 0.286715 0.998999
vt 0.379951 0.998999
vt 0.379951 0.995187
vt 0.286715 0.995187
vt 0.903761 0.836208
vt 0.903761 0.745187
vt 0.858144 0.745187
vt 0.858144 0.836208
vt 0.572430 0.882720
vt 0.665666 0.882720
vt 0.665666 0.838210
vt 0.572430 0.838210
vt 0.951380 0.278069
vt 0.951380 0.187048
vt 0.905763 0.187048
vt 0.905763 0.278069
vt 0.667668 0.882720
vt 0.760904 0.882720
vt 0.760904 0.838210
vt 0.667668 0.838210
vt 0.951380 0.185046
vt 0.951380 0.001001
vt 0.905763 0.001001
vt 0.905763 0.185046
vt 0.001001 0.882720
vt 0.189475 0.882720
vt 0.189475 0.838210
vt 0.001001 0.838210
vt 0.903761 0.185046
vt 0.903761 0.001001
vt 0.858144 0.001001
vt 0.858144 0.185046
vt 0.572430 0.836208
vt 0.760904 0.836208
vt 0.760904 0.791699
vt 0.572430 0.791699
vt 0.909713 0.836208
vt 0.909713 0.466117
vt 0.905763 0.466117
vt 0.905763 0.836208
vt 0.572430 0.911790
vt 0.951380 0.911790
vt 0.951380 0.907978
vt 0.572430 0.907978
vt 0.951380 0.464115
vt 0.951380 0.373094
vt 0.905763 0.373094
vt 0.905763 0.464115
vt 0.762906 0.882720
vt 0.856142 0.882720
vt 0.856142 0.838210
vt 0.762906 0.838210
vt 0.951380 0.371092
vt 0.951380 0.280071
vt 0.905763 0.280071
vt 0.905763 0.371092
vt 0.001001 0.929232
vt 0.094237 0.929232
vt 0.094237 0.884722
vt 0.001001 0.884722
vt 0.808523 0.557139
vt 0.808523 0.373094
vt 0.762906 0.373094
vt 0.762906 0.557139
vt 0.381953 0.836208
vt 0.570428 0.836208
vt 0.570428 0.791699
vt 0.381953 0.791699
vt 0.808523 0.371092
vt 0.808523 0.187048
vt 0.762906 0.187048
vt 0.762906 0.371092
vt 0.191477 0.836208
vt 0.379951 0.836208
vt 0.379951 0.791699
vt 0.191477 0.791699
vt 0.381953 0.370616
vt 0.383075 0.290686
vt 0.483043 0.252660
vt 0.570427 0.001001
vt 0.570428 0.371092
vt 0.001001 0.696673
vt 0.379951 0.696673
vt 0.379951 0.652164
vt 0.001001 0.652164
vt 0.713285 0.371092
vt 0.713285 0.001001
vt 0.667668 0.001001
vt 0.667668 0.371092
vt 0.001001 0.603650
vt 0.379951 0.603650
vt 0.379951 0.559141
vt 0.001001 0.559141
vt 0.143858 0.894348
vt 0.189475 0.894348
vt 0.189475 0.890536
vt 0.143858 0.890536
vt 0.760904 0.371092
vt 0.760904 0.001001
vt 0.715287 0.001001
vt 0.715287 0.371092
vt 0.808523 0.698675
vt 0.762906 0.698675
vt 0.762906 0.743185
vt 0.808523 0.743185
vt 0.001001 0.650162
vt 0.379951 0.650162
vt 0.379951 0.605652
vt 0.001001 0.605652
vt 0.760904 0.698675
vt 0.715287 0.698675
vt 0.715287 0.743185
vt 0.760904 0.743185
vt 0.570428 0.743185
vt 0.570428 0.373094
vt 0.524811 0.373094
vt 0.524811 0.743185
vt 0.808523 0.605652
vt 0.762906 0.605652
vt 0.762906 0.650162
vt 0.808523 0.650162
vt 0.001001 0.743185
vt 0.379951 0.743185
vt 0.379951 0.698675
vt 0.001001 0.698675
vt 0.760904 0.605652
vt 0.715287 0.605652
vt 0.715287 0.650162
vt 0.760904 0.650162
vt 0.963285 0.884722
vt 0.959334 0.884722
vt 0.959334 0.905976
vt 0.963285 0.905976
vt 0.189475 0.888534
vt 0.189475 0.884722
vt 0.143858 0.884722
vt 0.143858 0.888534
vt 0.183523 0.919606
vt 0.179572 0.919606
vt 0.179572 0.923418
vt 0.183523 0.923418
vt 0.977191 0.779969
vt 0.978700 0.745187
vt 0.981142 0.779930
vt 0.981142 0.836184
vt 0.978700 0.836208
vt 0.189475 0.905976
vt 0.189475 0.902164
vt 0.143858 0.902164
vt 0.143858 0.905976
vt 0.957332 0.884722
vt 0.953382 0.884722
vt 0.953382 0.905976
vt 0.957332 0.905976
vt 0.417566 0.995187
vt 0.475189 0.996642
vt 0.475189 0.998998
vt 0.417566 0.998999
vt 0.381953 0.996643
vt 0.975189 0.884722
vt 0.971239 0.884722
vt 0.971239 0.905976
vt 0.975189 0.905976
vt 0.189475 0.900162
vt 0.189475 0.896350
vt 0.143858 0.896350
vt 0.143858 0.900162
vt 0.106142 0.913792
vt 0.102191 0.913792
vt 0.102191 0.917604
vt 0.106142 0.917604
vt 0.983144 0.035783
vt 0.984653 0.001001
vt 0.987094 0.035744
vt 0.987094 0.091998
vt 0.984653 0.092022
vt 0.748999 0.652164
vt 0.745049 0.652164
vt 0.745049 0.696673
vt 0.748999 0.696673
vt 0.969237 0.884722
vt 0.965287 0.884722
vt 0.965287 0.905976
vt 0.969237 0.905976
vt 0.477191 0.997182
vt 0.512805 0.995187
vt 0.570428 0.995771
vt 0.570428 0.998127
vt 0.512805 0.998999
vt 0.129951 0.907978
vt 0.126001 0.907978
vt 0.126001 0.929232
vt 0.129951 0.929232
vt 0.743047 0.652164
vt 0.739096 0.652164
vt 0.739096 0.696673
vt 0.743047 0.696673
vt 0.100189 0.913792
vt 0.096239 0.913792
vt 0.096239 0.917604
vt 0.100189 0.917604
vt 0.983144 0.128806
vt 0.984653 0.094024
vt 0.987094 0.128767
vt 0.987094 0.185021
vt 0.984653 0.185046
vt 0.760904 0.652164
vt 0.756953 0.652164
vt 0.756953 0.696673
vt 0.760904 0.696673
vt 0.123999 0.907978
vt 0.120049 0.907978
vt 0.120049 0.929232
vt 0.123999 0.929232
vt 0.572430 0.997182
vt 0.608043 0.995187
vt 0.665666 0.995771
vt 0.665666 0.998127
vt 0.608043 0.998999
vt 0.141856 0.907978
vt 0.137906 0.907978
vt 0.137906 0.929232
vt 0.141856 0.929232
vt 0.754951 0.652164
vt 0.751001 0.652164
vt 0.751001 0.696673
vt 0.754951 0.696673
vt 0.106142 0.907978
vt 0.102191 0.907978
vt 0.102191 0.911790
vt 0.106142 0.911790
vt 0.983144 0.221830
vt 0.984653 0.187048
vt 0.987094 0.221790
vt 0.987094 0.278044
vt 0.984653 0.278069
vt 0.725189 0.652164
vt 0.721239 0.652164
vt 0.721239 0.696673
vt 0.725189 0.696673
vt 0.135904 0.907978
vt 0.131953 0.907978
vt 0.131953 0.929232
vt 0.135904 0.929232
vt 0.667668 0.997182
vt 0.703281 0.995187
vt 0.760904 0.995771
vt 0.760904 0.998127
vt 0.703281 0.998999
vt 0.963285 0.907978
vt 0.959334 0.907978
vt 0.959334 0.929232
vt 0.963285 0.929232
vt 0.719237 0.652164
vt 0.715287 0.652164
vt 0.715287 0.696673
vt 0.719237 0.696673
vt 0.100189 0.907978
vt 0.096239 0.907978
vt 0.096239 0.911790
vt 0.100189 0.911790
vt 0.984653 0.371092
vt 0.983144 0.323451
vt 0.984653 0.280071
vt 0.987094 0.300902
vt 0.987094 0.357156
vt 0.737094 0.652164
vt 0.733144 0.652164
vt 0.733144 0.696673
vt 0.737094 0.696673
vt 0.957332 0.907978
vt 0.953382 0.907978
vt 0.953382 0.929232
vt 0.957332 0.929232
vt 0.798519 0.995187
vt 0.856142 0.996642
vt 0.856142 0.998998
vt 0.798519 0.998999
vt 0.762906 0.996643
vt 0.808523 0.559141
vt 0.762906 0.559141
vt 0.762906 0.603650
vt 0.808523 0.603650
vt 0.427570 0.743185
vt 0.427570 0.373094
vt 0.381953 0.373094
vt 0.381953 0.743185
vt 0.760904 0.559141
vt 0.715287 0.559141
vt 0.715287 0.603650
vt 0.760904 0.603650
vt 0.665666 0.698675
vt 0.620049 0.698675
vt 0.620049 0.743185
vt 0.665666 0.743185
vt 0.618047 0.698675
vt 0.572430 0.698675
vt 0.572430 0.743185
vt 0.618047 0.743185
vt 0.001001 0.789697
vt 0.379951 0.789697
vt 0.379951 0.745187
vt 0.001001 0.745187
vt 0.475189 0.743185
vt 0.475189 0.373094
vt 0.429572 0.373094
vt 0.429572 0.743185
vt 0.381953 0.789697
vt 0.760904 0.789697
vt 0.760904 0.745187
vt 0.381953 0.745187
vt 0.665666 0.186046
vt 0.665666 0.371092
vt 0.572430 0.371092
vt 0.572430 0.186047
vt 0.572430 0.001001
vt 0.665666 0.001001
vt 0.572430 0.888534
vt 0.951380 0.888534
vt 0.951380 0.884722
vt 0.572430 0.884722
vt 0.731142 0.696673
vt 0.731142 0.652164
vt 0.727191 0.652164
vt 0.727191 0.696673
vt 0.796618 0.696673
vt 0.796618 0.652164
vt 0.792668 0.652164
vt 0.792668 0.696673
vt 0.790666 0.696673
vt 0.790666 0.652164
vt 0.786715 0.652164
vt 0.786715 0.696673
vt 0.808523 0.696673
vt 0.808523 0.652164
vt 0.804572 0.652164
vt 0.804572 0.696673
vt 0.802570 0.696673
vt 0.802570 0.652164
vt 0.798620 0.652164
vt 0.798620 0.696673
vt 0.915666 0.836208
vt 0.915666 0.466117
vt 0.911715 0.466117
vt 0.911715 0.836208
vt 0.572430 0.894348
vt 0.951380 0.894348
vt 0.951380 0.890536
vt 0.572430 0.890536
vt 0.921618 0.836208
vt 0.921618 0.466117
vt 0.917668 0.466117
vt 0.917668 0.836208
vt 0.772809 0.696673
vt 0.772809 0.652164
vt 0.768858 0.652164
vt 0.768858 0.696673
vt 0.766856 0.696673
vt 0.766856 0.652164
vt 0.762906 0.652164
vt 0.762906 0.696673
vt 0.143858 0.917604
vt 0.189475 0.917604
vt 0.189475 0.907978
vt 0.143858 0.907978
vt 0.784713 0.696673
vt 0.784713 0.652164
vt 0.774811 0.652164
vt 0.774811 0.696673
vt 0.933523 0.650162
vt 0.933523 0.466117
vt 0.923620 0.466117
vt 0.923620 0.650162
vt 0.572430 0.905976
vt 0.760904 0.905976
vt 0.760904 0.896350
vt 0.572430 0.896350
vt 0.713285 0.743185
vt 0.713285 0.559141
vt 0.667668 0.559141
vt 0.667668 0.743185
vt 0.665666 0.652164
vt 0.620049 0.652164
vt 0.620049 0.696673
vt 0.665666 0.696673
vt 0.001001 0.836208
vt 0.189475 0.836208
vt 0.189475 0.791699
vt 0.001001 0.791699
vt 0.618047 0.652164
vt 0.572430 0.652164
vt 0.572430 0.696673
vt 0.618047 0.696673
vn -0.9937 0.1117 -0.0000
vn -0.0000 0.0000 -1.0000
vn -0.9976 0.0689 0.0000
vn 0.9976 -0.0689 0.0000
vn 0.0000 0.0000 1.0000
vn -0.0369 -0.9993 0.0000
vn 0.0369 0.9993 0.0000
vn -0.9869 0.1613 0.0000
vn 0.9869 -0.1613 0.0000
vn -0.0255 -0.9997 0.0000
vn 0.0255 0.9997 0.0000
vn 0.0000 -1.0000 0.0000
vn 0.0480 0.9988 0.0000
vn 1.0000 0.0000 0.0000
vn -0.1027 0.9947 0.0000
vn 0.3512 0.9363 -0.0000
vn -0.0000 0.8627 0.5056
vn 0.0000 -0.3737 0.9275
vn 0.0001 -1.0000 -0.0000
vn -1.0000 -0.0001 -0.0000
vn 0.0000 -0.3736 -0.9276
vn -0.0000 0.8628 -0.5055
vn 1.0000 0.0001 0.0000
vn 0.1027 -0.9947 0.0000
vn 0.6273 -0.7788 0.0000
vn -0.6273 0.7787 0.0000
usemtl Material.001
s 1
f 1/1/1 2/2/1 3/3/1 4/4/1
f 5/5/2 6/6/2 7/7/2 8/8/2
f 4/9/2 3/10/2 6/11/2 5/12/2
f 9/13/3 10/14/3 11/15/3 12/16/3
f 12/17/2 11/18/2 13/19/2 14/20/2
f 14/21/4 13/22/4 15/23/4 16/24/4
f 16/25/5 15/26/5 10/27/5 9/28/5
f 12/29/6 14/30/6 16/31/6 9/32/6
f 13/33/7 11/34/7 10/35/7 15/36/7
f 17/37/3 18/38/3 19/39/3 20/40/3
f 20/41/2 19/42/2 21/43/2 22/44/2
f 22/45/4 21/46/4 23/47/4 24/48/4
f 24/49/5 23/50/5 18/51/5 17/52/5
f 20/53/6 22/54/6 24/55/6 17/56/6
f 21/57/7 19/58/7 18/59/7 23/60/7
f 25/61/3 26/62/3 27/63/3 28/64/3
f 28/65/2 27/66/2 29/67/2 30/68/2
f 30/69/4 29/70/4 31/71/4 32/72/4
f 32/73/5 31/74/5 26/75/5 25/76/5
f 28/77/6 30/78/6 32/79/6 25/80/6
f 29/81/7 27/82/7 26/83/7 31/84/7
f 33/85/3 34/86/3 35/87/3 36/88/3
f 36/89/2 35/90/2 37/91/2 38/92/2
f 38/93/4 37/94/4 39/95/4 40/96/4
f 40/97/5 39/98/5 34/99/5 33/100/5
f 36/101/6 38/102/6 40/103/6 33/104/6
f 37/105/7 35/106/7 34/107/7 39/108/7
f 41/109/3 42/110/3 43/111/3 44/112/3
f 44/113/2 43/114/2 45/115/2 46/116/2
f 46/117/4 45/118/4 47/119/4 48/120/4
f 48/121/5 47/122/5 42/123/5 41/124/5
f 44/125/6 46/126/6 48/127/6 41/128/6
f 45/129/7 43/130/7 42/131/7 47/132/7
f 49/133/3 50/134/3 51/135/3 52/136/3
f 52/137/2 51/138/2 53/139/2 54/140/2
f 54/141/4 53/142/4 55/143/4 56/144/4
f 56/145/5 55/146/5 50/147/5 49/148/5
f 52/149/6 54/150/6 56/151/6 49/152/6
f 53/153/7 51/154/7 50/155/7 55/156/7
f 57/157/3 58/158/3 59/159/3 60/160/3
f 60/161/2 59/162/2 61/163/2 62/164/2
f 62/165/4 61/166/4 63/167/4 64/168/4
f 64/169/5 63/170/5 58/171/5 57/172/5
f 60/173/6 62/174/6 64/175/6 57/176/6
f 61/177/7 59/178/7 58/179/7 63/180/7
f 65/181/3 66/182/3 67/183/3 68/184/3
f 68/185/2 67/186/2 69/187/2 70/188/2
f 70/189/4 69/190/4 71/191/4 72/192/4
f 72/193/5 71/194/5 66/195/5 65/196/5
f 68/197/6 70/198/6 72/199/6 65/200/6
f 69/201/7 67/202/7 66/203/7 71/204/7
f 73/205/3 74/206/3 75/207/3 76/208/3
f 76/209/2 75/210/2 77/211/2 78/212/2
f 78/213/4 77/214/4 79/215/4 80/216/4
f 80/217/5 79/218/5 74/219/5 73/220/5
f 76/221/6 78/222/6 80/223/6 73/224/6
f 77/225/7 75/226/7 74/227/7 79/228/7
f 81/229/3 82/230/3 83/231/3 84/232/3
f 84/233/2 83/234/2 85/235/2 86/236/2
f 86/237/4 85/238/4 87/239/4 88/240/4
f 88/241/5 87/242/5 82/243/5 81/244/5
f 84/245/6 86/246/6 88/247/6 81/248/6
f 85/249/7 83/250/7 82/251/7 87/252/7
f 89/253/3 90/254/3 91/255/3 92/256/3
f 92/257/2 91/258/2 93/259/2 94/260/2
f 94/261/4 93/262/4 95/263/4 96/264/4
f 96/265/5 95/266/5 90/267/5 89/268/5
f 92/269/6 94/270/6 96/271/6 89/272/6
f 93/273/7 91/274/7 90/275/7 95/276/7
f 97/277/3 98/278/3 99/279/3 100/280/3
f 100/281/2 99/282/2 101/283/2 102/284/2
f 102/285/4 101/286/4 103/287/4 104/288/4
f 104/289/5 103/290/5 98/291/5 97/292/5
f 100/293/6 102/294/6 104/295/6 97/296/6
f 101/297/7 99/298/7 98/299/7 103/300/7
f 105/301/3 106/302/3 107/303/3 108/304/3
f 108/305/2 107/306/2 109/307/2 110/308/2
f 110/309/4 109/310/4 111/311/4 112/312/4
f 112/313/5 111/314/5 106/315/5 105/316/5
f 108/317/6 110/318/6 112/319/6 105/320/6
f 109/321/7 107/322/7 106/323/7 111/324/7
f 113/325/3 114/326/3 115/327/3 116/328/3
f 116/329/2 115/330/2 117/331/2 118/332/2
f 118/333/4 117/334/4 119/335/4 120/336/4
f 120/337/5 119/338/5 114/339/5 113/340/5
f 116/341/6 118/342/6 120/343/6 113/344/6
f 117/345/7 115/346/7 114/347/7 119/348/7
f 121/349/3 122/350/3 123/351/3 124/352/3
f 124/353/2 123/354/2 125/355/2 126/356/2
f 126/357/4 125/358/4 127/359/4 128/360/4
f 128/361/5 127/362/5 122/363/5 121/364/5
f 124/365/6 126/366/6 128/367/6 121/368/6
f 125/369/7 123/370/7 122/371/7 127/372/7
f 129/373/3 130/374/3 131/375/3 132/376/3
f 132/377/2 131/378/2 133/379/2 134/380/2
f 134/381/4 133/382/4 135/383/4 136/384/4
f 136/385/5 135/386/5 130/387/5 129/388/5
f 132/389/6 134/390/6 136/391/6 129/392/6
f 133/393/7 131/394/7 130/395/7 135/396/7
f 137/397/3 138/398/3 139/399/3 140/400/3
f 140/401/2 139/402/2 141/403/2 142/404/2
f 142/405/4 141/406/4 143/407/4 144/408/4
f 144/409/5 143/410/5 138/411/5 137/412/5
f 140/413/6 142/414/6 144/415/6 137/416/6
f 141/417/7 139/418/7 138/419/7 143/420/7
f 145/421/3 146/422/3 147/423/3 148/424/3
f 148/425/2 147/426/2 149/427/2 150/428/2
f 150/429/4 149/430/4 151/431/4 152/432/4
f 152/433/5 151/434/5 146/435/5 145/436/5
f 148/437/6 150/438/6 152/439/6 145/440/6
f 149/441/7 147/442/7 146/443/7 151/444/7
f 153/445/3 154/446/3 155/447/3 156/448/3
f 156/449/2 155/450/2 157/451/2 158/452/2
f 158/453/4 157/454/4 159/455/4 160/456/4
f 160/457/5 159/458/5 154/459/5 153/460/5
f 156/461/6 158/462/6 160/463/6 153/464/6
f 157/465/7 155/466/7 154/467/7 159/468/7
f 161/469/3 162/470/3 163/471/3 164/472/3
f 164/473/2 163/474/2 165/475/2 166/476/2
f 166/477/4 165/478/4 167/479/4 168/480/4
f 168/481/5 167/482/5 162/483/5 161/484/5
f 164/485/6 166/486/6 168/487/6 161/488/6
f 165/489/7 163/490/7 162/491/7 167/492/7
f 169/493/3 170/494/3 171/495/3 172/496/3
f 172/497/2 171/498/2 173/499/2 174/500/2
f 174/501/4 173/502/4 175/503/4 176/504/4
f 176/505/5 175/506/5 170/507/5 169/508/5
f 172/509/6 174/510/6 176/511/6 169/512/6
f 173/513/7 171/514/7 170/515/7 175/516/7
f 177/517/3 178/518/3 179/519/3 180/520/3
f 180/521/2 179/522/2 181/523/2 182/524/2
f 182/525/4 181/526/4 183/527/4 184/528/4
f 184/529/5 183/530/5 178/531/5 177/532/5
f 180/533/6 182/534/6 184/535/6 177/536/6
f 181/537/7 179/538/7 178/539/7 183/540/7
f 185/541/3 186/542/3 187/543/3 188/544/3
f 188/545/2 187/546/2 189/547/2 190/548/2
f 190/549/4 189/550/4 191/551/4 192/552/4
f 192/553/5 191/554/5 186/555/5 185/556/5
f 188/557/6 190/558/6 192/559/6 185/560/6
f 189/561/7 187/562/7 186/563/7 191/564/7
f 193/565/3 194/566/3 195/567/3 196/568/3
f 196/569/2 195/570/2 197/571/2 198/572/2
f 198/573/4 197/574/4 199/575/4 200/576/4
f 200/577/5 199/578/5 194/579/5 193/580/5
f 196/581/6 198/582/6 200/583/6 193/584/6
f 197/585/7 195/586/7 194/587/7 199/588/7
f 201/589/3 202/590/3 203/591/3 204/592/3
f 204/593/2 203/594/2 205/595/2 206/596/2
f 206/597/4 205/598/4 207/599/4 208/600/4
f 208/601/5 207/602/5 202/603/5 201/604/5
f 204/605/6 206/606/6 208/607/6 201/608/6
f 205/609/7 203/610/7 202/611/7 207/612/7
f 209/613/3 210/614/3 211/615/3 212/616/3
f 212/617/2 211/618/2 213/619/2 214/620/2
f 214/621/4 213/622/4 215/623/4 216/624/4
f 216/625/5 215/626/5 210/627/5 209/628/5
f 212/629/6 214/630/6 216/631/6 209/632/6
f 213/633/7 211/634/7 210/635/7 215/636/7
f 217/637/3 218/638/3 219/639/3 220/640/3
f 220/641/2 219/642/2 221/643/2 222/644/2
f 222/645/4 221/646/4 223/647/4 224/648/4
f 224/649/5 223/650/5 218/651/5 217/652/5
f 220/653/6 222/654/6 224/655/6 217/656/6
f 221/657/7 219/658/7 218/659/7 223/660/7
f 225/661/8 226/662/8 227/663/8 228/664/8
f 228/665/2 227/666/2 229/667/2 230/668/2
f 230/669/9 229/670/9 231/671/9 232/672/9
f 232/673/5 231/674/5 226/675/5 225/676/5
f 228/677/10 230/678/10 232/679/10 225/680/10
f 229/681/11 227/682/11 226/683/11 231/684/11
f 233/685/8 234/686/8 235/687/8 236/688/8
f 236/689/2 235/690/2 237/691/2 238/692/2
f 238/693/9 237/694/9 239/695/9 240/696/9
f 240/697/5 239/698/5 234/699/5 233/700/5
f 236/701/10 238/702/10 240/703/10 233/704/10
f 237/705/11 235/706/11 234/707/11 239/708/11
f 241/709/8 242/710/8 243/711/8 244/712/8
f 244/713/2 243/714/2 245/715/2 246/716/2
f 246/717/9 245/718/9 247/719/9 248/720/9
f 248/721/5 247/722/5 242/723/5 241/724/5
f 244/725/10 246/726/10 248/727/10 241/728/10
f 245/729/11 243/730/11 242/731/11 247/732/11
f 249/733/8 250/734/8 251/735/8 252/736/8
f 252/737/2 251/738/2 253/739/2 254/740/2
f 254/741/9 253/742/9 255/743/9 256/744/9
f 256/745/5 255/746/5 250/747/5 249/748/5
f 252/749/10 254/750/10 256/751/10 249/752/10
f 253/753/11 251/754/11 250/755/11 255/756/11
f 257/757/8 258/758/8 259/759/8 260/760/8
f 260/761/2 259/762/2 261/763/2 262/764/2
f 262/765/9 261/766/9 263/767/9 264/768/9
f 264/769/5 263/770/5 258/771/5 257/772/5
f 260/773/10 262/774/10 264/775/10 257/776/10
f 261/777/11 259/778/11 258/779/11 263/780/11
f 265/781/8 266/782/8 267/783/8 268/784/8
f 268/785/2 267/786/2 269/787/2 270/788/2
f 270/789/9 269/790/9 271/791/9 272/792/9
f 272/793/5 271/794/5 266/795/5 265/796/5
f 268/797/10 270/798/10 272/799/10 265/800/10
f 269/801/11 267/802/11 266/803/11 271/804/11
f 273/805/8 274/806/8 275/807/8 276/808/8
f 276/809/2 275/810/2 277/811/2 278/812/2
f 278/813/9 277/814/9 279/815/9 280/816/9
f 280/817/5 279/818/5 274/819/5 273/820/5
f 276/821/10 278/822/10 280/823/10 273/824/10
f 277/825/11 275/826/11 274/827/11 279/828/11
f 281/829/8 282/830/8 283/831/8 284/832/8
f 284/833/2 283/834/2 285/835/2 286/836/2
f 286/837/9 285/838/9 287/839/9 288/840/9
f 288/841/5 287/842/5 282/843/5 281/844/5
f 284/845/10 286/846/10 288/847/10 281/848/10
f 285/849/11 283/850/11 282/851/11 287/852/11
f 289/853/8 290/854/8 291/855/8 292/856/8
f 292/857/2 291/858/2 293/859/2 294/860/2
f 294/861/9 293/862/9 295/863/9 296/864/9
f 296/865/5 295/866/5 290/867/5 289/868/5
f 292/869/10 294/870/10 296/871/10 289/872/10
f 293/873/11 291/874/11 290/875/11 295/876/11
f 4/877/12 5/878/12 297/879/12 1/880/12
f 1/881/12 297/882/12 298/883/12 299/884/12
f 299/885/12 298/886/12 300/887/12 301/888/12
f 301/889/12 300/890/12 302/891/12 303/892/12
f 7/893/13 6/894/13 304/895/13 305/896/13
f 306/897/2 307/898/2 308/899/2 309/900/2
f 310/901/13 311/902/13 312/903/13 313/904/13
f 313/905/13 312/906/13 314/907/13 315/908/13
f 316/909/5 317/910/5 318/911/5 319/912/5
f 320/913/2 321/914/2 322/915/2 323/916/2
f 5/917/12 8/918/12 324/919/12 297/920/12
f 297/921/12 324/922/12 325/923/12 298/924/12
f 298/925/12 325/926/12 326/927/12 300/928/12
f 300/929/12 326/930/12 327/931/12 302/932/12
f 8/933/14 7/934/14 305/935/14 324/936/14
f 324/937/14 305/938/14 310/939/14 325/940/14
f 325/941/14 310/942/14 313/943/14 326/944/14
f 326/945/14 313/946/14 315/947/14 327/948/14
f 327/949/5 315/950/5 314/951/5 328/952/5 303/953/5
f 303/954/1 328/955/1 329/956/1 301/957/1
f 301/958/1 329/959/1 330/960/1 299/961/1
f 299/962/1 330/963/1 2/964/1 1/965/1
f 321/966/15 331/967/15 332/968/15 322/969/15
f 311/970/16 330/971/16 317/972/16 316/973/16
f 330/974/16 329/975/16 333/976/16 317/977/16
f 329/978/16 312/979/16 334/980/16 333/981/16
f 312/982/16 311/983/16 316/984/16 334/985/16
f 312/986/16 329/987/16 335/988/16 336/989/16
f 329/990/16 328/991/16 337/992/16 335/993/16
f 328/994/16 314/995/16 338/996/16 337/997/16
f 314/998/16 312/999/16 336/1000/16 338/1001/16
f 339/1002/17 340/1003/17 341/1004/17 342/1005/17
f 342/1006/18 341/1007/18 343/1008/18 344/1009/18
f 344/1010/19 343/1011/19 345/1012/19 346/1013/19
f 341/1014/20 340/1015/20 347/1016/20 345/1017/20 343/1018/20
f 346/1019/21 345/1020/21 347/1021/21 348/1022/21
f 348/1023/22 347/1024/22 340/1025/22 339/1026/22
f 339/1027/23 342/1028/23 344/1029/23 346/1030/23 348/1031/23
f 349/1032/17 350/1033/17 351/1034/17 352/1035/17
f 352/1036/18 351/1037/18 353/1038/18 354/1039/18
f 354/1040/19 353/1041/19 355/1042/19 356/1043/19
f 351/1044/20 350/1045/20 357/1046/20 355/1047/20 353/1048/20
f 356/1049/21 355/1050/21 357/1051/21 358/1052/21
f 358/1053/22 357/1054/22 350/1055/22 349/1056/22
f 349/1057/23 352/1058/23 354/1059/23 356/1060/23 358/1061/23
f 359/1062/17 360/1063/17 361/1064/17 362/1065/17
f 362/1066/18 361/1067/18 363/1068/18 364/1069/18
f 364/1070/19 363/1071/19 365/1072/19 366/1073/19
f 361/1074/20 360/1075/20 367/1076/20 365/1077/20 363/1078/20
f 366/1079/21 365/1080/21 367/1081/21 368/1082/21
f 368/1083/22 367/1084/22 360/1085/22 359/1086/22
f 359/1087/23 362/1088/23 364/1089/23 366/1090/23 368/1091/23
f 369/1092/17 370/1093/17 371/1094/17 372/1095/17
f 372/1096/18 371/1097/18 373/1098/18 374/1099/18
f 374/1100/19 373/1101/19 375/1102/19 376/1103/19
f 371/1104/20 370/1105/20 377/1106/20 375/1107/20 373/1108/20
f 376/1109/21 375/1110/21 377/1111/21 378/1112/21
f 378/1113/22 377/1114/22 370/1115/22 369/1116/22
f 369/1117/23 372/1118/23 374/1119/23 376/1120/23 378/1121/23
f 379/1122/17 380/1123/17 381/1124/17 382/1125/17
f 382/1126/18 381/1127/18 383/1128/18 384/1129/18
f 384/1130/19 383/1131/19 385/1132/19 386/1133/19
f 381/1134/20 380/1135/20 387/1136/20 385/1137/20 383/1138/20
f 386/1139/21 385/1140/21 387/1141/21 388/1142/21
f 388/1143/22 387/1144/22 380/1145/22 379/1146/22
f 379/1147/23 382/1148/23 384/1149/23 386/1150/23 388/1151/23
f 389/1152/16 390/1153/16 3/1154/16 2/1155/16
f 390/1156/16 391/1157/16 6/1158/16 3/1159/16
f 320/1160/16 389/1161/16 2/1162/16 330/1163/16
f 391/1164/16 331/1165/16 304/1166/16 6/1167/16
f 331/1168/16 321/1169/16 311/1170/16 304/1171/16
f 321/1172/16 320/1173/16 330/1174/16 311/1175/16
f 319/1176/16 318/1177/16 392/1178/16 393/1179/16
f 394/1180/16 395/1181/16 396/1182/16 397/1183/16
f 398/1184/16 323/1185/16 322/1186/16 332/1187/16 399/1188/16 400/1189/16
f 336/1190/5 335/1191/5 395/1192/5 394/1193/5
f 334/1194/15 316/1195/15 319/1196/15 393/1197/15
f 338/1198/15 336/1199/15 394/1200/15 397/1201/15
f 317/1202/24 333/1203/24 392/1204/24 318/1205/24
f 390/1206/24 389/1207/24 398/1208/24 400/1209/24
f 335/1210/24 337/1211/24 396/1212/24 395/1213/24
f 333/1214/2 334/1215/2 393/1216/2 392/1217/2
f 391/1218/5 390/1219/5 400/1220/5 399/1221/5
f 337/1222/2 338/1223/2 397/1224/2 396/1225/2
f 389/1226/24 320/1227/24 323/1228/24 398/1229/24
f 331/1230/15 391/1231/15 399/1232/15 332/1233/15
f 401/1234/13 307/1235/13 310/1236/13 305/1237/13
f 306/1238/13 402/1239/13 304/1240/13 311/1241/13
f 402/1242/13 401/1243/13 305/1244/13 304/1245/13
f 307/1246/13 306/1247/13 311/1248/13 310/1249/13
f 403/1250/13 404/1251/13 309/1252/13 308/1253/13
f 402/1254/25 306/1255/25 309/1256/25 404/1257/25
f 401/1258/5 402/1259/5 404/1260/5 403/1261/5
f 307/1262/26 401/1263/26 403/1264/26 308/1265/26
o bloom
v 0.048089 -1.557763 -1.230693
v 0.050217 -1.526941 -1.230693
v 0.050217 -1.526941 -1.268955
v 0.048089 -1.557763 -1.268955
v 0.092368 -1.528497 -1.268955
v 0.090239 -1.559319 -1.268955
v 0.092368 -1.528497 -1.230693
v 0.090239 -1.559319 -1.230693
v 0.048089 -1.557763 -1.146480
v 0.050217 -1.526941 -1.146480
v 0.050217 -1.526941 -1.184741
v 0.048089 -1.557763 -1.184741
v 0.092368 -1.528497 -1.184741
v 0.090239 -1.559319 -1.184741
v 0.092368 -1.528497 -1.146480
v 0.090239 -1.559319 -1.146480
v 0.048089 -1.557763 -1.062266
v 0.050217 -1.526941 -1.062266
v 0.050217 -1.526941 -1.100528
v 0.048089 -1.557763 -1.100528
v 0.092368 -1.528497 -1.100528
v 0.090239 -1.559319 -1.100528
v 0.092368 -1.528497 -1.062266
v 0.090239 -1.559319 -1.062266
vt 0.981142 0.743185
vt 0.981142 0.652164
vt 0.977191 0.652164
vt 0.977191 0.743185
vt 0.572430 0.923418
vt 0.665666 0.923418
vt 0.665666 0.913792
vt 0.572430 0.913792
vt 0.998999 0.092022
vt 0.998999 0.001001
vt 0.995049 0.001001
vt 0.995049 0.092022
vt 0.667668 0.981557
vt 0.760904 0.981557
vt 0.760904 0.971931
vt 0.667668 0.971931
vt 0.118047 0.917604
vt 0.118047 0.907978
vt 0.114096 0.907978
vt 0.114096 0.917604
vt 0.112094 0.917604
vt 0.112094 0.907978
vt 0.108144 0.907978
vt 0.108144 0.917604
vt 0.969237 0.185046
vt 0.969237 0.094024
vt 0.965287 0.094024
vt 0.965287 0.185046
vt 0.858144 0.969929
vt 0.951380 0.969929
vt 0.951380 0.960303
vt 0.858144 0.960303
vt 0.963285 0.836208
vt 0.963285 0.745187
vt 0.959334 0.745187
vt 0.959334 0.836208
vt 0.096239 0.975743
vt 0.189475 0.975743
vt 0.189475 0.966117
vt 0.096239 0.966117
vt 0.118047 0.905976
vt 0.118047 0.896350
vt 0.114096 0.896350
vt 0.114096 0.905976
vt 0.112094 0.905976
vt 0.112094 0.896350
vt 0.108144 0.896350
vt 0.108144 0.905976
vt 0.981142 0.464115
vt 0.981142 0.373094
vt 0.977191 0.373094
vt 0.977191 0.464115
vt 0.762906 0.946673
vt 0.856142 0.946673
vt 0.856142 0.937048
vt 0.762906 0.937048
vt 0.981142 0.278069
vt 0.981142 0.187048
vt 0.977191 0.187048
vt 0.977191 0.278069
vt 0.001001 0.952487
vt 0.094237 0.952487
vt 0.094237 0.942861
vt 0.001001 0.942861
vt 0.903761 0.847836
vt 0.903761 0.838210
vt 0.899811 0.838210
vt 0.899811 0.847836
vt 0.897809 0.847836
vt 0.897809 0.838210
vt 0.893858 0.838210
vt 0.893858 0.847836
vn -0.9976 0.0689 0.0000
vn 0.0000 0.0000 -1.0000
vn 0.9976 -0.0689 0.0000
vn 0.0000 0.0000 1.0000
vn -0.0369 -0.9993 0.0000
vn 0.0369 0.9993 0.0000
usemtl Material.001
s 1
f 405/1266/27 406/1267/27 407/1268/27 408/1269/27
f 408/1270/28 407/1271/28 409/1272/28 410/1273/28
f 410/1274/29 409/1275/29 411/1276/29 412/1277/29
f 412/1278/30 411/1279/30 406/1280/30 405/1281/30
f 408/1282/31 410/1283/31 412/1284/31 405/1285/31
f 409/1286/32 407/1287/32 406/1288/32 411/1289/32
f 413/1290/27 414/1291/27 415/1292/27 416/1293/27
f 416/1294/28 415/1295/28 417/1296/28 418/1297/28
f 418/1298/29 417/1299/29 419/1300/29 420/1301/29
f 420/1302/30 419/1303/30 414/1304/30 413/1305/30
f 416/1306/31 418/1307/31 420/1308/31 413/1309/31
f 417/1310/32 415/1311/32 414/1312/32 419/1313/32
f 421/1314/27 422/1315/27 423/1316/27 424/1317/27
f 424/1318/28 423/1319/28 425/1320/28 426/1321/28
f 426/1322/29 425/1323/29 427/1324/29 428/1325/29
f 428/1326/30 427/1327/30 422/1328/30 421/1329/30
f 424/1330/31 426/1331/31 428/1332/31 421/1333/31
f 425/1334/32 423/1335/32 422/1336/32 427/1337/32
