# Blender v2.93.0 OBJ File: ''
# www.blender.org
mtllib officeflag.mtl
o Cylinder.002
v 0.269061 -0.299550 -0.151816
v 0.269061 -0.723520 0.062983
v 0.269061 -0.938318 -0.360987
v 0.269061 -0.514349 -0.575786
v 0.191996 -0.192151 0.060170
v 0.191996 -0.616120 0.274968
v 0.023874 -0.138451 0.084861
v 0.095214 -0.562421 0.143424
v 0.095214 0.285519 -0.075256
v 0.191996 0.231819 -0.154629
v 0.269061 0.124420 -0.366615
v 0.269061 -0.090379 -0.790585
v -0.001568 0.339218 0.016300
v -0.021907 -0.106870 0.027193
v -0.001568 -0.508721 0.011880
v -0.016193 -1.501368 -0.260657
v -0.016193 -1.490097 -0.260657
v 0.088357 -1.490097 -0.239861
v 0.088357 -1.501368 -0.239861
v 0.176990 -1.490097 -0.180638
v 0.176990 -1.501368 -0.180638
v 0.236212 -1.490097 -0.092006
v 0.236212 -1.501368 -0.092006
v 0.257009 -1.490097 0.012544
v 0.257009 -1.501368 0.012544
v 0.236212 -1.490097 0.117094
v 0.236212 -1.501368 0.117094
v 0.176990 -1.490097 0.205726
v 0.176990 -1.501368 0.205726
v 0.088357 -1.490097 0.264949
v 0.088357 -1.501368 0.264949
v -0.016193 -1.490097 0.285745
v -0.016193 -1.501368 0.285745
v -0.120742 -1.490097 0.264949
v -0.120742 -1.501368 0.264949
v -0.209375 -1.490097 0.205726
v -0.209375 -1.501368 0.205726
v -0.268597 -1.490097 0.117094
v -0.268597 -1.501368 0.117094
v -0.289393 -1.490097 0.012544
v -0.289393 -1.501368 0.012544
v -0.268597 -1.490097 -0.092006
v -0.268597 -1.501368 -0.092006
v -0.209375 -1.490097 -0.180638
v -0.209375 -1.501368 -0.180638
v 0.018571 -1.490097 0.012544
v 0.015925 -1.490097 0.025848
v -0.120742 -1.490097 -0.239861
v -0.120742 -1.501368 -0.239861
v 0.015925 -1.490097 -0.000760
v 0.015925 -1.455173 -0.000760
v 0.018571 -1.455173 0.012544
v -0.029496 -1.490097 0.044662
v -0.040774 -1.490097 0.037126
v -0.040774 -1.490097 -0.012037
v -0.029496 -1.490097 -0.019574
v 0.008389 -1.490097 -0.012037
v -0.002889 -1.490097 0.044662
v -0.016193 -1.490097 0.047308
v -0.016193 -1.490097 -0.022220
v -0.002889 -1.490097 -0.019574
v -0.050957 -1.490097 0.012544
v -0.048310 -1.490097 -0.000760
v 0.008389 -1.490097 0.037126
v -0.048310 -1.490097 0.025848
v -0.029496 -1.455173 0.044662
v -0.016193 -1.455173 0.047308
v -0.016193 -1.455173 0.030207
v -0.022952 -1.455173 0.028862
v -0.048310 -1.455173 0.025848
v -0.050957 -1.455173 0.012544
v 0.015925 -1.455173 0.025848
v -0.048310 -1.455173 -0.000760
v 0.008389 -1.455173 0.037126
v -0.040774 -1.455173 -0.012037
v -0.002889 -1.455173 0.044662
v -0.029496 -1.455173 -0.019574
v -0.016193 -1.455173 -0.022220
v -0.002889 -1.455173 -0.019574
v 0.008389 -1.455173 -0.012037
v -0.040774 -1.455173 0.037126
v -0.028682 -1.455173 0.000054
v -0.032511 -1.455173 0.005785
v -0.032511 0.334414 0.005785
v -0.028682 0.334414 0.000055
v -0.009433 -1.455173 -0.003774
v -0.003703 -1.455173 0.000054
v -0.028682 -1.455173 0.025034
v 0.000126 -1.455173 0.005785
v -0.032511 -1.455173 0.019303
v 0.001470 -1.455173 0.012544
v -0.033855 -1.455173 0.012544
v 0.000126 -1.455173 0.019303
v -0.003703 -1.455173 0.025034
v -0.009433 -1.455173 0.028862
v -0.022952 -1.455173 -0.003774
v -0.016193 -1.455173 -0.005118
v -0.016193 0.334414 0.030207
v -0.009433 0.334414 0.028863
v -0.003068 0.354106 0.044230
v -0.016193 0.354106 0.046840
v -0.003703 0.334414 0.025034
v -0.022952 0.334414 -0.003774
v -0.016193 0.334414 -0.005118
v -0.009433 0.334414 -0.003774
v -0.022952 0.334414 0.028863
v -0.003703 0.334414 0.000055
v -0.028682 0.334414 0.025034
v 0.000126 0.334414 0.005785
v -0.032511 0.334414 0.019304
v 0.001470 0.334414 0.012544
v -0.033856 0.334414 0.012544
v 0.000126 0.334414 0.019304
v -0.040443 0.354106 -0.011707
v -0.047877 0.354106 -0.000580
v -0.047877 0.379099 -0.000580
v -0.040443 0.379099 -0.011707
v -0.016193 0.354106 -0.021752
v -0.003068 0.354106 -0.019141
v -0.029317 0.354106 -0.019141
v -0.029317 0.354106 0.044230
v 0.008058 0.354106 -0.011707
v -0.040443 0.354106 0.036795
v 0.015493 0.354106 -0.000580
v -0.047877 0.354106 0.025669
v 0.018103 0.354106 0.012544
v -0.050488 0.354106 0.012544
v 0.015493 0.354106 0.025669
v 0.008058 0.354106 0.036795
v -0.003068 0.379099 -0.019141
v 0.008058 0.379099 -0.011707
v 0.008058 0.379099 0.036795
v -0.003068 0.379099 0.044230
v -0.029317 0.379099 -0.019141
v -0.016193 0.379099 0.046840
v -0.029317 0.379099 0.044230
v -0.006582 0.388105 -0.010657
v -0.016193 0.388105 -0.012569
v -0.025803 0.388105 -0.010657
v -0.033950 0.388105 -0.005213
v -0.039394 0.388105 0.002934
v -0.041306 0.388105 0.012544
v -0.039394 0.388105 0.022154
v -0.033950 0.388105 0.030302
v -0.025803 0.388105 0.035746
v -0.016193 0.388105 0.037657
v -0.006582 0.388105 0.035746
v 0.001565 0.388105 0.030302
v 0.007009 0.388105 0.022154
v 0.008920 0.388105 0.012544
v 0.007009 0.388105 0.002934
v 0.001565 0.388105 -0.005213
v 0.015493 0.379099 -0.000580
v -0.040443 0.379099 0.036795
v -0.016193 0.379099 -0.021752
v -0.047877 0.379099 0.025669
v 0.018103 0.379099 0.012544
v -0.050488 0.379099 0.012544
v 0.015493 0.379099 0.025669
v 0.271194 -0.298973 -0.149551
v 0.271194 -0.722943 0.065247
v 0.271194 -0.513772 -0.573521
v 0.194130 -0.191574 0.062434
v 0.271194 0.124997 -0.364350
v 0.271194 -0.937742 -0.358723
v 0.194130 -0.615544 0.277232
v 0.271194 -0.089802 -0.788320
v 0.026007 -0.137874 0.087125
v 0.194130 0.232396 -0.152365
v 0.097347 -0.561844 0.145688
v 0.097347 0.286096 -0.072992
v -0.019773 -0.106293 0.029457
v 0.000565 -0.508144 0.014144
v 0.000565 0.339795 0.018565
v 0.196115 -0.193674 0.055400
v 0.196115 -0.617644 0.270198
v 0.027993 -0.139975 0.080091
v 0.099333 -0.563944 0.138654
vt 0.500000 0.238281
vt 0.968808 0.233653
vt 0.975626 0.024018
vt 0.506818 0.028646
vt 0.265596 0.240595
vt 0.272414 0.030960
vt 0.148394 0.241752
vt 0.155211 0.032117
vt 0.141576 0.451388
vt 0.258778 0.450231
vt 0.493182 0.447917
vt 0.961991 0.443288
vt 0.024374 0.452545
vt 0.031192 0.242909
vt 0.038010 0.033274
vt 0.500000 0.238281
vt 0.506818 0.028646
vt 0.975626 0.024018
vt 0.968808 0.233653
vt 0.265596 0.240595
vt 0.272414 0.030960
vt 0.155211 0.032117
vt 0.148394 0.241752
vt 0.148394 0.241752
vt 0.155211 0.032117
vt 0.141576 0.451388
vt 0.258778 0.450231
vt 0.493182 0.447917
vt 0.961991 0.443288
vt 0.024374 0.452545
vt 0.031192 0.242909
vt 0.038010 0.033274
vt 0.265596 0.240595
vt 0.272414 0.030960
vt 0.960817 0.745317
vt 0.960817 0.954770
vt 0.934643 0.954770
vt 0.934643 0.745317
vt 0.908468 0.954770
vt 0.908468 0.745317
vt 0.882265 0.954770
vt 0.882265 0.745317
vt 0.856091 0.954770
vt 0.856091 0.745317
vt 0.829916 0.954770
vt 0.829916 0.745317
vt 0.803741 0.954770
vt 0.803741 0.745317
vt 0.777538 0.954770
vt 0.777538 0.745317
vt 0.751364 0.954770
vt 0.751364 0.745317
vt 0.725189 0.954770
vt 0.725189 0.745317
vt 0.699015 0.954770
vt 0.699015 0.745317
vt 0.672840 0.954770
vt 0.672840 0.745317
vt 0.646637 0.954770
vt 0.646637 0.745317
vt 0.620462 0.954770
vt 0.620462 0.745317
vt 0.594288 0.954770
vt 0.594288 0.745317
vt 0.856091 0.954770
vt 0.829916 0.954770
vt 0.568113 0.954770
vt 0.568113 0.745317
vt 0.541910 0.954770
vt 0.541910 0.745317
vt 0.856091 0.741147
vt 0.894578 0.733482
vt 0.927176 0.711703
vt 0.948983 0.679076
vt 0.956619 0.640590
vt 0.948983 0.602131
vt 0.927176 0.569504
vt 0.894578 0.547725
vt 0.856091 0.540062
vt 0.817631 0.547725
vt 0.785005 0.569504
vt 0.763225 0.602131
vt 0.755562 0.640590
vt 0.763225 0.679076
vt 0.785005 0.711703
vt 0.817631 0.733482
vt 0.882265 0.954770
vt 0.882265 0.954770
vt 0.856091 0.954770
vt 0.725189 0.954770
vt 0.699015 0.954770
vt 0.594288 0.954770
vt 0.568113 0.954770
vt 0.908468 0.954770
vt 0.777538 0.954770
vt 0.751364 0.954770
vt 0.960817 0.954770
vt 0.934643 0.954770
vt 0.646637 0.954770
vt 0.620462 0.954770
vt 0.803741 0.954770
vt 0.672840 0.954770
vt 0.541910 0.954770
vt 0.725189 0.954770
vt 0.751364 0.954770
vt 0.751364 0.954770
vt 0.725189 0.954770
vt 0.672840 0.954770
vt 0.646637 0.954770
vt 0.829916 0.954770
vt 0.620462 0.954770
vt 0.803741 0.954770
vt 0.594288 0.954770
vt 0.777538 0.954770
vt 0.568113 0.954770
vt 0.960817 0.954770
vt 0.934643 0.954770
vt 0.541910 0.954770
vt 0.908468 0.954770
vt 0.699015 0.954770
vt 0.594288 0.954770
vt 0.620462 0.954770
vt 0.620462 0.954770
vt 0.594288 0.954770
vt 0.934643 0.954770
vt 0.908468 0.954770
vt 0.699015 0.954770
vt 0.882265 0.954770
vt 0.672840 0.954770
vt 0.856091 0.954770
vt 0.646637 0.954770
vt 0.829916 0.954770
vt 0.803741 0.954770
vt 0.777538 0.954770
vt 0.568113 0.954770
vt 0.960817 0.954770
vt 0.541910 0.954770
vt 0.751364 0.954770
vt 0.777538 0.954770
vt 0.777538 0.954770
vt 0.751364 0.954770
vt 0.803741 0.954770
vt 0.568113 0.954770
vt 0.960817 0.954770
vt 0.934643 0.954770
vt 0.541910 0.954770
vt 0.725189 0.954770
vt 0.908468 0.954770
vt 0.699015 0.954770
vt 0.882265 0.954770
vt 0.672840 0.954770
vt 0.856091 0.954770
vt 0.646637 0.954770
vt 0.829916 0.954770
vt 0.594288 0.954770
vt 0.620462 0.954770
vt 0.620462 0.954770
vt 0.594288 0.954770
vt 0.960817 0.954770
vt 0.934643 0.954770
vt 0.568113 0.954770
vt 0.541910 0.954770
vt 0.725189 0.954770
vt 0.908468 0.954770
vt 0.699015 0.954770
vt 0.882265 0.954770
vt 0.672840 0.954770
vt 0.856091 0.954770
vt 0.646637 0.954770
vt 0.829916 0.954770
vt 0.803741 0.954770
vt 0.934643 0.954770
vt 0.908468 0.954770
vt 0.803741 0.954770
vt 0.777538 0.954770
vt 0.568113 0.954770
vt 0.751364 0.954770
vt 0.725189 0.954770
vt 0.674812 0.708604
vt 0.646637 0.714212
vt 0.618462 0.708604
vt 0.594597 0.692657
vt 0.578623 0.668765
vt 0.573015 0.640590
vt 0.578623 0.612415
vt 0.594597 0.588550
vt 0.618462 0.572576
vt 0.646637 0.566997
vt 0.674812 0.572576
vt 0.698704 0.588550
vt 0.714651 0.612415
vt 0.720259 0.640590
vt 0.714651 0.668765
vt 0.698704 0.692657
vt 0.882265 0.954770
vt 0.699015 0.954770
vt 0.541910 0.954770
vt 0.672840 0.954770
vt 0.856091 0.954770
vt 0.646637 0.954770
vt 0.829916 0.954770
vt 0.960817 0.954770
vt 0.957322 0.954770
vt 0.938136 0.954770
vt 0.931121 0.954770
vt 0.911961 0.954770
vt 0.904947 0.954770
vt 0.885787 0.954770
vt 0.878770 0.954770
vt 0.859612 0.954770
vt 0.852596 0.954770
vt 0.833409 0.954770
vt 0.826421 0.954770
vt 0.807234 0.954770
vt 0.800220 0.954770
vt 0.781060 0.954770
vt 0.774045 0.954770
vt 0.754885 0.954770
vt 0.747871 0.954770
vt 0.728682 0.954770
vt 0.721696 0.954770
vt 0.702508 0.954770
vt 0.695493 0.954770
vt 0.676333 0.954770
vt 0.669318 0.954770
vt 0.650159 0.954770
vt 0.643144 0.954770
vt 0.623955 0.954770
vt 0.616969 0.954770
vt 0.597781 0.954770
vt 0.590766 0.954770
vt 0.571606 0.954770
vt 0.564592 0.954770
vt 0.545432 0.954770
vn -1.0000 -0.0000 0.0000
vn -0.3672 -0.4204 -0.8297
vn -0.3267 -0.8106 -0.4859
vn -0.6763 -0.6571 0.3329
vn -0.9512 -0.1394 -0.2752
vn -0.8168 -0.5769 -0.0047
vn -0.6582 -0.7405 0.1359
vn -0.2611 0.2762 0.9249
vn -0.0995 0.2736 0.9567
vn 0.8812 -0.1839 -0.4355
vn -0.1951 0.4336 -0.8797
vn -0.2180 0.3890 -0.8951
vn -0.4574 -0.3271 -0.8269
vn -0.4810 0.6991 -0.5291
vn -0.7546 0.4325 -0.4934
vn -0.4037 0.8161 -0.4135
vn -0.2864 0.1806 -0.9409
vn -0.6874 0.6713 -0.2771
vn -0.1145 0.4794 -0.8701
vn -0.3133 -0.1513 -0.9375
vn -0.8655 -0.1219 -0.4858
vn 0.5051 0.0657 -0.8605
vn -0.5223 -0.5074 -0.6854
vn 0.6563 -0.4009 -0.6391
vn -0.8099 -0.0594 0.5835
vn 1.0000 0.0000 0.0000
vn 0.8818 -0.4207 0.2131
vn 0.6334 -0.7717 0.0574
vn 0.9301 -0.1660 -0.3276
vn 0.9512 0.1394 0.2752
vn 0.7546 -0.4325 0.4934
vn 0.4810 -0.6991 0.5291
vn -0.1288 -0.9162 0.3795
vn -0.7428 0.5544 -0.3753
vn -0.5376 0.7542 -0.3770
vn -0.5334 -0.3084 -0.7876
vn 0.4348 0.8536 0.2868
vn 0.4574 0.3271 0.8269
vn 0.4420 0.8386 0.3184
vn 0.8168 0.5769 0.0047
vn 0.6582 0.7405 -0.1359
vn 0.9200 0.3497 -0.1772
vn 0.7936 0.3577 -0.4921
vn -0.1730 0.7181 0.6741
vn -0.2165 0.1228 0.9685
vn 0.3133 0.1513 0.9375
vn 0.3581 0.8346 0.4186
vn 0.7620 0.0614 -0.6447
vn 0.8099 0.0594 -0.5835
vn 0.7939 -0.0363 -0.6069
vn 0.7629 -0.0616 -0.6436
vn 0.3165 -0.9127 -0.2583
vn -0.5051 -0.0657 0.8606
vn 0.5223 0.5073 0.6854
vn -0.7628 0.0616 0.6436
vn -0.7620 -0.0614 0.6447
vn 0.2611 -0.2762 -0.9249
vn 0.5015 -0.7875 -0.3584
vn 0.7232 0.6907 -0.0021
vn 0.8072 0.5880 0.0523
vn 0.1951 0.0000 -0.9808
vn 0.5556 0.0000 -0.8315
vn 0.8315 0.0000 -0.5556
vn 0.9808 0.0000 -0.1951
vn 0.9808 0.0000 0.1951
vn 0.8315 0.0000 0.5556
vn 0.5556 0.0000 0.8315
vn 0.1951 0.0000 0.9808
vn -0.1951 0.0000 0.9808
vn -0.5556 0.0000 0.8315
vn -0.8315 0.0000 0.5556
vn -0.9808 -0.0000 0.1951
vn -0.9808 0.0000 -0.1951
vn -0.8315 0.0000 -0.5556
vn -0.0000 1.0000 0.0000
vn -0.5556 0.0000 -0.8315
vn -0.1951 0.0000 -0.9808
vn 0.0000 -1.0000 -0.0000
vn 0.8315 -0.0000 0.5555
vn -0.5556 0.0000 -0.8314
vn 0.1502 -0.6380 0.7553
vn 0.1950 0.0000 -0.9808
vn -0.1950 0.0000 -0.9808
vn 0.1502 -0.6380 -0.7553
vn -0.1502 -0.6380 -0.7553
vn -0.1502 -0.6380 0.7553
vn 0.4278 -0.6380 -0.6403
vn -0.4278 -0.6380 0.6403
vn 0.6403 -0.6380 -0.4279
vn -0.6403 -0.6379 0.4278
vn 0.7553 -0.6380 -0.1502
vn -0.7553 -0.6379 0.1503
vn 0.7553 -0.6380 0.1502
vn -0.7553 -0.6379 -0.1503
vn 0.6403 -0.6380 0.4279
vn -0.6403 -0.6379 -0.4278
vn 0.4278 -0.6380 0.6403
vn -0.4278 -0.6379 -0.6403
vn 0.1380 0.7071 -0.6935
vn 0.3929 0.7071 -0.5879
vn 0.5879 0.7071 -0.3928
vn 0.6935 0.7071 -0.1379
vn 0.6935 0.7071 0.1379
vn 0.5879 0.7071 0.3928
vn 0.3929 0.7071 0.5879
vn 0.1379 0.7071 0.6935
vn -0.1379 0.7071 0.6935
vn -0.3929 0.7071 0.5879
vn -0.5879 0.7071 0.3928
vn -0.6935 0.7071 0.1380
vn -0.6935 0.7071 -0.1380
vn -0.5879 0.7071 -0.3928
vn -0.3929 0.7071 -0.5879
vn -0.1380 0.7071 -0.6935
usemtl Material.001
s 1
f 1/1/1 4/2/2 3/3/3 2/4/4
f 5/5/5 1/1/5 2/4/6 6/6/7
f 7/7/8 8/8/9 6/6/10 5/5/8
f 9/9/11 10/10/12 5/5/13 7/7/13
f 10/10/14 11/11/15 1/1/5 5/5/5
f 11/11/16 12/12/17 4/2/2 1/1/1
f 13/13/18 9/9/19 7/7/20 14/14/21
f 14/14/22 15/15/23 8/8/24 7/7/25
f 160/16/26 161/17/27 165/18/28 162/19/29
f 163/20/30 166/21/31 161/17/32 160/16/30
f 170/22/33 168/23/34 177/24/35 178/25/36
f 171/26/37 168/23/38 163/20/38 169/27/39
f 169/27/40 163/20/30 160/16/30 164/28/41
f 164/28/42 160/16/26 162/19/29 167/29/43
f 174/30/44 172/31/45 168/23/46 171/26/47
f 172/31/48 168/23/49 170/22/50 173/32/51
f 4/2/2 12/12/17 167/29/43 162/19/29
f 3/3/3 4/2/2 162/19/29 165/18/28
f 8/8/9 170/22/33 166/21/52 6/6/10
f 13/13/18 14/14/21 172/31/45 174/30/44
f 15/15/23 173/32/51 170/22/50 8/8/24
f 2/4/4 3/3/3 165/18/28 161/17/27
f 14/14/53 15/15/54 173/32/55 172/31/56
f 10/10/12 9/9/11 171/26/37 169/27/39
f 6/6/7 2/4/6 161/17/32 166/21/31
f 12/12/17 11/11/16 164/28/42 167/29/43
f 9/9/19 13/13/18 174/30/44 171/26/47
f 11/11/15 10/10/14 169/27/40 164/28/41
f 177/24/57 175/33/57 176/34/58 178/25/36
f 163/20/59 166/21/52 176/34/58 175/33/60
f 166/21/52 170/22/33 178/25/36 176/34/58
f 168/23/34 163/20/59 175/33/60 177/24/35
f 16/35/61 17/36/61 18/37/61 19/38/61
f 19/38/62 18/37/62 20/39/62 21/40/62
f 21/40/63 20/39/63 22/41/63 23/42/63
f 23/42/64 22/41/64 24/43/64 25/44/64
f 25/44/65 24/43/65 26/45/65 27/46/65
f 27/46/66 26/45/66 28/47/66 29/48/66
f 29/48/67 28/47/67 30/49/67 31/50/67
f 31/50/68 30/49/68 32/51/68 33/52/68
f 33/52/69 32/51/69 34/53/69 35/54/69
f 35/54/70 34/53/70 36/55/70 37/56/70
f 37/56/71 36/55/71 38/57/71 39/58/71
f 39/58/72 38/57/72 40/59/72 41/60/72
f 41/60/73 40/59/73 42/61/73 43/62/73
f 43/62/74 42/61/74 44/63/74 45/64/74
f 26/45/75 24/43/75 46/65/75 47/66/75
f 45/64/76 44/63/76 48/67/76 49/68/76
f 49/68/77 48/67/77 17/69/77 16/70/77
f 16/71/78 19/72/78 21/73/78 23/74/78 25/75/78 27/76/78 29/77/78 31/78/78 33/79/78 35/80/78 37/81/78 39/82/78 41/83/78 43/84/78 45/85/78 49/86/78
f 46/65/64 50/87/64 51/88/64 52/89/64
f 36/55/75 34/53/75 53/90/75 54/91/75
f 48/67/75 44/63/75 55/92/75 56/93/75
f 22/41/75 20/39/75 57/94/75 50/87/75
f 32/51/75 30/49/75 58/95/75 59/96/75
f 18/37/75 17/36/75 60/97/75 61/98/75
f 42/61/75 40/59/75 62/99/75 63/100/75
f 28/47/75 26/45/75 47/66/75 64/101/75
f 38/57/75 36/55/75 54/91/75 65/102/75
f 17/69/75 48/67/75 56/93/75 60/103/75
f 24/43/75 22/41/75 50/87/75 46/65/75
f 34/53/75 32/51/75 59/96/75 53/90/75
f 44/63/75 42/61/75 63/100/75 55/92/75
f 20/39/75 18/37/75 61/98/75 57/94/75
f 30/49/75 28/47/75 64/101/75 58/95/75
f 40/59/75 38/57/75 65/102/75 62/99/75
f 66/104/75 67/105/75 68/106/75 69/107/75
f 62/99/72 65/102/72 70/108/72 71/109/72
f 47/66/65 46/65/65 52/89/65 72/110/65
f 63/100/73 62/99/73 71/109/73 73/111/73
f 64/101/79 47/66/79 72/110/79 74/112/79
f 55/92/74 63/100/74 73/111/74 75/113/74
f 58/95/67 64/101/67 74/112/67 76/114/67
f 56/93/80 55/92/80 75/113/80 77/115/80
f 59/96/68 58/95/68 76/114/68 67/105/68
f 61/98/61 60/97/61 78/116/61 79/117/61
f 60/103/77 56/93/77 77/115/77 78/118/77
f 53/90/69 59/96/69 67/105/69 66/104/69
f 57/94/62 61/98/62 79/117/62 80/119/62
f 54/91/70 53/90/70 66/104/70 81/120/70
f 50/87/63 57/94/63 80/119/63 51/88/63
f 65/102/71 54/91/71 81/120/71 70/108/71
f 82/121/74 83/122/74 84/123/74 85/124/74
f 80/119/75 79/117/75 86/125/75 87/126/75
f 81/120/75 66/104/75 69/107/75 88/127/75
f 51/88/75 80/119/75 87/126/75 89/128/75
f 70/108/75 81/120/75 88/127/75 90/129/75
f 52/89/75 51/88/75 89/128/75 91/130/75
f 71/109/75 70/108/75 90/129/75 92/131/75
f 72/110/75 52/89/75 91/130/75 93/132/75
f 73/111/75 71/109/75 92/131/75 83/122/75
f 74/112/75 72/110/75 93/132/75 94/133/75
f 75/113/75 73/111/75 83/122/75 82/121/75
f 76/114/75 74/112/75 94/133/75 95/134/75
f 77/115/75 75/113/75 82/121/75 96/135/75
f 67/105/75 76/114/75 95/134/75 68/106/75
f 79/117/75 78/116/75 97/136/75 86/125/75
f 78/118/75 77/115/75 96/135/75 97/137/75
f 98/138/81 99/139/81 100/140/81 101/141/81
f 95/134/67 94/133/67 102/142/67 99/139/67
f 96/135/76 82/121/76 85/124/76 103/143/76
f 68/106/68 95/134/68 99/139/68 98/138/68
f 86/125/82 97/136/82 104/144/82 105/145/82
f 97/137/83 96/135/83 103/143/83 104/146/83
f 69/107/69 68/106/69 98/138/69 106/147/69
f 87/126/62 86/125/62 105/145/62 107/148/62
f 88/127/70 69/107/70 106/147/70 108/149/70
f 89/128/63 87/126/63 107/148/63 109/150/63
f 90/129/71 88/127/71 108/149/71 110/151/71
f 91/130/64 89/128/64 109/150/64 111/152/64
f 92/131/72 90/129/72 110/151/72 112/153/72
f 93/132/65 91/130/65 111/152/65 113/154/65
f 83/122/73 92/131/73 112/153/73 84/123/73
f 94/133/66 93/132/66 113/154/66 102/142/66
f 114/155/74 115/156/74 116/157/74 117/158/74
f 105/145/84 104/144/84 118/159/84 119/160/84
f 104/146/85 103/143/85 120/161/85 118/162/85
f 106/147/86 98/138/86 101/141/86 121/163/86
f 107/148/87 105/145/87 119/160/87 122/164/87
f 108/149/88 106/147/88 121/163/88 123/165/88
f 109/150/89 107/148/89 122/164/89 124/166/89
f 110/151/90 108/149/90 123/165/90 125/167/90
f 111/152/91 109/150/91 124/166/91 126/168/91
f 112/153/92 110/151/92 125/167/92 127/169/92
f 113/154/93 111/152/93 126/168/93 128/170/93
f 84/123/94 112/153/94 127/169/94 115/156/94
f 102/142/95 113/154/95 128/170/95 129/171/95
f 85/124/96 84/123/96 115/156/96 114/155/96
f 99/139/97 102/142/97 129/171/97 100/140/97
f 103/143/98 85/124/98 114/155/98 120/161/98
f 122/164/62 119/160/62 130/172/62 131/173/62
f 100/140/67 129/171/67 132/174/67 133/175/67
f 120/161/76 114/155/76 117/158/76 134/176/76
f 101/141/68 100/140/68 133/175/68 135/177/68
f 121/163/69 101/141/69 135/177/69 136/178/69
f 137/179/75 138/180/75 139/181/75 140/182/75 141/183/75 142/184/75 143/185/75 144/186/75 145/187/75 146/188/75 147/189/75 148/190/75 149/191/75 150/192/75 151/193/75 152/194/75
f 124/166/63 122/164/63 131/173/63 153/195/63
f 123/165/70 121/163/70 136/178/70 154/196/70
f 118/162/77 120/161/77 134/176/77 155/197/77
f 125/167/71 123/165/71 154/196/71 156/198/71
f 126/168/64 124/166/64 153/195/64 157/199/64
f 127/169/72 125/167/72 156/198/72 158/200/72
f 128/170/65 126/168/65 157/199/65 159/201/65
f 115/156/73 127/169/73 158/200/73 116/157/73
f 129/171/66 128/170/66 159/201/66 132/174/66
f 130/172/99 155/202/99 138/203/99 137/204/99
f 131/173/100 130/172/100 137/205/100 152/206/100
f 153/195/101 131/173/101 152/207/101 151/208/101
f 157/199/102 153/195/102 151/209/102 150/210/102
f 159/201/103 157/199/103 150/211/103 149/212/103
f 132/174/104 159/201/104 149/213/104 148/214/104
f 133/175/105 132/174/105 148/215/105 147/216/105
f 135/177/106 133/175/106 147/217/106 146/218/106
f 136/178/107 135/177/107 146/219/107 145/220/107
f 154/196/108 136/178/108 145/221/108 144/222/108
f 156/198/109 154/196/109 144/223/109 143/224/109
f 158/200/110 156/198/110 143/225/110 142/226/110
f 116/157/111 158/200/111 142/227/111 141/228/111
f 117/158/112 116/157/112 141/229/112 140/230/112
f 134/176/113 117/158/113 140/231/113 139/232/113
f 155/197/114 134/176/114 139/233/114 138/234/114
f 119/160/61 118/159/61 155/202/61 130/172/61
