# Blender v3.6.3 OBJ File: ''
# www.blender.org
mtllib lampadaire.mtl
o Cylinder
v 0.000000 -0.048094 -0.081564
v 0.000000 0.134539 -0.061063
v 0.058074 0.134539 -0.018869
v 0.077572 -0.048094 -0.025205
v 0.035892 0.134539 0.049401
v 0.047942 -0.048094 0.065987
v -0.035892 0.134539 0.049401
v -0.047942 -0.048094 0.065987
v 0.063361 0.159025 -0.020587
v 0.039159 0.159025 0.053898
v -0.058074 0.134539 -0.018869
v -0.077572 -0.048094 -0.025205
v -0.122864 -0.123461 0.169107
v -0.198798 -0.123461 -0.064593
v -0.286860 -0.258303 -0.093207
v -0.177290 -0.258303 0.244018
v 0.000000 -0.258303 -0.301623
v 0.286860 -0.258303 -0.093207
v 0.177290 -0.258303 0.244018
v 0.198798 -0.123461 -0.064593
v 0.122864 -0.123461 0.169107
v 0.000000 -0.123461 -0.209028
v -0.039159 0.159025 0.053898
v 0.039159 0.218014 0.053898
v -0.039159 0.218014 0.053898
v -0.063361 0.159025 -0.020587
v 0.000000 0.159025 -0.066621
v -0.063361 0.218014 -0.020587
v -0.027319 0.234152 0.037601
v -0.044203 0.234152 -0.014362
v 0.000000 0.218014 -0.066621
v 0.063361 0.218014 -0.020587
v 0.000000 0.234152 -0.046477
v -0.044203 0.300375 -0.014362
v 0.000000 0.300375 -0.046477
v 0.044203 0.234152 -0.014362
v 0.027319 0.234152 0.037601
v 0.044203 0.300375 -0.014362
v 0.000000 0.323192 -0.057877
v 0.055044 0.323192 -0.017885
v 0.027319 0.300375 0.037601
v -0.027319 0.300375 0.037601
v 0.034019 0.323192 0.046823
v 0.076049 0.442442 -0.024710
v 0.047001 0.442442 0.064691
v -0.034019 0.323192 0.046823
v -0.055044 0.323192 -0.017885
v -0.047001 0.442442 0.064691
v 0.047001 0.558268 0.064691
v -0.047001 0.558268 0.064691
v -0.076049 0.442442 -0.024710
v 0.000000 0.442442 -0.079963
v 0.049845 0.859829 0.068606
v 0.058538 0.778271 0.080570
v 0.094716 0.778271 -0.030775
v 0.080651 0.859829 -0.026205
v 0.000000 0.558268 -0.079963
v 0.076049 0.558268 -0.024710
v -0.076049 0.558268 -0.024710
v -0.080651 0.859829 -0.026205
v -0.094716 0.778271 -0.030775
v -0.058538 0.778271 0.080570
v -0.049845 0.859829 0.068606
v 0.000000 0.859829 -0.084802
v 0.000000 0.778271 -0.099591
v 0.040689 1.923126 0.056004
v -0.040690 1.923126 0.056004
v 0.097467 0.640980 -0.031669
v 0.060238 0.640980 0.082911
v -0.060238 0.640980 0.082911
v 0.000000 0.640980 -0.102483
v -0.097467 0.640980 -0.031669
v -0.065837 1.923126 -0.021392
v -0.000000 1.923126 -0.069225
v 0.065836 1.923126 -0.021392
v 0.054167 2.012515 0.074555
v -0.054168 2.012515 0.074555
v -0.000000 2.012515 -0.092156
v 0.087645 2.012515 -0.028478
v -0.087645 2.012515 -0.028478
v -0.054168 2.054149 0.074555
v 0.054167 2.054149 0.074555
v 0.054167 2.106640 0.074555
v -0.054168 2.106640 0.074555
v -0.087645 2.106640 -0.028478
v -0.068449 2.343039 0.094212
v -0.110753 2.343039 -0.035986
v 0.087645 2.106640 -0.028478
v -0.000000 2.106640 -0.092156
v -0.000000 2.343039 -0.116452
v 0.110752 2.343039 -0.035986
v 0.068449 2.343039 0.094212
v -0.087645 2.054149 -0.028478
v 0.087645 2.054149 -0.028478
v -0.000000 2.054149 -0.092156
v 0.046687 2.020066 0.064259
v -0.046687 2.020066 0.064259
v 0.075541 2.020066 -0.024545
v -0.075541 2.020066 -0.024545
v -0.000000 2.020066 -0.079428
v 0.054761 2.346534 -0.017793
v -0.000000 2.346534 -0.057579
v 0.000000 2.544923 -0.057579
v 0.054761 2.544923 -0.017793
v -0.046687 2.046598 0.064259
v 0.046687 2.046598 0.064259
v 0.075541 2.046598 -0.024545
v -0.000000 2.046598 -0.079428
v -0.075541 2.046598 -0.024545
v 0.033844 2.346534 0.046582
v -0.033844 2.346534 0.046582
v -0.054761 2.346534 -0.017793
v -0.054761 2.544923 -0.017793
v -0.033844 2.544923 0.046582
v 0.033844 2.544923 0.046582
v 0.000000 2.509081 -0.078661
v 0.000000 2.578435 -0.170624
v 0.162273 2.578435 -0.052726
v 0.074811 2.509081 -0.024308
v 0.100290 2.578435 0.138037
v 0.046236 2.509081 0.063638
v -0.100290 2.578435 0.138037
v -0.046236 2.509081 0.063638
v -0.162273 2.578435 -0.052726
v -0.074811 2.509081 -0.024308
v -0.162273 2.866905 -0.052726
v -0.100290 2.866905 0.138037
v -0.033560 3.014310 0.046191
v -0.054301 3.014310 -0.017644
v 0.000000 3.014310 -0.057095
v -0.074919 3.038877 -0.024343
v 0.000000 3.038877 -0.078775
v 0.100290 2.866905 0.138037
v 0.162273 2.866905 -0.052726
v 0.054301 3.014310 -0.017644
v 0.033560 3.014310 0.046191
v 0.000000 2.866905 -0.170624
v 0.074919 3.038877 -0.024343
v 0.000000 3.047595 -0.078775
v 0.074919 3.047595 -0.024343
v 0.046303 3.038877 0.063730
v -0.046303 3.038877 0.063730
v 0.046303 3.047595 0.063730
v 0.041148 3.080087 -0.013370
v 0.025431 3.080087 0.035002
v -0.046303 3.047595 0.063730
v -0.074919 3.047595 -0.024343
v -0.025431 3.080087 0.035002
v 0.004841 3.100692 0.006662
v -0.004841 3.100692 0.006662
v -0.041148 3.080087 -0.013370
v 0.000000 3.080087 -0.043266
v 0.000000 3.100692 -0.008235
v -0.007832 3.100692 -0.002545
v -0.007832 3.158545 -0.002545
v 0.000000 3.158545 -0.008235
v 0.007832 3.100692 -0.002545
v 0.007832 3.158545 -0.002545
v -0.004841 3.158545 0.006662
v 0.004841 3.158545 0.006662
v -0.106956 2.600006 0.117522
v -0.155607 2.600006 -0.032211
v -0.106956 2.845334 0.117522
v -0.155607 2.845334 -0.032211
v 0.155607 2.600006 -0.032211
v 0.106956 2.600006 0.117522
v 0.155607 2.845334 -0.032211
v 0.106956 2.845334 0.117522
v -0.144822 2.600006 -0.065405
v -0.017451 2.600006 -0.157945
v -0.144822 2.845334 -0.065405
v -0.017451 2.845334 -0.157945
v 0.017451 2.600006 -0.157945
v 0.144822 2.600006 -0.065405
v 0.017451 2.845334 -0.157945
v 0.144822 2.845334 -0.065405
v 0.078719 2.600006 0.138037
v -0.078719 2.600006 0.138037
v 0.078719 2.845334 0.138037
v -0.078719 2.845334 0.138037
v 0.000000 2.544055 -0.070998
v 0.067523 2.544055 -0.021940
v 0.146464 2.606653 -0.047589
v 0.000000 2.606653 -0.154002
v 0.041731 2.544055 0.057438
v 0.090520 2.606653 0.124590
v -0.041731 2.544055 0.057438
v -0.090520 2.606653 0.124590
v -0.067523 2.544055 -0.021940
v -0.146464 2.606653 -0.047589
v -0.146464 2.867020 -0.047589
v -0.049011 3.000065 -0.015925
v -0.030290 3.000065 0.041691
v -0.090520 2.867020 0.124590
v 0.000000 3.000065 -0.051533
v -0.067621 3.022239 -0.021971
v 0.000000 3.022239 -0.071101
v 0.090520 2.867020 0.124590
v 0.030290 3.000065 0.041691
v 0.049011 3.000065 -0.015925
v 0.146464 2.867020 -0.047589
v 0.000000 2.867020 -0.154002
v 0.067621 3.022239 -0.021971
v 0.000000 3.030108 -0.071101
v 0.067621 3.030108 -0.021971
v 0.041792 3.022239 0.057521
v -0.041792 3.022239 0.057521
v 0.041792 3.030108 0.057521
v 0.022953 3.059435 0.031592
v 0.037139 3.059435 -0.012067
v -0.041792 3.030108 0.057521
v -0.067621 3.030108 -0.021971
v -0.022953 3.059435 0.031592
v -0.004369 3.078032 0.006013
v 0.004369 3.078032 0.006013
v 0.000000 3.059435 -0.039051
v -0.037139 3.059435 -0.012067
v 0.000000 3.078032 -0.007433
v 0.000000 3.130249 -0.007433
v -0.007069 3.130249 -0.002297
v -0.007069 3.078032 -0.002297
v 0.007069 3.078032 -0.002297
v 0.007069 3.130249 -0.002297
v 0.004369 3.130249 0.006013
v -0.004369 3.130249 0.006013
v -0.140448 2.626123 -0.029073
v -0.096536 2.626123 0.106073
v -0.096536 2.847551 0.106073
v -0.140448 2.847551 -0.029073
v 0.096536 2.626123 0.106073
v 0.140448 2.626123 -0.029073
v 0.140448 2.847551 -0.029073
v 0.096536 2.847551 0.106073
v -0.015751 2.626123 -0.142558
v -0.130713 2.626123 -0.059033
v -0.130713 2.847551 -0.059033
v -0.015751 2.847551 -0.142558
v 0.130713 2.626123 -0.059033
v 0.015751 2.626123 -0.142558
v 0.015751 2.847551 -0.142558
v 0.130713 2.847551 -0.059033
v -0.071051 2.626123 0.124590
v 0.071051 2.626123 0.124590
v 0.071051 2.847551 0.124590
v -0.071051 2.847551 0.124590
vt 0.126323 0.911572
vt 0.137442 0.830141
vt 0.170562 0.830141
vt 0.170562 0.911572
vt 0.882018 0.118650
vt 0.893137 0.037219
vt 0.926256 0.037219
vt 0.926256 0.118650
vt 0.602222 0.324016
vt 0.613342 0.242585
vt 0.646461 0.242585
vt 0.646461 0.324016
vt 0.890122 0.026301
vt 0.926256 0.026301
vt 0.679580 0.242585
vt 0.690700 0.324016
vt 0.510048 0.866491
vt 0.516920 0.785576
vt 0.557858 0.785576
vt 0.564730 0.866491
vt 0.564808 0.900033
vt 0.564808 0.786660
vt 0.624930 0.736439
vt 0.624930 0.900033
vt 0.483364 0.327189
vt 0.291047 0.264702
vt 0.291047 0.062488
vt 0.483364 -0.000000
vt 0.602222 0.163595
vt 0.351169 0.490784
vt 0.351169 0.604157
vt 0.291047 0.654378
vt 0.291047 0.490784
vt 0.566818 0.705400
vt 0.566818 0.565263
vt 0.624930 0.534225
vt 0.351169 0.377411
vt 0.291047 0.327189
vt 0.291047 0.817973
vt 0.291047 0.704600
vt 0.351169 0.654378
vt 0.351169 0.817973
vt 0.646461 0.231667
vt 0.610327 0.231667
vt 0.610327 0.205366
vt 0.646461 0.205366
vt 0.515057 0.774553
vt 0.559721 0.774553
vt 0.134427 0.819223
vt 0.170562 0.819223
vt 0.682595 0.231667
vt 0.424522 0.973800
vt 0.424522 0.929136
vt 0.433815 0.935888
vt 0.433815 0.967048
vt 0.134427 0.792922
vt 0.170562 0.792922
vt 0.682595 0.205366
vt 0.890122 0.000000
vt 0.926256 0.000000
vt 0.515057 0.748279
vt 0.559721 0.748279
vt 0.272273 0.793058
vt 0.241114 0.793058
vt 0.241114 0.763562
vt 0.272273 0.763562
vt 0.467000 0.915334
vt 0.493253 0.951468
vt 0.481765 0.951468
vt 0.463450 0.926260
vt 0.467000 0.987602
vt 0.463450 0.976677
vt 0.055585 0.763395
vt 0.030377 0.763395
vt 0.024194 0.753222
vt 0.055585 0.753222
vt 0.166755 0.792922
vt 0.141547 0.792922
vt 0.141547 0.763395
vt 0.166755 0.763395
vt 0.055585 0.792922
vt 0.030377 0.792922
vt 0.191964 0.792922
vt 0.191964 0.763395
vt 0.080793 0.792922
vt 0.080793 0.763395
vt 0.086976 0.753222
vt 0.055585 0.700052
vt 0.098955 0.700052
vt 0.166755 0.753222
vt 0.198146 0.753222
vt 0.237292 0.753160
vt 0.276094 0.753160
vt 0.135364 0.753222
vt 0.166755 0.700052
vt 0.123385 0.700052
vt 0.123385 0.648408
vt 0.166755 0.648408
vt 0.229889 0.699580
vt 0.283498 0.699580
vt 0.012215 0.700052
vt 0.210125 0.700052
vt 0.101580 0.513950
vt 0.109601 0.550315
vt 0.055585 0.550315
vt 0.055585 0.513950
vt 0.012215 0.648408
vt 0.055585 0.648408
vt 0.210125 0.648408
vt 0.098955 0.648408
vt 0.229889 0.647990
vt 0.283498 0.647990
vt 0.212750 0.513950
vt 0.220771 0.550315
vt 0.166755 0.550315
vt 0.166755 0.513950
vt 0.285120 0.513571
vt 0.290077 0.549586
vt 0.223310 0.549586
vt 0.228267 0.513571
vt 0.112739 0.550315
vt 0.120760 0.513950
vt 0.129209 0.039856
vt 0.166755 0.039856
vt 0.055585 0.611529
vt 0.111170 0.611529
vt 0.923996 0.314617
vt 0.923996 0.271247
vt 0.960875 0.271247
vt 0.960875 0.326832
vt 0.000000 0.611529
vt 0.222340 0.610676
vt 0.291047 0.610676
vt 0.233488 0.040297
vt 0.279898 0.040297
vt 0.055585 0.039856
vt 0.093131 0.039856
vt 0.204301 0.039856
vt 0.116772 0.000000
vt 0.166755 0.000000
vt 0.009590 0.513950
vt 0.018039 0.039856
vt 0.166755 0.611529
vt 0.222340 0.611529
vt 0.005602 0.000000
vt 0.055585 0.000000
vt 0.225802 0.000000
vt 0.287585 0.000000
vt 0.166179 0.911572
vt 0.166179 0.949118
vt 0.126323 0.961556
vt 0.126323 0.911572
vt 0.216739 0.000000
vt 0.769152 0.313894
vt 0.719168 0.313894
vt 0.719168 0.290490
vt 0.769152 0.290490
vt 0.819135 0.290490
vt 0.769152 0.185086
vt 0.832313 0.185086
vt 0.063161 0.898326
vt 0.013178 0.898326
vt 0.000000 0.792922
vt 0.063161 0.792922
vt 0.113145 0.898326
vt 0.126323 0.792922
vt 0.819135 0.313894
vt 0.113145 0.921730
vt 0.063161 0.921730
vt 0.013178 0.921730
vt 0.902240 0.314271
vt 0.840457 0.314271
vt 0.840457 0.290891
vt 0.902240 0.290891
vt 0.895231 0.858034
vt 0.901103 0.862301
vt 0.901103 0.915551
vt 0.895231 0.919817
vt 0.953990 0.838942
vt 0.951747 0.845845
vt 0.953990 0.938909
vt 0.951747 0.932006
vt 0.983046 0.888926
vt 0.990305 0.888926
vt 0.944492 0.622681
vt 0.913262 0.622681
vt 0.913262 0.534225
vt 0.944492 0.534225
vt 0.529856 0.919125
vt 0.535728 0.923392
vt 0.535728 0.976642
vt 0.529856 0.980908
vt 0.586372 0.993097
vt 0.588615 1.000000
vt 0.624930 0.950017
vt 0.617672 0.950017
vt 0.586372 0.906936
vt 0.588615 0.900033
vt 0.935826 0.185086
vt 0.935826 0.228166
vt 0.923996 0.228166
vt 0.923996 0.185086
vt 0.938086 -0.000000
vt 0.938086 0.043080
vt 0.926256 0.043080
vt 0.926256 0.000000
vt 0.926256 0.086161
vt 0.926256 0.043080
vt 0.938086 0.043080
vt 0.938086 0.086161
vt 0.536256 0.735806
vt 0.536256 0.682555
vt 0.548073 0.682555
vt 0.548073 0.735806
vt 0.935826 0.271247
vt 0.923996 0.271247
vt 0.705990 0.185086
vt 0.910385 0.185086
vt 0.001569 0.550315
vt 0.351169 0.976548
vt 0.295584 0.976548
vt 0.297153 0.915334
vt 0.351169 0.915334
vt 0.234782 0.887450
vt 0.257472 0.856220
vt 0.291047 0.856220
vt 0.245157 0.919381
vt 0.234782 0.824990
vt 0.198069 0.836919
vt 0.170907 0.817184
vt 0.245157 0.793058
vt 0.198069 0.875521
vt 0.170907 0.895256
vt 0.941420 0.149880
vt 0.918730 0.181110
vt 0.882017 0.169181
vt 0.882017 0.130579
vt 0.918730 0.118650
vt 0.329649 0.906337
vt 0.291047 0.906337
vt 0.291047 0.817973
vt 0.329649 0.817973
vt 0.913472 0.526019
vt 0.882243 0.526019
vt 0.882242 0.437563
vt 0.913472 0.437563
vt 0.944702 0.526019
vt 0.944702 0.437563
vt 0.975721 0.622681
vt 0.975721 0.534225
vt 0.433540 0.553935
vt 0.456003 0.484801
vt 0.508008 0.467903
vt 0.566817 0.510630
vt 0.351169 0.440562
vt 0.423861 0.440562
vt 0.433540 0.327189
vt 0.456003 0.396323
vt 0.566818 0.370494
vt 0.508008 0.413221
vt 0.839588 0.118911
vt 0.882018 0.149738
vt 0.773227 0.185086
vt 0.789433 0.135207
vt 0.705990 0.092543
vt 0.758436 0.092543
vt 0.773227 -0.000000
vt 0.789433 0.049879
vt 0.882018 0.035348
vt 0.839588 0.066175
vt 0.536256 0.619659
vt 0.443712 0.619659
vt 0.443712 0.553935
vt 0.474680 0.553935
vt 0.630232 0.342470
vt 0.591954 0.342470
vt 0.584687 0.331072
vt 0.637499 0.331072
vt 0.790686 0.419732
vt 0.790686 0.512275
vt 0.724962 0.450699
vt 0.724962 0.419732
vt 0.668288 0.405738
vt 0.553898 0.405738
vt 0.790686 0.327189
vt 0.724962 0.388765
vt 0.717473 0.603814
vt 0.636306 0.603814
vt 0.690313 0.546170
vt 0.717473 0.546170
vt 0.566786 0.596661
vt 0.566786 0.639387
vt 0.562899 0.639387
vt 0.562899 0.596661
vt 0.826848 0.915739
vt 0.804349 0.946706
vt 0.791985 0.946706
vt 0.823027 0.903980
vt 0.826848 0.977673
vt 0.863252 0.965845
vt 0.873254 0.973112
vt 0.823027 0.989432
vt 0.863252 0.927567
vt 0.873254 0.920300
vt 0.655972 0.907388
vt 0.706199 0.923707
vt 0.689816 0.935610
vt 0.662230 0.926647
vt 0.566786 0.639387
vt 0.566786 0.682113
vt 0.562899 0.682113
vt 0.562899 0.639387
vt 0.566786 0.553935
vt 0.562899 0.553935
vt 0.584687 0.327189
vt 0.637499 0.327189
vt 0.566786 0.724838
vt 0.562899 0.724838
vt 0.645181 0.950113
vt 0.668403 0.945647
vt 0.665158 0.950113
vt 0.706199 0.976520
vt 0.655972 0.992839
vt 0.662230 0.973580
vt 0.689816 0.964616
vt 0.624930 0.950113
vt 0.554254 0.690077
vt 0.548733 0.690077
vt 0.548733 0.664308
vt 0.554254 0.664308
vt 0.673654 0.952874
vt 0.673654 0.947353
vt 0.668403 0.954580
vt 0.695951 0.306050
vt 0.699196 0.309666
vt 0.695951 0.313282
vt 0.690700 0.311901
vt 0.690700 0.307431
vt 0.795152 0.528395
vt 0.790686 0.528395
vt 0.790686 0.502600
vt 0.795152 0.502600
vt 0.804086 0.528395
vt 0.799619 0.528395
vt 0.799619 0.502600
vt 0.804086 0.502600
vt 0.799619 0.528395
vt 0.799619 0.502600
vt 0.808552 0.528395
vt 0.808552 0.502600
vt 0.536256 0.748279
vt 0.443712 0.748279
vt 0.453665 0.738661
vt 0.526303 0.738661
vt 0.453665 0.629276
vt 0.526303 0.629276
vt 0.798640 0.716624
vt 0.717473 0.716624
vt 0.726202 0.708188
vt 0.789911 0.708188
vt 0.726202 0.612250
vt 0.798640 0.603814
vt 0.789911 0.612250
vt 0.546208 0.553935
vt 0.546208 0.682555
vt 0.536256 0.672938
vt 0.536256 0.563553
vt 0.668288 0.534225
vt 0.553898 0.534225
vt 0.566200 0.524617
vt 0.655986 0.524617
vt 0.566200 0.415346
vt 0.655986 0.415346
vt 0.636306 0.716624
vt 0.645035 0.708188
vt 0.708744 0.708188
vt 0.645035 0.612250
vt 0.708744 0.612250
vt 0.351169 0.748279
vt 0.361122 0.738661
vt 0.433760 0.738661
vt 0.351169 0.619659
vt 0.361122 0.629276
vt 0.433760 0.629276
vt 0.434734 0.870314
vt 0.462712 0.831807
vt 0.510048 0.831807
vt 0.449362 0.915334
vt 0.434734 0.793299
vt 0.449362 0.748279
vt 0.389465 0.808007
vt 0.351169 0.780184
vt 0.389465 0.855606
vt 0.351169 0.883429
vt 0.810016 0.593546
vt 0.844365 0.534225
vt 0.878913 0.534225
vt 0.913262 0.593546
vt 0.510048 0.907599
vt 0.510048 0.873051
vt 0.520336 0.866491
vt 0.520336 0.914159
vt 0.708457 0.791418
vt 0.708457 0.729495
vt 0.736408 0.728569
vt 0.791985 0.788651
vt 0.790686 0.386510
vt 0.825034 0.327189
vt 0.859583 0.327189
vt 0.893931 0.386510
vt 0.624930 0.788651
vt 0.680507 0.728569
vt 0.791985 0.787890
vt 0.826333 0.728569
vt 0.860882 0.728569
vt 0.895231 0.787890
vt 0.561270 0.702839
vt 0.561270 0.741402
vt 0.557762 0.741402
vt 0.557762 0.702839
vt 0.748085 0.918001
vt 0.715227 0.928677
vt 0.706199 0.922117
vt 0.751534 0.907388
vt 0.715227 0.963225
vt 0.748085 0.973902
vt 0.751534 0.984515
vt 0.706199 0.969785
vt 0.768392 0.945951
vt 0.779552 0.945951
vt 0.351169 0.930064
vt 0.365957 0.940808
vt 0.365957 0.966988
vt 0.351169 0.977731
vt 0.557762 0.664275
vt 0.557762 0.702839
vt 0.554254 0.702839
vt 0.554254 0.664275
vt 0.561270 0.664275
vt 0.557762 0.664275
vt 0.523841 0.866491
vt 0.523841 0.914159
vt 0.557762 0.741402
vt 0.554254 0.741402
vt 0.390855 0.932717
vt 0.385283 0.949866
vt 0.380544 0.951406
vt 0.396504 0.992461
vt 0.390855 0.975078
vt 0.406244 0.953898
vt 0.424522 0.953898
vt 0.396504 0.915334
vt 0.548733 0.713359
vt 0.548733 0.690077
vt 0.553716 0.690077
vt 0.553716 0.713359
vt 0.380544 0.956389
vt 0.385283 0.957929
vt 0.388212 0.953898
vt 0.699196 0.310019
vt 0.702125 0.306754
vt 0.706864 0.308001
vt 0.706864 0.312035
vt 0.702125 0.313282
vt 0.808552 0.525858
vt 0.808552 0.502600
vt 0.812584 0.502734
vt 0.812584 0.525992
vt 0.548733 0.736641
vt 0.548733 0.713359
vt 0.553716 0.713359
vt 0.553716 0.736641
vt 0.816615 0.525882
vt 0.816615 0.502600
vt 0.821598 0.502600
vt 0.821598 0.525882
vt 0.816615 0.502600
vt 0.816615 0.525858
vt 0.810016 0.709636
vt 0.821119 0.700955
vt 0.902159 0.700955
vt 0.913262 0.709636
vt 0.902159 0.602226
vt 0.821119 0.602226
vt 0.708457 0.907388
vt 0.717440 0.898418
vt 0.783002 0.896247
vt 0.791985 0.904621
vt 0.783002 0.797621
vt 0.717440 0.799792
vt 0.790686 0.502600
vt 0.801789 0.493919
vt 0.882828 0.493919
vt 0.893931 0.502600
vt 0.882828 0.395191
vt 0.801789 0.395191
vt 0.791985 0.903980
vt 0.803088 0.895299
vt 0.884127 0.895299
vt 0.895231 0.903980
vt 0.884127 0.796570
vt 0.803088 0.796570
vt 0.624930 0.904621
vt 0.633913 0.896247
vt 0.699475 0.898418
vt 0.699475 0.799792
vt 0.633913 0.797621
vt 0.554254 0.664309
vt 0.546208 0.652664
vt 0.546208 0.553935
vt 0.554254 0.554924
vt 0.652092 0.697975
vt 0.709594 0.697975
vt 0.554254 0.555004
vt 0.562899 0.553935
vt 0.562899 0.652561
vt 0.554254 0.664275
vt 0.705287 0.306077
vt 0.699345 0.296650
vt 0.699345 0.216723
vt 0.705287 0.217523
vt 0.896200 0.838942
vt 0.895231 0.827298
vt 0.960793 0.827298
vt 0.968839 0.838942
vt 0.893931 0.328178
vt 0.901977 0.327189
vt 0.901977 0.425918
vt 0.893931 0.437563
vt 0.699345 0.306050
vt 0.690700 0.296567
vt 0.690700 0.216723
vt 0.699345 0.217588
vt 0.337318 0.907759
vt 0.329649 0.903386
vt 0.329649 0.822346
vt 0.337318 0.817973
vt 0.910385 0.186075
vt 0.916327 0.185086
vt 0.916327 0.283815
vt 0.910385 0.295460
vt 0.960793 0.728569
vt 0.968839 0.729557
vt 0.337318 0.817973
vt 0.344987 0.822346
vt 0.344987 0.903386
vt 0.337318 0.907759
vt 0.652092 0.611382
vt 0.923996 0.274872
vt 0.916327 0.270499
vt 0.916327 0.189460
vt 0.923996 0.185086
vt 0.369168 0.628288
vt 0.369168 0.727017
vt 0.920931 0.622681
vt 0.928600 0.627054
vt 0.928600 0.708094
vt 0.920931 0.712467
vt 0.913262 0.622681
vt 0.920931 0.627054
vt 0.920931 0.708094
vt 0.913262 0.712467
vt 0.452695 0.727017
vt 0.518257 0.727017
vt 0.967540 0.425918
vt 0.966570 0.437563
vt 0.518257 0.628288
vt 0.570574 0.513334
vt 0.651613 0.513334
vn 0.5854 0.0904 -0.8057
vn 0.9472 0.0904 0.3078
vn 0.0000 0.0904 0.9959
vn 0.9354 -0.1806 0.3039
vn -0.9472 0.0904 0.3078
vn -0.5854 0.0904 -0.8057
vn -0.8314 0.4856 0.2701
vn 0.0000 -1.0000 0.0000
vn 0.8314 0.4856 0.2701
vn -0.5138 0.4856 -0.7072
vn 0.5138 0.4856 -0.7072
vn 0.0000 0.4856 0.8742
vn 0.0000 0.0000 1.0000
vn -0.5781 -0.1806 -0.7957
vn 0.5781 -0.1806 -0.7957
vn 0.0000 -0.1806 0.9836
vn -0.9354 -0.1806 0.3039
vn -0.6692 0.7105 0.2174
vn 0.5878 -0.0000 -0.8090
vn -0.9511 0.0000 0.3090
vn 0.9511 -0.0000 0.3090
vn -0.5878 -0.0000 -0.8090
vn 0.6692 0.7105 0.2174
vn -0.4136 0.7105 -0.5693
vn 0.0000 0.7105 0.7036
vn 0.4136 0.7105 -0.5693
vn 0.5450 -0.3747 -0.7501
vn 0.9406 -0.1482 0.3056
vn -0.8817 -0.3747 0.2865
vn 0.8817 -0.3747 0.2865
vn -0.5450 -0.3747 -0.7501
vn 0.0000 -0.3747 0.9271
vn -0.5813 -0.1482 -0.8001
vn 0.0000 -0.1482 0.9890
vn 0.5813 -0.1482 -0.8001
vn -0.9406 -0.1482 0.3056
vn 0.9410 0.1451 0.3057
vn -0.9410 0.1451 0.3057
vn -0.5816 0.1451 -0.8004
vn 0.0000 0.1451 0.9894
vn 0.0000 0.0119 0.9999
vn 0.9288 -0.2151 0.3018
vn 0.0000 -0.2151 0.9766
vn 0.5740 -0.2151 -0.7901
vn -0.5740 -0.2151 -0.7901
vn -0.5877 0.0119 -0.8090
vn 0.9510 0.0119 0.3090
vn -0.9510 0.0119 0.3090
vn 0.0000 -0.2032 0.9791
vn 0.5877 0.0119 -0.8090
vn -0.9288 -0.2151 0.3018
vn 0.5755 -0.2032 -0.7921
vn -0.5755 -0.2032 -0.7921
vn 0.9312 -0.2032 0.3026
vn -0.9312 -0.2032 0.3026
vn -0.9478 -0.0829 0.3080
vn 0.5858 -0.0829 -0.8062
vn 0.9478 -0.0829 0.3080
vn 0.0000 0.8064 0.5914
vn 0.5624 0.8064 0.1827
vn -0.3476 0.8064 -0.4784
vn -0.5624 0.8064 0.1827
vn 0.0000 -0.8064 0.5914
vn 0.5624 -0.8064 0.1827
vn -0.3476 -0.8064 -0.4784
vn -0.5624 -0.8064 0.1827
vn 0.3476 0.8064 -0.4784
vn 0.0000 -0.0829 0.9966
vn -0.5858 -0.0829 -0.8062
vn 0.3476 -0.8064 -0.4784
vn 0.5877 0.0170 -0.8089
vn 0.9509 0.0170 0.3090
vn 0.0000 0.0170 0.9999
vn -0.9509 0.0170 0.3090
vn -0.5877 0.0170 -0.8089
vn 0.5816 0.1451 -0.8004
vn 0.0430 0.9973 -0.0592
vn 0.0000 0.9973 0.0732
vn 0.0696 0.9973 0.0226
vn -0.0430 0.9973 -0.0592
vn -0.0696 0.9973 0.0226
vn 0.0000 1.0000 -0.0000
vn -0.3468 0.8074 -0.4774
vn -0.5612 0.8074 0.1823
vn 0.0000 0.8074 0.5901
vn 0.5612 0.8074 0.1823
vn 0.3468 0.8074 -0.4774
vn 0.4008 -0.7315 -0.5516
vn 0.6485 -0.7315 0.2107
vn 0.0000 -0.7315 0.6819
vn -0.6485 -0.7315 0.2107
vn -0.4008 -0.7315 -0.5516
vn -0.8072 0.5288 0.2623
vn -0.4784 -0.5810 -0.6584
vn 0.8072 0.5288 0.2623
vn -0.4989 0.5288 -0.6866
vn 0.0000 0.5288 0.8487
vn 0.4989 0.5288 -0.6866
vn 0.0000 -0.5810 0.8139
vn 0.4784 -0.5810 -0.6584
vn -0.7740 -0.5810 0.2515
vn 0.7740 -0.5810 0.2515
vn 0.7125 0.6624 0.2315
vn 0.0000 0.8088 0.5881
vn -0.4404 0.6624 -0.6061
vn 0.0000 0.6624 0.7492
vn 0.4404 0.6624 -0.6061
vn -0.7125 0.6624 0.2315
vn 0.3456 0.8088 -0.4757
vn -0.5593 0.8088 0.1817
vn 0.5593 0.8088 0.1817
vn -0.3456 0.8088 -0.4757
vn -0.4008 0.7315 0.5516
vn -0.6485 0.7315 -0.2107
vn 0.0000 0.7315 -0.6819
vn 0.6485 0.7315 -0.2107
vn 0.4008 0.7315 0.5516
vn 0.8072 -0.5288 -0.2623
vn -0.8072 -0.5288 -0.2623
vn 0.4989 -0.5288 0.6866
vn 0.0000 -0.5288 -0.8487
vn -0.4989 -0.5288 0.6866
vn -0.7125 -0.6624 -0.2315
vn 0.0000 -0.8088 -0.5880
vn 0.4404 -0.6624 0.6061
vn 0.0000 -0.6624 -0.7492
vn -0.4404 -0.6624 0.6061
vn 0.7125 -0.6624 -0.2315
vn 0.5878 0.0000 0.8090
vn -0.3456 -0.8088 0.4757
vn 0.5593 -0.8088 -0.1817
vn -0.5593 -0.8088 -0.1817
vn 0.3456 -0.8088 0.4757
vn 0.0000 -0.0000 -1.0000
vn -0.5878 0.0000 0.8090
vn 0.9511 -0.0000 -0.3090
vn -0.9511 -0.0000 -0.3090
vn 0.7396 -0.0000 -0.6731
vn 0.5226 0.4578 -0.7193
vn -0.7396 -0.0000 -0.6731
vn -0.9940 0.0000 0.1098
vn 0.0000 0.4578 0.8891
vn 0.2027 0.0000 0.9792
vn -0.4116 -0.0000 -0.9114
vn 0.1547 -0.9867 -0.0503
vn 0.4116 -0.0000 -0.9114
vn 0.8687 0.0000 0.4954
vn -0.1547 -0.9867 -0.0503
vn 0.9940 0.0000 0.1098
vn 0.0956 -0.9867 0.1316
vn -0.8687 0.0000 0.4954
vn -0.0956 -0.9867 0.1316
vn 0.0000 -0.9867 -0.1627
vn -0.8456 0.4578 0.2747
vn 0.8456 0.4578 0.2747
vn -0.2027 0.0000 0.9792
vn -0.5226 0.4578 -0.7193
usemtl Material.001
s 1
f 1/1/1 2/2/1 3/3/1 4/4/1
f 4/5/2 3/6/2 5/7/2 6/8/2
f 6/9/3 5/10/3 7/11/3 8/12/3
f 5/7/4 3/6/4 9/13/4 10/14/4
f 8/12/5 7/11/5 11/15/5 12/16/5
f 12/17/6 11/18/6 2/19/6 1/20/6
f 13/21/7 14/22/7 15/23/7 16/24/7
f 17/25/8 18/26/8 19/27/8 16/28/8 15/29/8
f 20/30/9 21/31/9 19/32/9 18/33/9
f 14/34/10 22/35/10 17/36/10 15/23/10
f 22/37/11 20/30/11 18/33/11 17/38/11
f 21/39/12 13/40/12 16/41/12 19/42/12
f 23/43/13 10/44/13 24/45/13 25/46/13
f 2/19/14 11/18/14 26/47/14 27/48/14
f 3/3/15 2/2/15 27/49/15 9/50/15
f 7/11/16 5/10/16 10/44/16 23/43/16
f 11/15/17 7/11/17 23/43/17 26/51/17
f 28/52/18 25/53/18 29/54/18 30/55/18
f 9/50/19 27/49/19 31/56/19 32/57/19
f 26/51/20 23/43/20 25/46/20 28/58/20
f 10/14/21 9/13/21 32/59/21 24/60/21
f 27/48/22 26/47/22 28/61/22 31/62/22
f 33/63/22 30/64/22 34/65/22 35/66/22
f 24/67/23 32/68/23 36/69/23 37/70/23
f 31/71/24 28/52/24 30/55/24 33/72/24
f 25/53/25 24/67/25 37/70/25 29/54/25
f 32/68/26 31/71/26 33/72/26 36/69/26
f 38/73/27 35/74/27 39/75/27 40/76/27
f 29/77/13 37/78/13 41/79/13 42/80/13
f 36/81/19 33/82/19 35/74/19 38/73/19
f 30/83/20 29/77/20 42/80/20 34/84/20
f 37/85/21 36/81/21 38/73/21 41/86/21
f 43/87/28 40/76/28 44/88/28 45/89/28
f 34/84/29 42/80/29 46/90/29 47/91/29
f 41/86/30 38/73/30 40/76/30 43/87/30
f 35/66/31 34/65/31 47/92/31 39/93/31
f 42/80/32 41/79/32 43/94/32 46/90/32
f 48/95/13 45/96/13 49/97/13 50/98/13
f 39/93/33 47/92/33 51/99/33 52/100/33
f 46/90/34 43/94/34 45/96/34 48/95/34
f 40/76/35 39/75/35 52/101/35 44/88/35
f 47/91/36 46/90/36 48/95/36 51/102/36
f 53/103/37 54/104/37 55/105/37 56/106/37
f 44/88/19 52/101/19 57/107/19 58/108/19
f 51/102/20 48/95/20 50/98/20 59/109/20
f 45/89/21 44/88/21 58/108/21 49/110/21
f 52/100/22 51/99/22 59/111/22 57/112/22
f 60/113/38 61/114/38 62/115/38 63/116/38
f 64/117/39 65/118/39 61/119/39 60/120/39
f 63/116/40 62/115/40 54/121/40 53/122/40
f 63/116/41 53/122/41 66/123/41 67/124/41
f 49/110/42 58/108/42 68/125/42 69/126/42
f 50/127/43 49/128/43 69/129/43 70/130/43
f 58/108/44 57/107/44 71/131/44 68/125/44
f 57/112/45 59/111/45 72/132/45 71/133/45
f 64/117/46 60/120/46 73/134/46 74/135/46
f 53/103/47 56/106/47 75/136/47 66/137/47
f 60/113/48 63/116/48 67/124/48 73/138/48
f 67/124/49 66/123/49 76/139/49 77/140/49
f 56/106/50 64/141/50 74/142/50 75/136/50
f 59/109/51 50/98/51 70/143/51 72/144/51
f 75/136/52 74/142/52 78/145/52 79/146/52
f 74/135/53 73/134/53 80/147/53 78/148/53
f 66/149/54 75/150/54 79/151/54 76/152/54
f 73/138/55 67/124/55 77/140/55 80/153/55
f 81/154/13 82/155/13 83/156/13 84/157/13
f 85/158/56 84/157/56 86/159/56 87/160/56
f 88/161/57 89/162/57 90/163/57 91/164/57
f 83/165/58 88/161/58 91/164/58 92/166/58
f 93/167/20 81/154/20 84/157/20 85/158/20
f 82/168/21 94/169/21 88/161/21 83/165/21
f 94/169/19 95/170/19 89/162/19 88/161/19
f 95/171/22 93/172/22 85/173/22 89/174/22
f 76/175/59 96/176/59 97/177/59 77/178/59
f 79/179/60 98/180/60 96/176/60 76/175/60
f 80/181/61 99/182/61 100/183/61 78/184/61
f 77/178/62 97/177/62 99/182/62 80/181/62
f 101/185/19 102/186/19 103/187/19 104/188/19
f 81/189/63 105/190/63 106/191/63 82/192/63
f 82/192/64 106/191/64 107/193/64 94/194/64
f 95/195/65 108/196/65 109/197/65 93/198/65
f 93/198/66 109/197/66 105/190/66 81/189/66
f 78/184/67 100/183/67 98/180/67 79/179/67
f 99/199/20 97/200/20 105/201/20 109/202/20
f 96/203/21 98/204/21 107/205/21 106/206/21
f 98/207/19 100/208/19 108/209/19 107/210/19
f 100/211/22 99/212/22 109/213/22 108/214/22
f 97/200/13 96/215/13 106/216/13 105/201/13
f 84/157/68 83/156/68 92/217/68 86/159/68
f 89/174/69 85/173/69 87/160/69 90/218/69
f 94/194/70 107/193/70 108/196/70 95/195/70
f 68/125/71 71/131/71 65/219/71 55/105/71
f 69/220/72 68/221/72 55/222/72 54/223/72
f 70/143/73 69/126/73 54/121/73 62/115/73
f 72/144/74 70/143/74 62/115/74 61/114/74
f 71/133/75 72/132/75 61/119/75 65/118/75
f 56/106/76 55/105/76 65/219/76 64/141/76
f 102/224/77 101/225/77 91/226/77 90/227/77
f 110/228/78 111/229/78 86/230/78 92/231/78
f 101/225/79 110/228/79 92/231/79 91/226/79
f 112/232/80 102/224/80 90/227/80 87/233/80
f 111/229/81 112/232/81 87/233/81 86/230/81
f 104/234/82 103/235/82 113/236/82 114/237/82 115/238/82
f 102/239/22 112/240/22 113/241/22 103/242/22
f 111/243/13 110/244/13 115/245/13 114/246/13
f 112/247/20 111/243/20 114/246/20 113/248/20
f 110/249/21 101/185/21 104/188/21 115/250/21
f 14/251/83 12/252/83 1/253/83 22/254/83
f 13/255/84 8/256/84 12/252/84 14/251/84
f 21/257/85 6/258/85 8/256/85 13/255/85
f 20/259/86 4/260/86 6/258/86 21/257/86
f 22/254/87 1/253/87 4/260/87 20/259/87
f 116/261/88 117/262/88 118/263/88 119/264/88
f 119/264/89 118/263/89 120/265/89 121/266/89
f 121/266/90 120/265/90 122/267/90 123/268/90
f 123/268/91 122/267/91 124/269/91 125/270/91
f 125/270/92 124/269/92 117/262/92 116/261/92
f 116/261/8 119/264/8 121/266/8 123/268/8 125/270/8
f 126/271/93 127/272/93 128/273/93 129/274/93
f 130/275/94 129/276/94 131/277/94 132/278/94
f 133/279/95 134/280/95 135/281/95 136/282/95
f 137/283/96 126/284/96 129/276/96 130/275/96
f 127/285/97 133/279/97 136/282/97 128/286/97
f 134/287/98 137/288/98 130/289/98 135/290/98
f 138/291/19 132/292/19 139/293/19 140/294/19
f 128/295/99 136/296/99 141/297/99 142/298/99
f 135/299/100 130/300/100 132/301/100 138/302/100
f 129/303/101 128/295/101 142/298/101 131/304/101
f 136/296/102 135/299/102 138/302/102 141/297/102
f 143/305/103 140/306/103 144/307/103 145/308/103
f 131/309/20 142/310/20 146/311/20 147/312/20
f 141/313/21 138/291/21 140/294/21 143/314/21
f 132/278/22 131/277/22 147/315/22 139/316/22
f 142/310/13 141/317/13 143/318/13 146/311/13
f 148/319/104 145/308/104 149/320/104 150/321/104
f 139/322/105 147/323/105 151/324/105 152/325/105
f 146/326/106 143/305/106 145/308/106 148/319/106
f 140/306/107 139/322/107 152/325/107 144/307/107
f 147/323/108 146/326/108 148/319/108 151/324/108
f 153/327/22 154/328/22 155/329/22 156/330/22
f 144/307/109 152/325/109 153/331/109 157/332/109
f 151/324/110 148/319/110 150/321/110 154/333/110
f 145/308/111 144/307/111 157/332/111 149/320/111
f 152/325/112 151/324/112 154/333/112 153/331/112
f 158/334/82 156/335/82 155/336/82 159/337/82 160/338/82
f 150/339/13 149/340/13 160/341/13 159/342/13
f 157/343/19 153/344/19 156/345/19 158/346/19
f 154/347/20 150/339/20 159/342/20 155/348/20
f 149/349/21 157/343/21 158/346/21 160/350/21
f 124/351/20 122/352/20 161/353/20 162/354/20
f 122/352/20 127/272/20 163/355/20 161/353/20
f 127/272/20 126/271/20 164/356/20 163/355/20
f 126/271/20 124/351/20 162/354/20 164/356/20
f 120/357/21 118/358/21 165/359/21 166/360/21
f 118/358/21 134/287/21 167/361/21 165/359/21
f 134/287/21 133/362/21 168/363/21 167/361/21
f 133/364/21 120/365/21 166/366/21 168/367/21
f 117/368/22 124/369/22 169/370/22 170/371/22
f 124/369/22 126/284/22 171/372/22 169/370/22
f 126/284/22 137/283/22 172/373/22 171/372/22
f 137/283/22 117/368/22 170/371/22 172/373/22
f 118/358/19 117/374/19 173/375/19 174/376/19
f 117/374/19 137/288/19 175/377/19 173/375/19
f 137/288/19 134/287/19 176/378/19 175/377/19
f 134/287/19 118/358/19 174/376/19 176/378/19
f 122/352/13 120/379/13 177/380/13 178/381/13
f 120/379/13 133/382/13 179/383/13 177/380/13
f 133/382/13 127/272/13 180/384/13 179/383/13
f 127/272/13 122/352/13 178/381/13 180/384/13
f 181/385/113 182/386/113 183/387/113 184/388/113
f 182/386/114 185/389/114 186/390/114 183/387/114
f 185/389/115 187/391/115 188/392/115 186/390/115
f 187/391/116 189/393/116 190/394/116 188/392/116
f 189/393/117 181/385/117 184/388/117 190/394/117
f 181/385/82 189/393/82 187/391/82 185/389/82 182/386/82
f 191/395/118 192/396/118 193/397/118 194/398/118
f 195/399/94 192/400/94 196/401/94 197/402/94
f 198/403/119 199/404/119 200/405/119 201/406/119
f 202/407/120 195/408/120 192/409/120 191/410/120
f 194/411/121 193/412/121 199/404/121 198/403/121
f 201/413/122 200/414/122 195/415/122 202/416/122
f 203/417/19 197/418/19 204/419/19 205/420/19
f 193/421/99 199/422/99 206/423/99 207/424/99
f 200/425/100 195/426/100 197/427/100 203/428/100
f 192/429/101 193/421/101 207/424/101 196/430/101
f 199/422/102 200/425/102 203/428/102 206/423/102
f 208/431/123 209/432/123 210/433/123 205/434/123
f 196/435/20 207/436/20 211/437/20 212/438/20
f 206/439/21 203/417/21 205/420/21 208/440/21
f 197/402/22 196/401/22 212/441/22 204/442/22
f 207/436/13 206/443/13 208/444/13 211/437/13
f 213/445/124 214/446/124 215/447/124 209/432/124
f 204/448/125 216/449/125 217/450/125 212/451/125
f 211/452/126 213/445/126 209/432/126 208/431/126
f 205/434/127 210/433/127 216/449/127 204/448/127
f 212/451/128 217/450/128 213/445/128 211/452/128
f 218/453/129 219/454/129 220/455/129 221/456/129
f 210/433/130 222/457/130 218/458/130 216/449/130
f 217/450/131 221/459/131 214/446/131 213/445/131
f 209/432/132 215/447/132 222/457/132 210/433/132
f 216/449/133 218/458/133 221/459/133 217/450/133
f 223/460/8 224/461/8 225/462/8 220/463/8 219/464/8
f 214/465/134 225/466/134 224/467/134 215/468/134
f 222/469/135 223/470/135 219/471/135 218/472/135
f 221/473/136 220/474/136 225/475/136 214/476/136
f 215/468/137 224/467/137 223/477/137 222/478/137
f 190/479/136 226/480/136 227/481/136 188/482/136
f 188/482/136 227/481/136 228/483/136 194/398/136
f 194/398/136 228/483/136 229/484/136 191/395/136
f 191/395/136 229/484/136 226/480/136 190/479/136
f 186/485/137 230/486/137 231/487/137 183/488/137
f 183/488/137 231/487/137 232/489/137 201/406/137
f 201/406/137 232/489/137 233/490/137 198/403/137
f 198/403/137 233/490/137 230/486/137 186/485/137
f 184/491/129 234/492/129 235/493/129 190/494/129
f 190/494/129 235/493/129 236/495/129 191/410/129
f 191/410/129 236/495/129 237/496/129 202/407/129
f 202/407/129 237/496/129 234/492/129 184/491/129
f 183/497/135 238/498/135 239/499/135 184/500/135
f 184/500/135 239/499/135 240/501/135 202/416/135
f 202/416/135 240/501/135 241/502/135 201/413/135
f 201/413/135 241/502/135 238/498/135 183/497/135
f 188/503/134 242/504/134 243/505/134 186/485/134
f 186/485/134 243/505/134 244/506/134 198/403/134
f 198/403/134 244/506/134 245/507/134 194/411/134
f 194/411/134 245/507/134 242/504/134 188/503/134
f 166/508/138 230/509/138 233/510/138 168/511/138
f 173/375/139 239/512/139 238/513/139 174/376/139
f 163/514/140 228/515/140 227/516/140 161/517/140
f 170/518/141 234/519/141 237/520/141 172/521/141
f 177/522/142 243/523/142 242/524/142 178/525/142
f 167/526/143 232/527/143 231/528/143 165/529/143
f 174/530/144 238/531/144 241/532/144 176/533/144
f 164/534/145 229/535/145 228/536/145 163/537/145
f 171/538/146 236/539/146 235/540/146 169/541/146
f 178/525/147 242/524/147 245/542/147 180/543/147
f 168/544/148 233/545/148 232/546/148 167/547/148
f 175/377/149 240/548/149 239/512/149 173/375/149
f 172/549/150 237/550/150 236/551/150 171/552/150
f 179/383/151 244/553/151 243/554/151 177/380/151
f 176/555/152 241/556/152 240/557/152 175/558/152
f 180/559/153 245/560/153 244/561/153 179/562/153
f 161/353/154 227/563/154 226/564/154 162/354/154
f 165/529/155 231/528/155 230/565/155 166/566/155
f 162/354/156 226/564/156 229/567/156 164/356/156
f 169/370/157 235/568/157 234/569/157 170/371/157
o Cylinder.001
v 0.000000 2.521882 -0.046247
v 0.000000 2.982476 -0.046247
v 0.045489 2.982476 -0.013197
v 0.045489 2.521882 -0.013197
v 0.028114 2.982476 0.040278
v 0.028114 2.521882 0.040278
v -0.028114 2.982476 0.040278
v -0.028114 2.521882 0.040278
v -0.045489 2.982476 -0.013197
v -0.045489 2.521882 -0.013197
vt 0.654106 0.205366
vt 0.654106 0.000000
vt 0.680048 0.000000
vt 0.680048 0.205366
vt 0.705990 0.000000
vt 0.705990 0.205366
vt 0.602222 0.205366
vt 0.602222 0.000000
vt 0.628164 0.000000
vt 0.628164 0.205366
vt 0.220251 0.945323
vt 0.201403 0.971265
vt 0.170907 0.961356
vt 0.170907 0.929290
vt 0.201403 0.919381
vt 0.654106 0.000000
vt 0.654106 0.205366
vt 0.681207 0.532341
vt 0.681207 0.327189
vt 0.713273 0.327189
vt 0.713273 0.532341
vt 0.250748 0.971265
vt 0.220251 0.961356
vt 0.220251 0.929290
vt 0.250748 0.919381
vt 0.269596 0.945323
vn 0.5878 -0.0000 -0.8090
vn 0.9511 0.0000 0.3090
vn 0.0000 0.0000 1.0000
vn 0.0000 1.0000 0.0000
vn -0.9511 0.0000 0.3090
vn -0.5878 -0.0000 -0.8090
vn 0.0000 -1.0000 -0.0000
usemtl Material.001
s 1
f 246/570/158 247/571/158 248/572/158 249/573/158
f 249/573/159 248/572/159 250/574/159 251/575/159
f 251/576/160 250/577/160 252/578/160 253/579/160
f 248/580/161 247/581/161 254/582/161 252/583/161 250/584/161
f 253/579/162 252/578/162 254/585/162 255/586/162
f 255/587/163 254/588/163 247/589/163 246/590/163
f 246/591/164 249/592/164 251/593/164 253/594/164 255/595/164
