# Blender v2.93.0 OBJ File: ''
# www.blender.org
mtllib 2.mtl
o Cube_Cube.003
v 0.020150 -1.497868 0.052881
v 0.020150 -0.839541 0.052881
v -0.020150 -0.839541 0.052881
v -0.020150 -1.497868 0.052881
v 0.052881 -1.497868 -0.020150
v 0.052881 -0.839541 -0.020150
v 0.052881 -0.839541 0.020150
v 0.052881 -1.497868 0.020148
v 0.043294 -0.839541 -0.043294
v 0.020150 -0.839541 -0.052882
v -0.020150 -0.839541 -0.052882
v -0.043294 -0.839541 -0.043294
v -0.052881 -0.839541 -0.020150
v -0.052881 -0.839541 0.020150
v -0.043294 -0.839541 0.043294
v 0.043294 -0.839541 0.043294
v -0.052881 -1.497868 0.020148
v -0.052881 -1.497868 -0.020150
v -0.020150 -1.497868 -0.052883
v 0.020150 -1.497868 -0.052883
v -0.043294 -1.497868 0.043294
v -0.043294 -1.497868 -0.043296
v 0.043294 -1.497868 -0.043296
v 0.043294 -1.497868 0.043294
vt 0.941420 0.254819
vt 0.943002 0.254819
vt 0.943002 0.255422
vt 0.941420 0.255422
vt 0.941420 0.253237
vt 0.943002 0.253237
vt 0.943002 0.253840
vt 0.941420 0.253840
vt 0.943146 0.252891
vt 0.943492 0.252747
vt 0.944095 0.252747
vt 0.944441 0.252891
vt 0.944584 0.253237
vt 0.944584 0.253840
vt 0.944441 0.254186
vt 0.944095 0.254329
vt 0.943492 0.254329
vt 0.943146 0.254186
vt 0.941420 0.250073
vt 0.943002 0.250073
vt 0.943002 0.250675
vt 0.941420 0.250675
vt 0.941420 0.251655
vt 0.943002 0.251655
vt 0.943002 0.252258
vt 0.941420 0.252258
vt 0.943002 0.255912
vt 0.941420 0.255912
vt 0.941420 0.249583
vt 0.943002 0.249583
vt 0.941420 0.251165
vt 0.943002 0.251165
vt 0.941420 0.252747
vt 0.943002 0.252747
vt 0.941420 0.254329
vt 0.943002 0.254329
vt 0.939838 0.253237
vt 0.939981 0.252891
vt 0.940328 0.252747
vt 0.940930 0.252747
vt 0.941277 0.252891
vt 0.941277 0.254186
vt 0.940930 0.254329
vt 0.940328 0.254329
vt 0.939981 0.254186
vt 0.939838 0.253840
vn 0.0000 -0.0000 1.0000
vn 1.0000 0.0000 0.0000
vn 0.0000 1.0000 -0.0000
vn -1.0000 0.0000 0.0000
vn 0.0000 0.0000 -1.0000
vn -0.3827 -0.0000 0.9239
vn -0.9239 -0.0000 0.3827
vn -0.3827 0.0000 -0.9239
vn -0.9239 0.0000 -0.3827
vn 0.9239 0.0000 -0.3827
vn 0.3827 0.0000 -0.9239
vn 0.3827 -0.0000 0.9239
vn 0.9239 -0.0000 0.3827
vn 0.0000 -1.0000 0.0000
usemtl Material.001
s 1
f 1/1/1 2/2/1 3/3/1 4/4/1
f 5/5/2 6/6/2 7/7/2 8/8/2
f 6/6/3 9/9/3 10/10/3 11/11/3 12/12/3 13/13/3 14/14/3 15/15/3 3/16/3 2/17/3 16/18/3 7/7/3
f 17/19/4 14/20/4 13/21/4 18/22/4
f 19/23/5 11/24/5 10/25/5 20/26/5
f 4/4/6 3/3/6 15/27/6 21/28/6
f 21/29/7 15/30/7 14/20/7 17/19/7
f 11/24/8 19/23/8 22/31/8 12/32/8
f 12/32/9 22/31/9 18/22/9 13/21/9
f 6/6/10 5/5/10 23/33/10 9/34/10
f 9/34/11 23/33/11 20/26/11 10/25/11
f 2/2/12 1/1/12 24/35/12 16/36/12
f 16/36/13 24/35/13 8/8/13 7/7/13
f 18/37/14 22/38/14 19/39/14 20/40/14 23/41/14 5/5/14 8/8/14 24/42/14 1/43/14 4/44/14 21/45/14 17/46/14
o Cylinder.009
v 0.146803 -1.197084 0.033086
v 0.146803 -0.551128 0.033086
v 0.334049 -0.737951 0.033086
v 0.334049 -1.010262 0.033086
v -0.125065 -1.198437 0.033086
v -0.125065 -0.549776 0.033086
v 0.008732 -0.550324 0.033086
v 0.008732 -1.197887 0.033086
v -0.316588 -1.010262 0.033086
v -0.316588 -0.737951 0.033086
v 0.146803 -1.197084 0.056988
v 0.334049 -1.010262 0.056988
v 0.334049 -0.737951 0.056988
v 0.146803 -0.551128 0.056988
v -0.125065 -1.198437 0.056988
v 0.008732 -1.197887 0.056988
v 0.008732 -0.550324 0.056988
v -0.125065 -0.549776 0.056988
v -0.316588 -1.010262 0.056988
v -0.316588 -0.737951 0.056988
vt 0.404855 0.988850
vt 0.404855 0.990425
vt 0.405249 0.990425
vt 0.405249 0.988850
vt 0.404067 0.988850
vt 0.404067 0.990425
vt 0.404461 0.990425
vt 0.404461 0.988850
vt 0.403673 0.988850
vt 0.403673 0.990425
vt 0.707552 0.013947
vt 0.989022 0.301349
vt 0.989022 0.702866
vt 0.707552 0.991203
vt 0.298875 0.011954
vt 0.500000 0.012763
vt 0.500000 0.992388
vt 0.298875 0.993197
vt 0.010977 0.301349
vt 0.010978 0.702866
vt 0.405249 0.990425
vt 0.405249 0.988850
vt 0.403673 0.990425
vt 0.404067 0.990425
vt 0.404855 0.988850
vt 0.404461 0.988850
vt 0.403673 0.988850
vt 0.404461 0.990425
vt 0.404067 0.988850
vt 0.404855 0.990425
vn 0.0000 0.0000 -1.0000
vn 0.0000 -0.0000 1.0000
vn 1.0000 0.0000 0.0000
vn -0.7008 0.7133 0.0000
vn 0.0050 -1.0000 0.0000
vn 0.0058 -1.0000 0.0000
vn -1.0000 0.0000 0.0000
vn 0.0050 1.0000 0.0000
vn 0.0041 1.0000 0.0000
vn 0.0041 -1.0000 0.0000
vn 0.7063 0.7079 0.0000
vn 0.7063 -0.7079 0.0000
vn -0.7008 -0.7133 0.0000
vn 0.0058 1.0000 0.0000
usemtl Material.005
s 1
f 25/47/15 26/48/15 27/49/15 28/50/15
f 29/51/15 30/52/15 31/53/15 32/54/15
f 33/55/15 34/56/15 30/52/15 29/51/15
f 32/54/15 31/53/15 26/48/15 25/47/15
f 35/57/16 36/58/16 37/59/16 38/60/16
f 39/61/16 40/62/16 41/63/16 42/64/16
f 43/65/16 39/61/16 42/64/16 44/66/16
f 40/62/16 35/57/16 38/60/16 41/63/16
f 28/50/17 27/49/17 37/67/17 36/68/17
f 30/52/18 34/56/18 44/69/18 42/70/18
f 32/54/19 25/47/20 35/71/20 40/72/19
f 34/56/21 33/55/21 43/73/21 44/69/21
f 31/53/22 30/52/23 42/70/23 41/74/22
f 29/51/24 32/54/19 40/72/19 39/75/24
f 27/49/25 26/48/25 38/76/25 37/67/25
f 25/47/26 28/50/26 36/68/26 35/71/26
f 33/55/27 29/51/27 39/75/27 43/73/27
f 26/48/28 31/53/22 41/74/22 38/76/28
