# Blender v3.6.3 OBJ File: ''
# www.blender.org
mtllib shears.mtl
o Plane
v -0.374018 -0.005440 0.488965
v -0.373250 -0.001683 0.506113
v -0.330945 -0.005376 0.430603
v -0.382107 -0.006788 0.506965
v -0.378216 -0.006497 0.513790
v -0.299884 -0.001426 0.407966
v -0.289481 -0.005573 0.338764
v -0.253531 -0.005718 0.229923
v -0.230584 -0.005569 0.296229
v -0.187397 -0.001376 0.082766
v -0.233166 -0.005597 0.145657
v 0.402081 -0.001806 0.378549
v 0.387777 -0.005608 0.313984
v 0.306812 -0.001343 0.207909
v 0.388342 -0.005163 0.379784
v 0.286469 -0.005538 0.214869
v 0.138689 -0.005490 0.029148
v -0.373295 -0.031576 0.506325
v -0.382092 -0.026590 0.506775
v -0.373885 -0.027772 0.488699
v -0.330794 -0.027859 0.430288
v -0.308940 -0.031877 0.420790
v -0.289251 -0.027760 0.338283
v -0.244205 -0.031914 0.273520
v -0.230527 -0.027786 0.295865
v -0.288660 -0.027772 0.418059
v -0.233248 -0.027738 0.146134
v -0.184973 -0.031943 0.069516
v -0.179347 -0.027704 0.122961
v -0.372627 -0.008321 0.516596
v -0.364009 -0.005562 0.511119
v 0.388736 -0.027962 0.380481
v 0.300885 -0.031921 0.199529
v 0.402280 -0.031495 0.378448
v 0.387547 -0.027714 0.313587
v 0.413848 -0.027599 0.374296
v 0.330270 -0.027746 0.211129
v 0.254162 -0.027716 0.105095
v 0.138711 -0.027782 0.029189
v 0.144523 -0.031867 0.002056
v -0.381885 -0.016580 0.494607
v -0.383922 -0.016641 0.509225
v -0.288064 -0.005667 0.417473
v -0.359440 -0.016642 0.511977
v -0.284988 -0.016641 0.422550
v -0.296561 -0.016641 0.337906
v -0.212065 -0.005653 0.079549
v -0.221132 -0.016641 0.079665
v -0.211885 -0.027757 0.079230
v -0.173030 -0.016641 0.128411
v -0.179358 -0.005582 0.122999
v 0.280866 -0.016642 0.219689
v 0.286240 -0.027754 0.214532
v 0.330506 -0.005553 0.211477
v 0.311056 -0.016641 0.169233
v 0.254365 -0.005572 0.105349
v 0.224792 -0.016641 0.055280
v 0.166812 -0.005508 -0.002025
v 0.166765 -0.027789 -0.002068
v -0.158389 -0.005692 0.087861
v 0.413815 -0.005574 0.374322
v 0.138000 -0.001534 -0.006726
v -0.378216 -0.026785 0.513790
v -0.253203 -0.027647 0.229080
v -0.158741 -0.028066 0.087461
v -0.363996 -0.027744 0.511092
v -0.337841 -0.016641 0.431787
v -0.261533 -0.016641 0.381434
v -0.223410 -0.016676 0.299530
v -0.241262 -0.016641 0.145462
v 0.383180 -0.016662 0.381487
v 0.354521 -0.016641 0.237895
v 0.172010 -0.016641 -0.007932
v 0.396859 -0.008321 0.388920
v 0.405621 -0.006497 0.387885
v 0.413404 -0.008321 0.384387
v -0.372627 -0.024962 0.516596
v 0.413404 -0.024962 0.384387
v 0.405621 -0.026785 0.387885
v 0.396859 -0.024962 0.388920
v -0.379758 -0.016641 0.516051
v -0.372510 -0.016641 0.518354
v -0.256599 -0.016734 0.215339
v -0.147850 -0.016925 0.088312
v 0.406649 -0.016641 0.390469
v 0.415405 -0.016641 0.385205
v 0.395838 -0.016641 0.390566
v 0.418329 -0.016641 0.372511
v 0.393491 -0.016641 0.310949
v 0.129674 -0.016642 0.028385
v 0.077430 -0.019069 0.001060
v -0.006971 -0.033551 0.024144
v -0.009150 -0.030974 0.014782
v 0.063048 -0.019730 0.012457
v 0.060383 -0.013543 0.016167
v 0.004243 -0.023321 0.038633
v 0.004259 -0.003709 0.038627
v 0.003628 -0.013521 0.041405
v 0.002376 -0.030259 0.031678
v -0.008734 -0.003094 0.007171
v -0.010510 0.003504 0.014602
v 0.075424 -0.007457 0.001972
v -0.002101 -0.013354 0.003392
v -0.005239 -0.023461 0.006635
v -0.222304 -0.017152 0.049075
v -0.031456 0.002816 0.037991
v -0.027122 -0.004001 0.044309
v -0.031984 0.005514 0.028609
v -0.028202 -0.013505 0.047012
v -0.026499 -0.023121 0.044278
v -0.158718 -0.015767 -0.149309
v -0.112758 -0.013531 -0.172687
v -0.237253 -0.013637 -0.305726
v -0.221347 -0.014260 -0.480972
v -0.233381 -0.016911 -0.486202
v -0.252330 -0.016150 -0.448467
v -0.039294 -0.013929 -0.210219
v 0.040207 -0.014357 -0.177017
v 0.078011 -0.013960 -0.469172
v 0.104866 -0.014668 -0.479478
v 0.103476 -0.016227 -0.484594
v 0.125503 -0.013672 -0.005359
v 0.060376 -0.013542 0.016169
v 0.063025 -0.007355 0.012457
v -0.005169 -0.023459 0.006610
v -0.009035 -0.030986 0.014776
v 0.074846 -0.019753 0.002075
v -0.002004 -0.013368 0.003373
v 0.075341 -0.007449 0.001981
v -0.009291 -0.003559 0.007202
v 0.004246 -0.023324 0.038633
v 0.003628 -0.013521 0.041405
v 0.004259 -0.003709 0.038627
v -0.010221 0.003548 0.014508
v -0.006927 -0.033554 0.024155
v -0.222163 -0.017137 0.049041
v -0.028216 -0.030046 0.037577
v -0.031573 0.002826 0.037983
v -0.027134 -0.004005 0.044314
v -0.031984 0.005514 0.028609
v -0.026922 -0.013549 0.046811
v -0.026560 -0.023136 0.044278
v -0.151195 -0.017272 -0.148273
v -0.201480 -0.019738 -0.262672
v -0.079740 -0.019782 -0.195789
v -0.193729 -0.016499 -0.314214
v -0.138023 -0.017266 -0.253233
v 0.088894 -0.019402 -0.476837
v 0.104983 -0.018553 -0.479363
v 0.038687 -0.018887 -0.177511
v -0.146792 -0.014389 -0.249960
v -0.077064 -0.016207 -0.214937
v -0.048912 -0.016052 -0.374763
v -0.071561 -0.016974 -0.318634
v 0.053906 -0.016573 -0.150283
v 0.066784 -0.016618 -0.468794
v 0.126499 -0.013774 -0.005564
v 0.067914 -0.008110 0.011058
v 0.000214 0.005701 0.022327
v 0.002419 0.003225 0.031668
v -0.028159 -0.030044 0.037574
v -0.222873 -0.014419 -0.376619
v 0.070043 -0.018761 0.010288
v 0.002419 0.003225 0.031668
v 0.002409 -0.030258 0.031675
v 0.000214 0.005701 0.022327
v -0.238406 -0.017463 -0.272252
v -0.246937 -0.019626 -0.415498
v -0.216848 -0.019184 -0.477609
v -0.040334 -0.019257 -0.211735
v -0.252920 -0.014300 -0.382633
v -0.257169 -0.017215 -0.358639
v -0.218138 -0.016618 -0.491061
v 0.110561 -0.016618 -0.475314
v -0.207600 -0.016398 -0.473795
v -0.216549 -0.017072 -0.374557
v -0.211034 -0.005617 0.050150
v -0.186646 -0.001404 0.030380
v -0.224984 -0.005630 -0.008739
v 0.085833 -0.006165 -0.053432
v 0.035554 -0.011644 -0.146429
v 0.003488 -0.000885 -0.111828
v 0.076055 -0.005381 -0.121146
v -0.124425 -0.003857 -0.033089
v -0.159986 -0.001287 -0.045124
v -0.150204 -0.004489 0.002591
v 0.113370 -0.032030 -0.071101
v 0.151631 -0.027825 -0.028294
v 0.003649 -0.032154 -0.111967
v 0.035554 -0.021263 -0.146429
v 0.076055 -0.027901 -0.121146
v -0.129414 -0.021329 -0.026848
v -0.138876 -0.021112 -0.071381
v -0.107011 -0.018490 -0.048698
v -0.233409 -0.016641 -0.002468
v -0.224401 -0.027268 -0.015938
v -0.210980 -0.027756 0.049956
v 0.151631 -0.005457 -0.028294
v 0.159298 -0.016641 -0.030621
v 0.146949 -0.016641 -0.090668
v -0.156113 -0.021329 -0.115960
v -0.119205 -0.012675 -0.018116
v -0.095537 -0.011094 -0.039403
v -0.203041 -0.001423 -0.014999
v -0.196590 -0.004845 -0.043520
v 0.139284 -0.005575 -0.081812
v 0.127300 -0.005493 -0.096709
v 0.111834 -0.001349 -0.072315
v -0.028193 -0.009786 -0.156059
v -0.036872 -0.003661 -0.082837
v 0.027318 -0.005333 -0.072506
v -0.172227 -0.004006 -0.093907
v -0.195018 -0.025424 -0.046597
v -0.195206 -0.032408 -0.014321
v 0.139284 -0.027707 -0.081811
v 0.127272 -0.027821 -0.096688
v -0.020932 -0.022468 -0.167617
v -0.085511 -0.022287 -0.106592
v -0.036872 -0.027624 -0.082837
v 0.027318 -0.027743 -0.072506
v -0.137128 -0.015337 0.010381
v -0.227788 -0.017367 -0.020561
v -0.224615 -0.008321 -0.019650
v -0.220882 -0.016641 0.051925
v -0.201807 -0.015254 -0.053084
v 0.085892 -0.027309 -0.053616
v -0.092125 -0.010402 -0.111000
v -0.081907 -0.004062 -0.067042
v -0.118581 -0.000976 -0.091317
v -0.156113 -0.004062 -0.115960
v -0.153219 -0.027624 0.002785
v -0.118581 -0.024373 -0.091317
v -0.081907 -0.021329 -0.067042
v -0.170254 -0.018139 -0.097268
v 0.133564 -0.016690 -0.106741
v 0.077528 -0.016652 -0.046624
v 0.019645 -0.016488 -0.063151
v -0.031442 -0.015337 -0.068013
v -0.069142 -0.012675 -0.057704
v -0.180143 -0.011003 -0.105708
vt 0.282657 0.936465
vt 0.268776 0.968680
vt 0.241983 0.792543
vt 0.285144 0.977176
vt 0.272673 0.987483
vt 0.198582 0.725959
vt 0.228772 0.585245
vt 0.238576 0.349167
vt 0.146035 0.460335
vt 0.218094 0.016862
vt 0.260588 0.171809
vt 0.381806 0.963035
vt 0.328810 0.837748
vt 0.337714 0.562457
vt 0.406545 0.948865
vt 0.380439 0.550042
vt 0.406545 0.061297
vt 0.113154 0.019643
vt 0.129548 0.011703
vt 0.127637 0.052673
vt 0.089616 0.197440
vt 0.055077 0.232606
vt 0.080186 0.405352
vt 0.043365 0.564075
vt -0.000000 0.531418
vt 0.018191 0.253017
vt 0.119449 0.816102
vt 0.085483 1.000000
vt 0.033820 0.901626
vt 0.259803 0.988971
vt 0.247212 0.971916
vt 0.528116 0.036267
vt 0.459133 0.445514
vt 0.502756 0.023681
vt 0.450123 0.150002
vt 0.478539 0.016574
vt 0.423832 0.390610
vt 0.424905 0.659758
vt 0.528116 0.925409
vt 0.485704 0.964261
vt 0.582360 0.004979
vt 0.568121 0.029800
vt 0.564550 -0.000000
vt 0.545310 0.006697
vt 0.630626 0.253712
vt 0.662088 0.029797
vt 0.650940 0.255986
vt 0.675527 0.256763
vt 0.569704 0.395676
vt 0.554861 0.393195
vt 0.571024 0.188594
vt 0.528116 0.398268
vt 0.528886 0.190829
vt 0.267962 0.028953
vt 0.285144 0.036646
vt 0.584730 0.946986
vt 0.556742 0.954976
vt 0.550479 0.810240
vt 0.156823 0.095646
vt 0.173211 0.088938
vt 0.660789 0.767504
vt 0.675582 0.489590
vt 0.686324 0.764672
vt 0.584730 0.500162
vt 0.611769 0.501472
vt 0.587477 0.893869
vt 0.700676 0.325042
vt 0.728096 0.325242
vt 0.711145 0.612040
vt 0.302403 0.597077
vt 0.285144 0.503553
vt 0.303371 0.327737
vt 0.406545 0.483290
vt 0.293756 0.208955
vt 0.322013 0.042638
vt 0.415213 0.777892
vt 0.443595 0.944319
vt 0.168759 0.736026
vt 0.158301 0.005913
vt 0.357239 0.970220
vt 0.364579 -0.000000
vt 0.116772 0.001241
vt 0.094409 0.642005
vt 0.021420 0.985371
vt 0.501884 0.437596
vt 0.641379 0.020360
vt 0.686324 0.025151
vt 0.554958 0.182287
vt 0.649586 0.341137
vt 0.129548 0.462358
vt 0.649969 0.495729
vt 0.732770 0.082254
vt 0.759081 -0.000000
vt 0.760628 0.086502
vt 0.577841 0.805255
vt 0.613558 0.890990
vt 0.686324 0.604108
vt 0.294257 0.670869
vt 0.415627 0.315968
vt 0.306815 0.039631
vt 0.428305 0.947215
vt 0.403336 0.974596
vt 0.387279 0.983237
vt 0.370119 0.986796
vt 0.103874 0.000000
vt 0.091600 0.017333
vt 0.129548 0.960546
vt 0.491482 -0.000000
vt 0.508655 0.003552
vt 0.524704 0.012191
vt 0.584730 0.045446
vt 0.542871 0.047564
vt 0.689273 0.672881
vt 0.701355 0.671314
vt 0.699926 0.692701
vt 0.686324 0.689530
vt 0.716112 0.691543
vt 0.717156 0.670542
vt 0.717156 0.707955
vt 0.701081 0.709760
vt 0.689048 0.704417
vt 0.649070 -0.000000
vt 0.665596 0.000093
vt 0.682789 0.003556
vt 0.754781 0.183572
vt 0.760628 0.342530
vt 0.733777 0.338441
vt 0.728096 0.197742
vt 0.565573 0.658920
vt 0.537676 0.635313
vt 0.143539 0.648074
vt 0.137391 0.000000
vt 0.685765 0.838890
vt 0.659238 0.854642
vt 0.690742 0.646809
vt 0.689819 0.629011
vt 0.709528 0.630904
vt 0.706599 0.651775
vt 0.696973 0.613211
vt 0.713968 0.612041
vt 0.730545 0.617963
vt 0.730748 0.634804
vt 0.724314 0.651561
vt 0.591650 0.919977
vt 0.608827 0.922210
vt 0.630626 0.898397
vt 0.623114 0.922104
vt 0.707025 0.670542
vt 0.686324 0.657597
vt 0.730748 0.663971
vt 0.348087 0.973269
vt 0.316174 0.840175
vt 0.469403 0.013546
vt 0.437513 0.146652
vt 0.603640 0.011966
vt 0.630626 -0.000000
vt 0.686324 -0.000000
vt 0.713148 0.010524
vt 0.013882 0.073778
vt 0.025588 0.203888
vt 0.011182 0.204533
vt 0.198081 0.424691
vt 0.189986 0.419201
vt 0.208299 0.330040
vt 0.179628 0.329396
vt 0.194741 0.327740
vt 0.026743 0.097929
vt 0.049432 0.191207
vt 0.039012 0.192166
vt 0.049432 0.323762
vt 0.060423 0.318923
vt 0.064307 0.448628
vt 0.223113 0.187308
vt 0.238271 0.193817
vt 0.208299 0.521208
vt 0.168366 0.278068
vt 0.192501 0.000000
vt 0.180330 0.282066
vt 0.051362 -0.000000
vt 0.075254 0.283605
vt 0.003586 0.526021
vt 0.194952 0.279783
vt 0.208299 0.283626
vt 0.584706 0.502456
vt 0.661360 0.502389
vt 0.585028 0.762771
vt 0.723714 0.984752
vt 0.711377 1.000000
vt 0.660835 0.962598
vt 0.636396 0.063750
vt 0.761616 0.035450
vt 0.742353 0.473071
vt 0.779142 0.495096
vt 0.775795 0.502389
vt 0.273136 0.520464
vt 0.269643 0.418377
vt 0.279706 0.423424
vt 0.304477 0.192607
vt 0.291928 0.202002
vt 0.299543 0.075967
vt 0.303054 0.000000
vt 0.319598 0.186059
vt 0.107613 0.000000
vt 0.104446 0.075414
vt 0.088871 0.200784
vt 0.250983 0.329213
vt 0.264369 0.326823
vt 0.279502 0.328454
vt 0.099039 0.204043
vt 0.141670 0.323015
vt 0.127632 0.000000
vt 0.156541 0.288369
vt 0.268030 -0.000000
vt 0.291019 0.277054
vt 0.278814 0.281147
vt 0.092662 0.524252
vt 0.113684 0.239744
vt 0.264119 0.280826
vt 0.250983 0.282745
vt 0.821426 0.504673
vt 0.831222 0.318834
vt 0.948324 0.489529
vt 0.876195 0.255370
vt 0.909379 0.373908
vt 0.529079 0.015247
vt 0.552055 0.007387
vt 0.531968 0.467369
vt 0.667967 0.627934
vt 0.737308 0.534667
vt 0.681991 0.626604
vt 0.580167 0.302560
vt 0.561278 0.214639
vt 0.788572 0.000000
vt 0.561278 0.503339
vt 0.725967 0.469913
vt 0.066589 0.525720
vt 0.075492 0.435192
vt 0.074838 0.332472
vt 0.186946 0.522759
vt 0.017158 -0.000000
vt 0.000000 0.196514
vt 0.242925 0.073184
vt 0.250983 0.203342
vt 0.240807 -0.000000
vt 0.208299 0.197713
vt 0.180904 0.431837
vt 0.167417 0.329231
vt 0.039434 0.238507
vt 0.049432 0.237784
vt 0.088871 0.281937
vt 0.648762 0.744977
vt 0.651728 0.847264
vt 0.116429 0.096310
vt 0.132239 0.524188
vt 0.130329 0.448113
vt 0.141313 0.439042
vt 0.127632 0.322085
vt 0.333985 0.197384
vt 0.263471 0.434816
vt 0.291928 0.328338
vt 0.155270 0.334827
vt 0.166568 0.335628
vt 0.113252 0.190856
vt 0.333985 0.520137
vt 0.127632 0.241729
vt 0.788572 0.281222
vt 0.873284 0.085036
vt 0.938827 -0.000000
vt 0.955005 0.022607
vt 0.407192 0.437373
vt 0.333985 0.288382
vt 0.964816 0.465735
vt 0.615800 0.875457
vt 0.594236 0.846693
vt 0.821577 0.153713
vt 0.888313 0.037444
vt 0.734885 0.996170
vt 0.962375 0.003761
vt 0.788572 0.490641
vt 0.352872 0.200173
vt 0.561278 0.011824
vt 0.548500 -0.000000
vt 0.333985 0.562436
vt 0.333985 0.503339
vt 0.338811 0.527615
vt 0.579737 0.061242
vt 0.352442 0.441946
vt 0.088871 0.333265
vt 0.737308 0.966142
vt 0.127632 0.190201
vt 0.167417 0.288967
vt 0.886307 0.159807
vt 0.561278 0.719412
vt 0.812148 0.498192
vt 0.658911 0.840481
vt 0.964816 0.033794
vt 0.498673 0.032592
vt 0.529341 0.686380
vt 0.514893 0.645320
vt 0.579135 0.674329
vt 0.604008 0.625703
vt 0.684473 0.677542
vt 0.554026 0.058299
vt 0.652293 0.131104
vt 0.492906 0.069730
vt 0.828948 0.184495
vt 0.780225 0.251220
vt 0.771166 0.124092
vt 0.690775 0.497264
vt 0.723508 0.553747
vt 0.638952 0.553785
vt 0.312999 0.078298
vt 0.399306 0.027876
vt 0.448802 0.050716
vt 0.204777 0.251358
vt 0.156654 0.184606
vt 0.214303 0.124419
vt 0.302968 0.508198
vt 0.223616 0.508757
vt 0.273396 0.462235
vt 0.496431 0.597622
vt 0.492906 0.579935
vt 0.526257 0.814736
vt 0.503802 0.801183
vt 0.551107 0.736613
vt 0.307925 0.694239
vt 0.288553 0.674334
vt 0.405771 0.674500
vt 0.586387 0.027525
vt 0.588597 0.013769
vt 0.695351 0.013842
vt 0.397533 0.013763
vt 0.290694 0.013822
vt 0.083392 0.515251
vt 0.087865 0.502795
vt 0.141481 0.522584
vt 0.664132 0.493710
vt 0.692061 0.445819
vt 0.687150 0.637821
vt 0.733837 0.616868
vt 0.536275 0.010793
vt 0.682009 0.029881
vt 0.711600 0.045132
vt 0.675040 0.080027
vt 0.867472 0.289966
vt 0.745078 0.330330
vt 0.705188 0.224348
vt 0.811230 0.557616
vt 0.455428 0.686297
vt 0.448461 0.637015
vt 0.246434 0.613386
vt 0.301772 0.625140
vt 0.449380 0.011215
vt 0.303610 0.030215
vt 0.274007 0.045520
vt 0.031906 0.364178
vt 0.100733 0.273668
vt 0.182265 0.405316
vt 0.240102 0.330673
vt 0.280246 0.224678
vt 0.621988 0.534328
vt 0.503741 0.833442
vt 0.520219 0.832310
vt 0.544757 0.890515
vt 0.526424 0.728736
vt 0.405174 0.691894
vt 0.522601 0.903482
vt 0.577924 0.686380
vt 0.577924 0.791425
vt 0.556465 0.699033
vt 0.487879 0.085014
vt 0.333010 0.131260
vt 0.492906 0.070068
vt 0.000000 0.352837
vt 0.018474 0.291292
vt 0.703179 0.673129
vt 0.812960 0.414924
vt 0.925660 0.428614
vt 0.901999 0.515315
vt 0.985503 0.352905
vt 0.879732 0.165880
vt 0.964086 0.290024
vt 0.733881 0.412774
vt 0.787841 0.466866
vt 0.843234 0.522380
vt 0.345486 0.559341
vt 0.488123 0.598432
vt 0.104586 0.168328
vt 0.196839 0.467177
vt 0.251004 0.412995
vt 0.168294 0.553219
vt 0.532163 0.686380
vt 0.556465 0.691108
vt 0.452443 0.702036
vt 0.363557 0.534298
vt 0.279041 0.678318
vt 0.232535 0.622522
vt 0.492906 0.831729
vt 0.545453 0.000000
vt 0.440722 -0.000000
vt 0.727448 0.031075
vt 0.644438 0.147812
vt 0.498269 0.085010
vt 0.341547 0.147795
vt 0.258565 0.031051
vt 0.829523 0.151871
vt 0.156302 0.151830
vt 0.692821 0.240876
vt 0.718851 0.326402
vt 0.293035 0.240850
vt 0.266775 0.326365
vt 0.714200 0.394357
vt 0.292961 0.445762
vt 0.271043 0.394306
vt 0.834699 0.567098
vt 0.150106 0.567019
vt 0.321075 0.493663
vt 0.556465 0.986713
vt 0.536569 1.000000
vn -0.2656 0.9442 -0.1950
vn -0.2615 0.9458 -0.1927
vn -0.2642 0.9447 -0.1942
vn -0.4691 0.8524 0.2311
vn -0.1877 0.9784 -0.0868
vn -0.3079 0.9458 -0.1030
vn 0.1344 0.9898 0.0466
vn -0.1339 0.9905 -0.0309
vn 0.1791 0.9790 -0.0973
vn 0.1865 0.9770 -0.1030
vn 0.1815 0.9784 -0.0992
vn -0.1676 0.9806 0.1013
vn -0.1586 0.9792 0.1265
vn -0.4925 -0.8540 -0.1678
vn -0.2634 -0.9451 -0.1934
vn -0.2567 -0.9477 -0.1898
vn -0.2587 -0.9469 -0.1909
vn -0.2408 -0.9648 -0.1056
vn 0.1668 -0.9828 0.0795
vn -0.1589 -0.9862 -0.0460
vn 0.1989 -0.9783 0.0580
vn 0.1947 -0.9792 0.0572
vn 0.1961 -0.9789 0.0574
vn 0.0445 0.8452 0.5325
vn -0.2313 -0.9637 0.1334
vn 0.2783 -0.9531 -0.1188
vn 0.1757 -0.9796 -0.0975
vn 0.1783 -0.9789 -0.0994
vn 0.1774 -0.9792 -0.0987
vn 0.1928 -0.9714 -0.1386
vn -0.1518 -0.9810 0.1207
vn -0.1472 -0.9822 0.1163
vn -0.1490 -0.9818 0.1180
vn -0.9794 0.1492 -0.1358
vn -0.9797 -0.1464 -0.1371
vn 0.6842 0.4553 0.5697
vn 0.6842 -0.4555 0.5696
vn -0.7760 0.5237 -0.3515
vn -0.7768 -0.5226 -0.3513
vn -0.7500 0.6163 -0.2399
vn -0.7510 -0.6153 -0.2396
vn 0.7886 0.5690 0.2330
vn 0.7861 0.5729 0.2318
vn 0.7902 0.5665 0.2336
vn 0.7851 -0.5745 0.2313
vn 0.7884 -0.5695 0.2328
vn 0.7904 -0.5663 0.2337
vn -0.7115 0.5493 0.4383
vn -0.7120 -0.5481 0.4390
vn 0.6356 0.6228 -0.4561
vn 0.6358 -0.6224 -0.4565
vn 0.6095 0.6180 -0.4966
vn 0.6096 -0.6177 -0.4968
vn -0.5044 0.8479 -0.1632
vn -0.2604 0.9462 -0.1921
vn 0.2492 0.9611 0.1189
vn -0.2716 0.9578 -0.0938
vn 0.2062 0.9766 0.0609
vn 0.1336 0.9881 0.0766
vn 0.2658 0.9571 -0.1152
vn -0.2245 0.9660 0.1280
vn 0.1893 0.9763 -0.1052
vn 0.1935 0.9712 -0.1390
vn -0.1425 0.9835 0.1112
vn -0.2660 -0.9441 -0.1948
vn -0.4699 -0.8505 0.2361
vn -0.2223 -0.9697 -0.1014
vn 0.2095 -0.9734 0.0923
vn -0.1753 -0.9828 -0.0589
vn -0.2138 -0.9756 -0.0504
vn 0.2001 -0.9781 0.0582
vn 0.1000 -0.9926 0.0682
vn 0.1751 -0.9798 -0.0969
vn -0.1715 -0.9796 0.1047
vn -0.1536 -0.9805 0.1224
vn 0.7288 0.3463 0.5907
vn 0.7290 -0.3463 0.5904
vn -0.8128 0.4600 -0.3574
vn -0.8117 -0.4622 -0.3569
vn 0.7853 0.4274 0.4480
vn 0.7811 -0.4375 0.4456
vn 0.7845 0.5754 0.2311
vn 0.7831 -0.5777 0.2304
vn -0.7811 0.5769 -0.2390
vn -0.7803 -0.5780 -0.2387
vn -0.7682 0.4168 0.4859
vn -0.7670 -0.4202 0.4849
vn 0.7386 0.4857 -0.4675
vn 0.7385 -0.4860 -0.4675
vn 0.6837 0.5145 -0.5176
vn 0.6835 -0.5148 -0.5175
vn 0.6293 0.5726 -0.5255
vn 0.6293 -0.5725 -0.5255
vn 0.2388 0.9530 0.1867
vn -0.1639 0.9850 -0.0531
vn -0.1529 0.8697 0.4693
vn 0.3655 0.8873 0.2812
vn 0.1477 0.9820 -0.1180
vn 0.0455 -0.8412 0.5388
vn 0.2421 -0.9512 0.1911
vn -0.1728 -0.9834 -0.0549
vn 0.3717 -0.8857 0.2781
vn -0.1448 -0.8714 0.4687
vn 0.1496 -0.9815 -0.1197
vn -0.7646 0.3364 -0.5497
vn -0.7660 -0.3325 -0.5502
vn -0.3325 0.2251 0.9158
vn -0.8361 0.2507 0.4880
vn -0.8379 -0.2539 0.4832
vn -0.3325 -0.2251 0.9158
vn 0.4452 0.2244 0.8668
vn 0.4455 -0.2251 0.8665
vn -0.7947 0.5479 -0.2613
vn -0.8400 0.4179 -0.3462
vn -0.8391 -0.4130 -0.3540
vn -0.7925 -0.5517 -0.2599
vn 0.7240 0.5997 0.3409
vn 0.7200 -0.6051 0.3397
vn -0.8193 0.5413 -0.1890
vn -0.8160 -0.5465 -0.1885
vn 0.6726 0.6165 0.4093
vn 0.6626 -0.6289 0.4067
vn 0.4752 0.2342 0.8481
vn 0.0355 0.2232 0.9741
vn 0.0355 -0.2232 0.9741
vn 0.4752 -0.2342 0.8481
vn -0.5930 0.3105 0.7429
vn -0.5893 -0.2990 0.7506
vn 0.9361 0.3056 0.1741
vn 0.9360 -0.3060 0.1738
vn 0.8215 0.4554 -0.3430
vn 0.8207 -0.4571 -0.3428
vn 0.7284 0.5570 -0.3991
vn 0.7282 -0.5571 -0.3992
vn -0.6635 0.5318 0.5262
vn -0.6632 -0.5324 0.5260
vn 0.0865 -0.9552 -0.2831
vn 0.3998 -0.3385 0.8518
vn 0.3958 0.2265 0.8900
vn 0.3213 -0.7121 0.6242
vn -0.0023 0.7476 -0.6642
vn -0.1929 -0.2450 -0.9501
vn -0.0270 0.6702 0.7417
vn -0.1484 0.9212 -0.3597
vn -0.1798 0.7139 -0.6768
vn -0.1015 -0.9650 -0.2420
vn 0.0153 -0.2710 0.9625
vn -0.0332 0.9990 0.0303
vn -0.1701 0.9798 -0.1052
vn 0.0046 1.0000 0.0019
vn -0.0787 0.9593 -0.2710
vn -0.2885 -0.3988 -0.8705
vn 0.0045 0.7342 0.6789
vn 0.0661 0.2860 0.9560
vn 0.0080 -0.7350 0.6780
vn -0.3957 0.2268 -0.8900
vn -0.3958 -0.2265 -0.8899
vn 0.0101 -0.7161 0.6979
vn 0.0555 0.9840 -0.1692
vn 0.0271 -0.6699 -0.7420
vn 0.1482 -0.9222 0.3573
vn 0.1813 -0.6933 0.6975
vn -0.0157 0.2549 -0.9668
vn -0.0064 -0.2533 -0.9674
vn -0.0161 -0.9995 0.0286
vn 0.0471 -0.9973 -0.0556
vn 0.0544 -0.9985 0.0108
vn 0.1852 0.9290 -0.3205
vn -0.0634 0.9979 -0.0092
vn -0.0600 0.9981 -0.0102
vn -0.0624 0.9980 -0.0095
vn 0.1148 0.9931 0.0235
vn 0.1099 -0.9937 0.0230
vn -0.2171 0.8482 -0.4831
vn 0.1484 0.9700 0.1924
vn -0.0471 0.9761 -0.2122
vn 0.2850 -0.3996 0.8713
vn 0.1193 -0.9885 0.0932
vn -0.0012 -0.7767 -0.6299
vn -0.0069 -0.7335 -0.6797
vn -0.0675 -0.2858 -0.9559
vn -0.0651 0.3075 -0.9493
vn 0.0001 0.7668 -0.6419
vn 0.3982 0.2718 0.8761
vn 0.3957 -0.2269 0.8899
vn 0.3199 0.7121 0.6250
vn 0.0664 0.9317 -0.3571
vn -0.2018 0.2210 -0.9542
vn 0.0586 -0.9394 0.3378
vn -0.0036 -0.6952 0.7188
vn -0.0553 -0.9839 0.1698
vn -0.0838 0.9564 0.2797
vn -0.1587 -0.6867 -0.7094
vn 0.0051 0.2730 0.9620
vn 0.0344 0.9987 -0.0376
vn 0.0406 0.9988 -0.0290
vn 0.0389 0.9988 -0.0314
vn 0.0661 0.9978 0.0024
vn -0.0250 0.9996 -0.0114
vn 0.0283 0.9996 0.0050
vn -0.1447 -0.9762 -0.1613
vn -0.1459 0.9684 -0.2023
vn 0.0001 0.7738 0.6334
vn -0.0855 0.9559 0.2809
vn 0.0639 -0.3213 0.9448
vn -0.3973 0.2568 -0.8810
vn -0.4002 -0.3395 -0.8513
vn -0.3221 -0.7118 -0.6241
vn -0.3188 0.7121 -0.6255
vn -0.0690 -0.9345 0.3493
vn 0.2017 -0.2225 0.9538
vn 0.1929 0.2444 0.9503
vn -0.0587 0.9391 -0.3386
vn 0.0841 -0.9569 -0.2780
vn 0.1586 0.6874 0.7088
vn 0.1015 0.9651 0.2413
vn -0.0755 -0.9956 0.0547
vn 0.0532 -0.9938 -0.0975
vn -0.1061 -0.9926 -0.0584
vn 0.0037 -1.0000 0.0023
vn -0.0281 -0.9995 -0.0131
vn 0.2358 0.9503 -0.2035
vn 0.1211 -0.9787 -0.1658
vn -0.6645 0.7468 -0.0269
vn -0.3951 -0.9181 -0.0322
vn -0.1003 0.9613 -0.2566
vn -0.0396 -0.9822 -0.1835
vn -0.1849 -0.9800 -0.0731
vn 0.2903 0.9556 0.0505
vn -0.0519 -0.9980 -0.0374
vn 0.2938 -0.9545 0.0513
vn 0.5342 0.7572 -0.3759
vn 0.5720 -0.6756 -0.4652
vn -0.3569 -0.4107 -0.8390
vn -0.0589 0.9982 -0.0105
vn -0.0830 -0.9965 0.0030
vn 0.2308 0.9461 0.2271
vn 0.2852 0.4165 0.8633
vn 0.2208 -0.9563 0.1917
vn 0.1705 -0.2499 0.9531
vn 0.1689 0.2552 0.9520
vn 0.1252 -0.7124 0.6906
vn 0.1187 0.7167 0.6872
vn 0.0410 0.9646 0.2605
vn 0.0328 0.9987 -0.0397
vn -0.0422 0.9990 -0.0131
vn 0.1103 0.9939 0.0031
vn -0.2328 -0.9444 -0.2322
vn -0.2810 0.4404 -0.8527
vn 0.0461 -0.9772 0.2074
vn -0.2192 0.9555 -0.1973
vn -0.1709 0.2520 -0.9525
vn -0.1691 -0.2557 -0.9518
vn -0.1251 0.7126 -0.6903
vn -0.1185 -0.7171 -0.6869
vn -0.0410 -0.9646 -0.2604
vn 0.0038 0.6957 -0.7183
vn -0.0792 -0.9967 0.0198
vn 0.1386 -0.9895 -0.0422
vn 0.0566 -0.9982 0.0203
vn -0.3648 0.9281 0.0746
vn -0.1834 0.9774 0.1054
vn -0.2140 -0.9649 0.1520
vn 0.4279 0.8877 -0.1702
vn 0.2289 0.9615 -0.1520
vn 0.3597 -0.9096 -0.2079
vn 0.3753 0.9260 0.0401
vn 0.2812 -0.9595 0.0188
vn -0.2298 0.9296 -0.2883
vn -0.2113 -0.9437 -0.2543
vn -0.0149 -0.9152 -0.4026
vn -0.1702 0.9854 -0.0047
vn -0.1724 0.9850 -0.0029
vn -0.1706 0.9853 -0.0044
vn -0.1435 0.9891 0.0338
vn -0.1862 0.9762 0.1112
vn 0.0240 0.9607 -0.2765
vn 0.0529 0.9970 0.0558
vn 0.0518 0.9971 0.0552
vn 0.0531 0.9970 0.0560
vn 0.2003 -0.9762 -0.0831
vn 0.0203 -0.9586 -0.2842
vn 0.1005 -0.9946 -0.0262
vn 0.7254 0.6837 0.0793
vn -0.7321 0.6588 0.1733
vn -0.6684 -0.7322 0.1307
vn 0.7974 0.5807 -0.1640
vn 0.7974 -0.5807 -0.1640
vn -0.1743 -0.9734 -0.1488
vn 0.3043 0.8634 0.4024
vn -0.1726 0.9850 -0.0030
vn -0.1710 0.9834 0.0614
vn -0.1019 0.9847 -0.1412
vn 0.1497 0.9851 -0.0846
vn 0.1205 0.9885 -0.0915
vn 0.0647 0.9683 -0.2412
vn 0.0086 0.9942 0.1072
vn -0.0980 0.9947 -0.0308
vn -0.1554 -0.9878 -0.0048
vn -0.1583 -0.9649 -0.2097
vn 0.1629 -0.9823 -0.0926
vn 0.1497 -0.9881 -0.0367
vn 0.1259 -0.9876 -0.0941
vn -0.0312 -0.9991 -0.0301
vn -0.1099 -0.9939 0.0017
vn -0.0218 -0.9920 0.1240
vn 0.5999 0.7940 0.0987
vn -0.6404 0.2960 -0.7087
vn -0.7220 0.6717 0.1663
vn -0.7215 -0.6722 0.1662
vn -0.5891 0.6867 -0.4260
vn -0.7094 0.5427 0.4496
vn -0.7094 -0.5430 0.4494
vn 0.7399 0.6503 -0.1721
vn 0.7400 -0.6503 -0.1721
vn -0.0646 -0.9793 -0.1918
vn 0.1179 0.9929 0.0161
vn 0.0514 0.9985 0.0197
vn -0.2611 0.9461 -0.1918
vn 0.1575 0.9862 -0.0504
vn -0.1404 0.9884 0.0588
vn -0.0475 0.9983 -0.0347
vn -0.0994 0.9905 -0.0946
vn -0.0272 0.9959 -0.0860
vn 0.0409 0.9957 -0.0837
vn -0.0519 0.9965 -0.0656
vn 0.0515 0.9915 -0.1196
vn -0.0469 0.9868 0.1553
vn 0.0507 0.9972 0.0544
vn 0.0484 0.9869 -0.1536
vn 0.1180 0.9396 -0.3213
vn -0.0543 0.9976 -0.0420
vn -0.1769 -0.9838 0.0278
vn 0.1277 -0.9918 -0.0034
vn -0.1529 -0.9850 0.0803
vn -0.0421 -0.9873 -0.1533
vn -0.0561 -0.9979 -0.0317
vn 0.0459 -0.9954 -0.0839
vn -0.0137 -0.9977 -0.0666
vn 0.0494 -0.9917 -0.1187
vn -0.0517 -0.9866 0.1548
vn -0.0145 -0.9900 0.1406
vn -0.1257 -0.9906 0.0534
vn 0.0032 -0.9921 -0.1255
vn -0.0426 -0.9987 0.0281
vn 0.1553 -0.9862 -0.0566
vn 0.0010 -0.9856 -0.1693
vn -0.7591 0.6508 -0.0166
vn -0.7584 -0.6516 -0.0154
vn 0.6448 -0.7624 0.0549
vn -0.5831 -0.5993 -0.5485
vn -0.8677 0.4401 -0.2311
vn -0.8725 -0.4172 -0.2543
vn 0.7176 0.5643 -0.4083
vn 0.7175 -0.5645 -0.4081
vn 0.5416 0.7145 -0.4429
vn -0.5746 0.7143 0.3994
vn -0.5751 -0.7137 0.3999
vn 0.5416 -0.7159 -0.4407
vn 0.2472 0.8267 -0.5055
vn 0.2497 0.9671 -0.0478
vn 0.2374 -0.9701 -0.0502
vn 0.2438 -0.8269 -0.5068
vn 0.2982 0.7241 -0.6220
vn 0.2968 -0.7270 -0.6192
vn -0.2093 0.6796 0.7031
vn -0.0719 0.7285 0.6812
vn -0.0988 -0.7175 0.6895
vn -0.2121 -0.6793 0.7025
vn 0.1932 0.8182 0.5415
vn 0.3061 0.8756 0.3737
vn 0.2373 -0.8670 0.4381
vn 0.1054 -0.7894 0.6048
vn -0.3745 0.8843 -0.2790
vn -0.4402 -0.8872 -0.1380
vn 0.4500 0.8222 0.3486
vn 0.5099 -0.8265 0.2387
vn 0.3800 -0.8691 0.3168
vn -0.6134 0.7535 -0.2368
vn -0.5258 -0.7864 -0.3242
usemtl plastic
s 1
f 1/1/1 2/2/2 3/3/3
f 2/2/4 4/4/4 5/5/4
f 3/3/5 6/6/5 7/7/5
f 7/7/6 6/6/6 8/8/6
f 6/6/7 9/9/7 10/10/7
f 8/8/8 10/10/8 11/11/8
f 12/12/9 13/13/10 14/14/11
f 15/15/12 14/14/12 16/16/12
f 16/16/13 14/14/13 17/17/13
f 18/18/14 19/19/14 20/20/14
f 21/21/15 22/22/16 18/18/17
f 23/23/18 24/24/18 22/22/18
f 24/24/19 25/25/19 26/26/19
f 27/27/20 28/28/20 24/24/20
f 28/28/21 29/29/22 25/25/23
f 2/2/24 5/5/24 30/30/24 31/31/24
f 32/32/25 33/33/25 34/34/25
f 34/34/26 35/35/26 36/36/26
f 33/33/27 37/37/28 35/35/29
f 33/33/30 38/38/30 37/37/30
f 39/39/31 40/40/32 33/33/33
f 4/41/34 41/42/34 42/43/34
f 41/42/35 19/44/35 42/43/35
f 43/45/36 44/46/36 45/47/36
f 44/46/37 26/48/37 45/47/37
f 7/49/38 46/50/38 3/51/38
f 46/50/39 23/52/39 21/53/39
f 47/54/40 48/55/40 11/11/40
f 48/56/41 49/57/41 27/58/41
f 9/9/42 50/59/43 51/60/44
f 50/61/45 25/62/46 29/63/47
f 16/64/48 52/65/48 15/66/48
f 52/67/49 53/68/49 32/69/49
f 54/70/50 55/71/50 56/72/50
f 55/73/51 37/37/51 38/38/51
f 56/72/52 57/74/52 58/75/52
f 57/76/53 38/38/53 59/77/53
f 2/2/54 1/1/54 4/4/54
f 3/3/3 2/2/2 6/6/55
f 6/6/56 43/78/56 9/9/56
f 8/8/57 6/6/57 10/10/57
f 10/10/58 9/9/58 51/60/58
f 51/60/59 60/79/59 10/10/59
f 12/12/60 61/80/60 13/13/60
f 15/15/61 12/12/61 14/14/61
f 14/14/11 13/13/10 54/70/62
f 14/14/63 54/70/63 56/72/63
f 17/17/64 14/14/64 62/81/64
f 20/20/65 21/21/15 18/18/17
f 18/18/66 63/82/66 19/19/66
f 21/21/67 23/23/67 22/22/67
f 22/22/68 24/24/68 26/26/68
f 23/23/69 64/83/69 24/24/69
f 64/83/70 27/27/70 24/24/70
f 24/24/71 28/28/21 25/25/23
f 28/28/72 65/84/72 29/29/72
f 34/34/73 33/33/27 35/35/29
f 32/32/74 53/85/74 33/33/74
f 53/85/75 39/39/31 33/33/33
f 43/45/76 31/86/76 44/46/76
f 44/46/77 66/87/77 26/48/77
f 3/51/78 46/50/78 67/88/78
f 67/88/79 46/50/79 21/53/79
f 43/45/80 45/47/80 68/89/80
f 68/89/81 45/47/81 26/48/81
f 9/9/42 69/90/82 50/59/43
f 50/61/45 69/91/83 25/62/46
f 11/92/84 48/93/84 70/94/84
f 70/95/85 48/56/85 27/58/85
f 15/66/86 52/65/86 71/96/86
f 71/97/87 52/67/87 32/69/87
f 54/70/88 72/98/88 55/71/88
f 55/73/89 72/99/89 37/37/89
f 56/72/90 55/71/90 57/74/90
f 57/76/91 55/73/91 38/38/91
f 58/75/92 57/74/92 73/100/92
f 73/101/93 57/76/93 59/77/93
f 31/31/94 43/78/94 6/6/94 2/2/94
f 10/10/95 47/54/95 11/11/95
f 12/12/96 15/15/96 74/102/96 75/103/96
f 12/12/97 75/103/97 76/104/97 61/80/97
f 56/72/98 58/75/98 62/81/98 14/14/98
f 77/105/99 63/82/99 18/18/99 66/106/99
f 18/18/100 22/22/100 26/26/100 66/106/100
f 28/28/101 27/27/101 49/107/101
f 78/108/102 79/109/102 34/34/102 36/36/102
f 34/34/103 79/109/103 80/110/103 32/32/103
f 40/40/104 59/77/104 38/38/104 33/33/104
f 67/88/105 41/42/105 1/111/105 3/51/105
f 67/88/106 21/53/106 20/112/106 41/42/106
f 30/113/107 5/114/107 81/115/107 82/116/107
f 42/117/108 81/115/108 5/114/108 4/118/108
f 42/117/109 19/119/109 63/120/109 81/115/109
f 81/115/110 63/120/110 77/121/110 82/116/110
f 30/122/111 82/123/111 44/46/111 31/86/111
f 44/46/112 82/123/112 77/124/112 66/87/112
f 83/125/113 46/126/113 7/127/113 8/128/113
f 41/42/114 4/41/114 1/111/114
f 20/112/115 19/44/115 41/42/115
f 83/129/116 64/130/116 23/52/116 46/50/116
f 68/131/117 69/90/117 9/9/117 43/78/117
f 68/89/118 26/48/118 25/62/118 69/91/118
f 11/92/119 70/94/119 83/125/119 8/128/119
f 83/129/120 70/95/120 27/58/120 64/130/120
f 51/60/121 50/59/121 84/132/121 60/79/121
f 29/63/122 65/133/122 84/134/122 50/61/122
f 76/135/123 75/136/123 85/137/123 86/138/123
f 74/139/124 87/140/124 85/137/124 75/136/124
f 85/137/125 87/140/125 80/141/125 79/142/125
f 85/137/126 79/142/126 78/143/126 86/138/126
f 74/144/127 15/66/127 71/96/127 87/145/127
f 71/96/128 32/146/128 80/147/128 87/145/128
f 76/135/129 86/138/129 88/148/129 61/149/129
f 88/148/130 86/138/130 78/143/130 36/150/130
f 88/151/131 89/152/131 13/13/131 61/80/131
f 88/153/132 36/36/132 35/35/132 89/154/132
f 13/13/133 89/152/133 72/98/133 54/70/133
f 72/99/134 89/154/134 35/35/134 37/37/134
f 17/155/135 90/156/135 52/65/135 16/64/135
f 52/67/136 90/157/136 39/158/136 53/68/136
usemtl metal
f 91/159/137 92/160/137 93/161/137
f 94/162/138 95/163/138 96/164/138
f 97/165/139 98/166/139 95/163/139
f 94/167/140 96/168/140 99/169/140
f 100/170/141 101/171/141 102/172/141
f 103/173/142 104/174/142 105/175/142
f 106/176/143 105/177/143 107/178/143
f 101/171/144 105/179/144 108/180/144
f 100/170/145 105/179/145 101/171/145
f 93/161/146 92/160/146 105/181/146
f 109/182/147 105/177/147 110/183/147
f 111/184/148 112/185/148 113/186/148
f 114/187/149 115/188/149 116/189/149
f 117/190/150 118/191/150 119/192/150
f 120/193/151 121/194/151 119/192/151
f 122/195/152 123/196/152 124/197/152
f 125/198/153 126/199/153 127/200/153
f 122/201/154 128/202/154 125/198/154
f 122/203/155 129/204/155 130/205/155
f 131/206/156 132/207/156 123/196/156
f 132/207/157 133/208/157 123/196/157
f 134/209/158 130/205/158 129/204/158
f 135/210/159 136/211/159 137/212/159
f 136/213/160 138/214/160 139/215/160
f 136/216/161 134/209/161 140/217/161
f 136/216/162 130/205/162 134/209/162
f 136/213/163 141/218/163 142/219/163
f 141/218/164 136/213/164 139/215/164
f 143/220/165 144/221/165 145/222/165
f 144/221/166 146/223/166 147/224/166
f 148/225/167 149/226/167 150/227/167
f 151/228/168 152/229/168 147/230/168
f 153/231/169 154/232/170 117/190/171
f 118/191/172 155/233/172 120/193/172
f 155/234/173 150/227/173 149/226/173
f 121/194/174 156/235/174 119/192/174
f 157/236/175 102/172/175 158/237/175
f 159/238/176 101/171/176 108/180/176
f 95/163/177 94/162/177 157/239/177
f 94/167/178 91/159/178 157/240/178
f 91/159/179 104/241/179 157/240/179
f 104/174/180 91/242/180 93/243/180
f 157/244/181 104/174/181 103/173/181
f 103/173/182 100/245/182 157/244/182
f 157/236/183 100/170/183 102/172/183
f 158/246/184 97/165/184 95/163/184
f 96/164/185 95/163/185 98/166/185
f 158/246/186 160/247/186 97/165/186
f 102/172/187 101/171/187 159/238/187
f 103/173/188 105/175/188 100/245/188
f 92/160/189 99/169/189 161/248/189
f 105/181/190 161/248/190 110/249/190
f 92/160/191 161/248/191 105/181/191
f 108/180/192 105/179/192 106/250/192
f 93/243/193 105/175/193 104/174/193
f 109/182/194 107/178/194 105/177/194
f 112/185/195 152/229/196 151/228/197
f 113/186/198 146/251/198 162/252/198
f 153/231/199 117/190/199 119/192/199
f 119/192/200 118/191/200 120/193/200
f 129/204/201 122/203/201 124/253/201
f 122/254/202 127/255/202 163/256/202
f 122/201/203 125/198/203 127/200/203
f 127/255/204 126/257/204 135/210/204
f 122/201/205 130/258/205 128/202/205
f 163/259/206 131/206/206 123/196/206
f 123/196/207 133/208/207 124/197/207
f 133/208/208 164/260/208 124/197/208
f 163/256/209 165/261/209 131/262/209
f 166/263/210 134/209/210 129/204/210
f 130/258/211 136/264/211 128/202/211
f 128/202/212 136/264/212 125/198/212
f 165/261/213 135/210/213 137/212/213
f 138/265/214 136/216/214 140/217/214
f 125/198/215 136/264/215 126/199/215
f 126/257/216 136/211/216 135/210/216
f 143/220/217 167/266/217 144/221/217
f 145/222/218 144/221/218 147/224/218
f 168/267/219 115/268/219 169/269/219
f 170/270/220 148/225/220 150/227/220
f 170/270/221 154/271/221 148/225/221
f 146/251/222 151/228/222 147/230/222
f 152/272/223 145/222/223 147/224/223
f 171/273/224 116/189/224 172/274/224
f 172/275/225 116/276/225 168/267/225
f 114/187/226 173/277/226 115/188/226
f 169/269/227 115/268/227 173/278/227
f 168/267/228 116/276/228 115/268/228
f 174/279/229 120/193/229 155/233/229
f 153/280/230 148/225/230 154/271/230
f 149/226/231 174/281/231 155/234/231
f 120/193/232 174/279/232 121/194/232
f 121/282/233 174/281/233 149/226/233
f 156/283/234 121/284/234 148/285/234
f 117/190/171 154/232/170 152/286/235
f 152/287/236 154/271/236 170/270/236
f 159/238/237 160/288/237 158/237/237 102/172/237
f 95/163/238 157/239/238 158/246/238
f 94/167/239 99/169/239 92/160/239 91/159/239
f 98/166/240 109/182/240 110/183/240 96/164/240
f 107/178/241 109/182/241 98/166/241 97/165/241
f 99/169/242 96/168/242 110/249/242 161/248/242
f 160/247/243 106/176/243 107/178/243 97/165/243
f 108/180/244 106/250/244 160/288/244 159/238/244
f 151/228/197 146/251/245 113/186/245 112/185/195
f 171/273/246 113/186/246 114/187/246 116/189/246
f 162/252/247 175/289/247 114/187/247 113/186/247
f 166/263/248 129/204/248 124/253/248 164/290/248
f 123/196/249 122/195/249 163/259/249
f 166/263/250 140/217/250 134/209/250
f 135/210/251 165/261/251 163/256/251 127/255/251
f 142/219/252 141/218/252 132/207/252 131/206/252
f 139/215/253 133/208/253 132/207/253 141/218/253
f 165/261/254 137/212/254 142/291/254 131/262/254
f 139/215/255 138/214/255 164/260/255 133/208/255
f 140/217/256 166/263/256 164/290/256 138/265/256
f 136/211/257 142/291/257 137/212/257
f 172/275/258 168/267/258 144/221/258 167/266/258
f 144/221/259 168/267/259 176/292/259 146/223/259
f 169/269/260 176/292/260 168/267/260
f 113/186/261 171/273/261 172/274/261 167/293/261
f 111/184/262 113/186/262 167/293/262
f 167/266/263 143/220/263 111/294/263
f 176/295/264 162/252/264 146/251/264
f 175/289/265 173/277/265 114/187/265
f 169/269/266 173/278/266 175/296/266
f 175/289/267 162/252/267 176/295/267
f 169/269/268 175/296/268 176/292/268
f 156/235/269 153/231/269 119/192/269
f 148/225/270 153/280/270 156/297/270
f 149/226/271 148/225/271 121/282/271
usemtl plastic2
f 47/298/272 10/299/273 177/300/274
f 177/300/275 178/301/275 179/302/275
f 62/303/276 180/304/276 17/305/276
f 181/306/277 182/307/277 183/308/277
f 184/309/278 185/310/279 186/311/280
f 187/312/281 188/313/281 40/314/281
f 189/315/282 190/316/282 191/317/282
f 192/318/283 193/319/283 194/320/283
f 60/321/284 84/322/284 186/311/284
f 179/323/285 195/324/285 177/325/285
f 195/326/286 196/327/286 197/328/286
f 198/329/287 199/330/287 200/331/287
f 199/332/288 188/313/288 200/333/288
f 111/334/289 143/335/289 201/336/289
f 184/309/290 202/337/290 203/338/290
f 177/300/274 10/299/273 178/301/291
f 179/302/292 178/301/292 204/339/292
f 204/339/293 185/310/293 205/340/293
f 58/341/294 198/329/294 62/303/294
f 206/342/295 207/343/295 208/344/295
f 209/345/296 182/307/296 181/306/296
f 182/307/297 210/346/297 211/347/297
f 185/310/298 212/348/298 205/340/298
f 49/349/299 197/328/299 28/350/299
f 213/351/300 214/352/300 196/327/300
f 40/314/301 188/313/301 59/353/301
f 187/312/302 215/354/302 188/313/302
f 187/312/303 216/355/303 215/354/303
f 145/356/304 217/357/304 218/358/304
f 219/359/305 218/358/305 189/315/305
f 220/360/306 219/359/306 189/315/306
f 186/311/307 84/322/307 221/361/307
f 222/362/308 223/363/308 205/364/308
f 177/325/309 195/324/309 224/365/309
f 224/366/310 195/326/310 197/328/310
f 205/364/311 225/367/311 222/362/311
f 17/368/312 180/369/312 90/370/312
f 90/371/313 226/372/313 39/373/313
f 206/342/314 198/329/314 200/331/314
f 200/333/315 188/313/315 215/354/315
f 145/356/316 152/374/316 170/375/316
f 60/321/317 186/311/317 178/301/317 10/299/317
f 186/311/318 185/310/318 204/339/318 178/301/318
f 204/339/319 205/340/319 223/376/319 179/302/319
f 198/329/320 206/342/320 208/344/320 62/303/320
f 180/304/321 62/303/321 208/344/321
f 227/377/322 209/345/322 112/378/322 111/379/322
f 210/346/323 182/307/323 209/345/323 227/377/323
f 152/380/324 112/378/324 209/345/324
f 209/345/325 181/306/325 118/381/325 117/382/325
f 117/382/326 152/380/326 209/345/326
f 183/308/327 182/307/327 208/344/327 207/343/327
f 211/347/328 180/304/328 208/344/328 182/307/328
f 184/309/278 228/383/329 229/384/329 185/310/279
f 228/383/330 210/346/330 227/377/330 229/384/330
f 227/377/331 111/379/331 230/385/331 229/384/331
f 229/384/332 230/385/332 212/348/332 185/310/332
f 197/328/333 196/327/333 214/352/333 28/350/333
f 28/350/334 214/352/334 231/386/334 65/387/334
f 226/372/335 187/312/335 40/314/335 39/373/335
f 217/357/336 190/316/336 189/315/336 218/358/336
f 218/358/337 143/335/337 145/356/337
f 217/357/338 170/375/338 150/388/338 190/316/338
f 217/357/339 145/356/339 170/375/339
f 187/312/340 189/315/340 191/317/340 216/355/340
f 220/360/341 189/315/341 187/312/341 226/372/341
f 194/320/342 193/319/342 232/389/342 233/390/342
f 193/319/343 234/391/343 201/336/343 232/389/343
f 201/336/344 143/335/344 218/358/344 232/389/344
f 233/390/345 232/389/345 218/358/345 219/359/345
f 214/352/346 193/319/346 192/318/346 231/386/346
f 213/351/347 234/391/347 193/319/347 214/352/347
f 224/365/348 48/392/348 47/393/348 177/325/348
f 224/366/349 197/328/349 49/349/349 48/394/349
f 84/322/350 65/387/350 231/386/350 221/395/350
f 222/396/351 225/397/351 213/351/351 196/327/351
f 179/323/352 223/363/352 222/362/352 195/324/352
f 196/398/353 195/324/353 222/362/353
f 198/329/354 58/341/354 73/399/354 199/330/354
f 73/400/355 59/353/355 188/313/355 199/332/355
f 207/343/356 206/342/356 200/331/356 235/401/356
f 236/402/357 90/403/357 180/304/357
f 226/372/358 90/371/358 236/404/358
f 200/333/359 215/354/359 216/355/359 235/405/359
f 183/308/360 235/401/360 155/406/360 181/306/360
f 155/406/361 118/381/361 181/306/361
f 190/316/362 150/388/362 155/407/362
f 155/407/363 235/405/363 191/317/363 190/316/363
f 235/401/364 183/308/364 207/343/364
f 216/355/365 191/317/365 235/405/365
f 211/347/366 237/408/366 236/402/366 180/304/366
f 211/347/367 210/346/367 238/409/367 237/408/367
f 237/410/368 238/411/368 219/359/368 220/360/368
f 236/404/369 237/410/369 220/360/369 226/372/369
f 210/346/370 228/383/370 239/412/370 238/409/370
f 228/383/371 184/309/371 203/338/371 239/412/371
f 203/413/372 194/320/372 233/390/372 239/414/372
f 239/414/373 233/390/373 219/359/373 238/411/373
f 230/385/374 111/379/374 240/415/374 212/348/374
f 240/416/375 111/334/375 201/336/375 234/391/375
f 186/311/376 221/361/376 202/337/376 184/309/376
f 221/395/377 231/386/377 192/318/377 202/417/377
f 202/417/378 192/318/378 194/320/378 203/413/378
f 212/418/379 240/419/379 225/367/379 205/364/379
f 225/397/380 240/416/380 234/391/380 213/351/380
