# Blender v3.0.0 OBJ File: 'untitled.blend'
# www.blender.org
mtllib carpresentation.mtl
o base
v 0.000000 -0.434689 -1.841969
v 0.000000 0.434689 -1.841969
v 1.082682 -0.434689 -1.490184
v 1.082682 0.434689 -1.490184
v 1.751817 -0.434689 -0.569200
v 1.751817 0.434689 -0.569200
v 1.751817 -0.434689 0.569200
v 1.751817 0.434689 0.569200
v 1.082682 -0.434689 1.490184
v 1.082682 0.434689 1.490184
v -0.000000 -0.434689 1.841969
v -0.000000 0.434689 1.841969
v -1.082682 -0.434689 1.490184
v -1.082682 0.434689 1.490184
v -1.751817 -0.434689 0.569200
v -1.751817 0.434689 0.569200
v -1.751817 -0.434689 -0.569200
v -1.751817 0.434689 -0.569200
v -1.082682 -0.434689 -1.490184
v -1.082682 0.434689 -1.490184
vt 0.500000 -0.872876
vt 0.500000 1.872876
vt 1.306956 1.872876
vt 1.306956 -0.872876
vt 1.610680 -0.872876
vt 1.610680 1.872876
vt 0.924242 1.872876
vt 0.924242 -0.872876
vt 0.075758 1.872876
vt 0.075758 -0.872876
vt -0.610680 1.872876
vt -0.610680 -0.872876
vt 1.306956 -0.872876
vt 1.306956 1.872876
vt 0.500000 1.872876
vt 0.500000 -0.872876
vt -0.306956 1.872876
vt -0.306956 -0.872876
vt -0.610680 -0.872876
vt -0.610680 1.872876
vt 0.075758 1.872876
vt 0.075758 -0.872876
vt 0.924242 1.872876
vt 0.924242 -0.872876
vt 1.306956 1.610680
vt -0.306956 1.610680
vt -0.805682 0.924242
vt -0.805682 0.075758
vt -0.306956 -0.610680
vt 0.500000 -0.872876
vt 1.306956 -0.610680
vt 1.805682 0.075758
vt 1.805682 0.924242
vt 1.610680 1.872876
vt 1.610680 -0.872876
vt -0.306956 -0.872876
vt -0.306956 1.872876
vt 0.500000 1.872876
vt 1.306956 1.610680
vt 1.805682 0.924242
vt 1.805682 0.075758
vt 1.306956 -0.610680
vt -0.306956 -0.610680
vt -0.805682 0.075758
vt -0.805682 0.924242
vt -0.306956 1.610680
vn 0.3090 0.0000 -0.9511
vn 0.8090 0.0000 -0.5878
vn 1.0000 0.0000 0.0000
vn 0.8090 0.0000 0.5878
vn 0.3090 0.0000 0.9511
vn -0.3090 0.0000 0.9511
vn -0.8090 0.0000 0.5878
vn -1.0000 0.0000 0.0000
vn 0.0000 1.0000 0.0000
vn -0.8090 0.0000 -0.5878
vn -0.3090 0.0000 -0.9511
vn 0.0000 -1.0000 0.0000
usemtl Used_Metal
s off
f 1/1/1 2/2/1 4/3/1 3/4/1
f 3/5/2 4/6/2 6/7/2 5/8/2
f 5/8/3 6/7/3 8/9/3 7/10/3
f 7/10/4 8/9/4 10/11/4 9/12/4
f 9/13/5 10/14/5 12/15/5 11/16/5
f 11/16/6 12/15/6 14/17/6 13/18/6
f 13/19/7 14/20/7 16/21/7 15/22/7
f 15/22/8 16/21/8 18/23/8 17/24/8
f 4/25/9 2/2/9 20/26/9 18/27/9 16/28/9 14/29/9 12/30/9 10/31/9 8/32/9 6/33/9
f 17/24/10 18/23/10 20/34/10 19/35/10
f 19/36/11 20/37/11 2/2/11 1/1/11
f 1/38/12 3/39/12 5/40/12 7/41/12 9/42/12 11/16/12 13/43/12 15/44/12 17/45/12 19/46/12
