# Blender v2.93.0 OBJ File: ''
# www.blender.org
mtllib seringue.mtl
o Cylinder
v 0.000000 -0.015819 -0.017661
v 0.003445 -0.015819 -0.017322
v 0.003084 -0.017661 -0.015508
v 0.000000 -0.017661 -0.015812
v 0.006759 -0.015819 -0.016317
v 0.006050 -0.017661 -0.014608
v 0.009812 -0.015819 -0.014686
v 0.008783 -0.017661 -0.013146
v 0.012488 -0.015819 -0.012488
v 0.011180 -0.017661 -0.011180
v 0.014686 -0.015819 -0.009812
v 0.013146 -0.017661 -0.008783
v 0.016317 -0.015819 -0.006759
v 0.014608 -0.017661 -0.006050
v 0.017322 -0.015819 -0.003445
v 0.015508 -0.017661 -0.003084
v 0.017661 -0.015819 -0.000000
v 0.015812 -0.017661 -0.000000
v 0.017322 -0.015819 0.003445
v 0.015508 -0.017661 0.003084
v 0.016317 -0.015819 0.006759
v 0.014608 -0.017661 0.006050
v 0.014686 -0.015819 0.009812
v 0.013146 -0.017661 0.008783
v 0.012488 -0.015819 0.012488
v 0.011180 -0.017661 0.011180
v 0.009812 -0.015819 0.014686
v 0.008783 -0.017661 0.013146
v 0.006759 -0.015819 0.016317
v 0.006050 -0.017661 0.014608
v 0.003445 -0.015819 0.017322
v 0.003084 -0.017661 0.015508
v 0.000000 -0.015819 0.017661
v 0.000000 -0.017661 0.015812
v -0.003445 -0.015819 0.017322
v -0.003084 -0.017661 0.015508
v -0.006759 -0.015819 0.016317
v -0.006050 -0.017661 0.014608
v -0.009812 -0.015819 0.014686
v -0.008783 -0.017661 0.013146
v -0.012488 -0.015819 0.012488
v -0.011180 -0.017661 0.011180
v -0.014686 -0.015819 0.009812
v -0.013146 -0.017661 0.008783
v -0.016317 -0.015819 0.006759
v -0.014608 -0.017661 0.006050
v -0.017322 -0.015819 0.003445
v -0.015508 -0.017661 0.003084
v -0.017661 -0.015819 -0.000000
v -0.015812 -0.017661 -0.000000
v -0.017322 -0.015819 -0.003445
v -0.015508 -0.017661 -0.003084
v -0.016317 -0.015819 -0.006759
v -0.014608 -0.017661 -0.006050
v -0.014686 -0.015819 -0.009812
v -0.013146 -0.017661 -0.008783
v -0.012488 -0.015819 -0.012488
v -0.011180 -0.017661 -0.011180
v -0.009812 -0.015819 -0.014686
v -0.008783 -0.017661 -0.013146
v -0.006759 -0.015819 -0.016317
v -0.006050 -0.017661 -0.014608
v -0.003445 -0.015819 -0.017322
v -0.003084 -0.017661 -0.015508
v 0.001382 -0.017661 -0.006946
v 0.000000 -0.017661 -0.007082
v 0.006542 -0.017661 0.002710
v 0.006946 -0.017661 0.001382
v -0.003934 -0.017661 0.005888
v -0.002710 -0.017661 0.006542
v -0.005008 -0.017661 -0.005008
v -0.005888 -0.017661 -0.003934
v 0.006542 -0.017661 -0.002710
v 0.005888 -0.017661 -0.003934
v 0.001382 -0.017661 0.006946
v 0.002710 -0.017661 0.006542
v -0.007082 -0.017661 -0.000000
v -0.006946 -0.017661 0.001382
v 0.002710 -0.017661 -0.006542
v 0.005888 -0.017661 0.003934
v -0.005008 -0.017661 0.005008
v -0.003934 -0.017661 -0.005888
v 0.006946 -0.017661 -0.001382
v 0.000000 -0.017661 0.007082
v -0.006946 -0.017661 -0.001382
v 0.003934 -0.017661 -0.005888
v 0.005008 -0.017661 0.005008
v -0.005888 -0.017661 0.003934
v -0.002710 -0.017661 -0.006542
v 0.007082 -0.017661 -0.000000
v -0.001382 -0.017661 0.006946
v -0.006542 -0.017661 -0.002710
v 0.005008 -0.017661 -0.005008
v 0.003934 -0.017661 0.005888
v -0.006542 -0.017661 0.002710
v -0.001382 -0.017661 -0.006946
v 0.000000 0.145313 -0.017661
v 0.003445 0.145313 -0.017322
v 0.006759 0.145313 -0.016317
v -0.006759 0.145313 -0.016317
v -0.003445 0.145313 -0.017322
v -0.009812 0.145313 -0.014686
v -0.012488 0.145313 -0.012488
v -0.014686 0.145313 -0.009812
v -0.016317 0.145313 -0.006759
v -0.017322 0.145313 -0.003445
v -0.017661 0.145313 0.000000
v -0.017322 0.145313 0.003445
v -0.016317 0.145313 0.006759
v -0.014686 0.145313 0.009812
v -0.012488 0.145313 0.012488
v -0.009812 0.145313 0.014686
v -0.006759 0.145313 0.016317
v -0.003445 0.145313 0.017322
v 0.000000 0.145313 0.017661
v 0.003445 0.145313 0.017322
v 0.006759 0.145313 0.016317
v 0.009812 0.145313 0.014686
v 0.012488 0.145313 0.012488
v 0.014686 0.145313 0.009812
v 0.016317 0.145313 0.006759
v 0.017322 0.145313 0.003445
v 0.017661 0.145313 0.000000
v 0.017322 0.145313 -0.003445
v 0.016317 0.145313 -0.006759
v 0.014686 0.145313 -0.009812
v 0.012488 0.145313 -0.012488
v 0.009812 0.145313 -0.014686
v -0.003445 0.209521 -0.017322
v 0.000000 0.209521 -0.017661
v 0.006759 0.209521 -0.016317
v 0.009812 0.209521 -0.014686
v 0.012488 0.209521 -0.012488
v 0.014686 0.209521 -0.009812
v 0.016317 0.209521 -0.006759
v 0.017322 0.209521 -0.003445
v 0.017661 0.209521 0.000000
v 0.017322 0.209521 0.003445
v 0.016317 0.209521 0.006759
v 0.014686 0.209521 0.009812
v 0.012488 0.209521 0.012488
v 0.009812 0.209521 0.014686
v 0.006759 0.209521 0.016317
v 0.003445 0.209521 0.017322
v 0.000000 0.209521 0.017661
v -0.003445 0.209521 0.017322
v -0.006759 0.209521 0.016317
v -0.009812 0.209521 0.014686
v -0.012488 0.209521 0.012488
v -0.014686 0.209521 0.009812
v -0.016317 0.209521 0.006759
v -0.017322 0.209521 0.003445
v -0.017661 0.209521 0.000000
v -0.017322 0.209521 -0.003445
v -0.016317 0.209521 -0.006759
v -0.014686 0.209521 -0.009812
v -0.012488 0.209521 -0.012488
v -0.009812 0.209521 -0.014686
v -0.006759 0.209521 -0.016317
v -0.007237 0.282024 -0.002997
v -0.006514 0.282024 -0.004352
v 0.003445 0.209521 -0.017322
v 0.005539 0.282024 0.005539
v 0.006514 0.282024 0.004352
v 0.022127 0.282866 0.014785
v 0.018818 0.282866 0.018818
v 0.005539 0.282024 -0.005539
v 0.006514 0.282024 -0.004352
v 0.004352 0.282024 0.006514
v 0.002997 0.282024 0.007237
v -0.007237 0.282024 0.002997
v -0.007683 0.282024 0.001528
v 0.000000 0.282024 -0.007834
v 0.001528 0.282024 -0.007683
v -0.001528 0.282024 -0.007683
v 0.007683 0.282024 0.001528
v 0.007237 0.282024 0.002997
v -0.002997 0.282024 0.007237
v -0.004352 0.282024 0.006514
v -0.005539 0.282024 -0.005539
v 0.007237 0.282024 -0.002997
v 0.001528 0.282024 0.007683
v -0.007834 0.282024 0.000000
v 0.002997 0.282024 -0.007237
v -0.005539 0.282024 0.005539
v -0.004352 0.282024 -0.006514
v 0.007683 0.282024 -0.001528
v 0.000000 0.282024 0.007834
v -0.007683 0.282024 -0.001528
v 0.004352 0.282024 -0.006514
v -0.006514 0.282024 0.004352
v -0.002997 0.282024 -0.007237
v 0.007834 0.282024 0.000000
v -0.001528 0.282024 0.007683
v 0.005193 0.282866 0.026101
v 0.010184 0.282866 0.024586
v 0.010184 0.285598 0.024586
v 0.005193 0.285598 0.026101
v -0.026101 0.282866 -0.005193
v -0.024586 0.282866 -0.010184
v 0.014785 0.282866 0.022127
v -0.022127 0.282866 -0.014785
v 0.000000 0.282866 -0.026612
v 0.005193 0.282866 -0.026101
v -0.018818 0.282866 -0.018818
v 0.010184 0.282866 -0.024586
v -0.014785 0.282866 -0.022127
v 0.000000 0.282866 0.026612
v 0.014785 0.282866 -0.022127
v -0.010184 0.282866 -0.024586
v -0.005193 0.282866 0.026101
v 0.018818 0.282866 -0.018818
v -0.005193 0.282866 -0.026101
v -0.010184 0.282866 0.024586
v 0.022127 0.282866 -0.014785
v -0.014785 0.282866 0.022127
v 0.024586 0.282866 -0.010184
v -0.018818 0.282866 0.018818
v 0.026101 0.282866 -0.005193
v -0.022127 0.282866 0.014785
v 0.026612 0.282866 0.000000
v -0.024586 0.282866 0.010184
v 0.026101 0.282866 0.005193
v -0.026101 0.282866 0.005193
v 0.024586 0.282866 0.010184
v -0.026612 0.282866 0.000000
v 0.005193 0.285598 -0.026101
v 0.000000 0.285598 -0.026612
v -0.005193 0.285598 -0.026101
v -0.010184 0.285598 -0.024586
v -0.014785 0.285598 -0.022127
v -0.018818 0.285598 -0.018818
v -0.022127 0.285598 -0.014785
v -0.024586 0.285598 -0.010184
v -0.026101 0.285598 -0.005193
v -0.026612 0.285598 0.000000
v -0.026101 0.285598 0.005193
v -0.024586 0.285598 0.010184
v -0.022127 0.285598 0.014785
v -0.018818 0.285598 0.018818
v -0.014785 0.285598 0.022127
v -0.010184 0.285598 0.024586
v -0.005193 0.285598 0.026101
v 0.000000 0.285598 0.026612
v 0.014785 0.285598 0.022127
v 0.018818 0.285598 0.018818
v 0.022127 0.285598 0.014785
v 0.024586 0.285598 0.010184
v 0.026101 0.285598 0.005193
v 0.026612 0.285598 0.000000
v 0.026101 0.285598 -0.005193
v 0.024586 0.285598 -0.010184
v 0.022127 0.285598 -0.014785
v 0.018818 0.285598 -0.018818
v 0.014785 0.285598 -0.022127
v 0.010184 0.285598 -0.024586
v 0.006542 -0.029862 0.002710
v 0.006946 -0.029862 0.001382
v 0.005008 -0.029862 0.005008
v 0.003934 -0.029862 0.005888
v 0.005635 -0.030356 0.008431
v 0.007170 -0.030356 0.007170
v -0.007082 -0.029862 -0.000000
v -0.006946 -0.029862 0.001382
v 0.005888 -0.029862 0.003934
v -0.006946 -0.029862 -0.001382
v -0.006542 -0.029862 -0.002710
v -0.005888 -0.029862 -0.003934
v 0.002710 -0.029862 0.006542
v 0.001382 -0.029862 -0.006946
v 0.000000 -0.029862 -0.007082
v -0.005008 -0.029862 -0.005008
v 0.001382 -0.029862 0.006946
v 0.002710 -0.029862 -0.006542
v -0.003934 -0.029862 -0.005888
v 0.000000 -0.029862 0.007082
v 0.003934 -0.029862 -0.005888
v -0.002710 -0.029862 -0.006542
v -0.001382 -0.029862 0.006946
v 0.005008 -0.029862 -0.005008
v -0.001382 -0.029862 -0.006946
v -0.002710 -0.029862 0.006542
v 0.005888 -0.029862 -0.003934
v -0.003934 -0.029862 0.005888
v 0.006542 -0.029862 -0.002710
v -0.005008 -0.029862 0.005008
v 0.006946 -0.029862 -0.001382
v -0.005888 -0.029862 0.003934
v 0.007082 -0.029862 -0.000000
v -0.006542 -0.029862 0.002710
v 0.001978 -0.030356 0.009946
v 0.000000 -0.030356 0.010142
v 0.000000 -0.032389 0.010142
v 0.001978 -0.032389 0.009946
v -0.008433 -0.030356 -0.005635
v -0.009370 -0.030356 -0.003880
v 0.003880 -0.030356 0.009370
v 0.001978 -0.030356 -0.009946
v 0.000000 -0.030356 -0.010142
v -0.007170 -0.030356 -0.007170
v 0.003880 -0.030356 -0.009370
v -0.005635 -0.030356 -0.008433
v 0.005635 -0.030356 -0.008431
v -0.003880 -0.030356 -0.009370
v -0.001978 -0.030356 0.009946
v 0.007170 -0.030356 -0.007170
v -0.001978 -0.030356 -0.009946
v -0.003880 -0.030356 0.009370
v 0.008431 -0.030356 -0.005635
v -0.005635 -0.030356 0.008431
v 0.009370 -0.030356 -0.003880
v -0.007170 -0.030356 0.007170
v 0.009946 -0.030356 -0.001978
v -0.008431 -0.030356 0.005635
v 0.010142 -0.030356 -0.000000
v -0.009370 -0.030356 0.003880
v 0.009946 -0.030356 0.001978
v -0.009946 -0.030356 0.001978
v 0.009370 -0.030356 0.003880
v -0.010142 -0.030356 -0.000000
v 0.008431 -0.030356 0.005635
v -0.009946 -0.030356 -0.001978
v -0.003880 -0.032389 0.009370
v -0.005635 -0.032389 0.008431
v -0.005029 -0.032389 0.007526
v -0.003464 -0.032389 0.008363
v 0.005635 -0.032389 -0.008431
v 0.003880 -0.032389 -0.009370
v -0.003880 -0.032389 -0.009370
v -0.005635 -0.032389 -0.008433
v -0.001978 -0.032389 0.009946
v 0.007170 -0.032389 -0.007170
v -0.001978 -0.032389 -0.009946
v 0.008431 -0.032389 -0.005635
v 0.000000 -0.032389 -0.010142
v 0.009370 -0.032389 -0.003880
v -0.007170 -0.032389 0.007170
v 0.009946 -0.032389 -0.001978
v -0.008431 -0.032389 0.005635
v 0.010142 -0.032389 -0.000000
v -0.009370 -0.032389 0.003880
v 0.009946 -0.032389 0.001978
v -0.009946 -0.032389 0.001978
v 0.009370 -0.032389 0.003880
v -0.010142 -0.032389 -0.000000
v 0.008431 -0.032389 0.005635
v -0.009946 -0.032389 -0.001978
v 0.007170 -0.032389 0.007170
v -0.009370 -0.032389 -0.003880
v 0.005635 -0.032389 0.008431
v -0.008433 -0.032389 -0.005635
v 0.003880 -0.032389 0.009370
v 0.001978 -0.032389 -0.009946
v -0.007170 -0.032389 -0.007170
v -0.006955 -0.047461 0.004647
v -0.007727 -0.047461 0.003200
v -0.006035 -0.058510 0.002500
v -0.005430 -0.058510 0.003629
v 0.008363 -0.032389 -0.003464
v 0.007526 -0.032389 -0.005029
v -0.006402 -0.032389 0.006402
v 0.008879 -0.032389 -0.001766
v -0.007526 -0.032389 0.005029
v 0.009052 -0.032389 -0.000000
v -0.008363 -0.032389 0.003464
v 0.008879 -0.032389 0.001766
v -0.008879 -0.032389 0.001766
v 0.008363 -0.032389 0.003464
v -0.009052 -0.032389 -0.000000
v 0.007526 -0.032389 0.005029
v -0.008879 -0.032389 -0.001766
v 0.006402 -0.032389 0.006402
v -0.008363 -0.032389 -0.003464
v 0.005029 -0.032389 0.007526
v -0.007526 -0.032389 -0.005029
v 0.003464 -0.032389 0.008363
v 0.001766 -0.032389 -0.008879
v 0.000000 -0.032389 -0.009052
v -0.006402 -0.032389 -0.006402
v 0.001766 -0.032389 0.008879
v 0.003464 -0.032389 -0.008363
v -0.005029 -0.032389 -0.007526
v 0.000000 -0.032389 0.009052
v 0.005029 -0.032389 -0.007526
v -0.003464 -0.032389 -0.008363
v -0.001766 -0.032389 0.008879
v 0.006402 -0.032389 -0.006402
v -0.001766 -0.032389 -0.008879
v -0.006531 -0.058510 -0.000000
v -0.006405 -0.058510 -0.001274
v -0.005596 -0.058510 -0.001113
v -0.005707 -0.058510 -0.000000
v 0.008363 -0.047461 -0.000000
v 0.008203 -0.047461 0.001631
v 0.006405 -0.058510 0.001274
v 0.006531 -0.058510 -0.000000
v -0.008203 -0.047461 0.001631
v -0.006405 -0.058510 0.001274
v 0.007727 -0.047461 0.003200
v 0.006035 -0.058510 0.002500
v -0.008363 -0.047461 -0.000000
v 0.006955 -0.047461 0.004647
v 0.005430 -0.058510 0.003629
v -0.008203 -0.047461 -0.001631
v 0.005913 -0.047461 0.005913
v 0.004619 -0.058510 0.004619
v -0.007727 -0.047461 -0.003200
v -0.006035 -0.058510 -0.002500
v 0.004647 -0.047461 0.006955
v 0.003629 -0.058510 0.005430
v -0.006955 -0.047461 -0.004647
v -0.005430 -0.058510 -0.003629
v 0.003200 -0.047461 0.007727
v 0.002500 -0.058510 0.006035
v 0.000000 -0.047461 -0.008363
v 0.001631 -0.047461 -0.008203
v 0.001274 -0.058510 -0.006405
v 0.000000 -0.058510 -0.006531
v -0.005913 -0.047461 -0.005913
v -0.004619 -0.058510 -0.004619
v 0.001631 -0.047461 0.008203
v 0.001274 -0.058510 0.006405
v 0.003200 -0.047461 -0.007727
v 0.002500 -0.058510 -0.006035
v -0.004647 -0.047461 -0.006955
v -0.003629 -0.058510 -0.005430
v 0.000000 -0.047461 0.008363
v 0.000000 -0.058510 0.006531
v 0.004647 -0.047461 -0.006955
v 0.003629 -0.058510 -0.005430
v -0.003200 -0.047461 -0.007727
v -0.002500 -0.058510 -0.006035
v -0.001631 -0.047461 0.008203
v -0.001274 -0.058510 0.006405
v 0.005913 -0.047461 -0.005913
v 0.004619 -0.058510 -0.004619
v -0.001631 -0.047461 -0.008203
v -0.001274 -0.058510 -0.006405
v -0.003200 -0.047461 0.007727
v -0.002500 -0.058510 0.006035
v 0.006955 -0.047461 -0.004647
v 0.005430 -0.058510 -0.003629
v -0.004647 -0.047461 0.006955
v -0.003629 -0.058510 0.005430
v 0.007727 -0.047461 -0.003200
v 0.006035 -0.058510 -0.002500
v -0.005913 -0.047461 0.005913
v -0.004619 -0.058510 0.004619
v 0.008203 -0.047461 -0.001631
v 0.006405 -0.058510 -0.001274
v 0.004035 -0.058510 -0.004035
v 0.004745 -0.058510 -0.003170
v 0.004275 -0.074007 -0.002855
v 0.003635 -0.074007 -0.003635
v 0.004035 -0.058510 0.004035
v 0.004745 -0.058510 0.003170
v -0.005272 -0.058510 -0.002184
v 0.003170 -0.058510 0.004745
v -0.004745 -0.058510 -0.003170
v 0.002184 -0.058510 0.005272
v 0.001113 -0.058510 -0.005596
v 0.000000 -0.058510 -0.005707
v -0.004035 -0.058510 -0.004035
v 0.001113 -0.058510 0.005596
v 0.002184 -0.058510 -0.005272
v -0.003170 -0.058510 -0.004745
v 0.000000 -0.058510 0.005707
v 0.003170 -0.058510 -0.004745
v -0.002184 -0.058510 -0.005272
v -0.001113 -0.058510 0.005596
v -0.001113 -0.058510 -0.005596
v -0.002184 -0.058510 0.005272
v -0.003170 -0.058510 0.004745
v 0.005272 -0.058510 -0.002184
v -0.004035 -0.058510 0.004035
v 0.005596 -0.058510 -0.001113
v -0.004745 -0.058510 0.003170
v 0.005707 -0.058510 -0.000000
v -0.005272 -0.058510 0.002184
v 0.005596 -0.058510 0.001113
v -0.005596 -0.058510 0.001113
v 0.005272 -0.058510 0.002184
v 0.001967 -0.074007 -0.004748
v 0.001003 -0.074007 -0.005041
v 0.000000 -0.074709 0.001193
v -0.000232 -0.074709 0.001170
v -0.000168 -0.204082 0.001170
v 0.000000 -0.204242 0.001193
v -0.002855 -0.074007 0.004275
v -0.001967 -0.074007 0.004748
v 0.004748 -0.074007 -0.001967
v 0.002855 -0.074007 -0.004275
v -0.003635 -0.074007 0.003635
v 0.005041 -0.074007 -0.001003
v -0.004275 -0.074007 0.002855
v 0.005141 -0.074007 -0.000000
v -0.004748 -0.074007 0.001967
v 0.005041 -0.074007 0.001003
v -0.005041 -0.074007 0.001003
v 0.004748 -0.074007 0.001967
v -0.005141 -0.074007 -0.000000
v 0.004275 -0.074007 0.002855
v -0.005041 -0.074007 -0.001003
v 0.003635 -0.074007 0.003635
v -0.004748 -0.074007 -0.001967
v 0.002855 -0.074007 0.004275
v -0.004275 -0.074007 -0.002855
v 0.001967 -0.074007 0.004748
v -0.003635 -0.074007 -0.003635
v 0.001003 -0.074007 0.005041
v -0.001698 -0.074709 0.004098
v -0.002464 -0.074709 0.003687
v -0.000664 -0.074709 0.000992
v -0.000457 -0.074709 0.001102
v -0.002855 -0.074007 -0.004275
v 0.000000 -0.074007 0.005141
v 0.000000 -0.074007 -0.005141
v -0.001003 -0.074007 -0.005041
v -0.001967 -0.074007 -0.004748
v -0.001003 -0.074007 0.005041
v 0.000865 -0.074709 -0.004348
v 0.000000 -0.074709 -0.004435
v 0.001698 -0.074709 -0.004098
v 0.002464 -0.074709 -0.003687
v 0.003135 -0.074709 -0.003135
v 0.003687 -0.074709 -0.002465
v 0.004098 -0.074709 -0.001698
v 0.004348 -0.074709 -0.000865
v 0.004435 -0.074709 -0.000000
v 0.004348 -0.074709 0.000864
v 0.004098 -0.074709 0.001698
v 0.003687 -0.074709 0.002464
v 0.003135 -0.074709 0.003135
v 0.002464 -0.074709 0.003687
v 0.001698 -0.074709 0.004098
v 0.000865 -0.074709 0.004348
v 0.000000 -0.074709 0.004435
v -0.000865 -0.074709 0.004348
v -0.003135 -0.074709 0.003135
v -0.003687 -0.074709 0.002464
v -0.004098 -0.074709 0.001698
v -0.004350 -0.074709 0.000864
v -0.004435 -0.074709 -0.000000
v -0.004350 -0.074709 -0.000865
v -0.004098 -0.074709 -0.001698
v -0.003687 -0.074709 -0.002465
v -0.003135 -0.074709 -0.003135
v -0.002464 -0.074709 -0.003687
v -0.001698 -0.074709 -0.004098
v -0.000865 -0.074709 -0.004348
v -0.000844 -0.074709 -0.000844
v -0.000992 -0.074709 -0.000664
v 0.001102 -0.074709 -0.000457
v 0.000992 -0.074709 -0.000664
v 0.000232 -0.074709 0.001170
v 0.000457 -0.074709 0.001102
v -0.001193 -0.074709 -0.000000
v -0.001170 -0.074709 0.000232
v 0.000457 -0.074709 -0.001102
v 0.000232 -0.074709 -0.001171
v 0.000992 -0.074709 0.000664
v 0.001102 -0.074709 0.000457
v -0.000844 -0.074709 0.000844
v -0.000664 -0.074709 -0.000992
v 0.001170 -0.074709 -0.000232
v -0.001170 -0.074709 -0.000232
v 0.000662 -0.074709 -0.000992
v 0.000844 -0.074709 0.000844
v -0.000992 -0.074709 0.000664
v -0.000457 -0.074709 -0.001102
v 0.001193 -0.074709 -0.000000
v -0.001102 -0.074709 -0.000457
v 0.000844 -0.074709 -0.000844
v 0.000662 -0.074709 0.000992
v -0.001102 -0.074709 0.000457
v -0.000232 -0.074709 -0.001171
v 0.001170 -0.074709 0.000232
v 0.000000 -0.074709 -0.001193
v 0.000000 -0.204242 -0.001193
v 0.000168 -0.204404 -0.001171
v 0.000328 -0.204559 -0.001102
v 0.000477 -0.204703 -0.000992
v 0.000608 -0.204828 -0.000844
v 0.000715 -0.204929 -0.000664
v 0.000794 -0.205007 -0.000457
v 0.000844 -0.205053 -0.000232
v 0.000859 -0.205070 -0.000000
v 0.000844 -0.205053 0.000232
v 0.000794 -0.205007 0.000457
v 0.000715 -0.204929 0.000664
v 0.000608 -0.204828 0.000844
v 0.000477 -0.204703 0.000992
v 0.000328 -0.204559 0.001102
v 0.000168 -0.204404 0.001170
v -0.000330 -0.203927 0.001102
v -0.000477 -0.203783 0.000992
v -0.000608 -0.203658 0.000844
v -0.000715 -0.203556 0.000664
v -0.000794 -0.203479 0.000457
v -0.000844 -0.203433 0.000232
v -0.000861 -0.203416 -0.000000
v -0.000844 -0.203433 -0.000232
v -0.000794 -0.203479 -0.000457
v -0.000715 -0.203556 -0.000664
v -0.000608 -0.203658 -0.000844
v -0.000477 -0.203783 -0.000992
v -0.000330 -0.203927 -0.001102
v -0.000168 -0.204082 -0.001171
v -0.022571 0.206100 -0.020197
v -0.022571 0.209455 -0.020197
v -0.013159 0.209455 -0.040394
v -0.013159 0.206100 -0.040394
v 0.013159 0.209455 -0.040394
v 0.013159 0.206100 -0.040394
v 0.022571 0.206100 0.020197
v 0.022571 0.209455 0.020197
v 0.013159 0.209455 0.040394
v 0.013159 0.206100 0.040394
v -0.013159 0.209455 0.040394
v -0.013159 0.206100 0.040394
v -0.022571 0.206100 0.020197
v -0.022571 0.209455 0.020197
v 0.022571 0.209455 -0.020197
v -0.022571 0.209455 0.000000
v 0.022571 0.209455 0.000000
v 0.022571 0.206100 -0.020197
v 0.022571 0.206100 0.000000
v -0.022571 0.206100 0.000000
vt 0.947160 0.516941
vt 0.919212 0.516941
vt 0.920676 0.513317
vt 0.945696 0.513317
vt 0.891265 0.516941
vt 0.892729 0.513317
vt 0.917748 0.513317
vt 0.863317 0.516941
vt 0.864781 0.513317
vt 0.889801 0.513317
vt 0.835370 0.516941
vt 0.836834 0.513317
vt 0.861853 0.513317
vt 0.807422 0.516941
vt 0.808886 0.513317
vt 0.833906 0.513317
vt 0.779475 0.516941
vt 0.780939 0.513317
vt 0.805958 0.513317
vt 0.751527 0.516941
vt 0.752991 0.513317
vt 0.778011 0.513317
vt 0.723580 0.516941
vt 0.725044 0.513317
vt 0.750063 0.513317
vt 0.695632 0.516941
vt 0.697096 0.513317
vt 0.722116 0.513317
vt 0.667685 0.516941
vt 0.669149 0.513317
vt 0.694169 0.513317
vt 0.639737 0.516941
vt 0.641201 0.513317
vt 0.666221 0.513317
vt 0.611790 0.516941
vt 0.613254 0.513317
vt 0.638273 0.513317
vt 0.583842 0.516941
vt 0.585306 0.513317
vt 0.610326 0.513317
vt 0.555895 0.516941
vt 0.557359 0.513317
vt 0.582379 0.513317
vt 0.527947 0.516941
vt 0.529411 0.513317
vt 0.554431 0.513317
vt 0.500000 0.516941
vt 0.501464 0.513317
vt 0.526484 0.513317
vt 0.472053 0.516941
vt 0.473516 0.513317
vt 0.498536 0.513317
vt 0.444105 0.516941
vt 0.445569 0.513317
vt 0.470589 0.513317
vt 0.416158 0.516941
vt 0.417621 0.513317
vt 0.442641 0.513317
vt 0.388210 0.516941
vt 0.389674 0.513317
vt 0.414694 0.513317
vt 0.360263 0.516941
vt 0.361726 0.513317
vt 0.386746 0.513317
vt 0.332315 0.516941
vt 0.333779 0.513317
vt 0.358799 0.513317
vt 0.304368 0.516941
vt 0.305831 0.513317
vt 0.330851 0.513317
vt 0.276420 0.516941
vt 0.277884 0.513317
vt 0.302904 0.513317
vt 0.248473 0.516941
vt 0.249937 0.513317
vt 0.274956 0.513317
vt 0.220525 0.516941
vt 0.221989 0.513317
vt 0.247009 0.513317
vt 0.192578 0.516941
vt 0.194042 0.513317
vt 0.219061 0.513317
vt 0.164630 0.516941
vt 0.166094 0.513317
vt 0.191114 0.513317
vt 0.136683 0.516941
vt 0.138147 0.513317
vt 0.163166 0.513317
vt 0.108735 0.516941
vt 0.110199 0.513317
vt 0.135219 0.513317
vt 0.080788 0.516941
vt 0.082252 0.513317
vt 0.107271 0.513317
vt 0.052840 0.516941
vt 0.054304 0.513317
vt 0.079324 0.513317
vt 0.920676 0.513317
vt 0.945696 0.513317
vt 0.669149 0.513317
vt 0.694169 0.513317
vt 0.417621 0.513317
vt 0.442641 0.513317
vt 0.166094 0.513317
vt 0.191114 0.513317
vt 0.780939 0.513317
vt 0.805958 0.513317
vt 0.529411 0.513317
vt 0.554431 0.513317
vt 0.277884 0.513317
vt 0.302904 0.513317
vt 0.892729 0.513317
vt 0.917748 0.513317
vt 0.641201 0.513317
vt 0.666221 0.513317
vt 0.389674 0.513317
vt 0.414694 0.513317
vt 0.138147 0.513317
vt 0.163166 0.513317
vt 0.752991 0.513317
vt 0.778011 0.513317
vt 0.501464 0.513317
vt 0.526484 0.513317
vt 0.249937 0.513317
vt 0.274956 0.513317
vt 0.864781 0.513317
vt 0.889801 0.513317
vt 0.613254 0.513317
vt 0.638273 0.513317
vt 0.361726 0.513317
vt 0.386746 0.513317
vt 0.110199 0.513317
vt 0.135219 0.513317
vt 0.725044 0.513317
vt 0.750063 0.513317
vt 0.473516 0.513317
vt 0.498536 0.513317
vt 0.221989 0.513317
vt 0.247009 0.513317
vt 0.836834 0.513317
vt 0.861853 0.513317
vt 0.585306 0.513317
vt 0.610326 0.513317
vt 0.333779 0.513317
vt 0.358799 0.513317
vt 0.082252 0.513317
vt 0.107271 0.513317
vt 0.697096 0.513317
vt 0.722116 0.513317
vt 0.445569 0.513317
vt 0.470589 0.513317
vt 0.194042 0.513317
vt 0.219061 0.513317
vt 0.054304 0.513317
vt 0.079324 0.513317
vt 0.808886 0.513317
vt 0.833906 0.513317
vt 0.557359 0.513317
vt 0.582379 0.513317
vt 0.305831 0.513317
vt 0.330851 0.513317
vt 0.947160 0.738709
vt 0.919212 0.738709
vt 0.891265 0.738709
vt 0.108735 0.738709
vt 0.080788 0.738709
vt 0.136683 0.738709
vt 0.164630 0.738709
vt 0.192578 0.738709
vt 0.220525 0.738709
vt 0.248473 0.738709
vt 0.276420 0.738709
vt 0.304368 0.738709
vt 0.332315 0.738709
vt 0.360263 0.738709
vt 0.388210 0.738709
vt 0.416158 0.738709
vt 0.444105 0.738709
vt 0.472053 0.738709
vt 0.500000 0.738709
vt 0.527947 0.738709
vt 0.555895 0.738709
vt 0.583842 0.738709
vt 0.611790 0.738709
vt 0.639737 0.738709
vt 0.667685 0.738709
vt 0.695632 0.738709
vt 0.723580 0.738709
vt 0.751527 0.738709
vt 0.779475 0.738709
vt 0.807422 0.738709
vt 0.835370 0.738709
vt 0.863317 0.738709
vt 0.052840 0.738709
vt 0.969812 0.866234
vt 0.969812 0.867583
vt 0.969642 0.867583
vt 0.969642 0.866234
vt 0.974742 0.866234
vt 0.974742 0.867583
vt 0.974572 0.867583
vt 0.974572 0.866234
vt 0.974402 0.867583
vt 0.974402 0.866234
vt 0.974232 0.867583
vt 0.974232 0.866234
vt 0.974062 0.867583
vt 0.974062 0.866234
vt 0.973892 0.867583
vt 0.973892 0.866234
vt 0.973722 0.867583
vt 0.973722 0.866234
vt 0.973552 0.867583
vt 0.973552 0.866234
vt 0.973382 0.867583
vt 0.973382 0.866234
vt 0.973212 0.867583
vt 0.973212 0.866234
vt 0.973042 0.867583
vt 0.973042 0.866234
vt 0.972872 0.867583
vt 0.972872 0.866234
vt 0.972702 0.867583
vt 0.972702 0.866234
vt 0.972532 0.867583
vt 0.972532 0.866234
vt 0.972362 0.867583
vt 0.972362 0.866234
vt 0.972192 0.867583
vt 0.972192 0.866234
vt 0.972022 0.867583
vt 0.972022 0.866234
vt 0.971852 0.867583
vt 0.971852 0.866234
vt 0.971682 0.867583
vt 0.971682 0.866234
vt 0.971512 0.867583
vt 0.971512 0.866234
vt 0.971342 0.867583
vt 0.971342 0.866234
vt 0.971172 0.867583
vt 0.971172 0.866234
vt 0.971002 0.867583
vt 0.971002 0.866234
vt 0.970832 0.867583
vt 0.970832 0.866234
vt 0.970662 0.867583
vt 0.970662 0.866234
vt 0.970492 0.867583
vt 0.970492 0.866234
vt 0.970322 0.867583
vt 0.970322 0.866234
vt 0.970152 0.867583
vt 0.970152 0.866234
vt 0.969982 0.867583
vt 0.969982 0.866234
vt 0.970662 0.867583
vt 0.970492 0.867583
vt 0.974912 0.866234
vt 0.974912 0.867583
vt 0.975082 0.866234
vt 0.975082 0.867583
vt 0.973042 0.867583
vt 0.973212 0.867583
vt 0.973212 0.867583
vt 0.973042 0.867583
vt 0.974402 0.867583
vt 0.974232 0.867583
vt 0.972872 0.867583
vt 0.972702 0.867583
vt 0.971342 0.867583
vt 0.971172 0.867583
vt 0.975082 0.867583
vt 0.974912 0.867583
vt 0.969812 0.867583
vt 0.969642 0.867583
vt 0.973552 0.867583
vt 0.973382 0.867583
vt 0.972022 0.867583
vt 0.971852 0.867583
vt 0.970322 0.867583
vt 0.974062 0.867583
vt 0.972532 0.867583
vt 0.971002 0.867583
vt 0.974742 0.867583
vt 0.971682 0.867583
vt 0.970152 0.867583
vt 0.973892 0.867583
vt 0.972362 0.867583
vt 0.970832 0.867583
vt 0.974572 0.867583
vt 0.971512 0.867583
vt 0.969982 0.867583
vt 0.973722 0.867583
vt 0.972192 0.867583
vt 0.972532 0.867583
vt 0.972702 0.867583
vt 0.972702 0.867583
vt 0.972532 0.867583
vt 0.970832 0.867583
vt 0.970662 0.867583
vt 0.972872 0.867583
vt 0.970492 0.867583
vt 0.975082 0.867583
vt 0.974912 0.867583
vt 0.970322 0.867583
vt 0.974742 0.867583
vt 0.970152 0.867583
vt 0.972362 0.867583
vt 0.974572 0.867583
vt 0.969982 0.867583
vt 0.972192 0.867583
vt 0.974402 0.867583
vt 0.969812 0.867583
vt 0.972022 0.867583
vt 0.974232 0.867583
vt 0.969642 0.867583
vt 0.971852 0.867583
vt 0.974062 0.867583
vt 0.971682 0.867583
vt 0.973892 0.867583
vt 0.971512 0.867583
vt 0.973722 0.867583
vt 0.971342 0.867583
vt 0.973552 0.867583
vt 0.971172 0.867583
vt 0.973382 0.867583
vt 0.971002 0.867583
vt 0.971257 0.864783
vt 0.971002 0.864808
vt 0.970747 0.864783
vt 0.970502 0.864709
vt 0.970277 0.864588
vt 0.970079 0.864426
vt 0.969917 0.864228
vt 0.969796 0.864003
vt 0.969722 0.863758
vt 0.969697 0.863503
vt 0.969722 0.863248
vt 0.969796 0.863004
vt 0.969917 0.862778
vt 0.970079 0.862580
vt 0.970277 0.862418
vt 0.970502 0.862297
vt 0.970747 0.862223
vt 0.971002 0.862198
vt 0.971257 0.862223
vt 0.971502 0.862297
vt 0.971727 0.862418
vt 0.971925 0.862580
vt 0.972088 0.862778
vt 0.972208 0.863004
vt 0.972282 0.863248
vt 0.972308 0.863503
vt 0.972282 0.863758
vt 0.972208 0.864003
vt 0.972088 0.864228
vt 0.971925 0.864426
vt 0.971727 0.864588
vt 0.971502 0.864709
vt 0.974912 0.867583
vt 0.974742 0.867583
vt 0.970322 0.867583
vt 0.970152 0.867583
vt 0.972362 0.867583
vt 0.974572 0.867583
vt 0.969982 0.867583
vt 0.972192 0.867583
vt 0.974402 0.867583
vt 0.969812 0.867583
vt 0.972022 0.867583
vt 0.974232 0.867583
vt 0.969642 0.867583
vt 0.971852 0.867583
vt 0.974062 0.867583
vt 0.971682 0.867583
vt 0.973892 0.867583
vt 0.971512 0.867583
vt 0.973722 0.867583
vt 0.971342 0.867583
vt 0.973552 0.867583
vt 0.971172 0.867583
vt 0.973382 0.867583
vt 0.971002 0.867583
vt 0.973212 0.867583
vt 0.970832 0.867583
vt 0.973042 0.867583
vt 0.970662 0.867583
vt 0.972872 0.867583
vt 0.970492 0.867583
vt 0.975082 0.867583
vt 0.977495 0.868132
vt 0.977158 0.868132
vt 0.977158 0.868132
vt 0.977495 0.868132
vt 0.514015 0.708791
vt 0.513828 0.708791
vt 0.513828 0.708791
vt 0.514015 0.708791
vt 0.972214 0.868132
vt 0.971876 0.868132
vt 0.971876 0.868132
vt 0.972214 0.868132
vt 0.977118 0.868132
vt 0.976780 0.868132
vt 0.976780 0.868132
vt 0.977118 0.868132
vt 0.971836 0.868132
vt 0.971498 0.868132
vt 0.971498 0.868132
vt 0.971836 0.868132
vt 0.976741 0.868132
vt 0.976403 0.868132
vt 0.976403 0.868132
vt 0.976741 0.868132
vt 0.971121 0.868132
vt 0.971121 0.868132
vt 0.976026 0.868132
vt 0.976026 0.868132
vt 0.970744 0.868132
vt 0.970744 0.868132
vt 0.975649 0.868132
vt 0.975649 0.868132
vt 0.980891 0.868132
vt 0.980553 0.868132
vt 0.980553 0.868132
vt 0.980891 0.868132
vt 0.970367 0.868132
vt 0.970367 0.868132
vt 0.975271 0.868132
vt 0.975271 0.868132
vt 0.980514 0.868132
vt 0.980176 0.868132
vt 0.980176 0.868132
vt 0.980514 0.868132
vt 0.970327 0.868132
vt 0.969989 0.868132
vt 0.969989 0.868132
vt 0.970327 0.868132
vt 0.975232 0.868132
vt 0.974894 0.868132
vt 0.974894 0.868132
vt 0.975232 0.868132
vt 0.980137 0.868132
vt 0.979799 0.868132
vt 0.979799 0.868132
vt 0.980137 0.868132
vt 0.969612 0.868132
vt 0.969612 0.868132
vt 0.974517 0.868132
vt 0.974517 0.868132
vt 0.979422 0.868132
vt 0.979422 0.868132
vt 0.969235 0.868132
vt 0.969235 0.868132
vt 0.974139 0.868132
vt 0.974139 0.868132
vt 0.979044 0.868132
vt 0.979044 0.868132
vt 0.968857 0.868132
vt 0.968857 0.868132
vt 0.973762 0.868132
vt 0.973762 0.868132
vt 0.978667 0.868132
vt 0.978667 0.868132
vt 0.973723 0.868132
vt 0.973385 0.868132
vt 0.973385 0.868132
vt 0.973723 0.868132
vt 0.978627 0.868132
vt 0.978290 0.868132
vt 0.978290 0.868132
vt 0.978627 0.868132
vt 0.973345 0.868132
vt 0.973008 0.868132
vt 0.973008 0.868132
vt 0.973345 0.868132
vt 0.977912 0.868132
vt 0.977912 0.868132
vt 0.972630 0.868132
vt 0.972630 0.868132
vt 0.972253 0.868132
vt 0.972253 0.868132
vt 0.513389 0.708791
vt 0.513202 0.708791
vt 0.513202 0.708791
vt 0.513389 0.708791
vt 0.511093 0.708791
vt 0.510906 0.708791
vt 0.510906 0.708791
vt 0.511093 0.708791
vt 0.513619 0.708791
vt 0.513619 0.708791
vt 0.516519 0.708791
vt 0.516332 0.708791
vt 0.516332 0.708791
vt 0.516519 0.708791
vt 0.510698 0.708791
vt 0.510698 0.708791
vt 0.513411 0.708791
vt 0.516123 0.708791
vt 0.516123 0.708791
vt 0.510489 0.708791
vt 0.510489 0.708791
vt 0.513202 0.708791
vt 0.515915 0.708791
vt 0.515915 0.708791
vt 0.510280 0.708791
vt 0.510280 0.708791
vt 0.512993 0.708791
vt 0.512993 0.708791
vt 0.515706 0.708791
vt 0.515706 0.708791
vt 0.510072 0.708791
vt 0.510072 0.708791
vt 0.512785 0.708791
vt 0.512785 0.708791
vt 0.515497 0.708791
vt 0.515497 0.708791
vt 0.510050 0.708791
vt 0.509863 0.708791
vt 0.509863 0.708791
vt 0.510050 0.708791
vt 0.512576 0.708791
vt 0.512576 0.708791
vt 0.515289 0.708791
vt 0.515289 0.708791
vt 0.512367 0.708791
vt 0.512367 0.708791
vt 0.515080 0.708791
vt 0.515080 0.708791
vt 0.512345 0.708791
vt 0.512159 0.708791
vt 0.512159 0.708791
vt 0.512345 0.708791
vt 0.514871 0.708791
vt 0.514871 0.708791
vt 0.512137 0.708791
vt 0.511950 0.708791
vt 0.511950 0.708791
vt 0.512137 0.708791
vt 0.514849 0.708791
vt 0.514663 0.708791
vt 0.514663 0.708791
vt 0.514849 0.708791
vt 0.511741 0.708791
vt 0.511741 0.708791
vt 0.514641 0.708791
vt 0.514454 0.708791
vt 0.514454 0.708791
vt 0.514641 0.708791
vt 0.511532 0.708791
vt 0.511532 0.708791
vt 0.514432 0.708791
vt 0.514245 0.708791
vt 0.514245 0.708791
vt 0.514432 0.708791
vt 0.511324 0.708791
vt 0.511324 0.708791
vt 0.512763 0.708791
vt 0.512576 0.708791
vt 0.512576 0.708791
vt 0.512763 0.708791
vt 0.515915 0.708791
vt 0.516102 0.708791
vt 0.510280 0.708791
vt 0.510467 0.708791
vt 0.512993 0.708791
vt 0.515706 0.708791
vt 0.510072 0.708791
vt 0.515497 0.708791
vt 0.509863 0.708791
vt 0.510050 0.708791
vt 0.515289 0.708791
vt 0.512367 0.708791
vt 0.515080 0.708791
vt 0.512159 0.708791
vt 0.512345 0.708791
vt 0.514871 0.708791
vt 0.511950 0.708791
vt 0.512137 0.708791
vt 0.514663 0.708791
vt 0.514849 0.708791
vt 0.511741 0.708791
vt 0.514454 0.708791
vt 0.514641 0.708791
vt 0.511532 0.708791
vt 0.514245 0.708791
vt 0.514432 0.708791
vt 0.511324 0.708791
vt 0.514037 0.708791
vt 0.511115 0.708791
vt 0.513828 0.708791
vt 0.510906 0.708791
vt 0.513619 0.708791
vt 0.516332 0.708791
vt 0.516519 0.708791
vt 0.510698 0.708791
vt 0.512137 0.708791
vt 0.511950 0.708791
vt 0.511950 0.708791
vt 0.512137 0.708791
vt 0.515289 0.708791
vt 0.515476 0.708791
vt 0.512367 0.708791
vt 0.515080 0.708791
vt 0.512159 0.708791
vt 0.512345 0.708791
vt 0.514871 0.708791
vt 0.511950 0.708791
vt 0.512137 0.708791
vt 0.514663 0.708791
vt 0.514849 0.708791
vt 0.511741 0.708791
vt 0.514454 0.708791
vt 0.514641 0.708791
vt 0.511532 0.708791
vt 0.514245 0.708791
vt 0.514432 0.708791
vt 0.511324 0.708791
vt 0.514037 0.708791
vt 0.511115 0.708791
vt 0.513828 0.708791
vt 0.510906 0.708791
vt 0.513619 0.708791
vt 0.516332 0.708791
vt 0.516519 0.708791
vt 0.510698 0.708791
vt 0.513411 0.708791
vt 0.516123 0.708791
vt 0.510489 0.708791
vt 0.513202 0.708791
vt 0.515915 0.708791
vt 0.510280 0.708791
vt 0.512993 0.708791
vt 0.515706 0.708791
vt 0.510072 0.708791
vt 0.509863 0.708791
vt 0.510050 0.708791
vt 0.511511 0.708791
vt 0.511324 0.708791
vt 0.511324 0.708791
vt 0.511511 0.708791
vt 0.514849 0.708791
vt 0.514663 0.708791
vt 0.514663 0.708791
vt 0.514849 0.708791
vt 0.511741 0.708791
vt 0.511741 0.708791
vt 0.514641 0.708791
vt 0.514454 0.708791
vt 0.514454 0.708791
vt 0.514641 0.708791
vt 0.511532 0.708791
vt 0.514432 0.708791
vt 0.514245 0.708791
vt 0.514245 0.708791
vt 0.514432 0.708791
vt 0.511324 0.708791
vt 0.514037 0.708791
vt 0.514037 0.708791
vt 0.511115 0.708791
vt 0.511115 0.708791
vt 0.513828 0.708791
vt 0.513828 0.708791
vt 0.510906 0.708791
vt 0.510906 0.708791
vt 0.513619 0.708791
vt 0.513619 0.708791
vt 0.516519 0.708791
vt 0.516332 0.708791
vt 0.516332 0.708791
vt 0.516519 0.708791
vt 0.510698 0.708791
vt 0.510698 0.708791
vt 0.513411 0.708791
vt 0.513411 0.708791
vt 0.516123 0.708791
vt 0.516123 0.708791
vt 0.510489 0.708791
vt 0.510489 0.708791
vt 0.513202 0.708791
vt 0.513202 0.708791
vt 0.515915 0.708791
vt 0.515915 0.708791
vt 0.510280 0.708791
vt 0.510280 0.708791
vt 0.512993 0.708791
vt 0.512993 0.708791
vt 0.515706 0.708791
vt 0.515706 0.708791
vt 0.510072 0.708791
vt 0.510072 0.708791
vt 0.512785 0.708791
vt 0.512785 0.708791
vt 0.515497 0.708791
vt 0.515497 0.708791
vt 0.510050 0.708791
vt 0.509863 0.708791
vt 0.509863 0.708791
vt 0.510050 0.708791
vt 0.512576 0.708791
vt 0.512576 0.708791
vt 0.515289 0.708791
vt 0.515289 0.708791
vt 0.512367 0.708791
vt 0.512367 0.708791
vt 0.515080 0.708791
vt 0.515080 0.708791
vt 0.512345 0.708791
vt 0.512159 0.708791
vt 0.512159 0.708791
vt 0.512345 0.708791
vt 0.514871 0.708791
vt 0.514871 0.708791
vt 0.515684 0.708791
vt 0.515497 0.708791
vt 0.515497 0.708791
vt 0.515684 0.708791
vt 0.514037 0.708791
vt 0.514223 0.708791
vt 0.511115 0.708791
vt 0.513828 0.708791
vt 0.510906 0.708791
vt 0.513619 0.708791
vt 0.516332 0.708791
vt 0.516519 0.708791
vt 0.510698 0.708791
vt 0.513411 0.708791
vt 0.516123 0.708791
vt 0.510489 0.708791
vt 0.513202 0.708791
vt 0.515915 0.708791
vt 0.510280 0.708791
vt 0.512993 0.708791
vt 0.510072 0.708791
vt 0.512785 0.708791
vt 0.509863 0.708791
vt 0.510050 0.708791
vt 0.512576 0.708791
vt 0.515289 0.708791
vt 0.512367 0.708791
vt 0.515080 0.708791
vt 0.512159 0.708791
vt 0.512345 0.708791
vt 0.514871 0.708791
vt 0.511950 0.708791
vt 0.512137 0.708791
vt 0.514663 0.708791
vt 0.514849 0.708791
vt 0.511741 0.708791
vt 0.514454 0.708791
vt 0.514641 0.708791
vt 0.514432 0.708791
vt 0.516123 0.708791
vt 0.516310 0.708791
vt 0.940955 0.590622
vt 0.940412 0.590676
vt 0.940412 0.590676
vt 0.940955 0.590622
vt 0.512576 0.708791
vt 0.512763 0.708791
vt 0.515289 0.708791
vt 0.515915 0.708791
vt 0.512367 0.708791
vt 0.515080 0.708791
vt 0.512159 0.708791
vt 0.512345 0.708791
vt 0.514871 0.708791
vt 0.511950 0.708791
vt 0.512137 0.708791
vt 0.514663 0.708791
vt 0.514849 0.708791
vt 0.511741 0.708791
vt 0.514454 0.708791
vt 0.514641 0.708791
vt 0.511532 0.708791
vt 0.514245 0.708791
vt 0.514432 0.708791
vt 0.511324 0.708791
vt 0.514037 0.708791
vt 0.511115 0.708791
vt 0.513828 0.708791
vt 0.510906 0.708791
vt 0.513619 0.708791
vt 0.510698 0.708791
vt 0.513411 0.708791
vt 0.940052 0.602380
vt 0.940466 0.602159
vt 0.940466 0.602159
vt 0.940052 0.602380
vt 0.510489 0.708791
vt 0.513202 0.708791
vt 0.509863 0.708791
vt 0.510050 0.708791
vt 0.510280 0.708791
vt 0.512993 0.708791
vt 0.510072 0.708791
vt 0.938666 0.597812
vt 0.939134 0.597766
vt 0.939134 0.597384
vt 0.938591 0.597437
vt 0.938216 0.597948
vt 0.938070 0.597596
vt 0.937801 0.598170
vt 0.937589 0.597853
vt 0.937438 0.598468
vt 0.937168 0.598198
vt 0.937139 0.598832
vt 0.936822 0.598620
vt 0.936918 0.599246
vt 0.936565 0.599100
vt 0.936781 0.599696
vt 0.936407 0.599622
vt 0.936735 0.600164
vt 0.936354 0.600164
vt 0.936781 0.600632
vt 0.936407 0.600707
vt 0.936918 0.601082
vt 0.936565 0.601228
vt 0.937139 0.601497
vt 0.936822 0.601709
vt 0.937438 0.601860
vt 0.937168 0.602130
vt 0.937801 0.602159
vt 0.937589 0.602476
vt 0.938216 0.602380
vt 0.938070 0.602733
vt 0.938666 0.602517
vt 0.938591 0.602891
vt 0.939134 0.602563
vt 0.939134 0.602945
vt 0.939602 0.602517
vt 0.939676 0.602891
vt 0.940198 0.602733
vt 0.940679 0.602476
vt 0.940830 0.601860
vt 0.941100 0.602130
vt 0.941128 0.601497
vt 0.941446 0.601709
vt 0.941350 0.601082
vt 0.941702 0.601228
vt 0.941486 0.600632
vt 0.941861 0.600707
vt 0.941533 0.600164
vt 0.941914 0.600164
vt 0.941486 0.599696
vt 0.941861 0.599622
vt 0.941350 0.599246
vt 0.941702 0.599100
vt 0.941128 0.598832
vt 0.941446 0.598620
vt 0.940830 0.598468
vt 0.941100 0.598198
vt 0.940466 0.598170
vt 0.940679 0.597853
vt 0.940052 0.597948
vt 0.940198 0.597596
vt 0.939602 0.597812
vt 0.939676 0.597437
vt 0.516519 0.708791
vt 0.940830 0.598468
vt 0.941128 0.598832
vt 0.936918 0.599246
vt 0.937139 0.598832
vt 0.938666 0.602517
vt 0.938216 0.602380
vt 0.941533 0.600164
vt 0.941486 0.600632
vt 0.938216 0.597948
vt 0.938666 0.597812
vt 0.937139 0.601497
vt 0.936918 0.601082
vt 0.940830 0.601860
vt 0.940466 0.598170
vt 0.936781 0.599696
vt 0.939134 0.602563
vt 0.941486 0.599696
vt 0.937801 0.598170
vt 0.937438 0.601860
vt 0.941128 0.601497
vt 0.940052 0.597948
vt 0.936735 0.600164
vt 0.939602 0.602517
vt 0.941350 0.599246
vt 0.937438 0.598468
vt 0.937801 0.602159
vt 0.941350 0.601082
vt 0.939602 0.597812
vt 0.936781 0.600632
vt 0.939134 0.597766
vt 0.940955 0.596191
vt 0.941498 0.596137
vt 0.942020 0.595979
vt 0.942502 0.595721
vt 0.942923 0.595375
vt 0.943270 0.594953
vt 0.943527 0.594472
vt 0.943685 0.593950
vt 0.943739 0.593407
vt 0.943685 0.592863
vt 0.943527 0.592341
vt 0.943270 0.591860
vt 0.942923 0.591438
vt 0.942502 0.591092
vt 0.942020 0.590834
vt 0.941498 0.590676
vt 0.939889 0.590834
vt 0.939408 0.591092
vt 0.938986 0.591438
vt 0.938640 0.591860
vt 0.938383 0.592341
vt 0.938224 0.592863
vt 0.938171 0.593407
vt 0.938224 0.593950
vt 0.938383 0.594472
vt 0.938640 0.594953
vt 0.938986 0.595375
vt 0.939408 0.595721
vt 0.939889 0.595979
vt 0.940412 0.596137
vt 0.942502 0.591092
vt 0.942020 0.590834
vt 0.938640 0.594953
vt 0.938986 0.595375
vt 0.941498 0.590676
vt 0.942923 0.591438
vt 0.943270 0.591860
vt 0.943527 0.592341
vt 0.938224 0.592863
vt 0.938171 0.593407
vt 0.943739 0.593407
vt 0.943685 0.592863
vt 0.943527 0.594472
vt 0.943685 0.593950
vt 0.938640 0.591860
vt 0.938383 0.592341
vt 0.942923 0.595375
vt 0.943270 0.594953
vt 0.939889 0.595979
vt 0.940412 0.596137
vt 0.942020 0.595979
vt 0.942502 0.595721
vt 0.939408 0.595721
vt 0.939408 0.591092
vt 0.938986 0.591438
vt 0.938383 0.594472
vt 0.938224 0.593950
vt 0.939889 0.590834
vt 0.940955 0.596191
vt 0.941498 0.596137
vt 0.973283 0.864155
vt 0.976465 0.864155
vt 0.976465 0.864950
vt 0.973283 0.864950
vt 0.976465 0.868132
vt 0.973283 0.868132
vt 0.973283 0.870518
vt 0.976465 0.870518
vt 0.976465 0.871314
vt 0.973283 0.871314
vt 0.976465 0.874495
vt 0.973283 0.874495
vt 0.970102 0.870518
vt 0.970102 0.871314
vt 0.979647 0.870518
vt 0.979647 0.871314
vt 0.976465 0.868927
vt 0.979647 0.868927
vt 0.979647 0.869723
vt 0.976465 0.869723
vt 0.970102 0.868927
vt 0.973283 0.868927
vt 0.973283 0.869723
vt 0.970102 0.869723
vt 0.973283 0.862564
vt 0.976465 0.862564
vt 0.976465 0.863359
vt 0.973283 0.863359
vt 0.970102 0.868132
vt 0.979647 0.868132
vt 0.973283 0.861768
vt 0.976465 0.861768
vn 0.0694 -0.7069 -0.7039
vn 0.2052 -0.7070 -0.6768
vn 0.3333 -0.7072 -0.6235
vn 0.4486 -0.7070 -0.5467
vn 0.5465 -0.7072 -0.4486
vn 0.6235 -0.7072 -0.3333
vn 0.6768 -0.7070 -0.2052
vn 0.7037 -0.7071 -0.0693
vn 0.7037 -0.7071 0.0693
vn 0.6768 -0.7070 0.2052
vn 0.6235 -0.7072 0.3333
vn 0.5465 -0.7072 0.4486
vn 0.4486 -0.7072 0.5465
vn 0.3333 -0.7072 0.6235
vn 0.2052 -0.7070 0.6768
vn 0.0694 -0.7069 0.7039
vn -0.0694 -0.7069 0.7039
vn -0.2052 -0.7070 0.6768
vn -0.3333 -0.7072 0.6235
vn -0.4486 -0.7070 0.5467
vn -0.5465 -0.7072 0.4486
vn -0.6235 -0.7072 0.3333
vn -0.6768 -0.7070 0.2052
vn -0.7037 -0.7071 0.0693
vn -0.7037 -0.7071 -0.0693
vn -0.6768 -0.7070 -0.2052
vn -0.6235 -0.7072 -0.3333
vn -0.5465 -0.7072 -0.4486
vn -0.4486 -0.7072 -0.5465
vn -0.3333 -0.7072 -0.6235
vn -0.2052 -0.7070 -0.6768
vn -0.0694 -0.7069 -0.7039
vn 0.0000 -1.0000 -0.0000
vn 0.0980 0.0000 -0.9952
vn 0.2901 0.0000 -0.9570
vn -0.2901 0.0000 -0.9570
vn -0.4713 0.0000 -0.8820
vn -0.6343 0.0000 -0.7731
vn -0.6345 0.0000 -0.7729
vn -0.7729 0.0000 -0.6345
vn -0.7732 0.0000 -0.6341
vn -0.8820 0.0000 -0.4713
vn -0.9569 0.0000 -0.2904
vn -0.9952 0.0000 -0.0980
vn -0.9952 -0.0000 0.0980
vn -0.9569 -0.0000 0.2904
vn -0.8820 -0.0000 0.4713
vn -0.7729 -0.0000 0.6345
vn -0.7732 -0.0000 0.6341
vn -0.6343 -0.0000 0.7731
vn -0.6345 -0.0000 0.7729
vn -0.4713 -0.0000 0.8820
vn -0.2901 -0.0000 0.9570
vn -0.0980 -0.0000 0.9952
vn 0.0980 -0.0000 0.9952
vn 0.2901 -0.0000 0.9570
vn 0.4713 -0.0000 0.8820
vn 0.6343 -0.0000 0.7731
vn 0.6345 -0.0000 0.7729
vn 0.7729 -0.0000 0.6345
vn 0.7732 -0.0000 0.6341
vn 0.8820 -0.0000 0.4713
vn 0.9569 -0.0000 0.2904
vn 0.9952 -0.0000 0.0980
vn 0.9952 0.0000 -0.0980
vn 0.9569 0.0000 -0.2904
vn 0.8820 0.0000 -0.4713
vn 0.7729 0.0000 -0.6345
vn 0.7732 0.0000 -0.6341
vn 0.6343 0.0000 -0.7731
vn 0.6345 0.0000 -0.7729
vn 0.4713 0.0000 -0.8820
vn -0.0980 0.0000 -0.9952
vn 0.2904 -0.0000 0.9569
vn -0.2904 -0.0000 0.9569
vn -0.2904 0.0000 -0.9569
vn -0.8742 0.1337 -0.4669
vn 0.2904 0.0000 -0.9569
vn 0.0317 -0.9990 0.0317
vn 0.0373 -0.9990 0.0249
vn 0.7659 0.1337 -0.6289
vn 0.4669 0.1337 0.8742
vn -0.9484 0.1337 0.2876
vn 0.0969 0.1337 -0.9863
vn -0.0969 0.1337 -0.9863
vn 0.9484 0.1337 0.2876
vn -0.4669 0.1337 0.8742
vn -0.7659 0.1337 -0.6289
vn 0.8742 0.1337 -0.4669
vn 0.2876 0.1337 0.9484
vn -0.9863 0.1337 0.0969
vn 0.2876 0.1337 -0.9484
vn 0.8742 0.1337 0.4669
vn -0.6285 0.1337 0.7662
vn -0.6286 0.1337 -0.7661
vn 0.9484 0.1337 -0.2876
vn 0.0969 0.1337 0.9863
vn -0.9863 0.1337 -0.0969
vn 0.4669 0.1337 -0.8742
vn 0.7659 0.1337 0.6289
vn -0.7659 0.1337 0.6289
vn -0.4669 0.1337 -0.8742
vn 0.9863 0.1337 -0.0969
vn -0.0969 0.1337 0.9863
vn -0.9484 0.1337 -0.2876
vn 0.6285 0.1337 -0.7662
vn 0.6286 0.1337 0.7661
vn -0.8742 0.1337 0.4669
vn -0.2876 0.1337 -0.9484
vn 0.9863 0.1337 0.0969
vn -0.2876 0.1337 0.9484
vn 0.2905 0.0000 0.9569
vn -0.0414 -0.9990 -0.0172
vn -0.0440 -0.9990 -0.0087
vn 0.0249 -0.9990 0.0373
vn -0.0373 -0.9990 -0.0249
vn 0.0171 -0.9990 0.0414
vn 0.0087 -0.9990 -0.0440
vn 0.0000 -0.9990 -0.0448
vn -0.0317 -0.9990 -0.0317
vn 0.0087 -0.9990 0.0440
vn 0.0171 -0.9990 -0.0414
vn -0.0249 -0.9990 -0.0373
vn 0.0000 -0.9990 0.0448
vn 0.0249 -0.9990 -0.0373
vn -0.0171 -0.9990 -0.0414
vn -0.0087 -0.9990 0.0440
vn 0.0317 -0.9990 -0.0317
vn -0.0087 -0.9990 -0.0440
vn -0.0171 -0.9990 0.0414
vn 0.0373 -0.9990 -0.0249
vn -0.0249 -0.9990 0.0373
vn 0.0414 -0.9990 -0.0172
vn -0.0317 -0.9990 0.0317
vn 0.0440 -0.9990 -0.0087
vn -0.0373 -0.9990 0.0249
vn 0.0448 -0.9990 0.0000
vn -0.0414 -0.9990 0.0172
vn 0.0440 -0.9990 0.0087
vn -0.0440 -0.9990 0.0087
vn 0.0414 -0.9990 0.0172
vn -0.0448 -0.9990 -0.0000
vn 0.0000 1.0000 0.0000
vn 0.2905 0.0000 -0.9569
vn -0.6346 0.0000 -0.7728
vn 0.0979 0.0000 0.9952
vn 0.4714 0.0000 -0.8819
vn -0.4714 0.0000 -0.8819
vn -0.0979 0.0000 0.9952
vn 0.6346 0.0000 -0.7728
vn -0.2905 0.0000 -0.9569
vn -0.2905 0.0000 0.9569
vn 0.7731 0.0000 -0.6343
vn -0.0979 0.0000 -0.9952
vn -0.4714 0.0000 0.8819
vn 0.8819 0.0000 -0.4714
vn -0.6346 0.0000 0.7728
vn 0.9569 0.0000 -0.2905
vn -0.7731 -0.0000 0.6343
vn 0.9952 0.0000 -0.0979
vn -0.8819 0.0000 0.4714
vn 0.9952 0.0000 0.0979
vn -0.9569 0.0000 0.2905
vn 0.9569 0.0000 0.2905
vn -0.9952 0.0000 0.0979
vn 0.8819 0.0000 0.4714
vn -0.9952 0.0000 -0.0979
vn 0.7731 -0.0000 0.6343
vn -0.9569 0.0000 -0.2905
vn 0.6346 0.0000 0.7728
vn -0.8819 0.0000 -0.4714
vn 0.4714 0.0000 0.8819
vn 0.0979 0.0000 -0.9952
vn -0.7731 0.0000 -0.6343
vn 0.1016 0.9871 0.1239
vn 0.8819 -0.0000 0.4715
vn 0.7730 -0.0000 0.6344
vn 0.6344 -0.0000 0.7730
vn -0.8819 0.0000 -0.4715
vn 0.4715 -0.0000 0.8819
vn 0.0982 0.0000 -0.9952
vn -0.7730 0.0000 -0.6344
vn -0.6344 0.0000 -0.7730
vn 0.0982 -0.0000 0.9952
vn 0.4715 0.0000 -0.8819
vn -0.4715 0.0000 -0.8819
vn -0.0982 -0.0000 0.9952
vn 0.6344 0.0000 -0.7730
vn 0.7730 0.0000 -0.6344
vn -0.0982 0.0000 -0.9952
vn -0.4715 -0.0000 0.8819
vn 0.8819 0.0000 -0.4715
vn -0.6344 -0.0000 0.7730
vn -0.7730 -0.0000 0.6344
vn -0.8819 -0.0000 0.4715
vn 0.0983 -0.0000 0.9952
vn -0.1412 0.9871 -0.0754
vn 0.0756 0.9870 0.1415
vn 0.0157 0.9871 -0.1594
vn -0.1241 0.9870 -0.1019
vn 0.0465 0.9871 0.1532
vn 0.0465 0.9871 -0.1532
vn -0.1018 0.9870 -0.1240
vn 0.0157 0.9871 0.1594
vn 0.0755 0.9871 -0.1412
vn -0.0756 0.9871 -0.1414
vn -0.0157 0.9871 0.1594
vn 0.1016 0.9871 -0.1239
vn -0.0465 0.9871 -0.1532
vn -0.0465 0.9871 0.1532
vn 0.1239 0.9871 -0.1016
vn -0.0157 0.9871 -0.1594
vn -0.0755 0.9871 0.1412
vn 0.1415 0.9870 -0.0757
vn -0.1016 0.9871 0.1239
vn 0.1532 0.9871 -0.0465
vn -0.1239 0.9871 0.1016
vn 0.1598 0.9870 -0.0157
vn -0.1415 0.9870 0.0757
vn 0.1598 0.9870 0.0157
vn -0.1532 0.9871 0.0465
vn 0.1532 0.9871 0.0465
vn -0.1598 0.9870 0.0157
vn 0.1412 0.9871 0.0755
vn -0.1598 0.9870 -0.0157
vn 0.1240 0.9870 0.1018
vn -0.1532 0.9871 -0.0465
vn -0.4712 0.0000 -0.8820
vn -0.0983 -0.0000 0.9952
vn -0.2902 0.0000 -0.9570
vn -0.2902 -0.0000 0.9570
vn 0.7728 0.0000 -0.6346
vn -0.0983 0.0000 -0.9952
vn 0.9570 0.0000 -0.2902
vn -0.7728 0.0000 0.6346
vn -0.9570 -0.0000 0.2902
vn 0.9570 -0.0000 0.2902
vn 0.7728 0.0000 0.6346
vn -0.9570 0.0000 -0.2902
vn 0.0983 0.0000 -0.9952
vn 0.2902 -0.0000 0.9570
vn 0.2902 0.0000 -0.9570
vn -0.8702 -0.1628 0.4650
vn 0.9819 -0.1628 0.0966
vn -0.9442 -0.1628 0.2864
vn 0.9442 -0.1628 0.2865
vn -0.9819 -0.1628 0.0966
vn 0.8702 -0.1628 0.4650
vn -0.9819 -0.1628 -0.0966
vn 0.7626 -0.1628 0.6261
vn -0.9442 -0.1628 -0.2865
vn 0.6261 -0.1628 0.7626
vn -0.8702 -0.1628 -0.4650
vn 0.4650 -0.1628 0.8702
vn 0.0966 -0.1628 -0.9819
vn -0.7626 -0.1628 -0.6261
vn 0.2864 -0.1628 0.9442
vn 0.2864 -0.1628 -0.9442
vn -0.6261 -0.1628 -0.7626
vn 0.0966 -0.1628 0.9819
vn 0.4650 -0.1628 -0.8702
vn -0.4650 -0.1628 -0.8702
vn -0.0966 -0.1628 0.9819
vn 0.6261 -0.1628 -0.7626
vn -0.2864 -0.1628 -0.9442
vn -0.2864 -0.1628 0.9442
vn 0.7626 -0.1628 -0.6261
vn -0.0966 -0.1628 -0.9819
vn -0.4650 -0.1628 0.8702
vn 0.8702 -0.1628 -0.4650
vn -0.6261 -0.1628 0.7626
vn 0.9442 -0.1628 -0.2864
vn -0.7626 -0.1628 0.6261
vn 0.9819 -0.1628 -0.0966
vn 0.9942 -0.0455 -0.0976
vn -0.7723 -0.0454 0.6337
vn 0.9559 -0.0454 -0.2902
vn -0.6337 -0.0454 0.7723
vn 0.8811 -0.0454 -0.4707
vn -0.4707 -0.0454 0.8811
vn -0.0976 -0.0455 -0.9942
vn 0.7723 -0.0454 -0.6337
vn -0.2899 -0.0454 0.9560
vn -0.2899 -0.0454 -0.9560
vn 0.6337 -0.0454 -0.7723
vn -0.0976 -0.0455 0.9942
vn -0.4707 -0.0454 -0.8811
vn 0.4707 -0.0454 -0.8811
vn 0.0976 -0.0455 0.9942
vn -0.6337 -0.0454 -0.7723
vn 0.2899 -0.0454 -0.9560
vn 0.2899 -0.0454 0.9560
vn -0.7723 -0.0454 -0.6337
vn 0.0976 -0.0455 -0.9942
vn 0.4707 -0.0454 0.8811
vn -0.8811 -0.0454 -0.4707
vn 0.6337 -0.0454 0.7723
vn -0.9560 -0.0454 -0.2899
vn 0.7723 -0.0454 0.6337
vn -0.9942 -0.0455 -0.0976
vn 0.8811 -0.0454 0.4707
vn -0.9942 -0.0455 0.0976
vn 0.9560 -0.0454 0.2899
vn -0.9559 -0.0454 0.2902
vn 0.9942 -0.0455 0.0976
vn -0.8811 -0.0454 0.4707
vn 0.7725 -0.0363 -0.6340
vn 0.2902 -0.0363 -0.9563
vn -0.1138 -0.0000 0.9935
vn -0.4707 -0.0363 0.8816
vn 0.8816 -0.0363 -0.4707
vn 0.4707 -0.0363 -0.8816
vn -0.6340 -0.0363 0.7725
vn 0.9563 -0.0363 -0.2902
vn -0.7725 -0.0363 0.6340
vn 0.9945 -0.0363 -0.0980
vn -0.8816 -0.0363 0.4707
vn 0.9945 -0.0363 0.0982
vn -0.9563 -0.0363 0.2902
vn 0.9563 -0.0363 0.2902
vn -0.9945 -0.0363 0.0980
vn 0.8813 -0.0363 0.4711
vn -0.9945 -0.0363 -0.0982
vn 0.7725 -0.0363 0.6340
vn -0.9563 -0.0363 -0.2902
vn 0.6340 -0.0363 0.7725
vn -0.8813 -0.0363 -0.4711
vn 0.4711 -0.0363 0.8813
vn -0.7725 -0.0363 -0.6340
vn 0.2902 -0.0363 0.9563
vn -0.6340 -0.0363 -0.7725
vn 0.0981 -0.0363 0.9945
vn -0.0981 -0.0363 -0.9945
vn -0.4711 -0.0363 -0.8813
vn -0.0981 -0.0363 0.9945
vn 0.6340 -0.0363 -0.7725
vn -0.2902 -0.0363 -0.9563
vn -0.2902 -0.0363 0.9563
vn 0.0693 -0.7071 -0.7037
vn 0.2048 -0.7070 -0.6769
vn 0.3333 -0.7072 -0.6236
vn 0.5464 -0.7073 -0.4485
vn 0.6236 -0.7072 -0.3333
vn 0.6768 -0.7071 -0.2051
vn 0.6767 -0.7071 -0.2051
vn 0.7037 -0.7071 -0.0694
vn 0.7037 -0.7071 0.0694
vn 0.6767 -0.7071 0.2051
vn 0.6768 -0.7071 0.2051
vn 0.6239 -0.7068 0.3335
vn 0.5464 -0.7073 0.4485
vn 0.4486 -0.7071 0.5466
vn 0.3333 -0.7072 0.6236
vn 0.2048 -0.7070 0.6769
vn 0.0693 -0.7071 0.7037
vn -0.0693 -0.7071 0.7037
vn -0.2048 -0.7070 0.6769
vn -0.3333 -0.7072 0.6236
vn -0.4487 -0.7071 0.5466
vn -0.5464 -0.7073 0.4485
vn -0.6236 -0.7072 0.3333
vn -0.6768 -0.7070 0.2053
vn -0.7038 -0.7070 0.0695
vn -0.7038 -0.7070 -0.0695
vn -0.6768 -0.7070 -0.2054
vn -0.6239 -0.7068 -0.3335
vn -0.5464 -0.7073 -0.4485
vn -0.4485 -0.7073 -0.5464
vn -0.3333 -0.7072 -0.6236
vn -0.2048 -0.7070 -0.6769
vn -0.0693 -0.7071 -0.7037
vn 0.0981 -0.0363 -0.9945
vn -0.6929 -0.7210 -0.0000
vn 0.5276 -0.0006 0.8495
vn -0.8172 -0.0016 -0.5764
vn 0.3326 -0.0001 0.9431
vn 0.6899 -0.0011 0.7239
vn 0.8165 -0.0016 0.5773
vn 0.9084 -0.0020 0.4181
vn -0.9964 -0.0026 0.0845
vn 0.9964 -0.0025 0.0843
vn 0.9675 -0.0024 0.2529
vn 0.9675 -0.0024 -0.2529
vn -0.9087 -0.0021 0.4175
vn 0.8165 -0.0016 -0.5773
vn 0.9964 -0.0025 -0.0843
vn -0.3324 -0.0002 -0.9431
vn 0.5276 -0.0006 -0.8495
vn -0.6902 -0.0011 -0.7236
vn -0.6902 -0.0011 0.7236
vn -0.9087 -0.0021 -0.4175
vn 0.9084 -0.0020 -0.4181
vn -0.9964 -0.0026 -0.0845
vn -0.3324 -0.0002 0.9431
vn -0.1138 0.0000 -0.9935
vn -0.9676 -0.0024 0.2523
vn -0.9677 -0.0024 0.2523
vn 0.1138 -0.0000 -0.9935
vn -0.8172 -0.0016 0.5764
vn 0.1138 -0.0000 0.9935
vn 0.3326 -0.0001 -0.9431
vn 0.6899 -0.0011 -0.7239
vn -0.5280 -0.0006 0.8492
vn -0.5280 -0.0006 0.8493
vn -0.9677 -0.0024 -0.2523
vn -0.9676 -0.0024 -0.2523
vn -0.5279 -0.0006 -0.8493
vn -0.5280 -0.0006 -0.8493
vn -0.9064 0.0000 -0.4224
vn 0.0000 0.0000 -1.0000
vn 0.9064 0.0000 0.4224
vn 0.0000 0.0000 1.0000
vn 1.0000 0.0000 0.0000
vn -1.0000 -0.0000 0.0000
vn 0.9064 0.0000 -0.4224
vn -0.9064 0.0000 0.4224
usemtl Material.001
s 1
f 1/1/1 2/2/1 3/3/1 4/4/1
f 2/2/2 5/5/2 6/6/2 3/7/2
f 5/5/3 7/8/3 8/9/3 6/10/3
f 7/8/4 9/11/4 10/12/4 8/13/4
f 9/11/5 11/14/5 12/15/5 10/16/5
f 11/14/6 13/17/6 14/18/6 12/19/6
f 13/17/7 15/20/7 16/21/7 14/22/7
f 15/20/8 17/23/8 18/24/8 16/25/8
f 17/23/9 19/26/9 20/27/9 18/28/9
f 19/26/10 21/29/10 22/30/10 20/31/10
f 21/29/11 23/32/11 24/33/11 22/34/11
f 23/32/12 25/35/12 26/36/12 24/37/12
f 25/35/13 27/38/13 28/39/13 26/40/13
f 27/38/14 29/41/14 30/42/14 28/43/14
f 29/41/15 31/44/15 32/45/15 30/46/15
f 31/44/16 33/47/16 34/48/16 32/49/16
f 33/47/17 35/50/17 36/51/17 34/52/17
f 35/50/18 37/53/18 38/54/18 36/55/18
f 37/53/19 39/56/19 40/57/19 38/58/19
f 39/56/20 41/59/20 42/60/20 40/61/20
f 41/59/21 43/62/21 44/63/21 42/64/21
f 43/62/22 45/65/22 46/66/22 44/67/22
f 45/65/23 47/68/23 48/69/23 46/70/23
f 47/68/24 49/71/24 50/72/24 48/73/24
f 49/71/25 51/74/25 52/75/25 50/76/25
f 51/74/26 53/77/26 54/78/26 52/79/26
f 53/77/27 55/80/27 56/81/27 54/82/27
f 55/80/28 57/83/28 58/84/28 56/85/28
f 57/83/29 59/86/29 60/87/29 58/88/29
f 59/86/30 61/89/30 62/90/30 60/91/30
f 61/89/31 63/92/31 64/93/31 62/94/31
f 63/92/32 1/95/32 4/96/32 64/97/32
f 4/4/33 3/3/33 65/98/33 66/99/33
f 20/31/33 22/30/33 67/100/33 68/101/33
f 38/58/33 40/57/33 69/102/33 70/103/33
f 56/85/33 58/84/33 71/104/33 72/105/33
f 12/19/33 14/18/33 73/106/33 74/107/33
f 30/46/33 32/45/33 75/108/33 76/109/33
f 48/73/33 50/72/33 77/110/33 78/111/33
f 3/7/33 6/6/33 79/112/33 65/113/33
f 22/34/33 24/33/33 80/114/33 67/115/33
f 40/61/33 42/60/33 81/116/33 69/117/33
f 58/88/33 60/87/33 82/118/33 71/119/33
f 14/22/33 16/21/33 83/120/33 73/121/33
f 32/49/33 34/48/33 84/122/33 75/123/33
f 50/76/33 52/75/33 85/124/33 77/125/33
f 6/10/33 8/9/33 86/126/33 79/127/33
f 24/37/33 26/36/33 87/128/33 80/129/33
f 42/64/33 44/63/33 88/130/33 81/131/33
f 60/91/33 62/90/33 89/132/33 82/133/33
f 16/25/33 18/24/33 90/134/33 83/135/33
f 34/52/33 36/51/33 91/136/33 84/137/33
f 52/79/33 54/78/33 92/138/33 85/139/33
f 8/13/33 10/12/33 93/140/33 86/141/33
f 26/40/33 28/39/33 94/142/33 87/143/33
f 44/67/33 46/66/33 95/144/33 88/145/33
f 62/94/33 64/93/33 96/146/33 89/147/33
f 18/28/33 20/27/33 68/148/33 90/149/33
f 36/55/33 38/54/33 70/150/33 91/151/33
f 54/82/33 56/81/33 72/152/33 92/153/33
f 64/97/33 4/96/33 66/154/33 96/155/33
f 10/16/33 12/15/33 74/156/33 93/157/33
f 28/43/33 30/42/33 76/158/33 94/159/33
f 46/70/33 48/69/33 78/160/33 95/161/33
f 1/1/34 97/162/34 98/163/34 2/2/34
f 2/2/35 98/163/35 99/164/35 5/5/35
f 61/89/36 100/165/36 101/166/36 63/92/36
f 59/86/37 102/167/37 100/165/37 61/89/37
f 57/83/38 103/168/39 102/167/39 59/86/38
f 55/80/40 104/169/41 103/168/41 57/83/40
f 53/77/42 105/170/42 104/169/42 55/80/42
f 51/74/43 106/171/43 105/170/43 53/77/43
f 49/71/44 107/172/44 106/171/44 51/74/44
f 47/68/45 108/173/45 107/172/45 49/71/45
f 45/65/46 109/174/46 108/173/46 47/68/46
f 43/62/47 110/175/47 109/174/47 45/65/47
f 41/59/48 111/176/49 110/175/49 43/62/48
f 39/56/50 112/177/51 111/176/51 41/59/50
f 37/53/52 113/178/52 112/177/52 39/56/52
f 35/50/53 114/179/53 113/178/53 37/53/53
f 33/47/54 115/180/54 114/179/54 35/50/54
f 31/44/55 116/181/55 115/180/55 33/47/55
f 29/41/56 117/182/56 116/181/56 31/44/56
f 27/38/57 118/183/57 117/182/57 29/41/57
f 25/35/58 119/184/59 118/183/59 27/38/58
f 23/32/60 120/185/61 119/184/61 25/35/60
f 21/29/62 121/186/62 120/185/62 23/32/62
f 19/26/63 122/187/63 121/186/63 21/29/63
f 17/23/64 123/188/64 122/187/64 19/26/64
f 15/20/65 124/189/65 123/188/65 17/23/65
f 13/17/66 125/190/66 124/189/66 15/20/66
f 11/14/67 126/191/67 125/190/67 13/17/67
f 9/11/68 127/192/69 126/191/69 11/14/68
f 7/8/70 128/193/71 127/192/71 9/11/70
f 5/5/72 99/164/72 128/193/72 7/8/72
f 63/92/73 101/166/73 97/194/73 1/95/73
usemtl Material.002
f 101/195/73 129/196/73 130/197/73 97/198/73
f 99/199/72 131/200/72 132/201/72 128/202/72
f 128/202/71 132/201/70 133/203/70 127/204/71
f 127/204/69 133/203/68 134/205/68 126/206/69
f 126/206/67 134/205/67 135/207/67 125/208/67
f 125/208/66 135/207/66 136/209/66 124/210/66
f 124/210/65 136/209/65 137/211/65 123/212/65
f 123/212/64 137/211/64 138/213/64 122/214/64
f 122/214/63 138/213/63 139/215/63 121/216/63
f 121/216/62 139/215/62 140/217/62 120/218/62
f 120/218/61 140/217/60 141/219/60 119/220/61
f 119/220/59 141/219/58 142/221/58 118/222/59
f 118/222/57 142/221/57 143/223/57 117/224/57
f 117/224/56 143/223/74 144/225/74 116/226/56
f 116/226/55 144/225/55 145/227/55 115/228/55
f 115/228/54 145/227/54 146/229/54 114/230/54
f 114/230/53 146/229/75 147/231/75 113/232/53
f 113/232/52 147/231/52 148/233/52 112/234/52
f 112/234/51 148/233/50 149/235/50 111/236/51
f 111/236/49 149/235/48 150/237/48 110/238/49
f 110/238/47 150/237/47 151/239/47 109/240/47
f 109/240/46 151/239/46 152/241/46 108/242/46
f 108/242/45 152/241/45 153/243/45 107/244/45
f 107/244/44 153/243/44 154/245/44 106/246/44
f 106/246/43 154/245/43 155/247/43 105/248/43
f 105/248/42 155/247/42 156/249/42 104/250/42
f 104/250/41 156/249/40 157/251/40 103/252/41
f 103/252/39 157/251/38 158/253/38 102/254/39
f 102/254/37 158/253/37 159/255/37 100/256/37
f 100/256/36 159/255/76 129/196/76 101/195/36
f 156/249/77 155/247/77 160/257/77 161/258/77
f 98/259/35 162/260/78 131/200/78 99/199/35
f 97/261/34 130/262/34 162/260/34 98/259/34
f 163/263/79 164/264/80 165/265/80 166/266/79
f 134/205/81 133/203/81 167/267/81 168/268/81
f 143/223/82 142/221/82 169/269/82 170/270/82
f 152/241/83 151/239/83 171/271/83 172/272/83
f 162/260/84 130/262/84 173/273/84 174/274/84
f 130/197/85 129/196/85 175/275/85 173/276/85
f 139/215/86 138/213/86 176/277/86 177/278/86
f 148/233/87 147/231/87 178/279/87 179/280/87
f 157/251/88 156/249/88 161/258/88 180/281/88
f 135/207/89 134/205/89 168/268/89 181/282/89
f 144/225/90 143/223/90 170/270/90 182/283/90
f 153/243/91 152/241/91 172/272/91 183/284/91
f 131/200/92 162/260/92 174/274/92 184/285/92
f 140/217/93 139/215/93 177/278/93 164/264/93
f 149/235/94 148/233/94 179/280/94 185/286/94
f 158/253/95 157/251/95 180/281/95 186/287/95
f 136/209/96 135/207/96 181/282/96 187/288/96
f 145/227/97 144/225/97 182/283/97 188/289/97
f 154/245/98 153/243/98 183/284/98 189/290/98
f 132/201/99 131/200/99 184/285/99 190/291/99
f 141/219/100 140/217/100 164/264/100 163/263/100
f 150/237/101 149/235/101 185/286/101 191/292/101
f 159/255/102 158/253/102 186/287/102 192/293/102
f 137/211/103 136/209/103 187/288/103 193/294/103
f 146/229/104 145/227/104 188/289/104 194/295/104
f 155/247/105 154/245/105 189/290/105 160/257/105
f 133/203/106 132/201/106 190/291/106 167/267/106
f 142/221/107 141/219/107 163/263/107 169/269/107
f 151/239/108 150/237/108 191/292/108 171/271/108
f 129/196/109 159/255/109 192/293/109 175/275/109
f 138/213/110 137/211/110 193/294/110 176/277/110
f 147/231/111 146/229/111 194/295/111 178/279/111
f 195/296/112 196/297/112 197/298/112 198/299/112
f 160/257/113 189/290/114 199/300/114 200/301/113
f 169/269/115 163/263/79 166/266/79 201/302/115
f 161/258/116 160/257/113 200/301/113 202/303/116
f 170/270/117 169/269/115 201/302/115 196/297/117
f 174/274/118 173/273/119 203/304/119 204/305/118
f 180/281/120 161/258/116 202/303/116 205/306/120
f 182/283/121 170/270/117 196/297/117 195/296/121
f 184/285/122 174/274/118 204/305/118 206/307/122
f 186/287/123 180/281/120 205/306/120 207/308/123
f 188/289/124 182/283/121 195/296/121 208/309/124
f 190/291/125 184/285/122 206/307/122 209/310/125
f 192/293/126 186/287/123 207/308/123 210/311/126
f 194/295/127 188/289/124 208/309/124 211/312/127
f 167/267/128 190/291/125 209/310/125 212/313/128
f 175/275/129 192/293/126 210/311/126 213/314/129
f 178/279/130 194/295/127 211/312/127 214/315/130
f 168/268/131 167/267/128 212/313/128 215/316/131
f 173/276/119 175/275/129 213/314/129 203/317/119
f 179/280/132 178/279/130 214/315/130 216/318/132
f 181/282/133 168/268/131 215/316/131 217/319/133
f 185/286/134 179/280/132 216/318/132 218/320/134
f 187/288/135 181/282/133 217/319/133 219/321/135
f 191/292/136 185/286/134 218/320/134 220/322/136
f 193/294/137 187/288/135 219/321/135 221/323/137
f 171/271/138 191/292/136 220/322/136 222/324/138
f 176/277/139 193/294/137 221/323/137 223/325/139
f 172/272/140 171/271/138 222/324/138 224/326/140
f 177/278/141 176/277/139 223/325/139 225/327/141
f 183/284/142 172/272/140 224/326/140 226/328/142
f 164/264/80 177/278/141 225/327/141 165/265/80
f 189/290/114 183/284/142 226/328/142 199/300/114
f 227/329/143 228/330/143 229/331/143 230/332/143 231/333/143 232/334/143 233/335/143 234/336/143 235/337/143 236/338/143 237/339/143 238/340/143 239/341/143 240/342/143 241/343/143 242/344/143 243/345/143 244/346/143 198/347/143 197/348/143 245/349/143 246/350/143 247/351/143 248/352/143 249/353/143 250/354/143 251/355/143 252/356/143 253/357/143 254/358/143 255/359/143 256/360/143
f 206/307/144 204/305/144 227/361/144 256/362/144
f 207/308/145 205/306/145 232/363/145 231/364/145
f 208/309/146 195/296/146 198/299/146 244/365/146
f 209/310/147 206/307/147 256/362/147 255/366/147
f 210/311/148 207/308/148 231/364/148 230/367/148
f 211/312/149 208/309/149 244/365/149 243/368/149
f 212/313/150 209/310/150 255/366/150 254/369/150
f 213/314/151 210/311/151 230/367/151 229/370/151
f 214/315/152 211/312/152 243/368/152 242/371/152
f 215/316/153 212/313/153 254/369/153 253/372/153
f 203/317/154 213/314/154 229/370/154 228/373/154
f 216/318/155 214/315/155 242/371/155 241/374/155
f 217/319/156 215/316/156 253/372/156 252/375/156
f 218/320/157 216/318/157 241/374/157 240/376/157
f 219/321/158 217/319/158 252/375/158 251/377/158
f 220/322/159 218/320/159 240/376/159 239/378/159
f 221/323/160 219/321/160 251/377/160 250/379/160
f 222/324/161 220/322/161 239/378/161 238/380/161
f 223/325/162 221/323/162 250/379/162 249/381/162
f 224/326/163 222/324/163 238/380/163 237/382/163
f 225/327/164 223/325/164 249/381/164 248/383/164
f 226/328/165 224/326/165 237/382/165 236/384/165
f 165/265/166 225/327/166 248/383/166 247/385/166
f 199/300/167 226/328/167 236/384/167 235/386/167
f 166/266/168 165/265/168 247/385/168 246/387/168
f 200/301/169 199/300/169 235/386/169 234/388/169
f 201/302/170 166/266/170 246/387/170 245/389/170
f 202/303/171 200/301/171 234/388/171 233/390/171
f 196/297/172 201/302/172 245/389/172 197/298/172
f 204/305/173 203/304/173 228/391/173 227/361/173
f 205/306/174 202/303/174 233/390/174 232/363/174
f 68/392/63 67/393/63 257/394/63 258/395/63
f 259/396/175 260/397/175 261/398/175 262/399/175
f 78/400/165 77/401/165 263/402/165 264/403/165
f 67/404/176 80/405/176 265/406/176 257/407/176
f 77/408/167 85/409/167 266/410/167 263/411/167
f 80/412/177 87/413/177 259/414/177 265/415/177
f 85/409/43 92/416/43 267/417/43 266/410/43
f 87/413/178 94/418/178 260/419/178 259/414/178
f 92/416/179 72/420/179 268/421/179 267/417/179
f 94/418/180 76/422/180 269/423/180 260/419/180
f 66/424/181 65/425/181 270/426/181 271/427/181
f 72/420/182 71/428/182 272/429/182 268/421/182
f 76/422/74 75/430/74 273/431/74 269/423/74
f 65/432/78 79/433/78 274/434/78 270/435/78
f 71/436/183 82/437/183 275/438/183 272/439/183
f 75/440/184 84/441/184 276/442/184 273/443/184
f 79/444/185 86/445/185 277/446/185 274/447/185
f 82/437/186 89/448/186 278/449/186 275/438/186
f 84/441/187 91/450/187 279/451/187 276/442/187
f 86/445/188 93/452/188 280/453/188 277/446/188
f 89/448/76 96/454/76 281/455/76 278/449/76
f 91/450/75 70/456/75 282/457/75 279/451/75
f 93/452/189 74/458/189 283/459/189 280/453/189
f 96/454/190 66/460/190 271/461/190 281/455/190
f 70/456/191 69/462/191 284/463/191 282/457/191
f 74/458/192 73/464/192 285/465/192 283/459/192
f 69/466/193 81/467/193 286/468/193 284/469/193
f 73/470/66 83/471/66 287/472/66 285/473/66
f 81/474/194 88/475/194 288/476/194 286/477/194
f 83/471/160 90/478/160 289/479/160 287/472/160
f 88/475/195 95/480/195 290/481/195 288/476/195
f 90/478/162 68/392/162 258/395/162 289/479/162
f 95/480/46 78/482/46 264/483/46 290/481/46
f 291/484/196 292/485/196 293/486/196 294/487/196
f 267/488/197 268/489/197 295/490/197 296/491/197
f 260/397/198 269/492/198 297/493/198 261/398/198
f 271/494/199 270/495/199 298/496/199 299/497/199
f 268/489/200 272/498/200 300/499/200 295/490/200
f 269/492/201 273/500/201 291/484/201 297/493/201
f 270/495/202 274/501/202 301/502/202 298/496/202
f 272/498/203 275/503/203 302/504/203 300/499/203
f 273/500/204 276/505/204 292/485/204 291/484/204
f 274/501/205 277/506/205 303/507/205 301/502/205
f 275/503/206 278/508/206 304/509/206 302/504/206
f 276/505/207 279/510/207 305/511/207 292/485/207
f 277/506/208 280/512/208 306/513/208 303/507/208
f 278/508/209 281/514/209 307/515/209 304/509/209
f 279/510/210 282/516/210 308/517/210 305/511/210
f 280/512/211 283/518/211 309/519/211 306/513/211
f 281/520/212 271/521/212 299/522/212 307/523/212
f 282/516/213 284/524/213 310/525/213 308/517/213
f 283/518/214 285/526/214 311/527/214 309/519/214
f 284/524/215 286/528/215 312/529/215 310/525/215
f 285/526/216 287/530/216 313/531/216 311/527/216
f 286/532/217 288/533/217 314/534/217 312/535/217
f 287/530/218 289/536/218 315/537/218 313/531/218
f 288/538/219 290/539/219 316/540/219 314/541/219
f 289/542/220 258/543/220 317/544/220 315/545/220
f 290/539/221 264/546/221 318/547/221 316/540/221
f 258/548/222 257/549/222 319/550/222 317/551/222
f 264/546/223 263/552/223 320/553/223 318/547/223
f 257/554/224 265/555/224 321/556/224 319/557/224
f 263/552/225 266/558/225 322/559/225 320/553/225
f 265/555/226 259/396/226 262/399/226 321/556/226
f 266/558/227 267/488/227 296/491/227 322/559/227
f 323/560/33 324/561/33 325/562/33 326/563/33
f 301/502/185 303/507/185 327/564/185 328/565/185
f 302/504/228 304/509/228 329/566/228 330/567/228
f 292/485/229 305/511/229 331/568/229 293/486/229
f 303/507/150 306/513/150 332/569/150 327/564/150
f 304/509/230 307/515/230 333/570/230 329/566/230
f 305/511/231 308/517/231 323/560/231 331/568/231
f 306/513/232 309/519/232 334/571/232 332/569/232
f 307/523/233 299/522/233 335/572/233 333/573/233
f 308/517/191 310/525/191 324/561/191 323/560/191
f 309/519/192 311/527/192 336/574/192 334/571/192
f 310/525/157 312/529/157 337/575/157 324/561/157
f 311/527/234 313/531/234 338/576/234 336/574/234
f 312/535/235 314/534/235 339/577/235 337/578/235
f 313/531/65 315/537/65 340/579/65 338/576/65
f 314/541/195 316/540/195 341/580/195 339/581/195
f 315/545/64 317/544/64 342/582/64 340/583/64
f 316/540/236 318/547/236 343/584/236 341/580/236
f 317/551/237 319/550/237 344/585/237 342/586/237
f 318/547/45 320/553/45 345/587/45 343/584/45
f 319/557/176 321/556/176 346/588/176 344/589/176
f 320/553/44 322/559/44 347/590/44 345/587/44
f 321/556/238 262/399/238 348/591/238 346/588/238
f 322/559/239 296/491/239 349/592/239 347/590/239
f 262/399/170 261/398/170 350/593/170 348/591/170
f 296/491/171 295/490/171 351/594/171 349/592/171
f 261/398/180 297/493/180 352/595/180 350/593/180
f 299/497/240 298/496/240 353/596/240 335/597/240
f 295/490/174 300/499/174 354/598/174 351/594/174
f 297/493/241 291/484/241 294/487/241 352/595/241
f 298/496/242 301/502/242 328/565/242 353/596/242
f 300/499/183 302/504/183 330/567/183 354/598/183
f 355/599/243 356/600/243 357/601/243 358/602/243
f 334/571/33 336/574/33 359/603/33 360/604/33
f 324/561/33 337/575/33 361/605/33 325/562/33
f 336/574/33 338/576/33 362/606/33 359/603/33
f 337/578/33 339/577/33 363/607/33 361/608/33
f 338/576/33 340/579/33 364/609/33 362/606/33
f 339/581/33 341/580/33 365/610/33 363/611/33
f 340/583/33 342/582/33 366/612/33 364/613/33
f 341/580/33 343/584/33 367/614/33 365/610/33
f 342/586/33 344/585/33 368/615/33 366/616/33
f 343/584/33 345/587/33 369/617/33 367/614/33
f 344/589/33 346/588/33 370/618/33 368/619/33
f 345/587/33 347/590/33 371/620/33 369/617/33
f 346/588/33 348/591/33 372/621/33 370/618/33
f 347/590/33 349/592/33 373/622/33 371/620/33
f 348/591/33 350/593/33 374/623/33 372/621/33
f 349/592/33 351/594/33 375/624/33 373/622/33
f 350/593/33 352/595/33 376/625/33 374/623/33
f 335/597/33 353/596/33 377/626/33 378/627/33
f 351/594/33 354/598/33 379/628/33 375/624/33
f 352/595/33 294/487/33 380/629/33 376/625/33
f 353/596/33 328/565/33 381/630/33 377/626/33
f 354/598/33 330/567/33 382/631/33 379/628/33
f 294/487/33 293/486/33 383/632/33 380/629/33
f 328/565/33 327/564/33 384/633/33 381/630/33
f 330/567/33 329/566/33 385/634/33 382/631/33
f 293/486/33 331/568/33 386/635/33 383/632/33
f 327/564/33 332/569/33 387/636/33 384/633/33
f 329/566/33 333/570/33 388/637/33 385/634/33
f 331/568/33 323/560/33 326/563/33 386/635/33
f 332/569/33 334/571/33 360/604/33 387/636/33
f 333/573/33 335/572/33 378/638/33 388/639/33
f 389/640/33 390/641/33 391/642/33 392/643/33
f 393/644/244 394/645/244 395/646/244 396/647/244
f 356/600/245 397/648/245 398/649/245 357/601/245
f 394/650/246 399/651/246 400/652/246 395/653/246
f 397/648/247 401/654/247 389/640/247 398/649/247
f 399/655/248 402/656/248 403/657/248 400/658/248
f 401/654/249 404/659/249 390/641/249 389/640/249
f 402/656/250 405/660/250 406/661/250 403/657/250
f 404/659/251 407/662/251 408/663/251 390/641/251
f 405/660/252 409/664/252 410/665/252 406/661/252
f 407/662/253 411/666/253 412/667/253 408/663/253
f 409/664/254 413/668/254 414/669/254 410/665/254
f 415/670/255 416/671/255 417/672/255 418/673/255
f 411/666/256 419/674/256 420/675/256 412/667/256
f 413/668/257 421/676/257 422/677/257 414/669/257
f 416/671/258 423/678/258 424/679/258 417/672/258
f 419/674/259 425/680/259 426/681/259 420/675/259
f 421/676/260 427/682/260 428/683/260 422/677/260
f 423/678/261 429/684/261 430/685/261 424/679/261
f 425/680/262 431/686/262 432/687/262 426/681/262
f 427/682/263 433/688/263 434/689/263 428/683/263
f 429/684/264 435/690/264 436/691/264 430/685/264
f 431/686/265 437/692/265 438/693/265 432/687/265
f 433/688/266 439/694/266 440/695/266 434/689/266
f 435/690/267 441/696/267 442/697/267 436/691/267
f 437/698/268 415/699/268 418/700/268 438/701/268
f 439/694/269 443/702/269 444/703/269 440/695/269
f 441/696/270 445/704/270 446/705/270 442/697/270
f 443/702/271 447/706/271 448/707/271 444/703/271
f 445/704/272 449/708/272 450/709/272 446/705/272
f 447/710/273 355/711/273 358/712/273 448/713/273
f 449/708/274 393/714/274 396/715/274 450/709/274
f 362/606/275 364/609/275 393/714/275 449/708/275
f 361/608/276 363/607/276 355/711/276 447/710/276
f 359/603/277 362/606/277 449/708/277 445/704/277
f 325/562/278 361/605/278 447/706/278 443/702/278
f 360/604/279 359/603/279 445/704/279 441/696/279
f 326/563/280 325/562/280 443/702/280 439/694/280
f 388/639/281 378/638/281 415/699/281 437/698/281
f 387/636/282 360/604/282 441/696/282 435/690/282
f 386/635/283 326/563/283 439/694/283 433/688/283
f 385/634/284 388/637/284 437/692/284 431/686/284
f 384/633/285 387/636/285 435/690/285 429/684/285
f 383/632/286 386/635/286 433/688/286 427/682/286
f 382/631/287 385/634/287 431/686/287 425/680/287
f 381/630/288 384/633/288 429/684/288 423/678/288
f 380/629/289 383/632/289 427/682/289 421/676/289
f 379/628/290 382/631/290 425/680/290 419/674/290
f 377/626/291 381/630/291 423/678/291 416/671/291
f 376/625/292 380/629/292 421/676/292 413/668/292
f 375/624/293 379/628/293 419/674/293 411/666/293
f 378/627/294 377/626/294 416/671/294 415/670/294
f 374/623/295 376/625/295 413/668/295 409/664/295
f 373/622/296 375/624/296 411/666/296 407/662/296
f 372/621/297 374/623/297 409/664/297 405/660/297
f 371/620/298 373/622/298 407/662/298 404/659/298
f 370/618/299 372/621/299 405/660/299 402/656/299
f 369/617/300 371/620/300 404/659/300 401/654/300
f 368/619/301 370/618/301 402/656/301 399/655/301
f 367/614/302 369/617/302 401/654/302 397/648/302
f 366/616/303 368/615/303 399/651/303 394/650/303
f 365/610/304 367/614/304 397/648/304 356/600/304
f 364/613/305 366/612/305 394/645/305 393/644/305
f 363/611/306 365/610/306 356/600/306 355/599/306
f 451/716/307 452/717/307 453/718/307 454/719/307
f 403/657/33 406/661/33 455/720/33 456/721/33
f 390/641/33 408/663/33 457/722/33 391/642/33
f 406/661/33 410/665/33 458/723/33 455/720/33
f 408/663/33 412/667/33 459/724/33 457/722/33
f 410/665/33 414/669/33 460/725/33 458/723/33
f 418/673/33 417/672/33 461/726/33 462/727/33
f 412/667/33 420/675/33 463/728/33 459/724/33
f 414/669/33 422/677/33 464/729/33 460/725/33
f 417/672/33 424/679/33 465/730/33 461/726/33
f 420/675/33 426/681/33 466/731/33 463/728/33
f 422/677/33 428/683/33 467/732/33 464/729/33
f 424/679/33 430/685/33 468/733/33 465/730/33
f 426/681/33 432/687/33 469/734/33 466/731/33
f 428/683/33 434/689/33 470/735/33 467/732/33
f 430/685/33 436/691/33 451/716/33 468/733/33
f 432/687/33 438/693/33 471/736/33 469/734/33
f 434/689/33 440/695/33 472/737/33 470/735/33
f 436/691/33 442/697/33 452/717/33 451/716/33
f 438/701/33 418/700/33 462/738/33 471/739/33
f 440/695/33 444/703/33 473/740/33 472/737/33
f 442/697/33 446/705/33 474/741/33 452/717/33
f 444/703/33 448/707/33 475/742/33 473/740/33
f 446/705/33 450/709/33 476/743/33 474/741/33
f 448/713/33 358/712/33 477/744/33 475/745/33
f 450/709/33 396/715/33 478/746/33 476/743/33
f 358/602/33 357/601/33 479/747/33 477/748/33
f 396/647/33 395/646/33 480/749/33 478/750/33
f 357/601/33 398/649/33 481/751/33 479/747/33
f 395/653/33 400/652/33 482/752/33 480/753/33
f 398/649/33 389/640/33 392/643/33 481/751/33
f 400/658/33 403/657/33 456/721/33 482/754/33
f 461/726/308 465/730/308 483/755/308 484/756/308
f 485/757/309 486/758/309 487/759/309 488/760/309
f 472/737/310 473/740/310 489/761/310 490/762/310
f 452/717/311 474/741/311 491/763/311 453/718/311
f 465/730/312 468/733/312 492/764/312 483/755/312
f 473/740/313 475/742/313 493/765/313 489/761/313
f 474/741/314 476/743/314 494/766/314 491/763/314
f 475/745/315 477/744/315 495/767/315 493/768/315
f 476/743/316 478/746/316 496/769/316 494/766/316
f 477/748/317 479/747/317 497/770/317 495/771/317
f 478/750/318 480/749/318 498/772/318 496/773/318
f 479/747/319 481/751/319 499/774/319 497/770/319
f 480/753/320 482/752/320 500/775/320 498/776/320
f 481/751/321 392/643/321 501/777/321 499/774/321
f 482/754/322 456/721/322 502/778/322 500/779/322
f 392/643/323 391/642/323 503/780/323 501/777/323
f 456/721/324 455/720/324 504/781/324 502/778/324
f 391/642/325 457/722/325 505/782/325 503/780/325
f 455/720/326 458/723/326 506/783/326 504/781/326
f 457/722/327 459/724/327 507/784/327 505/782/327
f 458/723/328 460/725/328 508/785/328 506/783/328
f 459/724/329 463/728/329 509/786/329 507/784/329
f 460/725/330 464/729/330 510/787/330 508/785/330
f 511/788/33 512/789/33 513/790/33 514/791/33
f 463/728/331 466/731/331 515/792/331 509/786/331
f 464/729/332 467/732/332 516/793/332 510/787/332
f 471/739/333 462/738/333 517/794/333 518/795/333
f 466/731/334 469/734/334 519/796/334 515/792/334
f 467/732/335 470/735/335 520/797/335 516/793/335
f 468/733/336 451/716/336 454/719/336 492/764/336
f 469/734/337 471/736/337 518/798/337 519/796/337
f 470/735/338 472/737/338 490/762/338 520/797/338
f 521/799/339 522/800/339 517/801/339 484/802/339
f 523/803/340 521/799/340 484/802/340 483/804/340
f 524/805/341 523/803/341 483/804/341 492/806/341
f 525/807/4 524/805/4 492/806/4 454/808/4
f 526/809/342 525/807/342 454/808/342 453/810/342
f 527/811/343 526/809/343 453/810/343 491/812/343
f 528/813/344 527/811/345 491/812/344 494/814/345
f 529/815/346 528/813/346 494/814/346 496/816/346
f 530/817/347 529/815/347 496/816/347 498/818/347
f 531/819/348 530/817/349 498/818/348 500/820/349
f 532/821/350 531/819/350 500/820/350 502/822/350
f 533/823/351 532/821/351 502/822/351 504/824/351
f 534/825/352 533/823/352 504/824/352 506/826/352
f 535/827/353 534/825/353 506/826/353 508/828/353
f 536/829/354 535/827/354 508/828/354 510/830/354
f 537/831/355 536/829/355 510/830/355 516/832/355
f 538/833/356 537/831/356 516/832/356 520/834/356
f 511/788/357 538/833/357 520/834/357 490/835/357
f 512/789/358 511/788/358 490/835/358 489/836/358
f 539/837/359 512/789/359 489/836/359 493/838/359
f 540/839/360 539/837/360 493/838/360 495/840/360
f 541/841/361 540/839/361 495/840/361 497/842/361
f 542/843/362 541/841/362 497/842/362 499/844/362
f 543/845/363 542/843/363 499/844/363 501/846/363
f 544/847/364 543/845/364 501/846/364 503/848/364
f 545/849/365 544/847/365 503/848/365 505/850/365
f 546/851/366 545/849/366 505/850/366 507/852/366
f 547/853/367 546/851/367 507/852/367 509/854/367
f 548/855/368 547/853/368 509/854/368 515/856/368
f 549/857/369 548/855/369 515/856/369 519/858/369
f 550/859/370 549/857/370 519/858/370 518/860/370
f 522/800/371 550/859/371 518/860/371 517/801/371
f 462/727/372 461/726/372 484/756/372 517/861/372
f 546/851/33 547/853/33 551/862/33 552/863/33
f 526/809/33 527/811/33 553/864/33 554/865/33
f 535/827/33 536/829/33 555/866/33 556/867/33
f 542/843/33 543/845/33 557/868/33 558/869/33
f 521/799/33 523/803/33 559/870/33 560/871/33
f 531/819/33 532/821/33 561/872/33 562/873/33
f 512/789/33 539/837/33 563/874/33 513/790/33
f 547/853/33 548/855/33 564/875/33 551/862/33
f 527/811/33 528/813/33 565/876/33 553/864/33
f 536/829/33 537/831/33 485/877/33 555/866/33
f 543/845/33 544/847/33 566/878/33 557/868/33
f 523/803/33 524/805/33 567/879/33 559/870/33
f 532/821/33 533/823/33 568/880/33 561/872/33
f 539/837/33 540/839/33 569/881/33 563/874/33
f 548/855/33 549/857/33 570/882/33 564/875/33
f 528/813/33 529/815/33 571/883/33 565/876/33
f 537/831/33 538/833/33 486/884/33 485/877/33
f 544/847/33 545/849/33 572/885/33 566/878/33
f 524/805/33 525/807/33 573/886/33 567/879/33
f 533/823/33 534/825/33 574/887/33 568/880/33
f 540/839/33 541/841/33 575/888/33 569/881/33
f 549/857/33 550/859/33 576/889/33 570/882/33
f 529/815/33 530/817/33 577/890/33 571/883/33
f 538/833/33 511/788/33 514/791/33 486/884/33
f 545/849/33 546/851/33 552/863/33 572/885/33
f 550/859/33 522/800/33 578/891/33 576/889/33
f 525/807/33 526/809/33 554/865/33 573/886/33
f 534/825/33 535/827/33 556/867/33 574/887/33
f 541/841/33 542/843/33 558/869/33 575/888/33
f 522/800/33 521/799/33 560/871/33 578/891/33
f 530/817/33 531/819/33 562/873/33 577/890/33
f 579/892/373 580/893/373 581/894/373 582/895/373 583/896/373 584/897/373 585/898/373 586/899/373 587/900/373 588/901/373 589/902/373 590/903/373 591/904/373 592/905/373 593/906/373 594/907/373 488/760/373 487/759/373 595/908/373 596/909/373 597/910/373 598/911/373 599/912/373 600/913/373 601/914/373 602/915/373 603/916/373 604/917/373 605/918/373 606/919/373 607/920/373 608/921/373
f 574/922/374 556/923/374 593/906/374 592/905/374
f 552/924/375 551/925/375 605/918/375 604/917/375
f 556/923/376 555/926/376 594/907/376 593/906/376
f 568/927/377 574/922/377 592/905/377 591/904/377
f 561/928/378 568/927/378 591/904/378 590/903/378
f 562/929/379 561/928/379 590/903/379 589/902/379
f 558/930/380 557/931/380 601/914/380 600/913/380
f 571/932/381 577/933/381 588/901/381 587/900/381
f 577/933/382 562/929/382 589/902/382 588/901/382
f 553/934/383 565/935/383 586/899/383 585/898/383
f 569/936/384 575/937/384 599/912/384 598/911/384
f 573/938/385 554/939/385 584/897/385 583/896/385
f 565/935/386 571/932/386 587/900/386 586/899/386
f 570/940/387 576/941/387 608/921/387 607/920/387
f 559/942/388 567/943/388 582/895/388 581/894/388
f 551/925/389 564/944/389 606/919/389 605/918/389
f 513/945/390 563/946/390 597/910/390 596/909/390
f 572/947/391 552/924/391 604/917/391 603/916/391
f 554/939/392 553/934/392 585/898/392 584/897/392
f 557/931/393 566/948/393 602/915/393 601/914/393
f 486/758/394 514/949/394 595/908/394 487/759/394
f 576/941/395 578/950/395 579/892/395 608/921/395
f 575/937/396 558/930/397 600/913/396 599/912/397
f 578/950/398 560/951/398 580/893/398 579/892/398
f 563/946/399 569/936/399 598/911/399 597/910/399
f 555/926/400 485/757/400 488/760/400 594/907/400
f 560/951/401 559/942/401 581/894/401 580/893/401
f 567/943/402 573/938/402 583/896/402 582/895/402
f 514/949/403 513/945/404 596/909/403 595/908/404
f 566/948/405 572/947/406 603/916/405 602/915/406
f 564/944/407 570/940/408 607/920/407 606/919/408
f 609/952/409 610/953/409 611/954/409 612/955/409
f 612/955/410 611/954/410 613/956/410 614/957/410
f 615/958/411 616/959/411 617/960/411 618/961/411
f 618/961/412 617/960/412 619/962/412 620/963/412
f 621/964/33 615/958/33 618/961/33 620/965/33
f 616/959/143 622/966/143 619/967/143 617/960/143
f 623/968/143 610/969/143 624/970/143 625/971/143
f 609/972/33 626/973/33 627/974/33 628/975/33
f 626/973/413 623/968/413 625/971/413 627/974/413
f 621/976/414 622/977/414 624/978/414 628/979/414
f 614/957/415 613/956/415 623/968/415 626/973/415
f 612/980/33 614/957/33 626/973/33 609/972/33
f 613/956/143 611/981/143 610/969/143 623/968/143
f 628/979/414 624/978/414 610/953/414 609/952/414
f 620/982/416 619/983/416 622/977/416 621/976/416
f 625/971/143 624/970/143 622/966/143 616/959/143
f 628/975/33 627/974/33 615/958/33 621/964/33
f 627/974/413 625/971/413 616/959/413 615/958/413
