# Blender v3.0.0 OBJ File: ''
# www.blender.org
mtllib spot.mtl
o moving
v 0.255231 -1.742356 0.142865
v 0.258972 -1.742358 0.142862
v 0.259062 -1.555530 0.143934
v 0.255321 -1.555530 0.143935
v 0.255450 -1.284228 0.145491
v 0.259191 -1.284231 0.145487
v 0.259189 -1.284211 0.142234
v 0.255449 -1.284210 0.142236
v 0.258970 -1.742339 0.139609
v 0.255229 -1.742338 0.139611
v 0.255319 -1.555512 0.140681
v 0.259060 -1.555513 0.140679
v 0.255227 -1.748174 0.139577
v 0.258968 -1.748175 0.139576
v 0.258969 -1.748195 0.142829
v 0.255229 -1.748192 0.142832
v 0.255448 -1.290061 0.145457
v 0.259188 -1.290064 0.145454
v 0.259187 -1.290044 0.142201
v 0.255446 -1.290043 0.142202
v -0.249688 -1.555289 0.144222
v -0.249778 -1.742117 0.143150
v -0.246037 -1.742118 0.143149
v -0.245948 -1.555292 0.144219
v -0.249559 -1.285252 0.145768
v -0.245819 -1.285253 0.145767
v -0.245821 -1.285235 0.142512
v -0.249561 -1.285233 0.142515
v -0.246040 -1.742100 0.139894
v -0.249779 -1.742097 0.139897
v -0.249690 -1.555271 0.140967
v -0.245950 -1.555272 0.140966
v -0.249782 -1.747934 0.139864
v -0.246042 -1.747937 0.139861
v -0.246041 -1.747954 0.143115
v -0.249780 -1.747953 0.143117
v -0.249561 -1.289822 0.145742
v -0.245822 -1.289823 0.145740
v -0.245823 -1.289805 0.142486
v -0.249563 -1.289802 0.142489
v 0.255352 -1.489694 0.144312
v 0.259093 -1.489695 0.144311
v 0.255350 -1.489674 0.141059
v 0.259091 -1.489677 0.141056
v 0.217084 -1.555327 0.111660
v 0.217085 -1.555345 0.114911
v 0.217117 -1.489508 0.115290
v 0.217115 -1.489489 0.112038
v -0.249657 -1.489453 0.144598
v -0.249659 -1.489436 0.141343
v -0.245919 -1.489437 0.141342
v -0.207746 -1.555144 0.115151
v -0.207748 -1.555125 0.111900
v -0.207717 -1.489288 0.112278
v -0.207715 -1.489307 0.115529
v -0.245917 -1.489456 0.144595
v -0.217173 -1.710424 0.115555
v 0.223461 -1.710632 0.115307
v 0.024470 -1.673105 0.115634
v -0.050557 -1.663954 0.115729
v -0.112740 -1.620993 0.116010
v -0.147834 -1.554053 0.116412
v -0.147798 -1.478467 0.116846
v -0.112640 -1.411559 0.117210
v -0.050416 -1.368653 0.117421
v 0.223650 -1.314794 0.117574
v -0.216983 -1.314584 0.117825
v 0.024620 -1.359579 0.117430
v 0.095279 -1.386414 0.117237
v 0.145373 -1.443011 0.116884
v 0.163426 -1.516406 0.116453
v 0.145303 -1.589782 0.116044
v 0.095155 -1.646332 0.115748
v -0.219934 -1.405184 -0.625134
v -0.220123 -1.709517 -0.627397
v 0.226313 -1.709730 -0.627651
v 0.226502 -1.405397 -0.625387
v 0.095144 -1.385037 -0.122991
v 0.145237 -1.441635 -0.123344
v 0.163291 -1.515029 -0.123775
v 0.005376 -1.514953 -0.123685
v 0.024485 -1.358202 -0.122798
v 0.145167 -1.588405 -0.124184
v -0.050551 -1.367276 -0.122807
v 0.095019 -1.644956 -0.124480
v -0.112776 -1.410182 -0.123018
v 0.024335 -1.671728 -0.124594
v -0.147933 -1.477090 -0.123381
v -0.050692 -1.662577 -0.124499
v -0.147969 -1.552677 -0.123815
v -0.112876 -1.619617 -0.124218
v -0.235199 -1.204877 0.359080
v 0.254761 -1.205108 0.358804
v 0.254761 -1.202527 0.357781
v -0.235198 -1.202295 0.358057
v -0.235248 -1.228287 0.291445
v 0.254711 -1.228518 0.291169
v 0.201013 -1.286483 0.142543
v -0.181773 -1.286301 0.142759
v 0.201012 -1.289064 0.143548
v -0.181774 -1.288882 0.143764
v 0.254711 -1.231101 0.292172
v -0.235248 -1.230867 0.292450
v -0.235498 -1.831529 0.355172
v 0.254461 -1.831760 0.354896
v 0.254463 -1.829193 0.355929
v -0.235496 -1.828959 0.356207
v -0.235521 -1.802206 0.289879
v 0.254438 -1.802439 0.289601
v 0.200796 -1.742726 0.141635
v -0.181990 -1.742545 0.141852
v 0.200794 -1.745296 0.140614
v -0.181992 -1.745115 0.140830
v 0.254436 -1.805008 0.288564
v -0.235523 -1.804777 0.288841
v -0.330473 -1.751749 0.356702
v -0.330238 -1.261797 0.359511
v -0.332815 -1.261791 0.358491
v -0.333049 -1.751741 0.355685
v -0.306714 -1.751372 0.289187
v -0.306480 -1.261423 0.291994
v -0.247750 -1.314186 0.143336
v -0.247934 -1.696969 0.141143
v -0.245174 -1.314193 0.144342
v -0.245358 -1.696978 0.142148
v -0.303904 -1.261430 0.293014
v -0.304138 -1.751380 0.290208
v 0.343840 -1.752064 0.355301
v 0.344074 -1.262112 0.358109
v 0.341498 -1.262117 0.359130
v 0.341265 -1.752066 0.356323
v 0.314855 -1.751673 0.289859
v 0.315089 -1.261723 0.292665
v 0.256142 -1.314432 0.144059
v 0.255959 -1.697214 0.141866
v 0.258716 -1.314426 0.143050
v 0.258534 -1.697211 0.140856
v 0.317663 -1.261719 0.291641
v 0.317430 -1.751669 0.288835
v 0.201120 -1.427835 -0.657045
v 0.200953 -1.687267 -0.659051
v -0.194741 -1.687079 -0.658827
v -0.194574 -1.427646 -0.656820
vt 0.977547 0.091468
vt 0.979955 0.091468
vt 0.979955 0.092414
vt 0.977547 0.092414
vt 0.977547 0.093876
vt 0.979955 0.093876
vt 0.979955 0.096284
vt 0.977547 0.096284
vt 0.979955 0.098692
vt 0.977547 0.098692
vt 0.977547 0.097746
vt 0.979955 0.097746
vt 0.977547 0.098692
vt 0.979955 0.098692
vt 0.979955 0.101100
vt 0.977547 0.101100
vt 0.982363 0.091468
vt 0.982363 0.092414
vt 0.975139 0.091468
vt 0.975139 0.092414
vt 0.977547 0.093876
vt 0.979955 0.093876
vt 0.979955 0.096284
vt 0.977547 0.096284
vt 0.979955 0.101100
vt 0.977547 0.101100
vt 0.977547 0.092414
vt 0.977547 0.091468
vt 0.979955 0.091468
vt 0.979955 0.092414
vt 0.977547 0.093876
vt 0.979955 0.093876
vt 0.979955 0.096284
vt 0.977547 0.096284
vt 0.979955 0.098692
vt 0.977547 0.098692
vt 0.977547 0.097746
vt 0.979955 0.097746
vt 0.977547 0.098692
vt 0.979955 0.098692
vt 0.979955 0.101100
vt 0.977547 0.101100
vt 0.982363 0.091468
vt 0.982363 0.092414
vt 0.975139 0.091468
vt 0.975139 0.092414
vt 0.977547 0.093876
vt 0.979955 0.093876
vt 0.979955 0.096284
vt 0.977547 0.096284
vt 0.979955 0.101100
vt 0.977547 0.101100
vt 0.979955 0.096284
vt 0.979955 0.093876
vt 0.979955 0.096284
vt 0.979955 0.093876
vt 0.979955 0.101100
vt 0.979955 0.098692
vt 0.979955 0.101100
vt 0.979955 0.098692
vt 0.977547 0.092586
vt 0.979955 0.092586
vt 0.975139 0.092586
vt 0.975139 0.093876
vt 0.979955 0.097574
vt 0.977547 0.097574
vt 0.982363 0.092586
vt 0.982363 0.093876
vt 0.975139 0.092414
vt 0.977547 0.092414
vt 0.977547 0.092586
vt 0.975139 0.092586
vt 0.977547 0.092586
vt 0.975139 0.092586
vt 0.977547 0.097574
vt 0.979955 0.097574
vt 0.979955 0.092414
vt 0.982363 0.092414
vt 0.982363 0.092586
vt 0.979955 0.092586
vt 0.979955 0.092586
vt 0.975139 0.093876
vt 0.982363 0.092586
vt 0.982363 0.093876
vt 0.977547 0.091468
vt 0.979955 0.091468
vt 0.978867 0.091695
vt 0.978457 0.091751
vt 0.978117 0.092012
vt 0.977925 0.092419
vt 0.977925 0.092879
vt 0.978117 0.093286
vt 0.978457 0.093547
vt 0.979955 0.093876
vt 0.977547 0.093876
vt 0.978867 0.093603
vt 0.979254 0.093440
vt 0.979528 0.093096
vt 0.979626 0.092649
vt 0.979528 0.092203
vt 0.979254 0.091858
vt 0.977547 0.093876
vt 0.977547 0.091468
vt 0.979955 0.091468
vt 0.979955 0.093876
vt 0.977547 0.096989
vt 0.977732 0.096989
vt 0.977732 0.094478
vt 0.977547 0.094478
vt 0.979770 0.096989
vt 0.979955 0.096989
vt 0.979955 0.094478
vt 0.979770 0.094478
vt 0.979606 0.899426
vt 0.978751 0.900605
vt 0.980084 0.899965
vt 0.977917 0.096989
vt 0.977917 0.094478
vt 0.979585 0.096989
vt 0.979585 0.094478
vt 0.980256 0.900665
vt 0.978932 0.899171
vt 0.978103 0.096989
vt 0.978103 0.094478
vt 0.979399 0.096989
vt 0.979399 0.094478
vt 0.980084 0.901364
vt 0.978217 0.899258
vt 0.978288 0.096989
vt 0.978288 0.094478
vt 0.979214 0.096989
vt 0.979214 0.094478
vt 0.979606 0.901904
vt 0.977624 0.899667
vt 0.978473 0.096989
vt 0.978473 0.094478
vt 0.979029 0.096989
vt 0.979029 0.094478
vt 0.978932 0.902159
vt 0.977290 0.900305
vt 0.978658 0.096989
vt 0.978658 0.094478
vt 0.978844 0.096989
vt 0.978844 0.094478
vt 0.978217 0.902072
vt 0.977290 0.901025
vt 0.977624 0.901663
vt 0.977547 0.091468
vt 0.979955 0.091468
vt 0.979955 0.093876
vt 0.977547 0.093876
vt 0.977547 0.093876
vt 0.979955 0.093876
vt 0.979955 0.096284
vt 0.977547 0.096284
vt 0.979955 0.098692
vt 0.977547 0.098692
vt 0.979955 0.101100
vt 0.977547 0.101100
vt 0.979955 0.091468
vt 0.982363 0.091468
vt 0.982363 0.093876
vt 0.975139 0.091468
vt 0.977547 0.091468
vt 0.975139 0.093876
vt 0.977547 0.091468
vt 0.979955 0.091468
vt 0.979955 0.093876
vt 0.977547 0.093876
vt 0.977547 0.093876
vt 0.979955 0.093876
vt 0.979955 0.096284
vt 0.977547 0.096284
vt 0.979955 0.098692
vt 0.977547 0.098692
vt 0.979955 0.101100
vt 0.977547 0.101100
vt 0.979955 0.091468
vt 0.982363 0.091468
vt 0.982363 0.093876
vt 0.975139 0.091468
vt 0.977547 0.091468
vt 0.975139 0.093876
vt 0.977547 0.091468
vt 0.979955 0.091468
vt 0.979955 0.093876
vt 0.977547 0.093876
vt 0.977547 0.093876
vt 0.979955 0.093876
vt 0.979955 0.096284
vt 0.977547 0.096284
vt 0.979955 0.098692
vt 0.977547 0.098692
vt 0.979955 0.101100
vt 0.977547 0.101100
vt 0.979955 0.091468
vt 0.982363 0.091468
vt 0.982363 0.093876
vt 0.975139 0.091468
vt 0.977547 0.091468
vt 0.975139 0.093876
vt 0.977547 0.091468
vt 0.979955 0.091468
vt 0.979955 0.093876
vt 0.977547 0.093876
vt 0.977547 0.093876
vt 0.979955 0.093876
vt 0.979955 0.096284
vt 0.977547 0.096284
vt 0.979955 0.098692
vt 0.977547 0.098692
vt 0.979955 0.101100
vt 0.977547 0.101100
vt 0.979955 0.091468
vt 0.982363 0.091468
vt 0.982363 0.093876
vt 0.975139 0.091468
vt 0.977547 0.091468
vt 0.975139 0.093876
vt 0.979955 0.093876
vt 0.979955 0.091468
vt 0.977547 0.091468
vt 0.977547 0.093876
vn 0.0007 -0.0057 1.0000
vn 0.0005 -0.0057 1.0000
vn 0.0005 1.0000 0.0058
vn -0.0005 0.0057 -1.0000
vn -0.0006 -1.0000 -0.0059
vn -0.0012 -1.0000 -0.0058
vn 1.0000 -0.0005 -0.0006
vn -1.0000 0.0005 0.0006
vn 0.0009 -0.0057 1.0000
vn 0.0004 -0.0057 1.0000
vn 1.0000 -0.0005 -0.0005
vn -0.0004 0.0057 -1.0000
vn 0.0008 -0.0056 1.0000
vn 0.0003 -0.0053 1.0000
vn 0.0005 1.0000 0.0057
vn -0.0014 1.0000 0.0049
vn -0.0019 1.0000 0.0062
vn -0.0006 0.0057 -1.0000
vn -0.0005 -1.0000 -0.0057
vn -0.0005 -1.0000 -0.0056
vn -1.0000 0.0005 0.0007
vn 0.0005 -0.0058 1.0000
vn 0.0004 -0.0058 1.0000
vn -0.0007 0.0058 -1.0000
vn -0.0008 0.0058 -1.0000
vn -1.0000 0.0004 0.0005
vn -0.0004 0.0060 -1.0000
vn -0.0008 0.0056 -1.0000
vn -1.0000 0.0004 0.0006
vn -0.0005 -1.0000 -0.0055
vn -0.0006 0.0058 -1.0000
vn -0.0020 1.0000 0.0055
vn 0.0006 -0.0057 1.0000
vn 0.0005 1.0000 0.0056
vn 0.0009 -0.0058 1.0000
vn -1.0000 0.0005 0.0005
vn -0.0006 -1.0000 -0.0056
vn -0.6046 -0.0043 0.7965
vn 0.0004 1.0000 0.0059
vn 0.6046 0.0043 -0.7965
vn -0.0007 -1.0000 -0.0059
vn -0.6055 0.0048 -0.7958
vn 0.0006 1.0000 0.0059
vn 0.6055 -0.0049 0.7958
vn -0.9999 0.0003 0.0140
vn -0.9999 0.0018 0.0139
vn -1.0000 0.0005 0.0039
vn 0.0009 -1.0000 0.0094
vn -0.0019 -1.0000 0.0094
vn -0.0005 -1.0000 -0.0012
vn 0.9999 0.0007 0.0139
vn 0.9999 -0.0007 0.0139
vn 1.0000 -0.0006 0.0039
vn -0.0010 0.9939 -0.1105
vn 0.0018 0.9939 -0.1105
vn 0.0004 0.9926 -0.1210
vn -0.7488 -0.6628 -0.0034
vn -0.9711 -0.2389 -0.0008
vn -0.3550 -0.9348 -0.0052
vn -0.9708 0.2398 0.0019
vn 0.1201 -0.9928 -0.0058
vn -0.7482 0.6635 0.0042
vn 0.5677 -0.8232 -0.0050
vn -0.3542 0.9351 0.0056
vn 0.8852 -0.4651 -0.0032
vn 0.1211 0.9926 0.0056
vn 0.5684 0.8227 0.0044
vn 0.8857 0.4643 0.0022
vn 0.0007 0.3685 0.9296
vn 0.0002 0.9316 -0.3635
vn 0.0002 0.9316 -0.3634
vn -0.0007 -0.3629 -0.9318
vn -0.0002 -0.9316 0.3634
vn 0.9263 -0.1369 -0.3510
vn 0.9477 -0.1159 -0.2972
vn 0.9263 -0.1368 -0.3511
vn -0.9482 -0.1151 -0.2961
vn -0.9268 -0.1361 -0.3499
vn 0.9981 0.0569 -0.0229
vn 0.9981 -0.0578 0.0216
vn 1.0000 -0.0004 -0.0006
vn -0.9981 -0.0569 0.0229
vn -0.9981 0.0579 -0.0218
vn 0.0003 -0.3735 0.9276
vn 0.0007 0.9274 0.3740
vn -0.0004 0.3693 -0.9293
vn -0.0006 -0.9274 -0.3741
vn -0.0006 -0.9274 -0.3740
vn 0.9265 0.1395 -0.3495
vn 0.9479 0.1180 -0.2960
vn -0.9481 0.1188 -0.2950
vn -0.9267 0.1402 -0.3486
vn -0.9268 0.1403 -0.3484
vn 0.9981 0.0566 0.0225
vn 0.9981 -0.0575 -0.0235
vn 0.0007 0.9274 0.3741
vn -0.9982 -0.0564 -0.0224
vn -0.9981 0.0576 0.0234
vn -0.3676 -0.0052 0.9300
vn -0.9297 0.0026 -0.3682
vn 0.3637 0.0052 -0.9315
vn 0.9298 -0.0026 0.3682
vn 0.9297 -0.0026 0.3682
vn 0.1382 0.9285 -0.3446
vn 0.1170 0.9496 -0.2908
vn 0.1380 0.9285 -0.3447
vn 0.1156 -0.9463 -0.3018
vn 0.1368 -0.9247 -0.3553
vn 0.1369 -0.9247 -0.3553
vn -0.0567 0.9982 -0.0169
vn 0.0577 0.9979 0.0281
vn 0.0004 1.0000 0.0057
vn 0.0564 -0.9983 0.0168
vn -0.0580 -0.9979 -0.0283
vn -0.0008 -1.0000 -0.0059
vn 0.3688 -0.0055 0.9295
vn -0.9293 -0.0017 0.3692
vn -0.3649 0.0055 -0.9310
vn 0.9293 0.0017 -0.3693
vn -0.1379 0.9286 -0.3444
vn -0.1166 0.9497 -0.2906
vn -0.1378 0.9286 -0.3445
vn -0.1176 -0.9462 -0.3014
vn -0.1381 -0.9246 -0.3551
vn -0.1389 -0.9246 -0.3548
vn -0.0568 0.9980 0.0285
vn 0.0577 0.9982 -0.0170
vn 0.0004 1.0000 0.0058
vn -0.9293 -0.0017 0.3693
vn 0.0562 -0.9980 -0.0283
vn -0.0583 -0.9982 0.0163
vn -0.0009 -1.0000 -0.0056
vn -0.0018 -0.0023 -1.0000
vn -0.0018 0.0177 -0.9998
vn 0.0100 0.0091 -0.9999
vn 0.0007 -0.0023 -1.0000
vn -0.0114 -0.8130 -0.5821
vn 0.0099 -0.8131 -0.5821
vn -0.0049 -0.8193 -0.5734
vn 0.0035 -0.8193 -0.5734
vn 0.7785 -0.0058 -0.6276
vn 0.7785 0.0143 -0.6275
vn 0.7850 0.0009 -0.6195
vn 0.7850 0.0076 -0.6195
vn 0.0108 0.8153 -0.5790
vn -0.0106 0.8153 -0.5790
vn 0.0043 0.8215 -0.5702
vn -0.0042 0.8215 -0.5702
vn -0.7788 0.0153 -0.6271
vn -0.7788 -0.0048 -0.6273
vn -0.7853 0.0086 -0.6191
vn -0.7853 0.0019 -0.6191
usemtl Material.001
s 1
f 1/1/1 2/2/1 3/3/2 4/4/2
f 5/5/3 6/6/3 7/7/3 8/8/3
f 9/9/4 10/10/4 11/11/4 12/12/4
f 13/13/5 14/14/5 15/15/6 16/16/5
f 3/3/7 2/2/7 9/17/7 12/18/7
f 10/19/8 1/1/8 4/4/8 11/20/8
f 17/21/9 18/22/10 6/6/9 5/5/9
f 18/22/11 19/23/11 7/7/11 6/6/11
f 19/23/4 20/24/4 8/8/12 7/7/12
f 20/24/8 17/21/8 5/5/8 8/8/8
f 10/10/4 9/9/4 14/14/4 13/13/4
f 9/9/7 2/25/7 15/15/11 14/14/11
f 2/25/1 1/26/1 16/16/13 15/15/13
f 1/26/8 10/10/8 13/13/8 16/16/8
f 21/27/1 22/28/2 23/29/2 24/30/14
f 25/31/15 26/32/16 27/33/17 28/34/15
f 29/35/18 30/36/18 31/37/12 32/38/12
f 33/39/19 34/40/20 35/41/20 36/42/19
f 23/29/7 29/43/7 32/44/7 24/30/7
f 30/45/8 22/28/8 21/27/21 31/46/21
f 37/47/22 38/48/22 26/32/22 25/31/23
f 39/49/24 40/50/24 28/34/25 27/33/24
f 40/50/8 37/47/8 25/31/26 28/34/26
f 30/36/18 29/35/18 34/40/27 33/39/28
f 23/51/2 22/52/2 36/42/10 35/41/2
f 22/52/8 30/36/8 33/39/29 36/42/29
f 38/48/30 39/49/30 20/53/30 17/54/30
f 39/49/24 27/33/24 8/55/31 20/53/31
f 27/33/17 26/32/16 5/56/32 8/55/32
f 26/32/22 38/48/22 17/54/33 5/56/33
f 29/35/34 23/51/34 1/57/34 10/58/34
f 23/51/2 35/41/2 16/59/33 1/57/33
f 35/41/20 34/40/20 13/60/30 16/59/30
f 34/40/27 29/35/18 10/58/18 13/60/18
f 17/21/33 41/61/2 42/62/35 18/22/33
f 43/63/36 41/61/36 17/21/36 20/64/36
f 44/65/18 43/66/18 20/24/4 19/23/4
f 18/22/11 42/62/7 44/67/7 19/68/11
f 4/4/2 3/3/2 42/62/35 41/61/2
f 45/69/36 46/70/36 47/71/36 48/72/36
f 12/12/4 11/11/4 43/66/18 44/65/18
f 42/62/7 3/3/7 12/18/7 44/67/7
f 31/46/21 21/27/21 49/73/8 50/74/8
f 32/38/12 31/37/12 50/75/4 51/76/4
f 52/77/11 53/78/11 54/79/11 55/80/11
f 49/73/1 21/27/1 24/30/14 56/81/1
f 50/74/8 49/73/8 37/47/8 40/82/8
f 51/76/4 50/75/4 40/50/24 39/49/24
f 38/48/7 56/81/7 51/83/7 39/84/7
f 37/47/22 49/73/1 56/81/1 38/48/22
f 11/20/37 4/4/37 46/70/37 45/69/37
f 4/4/38 41/61/38 47/71/38 46/70/38
f 41/61/39 43/63/39 48/72/39 47/71/39
f 43/63/40 11/20/40 45/69/40 48/72/40
f 24/30/41 32/44/41 53/78/41 52/77/41
f 32/44/42 51/83/42 54/79/42 53/78/42
f 51/83/43 56/81/43 55/80/43 54/79/43
f 56/81/44 24/30/44 52/77/44 55/80/44
f 57/85/33 58/86/33 59/87/33 60/88/33 61/89/33 62/90/33 63/91/33 64/92/33 65/93/33 66/94/33 67/95/33
f 65/93/33 68/96/33 69/97/33 70/98/33 71/99/33 72/100/33 73/101/33 59/87/33 58/86/33 66/94/33
f 74/102/45 75/103/46 57/85/47 67/95/47
f 75/103/48 76/104/49 58/86/50 57/85/50
f 76/104/51 77/105/52 66/94/53 58/86/53
f 77/105/54 74/102/55 67/95/56 66/94/56
f 70/106/57 69/107/57 78/108/57 79/109/57
f 71/110/58 70/111/58 79/112/58 80/113/58
f 78/114/33 81/115/33 79/116/33
f 69/107/59 68/117/59 82/118/59 78/108/59
f 72/119/60 71/110/60 80/113/60 83/120/60
f 79/116/33 81/115/33 80/121/33
f 82/122/33 81/115/33 78/114/33
f 68/117/61 65/123/61 84/124/61 82/118/61
f 73/125/62 72/119/62 83/120/62 85/126/62
f 80/121/33 81/115/33 83/127/33
f 84/128/33 81/115/33 82/122/33
f 65/123/63 64/129/63 86/130/63 84/124/63
f 59/131/64 73/125/64 85/126/64 87/132/64
f 83/127/33 81/115/33 85/133/33
f 86/134/33 81/115/33 84/128/33
f 64/129/65 63/135/65 88/136/65 86/130/65
f 60/137/66 59/131/66 87/132/66 89/138/66
f 85/133/33 81/115/33 87/139/33
f 88/140/33 81/115/33 86/134/33
f 63/135/7 62/141/7 90/142/7 88/136/7
f 61/143/67 60/137/67 89/138/67 91/144/67
f 87/139/33 81/115/33 89/145/33
f 90/146/33 81/115/33 88/140/33
f 62/141/68 61/143/68 91/144/68 90/142/68
f 89/145/33 81/115/33 91/147/33
f 91/147/33 81/115/33 90/146/33
f 92/148/69 93/149/69 94/150/69 95/151/69
f 96/152/70 97/153/70 98/154/71 99/155/71
f 99/155/72 98/154/72 100/156/72 101/157/72
f 101/157/73 100/156/73 102/158/73 103/159/73
f 102/160/74 100/161/75 98/162/75 97/153/76
f 101/163/77 103/164/78 96/152/78 99/165/77
f 103/164/73 102/160/73 93/149/73 92/148/73
f 102/160/79 97/153/80 94/150/81 93/149/81
f 97/153/70 96/152/70 95/151/70 94/150/70
f 96/152/82 103/164/83 92/148/36 95/151/36
f 104/166/84 105/167/84 106/168/84 107/169/84
f 108/170/85 109/171/85 110/172/85 111/173/85
f 111/173/86 110/172/86 112/174/86 113/175/86
f 113/175/87 112/174/87 114/176/88 115/177/88
f 114/178/89 112/179/90 110/180/90 109/171/89
f 113/181/91 115/182/92 108/170/93 111/183/91
f 115/182/88 114/178/88 105/167/88 104/166/88
f 114/178/94 109/171/95 106/168/81 105/167/81
f 109/171/85 108/170/85 107/169/96 106/168/96
f 108/170/97 115/182/98 104/166/8 107/169/8
f 116/184/99 117/185/99 118/186/99 119/187/99
f 120/188/100 121/189/100 122/190/100 123/191/100
f 123/191/101 122/190/101 124/192/101 125/193/101
f 125/193/102 124/192/102 126/194/103 127/195/103
f 126/196/104 124/197/105 122/198/105 121/189/106
f 125/199/107 127/200/108 120/188/109 123/201/107
f 127/200/103 126/196/103 117/185/103 116/184/103
f 126/196/110 121/189/111 118/186/112 117/185/112
f 121/189/100 120/188/100 119/187/100 118/186/100
f 120/188/113 127/200/114 116/184/115 119/187/115
f 128/202/116 129/203/116 130/204/116 131/205/116
f 132/206/117 133/207/117 134/208/117 135/209/117
f 135/209/118 134/208/118 136/210/118 137/211/118
f 137/211/119 136/210/119 138/212/119 139/213/119
f 138/214/120 136/215/121 134/216/121 133/207/122
f 137/217/123 139/218/124 132/206/125 135/219/123
f 139/218/119 138/214/119 129/203/119 128/202/119
f 138/214/126 133/207/127 130/204/128 129/203/128
f 133/207/117 132/206/117 131/205/129 130/204/129
f 132/206/130 139/218/131 128/202/132 131/205/132
f 140/220/133 141/221/134 142/222/135 143/223/136
f 76/104/137 75/103/138 142/222/139 141/221/140
f 77/105/141 76/104/142 141/221/143 140/220/144
f 74/102/145 77/105/146 140/220/147 143/223/148
f 75/103/149 74/102/150 143/223/151 142/222/152
o base
v -0.266356 -1.456617 -0.392043
v -0.266348 -1.456700 -0.377405
v -0.266334 -1.427271 -0.377237
v -0.266342 -1.427186 -0.391873
v 0.272392 -1.428262 -0.377545
v 0.272378 -1.457690 -0.377713
v 0.272369 -1.457607 -0.392351
v 0.272384 -1.428178 -0.392183
v -0.223343 -1.456637 -0.392067
v -0.223334 -1.456721 -0.377429
v -0.242603 -1.456712 -0.377418
v -0.242611 -1.456628 -0.392056
v -0.223320 -1.427290 -0.377260
v -0.242589 -1.427281 -0.377249
v -0.223328 -1.427207 -0.391898
v -0.242597 -1.427197 -0.391887
v 0.229377 -1.428241 -0.377520
v 0.229363 -1.457669 -0.377689
v 0.248632 -1.457679 -0.377700
v 0.248646 -1.428250 -0.377531
v 0.229355 -1.457586 -0.392327
v 0.248624 -1.457595 -0.392338
v 0.229369 -1.428157 -0.392159
v 0.248638 -1.428166 -0.392170
v -0.242440 -1.115240 -0.375461
v -0.242448 -1.115156 -0.390100
v -0.266193 -1.115145 -0.390086
v -0.266185 -1.115228 -0.375448
v 0.248787 -1.116123 -0.390381
v 0.248795 -1.116207 -0.375743
v 0.272541 -1.116218 -0.375757
v 0.272533 -1.116134 -0.390395
v -0.242459 -1.138351 -0.390233
v -0.242451 -1.138435 -0.375595
v -0.266204 -1.138340 -0.390220
v -0.266196 -1.138423 -0.375581
v 0.248784 -1.139402 -0.375876
v 0.248776 -1.139318 -0.390514
v 0.272530 -1.139413 -0.375890
v 0.272521 -1.139330 -0.390528
vt 0.975986 0.091468
vt 0.976237 0.091468
vt 0.976237 0.093876
vt 0.975986 0.093876
vt 0.981265 0.093876
vt 0.981265 0.091468
vt 0.981516 0.091468
vt 0.981516 0.093876
vt 0.975986 0.091468
vt 0.976237 0.091468
vt 0.976237 0.091468
vt 0.975986 0.091468
vt 0.976237 0.093876
vt 0.976237 0.093876
vt 0.975986 0.093876
vt 0.975986 0.093876
vt 0.981265 0.093876
vt 0.981265 0.091468
vt 0.981265 0.091468
vt 0.981265 0.093876
vt 0.981516 0.091468
vt 0.981516 0.091468
vt 0.981516 0.093876
vt 0.981516 0.093876
vt 0.976237 0.093876
vt 0.975986 0.093876
vt 0.975986 0.093876
vt 0.976237 0.093876
vt 0.981516 0.093876
vt 0.981265 0.093876
vt 0.981265 0.093876
vt 0.981516 0.093876
vt 0.975986 0.093876
vt 0.976237 0.093876
vt 0.975986 0.093876
vt 0.976237 0.093876
vt 0.981265 0.093876
vt 0.981516 0.093876
vt 0.981265 0.093876
vt 0.981516 0.093876
vt 0.981516 0.093876
vt 0.981265 0.093876
vt 0.981265 0.093876
vt 0.981516 0.093876
vn -1.0000 0.0005 0.0006
vn 1.0000 -0.0005 -0.0006
vn -0.0005 -1.0000 -0.0057
vn 0.0006 -0.0057 1.0000
vn 0.0005 1.0000 0.0057
vn -0.0006 0.0058 -1.0000
vn -0.0006 0.0057 -1.0000
vn 0.0005 -0.0057 1.0000
vn 0.0016 1.0000 0.0061
vn 0.0015 1.0000 0.0051
vn 0.0006 -0.0058 1.0000
vn -0.0020 -1.0000 -0.0057
vn 0.0020 1.0000 0.0057
usemtl Material.001
s 1
f 144/224/153 145/225/153 146/226/153 147/227/153
f 148/228/154 149/229/154 150/230/154 151/231/154
f 152/232/155 153/233/155 154/234/155 155/235/155
f 153/233/156 156/236/156 157/237/156 154/234/156
f 156/236/157 158/238/157 159/239/157 157/237/157
f 158/238/158 152/232/158 155/235/158 159/239/159
f 160/240/156 161/241/156 162/242/156 163/243/156
f 161/241/155 164/244/155 165/245/155 162/242/155
f 164/244/159 166/246/159 167/247/159 165/245/159
f 166/246/157 160/240/157 163/243/157 167/247/157
f 155/235/155 154/234/155 145/225/155 144/224/155
f 154/234/156 157/237/156 146/226/160 145/225/160
f 168/248/157 169/249/157 170/250/157 171/251/157
f 159/239/159 155/235/158 144/224/158 147/227/159
f 163/243/156 162/242/156 149/229/156 148/228/156
f 162/242/155 165/245/155 150/230/155 149/229/155
f 165/245/159 167/247/159 151/231/159 150/230/159
f 172/252/161 173/253/162 174/254/157 175/255/157
f 157/237/154 159/239/154 176/256/154 177/257/154
f 159/239/159 147/227/159 178/258/159 176/256/159
f 147/227/153 146/226/153 179/259/153 178/258/153
f 146/226/160 157/237/156 177/257/160 179/259/160
f 167/247/153 163/243/153 180/260/153 181/261/153
f 163/243/156 148/228/156 182/262/156 180/260/156
f 148/228/154 151/231/154 183/263/154 182/262/154
f 151/231/159 167/247/159 181/261/159 183/263/159
f 176/256/158 178/258/158 170/250/158 169/249/158
f 178/258/153 179/259/153 171/251/153 170/250/153
f 179/259/160 177/257/160 168/248/163 171/251/163
f 176/264/153 177/265/153 168/266/153 169/267/153
f 180/260/156 182/262/156 174/254/156 173/253/156
f 182/262/154 183/263/154 175/255/154 174/254/154
f 183/263/159 181/261/159 172/252/159 175/255/159
f 181/261/164 180/260/164 177/265/164 176/264/164
f 180/260/156 173/253/156 168/266/163 177/265/163
f 173/253/162 172/252/161 169/267/165 168/266/165
f 172/252/159 181/261/159 176/264/159 169/267/159
