# Blender v3.6.3 OBJ File: 'untitled.blend'
# www.blender.org
mtllib radio.mtl
o Cube_Cube.001
v 0.000000 1.977677 0.311110
v -0.386036 -2.060890 0.604053
v 0.131213 1.977677 0.386866
v -0.386036 -2.060890 -0.604053
v 0.386036 -2.060890 0.604053
v 0.131213 1.977677 0.538377
v 0.386036 -2.060890 -0.604053
v 0.000000 1.977677 0.614133
v -0.131213 1.977677 0.538377
v -0.267000 1.325136 1.000000
v -0.131213 1.977677 0.386866
v 0.549859 1.271800 -0.876505
v 0.267000 1.325136 1.000000
v -0.267000 2.009135 1.000000
v 0.549859 2.062472 -0.876505
v 0.267000 2.009135 1.000000
v 0.549859 2.062472 0.876505
v 0.549859 1.271800 0.876505
v 0.267000 2.009135 1.040532
v 0.267000 1.325136 1.040532
v -0.267000 1.325136 1.040532
v -0.267000 2.009135 1.040532
v 0.549859 2.175313 -1.000000
v 0.549859 1.158959 -1.000000
v 0.549859 2.175313 1.000000
v 0.515098 2.062472 -0.876505
v 0.515098 1.271800 -0.876505
v 0.515098 2.062472 0.876505
v 0.515098 1.271800 0.876505
v 0.549859 1.497743 1.000000
v 0.267000 1.730452 1.000000
v 0.267000 1.603819 1.000000
v -0.267000 1.603819 1.000000
v -0.267000 1.730452 1.000000
v 0.267000 1.730452 1.040532
v 0.267000 1.603819 1.040532
v -0.267000 1.603819 1.040532
v -0.267000 1.730452 1.040532
v 0.549859 1.798914 -0.876505
v 0.549859 1.535357 -0.876505
v 0.549859 1.798914 0.876505
v 0.549859 1.535357 0.876505
v 0.515098 1.798914 -0.876505
v 0.515098 1.535357 -0.876505
v 0.515098 1.798914 0.876505
v 0.515098 1.535357 0.876505
v -0.131213 2.317918 0.538377
v 0.000000 2.317918 0.614133
v -0.131213 2.317918 0.386866
v 0.000000 2.317918 0.311110
v 0.131213 2.317918 0.386866
v 0.131213 2.317918 0.538377
v 0.189392 4.401393 -0.956157
v -0.000000 4.380586 -1.031796
v -0.000000 2.241884 -0.863291
v -0.134804 4.467639 -0.917765
v 0.189392 2.241884 -0.784842
v -0.190642 4.503395 -0.787789
v 0.267841 2.241884 -0.595449
v -0.134804 4.539150 -0.657814
v 0.189392 2.241884 -0.406057
v -0.000000 4.553961 -0.603976
v -0.000000 2.241884 -0.327608
v 0.134804 4.539150 -0.657814
v -0.189392 2.241884 -0.406057
v 0.190642 4.503395 -0.787789
v -0.267841 2.241884 -0.595449
v -0.000000 4.452829 -0.971603
v -0.189392 2.241884 -0.784842
v 0.134804 4.467639 -0.917765
v 0.267841 4.451628 -0.773548
v 0.189392 4.501863 -0.590940
v -0.000000 4.522671 -0.515301
v -0.189393 4.501863 -0.590940
v -0.267842 4.451628 -0.773548
v -0.189393 4.401393 -0.956157
v -0.000000 3.025406 -0.863291
v -0.000000 3.828953 -0.933172
v 0.189392 3.829572 -0.854464
v 0.189392 3.025406 -0.784842
v 0.267841 3.830217 -0.664355
v 0.267841 3.025406 -0.595449
v 0.189392 3.830139 -0.474195
v 0.189392 3.025406 -0.406057
v -0.000000 3.830057 -0.395441
v -0.000000 3.025406 -0.327608
v -0.189393 3.830139 -0.474195
v -0.189392 3.025406 -0.406057
v -0.267841 3.830217 -0.664355
v -0.267841 3.025406 -0.595449
v -0.189393 3.829572 -0.854464
v -0.189392 3.025406 -0.784842
v 0.389329 -0.828132 0.828133
v 0.583229 -0.828132 0.828133
v 0.389329 -0.310550 0.828133
v 0.583229 -0.310550 0.828133
v 0.389329 -0.828132 0.310550
v 0.583229 -0.828132 0.310550
v 0.389329 -0.310550 0.310550
v 0.583229 -0.310550 0.310550
v 0.389329 -0.258791 0.828133
v 0.583229 -0.258791 0.828133
v 0.389329 0.258792 0.828133
v 0.583229 0.258792 0.828133
v 0.389329 -0.258791 0.310550
v 0.583229 -0.258791 0.310550
v 0.389329 0.258792 0.310550
v 0.583229 0.258792 0.310550
v 0.389329 0.310550 0.828133
v 0.583229 0.310550 0.828133
v 0.389329 0.828133 0.828133
v 0.583229 0.828133 0.828133
v 0.389329 0.310550 0.310550
v 0.583229 0.310550 0.310550
v 0.389329 0.828133 0.310550
v 0.583229 0.828133 0.310550
v 0.389329 -0.828132 0.258791
v 0.583229 -0.828132 0.258791
v 0.389329 -0.310550 0.258791
v 0.583229 -0.310550 0.258791
v 0.389329 -0.828132 -0.258791
v 0.583229 -0.828132 -0.258791
v 0.389329 -0.310550 -0.258791
v 0.583229 -0.310550 -0.258791
v 0.389329 -0.258791 0.258791
v 0.583229 -0.258791 0.258791
v 0.389329 0.258792 0.258791
v 0.583229 0.258792 0.258791
v 0.389329 -0.258791 -0.258791
v 0.583229 -0.258791 -0.258791
v 0.389329 0.258792 -0.258791
v 0.583229 0.258792 -0.258791
v 0.389329 0.310550 0.258791
v 0.583229 0.310550 0.258791
v 0.389329 0.828133 0.258791
v 0.583229 0.828133 0.258791
v 0.389329 0.310550 -0.258791
v 0.583229 0.310550 -0.258791
v 0.389329 0.828133 -0.258791
v 0.583229 0.828133 -0.258791
v 0.389329 -0.828132 -0.310550
v 0.583229 -0.828132 -0.310550
v 0.389329 -0.310550 -0.310550
v 0.583229 -0.310550 -0.310550
v 0.389329 -0.828132 -0.828133
v 0.583229 -0.828132 -0.828133
v 0.389329 -0.310550 -0.828133
v 0.583229 -0.310550 -0.828133
v 0.389329 -0.258791 -0.310550
v 0.583229 -0.258791 -0.310550
v 0.389329 0.258792 -0.310550
v 0.583229 0.258792 -0.310550
v 0.389329 -0.258791 -0.828133
v 0.583229 -0.258791 -0.828133
v 0.389329 0.258792 -0.828133
v 0.583229 0.258792 -0.828133
v 0.389329 0.310550 -0.310550
v 0.583229 0.310550 -0.310550
v 0.389329 0.828133 -0.310550
v 0.583229 0.828133 -0.310550
v 0.389329 0.310550 -0.828133
v 0.583229 0.310550 -0.828133
v 0.389329 0.828133 -0.828133
v 0.583229 0.828133 -0.828133
v 0.389329 -1.778056 0.828133
v 0.583229 -1.778056 0.828133
v 0.389329 -1.260473 0.828133
v 0.583229 -1.260473 0.828133
v 0.389329 -1.778056 0.310550
v 0.583229 -1.778056 0.310550
v 0.389329 -1.260473 0.310550
v 0.583229 -1.260473 0.310550
v 0.389329 -1.778056 0.258791
v 0.583229 -1.778056 0.258791
v 0.389329 -1.260473 0.258791
v 0.583229 -1.260473 0.258791
v 0.389329 -1.778056 -0.258791
v 0.583229 -1.778056 -0.258791
v 0.389329 -1.260473 -0.258791
v 0.583229 -1.260473 -0.258791
v 0.389329 -1.778056 -0.310550
v 0.583229 -1.778056 -0.310550
v 0.389329 -1.260473 -0.310550
v 0.583229 -1.260473 -0.310550
v 0.389329 -1.778056 -0.828133
v 0.583229 -1.778056 -0.828133
v 0.389329 -1.260473 -0.828133
v 0.583229 -1.260473 -0.828133
v 0.386036 -2.317918 0.835107
v 0.386036 -2.317918 -0.835107
v -0.386036 -2.317918 0.835107
v -0.386036 -2.317918 -0.835107
v -0.530641 -2.317918 0.980657
v -0.549859 -2.273082 1.000000
v -0.549859 -2.317918 0.980657
v -0.544230 -2.304786 0.994335
v -0.549859 2.273082 1.000000
v -0.532317 2.317918 0.980657
v -0.549859 2.317918 0.980657
v -0.544721 2.304786 0.994335
v -0.549859 -2.273082 -1.000000
v -0.530641 -2.317918 -0.980657
v -0.549859 -2.317918 -0.980657
v -0.544230 -2.304786 -0.994335
v -0.549859 2.317918 -0.980657
v -0.549859 2.273082 -1.000000
v -0.549859 2.304786 -0.994335
v 0.549859 -2.273082 1.000000
v 0.549859 -2.317918 0.980657
v 0.549859 -2.304786 0.994335
v 0.532317 2.317918 0.980657
v 0.549859 2.273082 1.000000
v 0.549859 2.317918 0.980657
v 0.544721 2.304786 0.994335
v 0.549859 -2.317918 -0.980657
v 0.549859 -2.273082 -1.000000
v 0.549859 -2.304786 -0.994335
v 0.549859 2.273082 -1.000000
v 0.549859 2.317918 -0.980657
v 0.549859 2.304786 -0.994335
vt 0.286075 0.622765
vt 0.286075 0.773966
vt 0.279765 0.773966
vt 0.279765 0.622765
vt 0.261062 0.773966
vt 0.242360 0.773966
vt 0.242360 0.622765
vt 0.261062 0.622765
vt 0.311303 0.622765
vt 0.311303 0.641484
vt 0.304993 0.641484
vt 0.304993 0.622765
vt 0.304993 0.678921
vt 0.304993 0.660203
vt 0.311303 0.660203
vt 0.311303 0.678921
vt 0.298689 0.622765
vt 0.298689 0.773966
vt 0.292386 0.773966
vt 0.292386 0.622765
vt 0.017703 0.895694
vt 0.000000 0.895694
vt -0.000000 0.622765
vt 0.017703 0.622765
vt 0.035406 0.622765
vt 0.053108 0.622765
vt 0.053108 0.895694
vt 0.035406 0.895694
vt 0.304993 0.697640
vt 0.304993 0.678921
vt 0.311303 0.678921
vt 0.311303 0.697640
vt 0.311303 0.641484
vt 0.311303 0.660203
vt 0.304993 0.660203
vt 0.304993 0.641484
vt 0.292386 0.622765
vt 0.292386 0.773966
vt 0.286075 0.773966
vt 0.286075 0.622765
vt 0.261062 0.773966
vt 0.261062 0.622765
vt 0.298689 0.622765
vt 0.304993 0.773966
vt 0.298689 0.773966
vt 0.532242 0.931736
vt 0.532242 0.986638
vt 0.497507 0.986638
vt 0.497507 0.931736
vt 0.686077 0.783931
vt 0.740980 0.783931
vt 0.740980 0.864429
vt 0.686077 0.864429
vt 0.401010 0.938210
vt 0.401010 0.993112
vt 0.366285 0.993112
vt 0.366285 0.938210
vt 0.795882 0.703348
vt 0.740980 0.703348
vt 0.740980 0.622765
vt 0.795882 0.622765
vt 0.196989 0.941995
vt 0.196989 0.861411
vt 0.231755 0.861411
vt 0.231755 0.941995
vt 0.720843 0.945012
vt 0.720843 0.864429
vt 0.755608 0.864429
vt 0.755608 0.945012
vt 0.975187 0.838834
vt 0.975187 0.893736
vt 0.940452 0.893736
vt 0.940452 0.838834
vt 0.850784 0.783761
vt 0.905686 0.783761
vt 0.905686 0.864259
vt 0.850784 0.864259
vt 0.790334 0.945012
vt 0.790334 0.999915
vt 0.755608 0.999915
vt 0.755608 0.945012
vt 0.552409 0.851238
vt 0.497507 0.851238
vt 0.497507 0.770655
vt 0.552409 0.770655
vt 0.933549 0.391966
vt 0.933549 0.311383
vt 0.968315 0.311383
vt 0.968315 0.391966
vt 0.933549 0.472549
vt 0.933549 0.391966
vt 0.968315 0.391966
vt 0.968315 0.472549
vt 0.488105 0.931963
vt 0.488105 0.986865
vt 0.453370 0.986865
vt 0.453370 0.931963
vt 0.162224 0.780914
vt 0.217126 0.780914
vt 0.217126 0.861411
vt 0.162224 0.861411
vt 0.196989 0.996897
vt 0.196989 0.941994
vt 0.231715 0.941994
vt 0.231715 0.996897
vt 0.795882 0.783931
vt 0.740980 0.783931
vt 0.740980 0.703348
vt 0.795882 0.703348
vt 0.755608 0.945012
vt 0.755608 0.864429
vt 0.790374 0.864429
vt 0.790374 0.945012
vt 0.107322 0.942080
vt 0.107322 0.861497
vt 0.142087 0.861497
vt 0.142087 0.942080
vt 0.975187 0.893736
vt 0.975187 0.948638
vt 0.940452 0.948638
vt 0.940452 0.893736
vt 0.740980 0.783931
vt 0.795882 0.783931
vt 0.795882 0.864429
vt 0.740980 0.864429
vt 0.277085 0.935047
vt 0.277085 0.989949
vt 0.242360 0.989949
vt 0.242360 0.935047
vt 0.740980 0.703348
vt 0.686078 0.703348
vt 0.686078 0.622765
vt 0.740980 0.622765
vt 0.850784 0.944842
vt 0.850784 0.864258
vt 0.885549 0.864258
vt 0.885549 0.944842
vt 0.905686 0.703348
vt 0.905686 0.622765
vt 0.940452 0.622765
vt 0.940452 0.703348
vt 0.566978 0.931736
vt 0.566978 0.986638
vt 0.532242 0.986638
vt 0.532242 0.931736
vt 0.578825 0.849512
vt 0.633728 0.849512
vt 0.633728 0.930010
vt 0.578825 0.930010
vt 0.196949 0.941994
vt 0.196949 0.996897
vt 0.162224 0.996897
vt 0.162224 0.941994
vt 0.633728 0.849512
vt 0.578825 0.849512
vt 0.578825 0.768929
vt 0.633728 0.768929
vt 0.790373 0.945012
vt 0.790373 0.864429
vt 0.825139 0.864429
vt 0.825139 0.945012
vt 0.905686 0.945098
vt 0.905686 0.864515
vt 0.940451 0.864515
vt 0.940452 0.945098
vt 0.668463 0.930095
vt 0.668463 0.984997
vt 0.633728 0.984997
vt 0.633728 0.930095
vt 0.795882 0.783931
vt 0.850784 0.783931
vt 0.850784 0.864429
vt 0.795882 0.864429
vt 0.790374 0.999914
vt 0.790374 0.945012
vt 0.825099 0.945012
vt 0.825099 0.999914
vt 0.473537 0.851466
vt 0.418635 0.851466
vt 0.418635 0.770882
vt 0.473537 0.770882
vt 0.905686 0.783932
vt 0.905686 0.703348
vt 0.940452 0.703348
vt 0.940452 0.783932
vt 0.686077 0.945012
vt 0.686077 0.864429
vt 0.720843 0.864429
vt 0.720843 0.945012
vt 0.968285 0.553132
vt 0.968285 0.608034
vt 0.933549 0.608034
vt 0.933549 0.553132
vt 0.497507 0.851238
vt 0.552409 0.851238
vt 0.552409 0.931736
vt 0.497507 0.931736
vt 0.850784 0.999744
vt 0.850784 0.944842
vt 0.885509 0.944842
vt 0.885509 0.999744
vt 0.297262 0.854549
vt 0.242360 0.854549
vt 0.242360 0.773966
vt 0.297262 0.773966
vt 0.933549 0.472549
vt 0.968315 0.472549
vt 0.905686 0.864515
vt 0.905686 0.783931
vt 0.940452 0.783931
vt 0.940452 0.864515
vt 0.613561 0.930010
vt 0.613561 0.984912
vt 0.578825 0.984912
vt 0.578825 0.930010
vt 0.850784 0.622765
vt 0.905686 0.622765
vt 0.905686 0.703263
vt 0.850784 0.703263
vt 0.311383 0.993027
vt 0.311383 0.938124
vt 0.346108 0.938124
vt 0.346108 0.993027
vt 0.740980 0.783931
vt 0.686078 0.783931
vt 0.686078 0.703348
vt 0.740980 0.703348
vt 0.933789 0.080583
vt 0.933789 -0.000000
vt 0.968555 -0.000000
vt 0.968555 0.080583
vt 0.933789 0.161166
vt 0.933789 0.080583
vt 0.968555 0.080583
vt 0.968555 0.161166
vt 0.453370 0.931963
vt 0.453370 0.986865
vt 0.418635 0.986865
vt 0.418635 0.931963
vt 0.418635 0.851466
vt 0.473537 0.851466
vt 0.473537 0.931963
vt 0.418635 0.931963
vt 0.107322 0.996982
vt 0.107322 0.942080
vt 0.142047 0.942080
vt 0.142047 0.996982
vt 0.850784 0.703348
vt 0.795882 0.703348
vt 0.795882 0.622765
vt 0.850784 0.622765
vt 0.162224 0.941994
vt 0.162224 0.861411
vt 0.196989 0.861411
vt 0.196989 0.941994
vt 0.933789 0.241749
vt 0.933789 0.161166
vt 0.968555 0.161166
vt 0.968555 0.241749
vt 0.097686 0.895404
vt 0.097686 0.950307
vt 0.062951 0.950307
vt 0.062951 0.895404
vt 0.242360 0.854549
vt 0.297262 0.854549
vt 0.297262 0.935047
vt 0.242360 0.935047
vt 0.905686 1.000000
vt 0.905686 0.945098
vt 0.940412 0.945098
vt 0.940412 1.000000
vt 0.366285 0.857627
vt 0.311383 0.857627
vt 0.311383 0.777043
vt 0.366285 0.777043
vt 0.633728 0.849512
vt 0.633728 0.768929
vt 0.668493 0.768929
vt 0.668493 0.849512
vt 0.366285 0.857627
vt 0.366285 0.777043
vt 0.401050 0.777043
vt 0.401050 0.857627
vt 0.968525 0.241750
vt 0.968525 0.296652
vt 0.933789 0.296652
vt 0.933789 0.241750
vt 0.311383 0.857627
vt 0.366285 0.857627
vt 0.366285 0.938124
vt 0.311383 0.938124
vt 0.686078 0.999915
vt 0.686078 0.945012
vt 0.720803 0.945012
vt 0.720803 0.999915
vt 0.162224 0.861497
vt 0.107322 0.861497
vt 0.107322 0.780914
vt 0.162224 0.780914
vt 0.940452 0.703348
vt 0.940452 0.622765
vt 0.975217 0.622765
vt 0.975217 0.703348
vt 0.940452 0.783931
vt 0.940452 0.703348
vt 0.975217 0.703348
vt 0.975217 0.783931
vt 0.975187 0.783931
vt 0.975187 0.838834
vt 0.940452 0.838834
vt 0.940452 0.783931
vt 0.850784 0.703263
vt 0.905686 0.703263
vt 0.905686 0.783761
vt 0.850784 0.783761
vt 0.720843 0.999915
vt 0.720843 0.945012
vt 0.755568 0.945012
vt 0.755568 0.999915
vt 0.850784 0.783931
vt 0.795882 0.783931
vt 0.795882 0.703348
vt 0.850784 0.703348
vt 0.633728 0.930095
vt 0.633728 0.849512
vt 0.668493 0.849512
vt 0.668493 0.930095
vt 0.366285 0.938210
vt 0.366285 0.857627
vt 0.401050 0.857627
vt 0.401050 0.938210
vt 0.311383 0.366473
vt 0.311383 0.619754
vt 0.310501 0.621883
vt 0.308371 0.622765
vt 0.003012 0.622765
vt 0.000882 0.621883
vt 0.000000 0.619754
vt 0.000000 0.389228
vt 0.019227 0.381649
vt 0.292156 0.381649
vt 0.292156 0.363946
vt 0.292156 0.346243
vt 0.292156 0.328541
vt 0.019227 0.328541
vt 0.000000 0.320961
vt 0.000000 0.314394
vt 0.000882 0.312265
vt 0.003012 0.311383
vt 0.308371 0.311383
vt 0.311383 0.314394
vt 0.311383 0.320961
vt 0.264997 0.025672
vt 0.046386 0.025672
vt 0.046386 0.285710
vt 0.264997 0.285710
vt 0.305941 0.308371
vt 0.000000 0.308371
vt 0.000000 0.003012
vt 0.305941 0.003012
vt 0.311383 0.308371
vt 0.311383 0.003012
vt 0.930541 0.311383
vt 0.930541 0.316350
vt 0.861755 0.429921
vt 0.838191 0.429921
vt 0.826409 0.467074
vt 0.838191 0.504227
vt 0.861755 0.504227
vt 0.930541 0.617798
vt 0.930541 0.622765
vt 0.625505 0.622765
vt 0.625505 0.311383
vt 0.619488 0.622765
vt 0.366425 0.622765
vt 0.359306 0.542674
vt 0.378009 0.542674
vt 0.378009 0.391473
vt 0.359306 0.391473
vt 0.350808 0.391473
vt 0.332105 0.391473
vt 0.332105 0.542674
vt 0.320953 0.622765
vt 0.314392 0.622765
vt 0.314392 0.311383
vt 0.619488 0.311383
vt 0.625773 0.311383
vt 0.625773 0.000000
vt 0.632333 0.000000
vt 0.700521 0.000000
vt 0.930781 -0.000000
vt 0.930781 0.311383
vt 0.873537 0.467074
vt 0.072793 0.622765
vt 0.072793 0.895404
vt 0.062951 0.895404
vt 0.062951 0.622765
vt 0.668493 0.786616
vt 0.668493 0.768929
vt 0.678335 0.768929
vt 0.678335 0.786616
vt 0.053108 0.895694
vt 0.053108 0.622765
vt 0.062951 0.622765
vt 0.062951 0.895694
vt 0.307104 0.809331
vt 0.307104 0.827013
vt 0.297262 0.827013
vt 0.297262 0.809331
vt 0.307104 0.773966
vt 0.307104 0.791648
vt 0.297262 0.791648
vt 0.297262 0.773966
vt 0.668493 0.821991
vt 0.668493 0.804304
vt 0.678335 0.804304
vt 0.678335 0.821991
vt 0.019227 0.346243
vt 0.019227 0.363946
vt 0.350808 0.542674
vt 0.496860 0.808035
vt 0.474026 0.808035
vt 0.473537 0.770882
vt 0.496371 0.770882
vt 0.239980 0.780914
vt 0.239980 0.804503
vt 0.217126 0.804503
vt 0.217126 0.780914
vt 0.575236 0.770655
vt 0.575802 0.807808
vt 0.552975 0.807808
vt 0.552409 0.770655
vt 0.575236 0.844960
vt 0.552409 0.844960
vt 0.217126 0.804503
vt 0.239980 0.804503
vt 0.239980 0.828092
vt 0.217126 0.828092
vt 0.496371 0.845188
vt 0.473537 0.845188
vt -0.000000 0.941793
vt -0.000000 0.902817
vt 0.022462 0.895694
vt 0.044923 0.927547
vt 0.044923 0.966523
vt 0.022462 0.973646
vt 0.365009 0.777043
vt 0.365009 0.724461
vt 0.418635 0.723954
vt 0.418635 0.776536
vt 0.578825 0.768929
vt 0.578825 0.716361
vt 0.632451 0.715775
vt 0.632451 0.768343
vt 0.686078 0.716361
vt 0.686078 0.768929
vt 0.212584 0.668714
vt 0.183466 0.663404
vt 0.174841 0.622765
vt 0.203413 0.624588
vt 0.311383 0.776536
vt 0.311383 0.723954
vt 0.241701 0.674073
vt 0.231985 0.626411
vt 0.145840 0.775581
vt 0.136322 0.723821
vt 0.165323 0.718488
vt 0.174841 0.770248
vt 0.418635 0.669507
vt 0.365009 0.670022
vt 0.365009 0.622765
vt 0.418635 0.623673
vt 0.311383 0.669507
vt 0.311383 0.623673
vt 0.116840 0.780914
vt 0.107322 0.729153
vt 0.632451 0.661343
vt 0.578825 0.661889
vt 0.578825 0.622765
vt 0.632451 0.623596
vt 0.137097 0.668714
vt 0.107980 0.674073
vt 0.117697 0.626411
vt 0.146269 0.624588
vt 0.166215 0.663404
vt 0.174841 0.622765
vt 0.497507 0.650607
vt 0.497507 0.705522
vt 0.488147 0.703458
vt 0.488147 0.664371
vt 0.471704 0.738918
vt 0.448451 0.749979
vt 0.432008 0.730162
vt 0.432008 0.691075
vt 0.448451 0.655615
vt 0.471704 0.644553
vt 0.203841 0.775581
vt 0.213359 0.723821
vt 0.242360 0.729153
vt 0.232842 0.780914
vt 0.174841 0.770248
vt 0.184358 0.718488
vt 0.578825 0.650971
vt 0.578825 0.705971
vt 0.555008 0.755545
vt 0.521324 0.770655
vt 0.497507 0.742449
vt 0.497507 0.687450
vt 0.521324 0.637875
vt 0.555008 0.622765
vt 0.686077 0.661889
vt 0.686077 0.622765
vt 0.418635 0.688125
vt 0.441736 0.638306
vt 0.474406 0.622765
vt 0.474406 0.755342
vt 0.441736 0.770882
vt 0.418635 0.743040
vt 0.090058 0.622765
vt 0.090058 0.882803
vt 0.072793 0.846830
vt 0.072793 0.658738
vt 0.264997 0.249737
vt 0.046386 0.249737
vt 0.107322 0.622765
vt 0.107322 0.882803
vt 0.090058 0.846830
vt 0.090058 0.658738
vt 0.264997 0.061646
vt 0.046386 0.061646
vt 0.309789 0.000882
vt 0.311383 0.000000
vt 0.311383 0.312837
vt 0.311383 0.311383
vt 0.311383 0.316350
vt 0.311383 0.311383
vt 0.309789 0.310501
vt 0.311383 0.617798
vt 0.311383 0.621310
vt 0.311383 0.622765
vt 0.000000 0.000000
vt 0.309789 0.000000
vt 0.622497 0.312976
vt 0.622497 0.622765
vt 0.933789 -0.000000
vt 0.933789 0.309789
vt 0.309789 0.311383
vt 0.000000 0.311383
vt 0.933549 0.312837
vt 0.933550 0.621310
vt 0.622497 0.622765
vt 0.622497 0.311383
vt 0.622765 0.311383
vt 0.622765 0.000000
vt 0.622765 0.308371
vt 0.619754 0.311383
vt 0.311383 0.308371
vt 0.311383 0.003012
vt 0.312265 0.000882
vt 0.314394 -0.000000
vt 0.619754 -0.000000
vt 0.622765 0.003012
vn 0.0000 -1.0000 0.0000
vn 0.0000 0.0000 1.0000
vn -1.0000 0.0000 0.0000
vn 1.0000 0.0000 0.0000
vn 0.0000 1.0000 0.0000
vn 0.0000 0.0000 -1.0000
vn -0.5000 0.0000 0.8660
vn -0.5000 0.0000 -0.8660
vn 0.5000 0.0000 -0.8660
vn 0.5000 0.0000 0.8660
vn -0.3827 0.0000 0.9239
vn -0.3827 0.0000 -0.9239
vn 0.3827 0.0000 -0.9239
vn 0.9228 -0.0670 -0.3793
vn 0.3827 0.0000 0.9239
vn 0.9228 0.0663 0.3795
vn -0.9239 0.0000 -0.3827
vn -0.3801 0.1580 0.9113
vn 0.3801 0.1580 0.9113
vn -0.9239 0.0000 0.3827
vn -0.3802 -0.1624 -0.9105
vn -0.9228 0.0663 0.3795
vn -0.9228 -0.0670 -0.3793
vn 0.2302 0.6229 -0.7476
vn 0.0000 0.9642 -0.2652
vn 0.9239 0.0000 0.3827
vn 0.9239 0.0000 -0.3827
vn 0.3821 -0.0799 -0.9207
vn 0.9237 -0.0329 -0.3818
vn 0.9237 0.0325 0.3818
vn 0.3821 0.0778 0.9208
vn -0.3821 0.0778 0.9208
vn -0.9237 0.0325 0.3818
vn -0.9237 -0.0329 -0.3818
vn -0.3821 -0.0799 -0.9207
vn 0.3802 -0.1624 -0.9105
vn 0.2302 0.9177 0.3238
vn 0.5556 0.8314 0.0100
vn -0.2302 0.6229 -0.7476
vn -0.5556 0.8314 0.0100
vn 0.5556 0.7093 -0.4338
vn -0.5556 0.7093 -0.4338
vn -0.2302 0.9177 0.3238
vn 0.0000 -0.6685 0.7437
vn 0.0000 -0.6685 -0.7437
vn 0.0000 -0.7213 0.6926
vn -0.7942 -0.2407 0.5579
vn -0.8198 0.2268 0.5258
vn 0.0000 0.7213 0.6926
vn -0.7942 -0.2407 -0.5579
vn 0.0000 -0.7213 -0.6926
vn 0.8198 0.2268 0.5258
vn 0.0000 -0.1759 0.9844
vn 0.0000 -0.1759 -0.9844
vn 0.0000 0.1759 0.9844
vn 0.0000 0.7213 -0.6926
vn 0.0000 0.1759 -0.9844
usemtl Material.001
s off
f 10/1/1 13/2/1 20/3/1 21/4/1
f 35/5/2 19/6/2 22/7/2 38/8/2
f 33/9/3 10/10/3 21/11/3 37/12/3
f 31/13/4 16/14/4 19/15/4 35/16/4
f 16/17/5 14/18/5 22/19/5 19/20/5
f 43/21/4 26/22/4 28/23/4 45/24/4 46/25/4 29/26/4 27/27/4 44/28/4
f 13/29/4 32/30/4 36/31/4 20/32/4
f 14/33/3 34/34/3 38/35/3 22/36/3
f 34/37/1 31/38/1 35/39/1 38/40/1
f 20/3/2 36/41/2 37/42/2 21/4/2
f 33/43/5 37/12/5 36/44/5 32/45/5
f 93/46/2 94/47/2 96/48/2 95/49/2
f 95/50/5 96/51/5 100/52/5 99/53/5
f 99/54/6 100/55/6 98/56/6 97/57/6
f 97/58/1 98/59/1 94/60/1 93/61/1
f 95/62/3 99/63/3 97/64/3 93/65/3
f 100/66/4 96/67/4 94/68/4 98/69/4
f 101/70/2 102/71/2 104/72/2 103/73/2
f 103/74/5 104/75/5 108/76/5 107/77/5
f 107/78/6 108/79/6 106/80/6 105/81/6
f 105/82/1 106/83/1 102/84/1 101/85/1
f 103/86/3 107/87/3 105/88/3 101/89/3
f 108/90/4 104/91/4 102/92/4 106/93/4
f 109/94/2 110/95/2 112/96/2 111/97/2
f 111/98/5 112/99/5 116/100/5 115/101/5
f 115/102/6 116/103/6 114/104/6 113/105/6
f 113/106/1 114/107/1 110/108/1 109/109/1
f 111/110/3 115/111/3 113/112/3 109/113/3
f 116/114/4 112/115/4 110/116/4 114/117/4
f 117/118/2 118/119/2 120/120/2 119/121/2
f 119/122/5 120/123/5 124/124/5 123/125/5
f 123/126/6 124/127/6 122/128/6 121/129/6
f 121/130/1 122/131/1 118/132/1 117/133/1
f 119/134/3 123/135/3 121/136/3 117/137/3
f 124/138/4 120/139/4 118/140/4 122/141/4
f 125/142/2 126/143/2 128/144/2 127/145/2
f 127/146/5 128/147/5 132/148/5 131/149/5
f 131/150/6 132/151/6 130/152/6 129/153/6
f 129/154/1 130/155/1 126/156/1 125/157/1
f 127/158/3 131/159/3 129/160/3 125/161/3
f 132/162/4 128/163/4 126/164/4 130/165/4
f 133/166/2 134/167/2 136/168/2 135/169/2
f 135/170/5 136/171/5 140/172/5 139/173/5
f 139/174/6 140/175/6 138/176/6 137/177/6
f 137/178/1 138/179/1 134/180/1 133/181/1
f 135/182/3 139/183/3 137/184/3 133/185/3
f 140/186/4 136/187/4 134/188/4 138/189/4
f 141/190/2 142/191/2 144/192/2 143/193/2
f 143/194/5 144/195/5 148/196/5 147/197/5
f 147/198/6 148/199/6 146/200/6 145/201/6
f 145/202/1 146/203/1 142/204/1 141/205/1
f 143/193/3 147/206/3 145/207/3 141/190/3
f 148/208/4 144/209/4 142/210/4 146/211/4
f 149/212/2 150/213/2 152/214/2 151/215/2
f 151/216/5 152/217/5 156/218/5 155/219/5
f 155/220/6 156/221/6 154/222/6 153/223/6
f 153/224/1 154/225/1 150/226/1 149/227/1
f 151/228/3 155/229/3 153/230/3 149/231/3
f 156/232/4 152/233/4 150/234/4 154/235/4
f 157/236/2 158/237/2 160/238/2 159/239/2
f 159/240/5 160/241/5 164/242/5 163/243/5
f 163/244/6 164/245/6 162/246/6 161/247/6
f 161/248/1 162/249/1 158/250/1 157/251/1
f 159/252/3 163/253/3 161/254/3 157/255/3
f 164/256/4 160/257/4 158/258/4 162/259/4
f 165/260/2 166/261/2 168/262/2 167/263/2
f 167/264/5 168/265/5 172/266/5 171/267/5
f 171/268/6 172/269/6 170/270/6 169/271/6
f 169/272/1 170/273/1 166/274/1 165/275/1
f 167/276/3 171/277/3 169/278/3 165/279/3
f 172/280/4 168/281/4 166/282/4 170/283/4
f 173/284/2 174/285/2 176/286/2 175/287/2
f 175/288/5 176/289/5 180/290/5 179/291/5
f 179/292/6 180/293/6 178/294/6 177/295/6
f 177/296/1 178/297/1 174/298/1 173/299/1
f 175/300/3 179/301/3 177/302/3 173/303/3
f 180/304/4 176/305/4 174/306/4 178/307/4
f 181/308/2 182/309/2 184/310/2 183/311/2
f 183/312/5 184/313/5 188/314/5 187/315/5
f 187/316/6 188/317/6 186/318/6 185/319/6
f 185/320/1 186/321/1 182/322/1 181/323/1
f 183/324/3 187/325/3 185/326/3 181/327/3
f 188/328/4 184/329/4 182/330/4 186/331/4
usemtl Material.002
f 30/332/4 208/333/4 210/334/4 209/335/4 215/336/4 217/337/4 216/338/4 24/339/4 12/340/4 18/341/4 42/342/4 41/343/4 17/344/4 15/345/4 23/346/4 218/347/4 220/348/4 219/349/4 213/350/4 212/351/4 25/352/4
f 191/353/1 189/354/1 190/355/1 192/356/1 202/357/1 215/358/1 209/359/1 193/360/1
f 203/361/1 202/357/1 192/356/1 191/353/1 193/360/1 195/362/1
f 199/363/5 198/364/5 47/365/5 49/366/5 50/367/5 51/368/5 52/369/5 211/370/5 213/371/5 219/372/5 205/373/5
f 208/374/2 30/375/2 32/376/2 13/377/2 10/378/2 33/379/2 34/380/2 14/381/2 16/382/2 25/383/2 212/384/2 197/385/2 194/386/2
f 206/387/6 218/388/6 23/389/6 24/390/6 216/391/6 201/392/6
f 198/364/5 211/370/5 52/369/5 48/393/5 47/365/5
f 18/394/5 12/395/5 27/396/5 29/397/5
f 39/398/2 15/399/2 26/400/2 43/401/2
f 15/402/1 17/403/1 28/404/1 26/405/1
f 42/406/6 18/407/6 29/408/6 46/409/6
f 17/410/6 41/411/6 45/412/6 28/413/6
f 41/411/6 42/406/6 46/409/6 45/412/6
f 12/414/2 40/415/2 44/416/2 27/417/2
f 40/415/2 39/398/2 43/401/2 44/416/2
f 39/418/4 40/419/4 12/340/4 24/339/4 23/346/4 15/345/4
f 31/420/2 34/380/2 33/379/2 32/376/2 30/375/2 25/383/2 16/382/2
f 50/421/7 1/422/7 3/423/7 51/424/7
f 3/425/3 6/426/3 52/427/3 51/428/3
f 6/429/8 8/430/8 48/431/8 52/432/8
f 8/430/9 9/433/9 47/434/9 48/431/9
f 47/435/4 9/436/4 11/437/4 49/438/4
f 49/439/10 11/440/10 1/422/10 50/421/10
f 1/441/5 11/442/5 9/443/5 8/444/5 6/445/5 3/446/5
f 63/447/11 86/448/11 88/449/11 65/450/11
f 69/451/12 92/452/12 77/453/12 55/454/12
f 55/454/13 77/453/13 80/455/13 57/456/13
f 81/457/14 79/458/14 53/459/14 71/460/14
f 61/461/15 84/462/15 86/448/15 63/447/15
f 83/463/16 81/457/16 71/460/16 72/464/16
f 67/465/17 90/466/17 92/467/17 69/468/17
f 87/469/18 85/470/18 73/471/18 74/472/18
f 85/470/19 83/473/19 72/474/19 73/471/19
f 65/475/20 88/476/20 90/466/20 67/465/20
f 78/477/21 91/478/21 76/479/21 54/480/21
f 89/481/22 87/482/22 74/483/22 75/484/22
f 91/485/23 89/481/23 75/484/23 76/486/23
f 53/487/24 54/488/24 68/489/24 70/490/24
f 68/489/25 56/491/25 58/492/25 60/493/25 62/494/25 64/495/25 66/496/25 70/490/25
f 59/497/26 82/498/26 84/499/26 61/500/26
f 57/501/27 80/502/27 82/498/27 59/497/27
f 69/503/1 55/504/1 57/505/1 59/506/1 61/507/1 63/508/1 65/509/1 67/510/1
f 80/455/28 77/453/28 78/477/28 79/511/28
f 82/498/29 80/502/29 79/458/29 81/457/29
f 84/499/30 82/498/30 81/457/30 83/463/30
f 86/448/31 84/462/31 83/473/31 85/470/31
f 88/449/32 86/448/32 85/470/32 87/469/32
f 90/466/33 88/476/33 87/482/33 89/481/33
f 92/467/34 90/466/34 89/481/34 91/485/34
f 77/453/35 92/452/35 91/478/35 78/477/35
f 79/511/36 78/477/36 54/480/36 53/512/36
f 73/513/37 72/514/37 64/495/37 62/494/37
f 72/514/38 71/515/38 66/496/38 64/495/38
f 54/488/39 76/516/39 56/491/39 68/489/39
f 75/517/40 74/518/40 60/493/40 58/492/40
f 71/515/41 53/487/41 70/490/41 66/496/41
f 76/516/42 75/517/42 58/492/42 56/491/42
f 74/518/43 73/513/43 62/494/43 60/493/43
f 191/519/4 192/520/4 4/521/4 2/522/4
f 4/523/44 192/356/44 190/355/44 7/524/44
f 190/525/3 189/526/3 5/527/3 7/528/3
f 189/354/45 191/353/45 2/529/45 5/530/45
f 7/524/1 5/530/1 2/529/1 4/523/1
f 193/360/46 196/531/46 195/362/46
f 196/531/47 194/532/47 195/362/47
f 197/385/48 200/533/48 199/534/48
f 200/533/49 198/535/49 199/534/49
f 201/536/50 204/537/50 203/361/50
f 204/537/51 202/357/51 203/361/51
f 211/538/49 214/539/49 213/540/49
f 214/539/52 212/384/52 213/540/52
f 193/360/46 209/359/46 210/541/46 196/542/46
f 196/543/53 210/544/53 208/374/53 194/386/53
f 201/392/54 216/391/54 217/545/54 204/546/54
f 204/547/51 217/548/51 215/358/51 202/357/51
f 197/385/55 212/384/55 214/539/55 200/533/55
f 200/549/49 214/550/49 211/370/49 198/364/49
f 205/373/56 219/372/56 220/551/56 207/552/56
f 207/553/57 220/554/57 218/388/57 206/387/57
f 195/555/3 194/556/3 197/385/3 199/557/3 205/558/3 207/559/3 206/560/3 201/561/3 203/562/3
