# Blender v2.93.0 OBJ File: ''
# www.blender.org
mtllib extincteur.mtl
o Cylinder.001_Cylinder.002
v 0.000000 0.368474 -0.012808
v 0.000000 0.368474 -0.033820
v -0.003795 0.367765 -0.033820
v -0.003795 0.367765 -0.012808
v -0.007077 0.365733 -0.033820
v -0.007077 0.365733 -0.012808
v -0.009404 0.362651 -0.033820
v -0.009404 0.362651 -0.012808
v -0.010461 0.358939 -0.033820
v -0.010461 0.358939 -0.012808
v -0.010105 0.355093 -0.033820
v -0.010105 0.355093 -0.012808
v -0.008384 0.351637 -0.033820
v -0.008384 0.351637 -0.012808
v -0.005530 0.349037 -0.033820
v -0.005530 0.349037 -0.012808
v -0.001930 0.347641 -0.033820
v -0.001930 0.347641 -0.012808
v 0.001930 0.347641 -0.033820
v 0.001930 0.347641 -0.012808
v 0.005530 0.349037 -0.033820
v 0.005530 0.349037 -0.012808
v 0.008384 0.351637 -0.033820
v 0.008384 0.351637 -0.012808
v 0.010105 0.355093 -0.033820
v 0.010105 0.355093 -0.012808
v 0.010461 0.358939 -0.033820
v 0.010461 0.358939 -0.012808
v 0.009404 0.362651 -0.033820
v 0.009404 0.362651 -0.012808
v 0.007077 0.365733 -0.033820
v 0.007077 0.365733 -0.012808
v -0.006540 0.361225 -0.034069
v -0.007275 0.358643 -0.034069
v 0.003795 0.367765 -0.033820
v 0.003795 0.367765 -0.012808
v 0.006540 0.361225 -0.034069
v 0.007275 0.358643 -0.034069
v 0.007275 0.358643 -0.041463
v 0.006540 0.361225 -0.041463
v -0.001343 0.350787 -0.034069
v 0.001343 0.350787 -0.034069
v -0.002639 0.364781 -0.034069
v -0.004922 0.363369 -0.034069
v -0.005831 0.353566 -0.034069
v -0.003846 0.351757 -0.034069
v 0.005831 0.353566 -0.034069
v 0.007027 0.355969 -0.034069
v 0.002639 0.364781 -0.034069
v 0.000000 0.365275 -0.034069
v -0.007027 0.355969 -0.034069
v 0.003846 0.351757 -0.034069
v 0.004922 0.363369 -0.034069
v -0.002639 0.364781 -0.041463
v -0.004922 0.363369 -0.041463
v -0.005831 0.353566 -0.041463
v -0.003846 0.351757 -0.041463
v 0.004922 0.363369 -0.041463
v -0.001343 0.350787 -0.041463
v 0.002639 0.364781 -0.041463
v 0.001343 0.350787 -0.041463
v -0.002234 0.363736 -0.042565
v 0.000000 0.364154 -0.042565
v 0.002234 0.363736 -0.042565
v 0.004167 0.362540 -0.042565
v 0.005537 0.360725 -0.042565
v 0.006160 0.358539 -0.042565
v 0.005949 0.356276 -0.042565
v 0.004937 0.354241 -0.042565
v 0.003256 0.352709 -0.042565
v 0.001136 0.351888 -0.042565
v -0.001136 0.351888 -0.042565
v -0.003256 0.352709 -0.042565
v -0.004937 0.354241 -0.042565
v -0.005949 0.356276 -0.042565
v -0.006160 0.358539 -0.042565
v -0.005537 0.360725 -0.042565
v -0.004167 0.362540 -0.042565
v 0.003846 0.351757 -0.041463
v 0.000000 0.365275 -0.041463
v -0.006540 0.361225 -0.041463
v 0.005831 0.353566 -0.041463
v -0.007275 0.358643 -0.041463
v 0.007027 0.355969 -0.041463
v -0.007027 0.355969 -0.041463
v -0.031423 -0.471767 -0.082405
v -0.031423 0.218484 -0.082405
v 0.000000 0.218484 -0.088278
v 0.000000 -0.471767 -0.088279
v 0.058605 -0.471767 -0.065575
v 0.058605 0.218484 -0.065575
v 0.077869 0.218484 -0.040063
v 0.077869 -0.471767 -0.040063
v 0.086618 0.218484 -0.009315
v 0.086618 -0.471767 -0.009315
v 0.083668 0.218484 0.022516
v 0.083668 -0.471767 0.022516
v 0.069419 0.218484 0.051134
v 0.069419 -0.471767 0.051133
v 0.045794 0.218483 0.072671
v 0.045794 -0.471767 0.072671
v 0.015985 0.218483 0.084220
v 0.015985 -0.471767 0.084220
v -0.015985 0.218483 0.084220
v -0.015985 -0.471767 0.084220
v -0.045794 0.218483 0.072671
v -0.045794 -0.471767 0.072671
v -0.069419 0.218484 0.051134
v -0.069419 -0.471767 0.051133
v -0.083668 0.218484 0.022516
v -0.083668 -0.471767 0.022516
v -0.086618 0.218484 -0.009315
v -0.086618 -0.471767 -0.009315
v -0.077869 0.218484 -0.040063
v -0.077869 -0.471767 -0.040063
v -0.058605 0.218484 -0.065575
v -0.058605 -0.471767 -0.065575
v 0.077294 0.243103 0.020703
v 0.064130 0.243103 0.047139
v -0.077294 0.243103 0.020703
v -0.064130 0.243103 0.047139
v -0.051860 0.264589 0.037874
v -0.062507 0.264589 0.016496
v 0.031423 -0.471767 -0.082405
v 0.031423 0.218484 -0.082405
v 0.030389 -0.482279 -0.079733
v 0.000000 -0.482279 -0.085413
v 0.027562 -0.489973 -0.072433
v 0.000000 -0.489973 -0.077585
v 0.023699 -0.492789 -0.062461
v 0.000000 -0.492789 -0.066891
v 0.056675 -0.482279 -0.063458
v 0.051401 -0.489973 -0.057673
v 0.044197 -0.492789 -0.049770
v 0.075306 -0.482279 -0.038786
v 0.068298 -0.489973 -0.035298
v 0.058725 -0.492789 -0.030531
v 0.083766 -0.482279 -0.009051
v 0.075971 -0.489973 -0.008329
v 0.065323 -0.492789 -0.007342
v 0.080912 -0.482279 0.021732
v 0.073384 -0.489973 0.019590
v 0.063098 -0.492789 0.016664
v 0.067132 -0.482279 0.049407
v 0.060886 -0.489973 0.044690
v 0.052352 -0.492789 0.038245
v 0.044286 -0.482279 0.070235
v 0.040165 -0.489973 0.063579
v 0.034535 -0.492789 0.054487
v 0.015458 -0.482279 0.081402
v 0.014020 -0.489973 0.073708
v 0.012055 -0.492789 0.063196
v -0.015458 -0.482279 0.081402
v -0.014020 -0.489973 0.073708
v -0.012055 -0.492789 0.063196
v -0.044286 -0.482279 0.070235
v -0.040165 -0.489973 0.063579
v -0.034535 -0.492789 0.054487
v -0.067132 -0.482279 0.049407
v -0.060886 -0.489973 0.044690
v -0.052352 -0.492789 0.038245
v -0.080912 -0.482279 0.021732
v -0.073384 -0.489973 0.019590
v -0.063098 -0.492789 0.016664
v -0.083766 -0.482279 -0.009051
v -0.075971 -0.489973 -0.008329
v -0.065323 -0.492789 -0.007342
v -0.075306 -0.482279 -0.038786
v -0.068298 -0.489973 -0.035298
v -0.058725 -0.492789 -0.030531
v -0.056675 -0.482279 -0.063458
v -0.051401 -0.489973 -0.057673
v -0.044197 -0.492789 -0.049770
v -0.030389 -0.482279 -0.079733
v -0.027562 -0.489973 -0.072433
v -0.023699 -0.492789 -0.062461
v -0.042304 0.243103 0.067036
v -0.054139 0.243103 -0.060677
v -0.029030 0.243103 -0.076223
v 0.071937 0.243103 -0.037110
v 0.080018 0.243103 -0.008704
v 0.014766 0.243103 0.077704
v -0.014766 0.243103 0.077704
v -0.080018 0.243103 -0.008704
v -0.071937 0.243103 -0.037110
v 0.029030 0.243103 -0.076223
v 0.054139 0.243103 -0.060677
v 0.042304 0.243103 0.067036
v 0.000000 0.243103 -0.081650
v -0.034212 0.264589 0.053965
v -0.011942 0.264589 0.062592
v -0.008523 0.281598 0.044304
v -0.024417 0.281598 0.038147
v 0.023476 0.264589 -0.061889
v 0.043782 0.264589 -0.049316
v -0.023476 0.264589 -0.061889
v 0.000000 0.264589 -0.066277
v 0.051860 0.264589 0.037874
v 0.034212 0.264589 0.053965
v -0.043782 0.264589 -0.049316
v 0.062507 0.264589 0.016496
v -0.058175 0.264589 -0.030256
v 0.064710 0.264589 -0.007285
v -0.064710 0.264589 -0.007285
v 0.058175 0.264589 -0.030256
v 0.011942 0.264589 0.062592
v 0.024417 0.281598 0.038147
v 0.037015 0.281598 0.026663
v 0.026204 0.290999 0.018500
v 0.017285 0.290999 0.026629
v -0.016755 0.281598 -0.044541
v 0.000000 0.281598 -0.047673
v 0.016755 0.281598 -0.044541
v 0.031248 0.281598 -0.035567
v 0.008523 0.281598 0.044304
v -0.031248 0.281598 -0.035567
v -0.041520 0.281598 -0.021963
v -0.046185 0.281598 -0.005569
v 0.044613 0.281598 0.011404
v -0.044613 0.281598 0.011404
v 0.046185 0.281598 -0.005569
v -0.037015 0.281598 0.026663
v 0.041520 0.281598 -0.021963
v 0.029394 0.290999 -0.015925
v 0.022122 0.290999 -0.025555
v 0.022122 0.331374 -0.025555
v 0.029394 0.331374 -0.015925
v -0.032696 0.290999 -0.004319
v -0.029394 0.290999 -0.015925
v 0.031582 0.290999 0.007697
v -0.031582 0.290999 0.007697
v 0.032696 0.290999 -0.004319
v -0.026204 0.290999 0.018500
v -0.017285 0.290999 0.026629
v -0.006034 0.290999 0.030988
v -0.011862 0.290999 -0.031908
v 0.000000 0.290999 -0.034125
v 0.011862 0.290999 -0.031908
v 0.006034 0.290999 0.030988
v -0.022122 0.290999 -0.025555
v 0.000000 0.331374 -0.034125
v 0.011862 0.331374 -0.031908
v -0.006034 0.331374 0.030988
v -0.017285 0.331374 0.026629
v 0.006034 0.331374 0.030988
v -0.020649 0.333523 -0.023941
v -0.027438 0.333523 -0.014951
v -0.027438 0.339740 -0.014951
v -0.020649 0.339740 -0.023941
v 0.017285 0.331374 0.026629
v -0.029394 0.331374 -0.015925
v -0.022122 0.331374 -0.025555
v -0.011862 0.331374 -0.031908
v 0.026204 0.331374 0.018500
v -0.032696 0.331374 -0.004319
v 0.031582 0.331374 0.007697
v -0.031582 0.331374 0.007697
v 0.032696 0.331374 -0.004319
v -0.026204 0.331374 0.018500
v -0.011073 0.333523 -0.029871
v 0.000000 0.333523 -0.031940
v -0.030520 0.333523 -0.004117
v -0.029481 0.333523 0.007098
v -0.024460 0.333523 0.017182
v -0.016135 0.333523 0.024771
v -0.005632 0.333523 0.028840
v 0.005632 0.333523 0.028840
v 0.016135 0.333523 0.024771
v 0.024460 0.333523 0.017182
v 0.029481 0.333523 0.007098
v 0.030520 0.333523 -0.004117
v 0.027438 0.333523 -0.014951
v 0.020649 0.333523 -0.023941
v 0.011073 0.333523 -0.029871
v -0.016135 0.339740 0.024771
v -0.005632 0.339740 0.028840
v -0.004837 0.339740 0.024588
v -0.013858 0.339740 0.021093
v 0.030520 0.339740 -0.004117
v 0.029481 0.339740 0.007098
v -0.011073 0.339740 -0.029871
v 0.000000 0.339740 -0.031940
v -0.024460 0.339740 0.017182
v -0.029481 0.339740 0.007098
v 0.024460 0.339740 0.017182
v 0.016135 0.339740 0.024771
v 0.011073 0.339740 -0.029871
v 0.020649 0.339740 -0.023941
v -0.030520 0.339740 -0.004117
v 0.005632 0.339740 0.028840
v 0.027438 0.339740 -0.014951
v 0.013858 0.339740 0.021093
v 0.021008 0.339740 0.014575
v 0.021008 0.382999 0.014575
v 0.013858 0.382999 0.021093
v -0.009510 0.339740 -0.025836
v 0.000000 0.339740 -0.027615
v 0.009510 0.339740 -0.025836
v 0.017735 0.339740 -0.020743
v 0.004837 0.339740 0.024588
v -0.017735 0.339740 -0.020743
v -0.023565 0.339740 -0.013024
v -0.026214 0.339740 -0.003718
v 0.025321 0.339740 0.005915
v -0.025321 0.339740 0.005915
v 0.026214 0.339740 -0.003718
v -0.021008 0.339740 0.014575
v 0.023565 0.339740 -0.013024
v 0.009510 0.382999 -0.025836
v 0.000000 0.382999 -0.027615
v -0.009510 0.382999 -0.025836
v -0.017735 0.382999 -0.020743
v -0.023565 0.382999 -0.013024
v -0.026212 0.382999 -0.003718
v -0.025321 0.382999 0.005916
v -0.021008 0.382999 0.014575
v -0.013858 0.382999 0.021093
v -0.004837 0.382999 0.024588
v 0.004837 0.382999 0.024588
v 0.025321 0.382999 0.005916
v 0.026214 0.382999 -0.003718
v 0.023565 0.382999 -0.013024
v 0.017735 0.382999 -0.020743
v 0.000000 0.382715 0.042208
v 0.000000 0.382715 0.019698
v -0.003795 0.382006 0.019698
v -0.003795 0.382006 0.042208
v -0.007077 0.379974 0.019698
v -0.007077 0.379974 0.042208
v -0.009404 0.376892 0.019698
v -0.009404 0.376892 0.042208
v -0.010461 0.373180 0.019698
v -0.010461 0.373180 0.042208
v -0.010105 0.369335 0.019698
v -0.010105 0.369335 0.042208
v -0.008384 0.365878 0.019698
v -0.008384 0.365878 0.042208
v -0.005530 0.363278 0.019698
v -0.005530 0.363278 0.042208
v -0.001930 0.361883 0.019698
v -0.001930 0.361883 0.042208
v 0.001930 0.361883 0.019698
v 0.001930 0.361883 0.042208
v 0.005530 0.363278 0.019698
v 0.005530 0.363278 0.042208
v 0.008384 0.365878 0.019698
v 0.008384 0.365878 0.042208
v 0.010105 0.369335 0.019698
v 0.010105 0.369335 0.042208
v 0.010461 0.373180 0.019698
v 0.010461 0.373180 0.042208
v 0.009404 0.376892 0.019698
v 0.009404 0.376892 0.042208
v 0.007077 0.379974 0.019698
v 0.007077 0.379974 0.042208
v -0.006540 0.375466 0.019447
v -0.007275 0.372884 0.019447
v 0.003795 0.382006 0.019698
v 0.003795 0.382006 0.042208
v 0.006540 0.375466 0.019447
v 0.007275 0.372884 0.019447
v 0.007275 0.372884 0.012053
v 0.006540 0.375466 0.012053
v -0.001343 0.365029 0.019447
v 0.001343 0.365029 0.019447
v -0.002639 0.379023 0.019447
v -0.004922 0.377610 0.019447
v -0.005831 0.367807 0.019447
v -0.003846 0.365998 0.019447
v 0.005831 0.367807 0.019447
v 0.007027 0.370211 0.019447
v 0.002639 0.379023 0.019447
v 0.000000 0.379516 0.019447
v -0.007027 0.370211 0.019447
v 0.003846 0.365998 0.019447
v 0.004922 0.377610 0.019447
v -0.002639 0.379023 0.012053
v -0.004922 0.377610 0.012053
v -0.005831 0.367807 0.012053
v -0.003846 0.365998 0.012053
v 0.004922 0.377610 0.012053
v -0.001343 0.365029 0.012053
v 0.002639 0.379023 0.012053
v 0.001343 0.365029 0.012053
v -0.002234 0.377977 0.010953
v 0.000000 0.378395 0.010953
v 0.002234 0.377977 0.010953
v 0.004167 0.376781 0.010953
v 0.005537 0.374966 0.010953
v 0.006160 0.372780 0.010953
v 0.005949 0.370517 0.010953
v 0.004937 0.368482 0.010953
v 0.003256 0.366950 0.010953
v 0.001136 0.366130 0.010953
v -0.001136 0.366130 0.010953
v -0.003256 0.366950 0.010953
v -0.004937 0.368482 0.010953
v -0.005949 0.370517 0.010953
v -0.006160 0.372780 0.010953
v -0.005537 0.374966 0.010953
v -0.004167 0.376781 0.010953
v 0.003846 0.365998 0.012053
v 0.000000 0.379516 0.012053
v -0.006540 0.375466 0.012053
v 0.005831 0.367807 0.012053
v -0.007275 0.372884 0.012053
v 0.007027 0.370211 0.012053
v -0.007027 0.370211 0.012053
v -0.027028 0.375993 0.033827
v -0.027028 0.407686 0.033827
v -0.027028 0.407686 -0.029263
v -0.027028 0.375993 -0.020268
v 0.027028 0.407686 -0.029263
v 0.027028 0.375993 -0.020268
v 0.027028 0.381260 -0.035170
v 0.027028 0.406773 -0.035170
v 0.027028 0.407686 0.033827
v 0.027028 0.375993 0.033827
v -0.027028 0.406773 -0.035170
v 0.027028 0.397873 -0.073715
v -0.027028 0.397873 -0.073715
v -0.027028 0.381260 -0.035170
v 0.027028 0.377018 -0.151807
v -0.027028 0.377018 -0.151807
v -0.027028 0.375238 -0.073715
v 0.027028 0.375238 -0.073715
v 0.027028 0.359413 -0.145453
v 0.027028 0.348075 -0.172555
v 0.027028 0.365680 -0.178909
v -0.027028 0.359413 -0.145453
v -0.027028 0.365680 -0.178909
v 0.027028 0.355825 -0.192621
v -0.027028 0.355825 -0.192621
v -0.027028 0.348075 -0.172555
v -0.027028 0.344301 -0.186267
v -0.027028 0.347781 -0.199862
v -0.027028 0.344359 -0.193507
v 0.027028 0.344301 -0.186267
v 0.027028 0.347781 -0.199862
v 0.027028 0.344359 -0.193507
v -0.025936 0.380001 0.017141
v -0.025936 0.406926 0.033859
v -0.025936 0.440206 -0.019741
v -0.025936 0.408535 -0.028818
v 0.025936 0.440206 -0.019741
v 0.025936 0.408535 -0.028818
v 0.027028 0.420869 -0.038699
v 0.027028 0.442544 -0.025240
v 0.025936 0.406926 0.033859
v 0.025936 0.380001 0.017141
v -0.027028 0.442544 -0.025240
v 0.027028 0.455315 -0.062681
v -0.027028 0.455315 -0.062681
v -0.027028 0.420869 -0.038699
v 0.027028 0.478789 -0.140027
v -0.027028 0.478789 -0.140027
v -0.027028 0.436085 -0.074622
v 0.027028 0.436085 -0.074622
v 0.027028 0.460481 -0.143914
v 0.027028 0.465145 -0.172921
v 0.027028 0.483454 -0.169033
v -0.027028 0.460481 -0.143914
v -0.027028 0.483454 -0.169033
v 0.027028 0.482314 -0.185881
v -0.027028 0.482314 -0.185881
v -0.027028 0.465145 -0.172921
v -0.027028 0.469171 -0.186561
v -0.027028 0.479300 -0.196274
v -0.027028 0.473040 -0.192681
v 0.027028 0.469171 -0.186561
v 0.027028 0.479300 -0.196274
v 0.027028 0.473040 -0.192681
v 0.005071 0.345086 0.044007
v -0.005071 0.345086 0.044007
v 0.027475 0.374756 0.044007
v 0.024701 0.384509 0.044007
v 0.025498 0.384907 0.070991
v 0.028362 0.374838 0.070991
v -0.018590 0.392601 0.044007
v -0.009969 0.397939 0.044007
v -0.014527 0.348750 0.044007
v -0.022020 0.355581 0.044007
v 0.026540 0.364658 0.044007
v 0.022020 0.355581 0.044007
v 0.000000 0.399803 0.044007
v 0.009969 0.397939 0.044007
v -0.026540 0.364658 0.044007
v -0.027475 0.374756 0.044007
v 0.014527 0.348750 0.044007
v 0.018590 0.392601 0.044007
v -0.024701 0.384509 0.044007
v -0.010290 0.398771 0.070991
v -0.019189 0.393260 0.070991
v -0.027943 0.402862 0.071889
v -0.014983 0.410887 0.071889
v -0.014995 0.347992 0.070991
v -0.022731 0.355045 0.070991
v 0.019189 0.393260 0.070991
v -0.005234 0.344210 0.070991
v 0.000000 0.400694 0.070991
v 0.010290 0.398771 0.070991
v 0.005234 0.344210 0.070991
v 0.014995 0.347992 0.070991
v -0.025498 0.384907 0.070991
v 0.022731 0.355045 0.070991
v -0.028362 0.374838 0.070991
v 0.027397 0.364414 0.070991
v -0.027397 0.364414 0.070991
v -0.041300 0.376037 0.071889
v -0.039894 0.360859 0.071889
v -0.041828 0.360309 0.076553
v -0.043303 0.376223 0.076553
v 0.000000 0.413687 0.071889
v 0.014983 0.410887 0.071889
v 0.021835 0.336945 0.071889
v 0.007622 0.331438 0.071889
v -0.037129 0.390698 0.071889
v 0.033100 0.347214 0.071889
v 0.039894 0.360859 0.071889
v 0.041300 0.376037 0.071889
v -0.033100 0.347214 0.071889
v 0.037129 0.390698 0.071889
v -0.021835 0.336945 0.071889
v 0.027943 0.402862 0.071889
v -0.007622 0.331438 0.071889
v -0.022894 0.335236 0.076553
v -0.007991 0.329463 0.076553
v -0.008100 0.328877 0.079039
v -0.023207 0.334729 0.079039
v 0.043303 0.376223 0.076553
v 0.041828 0.360309 0.076553
v -0.034705 0.346002 0.076553
v 0.038928 0.391594 0.076553
v 0.029297 0.404348 0.076553
v -0.015709 0.412761 0.076553
v 0.000000 0.415697 0.076553
v 0.015709 0.412761 0.076553
v 0.007991 0.329463 0.076553
v -0.029297 0.404348 0.076553
v 0.022894 0.335236 0.076553
v -0.038928 0.391594 0.076553
v 0.034705 0.346002 0.076553
v 0.023207 0.334729 0.079039
v 0.035179 0.345643 0.079039
v 0.066390 0.322074 0.217803
v 0.043796 0.301477 0.217803
v -0.015925 0.413317 0.079039
v 0.000000 0.416293 0.079039
v 0.015925 0.413317 0.079039
v 0.029699 0.404788 0.079039
v 0.008100 0.328877 0.079039
v -0.029699 0.404788 0.079039
v -0.039462 0.391859 0.079039
v -0.043896 0.376277 0.079039
v 0.042400 0.360146 0.079039
v -0.042400 0.360146 0.079039
v 0.043896 0.376277 0.079039
v -0.035179 0.345643 0.079039
v 0.039462 0.391859 0.079039
v 0.082838 0.379885 0.217803
v 0.074471 0.409292 0.217803
v 0.074471 0.409292 0.276890
v 0.082838 0.379885 0.276890
v -0.082838 0.379885 0.217803
v -0.074471 0.409292 0.217803
v 0.080018 0.349443 0.217803
v -0.080018 0.349443 0.217803
v -0.066390 0.322074 0.217803
v -0.043796 0.301477 0.217803
v 0.056047 0.433691 0.217803
v -0.015287 0.290433 0.217803
v -0.030053 0.449786 0.217803
v 0.000000 0.455404 0.217803
v 0.030053 0.449786 0.217803
v 0.015287 0.290433 0.217803
v -0.056047 0.433691 0.217803
v 0.080018 0.349443 0.276890
v 0.078032 0.379441 0.276890
v 0.075375 0.350764 0.276890
v -0.043796 0.301477 0.276890
v -0.066390 0.322074 0.276890
v 0.056047 0.433691 0.276890
v -0.015287 0.290433 0.276890
v -0.030053 0.449786 0.276890
v 0.000000 0.455404 0.276890
v 0.030053 0.449786 0.276890
v 0.015287 0.290433 0.276890
v -0.056047 0.433691 0.276890
v 0.043796 0.301477 0.276890
v -0.074471 0.409292 0.276890
v 0.066390 0.322074 0.276890
v -0.082838 0.379885 0.276890
v -0.080018 0.349443 0.276890
v 0.000000 0.450577 0.276890
v -0.028310 0.445285 0.276890
v -0.028310 0.445285 0.238570
v 0.000000 0.450575 0.238570
v -0.062538 0.324983 0.276890
v -0.075375 0.350764 0.276890
v 0.070150 0.407140 0.276890
v -0.041254 0.305581 0.276890
v 0.052795 0.430123 0.276890
v -0.014400 0.295178 0.276890
v 0.028310 0.445285 0.276890
v 0.014400 0.295178 0.276890
v -0.052795 0.430123 0.276890
v 0.041254 0.305581 0.276890
v -0.070150 0.407140 0.276890
v 0.062538 0.324983 0.276890
v -0.078032 0.379441 0.276890
v -0.052795 0.430123 0.238570
v -0.070150 0.407140 0.238570
v -0.078032 0.379441 0.238570
v -0.075375 0.350764 0.238570
v -0.062538 0.324983 0.238570
v -0.041254 0.305581 0.238570
v -0.014400 0.295178 0.238570
v 0.014400 0.295178 0.238570
v 0.041254 0.305581 0.238570
v 0.062538 0.324983 0.238570
v 0.075375 0.350764 0.238570
v 0.078032 0.379441 0.238570
v 0.070150 0.407140 0.238570
v 0.052795 0.430123 0.238570
v 0.028310 0.445285 0.238570
vt 0.468088 0.801425
vt 0.468088 0.801509
vt 0.468078 0.801509
vt 0.468078 0.801425
vt 0.468068 0.801509
vt 0.468068 0.801425
vt 0.468058 0.801509
vt 0.468058 0.801425
vt 0.468048 0.801509
vt 0.468048 0.801425
vt 0.468039 0.801509
vt 0.468039 0.801425
vt 0.468029 0.801509
vt 0.468029 0.801425
vt 0.468019 0.801509
vt 0.468019 0.801425
vt 0.468009 0.801509
vt 0.468009 0.801425
vt 0.467999 0.801509
vt 0.467999 0.801425
vt 0.467989 0.801509
vt 0.467989 0.801425
vt 0.467979 0.801509
vt 0.467979 0.801425
vt 0.467969 0.801509
vt 0.467969 0.801425
vt 0.467959 0.801509
vt 0.467959 0.801425
vt 0.467950 0.801509
vt 0.467950 0.801425
vt 0.467940 0.801509
vt 0.467940 0.801425
vt 0.468058 0.801509
vt 0.468048 0.801509
vt 0.467930 0.801509
vt 0.467930 0.801425
vt 0.467920 0.801509
vt 0.467920 0.801425
vt 0.750000 0.490000
vt 0.836698 0.473793
vt 0.911687 0.427362
vt 0.964839 0.356977
vt 0.988976 0.272144
vt 0.980838 0.184321
vt 0.941524 0.105368
vt 0.876344 0.045948
vt 0.794100 0.014086
vt 0.705900 0.014086
vt 0.623656 0.045948
vt 0.558476 0.105368
vt 0.519162 0.184321
vt 0.511024 0.272144
vt 0.535161 0.356977
vt 0.588313 0.427362
vt 0.663302 0.473793
vt 0.531901 0.791757
vt 0.532031 0.791757
vt 0.532031 0.791757
vt 0.531901 0.791757
vt 0.468009 0.801509
vt 0.467999 0.801509
vt 0.467959 0.801509
vt 0.467950 0.801509
vt 0.468078 0.801509
vt 0.468068 0.801509
vt 0.468029 0.801509
vt 0.468019 0.801509
vt 0.467979 0.801509
vt 0.467969 0.801509
vt 0.467930 0.801509
vt 0.467920 0.801509
vt 0.468039 0.801509
vt 0.467989 0.801509
vt 0.467940 0.801509
vt 0.468088 0.801509
vt 0.533462 0.791757
vt 0.533592 0.791757
vt 0.533592 0.791757
vt 0.533462 0.791757
vt 0.532811 0.791757
vt 0.532941 0.791757
vt 0.532941 0.791757
vt 0.532811 0.791757
vt 0.531771 0.791757
vt 0.531771 0.791757
vt 0.532681 0.791757
vt 0.532681 0.791757
vt 0.531641 0.791757
vt 0.531641 0.791757
vt 0.532551 0.791757
vt 0.532551 0.791757
vt 0.532226 0.790518
vt 0.532063 0.790548
vt 0.531901 0.790518
vt 0.531761 0.790431
vt 0.531661 0.790299
vt 0.531616 0.790140
vt 0.531631 0.789976
vt 0.531705 0.789828
vt 0.531827 0.789717
vt 0.531981 0.789657
vt 0.532146 0.789657
vt 0.532300 0.789717
vt 0.532422 0.789828
vt 0.532495 0.789976
vt 0.532511 0.790140
vt 0.532466 0.790299
vt 0.532366 0.790431
vt 0.532421 0.791757
vt 0.532421 0.791757
vt 0.531511 0.791757
vt 0.531511 0.791757
vt 0.533332 0.791757
vt 0.533332 0.791757
vt 0.532291 0.791757
vt 0.532291 0.791757
vt 0.533201 0.791757
vt 0.533201 0.791757
vt 0.532161 0.791757
vt 0.532161 0.791757
vt 0.533071 0.791757
vt 0.533071 0.791757
vt 0.532255 0.790594
vt 0.532063 0.790629
vt 0.532421 0.790491
vt 0.532538 0.790335
vt 0.532592 0.790148
vt 0.532574 0.789954
vt 0.532487 0.789779
vt 0.532343 0.789648
vt 0.532161 0.789577
vt 0.531966 0.789577
vt 0.531784 0.789648
vt 0.531640 0.789779
vt 0.531553 0.789954
vt 0.531535 0.790148
vt 0.531588 0.790335
vt 0.531706 0.790491
vt 0.531872 0.790594
vt 0.533722 0.791757
vt 0.533722 0.791757
vt 0.491898 0.580429
vt 0.491898 0.638470
vt 0.484812 0.638470
vt 0.484812 0.580429
vt 0.536309 0.219736
vt 0.536309 0.659465
vt 0.519106 0.659465
vt 0.519106 0.219736
vt 0.501904 0.659465
vt 0.501904 0.219736
vt 0.484701 0.659465
vt 0.484701 0.219736
vt 0.467498 0.659465
vt 0.467498 0.219736
vt 0.450295 0.659465
vt 0.450295 0.219736
vt 0.433092 0.659465
vt 0.433092 0.219736
vt 0.520010 0.565114
vt 0.520010 0.660729
vt 0.508338 0.660729
vt 0.508338 0.565114
vt 0.541495 0.580429
vt 0.541495 0.638470
vt 0.534410 0.638470
vt 0.534410 0.580429
vt 0.527325 0.638470
vt 0.527325 0.580429
vt 0.520239 0.638470
vt 0.520239 0.580429
vt 0.513154 0.638470
vt 0.513154 0.580429
vt 0.506068 0.638470
vt 0.506068 0.580429
vt 0.498983 0.638470
vt 0.498983 0.580429
vt 0.484701 0.659465
vt 0.467498 0.659465
vt 0.520239 0.638470
vt 0.527325 0.638470
vt 0.527325 0.638470
vt 0.520239 0.638470
vt 0.553512 0.219736
vt 0.553512 0.659465
vt 0.570715 0.219736
vt 0.570715 0.659465
vt 0.535827 0.637396
vt 0.530679 0.637396
vt 0.530763 0.635809
vt 0.535742 0.635809
vt 0.514070 0.634910
vt 0.521409 0.633538
vt 0.520601 0.631107
vt 0.513945 0.632351
vt 0.519668 0.628699
vt 0.513945 0.629769
vt 0.525530 0.637396
vt 0.525615 0.635809
vt 0.530594 0.635809
vt 0.521642 0.633448
vt 0.527989 0.629518
vt 0.526358 0.627542
vt 0.524618 0.625634
vt 0.520381 0.637396
vt 0.520466 0.635809
vt 0.525445 0.635809
vt 0.528174 0.629349
vt 0.532673 0.623392
vt 0.530438 0.622139
vt 0.528126 0.620988
vt 0.515232 0.637396
vt 0.515317 0.635809
vt 0.520296 0.635809
vt 0.532784 0.623168
vt 0.534828 0.615987
vt 0.532291 0.615627
vt 0.529720 0.615388
vt 0.510084 0.637396
vt 0.510168 0.635809
vt 0.515148 0.635809
vt 0.534851 0.615738
vt 0.534162 0.608304
vt 0.531666 0.608884
vt 0.529182 0.609591
vt 0.504935 0.637396
vt 0.505020 0.635809
vt 0.509999 0.635809
vt 0.534093 0.608064
vt 0.530766 0.601381
vt 0.528648 0.602823
vt 0.526587 0.604379
vt 0.499786 0.637396
vt 0.499871 0.635809
vt 0.504850 0.635809
vt 0.530615 0.601181
vt 0.525098 0.596152
vt 0.523644 0.598262
vt 0.522285 0.600457
vt 0.494637 0.637396
vt 0.494722 0.635809
vt 0.499701 0.635809
vt 0.524885 0.596020
vt 0.517924 0.593323
vt 0.517331 0.595816
vt 0.516856 0.598354
vt 0.489489 0.637396
vt 0.489573 0.635809
vt 0.494553 0.635809
vt 0.517678 0.593277
vt 0.510212 0.593277
vt 0.510560 0.595816
vt 0.511034 0.598354
vt 0.484340 0.637396
vt 0.484425 0.635809
vt 0.489404 0.635809
vt 0.509967 0.593323
vt 0.503005 0.596020
vt 0.504246 0.598262
vt 0.505605 0.600457
vt 0.479191 0.637396
vt 0.479276 0.635809
vt 0.484255 0.635809
vt 0.502792 0.596152
vt 0.497275 0.601181
vt 0.499242 0.602823
vt 0.501303 0.604379
vt 0.474042 0.637396
vt 0.474127 0.635809
vt 0.479106 0.635809
vt 0.497125 0.601381
vt 0.493797 0.608064
vt 0.496224 0.608884
vt 0.498708 0.609591
vt 0.468894 0.637396
vt 0.468978 0.635809
vt 0.473958 0.635809
vt 0.493728 0.608304
vt 0.493040 0.615738
vt 0.495599 0.615627
vt 0.498171 0.615388
vt 0.463745 0.637396
vt 0.463830 0.635809
vt 0.468809 0.635809
vt 0.493063 0.615987
vt 0.495106 0.623168
vt 0.497452 0.622139
vt 0.499764 0.620988
vt 0.458596 0.637396
vt 0.458681 0.635809
vt 0.463660 0.635809
vt 0.495217 0.623392
vt 0.499716 0.629349
vt 0.501533 0.627542
vt 0.503272 0.625634
vt 0.453447 0.637396
vt 0.453532 0.635809
vt 0.458511 0.635809
vt 0.499901 0.629518
vt 0.506248 0.633448
vt 0.507289 0.631107
vt 0.508222 0.628699
vt 0.448299 0.637396
vt 0.448384 0.635809
vt 0.453363 0.635809
vt 0.506482 0.633538
vt 0.513820 0.634910
vt 0.534410 0.638470
vt 0.498983 0.638470
vt 0.491898 0.638470
vt 0.519106 0.659465
vt 0.501904 0.659465
vt 0.520010 0.660729
vt 0.508338 0.660729
vt 0.513154 0.638470
vt 0.506068 0.638470
vt 0.553512 0.659465
vt 0.536309 0.659465
vt 0.450295 0.659465
vt 0.484812 0.638470
vt 0.541495 0.638470
vt 0.433092 0.659465
vt 0.570715 0.659465
vt 0.534410 0.638470
vt 0.541495 0.638470
vt 0.541495 0.638470
vt 0.534410 0.638470
vt 0.553512 0.659465
vt 0.536309 0.659465
vt 0.491898 0.638470
vt 0.484812 0.638470
vt 0.467498 0.659465
vt 0.450295 0.659465
vt 0.498983 0.638470
vt 0.484701 0.659465
vt 0.570715 0.659465
vt 0.506068 0.638470
vt 0.501904 0.659465
vt 0.513154 0.638470
vt 0.519106 0.659465
vt 0.520010 0.660729
vt 0.508338 0.660729
vt 0.433092 0.659465
vt 0.450295 0.659465
vt 0.467498 0.659465
vt 0.467498 0.659465
vt 0.450295 0.659465
vt 0.491898 0.638470
vt 0.484812 0.638470
vt 0.553512 0.659465
vt 0.536309 0.659465
vt 0.520010 0.660729
vt 0.508338 0.660729
vt 0.498983 0.638470
vt 0.570715 0.659465
vt 0.433092 0.659465
vt 0.506068 0.638470
vt 0.513154 0.638470
vt 0.484701 0.659465
vt 0.520239 0.638470
vt 0.501904 0.659465
vt 0.527325 0.638470
vt 0.519106 0.659465
vt 0.504421 0.760029
vt 0.505224 0.760029
vt 0.505224 0.760029
vt 0.504421 0.760029
vt 0.513154 0.638470
vt 0.506068 0.638470
vt 0.484701 0.659465
vt 0.520239 0.638470
vt 0.501904 0.659465
vt 0.527325 0.638470
vt 0.519106 0.659465
vt 0.534410 0.638470
vt 0.536309 0.659465
vt 0.541495 0.638470
vt 0.491898 0.638470
vt 0.484812 0.638470
vt 0.553512 0.659465
vt 0.520010 0.660729
vt 0.508338 0.660729
vt 0.498983 0.638470
vt 0.570715 0.659465
vt 0.433092 0.659465
vt 0.506028 0.760029
vt 0.506832 0.760029
vt 0.506832 0.760029
vt 0.506028 0.760029
vt 0.498794 0.760029
vt 0.499598 0.760029
vt 0.499598 0.760029
vt 0.498794 0.760029
vt 0.500402 0.760029
vt 0.500402 0.760029
vt 0.483065 0.787293
vt 0.483013 0.787223
vt 0.483013 0.787223
vt 0.483065 0.787293
vt 0.501206 0.760029
vt 0.501206 0.760029
vt 0.494776 0.760029
vt 0.495579 0.760029
vt 0.495579 0.760029
vt 0.494776 0.760029
vt 0.493972 0.760029
vt 0.493972 0.760029
vt 0.502009 0.760029
vt 0.502009 0.760029
vt 0.496383 0.760029
vt 0.496383 0.760029
vt 0.502813 0.760029
vt 0.502813 0.760029
vt 0.497187 0.760029
vt 0.497187 0.760029
vt 0.503617 0.760029
vt 0.503617 0.760029
vt 0.497991 0.760029
vt 0.497991 0.760029
vt 0.496584 0.753060
vt 0.495399 0.752839
vt 0.495478 0.752635
vt 0.496584 0.752842
vt 0.494375 0.752204
vt 0.494522 0.752043
vt 0.493649 0.751243
vt 0.493844 0.751145
vt 0.493319 0.750084
vt 0.493536 0.750063
vt 0.493430 0.748884
vt 0.493640 0.748943
vt 0.493967 0.747805
vt 0.494141 0.747936
vt 0.494858 0.746993
vt 0.494973 0.747178
vt 0.495981 0.746558
vt 0.496022 0.746772
vt 0.497187 0.746558
vt 0.497147 0.746772
vt 0.498310 0.746993
vt 0.498195 0.747178
vt 0.499201 0.747805
vt 0.499027 0.747936
vt 0.499738 0.748884
vt 0.499528 0.748943
vt 0.499849 0.750084
vt 0.499632 0.750063
vt 0.499520 0.751243
vt 0.499324 0.751145
vt 0.498793 0.752204
vt 0.498646 0.752043
vt 0.497769 0.752839
vt 0.497690 0.752635
vt 0.493168 0.760029
vt 0.493168 0.760029
vt 0.483100 0.786917
vt 0.483181 0.786885
vt 0.483181 0.786885
vt 0.483100 0.786917
vt 0.483100 0.786917
vt 0.483181 0.786885
vt 0.483452 0.787053
vt 0.483460 0.787140
vt 0.483460 0.787140
vt 0.483452 0.787053
vt 0.483225 0.787354
vt 0.483139 0.787338
vt 0.483139 0.787338
vt 0.483225 0.787354
vt 0.482997 0.787053
vt 0.483036 0.786975
vt 0.483036 0.786975
vt 0.482997 0.787053
vt 0.483349 0.786917
vt 0.483413 0.786975
vt 0.483413 0.786975
vt 0.483349 0.786917
vt 0.483384 0.787293
vt 0.483310 0.787338
vt 0.483310 0.787338
vt 0.483384 0.787293
vt 0.482989 0.787140
vt 0.482989 0.787140
vt 0.483268 0.786885
vt 0.483268 0.786885
vt 0.483436 0.787223
vt 0.483436 0.787223
vt 0.482110 0.786422
vt 0.482262 0.786562
vt 0.482262 0.786562
vt 0.482110 0.786422
vt 0.483139 0.787338
vt 0.483225 0.787354
vt 0.483310 0.787338
vt 0.483384 0.787293
vt 0.483268 0.786885
vt 0.483065 0.787293
vt 0.483349 0.786917
vt 0.483013 0.787223
vt 0.483413 0.786975
vt 0.482989 0.787140
vt 0.483452 0.787053
vt 0.482997 0.787053
vt 0.483460 0.787140
vt 0.483036 0.786975
vt 0.483436 0.787223
vt 0.330928 0.458898
vt 0.250000 0.474026
vt 0.169072 0.458898
vt 0.099075 0.415557
vt 0.049460 0.349857
vt 0.026930 0.270671
vt 0.034526 0.188692
vt 0.071223 0.114994
vt 0.132066 0.059529
vt 0.208835 0.029788
vt 0.291165 0.029788
vt 0.367935 0.059529
vt 0.428777 0.114994
vt 0.465474 0.188692
vt 0.473070 0.270671
vt 0.450540 0.349857
vt 0.400925 0.415557
vt 0.481310 0.787152
vt 0.481253 0.786953
vt 0.481253 0.786953
vt 0.481310 0.787152
vt 0.482355 0.786747
vt 0.482355 0.786747
vt 0.481272 0.786747
vt 0.481272 0.786747
vt 0.482374 0.786953
vt 0.482374 0.786953
vt 0.481364 0.786562
vt 0.481364 0.786562
vt 0.482317 0.787152
vt 0.482317 0.787152
vt 0.481517 0.786422
vt 0.481517 0.786422
vt 0.482192 0.787317
vt 0.482192 0.787317
vt 0.481710 0.786348
vt 0.481710 0.786348
vt 0.481813 0.787464
vt 0.481610 0.787426
vt 0.481610 0.787426
vt 0.481813 0.787464
vt 0.482017 0.787426
vt 0.482017 0.787426
vt 0.481917 0.786348
vt 0.481917 0.786348
vt 0.481434 0.787317
vt 0.481434 0.787317
vt 0.468088 0.801425
vt 0.468088 0.801509
vt 0.468078 0.801509
vt 0.468078 0.801425
vt 0.468068 0.801509
vt 0.468068 0.801425
vt 0.468058 0.801509
vt 0.468058 0.801425
vt 0.468048 0.801509
vt 0.468048 0.801425
vt 0.468039 0.801509
vt 0.468039 0.801425
vt 0.468029 0.801509
vt 0.468029 0.801425
vt 0.468019 0.801509
vt 0.468019 0.801425
vt 0.468009 0.801509
vt 0.468009 0.801425
vt 0.467999 0.801509
vt 0.467999 0.801425
vt 0.467989 0.801509
vt 0.467989 0.801425
vt 0.467979 0.801509
vt 0.467979 0.801425
vt 0.467969 0.801509
vt 0.467969 0.801425
vt 0.467959 0.801509
vt 0.467959 0.801425
vt 0.467950 0.801509
vt 0.467950 0.801425
vt 0.467940 0.801509
vt 0.467940 0.801425
vt 0.764706 1.000000
vt 0.823529 1.000000
vt 0.823529 1.000000
vt 0.764706 1.000000
vt 0.467930 0.801509
vt 0.467930 0.801425
vt 0.467920 0.801509
vt 0.467920 0.801425
vt 0.176471 1.000000
vt 0.235294 1.000000
vt 0.235294 1.000000
vt 0.176471 1.000000
vt 0.470588 1.000000
vt 0.529412 1.000000
vt 0.529412 1.000000
vt 0.470588 1.000000
vt 0.176471 1.000000
vt 0.235294 1.000000
vt 0.882353 1.000000
vt 0.941176 1.000000
vt 0.941176 1.000000
vt 0.882353 1.000000
vt 0.588235 1.000000
vt 0.647059 1.000000
vt 0.647059 1.000000
vt 0.588235 1.000000
vt 0.294118 1.000000
vt 0.352941 1.000000
vt 0.352941 1.000000
vt 0.294118 1.000000
vt 0.000000 1.000000
vt 0.058824 1.000000
vt 0.058824 1.000000
vt 0.000000 1.000000
vt 0.705882 1.000000
vt 0.705882 1.000000
vt 0.411765 1.000000
vt 0.411765 1.000000
vt 0.117647 1.000000
vt 0.117647 1.000000
vt 1.000000 1.000000
vt 1.000000 1.000000
vt 0.941176 1.000000
vt 0.882353 1.000000
vt 0.647059 1.000000
vt 0.588235 1.000000
vt 0.117647 1.000000
vt 0.529412 1.000000
vt 0.058824 1.000000
vt 0.470588 1.000000
vt 0.323403 0.439475
vt 0.250000 0.453196
vt 0.176597 0.439475
vt 0.113108 0.400164
vt 0.068106 0.340572
vt 0.047671 0.268749
vt 0.054561 0.194393
vt 0.087846 0.127547
vt 0.143031 0.077239
vt 0.212663 0.050264
vt 0.287337 0.050264
vt 0.356969 0.077239
vt 0.412154 0.127547
vt 0.445439 0.194393
vt 0.452329 0.268749
vt 0.431894 0.340572
vt 0.386892 0.400164
vt 0.411765 1.000000
vt 0.000000 1.000000
vt 0.823529 1.000000
vt 0.352941 1.000000
vt 0.764706 1.000000
vt 0.294118 1.000000
vt 0.705882 1.000000
vt 0.336698 0.473793
vt 0.250000 0.490000
vt 0.411687 0.427362
vt 0.464839 0.356977
vt 0.488976 0.272144
vt 0.480838 0.184321
vt 0.441524 0.105368
vt 0.376344 0.045948
vt 0.294100 0.014086
vt 0.205900 0.014086
vt 0.123656 0.045948
vt 0.058476 0.105368
vt 0.019162 0.184321
vt 0.011024 0.272144
vt 0.035161 0.356977
vt 0.088313 0.427362
vt 0.163302 0.473793
vt 1.000000 1.000000
vt 0.533389 0.816421
vt 0.535466 0.816421
vt 0.535466 0.818498
vt 0.533389 0.818498
vt 0.535466 0.820575
vt 0.533389 0.820575
vt 0.533389 0.820575
vt 0.535466 0.820575
vt 0.535466 0.822652
vt 0.533389 0.822652
vt 0.535466 0.824729
vt 0.533389 0.824729
vt 0.531312 0.820575
vt 0.531312 0.822652
vt 0.537543 0.820575
vt 0.537543 0.822652
vt 0.537543 0.820575
vt 0.535466 0.820575
vt 0.537543 0.820575
vt 0.531312 0.820575
vt 0.535466 0.818498
vt 0.533389 0.818498
vt 0.535466 0.820575
vt 0.537543 0.820575
vt 0.535466 0.818498
vt 0.533389 0.818498
vt 0.533389 0.820575
vt 0.531312 0.820575
vt 0.533389 0.820575
vt 0.533389 0.820575
vt 0.535466 0.820575
vt 0.535466 0.818498
vt 0.533389 0.818498
vt 0.531312 0.820575
vt 0.537543 0.820575
vt 0.535466 0.820575
vt 0.537543 0.820575
vt 0.531312 0.820575
vt 0.535466 0.818498
vt 0.533389 0.818498
vt 0.533389 0.818498
vt 0.535466 0.818498
vt 0.535466 0.818498
vt 0.533389 0.818498
vt 0.533389 0.820575
vt 0.531312 0.820575
vt 0.535466 0.820575
vt 0.533389 0.820575
vt 0.531312 0.820575
vt 0.537543 0.820575
vt 0.533389 0.816421
vt 0.535466 0.816421
vt 0.535466 0.818498
vt 0.533389 0.818498
vt 0.535466 0.820575
vt 0.533389 0.820575
vt 0.533389 0.820575
vt 0.535466 0.820575
vt 0.535466 0.822652
vt 0.533389 0.822652
vt 0.535466 0.824729
vt 0.533389 0.824729
vt 0.531312 0.820575
vt 0.531312 0.822652
vt 0.537543 0.820575
vt 0.537543 0.822652
vt 0.537543 0.820575
vt 0.535466 0.820575
vt 0.537543 0.820575
vt 0.531312 0.820575
vt 0.535466 0.818498
vt 0.533389 0.818498
vt 0.535466 0.820575
vt 0.537543 0.820575
vt 0.535466 0.818498
vt 0.533389 0.818498
vt 0.533389 0.820575
vt 0.531312 0.820575
vt 0.533389 0.820575
vt 0.533389 0.820575
vt 0.535466 0.820575
vt 0.535466 0.818498
vt 0.533389 0.818498
vt 0.531312 0.820575
vt 0.537543 0.820575
vt 0.535466 0.820575
vt 0.537543 0.820575
vt 0.531312 0.820575
vt 0.535466 0.818498
vt 0.533389 0.818498
vt 0.533389 0.818498
vt 0.535466 0.818498
vt 0.535466 0.818498
vt 0.533389 0.818498
vt 0.533389 0.820575
vt 0.531312 0.820575
vt 0.535466 0.820575
vt 0.533389 0.820575
vt 0.531312 0.820575
vt 0.537543 0.820575
vt 0.976568 0.093941
vt 0.976211 0.093941
vt 0.976211 0.093941
vt 0.976568 0.093941
vt 0.974781 0.093941
vt 0.974423 0.093941
vt 0.974423 0.093941
vt 0.974781 0.093941
vt 0.974781 0.093941
vt 0.974423 0.093941
vt 0.979070 0.093941
vt 0.978713 0.093941
vt 0.978713 0.093941
vt 0.979070 0.093941
vt 0.977283 0.093941
vt 0.976925 0.093941
vt 0.976925 0.093941
vt 0.977283 0.093941
vt 0.975496 0.093941
vt 0.975138 0.093941
vt 0.975138 0.093941
vt 0.975496 0.093941
vt 0.973708 0.093941
vt 0.973351 0.093941
vt 0.973351 0.093941
vt 0.973708 0.093941
vt 0.977998 0.093941
vt 0.977640 0.093941
vt 0.977640 0.093941
vt 0.977998 0.093941
vt 0.975853 0.093941
vt 0.975853 0.093941
vt 0.974066 0.093941
vt 0.974066 0.093941
vt 0.978355 0.093941
vt 0.978355 0.093941
vt 0.979428 0.093941
vt 0.979428 0.093941
vt 0.979070 0.093941
vt 0.978713 0.093941
vt 0.978713 0.093941
vt 0.979070 0.093941
vt 0.976925 0.093941
vt 0.977283 0.093941
vt 0.974066 0.093941
vt 0.976568 0.093941
vt 0.979428 0.093941
vt 0.973708 0.093941
vt 0.976211 0.093941
vt 0.973351 0.093941
vt 0.975853 0.093941
vt 0.978355 0.093941
vt 0.975496 0.093941
vt 0.977998 0.093941
vt 0.975138 0.093941
vt 0.977640 0.093941
vt 0.977998 0.093941
vt 0.977640 0.093941
vt 0.977640 0.093941
vt 0.977998 0.093941
vt 0.973351 0.093941
vt 0.973708 0.093941
vt 0.975853 0.093941
vt 0.976211 0.093941
vt 0.978355 0.093941
vt 0.975496 0.093941
vt 0.975138 0.093941
vt 0.974781 0.093941
vt 0.977283 0.093941
vt 0.974423 0.093941
vt 0.976925 0.093941
vt 0.974066 0.093941
vt 0.976568 0.093941
vt 0.979428 0.093941
vt 0.976925 0.093941
vt 0.976568 0.093941
vt 0.976568 0.093941
vt 0.976925 0.093941
vt 0.974781 0.093941
vt 0.975138 0.093941
vt 0.977283 0.093941
vt 0.974423 0.093941
vt 0.974066 0.093941
vt 0.979070 0.093941
vt 0.979428 0.093941
vt 0.973708 0.093941
vt 0.976211 0.093941
vt 0.978713 0.093941
vt 0.973351 0.093941
vt 0.975853 0.093941
vt 0.978355 0.093941
vt 0.975496 0.093941
vt 0.975853 0.093941
vt 0.975496 0.093941
vt 0.975496 0.093941
vt 0.975853 0.093941
vt 0.979070 0.093941
vt 0.979428 0.093941
vt 0.973708 0.093941
vt 0.974066 0.093941
vt 0.976211 0.093941
vt 0.978713 0.093941
vt 0.973351 0.093941
vt 0.978355 0.093941
vt 0.977998 0.093941
vt 0.975138 0.093941
vt 0.977640 0.093941
vt 0.974781 0.093941
vt 0.977283 0.093941
vt 0.974423 0.093941
vt 0.974781 0.093941
vt 0.974423 0.093941
vt 0.974423 0.093941
vt 0.974781 0.093941
vt 0.977998 0.093941
vt 0.978355 0.093941
vt 0.975138 0.093941
vt 0.977640 0.093941
vt 0.977283 0.093941
vt 0.976925 0.093941
vt 0.974066 0.093941
vt 0.976568 0.093941
vt 0.979070 0.093941
vt 0.979428 0.093941
vt 0.973708 0.093941
vt 0.976211 0.093941
vt 0.978713 0.093941
vt 0.973351 0.093941
vt 0.975138 0.093941
vt 0.974781 0.093941
vt 0.975138 0.093941
vt 0.976925 0.093941
vt 0.977283 0.093941
vt 0.974066 0.093941
vt 0.976568 0.093941
vt 0.979070 0.093941
vt 0.979428 0.093941
vt 0.973708 0.093941
vt 0.976211 0.093941
vt 0.978713 0.093941
vt 0.973351 0.093941
vt 0.975853 0.093941
vt 0.978355 0.093941
vt 0.975496 0.093941
vt 0.977998 0.093941
vt 0.977640 0.093941
vt 0.979428 0.093941
vt 0.979070 0.093941
vt 0.979070 0.093941
vt 0.979428 0.093941
vt 0.977283 0.093941
vt 0.977640 0.093941
vt 0.974423 0.093941
vt 0.976925 0.093941
vt 0.974066 0.093941
vt 0.976568 0.093941
vt 0.973708 0.093941
vt 0.976211 0.093941
vt 0.978713 0.093941
vt 0.973351 0.093941
vt 0.975853 0.093941
vt 0.978355 0.093941
vt 0.975496 0.093941
vt 0.977998 0.093941
vt 0.977908 0.093880
vt 0.978435 0.093782
vt 0.978891 0.093500
vt 0.979214 0.093072
vt 0.979361 0.092557
vt 0.979311 0.092023
vt 0.979072 0.091543
vt 0.978676 0.091182
vt 0.978176 0.090988
vt 0.977640 0.090988
vt 0.977141 0.091182
vt 0.976745 0.091543
vt 0.976506 0.092023
vt 0.976456 0.092557
vt 0.976603 0.093072
vt 0.976926 0.093500
vt 0.977382 0.093782
vt 0.973708 0.093941
vt 0.974066 0.093941
vt 0.976211 0.093941
vt 0.976568 0.093941
vt 0.978713 0.093941
vt 0.973351 0.093941
vt 0.975853 0.093941
vt 0.978355 0.093941
vt 0.975496 0.093941
vt 0.977998 0.093941
vt 0.975138 0.093941
vt 0.977640 0.093941
vt 0.974781 0.093941
vt 0.977283 0.093941
vt 0.974423 0.093941
vt 0.976925 0.093941
vn -0.1836 0.9830 0.0000
vn -0.5263 0.8503 0.0000
vn -0.7980 0.6026 0.0000
vn -0.9618 0.2738 0.0000
vn -0.9957 -0.0923 0.0000
vn -0.8951 -0.4458 0.0000
vn -0.6735 -0.7392 0.0000
vn -0.3614 -0.9324 0.0000
vn 0.0000 -1.0000 0.0000
vn 0.3614 -0.9324 0.0000
vn 0.6735 -0.7392 0.0000
vn 0.8951 -0.4458 0.0000
vn 0.9957 -0.0923 0.0000
vn 0.9618 0.2738 0.0000
vn 0.7980 0.6026 0.0000
vn -0.0760 0.0216 -0.9969
vn 0.5263 0.8503 0.0000
vn 0.1836 0.9830 0.0000
vn -0.0000 -0.0000 1.0000
vn 0.9618 0.2739 0.0000
vn 0.0000 -0.0790 -0.9969
vn 0.0760 0.0216 -0.9969
vn -0.0416 0.0672 -0.9969
vn -0.0532 -0.0584 -0.9969
vn 0.0707 -0.0352 -0.9969
vn 0.0145 0.0780 -0.9968
vn -0.0787 -0.0073 -0.9969
vn 0.0285 -0.0737 -0.9969
vn 0.0630 0.0476 -0.9969
vn -0.0630 0.0476 -0.9969
vn -0.0285 -0.0737 -0.9969
vn -0.0145 0.0780 -0.9968
vn 0.0787 -0.0073 -0.9969
vn -0.0707 -0.0352 -0.9969
vn 0.0532 -0.0584 -0.9969
vn 0.0416 0.0672 -0.9969
vn -0.5261 0.8504 0.0000
vn -0.6737 -0.7390 0.0000
vn 0.7981 0.6026 0.0000
vn 0.5261 0.8504 0.0000
vn 0.0000 0.0000 -1.0000
vn 0.1841 0.9829 0.0000
vn -0.7981 0.6026 0.0000
vn 0.6737 -0.7390 0.0000
vn -0.9618 0.2739 0.0000
vn 0.8953 -0.4456 0.0000
vn -0.8953 -0.4456 0.0000
vn -0.1301 0.6950 -0.7071
vn -0.3721 0.6013 -0.7071
vn -0.5643 0.4261 -0.7071
vn -0.6801 0.1937 -0.7070
vn -0.7042 -0.0653 -0.7070
vn -0.6331 -0.3151 -0.7071
vn -0.4763 -0.5226 -0.7071
vn -0.2555 -0.6596 -0.7069
vn 0.0000 -0.7075 -0.7067
vn 0.2556 -0.6592 -0.7072
vn 0.4763 -0.5226 -0.7071
vn 0.6331 -0.3151 -0.7071
vn 0.7042 -0.0654 -0.7070
vn 0.6803 0.1934 -0.7070
vn 0.5643 0.4261 -0.7071
vn 0.3721 0.6013 -0.7071
vn 0.1301 0.6950 -0.7071
vn -0.1841 0.9829 0.0000
vn -0.1837 0.0000 -0.9830
vn 0.7980 0.0000 -0.6026
vn 0.9618 0.0000 -0.2737
vn 0.9957 -0.0000 0.0923
vn 0.8952 -0.0000 0.4457
vn 0.6737 -0.0000 0.7390
vn 0.3613 -0.0000 0.9325
vn -0.3613 -0.0000 0.9325
vn -0.6737 -0.0000 0.7390
vn -0.8952 -0.0000 0.4457
vn -0.9957 -0.0000 0.0923
vn -0.9618 0.0000 -0.2737
vn -0.7980 0.0000 -0.6026
vn -0.5264 0.0000 -0.8502
vn 0.8654 0.2558 0.4309
vn -0.7322 0.5753 0.3646
vn 0.5264 0.0000 -0.8502
vn 0.1837 0.0000 -0.9830
vn 0.1775 -0.2589 -0.9495
vn 0.1299 -0.7071 -0.6950
vn 0.0475 -0.9659 -0.2544
vn 0.5085 -0.2588 -0.8213
vn 0.3722 -0.7071 -0.6012
vn 0.1362 -0.9659 -0.2200
vn 0.7709 -0.2588 -0.5821
vn 0.5643 -0.7071 -0.4261
vn 0.2065 -0.9659 -0.1559
vn 0.9291 -0.2587 -0.2643
vn 0.6801 -0.7071 -0.1935
vn 0.2489 -0.9659 -0.0708
vn 0.9618 -0.2588 0.0891
vn 0.7041 -0.7071 0.0653
vn 0.2577 -0.9659 0.0239
vn 0.8647 -0.2588 0.4305
vn 0.6330 -0.7071 0.3152
vn 0.2316 -0.9659 0.1153
vn 0.6508 -0.2588 0.7138
vn 0.4764 -0.7071 0.5226
vn 0.1743 -0.9659 0.1912
vn 0.3489 -0.2588 0.9007
vn 0.2554 -0.7071 0.6594
vn 0.0935 -0.9659 0.2413
vn 0.0000 -0.2589 0.9659
vn 0.0000 -0.7071 0.7071
vn 0.0000 -0.9659 0.2588
vn -0.3489 -0.2588 0.9007
vn -0.2554 -0.7071 0.6594
vn -0.0935 -0.9659 0.2413
vn -0.6508 -0.2588 0.7138
vn -0.4764 -0.7071 0.5226
vn -0.1743 -0.9659 0.1912
vn -0.8647 -0.2588 0.4305
vn -0.6330 -0.7071 0.3152
vn -0.2316 -0.9659 0.1153
vn -0.9618 -0.2588 0.0891
vn -0.7041 -0.7071 0.0653
vn -0.2577 -0.9659 0.0239
vn -0.9291 -0.2587 -0.2643
vn -0.6801 -0.7071 -0.1935
vn -0.2489 -0.9659 -0.0708
vn -0.7709 -0.2588 -0.5821
vn -0.5643 -0.7071 -0.4261
vn -0.2065 -0.9659 -0.1559
vn -0.5085 -0.2588 -0.8213
vn -0.3722 -0.7071 -0.6012
vn -0.1362 -0.9659 -0.2200
vn -0.1775 -0.2589 -0.9495
vn -0.1299 -0.7071 -0.6950
vn -0.0475 -0.9659 -0.2544
vn -0.6513 0.2558 0.7144
vn -0.5089 0.2559 -0.8219
vn 0.9298 0.2558 -0.2645
vn 0.0000 0.2559 0.9667
vn -0.9298 0.2558 -0.2645
vn 0.5089 0.2559 -0.8219
vn 0.6513 0.2558 0.7144
vn -0.8654 0.2558 0.4309
vn -0.1776 0.2558 -0.9503
vn 0.9626 0.2558 0.0892
vn -0.3492 0.2558 0.9014
vn -0.7715 0.2558 -0.5826
vn 0.7715 0.2558 -0.5826
vn 0.3492 0.2558 0.9014
vn 0.1776 0.2558 -0.9503
vn -0.9626 0.2558 0.0892
vn -0.2460 0.7322 0.6351
vn 0.4306 0.5753 -0.6954
vn -0.1503 0.5753 -0.8040
vn 0.5511 0.5753 0.6045
vn -0.4306 0.5753 -0.6954
vn 0.7322 0.5753 0.3646
vn -0.5511 0.5753 0.6045
vn 0.1503 0.5753 -0.8040
vn -0.2955 0.5753 0.7627
vn -0.6527 0.5753 -0.4929
vn 0.8145 0.5753 0.0754
vn -0.7867 0.5753 -0.2238
vn 0.7867 0.5753 -0.2238
vn 0.0000 0.5753 0.8179
vn 0.2955 0.5753 0.7627
vn -0.8145 0.5753 0.0754
vn 0.6527 0.5753 -0.4929
vn 0.3885 0.8170 0.4262
vn -0.1251 0.7322 -0.6695
vn 0.3585 0.7322 -0.5790
vn 0.0000 0.7322 0.6810
vn -0.3585 0.7322 -0.5790
vn 0.1251 0.7322 -0.6695
vn 0.2460 0.7322 0.6351
vn -0.5435 0.7322 -0.4104
vn 0.4588 0.7322 0.5033
vn -0.6551 0.7322 -0.1864
vn 0.6097 0.7322 0.3036
vn -0.6782 0.7322 0.0628
vn 0.6782 0.7322 0.0628
vn -0.6097 0.7322 0.3036
vn 0.6551 0.7322 -0.1864
vn -0.4588 0.7322 0.5033
vn 0.5435 0.7322 -0.4104
vn -0.5547 0.8169 -0.1578
vn 0.5162 0.8170 0.2570
vn -0.5742 0.8170 0.0532
vn 0.5742 0.8170 0.0532
vn -0.5162 0.8170 0.2570
vn 0.5547 0.8169 -0.1578
vn -0.3885 0.8170 0.4262
vn 0.4602 0.8169 -0.3475
vn -0.2083 0.8170 0.5378
vn -0.1060 0.8170 -0.5669
vn 0.3036 0.8169 -0.4903
vn 0.0000 0.8170 0.5767
vn -0.3036 0.8169 -0.4903
vn 0.1060 0.8170 -0.5669
vn 0.2083 0.8170 0.5378
vn -0.4602 0.8169 -0.3475
vn 0.5265 0.0000 -0.8502
vn -0.7980 0.0000 -0.6027
vn -0.5265 0.0000 -0.8502
vn 0.6736 -0.0000 0.7391
vn -0.9618 0.0000 -0.2736
vn 0.9618 0.0000 -0.2736
vn -0.6736 -0.0000 0.7391
vn -0.1299 0.7069 -0.6952
vn -0.3724 0.7070 -0.6013
vn -0.5643 0.7070 -0.4262
vn -0.6802 0.7071 -0.1935
vn -0.7042 0.7070 0.0653
vn -0.6331 0.7070 0.3152
vn -0.4764 0.7070 0.5227
vn -0.2555 0.7069 0.6595
vn 0.0000 0.7069 0.7073
vn 0.2555 0.7069 0.6595
vn 0.4764 0.7070 0.5227
vn 0.6331 0.7070 0.3152
vn 0.7042 0.7070 0.0653
vn 0.6802 0.7071 -0.1935
vn 0.5643 0.7070 -0.4262
vn 0.3724 0.7070 -0.6013
vn 0.1299 0.7069 -0.6952
vn 0.0000 1.0000 0.0000
vn 0.9957 0.0000 0.0922
vn -0.9957 0.0000 0.0922
vn 0.7980 0.0000 -0.6027
vn 0.8951 -0.0000 0.4458
vn -0.8951 -0.0000 0.4458
vn 0.9618 0.0000 -0.2738
vn -0.1838 0.0000 -0.9830
vn 0.1838 0.0000 -0.9830
vn -0.9619 0.2735 0.0000
vn 0.9619 0.2735 -0.0000
vn -0.0764 0.0218 -0.9968
vn 0.9619 0.2736 0.0000
vn 0.0000 -0.0794 -0.9968
vn 0.0764 0.0218 -0.9968
vn -0.0415 0.0672 -0.9969
vn -0.0533 -0.0585 -0.9969
vn 0.0711 -0.0354 -0.9968
vn 0.0146 0.0781 -0.9968
vn -0.0791 -0.0073 -0.9968
vn 0.0287 -0.0741 -0.9968
vn 0.0634 0.0479 -0.9968
vn -0.0634 0.0479 -0.9968
vn -0.0287 -0.0741 -0.9968
vn -0.0146 0.0781 -0.9968
vn 0.0791 -0.0073 -0.9968
vn -0.0711 -0.0354 -0.9968
vn 0.0535 -0.0587 -0.9968
vn 0.0416 0.0673 -0.9969
vn -0.5265 0.8502 0.0000
vn 0.5265 0.8502 0.0000
vn -0.9619 0.2736 -0.0000
vn -0.1299 0.6950 -0.7072
vn -0.3722 0.6011 -0.7072
vn -0.5643 0.4261 -0.7072
vn -0.6801 0.1935 -0.7072
vn -0.7040 -0.0652 -0.7072
vn -0.6329 -0.3151 -0.7072
vn -0.4763 -0.5224 -0.7072
vn -0.2554 -0.6593 -0.7072
vn 0.0000 -0.7067 -0.7075
vn 0.2553 -0.6593 -0.7072
vn 0.4764 -0.5225 -0.7072
vn 0.6329 -0.3151 -0.7072
vn 0.7039 -0.0652 -0.7072
vn 0.6801 0.1935 -0.7072
vn 0.3722 0.6011 -0.7072
vn 0.1299 0.6951 -0.7071
vn -1.0000 0.0000 0.0000
vn 1.0000 0.0000 0.0000
vn 0.0000 0.9744 -0.2250
vn 0.0000 -0.9428 -0.3333
vn 0.0000 0.9882 -0.1529
vn 0.0000 0.9661 -0.2580
vn 0.0000 -0.9880 0.1544
vn 0.0000 -0.9765 0.2154
vn 0.0000 0.8120 -0.5836
vn 0.0000 -0.9225 0.3860
vn 0.0000 0.9225 -0.3859
vn 0.0000 -0.9641 0.2654
vn 0.0000 -0.8805 -0.4741
vn 0.0000 -1.0000 -0.0081
vn 0.0000 0.6690 -0.7433
vn 0.9940 -0.0425 0.1006
vn 0.0000 -0.5275 0.8495
vn 0.0000 -0.8496 -0.5275
vn 0.0000 0.8496 0.5275
vn 0.0000 0.9465 0.3228
vn 0.0000 -0.6252 -0.7805
vn 0.0000 0.9203 0.3913
vn -0.9940 -0.0425 0.1006
vn 0.0000 0.9569 0.2904
vn 0.0000 -0.9208 -0.3900
vn 0.0000 -0.9432 -0.3321
vn 0.0000 0.9977 -0.0675
vn 0.0000 -0.9873 -0.1587
vn 0.0000 0.9873 0.1588
vn 0.0000 -0.9591 -0.2831
vn 0.0000 -0.4981 -0.8671
vn 0.0000 -0.8453 -0.5343
vn 0.0000 0.9604 -0.2785
vn 0.0000 -0.1065 -0.9943
vn 0.9613 0.2735 -0.0324
vn 0.1024 0.0291 -0.9943
vn -0.0561 0.0906 -0.9943
vn -0.0717 -0.0787 -0.9943
vn 0.0953 -0.0475 -0.9943
vn 0.0196 0.1047 -0.9943
vn -0.1061 -0.0098 -0.9943
vn 0.0385 -0.0993 -0.9943
vn 0.0850 0.0642 -0.9943
vn -0.0850 0.0642 -0.9943
vn -0.0385 -0.0993 -0.9943
vn -0.0196 0.1047 -0.9943
vn 0.1061 -0.0098 -0.9943
vn -0.0953 -0.0475 -0.9943
vn 0.0717 -0.0787 -0.9943
vn 0.0561 0.0906 -0.9943
vn -0.1024 0.0291 -0.9943
vn -0.0369 0.0596 -0.9975
vn -0.6733 -0.7386 -0.0324
vn 0.7976 0.6023 -0.0324
vn -0.3611 -0.9320 -0.0324
vn -0.1836 0.9825 -0.0325
vn 0.5262 0.8498 -0.0324
vn 0.0000 -0.9995 -0.0324
vn -0.5262 0.8498 -0.0324
vn 0.1836 0.9825 -0.0325
vn 0.3611 -0.9320 -0.0324
vn -0.7976 0.6023 -0.0324
vn 0.6733 -0.7386 -0.0324
vn -0.9613 0.2735 -0.0324
vn 0.8947 -0.4455 -0.0324
vn -0.9952 -0.0922 -0.0325
vn 0.9952 -0.0922 -0.0325
vn -0.8947 -0.4455 -0.0324
vn -0.9168 -0.0850 -0.3903
vn 0.0129 0.0690 -0.9975
vn 0.0253 -0.0654 -0.9975
vn -0.0560 0.0423 -0.9975
vn 0.0473 -0.0518 -0.9975
vn -0.0675 0.0192 -0.9975
vn 0.0628 -0.0313 -0.9975
vn -0.0699 -0.0065 -0.9975
vn 0.0699 -0.0065 -0.9975
vn -0.0628 -0.0313 -0.9975
vn 0.0675 0.0192 -0.9975
vn -0.0473 -0.0518 -0.9975
vn 0.0560 0.0423 -0.9975
vn -0.0253 -0.0654 -0.9975
vn -0.0129 0.0690 -0.9975
vn 0.0369 0.0596 -0.9975
vn 0.0000 -0.0702 -0.9975
vn -0.3516 -0.9076 -0.2294
vn 0.9168 -0.0850 -0.3903
vn -0.8242 -0.4104 -0.3902
vn 0.8856 0.2520 -0.3902
vn -0.6203 -0.6805 -0.3901
vn 0.7348 0.5549 -0.3901
vn -0.3326 -0.8586 -0.3900
vn -0.1693 0.9049 -0.3905
vn 0.4847 0.7829 -0.3901
vn 0.0000 -0.9209 -0.3899
vn -0.4847 0.7829 -0.3901
vn 0.1693 0.9049 -0.3905
vn 0.3326 -0.8586 -0.3900
vn -0.7348 0.5549 -0.3901
vn 0.6203 -0.6805 -0.3901
vn -0.8856 0.2520 -0.3902
vn 0.8242 -0.4104 -0.3902
vn 0.6492 -0.7122 -0.2670
vn -0.1788 0.9568 -0.2294
vn 0.5124 0.8276 -0.2290
vn 0.0000 -0.9733 -0.2296
vn -0.5124 0.8276 -0.2290
vn 0.1788 0.9568 -0.2294
vn 0.3516 -0.9076 -0.2294
vn -0.7768 0.5866 -0.2294
vn 0.6557 -0.7193 -0.2293
vn -0.9362 0.2664 -0.2292
vn 0.8714 -0.4339 -0.2291
vn -0.9692 -0.0898 -0.2292
vn 0.9692 -0.0898 -0.2292
vn -0.8714 -0.4339 -0.2291
vn 0.9362 0.2664 -0.2292
vn -0.6557 -0.7193 -0.2293
vn 0.7768 0.5865 -0.2294
vn 0.9618 0.2737 0.0000
vn -0.9269 0.2637 -0.2670
vn 0.8627 -0.4295 -0.2670
vn -0.9596 -0.0889 -0.2670
vn 0.9596 -0.0889 -0.2670
vn -0.8627 -0.4295 -0.2670
vn 0.9269 0.2637 -0.2670
vn -0.6492 -0.7122 -0.2670
vn 0.7691 0.5807 -0.2670
vn -0.3481 -0.8986 -0.2670
vn -0.1771 0.9473 -0.2670
vn 0.5073 0.8194 -0.2670
vn 0.0000 -0.9637 -0.2670
vn -0.5073 0.8194 -0.2670
vn 0.1771 0.9473 -0.2670
vn 0.3481 -0.8986 -0.2670
vn -0.7691 0.5807 -0.2670
vn -0.3612 -0.9325 -0.0000
vn -0.1837 0.9830 0.0000
vn 0.5264 0.8502 0.0000
vn -0.5264 0.8502 0.0000
vn 0.1837 0.9830 0.0000
vn 0.3612 -0.9325 -0.0000
vn -0.9618 0.2737 0.0000
vn 0.8952 -0.4457 -0.0000
vn -0.9957 -0.0922 -0.0000
vn 0.9957 -0.0922 -0.0000
vn -0.8952 -0.4457 -0.0000
vn 0.1837 -0.9830 0.0000
vn -0.5265 -0.8502 -0.0000
vn 0.5265 -0.8502 -0.0000
vn -0.1837 -0.9830 0.0000
vn -0.3612 0.9325 0.0000
vn 0.7980 -0.6026 -0.0000
vn -0.6737 0.7390 0.0000
vn 0.9618 -0.2737 0.0000
vn -0.8952 0.4457 0.0000
vn 0.9957 0.0923 0.0000
vn -0.9957 0.0923 0.0000
vn 0.8952 0.4457 0.0000
vn -0.9618 -0.2737 0.0000
vn 0.6737 0.7390 0.0000
vn -0.7980 -0.6026 -0.0000
vn 0.3612 0.9325 0.0000
usemtl Material.003
s 1
f 1/1/1 2/2/1 3/3/1 4/4/1
f 4/4/2 3/3/2 5/5/2 6/6/2
f 6/6/3 5/5/3 7/7/3 8/8/3
f 8/8/4 7/7/4 9/9/4 10/10/4
f 10/10/5 9/9/5 11/11/5 12/12/5
f 12/12/6 11/11/6 13/13/6 14/14/6
f 14/14/7 13/13/7 15/15/7 16/16/7
f 16/16/8 15/15/8 17/17/8 18/18/8
f 18/18/9 17/17/9 19/19/9 20/20/9
f 20/20/10 19/19/10 21/21/10 22/22/10
f 22/22/11 21/21/11 23/23/11 24/24/11
f 24/24/12 23/23/12 25/25/12 26/26/12
f 26/26/13 25/25/13 27/27/13 28/28/13
f 28/28/14 27/27/14 29/29/14 30/30/14
f 30/30/15 29/29/15 31/31/15 32/32/15
f 9/9/16 7/7/16 33/33/16 34/34/16
f 32/32/17 31/31/17 35/35/17 36/36/17
f 36/36/18 35/35/18 2/37/18 1/38/18
f 1/39/19 4/40/19 6/41/19 8/42/19 10/43/19 12/44/19 14/45/19 16/46/19 18/47/19 20/48/19 22/49/19 24/50/19 26/51/19 28/52/19 30/53/19 32/54/19 36/55/19
f 37/56/20 38/57/20 39/58/20 40/59/20
f 19/19/21 17/17/21 41/60/21 42/61/21
f 29/29/22 27/27/22 38/62/22 37/63/22
f 5/5/23 3/3/23 43/64/23 44/65/23
f 15/15/24 13/13/24 45/66/24 46/67/24
f 25/25/25 23/23/25 47/68/25 48/69/25
f 2/37/26 35/35/26 49/70/26 50/71/26
f 11/11/27 9/9/27 34/34/27 51/72/27
f 21/21/28 19/19/28 42/61/28 52/73/28
f 31/31/29 29/29/29 37/63/29 53/74/29
f 7/7/30 5/5/30 44/65/30 33/33/30
f 17/17/31 15/15/31 46/67/31 41/60/31
f 3/3/32 2/2/32 50/75/32 43/64/32
f 27/27/33 25/25/33 48/69/33 38/62/33
f 13/13/34 11/11/34 51/72/34 45/66/34
f 23/23/35 21/21/35 52/73/35 47/68/35
f 35/35/36 31/31/36 53/74/36 49/70/36
f 44/76/37 43/77/37 54/78/37 55/79/37
f 46/80/38 45/81/38 56/82/38 57/83/38
f 53/84/39 37/56/39 40/59/39 58/85/39
f 41/86/8 46/80/8 57/83/8 59/87/8
f 49/88/40 53/84/40 58/85/40 60/89/40
f 42/90/9 41/86/9 59/87/9 61/91/9
f 62/92/41 63/93/41 64/94/41 65/95/41 66/96/41 67/97/41 68/98/41 69/99/41 70/100/41 71/101/41 72/102/41 73/103/41 74/104/41 75/105/41 76/106/41 77/107/41 78/108/41
f 52/109/10 42/90/10 61/91/10 79/110/10
f 50/111/42 49/88/42 60/89/42 80/112/42
f 33/113/43 44/76/43 55/79/43 81/114/43
f 47/115/44 52/109/44 79/110/44 82/116/44
f 34/117/45 33/113/45 81/114/45 83/118/45
f 48/119/46 47/115/46 82/116/46 84/120/46
f 51/121/5 34/117/5 83/118/5 85/122/5
f 38/57/13 48/119/13 84/120/13 39/58/13
f 45/81/47 51/121/47 85/122/47 56/82/47
f 54/123/48 80/124/48 63/93/48 62/92/48
f 55/125/49 54/123/49 62/92/49 78/108/49
f 81/126/50 55/125/50 78/108/50 77/107/50
f 83/127/51 81/126/51 77/107/51 76/106/51
f 85/128/52 83/127/52 76/106/52 75/105/52
f 56/129/53 85/128/53 75/105/53 74/104/53
f 57/130/54 56/129/54 74/104/54 73/103/54
f 59/131/55 57/130/55 73/103/55 72/102/55
f 61/132/56 59/131/56 72/102/56 71/101/56
f 79/133/57 61/132/57 71/101/57 70/100/57
f 82/134/58 79/133/58 70/100/58 69/99/58
f 84/135/59 82/134/59 69/99/59 68/98/59
f 39/136/60 84/135/60 68/98/60 67/97/60
f 40/137/61 39/136/61 67/97/61 66/96/61
f 58/138/62 40/137/62 66/96/62 65/95/62
f 60/139/63 58/138/63 65/95/63 64/94/63
f 80/124/64 60/139/64 64/94/64 63/93/64
f 43/77/65 50/140/65 80/141/65 54/78/65
f 86/142/66 87/143/66 88/144/66 89/145/66
f 90/146/67 91/147/67 92/148/67 93/149/67
f 93/149/68 92/148/68 94/150/68 95/151/68
f 95/151/69 94/150/69 96/152/69 97/153/69
f 97/153/70 96/152/70 98/154/70 99/155/70
f 99/155/71 98/154/71 100/156/71 101/157/71
f 101/157/72 100/156/72 102/158/72 103/159/72
f 103/160/19 102/161/19 104/162/19 105/163/19
f 105/164/73 104/165/73 106/166/73 107/167/73
f 107/167/74 106/166/74 108/168/74 109/169/74
f 109/169/75 108/168/75 110/170/75 111/171/75
f 111/171/76 110/170/76 112/172/76 113/173/76
f 113/173/77 112/172/77 114/174/77 115/175/77
f 115/175/78 114/174/78 116/176/78 117/177/78
f 117/177/79 116/176/79 87/143/79 86/142/79
f 98/154/80 96/152/80 118/178/80 119/179/80
f 120/180/81 121/181/81 122/182/81 123/183/81
f 124/184/82 125/185/82 91/147/82 90/146/82
f 89/186/83 88/187/83 125/185/83 124/184/83
f 89/188/84 124/189/84 126/190/84 127/191/84
f 127/192/85 126/193/85 128/194/85 129/195/85
f 129/195/86 128/194/86 130/196/86 131/197/86
f 124/189/87 90/198/87 132/199/87 126/200/87
f 126/201/88 132/202/88 133/203/88 128/194/88
f 128/194/89 133/203/89 134/204/89 130/196/89
f 90/198/90 93/205/90 135/206/90 132/207/90
f 132/208/91 135/209/91 136/210/91 133/203/91
f 133/203/92 136/210/92 137/211/92 134/204/92
f 93/205/93 95/212/93 138/213/93 135/214/93
f 135/215/94 138/216/94 139/217/94 136/210/94
f 136/210/95 139/217/95 140/218/95 137/211/95
f 95/212/96 97/219/96 141/220/96 138/221/96
f 138/222/97 141/223/97 142/224/97 139/217/97
f 139/217/98 142/224/98 143/225/98 140/218/98
f 97/219/99 99/226/99 144/227/99 141/228/99
f 141/229/100 144/230/100 145/231/100 142/224/100
f 142/224/101 145/231/101 146/232/101 143/225/101
f 99/226/102 101/233/102 147/234/102 144/235/102
f 144/236/103 147/237/103 148/238/103 145/231/103
f 145/231/104 148/238/104 149/239/104 146/232/104
f 101/233/105 103/240/105 150/241/105 147/242/105
f 147/243/106 150/244/106 151/245/106 148/238/106
f 148/238/107 151/245/107 152/246/107 149/239/107
f 103/240/108 105/247/108 153/248/108 150/249/108
f 150/250/109 153/251/109 154/252/109 151/245/109
f 151/245/110 154/252/110 155/253/110 152/246/110
f 105/247/111 107/254/111 156/255/111 153/256/111
f 153/257/112 156/258/112 157/259/112 154/252/112
f 154/252/113 157/259/113 158/260/113 155/253/113
f 107/254/114 109/261/114 159/262/114 156/263/114
f 156/264/115 159/265/115 160/266/115 157/259/115
f 157/259/116 160/266/116 161/267/116 158/260/116
f 109/261/117 111/268/117 162/269/117 159/270/117
f 159/271/118 162/272/118 163/273/118 160/266/118
f 160/266/119 163/273/119 164/274/119 161/267/119
f 111/268/120 113/275/120 165/276/120 162/277/120
f 162/278/121 165/279/121 166/280/121 163/273/121
f 163/273/122 166/280/122 167/281/122 164/274/122
f 113/275/123 115/282/123 168/283/123 165/284/123
f 165/285/124 168/286/124 169/287/124 166/280/124
f 166/280/125 169/287/125 170/288/125 167/281/125
f 115/282/126 117/289/126 171/290/126 168/291/126
f 168/292/127 171/293/127 172/294/127 169/287/127
f 169/287/128 172/294/128 173/295/128 170/288/128
f 117/289/129 86/296/129 174/297/129 171/298/129
f 171/299/130 174/300/130 175/301/130 172/294/130
f 172/294/131 175/301/131 176/302/131 173/295/131
f 86/296/132 89/303/132 127/304/132 174/305/132
f 174/306/133 127/307/133 129/195/133 175/301/133
f 175/301/134 129/195/134 131/197/134 176/302/134
f 131/197/9 130/196/9 134/204/9 137/211/9 140/218/9 143/225/9 146/232/9 149/239/9 152/246/9 155/253/9 158/260/9 161/267/9 164/274/9 167/281/9 170/288/9 173/295/9 176/302/9
f 108/168/135 106/166/135 177/308/135 121/181/135
f 87/143/136 116/176/136 178/309/136 179/310/136
f 94/150/137 92/148/137 180/311/137 181/312/137
f 104/162/138 102/161/138 182/313/138 183/314/138
f 114/174/139 112/172/139 184/315/139 185/316/139
f 91/147/140 125/185/140 186/317/140 187/318/140
f 100/156/141 98/154/141 119/179/141 188/319/141
f 110/170/142 108/168/142 121/181/142 120/180/142
f 88/144/143 87/143/143 179/310/143 189/320/143
f 96/152/144 94/150/144 181/312/144 118/178/144
f 106/166/145 104/165/145 183/321/145 177/308/145
f 116/176/146 114/174/146 185/316/146 178/309/146
f 92/148/147 91/147/147 187/318/147 180/311/147
f 102/158/148 100/156/148 188/319/148 182/322/148
f 125/185/149 88/187/149 189/323/149 186/317/149
f 112/172/150 110/170/150 120/180/150 184/315/150
f 190/324/151 191/325/151 192/326/151 193/327/151
f 187/318/152 186/317/152 194/328/152 195/329/152
f 189/320/153 179/310/153 196/330/153 197/331/153
f 188/319/154 119/179/154 198/332/154 199/333/154
f 179/310/155 178/309/155 200/334/155 196/330/155
f 119/179/156 118/178/156 201/335/156 198/332/156
f 121/181/157 177/308/157 190/324/157 122/182/157
f 186/317/158 189/323/158 197/336/158 194/328/158
f 177/308/159 183/321/159 191/325/159 190/324/159
f 178/309/160 185/316/160 202/337/160 200/334/160
f 118/178/161 181/312/161 203/338/161 201/335/161
f 185/316/162 184/315/162 204/339/162 202/337/162
f 181/312/163 180/311/163 205/340/163 203/338/163
f 183/314/164 182/313/164 206/341/164 191/342/164
f 182/322/165 188/319/165 199/333/165 206/343/165
f 184/315/166 120/180/166 123/183/166 204/339/166
f 180/311/167 187/318/167 195/329/167 205/340/167
f 207/344/168 208/345/168 209/346/168 210/347/168
f 197/331/169 196/330/169 211/348/169 212/349/169
f 195/329/170 194/328/170 213/350/170 214/351/170
f 191/342/171 206/341/171 215/352/171 192/353/171
f 196/330/172 200/334/172 216/354/172 211/348/172
f 194/328/173 197/336/173 212/355/173 213/350/173
f 206/343/174 199/333/174 207/344/174 215/356/174
f 200/334/175 202/337/175 217/357/175 216/354/175
f 199/333/176 198/332/176 208/345/176 207/344/176
f 202/337/177 204/339/177 218/358/177 217/357/177
f 198/332/178 201/335/178 219/359/178 208/345/178
f 204/339/179 123/183/179 220/360/179 218/358/179
f 201/335/180 203/338/180 221/361/180 219/359/180
f 123/183/181 122/182/181 222/362/181 220/360/181
f 203/338/182 205/340/182 223/363/182 221/361/182
f 122/182/183 190/324/183 193/327/183 222/362/183
f 205/340/184 195/329/184 214/351/184 223/363/184
f 224/364/67 225/365/67 226/366/67 227/367/67
f 217/357/185 218/358/185 228/368/185 229/369/185
f 208/345/186 219/359/186 230/370/186 209/346/186
f 218/358/187 220/360/187 231/371/187 228/368/187
f 219/359/188 221/361/188 232/372/188 230/370/188
f 220/360/189 222/362/189 233/373/189 231/371/189
f 221/361/190 223/363/190 224/374/190 232/372/190
f 222/362/191 193/327/191 234/375/191 233/373/191
f 223/363/192 214/351/192 225/376/192 224/374/192
f 193/327/193 192/326/193 235/377/193 234/375/193
f 212/349/194 211/348/194 236/378/194 237/379/194
f 214/351/195 213/350/195 238/380/195 225/376/195
f 192/353/196 215/352/196 239/381/196 235/382/196
f 211/348/197 216/354/197 240/383/197 236/378/197
f 213/350/198 212/355/198 237/384/198 238/380/198
f 215/356/199 207/344/199 210/347/199 239/385/199
f 216/354/200 217/357/200 229/369/200 240/383/200
f 238/386/83 237/387/83 241/388/83 242/389/83
f 234/390/73 235/391/73 243/392/73 244/393/73
f 225/365/201 238/386/201 242/389/201 226/366/201
f 235/391/19 239/394/19 245/395/19 243/392/19
f 246/396/202 247/397/202 248/398/202 249/399/202
f 239/394/72 210/400/72 250/401/72 245/395/72
f 240/402/78 229/403/78 251/404/78 252/405/78
f 236/406/203 240/402/203 252/405/203 253/407/203
f 210/400/204 209/408/204 254/409/204 250/401/204
f 229/403/205 228/410/205 255/411/205 251/404/205
f 209/408/70 230/412/70 256/413/70 254/409/70
f 228/410/76 231/414/76 257/415/76 255/411/76
f 230/412/69 232/416/69 258/417/69 256/413/69
f 231/414/75 233/418/75 259/419/75 257/415/75
f 232/416/206 224/364/206 227/367/206 258/417/206
f 233/418/207 234/390/207 244/393/207 259/419/207
f 241/420/208 253/421/208 260/422/208 261/423/208
f 253/421/209 252/424/209 246/425/209 260/422/209
f 252/424/210 251/426/210 247/427/210 246/425/210
f 251/426/211 255/428/211 262/429/211 247/427/211
f 255/428/212 257/430/212 263/431/212 262/429/212
f 257/430/213 259/432/213 264/433/213 263/431/213
f 259/432/214 244/434/214 265/435/214 264/433/214
f 244/434/215 243/436/215 266/437/215 265/435/215
f 243/436/216 245/438/216 267/439/216 266/437/216
f 245/438/217 250/440/217 268/441/217 267/439/217
f 250/440/218 254/442/218 269/443/218 268/441/218
f 254/442/219 256/444/219 270/445/219 269/443/219
f 256/444/220 258/446/220 271/447/220 270/445/220
f 258/446/221 227/448/221 272/449/221 271/447/221
f 227/448/222 226/450/222 273/451/222 272/449/222
f 226/450/223 242/452/223 274/453/223 273/451/223
f 242/452/224 241/420/224 261/423/224 274/453/224
f 237/454/66 236/406/66 253/407/66 241/455/66
f 275/456/225 276/457/225 277/458/225 278/459/225
f 265/460/73 266/461/73 276/457/73 275/456/73
f 270/462/226 271/463/226 279/464/226 280/465/226
f 261/466/66 260/467/66 281/468/66 282/469/66
f 263/470/75 264/471/75 283/472/75 284/473/75
f 268/474/71 269/475/71 285/476/71 286/477/71
f 273/478/201 274/479/201 287/480/201 288/481/201
f 247/397/205 262/482/205 289/483/205 248/398/205
f 266/461/19 267/484/19 290/485/19 276/457/19
f 271/463/206 272/486/206 291/487/206 279/464/206
f 274/479/83 261/466/83 282/469/83 287/480/83
f 260/467/203 246/396/203 249/399/203 281/468/203
f 264/471/74 265/460/74 275/456/74 283/472/74
f 269/475/70 270/462/70 280/465/70 285/476/70
f 262/482/227 263/470/227 284/473/227 289/483/227
f 267/484/72 268/474/72 286/477/72 290/485/72
f 272/486/228 273/478/228 288/481/228 291/487/228
f 292/488/71 293/489/71 294/490/71 295/491/71
f 282/469/225 281/468/225 296/492/225 297/493/225
f 288/481/225 287/480/225 298/494/225 299/495/225
f 276/457/225 290/485/225 300/496/225 277/458/225
f 281/468/225 249/399/225 301/497/225 296/492/225
f 287/480/225 282/469/225 297/493/225 298/494/225
f 290/485/225 286/477/225 292/498/225 300/496/225
f 249/399/225 248/398/225 302/499/225 301/497/225
f 286/477/225 285/476/225 293/500/225 292/498/225
f 248/398/225 289/483/225 303/501/225 302/499/225
f 285/476/225 280/465/225 304/502/225 293/500/225
f 289/483/225 284/473/225 305/503/225 303/501/225
f 280/465/225 279/464/225 306/504/225 304/502/225
f 284/473/225 283/472/225 307/505/225 305/503/225
f 279/464/225 291/487/225 308/506/225 306/504/225
f 283/472/225 275/456/225 278/459/225 307/505/225
f 291/487/225 288/481/225 299/495/225 308/506/225
f 309/507/225 310/508/225 311/509/225 312/510/225 313/511/225 314/512/225 315/513/225 316/514/225 317/515/225 318/516/225 319/517/225 295/518/225 294/519/225 320/520/225 321/521/225 322/522/225 323/523/225
f 302/524/77 303/525/77 314/526/77 313/527/77
f 293/489/229 304/528/229 320/529/229 294/490/229
f 303/525/227 305/530/227 315/531/227 314/526/227
f 304/528/69 306/532/69 321/533/69 320/529/69
f 305/530/230 307/534/230 316/535/230 315/531/230
f 306/532/231 308/536/231 322/537/231 321/533/231
f 307/534/74 278/538/74 317/539/74 316/535/74
f 308/536/67 299/540/67 323/541/67 322/537/67
f 278/538/73 277/542/73 318/543/73 317/539/73
f 297/544/232 296/545/232 311/546/232 310/547/232
f 299/540/82 298/548/82 309/549/82 323/541/82
f 277/542/19 300/550/19 319/551/19 318/543/19
f 296/545/79 301/552/79 312/553/79 311/546/79
f 298/548/233 297/544/233 310/547/233 309/549/233
f 300/550/72 292/488/72 295/491/72 319/551/72
f 301/552/78 302/524/78 313/527/78 312/553/78
f 324/554/1 325/555/1 326/556/1 327/557/1
f 327/557/2 326/556/2 328/558/2 329/559/2
f 329/559/3 328/558/3 330/560/3 331/561/3
f 331/561/234 330/560/234 332/562/234 333/563/234
f 333/563/5 332/562/5 334/564/5 335/565/5
f 335/565/6 334/564/6 336/566/6 337/567/6
f 337/567/7 336/566/7 338/568/7 339/569/7
f 339/569/8 338/568/8 340/570/8 341/571/8
f 341/571/9 340/570/9 342/572/9 343/573/9
f 343/573/10 342/572/10 344/574/10 345/575/10
f 345/575/11 344/574/11 346/576/11 347/577/11
f 347/577/12 346/576/12 348/578/12 349/579/12
f 349/579/13 348/578/13 350/580/13 351/581/13
f 351/581/235 350/580/235 352/582/235 353/583/235
f 353/583/15 352/582/15 354/584/15 355/585/15
f 332/586/236 330/587/236 356/588/236 357/589/236
f 355/585/17 354/584/17 358/590/17 359/591/17
f 359/591/18 358/590/18 325/592/18 324/593/18
f 360/594/237 361/595/237 362/596/237 363/597/237
f 342/598/238 340/599/238 364/600/238 365/601/238
f 352/602/239 350/603/239 361/595/239 360/594/239
f 328/604/240 326/605/240 366/606/240 367/607/240
f 338/608/241 336/609/241 368/610/241 369/611/241
f 348/612/242 346/613/242 370/614/242 371/615/242
f 325/616/243 358/617/243 372/618/243 373/619/243
f 334/620/244 332/586/244 357/589/244 374/621/244
f 344/622/245 342/598/245 365/601/245 375/623/245
f 354/624/246 352/602/246 360/594/246 376/625/246
f 330/587/247 328/604/247 367/607/247 356/588/247
f 340/599/248 338/608/248 369/611/248 364/600/248
f 326/605/249 325/626/249 373/627/249 366/606/249
f 350/603/250 348/612/250 371/615/250 361/595/250
f 336/609/251 334/620/251 374/621/251 368/610/251
f 346/613/252 344/622/252 375/623/252 370/614/252
f 358/617/253 354/624/253 376/625/253 372/618/253
f 367/607/254 366/606/254 377/628/254 378/629/254
f 369/611/38 368/610/38 379/630/38 380/631/38
f 376/625/39 360/594/39 363/597/39 381/632/39
f 364/600/8 369/611/8 380/631/8 382/633/8
f 372/618/255 376/625/255 381/632/255 383/634/255
f 365/601/9 364/600/9 382/633/9 384/635/9
f 385/636/41 386/637/41 387/638/41 388/639/41 389/640/41 390/641/41 391/642/41 392/643/41 393/644/41 394/645/41 395/646/41 396/647/41 397/648/41 398/649/41 399/650/41 400/651/41 401/652/41
f 375/623/10 365/601/10 384/635/10 402/653/10
f 373/619/18 372/618/18 383/634/18 403/654/18
f 356/588/43 367/607/43 378/629/43 404/655/43
f 370/614/44 375/623/44 402/653/44 405/656/44
f 357/589/256 356/588/256 404/655/256 406/657/256
f 371/615/46 370/614/46 405/656/46 407/658/46
f 374/621/5 357/589/5 406/657/5 408/659/5
f 361/595/13 371/615/13 407/658/13 362/596/13
f 368/610/47 374/621/47 408/659/47 379/630/47
f 377/660/257 403/661/257 386/637/257 385/636/257
f 378/662/258 377/660/258 385/636/258 401/652/258
f 404/663/259 378/662/259 401/652/259 400/651/259
f 406/664/260 404/663/260 400/651/260 399/650/260
f 408/665/261 406/664/261 399/650/261 398/649/261
f 379/666/262 408/665/262 398/649/262 397/648/262
f 380/667/263 379/666/263 397/648/263 396/647/263
f 382/668/264 380/667/264 396/647/264 395/646/264
f 384/669/265 382/668/265 395/646/265 394/645/265
f 402/670/266 384/669/266 394/645/266 393/644/266
f 405/671/267 402/670/267 393/644/267 392/643/267
f 407/672/268 405/671/268 392/643/268 391/642/268
f 362/673/269 407/672/269 391/642/269 390/641/269
f 363/674/270 362/673/270 390/641/270 389/640/270
f 381/675/62 363/674/62 389/640/62 388/639/62
f 383/676/271 381/675/271 388/639/271 387/638/271
f 403/661/272 383/676/272 387/638/272 386/637/272
f 366/606/1 373/627/1 403/677/1 377/628/1
f 409/678/273 410/679/273 411/680/273 412/681/273
f 413/682/274 414/683/274 415/684/274 416/685/274
f 414/683/274 413/682/274 417/686/274 418/687/274
f 418/687/19 417/686/19 410/688/19 409/689/19
f 412/690/9 414/683/9 418/687/9 409/691/9
f 413/682/225 411/692/225 410/693/225 417/686/225
f 419/694/275 416/685/275 420/695/275 421/696/275
f 414/683/276 412/690/276 422/697/276 415/684/276
f 411/692/277 413/682/277 416/685/277 419/694/277
f 412/681/273 411/680/273 419/698/273 422/699/273
f 421/696/278 420/695/278 423/700/278 424/701/278
f 422/699/273 419/698/273 421/702/273 425/703/273
f 416/685/274 415/684/274 426/704/274 420/695/274
f 415/684/279 422/697/279 425/705/279 426/704/279
f 423/700/274 427/706/274 428/707/274 429/708/274
f 425/703/273 421/702/273 424/709/273 430/710/273
f 420/695/274 426/704/274 427/706/274 423/700/274
f 426/704/280 425/705/280 430/711/280 427/706/280
f 431/712/281 429/708/281 432/713/281 433/714/281
f 427/706/282 430/711/282 434/715/282 428/707/282
f 424/701/283 423/700/283 429/708/283 431/712/283
f 430/710/273 424/709/273 431/716/273 434/717/273
f 435/718/273 433/719/273 436/720/273 437/721/273
f 434/717/273 431/716/273 433/719/273 435/718/273
f 429/708/274 428/707/274 438/722/274 432/713/274
f 428/707/284 434/715/284 435/723/284 438/722/284
f 437/721/285 436/720/285 439/724/285 440/725/285
f 432/713/274 438/722/274 440/725/274 439/724/274
f 438/722/286 435/723/286 437/726/286 440/725/286
f 433/714/287 432/713/287 439/724/287 436/727/287
f 441/728/273 442/729/273 443/730/273 444/731/273
f 445/732/288 446/733/288 447/734/288 448/735/288
f 446/733/274 445/732/274 449/736/274 450/737/274
f 450/737/289 449/736/289 442/738/289 441/739/289
f 444/740/290 446/733/290 450/737/290 441/741/290
f 445/732/291 443/742/291 442/743/291 449/736/291
f 451/744/292 448/735/292 452/745/292 453/746/292
f 446/733/293 444/740/293 454/747/293 447/734/293
f 443/742/294 445/732/294 448/735/294 451/744/294
f 444/731/295 443/730/295 451/748/295 454/749/295
f 453/746/296 452/745/296 455/750/296 456/751/296
f 454/749/273 451/748/273 453/752/273 457/753/273
f 448/735/274 447/734/274 458/754/274 452/745/274
f 447/734/297 454/747/297 457/755/297 458/754/297
f 455/750/274 459/756/274 460/757/274 461/758/274
f 457/753/273 453/752/273 456/759/273 462/760/273
f 452/745/274 458/754/274 459/756/274 455/750/274
f 458/754/298 457/755/298 462/761/298 459/756/298
f 463/762/299 461/758/299 464/763/299 465/764/299
f 459/756/300 462/761/300 466/765/300 460/757/300
f 456/751/301 455/750/301 461/758/301 463/762/301
f 462/760/273 456/759/273 463/766/273 466/767/273
f 467/768/273 465/769/273 468/770/273 469/771/273
f 466/767/273 463/766/273 465/769/273 467/768/273
f 461/758/274 460/757/274 470/772/274 464/763/274
f 460/757/302 466/765/302 467/773/302 470/772/302
f 469/771/303 468/770/303 471/774/303 472/775/303
f 464/763/274 470/772/274 472/775/274 471/774/274
f 470/772/304 467/773/304 469/776/304 472/775/304
f 465/764/305 464/763/305 471/774/305 468/777/305
usemtl Material.004
f 341/778/306 343/779/306 473/780/306 474/781/306
f 475/782/307 476/783/307 477/784/307 478/785/307
f 351/786/308 353/787/308 476/783/308 475/782/308
f 327/788/309 329/789/309 479/790/309 480/791/309
f 337/792/310 339/793/310 481/794/310 482/795/310
f 347/796/311 349/797/311 483/798/311 484/799/311
f 359/800/312 324/801/312 485/802/312 486/803/312
f 333/804/313 335/805/313 487/806/313 488/807/313
f 343/779/314 345/808/314 489/809/314 473/780/314
f 353/787/315 355/810/315 490/811/315 476/783/315
f 329/789/316 331/812/316 491/813/316 479/790/316
f 339/793/317 341/778/317 474/781/317 481/794/317
f 324/814/318 327/788/318 480/791/318 485/815/318
f 349/797/319 351/786/319 475/782/319 483/798/319
f 335/805/320 337/792/320 482/795/320 487/806/320
f 345/808/321 347/796/321 484/799/321 489/809/321
f 355/810/322 359/800/322 486/803/322 490/811/322
f 331/812/323 333/804/323 488/807/323 491/813/323
f 492/816/324 493/817/324 494/818/324 495/819/324
f 482/795/325 481/794/325 496/820/325 497/821/325
f 476/783/326 490/811/326 498/822/326 477/784/326
f 481/794/327 474/781/327 499/823/327 496/820/327
f 485/815/328 480/791/328 492/816/328 500/824/328
f 490/811/329 486/803/329 501/825/329 498/822/329
f 474/781/330 473/780/330 502/826/330 499/823/330
f 480/791/331 479/790/331 493/817/331 492/816/331
f 486/803/332 485/802/332 500/827/332 501/825/332
f 473/780/333 489/809/333 503/828/333 502/826/333
f 479/790/334 491/813/334 504/829/334 493/817/334
f 489/809/335 484/799/335 505/830/335 503/828/335
f 491/813/336 488/807/336 506/831/336 504/829/336
f 484/799/337 483/798/337 507/832/337 505/830/337
f 488/807/338 487/806/338 508/833/338 506/831/338
f 483/798/339 475/782/339 478/785/339 507/832/339
f 487/806/340 482/795/340 497/821/340 508/833/340
f 509/834/341 510/835/341 511/836/341 512/837/341
f 501/825/342 500/827/342 513/838/342 514/839/342
f 502/826/343 503/828/343 515/840/343 516/841/343
f 493/817/344 504/829/344 517/842/344 494/818/344
f 503/828/345 505/830/345 518/843/345 515/840/345
f 504/829/346 506/831/346 509/834/346 517/842/346
f 505/830/347 507/832/347 519/844/347 518/843/347
f 506/831/348 508/833/348 510/835/348 509/834/348
f 507/832/349 478/785/349 520/845/349 519/844/349
f 508/833/350 497/821/350 521/846/350 510/835/350
f 478/785/351 477/784/351 522/847/351 520/845/351
f 497/821/352 496/820/352 523/848/352 521/846/352
f 477/784/353 498/822/353 524/849/353 522/847/353
f 496/820/354 499/823/354 525/850/354 523/848/354
f 500/824/355 492/816/355 495/819/355 513/851/355
f 498/822/356 501/825/356 514/839/356 524/849/356
f 499/823/357 502/826/357 516/841/357 525/850/357
f 526/852/358 527/853/358 528/854/358 529/855/358
f 519/844/359 520/845/359 530/856/359 531/857/359
f 510/835/360 521/846/360 532/858/360 511/836/360
f 520/845/361 522/847/361 533/859/361 530/856/361
f 521/846/362 523/848/362 526/852/362 532/858/362
f 522/847/363 524/849/363 534/860/363 533/859/363
f 523/848/364 525/850/364 527/853/364 526/852/364
f 513/851/365 495/819/365 535/861/365 536/862/365
f 524/849/366 514/839/366 537/863/366 534/860/366
f 525/850/367 516/841/367 538/864/367 527/853/367
f 495/819/368 494/818/368 539/865/368 535/861/368
f 514/839/369 513/838/369 536/866/369 537/863/369
f 516/841/370 515/840/370 540/867/370 538/864/370
f 494/818/371 517/842/371 541/868/371 539/865/371
f 515/840/372 518/843/372 542/869/372 540/867/372
f 517/842/373 509/834/373 512/837/373 541/868/373
f 518/843/374 519/844/374 531/857/374 542/869/374
f 543/870/375 544/871/375 545/872/375 546/873/375
f 536/862/376 535/861/376 547/874/376 548/875/376
f 534/860/377 537/863/377 549/876/377 550/877/377
f 527/853/378 538/864/378 551/878/378 528/854/378
f 535/861/379 539/865/379 552/879/379 547/874/379
f 537/863/380 536/866/380 548/880/380 549/876/380
f 538/864/381 540/867/381 543/870/381 551/878/381
f 539/865/382 541/868/382 553/881/382 552/879/382
f 540/867/383 542/869/383 544/871/383 543/870/383
f 541/868/384 512/837/384 554/882/384 553/881/384
f 542/869/385 531/857/385 555/883/385 544/871/385
f 512/837/386 511/836/386 556/884/386 554/882/386
f 531/857/387 530/856/387 557/885/387 555/883/387
f 511/836/388 532/858/388 558/886/388 556/884/388
f 530/856/389 533/859/389 559/887/389 557/885/389
f 532/858/390 526/852/390 529/855/390 558/886/390
f 533/859/391 534/860/391 550/877/391 559/887/391
f 560/888/392 561/889/392 562/890/392 563/891/392
f 553/881/393 554/882/393 564/892/393 565/893/393
f 544/871/394 555/883/394 566/894/394 545/872/394
f 554/882/395 556/884/395 567/895/395 564/892/395
f 555/883/396 557/885/396 560/888/396 566/894/396
f 556/884/397 558/886/397 568/896/397 567/895/397
f 557/885/398 559/887/398 561/889/398 560/888/398
f 558/886/399 529/855/399 569/897/399 568/896/399
f 559/887/400 550/877/400 570/898/400 561/889/400
f 529/855/401 528/854/401 571/899/401 569/897/401
f 548/875/402 547/874/402 572/900/402 573/901/402
f 550/877/403 549/876/403 574/902/403 570/898/403
f 528/854/404 551/878/404 575/903/404 571/899/404
f 547/874/405 552/879/405 576/904/405 572/900/405
f 549/876/406 548/880/406 573/905/406 574/902/406
f 551/878/407 543/870/407 546/873/407 575/903/407
f 552/879/408 553/881/408 565/893/408 576/904/408
f 577/906/19 563/891/19 578/907/19 579/908/19
f 568/896/38 569/897/38 580/909/38 581/910/38
f 561/889/15 570/898/15 582/911/15 562/890/15
f 569/897/409 571/899/409 583/912/409 580/909/409
f 573/901/410 572/900/410 584/913/410 585/914/410
f 570/898/411 574/902/411 586/915/411 582/911/411
f 571/899/9 575/903/9 587/916/9 583/912/9
f 572/900/412 576/904/412 588/917/412 584/913/412
f 574/902/413 573/905/413 585/918/413 586/915/413
f 575/903/414 546/873/414 589/919/414 587/916/414
f 576/904/3 565/893/3 590/920/3 588/917/3
f 546/873/44 545/872/44 591/921/44 589/919/44
f 565/893/415 564/892/415 592/922/415 590/920/415
f 545/872/416 566/894/416 577/906/416 591/921/416
f 564/892/417 567/895/417 593/923/417 592/922/417
f 566/894/418 560/888/418 563/891/418 577/906/418
f 567/895/419 568/896/419 581/910/419 593/923/419
f 594/924/420 595/925/420 596/926/420 597/927/420
f 593/923/19 581/910/19 598/928/19 599/929/19
f 563/891/19 562/890/19 600/930/19 578/907/19
f 581/910/19 580/909/19 601/931/19 598/928/19
f 562/890/19 582/911/19 602/932/19 600/930/19
f 580/909/19 583/912/19 603/933/19 601/931/19
f 585/914/19 584/913/19 595/925/19 594/924/19
f 582/911/19 586/915/19 604/934/19 602/932/19
f 583/912/19 587/916/19 605/935/19 603/933/19
f 584/913/19 588/917/19 606/936/19 595/925/19
f 586/915/19 585/918/19 594/937/19 604/934/19
f 587/916/19 589/919/19 607/938/19 605/935/19
f 588/917/19 590/920/19 608/939/19 606/936/19
f 589/919/19 591/921/19 609/940/19 607/938/19
f 590/920/19 592/922/19 610/941/19 608/939/19
f 591/921/19 577/906/19 579/908/19 609/940/19
f 592/922/19 593/923/19 599/929/19 610/941/19
f 597/942/19 596/943/19 611/944/19 612/945/19 613/946/19 614/947/19 615/948/19 616/949/19 617/950/19 618/951/19 619/952/19 620/953/19 621/954/19 622/955/19 623/956/19 624/957/19 625/958/19
f 602/932/421 604/934/421 625/959/421 624/960/421
f 603/933/225 605/935/225 618/961/225 617/962/225
f 595/925/422 606/936/422 611/963/422 596/926/422
f 604/934/423 594/937/423 597/964/423 625/959/423
f 605/935/424 607/938/424 619/965/424 618/961/424
f 606/936/425 608/939/425 612/966/425 611/963/425
f 607/938/426 609/940/426 620/967/426 619/965/426
f 608/939/427 610/941/427 613/968/427 612/966/427
f 609/940/428 579/908/428 621/969/428 620/967/428
f 610/941/429 599/929/429 614/970/429 613/968/429
f 579/908/430 578/907/430 622/971/430 621/969/430
f 599/929/431 598/928/431 615/972/431 614/970/431
f 578/907/432 600/930/432 623/973/432 622/971/432
f 598/928/433 601/931/433 616/974/433 615/972/433
f 600/930/434 602/932/434 624/960/434 623/973/434
f 601/931/435 603/933/435 617/962/435 616/974/435
