# Blender v2.93.0 OBJ File: ''
# www.blender.org
mtllib paiement.mtl
o Cylinder.001
v -0.115754 -1.414044 -0.405248
v 0.115132 -1.414044 -0.405248
v 0.115132 -1.429359 -0.403740
v -0.115754 -1.429359 -0.403740
v 0.115132 -1.444086 -0.399272
v -0.115754 -1.444086 -0.399272
v 0.115132 -1.457659 -0.392018
v -0.115754 -1.457659 -0.392018
v 0.115132 -1.469555 -0.382255
v -0.115754 -1.469555 -0.382255
v 0.115132 -1.479318 -0.370358
v -0.115754 -1.479318 -0.370358
v 0.115132 -1.486573 -0.356786
v -0.115754 -1.486573 -0.356786
v 0.115132 -1.491041 -0.342059
v -0.115754 -1.491041 -0.342059
v 0.115132 -1.492549 -0.326743
v -0.115754 -1.492549 -0.326743
v 0.115132 -1.491041 -0.311427
v -0.115754 -1.491041 -0.311427
v 0.115132 -1.486573 -0.296700
v -0.115754 -1.486573 -0.296700
v 0.115132 -1.479318 -0.283128
v -0.115754 -1.479318 -0.283128
v 0.115132 -1.469555 -0.271231
v -0.115754 -1.469555 -0.271231
v 0.115132 -1.426911 -0.245436
v -0.115754 -1.426911 -0.245436
v 0.115132 -1.413339 -0.238181
v -0.115754 -1.413339 -0.238181
v 0.115132 -1.422701 -0.249746
v -0.115754 -1.423916 -0.249746
v 0.115132 -1.414044 -0.248237
v -0.115754 -1.414044 -0.248237
v 0.115132 -1.398728 -0.249746
v -0.115754 -1.398728 -0.249746
v 0.115132 -1.384001 -0.254213
v -0.115754 -1.384001 -0.254213
v 0.115132 -1.370428 -0.261468
v -0.115754 -1.370428 -0.261468
v 0.115132 -1.358532 -0.271231
v -0.115754 -1.358532 -0.271231
v 0.115132 -1.348769 -0.283128
v -0.115754 -1.348769 -0.283128
v 0.115132 -1.341514 -0.296700
v -0.115754 -1.341514 -0.296700
v 0.115132 -1.337047 -0.311427
v -0.115754 -1.337047 -0.311427
v 0.115132 -1.335538 -0.326743
v -0.115754 -1.335538 -0.326743
v 0.115132 -1.337047 -0.342059
v -0.115754 -1.337047 -0.342059
v 0.115132 -1.341514 -0.356786
v -0.115754 -1.341514 -0.356786
v 0.115132 -1.348769 -0.370358
v -0.115754 -1.348769 -0.370358
v 0.115132 -1.358532 -0.382255
v -0.115754 -1.358532 -0.382255
v 0.115132 -1.370428 -0.392018
v -0.115754 -1.370428 -0.392018
v 0.115132 -1.384001 -0.399272
v -0.115754 -1.384001 -0.399272
v 0.115132 -1.398728 -0.403740
v -0.115754 -1.398728 -0.403740
v 0.120306 -1.494443 0.119020
v 0.120306 -1.458881 0.105325
v 0.120306 -1.438559 0.094943
v 0.120306 -1.429282 0.078377
v 0.120306 -1.392394 -0.034937
v 0.120306 -1.352271 -0.191581
v 0.120306 -1.343477 -0.232804
v 0.120306 -1.347874 -0.254789
v 0.120306 -1.358867 -0.266331
v 0.120306 -1.389646 -0.287767
v 0.120306 -1.411822 -0.301255
v 0.120306 -1.416110 -0.293545
v 0.120306 -1.429002 -0.251793
v 0.120306 -1.486714 0.037679
v 0.120306 -1.501071 0.132844
v 0.120306 -1.497425 0.138406
v -0.120651 -1.494443 0.119020
v -0.120651 -1.497425 0.138406
v -0.120651 -1.501071 0.132844
v -0.120651 -1.486714 0.037679
v -0.120651 -1.429002 -0.251793
v -0.120651 -1.416110 -0.293545
v -0.120651 -1.411822 -0.301255
v -0.120651 -1.389646 -0.287767
v -0.120651 -1.358867 -0.266331
v -0.120651 -1.347874 -0.254789
v -0.120651 -1.343477 -0.232804
v -0.120651 -1.352271 -0.191581
v -0.120651 -1.392394 -0.034937
v -0.120651 -1.429282 0.078377
v -0.120651 -1.438559 0.094943
v -0.120651 -1.458881 0.105325
v -0.083467 -1.339532 -0.341001
v -0.083467 -1.400770 -0.318467
v -0.110795 -1.400770 -0.318467
v -0.110795 -1.339532 -0.341001
v -0.083467 -1.441668 0.143194
v -0.083467 -1.432081 0.132456
v -0.110795 -1.429323 0.120605
v -0.110795 -1.438910 0.131342
v -0.083467 -1.497017 0.136163
v -0.110795 -1.494259 0.124312
v -0.083467 -1.426132 0.116376
v -0.083467 -1.399955 0.045622
v -0.110795 -1.399955 0.045622
v -0.110795 -1.426132 0.116376
v -0.083467 -1.376928 -0.031274
v -0.110795 -1.360514 -0.082561
v -0.083467 -1.333796 -0.185935
v -0.110795 -1.333796 -0.185935
v -0.083467 -1.489731 0.145622
v -0.083467 -1.477715 0.150607
v -0.110795 -1.474957 0.138756
v -0.110795 -1.486972 0.133771
v -0.083467 -1.317256 -0.260682
v -0.110795 -1.317256 -0.260682
v -0.083468 -1.457135 0.150352
v -0.110795 -1.454377 0.138501
v -0.083467 -1.318529 -0.281993
v -0.110795 -1.318529 -0.281993
v 0.110951 -1.486972 0.133771
v 0.110951 -1.494259 0.124312
v 0.110951 -1.400770 -0.318467
v 0.110951 -1.339532 -0.341001
v 0.110951 -1.318529 -0.281993
v 0.110951 -1.317256 -0.260682
v 0.110951 -1.333796 -0.185935
v 0.110951 -1.360514 -0.082561
v 0.110951 -1.399955 0.045622
v 0.110951 -1.426131 0.116376
v 0.110951 -1.429323 0.120605
v 0.110951 -1.438910 0.131342
v 0.110951 -1.454377 0.138501
v 0.110951 -1.474957 0.138756
v 0.081281 -1.497017 0.136163
v 0.081281 -1.489731 0.145622
v 0.000078 -1.489731 0.145622
v 0.000078 -1.497017 0.136163
v 0.081281 -1.318529 -0.281993
v 0.081281 -1.339532 -0.341001
v 0.000078 -1.339532 -0.341001
v 0.000078 -1.318529 -0.281993
v 0.081281 -1.477715 0.150607
v 0.081281 -1.457135 0.150352
v 0.000078 -1.457135 0.150352
v 0.000078 -1.477715 0.150607
v 0.081281 -1.317256 -0.260682
v 0.000078 -1.317256 -0.260682
v 0.081281 -1.441668 0.143194
v 0.000078 -1.441668 0.143194
v 0.081281 -1.333796 -0.185935
v 0.000078 -1.333796 -0.185935
v 0.000078 -1.376928 -0.031274
v 0.081281 -1.376928 -0.031274
v 0.080834 -1.380704 -0.032781
v 0.000074 -1.380704 -0.032781
v 0.081281 -1.399955 0.045622
v 0.000078 -1.399955 0.045622
v 0.081281 -1.426132 0.116376
v 0.000078 -1.426132 0.116376
v 0.081281 -1.400770 -0.318467
v 0.000078 -1.400770 -0.318467
v 0.081281 -1.432081 0.132456
v 0.000078 -1.432081 0.132456
v -0.083017 -1.337807 -0.186600
v 0.000074 -1.337807 -0.186600
v 0.080834 -1.337807 -0.186600
v -0.083017 -1.380704 -0.032781
v -0.078188 -1.382565 -0.001997
v -0.078188 -1.385948 -0.003004
v -0.078188 -1.384942 -0.006383
v -0.078188 -1.381559 -0.005375
v -0.041891 -1.381221 -0.006509
v -0.041891 -1.384605 -0.007517
v -0.040206 -1.384942 -0.006383
v -0.040206 -1.381559 -0.005375
v -0.040206 -1.385252 0.007028
v -0.040206 -1.388636 0.006021
v -0.040206 -1.389574 0.009172
v -0.040206 -1.386191 0.010179
v -0.076475 -1.386596 0.011540
v -0.076475 -1.389980 0.010533
v -0.078188 -1.389574 0.009172
v -0.078188 -1.386191 0.010179
v -0.041891 -1.385252 0.007028
v -0.041891 -1.386596 0.011540
v -0.076475 -1.388636 0.006021
v -0.078188 -1.388636 0.006021
v -0.041891 -1.388636 0.006021
v -0.059197 -1.388636 0.006021
v -0.059197 -1.389980 0.010533
v -0.041891 -1.389980 0.010533
v -0.076475 -1.385252 0.007028
v -0.059197 -1.385252 0.007028
v -0.059197 -1.386596 0.011540
v -0.076475 -1.381221 -0.006509
v -0.076475 -1.384605 -0.007517
v -0.059197 -1.384605 -0.007517
v -0.059197 -1.381221 -0.006509
v -0.078188 -1.385252 0.007028
v -0.059197 -1.382565 -0.001997
v -0.041891 -1.382565 -0.001997
v -0.041891 -1.383909 0.002516
v -0.059197 -1.383909 0.002516
v -0.040206 -1.385948 -0.003004
v -0.041891 -1.385948 -0.003004
v -0.041891 -1.387292 0.001508
v -0.040206 -1.387292 0.001508
v -0.059197 -1.385948 -0.003004
v -0.076475 -1.385948 -0.003004
v -0.076475 -1.387292 0.001508
v -0.059197 -1.387292 0.001508
v -0.076475 -1.382565 -0.001997
v -0.076475 -1.383909 0.002516
v -0.078188 -1.383909 0.002516
v -0.078188 -1.387292 0.001508
v -0.040206 -1.382565 -0.001997
v -0.040206 -1.383909 0.002516
v -0.018300 -1.382565 -0.001997
v -0.018300 -1.385948 -0.003004
v -0.018300 -1.384942 -0.006383
v -0.018300 -1.381559 -0.005375
v 0.017997 -1.381221 -0.006509
v 0.017997 -1.384605 -0.007517
v 0.019681 -1.384942 -0.006383
v 0.019681 -1.381559 -0.005375
v 0.019681 -1.385252 0.007028
v 0.019681 -1.388636 0.006021
v 0.019681 -1.389574 0.009172
v 0.019681 -1.386191 0.010179
v -0.016588 -1.386596 0.011540
v -0.016588 -1.389979 0.010533
v -0.018300 -1.389574 0.009172
v -0.018300 -1.386191 0.010179
v 0.017997 -1.385252 0.007028
v 0.017997 -1.386596 0.011540
v -0.016588 -1.388636 0.006021
v -0.018300 -1.388636 0.006021
v 0.017997 -1.388636 0.006021
v 0.000691 -1.388636 0.006021
v 0.000691 -1.389979 0.010533
v 0.017997 -1.389980 0.010533
v -0.016588 -1.385252 0.007028
v 0.000691 -1.385252 0.007028
v 0.000691 -1.386596 0.011540
v -0.016588 -1.381221 -0.006509
v -0.016588 -1.384605 -0.007517
v 0.000691 -1.384605 -0.007517
v 0.000691 -1.381221 -0.006509
v -0.018300 -1.385252 0.007028
v 0.000691 -1.382565 -0.001997
v 0.017997 -1.382565 -0.001997
v 0.017997 -1.383909 0.002516
v 0.000691 -1.383909 0.002516
v 0.019681 -1.385948 -0.003004
v 0.017997 -1.385948 -0.003004
v 0.017997 -1.387292 0.001508
v 0.019681 -1.387292 0.001508
v 0.000691 -1.385948 -0.003004
v -0.016588 -1.385948 -0.003004
v -0.016588 -1.387292 0.001508
v 0.000691 -1.387292 0.001508
v -0.016588 -1.382565 -0.001997
v -0.016588 -1.383909 0.002516
v -0.018300 -1.383909 0.002516
v -0.018300 -1.387292 0.001508
v 0.019681 -1.382565 -0.001997
v 0.019681 -1.383909 0.002516
v 0.039477 -1.382565 -0.001997
v 0.039477 -1.385948 -0.003004
v 0.039477 -1.384942 -0.006383
v 0.039477 -1.381559 -0.005375
v 0.075774 -1.381221 -0.006509
v 0.075774 -1.384605 -0.007517
v 0.077459 -1.384942 -0.006383
v 0.077459 -1.381559 -0.005375
v 0.077459 -1.385252 0.007028
v 0.077459 -1.388636 0.006021
v 0.077459 -1.389574 0.009172
v 0.077459 -1.386191 0.010179
v 0.041190 -1.386596 0.011540
v 0.041190 -1.389980 0.010533
v 0.039477 -1.389574 0.009172
v 0.039477 -1.386191 0.010179
v 0.075774 -1.385252 0.007028
v 0.075774 -1.386596 0.011540
v 0.041190 -1.388636 0.006021
v 0.039477 -1.388636 0.006021
v 0.075774 -1.388636 0.006021
v 0.058468 -1.388636 0.006021
v 0.058468 -1.389980 0.010533
v 0.075774 -1.389980 0.010533
v 0.041190 -1.385252 0.007028
v 0.058468 -1.385252 0.007028
v 0.058468 -1.386596 0.011540
v 0.041190 -1.381221 -0.006509
v 0.041190 -1.384605 -0.007517
v 0.058468 -1.384605 -0.007517
v 0.058468 -1.381221 -0.006509
v 0.039477 -1.385252 0.007028
v 0.058468 -1.382565 -0.001997
v 0.075774 -1.382565 -0.001997
v 0.075774 -1.383909 0.002516
v 0.058468 -1.383909 0.002516
v 0.077459 -1.385948 -0.003004
v 0.075774 -1.385948 -0.003004
v 0.075774 -1.387292 0.001508
v 0.077459 -1.387292 0.001508
v 0.058468 -1.385948 -0.003004
v 0.041190 -1.385948 -0.003004
v 0.041190 -1.387292 0.001508
v 0.058468 -1.387292 0.001508
v 0.041190 -1.382565 -0.001997
v 0.041190 -1.383909 0.002516
v 0.039477 -1.383909 0.002516
v 0.039477 -1.387292 0.001508
v 0.077459 -1.382565 -0.001997
v 0.077459 -1.383909 0.002516
v 0.039477 -1.390573 0.024410
v 0.039477 -1.393898 0.023223
v 0.039477 -1.392712 0.019904
v 0.039477 -1.389387 0.021091
v 0.075774 -1.388990 0.019976
v 0.075774 -1.392314 0.018789
v 0.077459 -1.392712 0.019904
v 0.077459 -1.389388 0.021091
v 0.077459 -1.393739 0.033279
v 0.077459 -1.397064 0.032092
v 0.077459 -1.398169 0.035188
v 0.077459 -1.394844 0.036375
v 0.041190 -1.395322 0.037713
v 0.041190 -1.398647 0.036526
v 0.039477 -1.398169 0.035188
v 0.039477 -1.394844 0.036375
v 0.075774 -1.393739 0.033279
v 0.075774 -1.395322 0.037713
v 0.041190 -1.397064 0.032092
v 0.039477 -1.397064 0.032092
v 0.075774 -1.397064 0.032092
v 0.058468 -1.397064 0.032092
v 0.058468 -1.398647 0.036526
v 0.075774 -1.398647 0.036526
v 0.041190 -1.393739 0.033279
v 0.058468 -1.393739 0.033279
v 0.058468 -1.395322 0.037713
v 0.041190 -1.388990 0.019976
v 0.041190 -1.392314 0.018789
v 0.058468 -1.392314 0.018789
v 0.058468 -1.388990 0.019976
v 0.039477 -1.393739 0.033279
v 0.058468 -1.390573 0.024410
v 0.075774 -1.390573 0.024410
v 0.075774 -1.392156 0.028845
v 0.058468 -1.392156 0.028845
v 0.077459 -1.393898 0.023223
v 0.075774 -1.393898 0.023223
v 0.075774 -1.395481 0.027658
v 0.077459 -1.395481 0.027658
v 0.058468 -1.393898 0.023223
v 0.041190 -1.393898 0.023223
v 0.041190 -1.395481 0.027658
v 0.058468 -1.395481 0.027658
v 0.041190 -1.390573 0.024410
v 0.041190 -1.392156 0.028845
v 0.039477 -1.392156 0.028845
v 0.039477 -1.395481 0.027658
v 0.077459 -1.390573 0.024410
v 0.077459 -1.392156 0.028845
v -0.018300 -1.390573 0.024410
v -0.018300 -1.393898 0.023223
v -0.018300 -1.392712 0.019904
v -0.018300 -1.389387 0.021091
v 0.017997 -1.388990 0.019976
v 0.017997 -1.392314 0.018789
v 0.019681 -1.392712 0.019904
v 0.019681 -1.389387 0.021091
v 0.019681 -1.393739 0.033279
v 0.019681 -1.397064 0.032092
v 0.019681 -1.398169 0.035188
v 0.019681 -1.394844 0.036375
v -0.016588 -1.395322 0.037713
v -0.016588 -1.398647 0.036526
v -0.018300 -1.398169 0.035188
v -0.018300 -1.394844 0.036375
v 0.017997 -1.393739 0.033279
v 0.017997 -1.395322 0.037713
v -0.016588 -1.397064 0.032092
v -0.018300 -1.397064 0.032092
v 0.017997 -1.397064 0.032092
v 0.000691 -1.397064 0.032092
v 0.000691 -1.398647 0.036526
v 0.017997 -1.398647 0.036526
v -0.016588 -1.393739 0.033279
v 0.000691 -1.393739 0.033279
v 0.000691 -1.395322 0.037713
v -0.016588 -1.388990 0.019976
v -0.016588 -1.392314 0.018789
v 0.000691 -1.392314 0.018789
v 0.000691 -1.388990 0.019976
v -0.018300 -1.393739 0.033279
v 0.000691 -1.390573 0.024410
v 0.017997 -1.390573 0.024410
v 0.017997 -1.392156 0.028845
v 0.000691 -1.392156 0.028845
v 0.019681 -1.393898 0.023223
v 0.017997 -1.393898 0.023223
v 0.017997 -1.395481 0.027658
v 0.019681 -1.395481 0.027658
v 0.000691 -1.393898 0.023223
v -0.016588 -1.393898 0.023223
v -0.016588 -1.395481 0.027658
v 0.000691 -1.395481 0.027658
v -0.016588 -1.390573 0.024410
v -0.016588 -1.392156 0.028845
v -0.018300 -1.392156 0.028845
v -0.018300 -1.395481 0.027658
v 0.019681 -1.390573 0.024410
v 0.019681 -1.392156 0.028845
v -0.078188 -1.390573 0.024410
v -0.078188 -1.393898 0.023223
v -0.078188 -1.392712 0.019904
v -0.078188 -1.389388 0.021091
v -0.041891 -1.388990 0.019976
v -0.041891 -1.392314 0.018789
v -0.040206 -1.392712 0.019904
v -0.040206 -1.389387 0.021091
v -0.040206 -1.393739 0.033279
v -0.040206 -1.397064 0.032092
v -0.040206 -1.398169 0.035188
v -0.040206 -1.394844 0.036375
v -0.076475 -1.395322 0.037713
v -0.076475 -1.398647 0.036526
v -0.078188 -1.398169 0.035188
v -0.078188 -1.394844 0.036375
v -0.041891 -1.393739 0.033279
v -0.041891 -1.395322 0.037713
v -0.076475 -1.397064 0.032092
v -0.078188 -1.397064 0.032092
v -0.041891 -1.397064 0.032092
v -0.059197 -1.397064 0.032092
v -0.059197 -1.398647 0.036526
v -0.041891 -1.398647 0.036526
v -0.076475 -1.393739 0.033279
v -0.059197 -1.393739 0.033279
v -0.059197 -1.395322 0.037713
v -0.076475 -1.388990 0.019976
v -0.076475 -1.392314 0.018789
v -0.059197 -1.392314 0.018789
v -0.059197 -1.388990 0.019976
v -0.078188 -1.393739 0.033279
v -0.059197 -1.390573 0.024410
v -0.041891 -1.390573 0.024410
v -0.041891 -1.392156 0.028845
v -0.059197 -1.392156 0.028845
v -0.040206 -1.393898 0.023223
v -0.041891 -1.393898 0.023223
v -0.041891 -1.395481 0.027658
v -0.040206 -1.395481 0.027658
v -0.059197 -1.393898 0.023223
v -0.076475 -1.393898 0.023223
v -0.076475 -1.395481 0.027658
v -0.059197 -1.395481 0.027658
v -0.076475 -1.390573 0.024410
v -0.076475 -1.392156 0.028845
v -0.078188 -1.392156 0.028845
v -0.078188 -1.395481 0.027658
v -0.040206 -1.390573 0.024410
v -0.040206 -1.392156 0.028845
v -0.078188 -1.399452 0.049660
v -0.078188 -1.402750 0.048403
v -0.078188 -1.401495 0.045109
v -0.078188 -1.398196 0.046367
v -0.041891 -1.397775 0.045261
v -0.041891 -1.401074 0.044003
v -0.040206 -1.401495 0.045109
v -0.040206 -1.398196 0.046367
v -0.040206 -1.402805 0.058460
v -0.040206 -1.406104 0.057202
v -0.040206 -1.407275 0.060275
v -0.040206 -1.403976 0.061532
v -0.076475 -1.404481 0.062859
v -0.076475 -1.407780 0.061602
v -0.078188 -1.407275 0.060275
v -0.078188 -1.403976 0.061532
v -0.041891 -1.402805 0.058460
v -0.041891 -1.404481 0.062859
v -0.076475 -1.406104 0.057202
v -0.078188 -1.406104 0.057202
v -0.041891 -1.406104 0.057202
v -0.059197 -1.406104 0.057202
v -0.059197 -1.407780 0.061602
v -0.041891 -1.407780 0.061602
v -0.076475 -1.402805 0.058460
v -0.059197 -1.402805 0.058460
v -0.059197 -1.404481 0.062859
v -0.076475 -1.397775 0.045261
v -0.076475 -1.401074 0.044003
v -0.059197 -1.401074 0.044003
v -0.059197 -1.397775 0.045261
v -0.078188 -1.402805 0.058460
v -0.059197 -1.399452 0.049660
v -0.041891 -1.399452 0.049660
v -0.041891 -1.401128 0.054060
v -0.059197 -1.401128 0.054060
v -0.040206 -1.402750 0.048403
v -0.041891 -1.402750 0.048403
v -0.041891 -1.404427 0.052803
v -0.040206 -1.404427 0.052803
v -0.059197 -1.402750 0.048403
v -0.076475 -1.402750 0.048403
v -0.076475 -1.404427 0.052803
v -0.059197 -1.404427 0.052803
v -0.076475 -1.399452 0.049660
v -0.076475 -1.401128 0.054060
v -0.078188 -1.401128 0.054060
v -0.078188 -1.404427 0.052803
v -0.040206 -1.399452 0.049660
v -0.040206 -1.401128 0.054060
v -0.018300 -1.399452 0.049660
v -0.018300 -1.402750 0.048403
v -0.018300 -1.401495 0.045109
v -0.018300 -1.398196 0.046367
v 0.017997 -1.397775 0.045261
v 0.017997 -1.401074 0.044003
v 0.019681 -1.401495 0.045109
v 0.019681 -1.398196 0.046367
v 0.019681 -1.402805 0.058460
v 0.019681 -1.406104 0.057202
v 0.019681 -1.407275 0.060275
v 0.019681 -1.403976 0.061532
v -0.016588 -1.404481 0.062859
v -0.016588 -1.407780 0.061602
v -0.018300 -1.407275 0.060275
v -0.018300 -1.403976 0.061532
v 0.017997 -1.402805 0.058460
v 0.017997 -1.404481 0.062859
v -0.016588 -1.406104 0.057202
v -0.018300 -1.406104 0.057202
v 0.017997 -1.406104 0.057202
v 0.000691 -1.406104 0.057202
v 0.000691 -1.407780 0.061602
v 0.017997 -1.407780 0.061602
v -0.016588 -1.402805 0.058460
v 0.000691 -1.402805 0.058460
v 0.000691 -1.404481 0.062859
v -0.016588 -1.397775 0.045261
v -0.016588 -1.401074 0.044003
v 0.000691 -1.401074 0.044003
v 0.000691 -1.397775 0.045261
v -0.018300 -1.402805 0.058460
v 0.000691 -1.399452 0.049660
v 0.017997 -1.399452 0.049660
v 0.017997 -1.401128 0.054060
v 0.000691 -1.401128 0.054060
v 0.019681 -1.402750 0.048403
v 0.017997 -1.402750 0.048403
v 0.017997 -1.404427 0.052803
v 0.019681 -1.404427 0.052803
v 0.000691 -1.402750 0.048403
v -0.016588 -1.402750 0.048403
v -0.016588 -1.404427 0.052803
v 0.000691 -1.404427 0.052803
v -0.016588 -1.399452 0.049660
v -0.016588 -1.401128 0.054060
v -0.018300 -1.401128 0.054060
v -0.018300 -1.404427 0.052803
v 0.019681 -1.399452 0.049660
v 0.019681 -1.401128 0.054060
v 0.039477 -1.399452 0.049660
v 0.039477 -1.402750 0.048403
v 0.039477 -1.401495 0.045109
v 0.039477 -1.398196 0.046367
v 0.075774 -1.397775 0.045261
v 0.075774 -1.401074 0.044003
v 0.077459 -1.401495 0.045109
v 0.077459 -1.398196 0.046367
v 0.077459 -1.402805 0.058460
v 0.077459 -1.406104 0.057202
v 0.077459 -1.407275 0.060275
v 0.077459 -1.403976 0.061532
v 0.041190 -1.404481 0.062859
v 0.041190 -1.407780 0.061602
v 0.039477 -1.407275 0.060275
v 0.039477 -1.403976 0.061532
v 0.075774 -1.402805 0.058460
v 0.075774 -1.404481 0.062859
v 0.041190 -1.406104 0.057202
v 0.039477 -1.406104 0.057202
v 0.075774 -1.406104 0.057202
v 0.058468 -1.406104 0.057202
v 0.058468 -1.407780 0.061602
v 0.075774 -1.407780 0.061602
v 0.041190 -1.402805 0.058460
v 0.058468 -1.402805 0.058460
v 0.058468 -1.404481 0.062859
v 0.041190 -1.397775 0.045261
v 0.041190 -1.401074 0.044003
v 0.058468 -1.401074 0.044003
v 0.058468 -1.397775 0.045261
v 0.039477 -1.402805 0.058460
v 0.058468 -1.399452 0.049660
v 0.075774 -1.399452 0.049660
v 0.075774 -1.401128 0.054060
v 0.058468 -1.401128 0.054060
v 0.077459 -1.402750 0.048403
v 0.075774 -1.402750 0.048403
v 0.075774 -1.404427 0.052803
v 0.077459 -1.404427 0.052803
v 0.058468 -1.402750 0.048403
v 0.041190 -1.402750 0.048403
v 0.041190 -1.404427 0.052803
v 0.058468 -1.404427 0.052803
v 0.041190 -1.399452 0.049660
v 0.041190 -1.401128 0.054060
v 0.039477 -1.401128 0.054060
v 0.039477 -1.404427 0.052803
v 0.077459 -1.399452 0.049660
v 0.077459 -1.401128 0.054060
v 0.039477 -1.408729 0.073780
v 0.039477 -1.412060 0.072611
v 0.039477 -1.410894 0.069285
v 0.039477 -1.407562 0.070453
v 0.075774 -1.407171 0.069336
v 0.075774 -1.410502 0.068168
v 0.077459 -1.410894 0.069285
v 0.077459 -1.407562 0.070453
v 0.077459 -1.411845 0.082665
v 0.077459 -1.415176 0.081497
v 0.077459 -1.416265 0.084600
v 0.077459 -1.412933 0.085768
v 0.041190 -1.413403 0.087109
v 0.041190 -1.416735 0.085940
v 0.039477 -1.416265 0.084600
v 0.039477 -1.412933 0.085768
v 0.075774 -1.411845 0.082665
v 0.075774 -1.413403 0.087109
v 0.041190 -1.415176 0.081497
v 0.039477 -1.415176 0.081497
v 0.075774 -1.415176 0.081497
v 0.058468 -1.415176 0.081497
v 0.058468 -1.416735 0.085940
v 0.075774 -1.416735 0.085940
v 0.041190 -1.411845 0.082665
v 0.058468 -1.411845 0.082665
v 0.058468 -1.413403 0.087109
v 0.041190 -1.407171 0.069336
v 0.041190 -1.410502 0.068168
v 0.058468 -1.410502 0.068168
v 0.058468 -1.407171 0.069336
v 0.039477 -1.411845 0.082665
v 0.058468 -1.408729 0.073780
v 0.075774 -1.408729 0.073780
v 0.075774 -1.410287 0.078222
v 0.058468 -1.410287 0.078222
v 0.077459 -1.412060 0.072611
v 0.075774 -1.412060 0.072611
v 0.075774 -1.413618 0.077054
v 0.077459 -1.413618 0.077054
v 0.058468 -1.412060 0.072611
v 0.041190 -1.412060 0.072611
v 0.041190 -1.413618 0.077054
v 0.058468 -1.413618 0.077054
v 0.041190 -1.408729 0.073780
v 0.041190 -1.410287 0.078222
v 0.039477 -1.410287 0.078222
v 0.039477 -1.413618 0.077054
v 0.077459 -1.408729 0.073780
v 0.077459 -1.410287 0.078222
v -0.018300 -1.408729 0.073780
v -0.018300 -1.412060 0.072611
v -0.018300 -1.410894 0.069285
v -0.018300 -1.407562 0.070453
v 0.017997 -1.407171 0.069336
v 0.017997 -1.410502 0.068168
v 0.019681 -1.410894 0.069285
v 0.019681 -1.407562 0.070453
v 0.019681 -1.411845 0.082665
v 0.019681 -1.415176 0.081497
v 0.019681 -1.416265 0.084600
v 0.019681 -1.412933 0.085768
v -0.016588 -1.413403 0.087109
v -0.016588 -1.416735 0.085940
v -0.018300 -1.416265 0.084600
v -0.018300 -1.412933 0.085768
v 0.017997 -1.411845 0.082665
v 0.017997 -1.413403 0.087109
v -0.016588 -1.415176 0.081497
v -0.018300 -1.415176 0.081497
v 0.017997 -1.415176 0.081497
v 0.000691 -1.415176 0.081497
v 0.000691 -1.416735 0.085940
v 0.017997 -1.416735 0.085940
v -0.016588 -1.411845 0.082665
v 0.000691 -1.411845 0.082665
v 0.000691 -1.413403 0.087109
v -0.016588 -1.407171 0.069336
v -0.016588 -1.410502 0.068168
v 0.000691 -1.410502 0.068168
v 0.000691 -1.407171 0.069336
v -0.018300 -1.411845 0.082665
v 0.000691 -1.408729 0.073780
v 0.017997 -1.408729 0.073780
v 0.017997 -1.410287 0.078222
v 0.000691 -1.410287 0.078222
v 0.019681 -1.412060 0.072611
v 0.017997 -1.412060 0.072611
v 0.017997 -1.413618 0.077054
v 0.019681 -1.413618 0.077054
v 0.000691 -1.412060 0.072611
v -0.016588 -1.412060 0.072611
v -0.016588 -1.413618 0.077054
v 0.000691 -1.413618 0.077054
v -0.016588 -1.408729 0.073780
v -0.016588 -1.410287 0.078222
v -0.018300 -1.410287 0.078222
v -0.018300 -1.413618 0.077054
v 0.019681 -1.408729 0.073780
v 0.019681 -1.410287 0.078222
v -0.078188 -1.408729 0.073780
v -0.078188 -1.412060 0.072611
v -0.078188 -1.410894 0.069285
v -0.078188 -1.407562 0.070453
v -0.041891 -1.407171 0.069336
v -0.041891 -1.410502 0.068168
v -0.040206 -1.410894 0.069285
v -0.040206 -1.407562 0.070453
v -0.040206 -1.411845 0.082665
v -0.040206 -1.415176 0.081497
v -0.040206 -1.416265 0.084600
v -0.040206 -1.412933 0.085768
v -0.076475 -1.413403 0.087109
v -0.076475 -1.416735 0.085940
v -0.078188 -1.416265 0.084600
v -0.078188 -1.412933 0.085768
v -0.041891 -1.411845 0.082665
v -0.041891 -1.413403 0.087109
v -0.076475 -1.415176 0.081497
v -0.078188 -1.415176 0.081497
v -0.041891 -1.415176 0.081497
v -0.059197 -1.415176 0.081497
v -0.059197 -1.416735 0.085940
v -0.041891 -1.416735 0.085940
v -0.076475 -1.411845 0.082665
v -0.059197 -1.411845 0.082665
v -0.059197 -1.413403 0.087109
v -0.076475 -1.407171 0.069336
v -0.076475 -1.410502 0.068168
v -0.059197 -1.410502 0.068168
v -0.059197 -1.407171 0.069336
v -0.078188 -1.411845 0.082665
v -0.059197 -1.408729 0.073780
v -0.041891 -1.408729 0.073780
v -0.041891 -1.410287 0.078222
v -0.059197 -1.410287 0.078222
v -0.040206 -1.412060 0.072611
v -0.041891 -1.412060 0.072611
v -0.041891 -1.413618 0.077054
v -0.040206 -1.413618 0.077054
v -0.059197 -1.412060 0.072611
v -0.076475 -1.412060 0.072611
v -0.076475 -1.413618 0.077054
v -0.059197 -1.413618 0.077054
v -0.076475 -1.408729 0.073780
v -0.076475 -1.410287 0.078222
v -0.078188 -1.410287 0.078222
v -0.078188 -1.413618 0.077054
v -0.040206 -1.408729 0.073780
v -0.040206 -1.410287 0.078222
v 0.064759 -1.452667 0.102151
v 0.064759 -1.446203 0.098848
v -0.059661 -1.452667 0.102151
v -0.059661 -1.446203 0.098848
v 0.064759 -1.465295 0.150453
v 0.064759 -1.470562 0.150519
v 0.000078 -1.470562 0.150519
v 0.000078 -1.465295 0.150453
v -0.059661 -1.470562 0.150519
v -0.059661 -1.465295 0.150453
v -0.067802 -1.398243 -0.046572
v -0.067802 -1.392432 -0.044422
v 0.072900 -1.398243 -0.046572
v 0.072900 -1.392432 -0.044422
v -0.067802 -1.471720 0.152035
v -0.067802 -1.465909 0.154184
v 0.072900 -1.471720 0.152035
v 0.072900 -1.465909 0.154184
v -0.059661 -1.416930 0.005346
v -0.059661 -1.412318 0.007052
v 0.064759 -1.416930 0.005346
v 0.064759 -1.412318 0.007052
v 0.064759 -1.471262 0.152204
v 0.064759 -1.466651 0.153910
v -0.059661 -1.471262 0.152204
v -0.059661 -1.466651 0.153910
vt 0.375000 0.361461
vt 0.375000 0.431442
vt 0.375000 0.431347
vt 0.375000 0.356683
vt 0.375000 0.818558
vt 0.375000 0.888539
vt 0.375000 0.893317
vt 0.375000 0.818653
vt 0.236461 0.500000
vt 0.236461 0.750000
vt 0.306442 0.750000
vt 0.306442 0.629966
vt 0.306442 0.500000
vt 0.696122 0.750000
vt 0.770786 0.750000
vt 0.770786 0.500000
vt 0.696122 0.500000
vt 0.696122 0.629966
vt 0.970519 0.557266
vt 0.970519 0.550399
vt 0.970948 0.550399
vt 0.970948 0.557266
vt 0.971377 0.550399
vt 0.971377 0.557266
vt 0.971807 0.550399
vt 0.971807 0.557266
vt 0.972236 0.550399
vt 0.972236 0.557266
vt 0.972665 0.550399
vt 0.972665 0.557266
vt 0.973095 0.550399
vt 0.973095 0.557266
vt 0.973524 0.550399
vt 0.973524 0.557266
vt 0.973953 0.550399
vt 0.973953 0.557266
vt 0.974382 0.550399
vt 0.974382 0.557266
vt 0.974811 0.550399
vt 0.974811 0.557266
vt 0.975241 0.550399
vt 0.975241 0.557266
vt 0.975670 0.550399
vt 0.975670 0.557266
vt 0.976099 0.550399
vt 0.976099 0.557266
vt 0.976528 0.550399
vt 0.976528 0.557266
vt 0.976958 0.550399
vt 0.976958 0.557266
vt 0.977387 0.550399
vt 0.977387 0.557266
vt 0.977816 0.550399
vt 0.977816 0.557266
vt 0.978245 0.550399
vt 0.978245 0.557266
vt 0.978674 0.550399
vt 0.978674 0.557266
vt 0.979104 0.550399
vt 0.979104 0.557266
vt 0.979533 0.550399
vt 0.979533 0.557266
vt 0.979962 0.550399
vt 0.979962 0.557266
vt 0.980391 0.550399
vt 0.980391 0.557266
vt 0.980821 0.550399
vt 0.980821 0.557266
vt 0.981250 0.550399
vt 0.981250 0.557266
vt 0.981679 0.550399
vt 0.981679 0.557266
vt 0.982108 0.550399
vt 0.982108 0.557266
vt 0.982538 0.550399
vt 0.982538 0.557266
vt 0.982967 0.550399
vt 0.982967 0.557266
vt 0.983396 0.550399
vt 0.983396 0.557266
vt 0.978989 0.563441
vt 0.978490 0.563031
vt 0.978080 0.562532
vt 0.977775 0.561962
vt 0.977588 0.561343
vt 0.977524 0.560700
vt 0.977588 0.560057
vt 0.977775 0.559439
vt 0.978080 0.558869
vt 0.978490 0.558369
vt 0.978989 0.557959
vt 0.979559 0.557655
vt 0.980178 0.557467
vt 0.980821 0.557404
vt 0.981464 0.557467
vt 0.982082 0.557655
vt 0.982652 0.557959
vt 0.983152 0.558369
vt 0.983562 0.558869
vt 0.983866 0.559439
vt 0.984054 0.560057
vt 0.984117 0.560700
vt 0.984054 0.561343
vt 0.983866 0.561962
vt 0.983562 0.562532
vt 0.983152 0.563031
vt 0.982652 0.563441
vt 0.982082 0.563746
vt 0.981464 0.563934
vt 0.980821 0.563997
vt 0.980178 0.563934
vt 0.979559 0.563746
vt 0.983825 0.550399
vt 0.983825 0.557266
vt 0.984255 0.550399
vt 0.984255 0.557266
vt 0.973310 0.563934
vt 0.973953 0.563997
vt 0.974596 0.563934
vt 0.975214 0.563746
vt 0.975784 0.563441
vt 0.976284 0.563031
vt 0.976694 0.562532
vt 0.976999 0.561962
vt 0.977186 0.561343
vt 0.977250 0.560700
vt 0.977186 0.560057
vt 0.976999 0.559439
vt 0.976694 0.558869
vt 0.976284 0.558369
vt 0.975784 0.557959
vt 0.975214 0.557655
vt 0.974596 0.557467
vt 0.973953 0.557404
vt 0.973310 0.557467
vt 0.972691 0.557655
vt 0.972121 0.557959
vt 0.971622 0.558369
vt 0.971212 0.558869
vt 0.970907 0.559439
vt 0.970720 0.560057
vt 0.970656 0.560700
vt 0.970720 0.561343
vt 0.970907 0.561962
vt 0.971212 0.562532
vt 0.971622 0.563031
vt 0.972121 0.563441
vt 0.972691 0.563746
vt 0.978180 0.563330
vt 0.978180 0.563330
vt 0.978180 0.563330
vt 0.978180 0.563330
vt 0.978180 0.563330
vt 0.978180 0.563330
vt 0.978180 0.563330
vt 0.978180 0.563330
vt 0.978180 0.563330
vt 0.978180 0.563330
vt 0.978180 0.563330
vt 0.978180 0.563330
vt 0.978180 0.563330
vt 0.978180 0.563330
vt 0.978180 0.563330
vt 0.978180 0.563330
vt 0.978180 0.563330
vt 0.978180 0.563330
vt 0.978180 0.563330
vt 0.978180 0.563330
vt 0.978180 0.563330
vt 0.978180 0.563330
vt 0.978180 0.563330
vt 0.978180 0.563330
vt 0.978180 0.563330
vt 0.978180 0.563330
vt 0.978180 0.563330
vt 0.978180 0.563330
vt 0.978180 0.563330
vt 0.978180 0.563330
vt 0.978180 0.563330
vt 0.978180 0.563330
vt 0.978180 0.563330
vt 0.978180 0.563330
vt 0.978180 0.563330
vt 0.978180 0.563330
vt 0.976152 0.063905
vt 0.976152 0.063905
vt 0.976152 0.063905
vt 0.976152 0.063905
vt 0.976152 0.063905
vt 0.976152 0.063905
vt 0.976152 0.063905
vt 0.976152 0.063905
vt 0.976152 0.063905
vt 0.976152 0.063905
vt 0.976152 0.063905
vt 0.976152 0.063905
vt 0.976152 0.063905
vt 0.976152 0.063905
vt 0.976152 0.063905
vt 0.976152 0.063905
vt 0.976152 0.063905
vt 0.976152 0.063905
vt 0.976152 0.063905
vt 0.976152 0.063905
vt 0.976152 0.063905
vt 0.976152 0.063905
vt 0.976152 0.063905
vt 0.976152 0.063905
vt 0.976152 0.063905
vt 0.976152 0.063905
vt 0.976152 0.063905
vt 0.976152 0.063905
vt 0.976152 0.063905
vt 0.976152 0.063905
vt 0.976152 0.063905
vt 0.976152 0.063905
vt 0.976152 0.063905
vt 0.976152 0.063905
vt 0.976152 0.063905
vt 0.976152 0.063905
vt 0.976152 0.063905
vt 0.976152 0.063905
vt 0.976152 0.063905
vt 0.976152 0.063905
vt 0.976152 0.063905
vt 0.976152 0.063905
vt 0.976152 0.063905
vt 0.976152 0.063905
vt 0.976152 0.063905
vt 0.976152 0.063905
vt 0.976152 0.063905
vt 0.976152 0.063905
vt 0.976152 0.063905
vt 0.976152 0.063905
vt 0.976152 0.063905
vt 0.976152 0.063905
vt 0.976152 0.063905
vt 0.976152 0.063905
vt 0.976152 0.063905
vt 0.976152 0.063905
vt 0.976152 0.063905
vt 0.976152 0.063905
vt 0.976152 0.063905
vt 0.976152 0.063905
vt 0.976152 0.063905
vt 0.976152 0.063905
vt 0.976152 0.063905
vt 0.976152 0.063905
vt 0.976152 0.063905
vt 0.976152 0.063905
vt 0.976152 0.063905
vt 0.976152 0.063905
vt 0.976152 0.063905
vt 0.976152 0.063905
vt 0.976152 0.063905
vt 0.976152 0.063905
vt 0.976152 0.063905
vt 0.976152 0.063905
vt 0.976152 0.063905
vt 0.976152 0.063905
vt 0.976152 0.063905
vt 0.976152 0.063905
vt 0.976152 0.063905
vt 0.976152 0.063905
vt 0.976152 0.063905
vt 0.976152 0.063905
vt 0.981925 0.208301
vt 0.981925 0.208640
vt 0.983279 0.208640
vt 0.983279 0.208301
vt 0.981925 0.209934
vt 0.981925 0.209994
vt 0.983279 0.209994
vt 0.983279 0.209934
vt 0.981925 0.211010
vt 0.981925 0.211349
vt 0.983279 0.211349
vt 0.983279 0.211010
vt 0.981925 0.212642
vt 0.981925 0.212703
vt 0.983279 0.212703
vt 0.983279 0.212642
vt 0.981864 0.211010
vt 0.981864 0.211349
vt 0.984573 0.211010
vt 0.984573 0.211349
vt 0.984634 0.211349
vt 0.984634 0.211010
vt 0.983339 0.211010
vt 0.983339 0.211349
vt 0.983956 0.211349
vt 0.983956 0.211010
vt 0.980631 0.211010
vt 0.980631 0.211349
vt 0.981247 0.211349
vt 0.981247 0.211010
vt 0.981925 0.211409
vt 0.981925 0.212026
vt 0.983279 0.212026
vt 0.983279 0.211409
vt 0.981925 0.208701
vt 0.981925 0.209317
vt 0.983279 0.209317
vt 0.983279 0.208701
vt 0.980570 0.211010
vt 0.980570 0.211349
vt 0.981247 0.210333
vt 0.981247 0.210671
vt 0.981864 0.210671
vt 0.981864 0.210333
vt 0.983279 0.210333
vt 0.983279 0.210671
vt 0.983339 0.210671
vt 0.983339 0.210333
vt 0.983956 0.210333
vt 0.983956 0.210671
vt 0.984573 0.210671
vt 0.984573 0.210333
vt 0.980570 0.210333
vt 0.980570 0.210671
vt 0.980631 0.210671
vt 0.980631 0.210333
vt 0.984634 0.210671
vt 0.984634 0.210333
vt 0.981925 0.210671
vt 0.981925 0.210333
vt 0.981925 0.207624
vt 0.981925 0.207962
vt 0.983279 0.207962
vt 0.983279 0.207624
vt 0.981925 0.207285
vt 0.983279 0.207285
vt 0.981864 0.209994
vt 0.984573 0.209994
vt 0.984634 0.209994
vt 0.983339 0.209994
vt 0.983956 0.209994
vt 0.980631 0.209994
vt 0.981247 0.209994
vt 0.980570 0.209994
vt 0.981925 0.208301
vt 0.981925 0.208640
vt 0.983279 0.208640
vt 0.983279 0.208301
vt 0.981925 0.209934
vt 0.981925 0.209994
vt 0.983279 0.209994
vt 0.983279 0.209934
vt 0.981925 0.211010
vt 0.981925 0.211349
vt 0.983279 0.211349
vt 0.983279 0.211010
vt 0.981925 0.212642
vt 0.981925 0.212703
vt 0.983279 0.212703
vt 0.983279 0.212642
vt 0.981864 0.211010
vt 0.981864 0.211349
vt 0.984573 0.211010
vt 0.984573 0.211349
vt 0.984634 0.211349
vt 0.984634 0.211010
vt 0.983339 0.211010
vt 0.983339 0.211349
vt 0.983956 0.211349
vt 0.983956 0.211010
vt 0.980631 0.211010
vt 0.980631 0.211349
vt 0.981247 0.211349
vt 0.981247 0.211010
vt 0.981925 0.211409
vt 0.981925 0.212026
vt 0.983279 0.212026
vt 0.983279 0.211409
vt 0.981925 0.208701
vt 0.981925 0.209317
vt 0.983279 0.209317
vt 0.983279 0.208701
vt 0.980570 0.211010
vt 0.980570 0.211349
vt 0.981247 0.210333
vt 0.981247 0.210671
vt 0.981864 0.210671
vt 0.981864 0.210333
vt 0.983279 0.210333
vt 0.983279 0.210671
vt 0.983339 0.210671
vt 0.983339 0.210333
vt 0.983956 0.210333
vt 0.983956 0.210671
vt 0.984573 0.210671
vt 0.984573 0.210333
vt 0.980570 0.210333
vt 0.980570 0.210671
vt 0.980631 0.210671
vt 0.980631 0.210333
vt 0.984634 0.210671
vt 0.984634 0.210333
vt 0.981925 0.210671
vt 0.981925 0.210333
vt 0.981925 0.207624
vt 0.981925 0.207962
vt 0.983279 0.207962
vt 0.983279 0.207624
vt 0.981925 0.207285
vt 0.983279 0.207285
vt 0.981864 0.209994
vt 0.984573 0.209994
vt 0.984634 0.209994
vt 0.983339 0.209994
vt 0.983956 0.209994
vt 0.980631 0.209994
vt 0.981247 0.209994
vt 0.980570 0.209994
vt 0.981925 0.208301
vt 0.981925 0.208640
vt 0.983279 0.208640
vt 0.983279 0.208301
vt 0.981925 0.209934
vt 0.981925 0.209994
vt 0.983279 0.209994
vt 0.983279 0.209934
vt 0.981925 0.211010
vt 0.981925 0.211349
vt 0.983279 0.211349
vt 0.983279 0.211010
vt 0.981925 0.212642
vt 0.981925 0.212703
vt 0.983279 0.212703
vt 0.983279 0.212642
vt 0.981864 0.211010
vt 0.981864 0.211349
vt 0.984573 0.211010
vt 0.984573 0.211349
vt 0.984634 0.211349
vt 0.984634 0.211010
vt 0.983339 0.211010
vt 0.983339 0.211349
vt 0.983956 0.211349
vt 0.983956 0.211010
vt 0.980631 0.211010
vt 0.980631 0.211349
vt 0.981247 0.211349
vt 0.981247 0.211010
vt 0.981925 0.211409
vt 0.981925 0.212026
vt 0.983279 0.212026
vt 0.983279 0.211409
vt 0.981925 0.208701
vt 0.981925 0.209317
vt 0.983279 0.209317
vt 0.983279 0.208701
vt 0.980570 0.211010
vt 0.980570 0.211349
vt 0.981247 0.210333
vt 0.981247 0.210671
vt 0.981864 0.210671
vt 0.981864 0.210333
vt 0.983279 0.210333
vt 0.983279 0.210671
vt 0.983339 0.210671
vt 0.983339 0.210333
vt 0.983956 0.210333
vt 0.983956 0.210671
vt 0.984573 0.210671
vt 0.984573 0.210333
vt 0.980570 0.210333
vt 0.980570 0.210671
vt 0.980631 0.210671
vt 0.980631 0.210333
vt 0.984634 0.210671
vt 0.984634 0.210333
vt 0.981925 0.210671
vt 0.981925 0.210333
vt 0.981925 0.207624
vt 0.981925 0.207962
vt 0.983279 0.207962
vt 0.983279 0.207624
vt 0.981925 0.207285
vt 0.983279 0.207285
vt 0.981864 0.209994
vt 0.984573 0.209994
vt 0.984634 0.209994
vt 0.983339 0.209994
vt 0.983956 0.209994
vt 0.980631 0.209994
vt 0.981247 0.209994
vt 0.980570 0.209994
vt 0.981925 0.208301
vt 0.981925 0.208640
vt 0.983279 0.208640
vt 0.983279 0.208301
vt 0.981925 0.209934
vt 0.981925 0.209994
vt 0.983279 0.209994
vt 0.983279 0.209934
vt 0.981925 0.211010
vt 0.981925 0.211349
vt 0.983279 0.211349
vt 0.983279 0.211010
vt 0.981925 0.212642
vt 0.981925 0.212703
vt 0.983279 0.212703
vt 0.983279 0.212642
vt 0.981864 0.211010
vt 0.981864 0.211349
vt 0.984573 0.211010
vt 0.984573 0.211349
vt 0.984634 0.211349
vt 0.984634 0.211010
vt 0.983339 0.211010
vt 0.983339 0.211349
vt 0.983956 0.211349
vt 0.983956 0.211010
vt 0.980631 0.211010
vt 0.980631 0.211349
vt 0.981247 0.211349
vt 0.981247 0.211010
vt 0.981925 0.211409
vt 0.981925 0.212026
vt 0.983279 0.212026
vt 0.983279 0.211409
vt 0.981925 0.208701
vt 0.981925 0.209317
vt 0.983279 0.209317
vt 0.983279 0.208701
vt 0.980570 0.211010
vt 0.980570 0.211349
vt 0.981247 0.210333
vt 0.981247 0.210671
vt 0.981864 0.210671
vt 0.981864 0.210333
vt 0.983279 0.210333
vt 0.983279 0.210671
vt 0.983339 0.210671
vt 0.983339 0.210333
vt 0.983956 0.210333
vt 0.983956 0.210671
vt 0.984573 0.210671
vt 0.984573 0.210333
vt 0.980570 0.210333
vt 0.980570 0.210671
vt 0.980631 0.210671
vt 0.980631 0.210333
vt 0.984634 0.210671
vt 0.984634 0.210333
vt 0.981925 0.210671
vt 0.981925 0.210333
vt 0.981925 0.207624
vt 0.981925 0.207962
vt 0.983279 0.207962
vt 0.983279 0.207624
vt 0.981925 0.207285
vt 0.983279 0.207285
vt 0.981864 0.209994
vt 0.984573 0.209994
vt 0.984634 0.209994
vt 0.983339 0.209994
vt 0.983956 0.209994
vt 0.980631 0.209994
vt 0.981247 0.209994
vt 0.980570 0.209994
vt 0.981925 0.208301
vt 0.981925 0.208640
vt 0.983279 0.208640
vt 0.983279 0.208301
vt 0.981925 0.209934
vt 0.981925 0.209994
vt 0.983279 0.209994
vt 0.983279 0.209934
vt 0.981925 0.211010
vt 0.981925 0.211349
vt 0.983279 0.211349
vt 0.983279 0.211010
vt 0.981925 0.212642
vt 0.981925 0.212703
vt 0.983279 0.212703
vt 0.983279 0.212642
vt 0.981864 0.211010
vt 0.981864 0.211349
vt 0.984573 0.211010
vt 0.984573 0.211349
vt 0.984634 0.211349
vt 0.984634 0.211010
vt 0.983339 0.211010
vt 0.983339 0.211349
vt 0.983956 0.211349
vt 0.983956 0.211010
vt 0.980631 0.211010
vt 0.980631 0.211349
vt 0.981247 0.211349
vt 0.981247 0.211010
vt 0.981925 0.211409
vt 0.981925 0.212026
vt 0.983279 0.212026
vt 0.983279 0.211409
vt 0.981925 0.208701
vt 0.981925 0.209317
vt 0.983279 0.209317
vt 0.983279 0.208701
vt 0.980570 0.211010
vt 0.980570 0.211349
vt 0.981247 0.210333
vt 0.981247 0.210671
vt 0.981864 0.210671
vt 0.981864 0.210333
vt 0.983279 0.210333
vt 0.983279 0.210671
vt 0.983339 0.210671
vt 0.983339 0.210333
vt 0.983956 0.210333
vt 0.983956 0.210671
vt 0.984573 0.210671
vt 0.984573 0.210333
vt 0.980570 0.210333
vt 0.980570 0.210671
vt 0.980631 0.210671
vt 0.980631 0.210333
vt 0.984634 0.210671
vt 0.984634 0.210333
vt 0.981925 0.210671
vt 0.981925 0.210333
vt 0.981925 0.207624
vt 0.981925 0.207962
vt 0.983279 0.207962
vt 0.983279 0.207624
vt 0.981925 0.207285
vt 0.983279 0.207285
vt 0.981864 0.209994
vt 0.984573 0.209994
vt 0.984634 0.209994
vt 0.983339 0.209994
vt 0.983956 0.209994
vt 0.980631 0.209994
vt 0.981247 0.209994
vt 0.980570 0.209994
vt 0.981925 0.208301
vt 0.981925 0.208640
vt 0.983279 0.208640
vt 0.983279 0.208301
vt 0.981925 0.209934
vt 0.981925 0.209994
vt 0.983279 0.209994
vt 0.983279 0.209934
vt 0.981925 0.211010
vt 0.981925 0.211349
vt 0.983279 0.211349
vt 0.983279 0.211010
vt 0.981925 0.212642
vt 0.981925 0.212703
vt 0.983279 0.212703
vt 0.983279 0.212642
vt 0.981864 0.211010
vt 0.981864 0.211349
vt 0.984573 0.211010
vt 0.984573 0.211349
vt 0.984634 0.211349
vt 0.984634 0.211010
vt 0.983339 0.211010
vt 0.983339 0.211349
vt 0.983956 0.211349
vt 0.983956 0.211010
vt 0.980631 0.211010
vt 0.980631 0.211349
vt 0.981247 0.211349
vt 0.981247 0.211010
vt 0.981925 0.211409
vt 0.981925 0.212026
vt 0.983279 0.212026
vt 0.983279 0.211409
vt 0.981925 0.208701
vt 0.981925 0.209317
vt 0.983279 0.209317
vt 0.983279 0.208701
vt 0.980570 0.211010
vt 0.980570 0.211349
vt 0.981247 0.210333
vt 0.981247 0.210671
vt 0.981864 0.210671
vt 0.981864 0.210333
vt 0.983279 0.210333
vt 0.983279 0.210671
vt 0.983339 0.210671
vt 0.983339 0.210333
vt 0.983956 0.210333
vt 0.983956 0.210671
vt 0.984573 0.210671
vt 0.984573 0.210333
vt 0.980570 0.210333
vt 0.980570 0.210671
vt 0.980631 0.210671
vt 0.980631 0.210333
vt 0.984634 0.210671
vt 0.984634 0.210333
vt 0.981925 0.210671
vt 0.981925 0.210333
vt 0.981925 0.207624
vt 0.981925 0.207962
vt 0.983279 0.207962
vt 0.983279 0.207624
vt 0.981925 0.207285
vt 0.983279 0.207285
vt 0.981864 0.209994
vt 0.984573 0.209994
vt 0.984634 0.209994
vt 0.983339 0.209994
vt 0.983956 0.209994
vt 0.980631 0.209994
vt 0.981247 0.209994
vt 0.980570 0.209994
vt 0.981925 0.208301
vt 0.981925 0.208640
vt 0.983279 0.208640
vt 0.983279 0.208301
vt 0.981925 0.209934
vt 0.981925 0.209994
vt 0.983279 0.209994
vt 0.983279 0.209934
vt 0.981925 0.211010
vt 0.981925 0.211349
vt 0.983279 0.211349
vt 0.983279 0.211010
vt 0.981925 0.212642
vt 0.981925 0.212703
vt 0.983279 0.212703
vt 0.983279 0.212642
vt 0.981864 0.211010
vt 0.981864 0.211349
vt 0.984573 0.211010
vt 0.984573 0.211349
vt 0.984634 0.211349
vt 0.984634 0.211010
vt 0.983339 0.211010
vt 0.983339 0.211349
vt 0.983956 0.211349
vt 0.983956 0.211010
vt 0.980631 0.211010
vt 0.980631 0.211349
vt 0.981247 0.211349
vt 0.981247 0.211010
vt 0.981925 0.211409
vt 0.981925 0.212026
vt 0.983279 0.212026
vt 0.983279 0.211409
vt 0.981925 0.208701
vt 0.981925 0.209317
vt 0.983279 0.209317
vt 0.983279 0.208701
vt 0.980570 0.211010
vt 0.980570 0.211349
vt 0.981247 0.210333
vt 0.981247 0.210671
vt 0.981864 0.210671
vt 0.981864 0.210333
vt 0.983279 0.210333
vt 0.983279 0.210671
vt 0.983339 0.210671
vt 0.983339 0.210333
vt 0.983956 0.210333
vt 0.983956 0.210671
vt 0.984573 0.210671
vt 0.984573 0.210333
vt 0.980570 0.210333
vt 0.980570 0.210671
vt 0.980631 0.210671
vt 0.980631 0.210333
vt 0.984634 0.210671
vt 0.984634 0.210333
vt 0.981925 0.210671
vt 0.981925 0.210333
vt 0.981925 0.207624
vt 0.981925 0.207962
vt 0.983279 0.207962
vt 0.983279 0.207624
vt 0.981925 0.207285
vt 0.983279 0.207285
vt 0.981864 0.209994
vt 0.984573 0.209994
vt 0.984634 0.209994
vt 0.983339 0.209994
vt 0.983956 0.209994
vt 0.980631 0.209994
vt 0.981247 0.209994
vt 0.980570 0.209994
vt 0.981925 0.208301
vt 0.981925 0.208640
vt 0.983279 0.208640
vt 0.983279 0.208301
vt 0.981925 0.209934
vt 0.981925 0.209994
vt 0.983279 0.209994
vt 0.983279 0.209934
vt 0.981925 0.211010
vt 0.981925 0.211349
vt 0.983279 0.211349
vt 0.983279 0.211010
vt 0.981925 0.212642
vt 0.981925 0.212703
vt 0.983279 0.212703
vt 0.983279 0.212642
vt 0.981864 0.211010
vt 0.981864 0.211349
vt 0.984573 0.211010
vt 0.984573 0.211349
vt 0.984634 0.211349
vt 0.984634 0.211010
vt 0.983339 0.211010
vt 0.983339 0.211349
vt 0.983956 0.211349
vt 0.983956 0.211010
vt 0.980631 0.211010
vt 0.980631 0.211349
vt 0.981247 0.211349
vt 0.981247 0.211010
vt 0.981925 0.211409
vt 0.981925 0.212026
vt 0.983279 0.212026
vt 0.983279 0.211409
vt 0.981925 0.208701
vt 0.981925 0.209317
vt 0.983279 0.209317
vt 0.983279 0.208701
vt 0.980570 0.211010
vt 0.980570 0.211349
vt 0.981247 0.210333
vt 0.981247 0.210671
vt 0.981864 0.210671
vt 0.981864 0.210333
vt 0.983279 0.210333
vt 0.983279 0.210671
vt 0.983339 0.210671
vt 0.983339 0.210333
vt 0.983956 0.210333
vt 0.983956 0.210671
vt 0.984573 0.210671
vt 0.984573 0.210333
vt 0.980570 0.210333
vt 0.980570 0.210671
vt 0.980631 0.210671
vt 0.980631 0.210333
vt 0.984634 0.210671
vt 0.984634 0.210333
vt 0.981925 0.210671
vt 0.981925 0.210333
vt 0.981925 0.207624
vt 0.981925 0.207962
vt 0.983279 0.207962
vt 0.983279 0.207624
vt 0.981925 0.207285
vt 0.983279 0.207285
vt 0.981864 0.209994
vt 0.984573 0.209994
vt 0.984634 0.209994
vt 0.983339 0.209994
vt 0.983956 0.209994
vt 0.980631 0.209994
vt 0.981247 0.209994
vt 0.980570 0.209994
vt 0.981925 0.208301
vt 0.981925 0.208640
vt 0.983279 0.208640
vt 0.983279 0.208301
vt 0.981925 0.209934
vt 0.981925 0.209994
vt 0.983279 0.209994
vt 0.983279 0.209934
vt 0.981925 0.211010
vt 0.981925 0.211349
vt 0.983279 0.211349
vt 0.983279 0.211010
vt 0.981925 0.212642
vt 0.981925 0.212703
vt 0.983279 0.212703
vt 0.983279 0.212642
vt 0.981864 0.211010
vt 0.981864 0.211349
vt 0.984573 0.211010
vt 0.984573 0.211349
vt 0.984634 0.211349
vt 0.984634 0.211010
vt 0.983339 0.211010
vt 0.983339 0.211349
vt 0.983956 0.211349
vt 0.983956 0.211010
vt 0.980631 0.211010
vt 0.980631 0.211349
vt 0.981247 0.211349
vt 0.981247 0.211010
vt 0.981925 0.211409
vt 0.981925 0.212026
vt 0.983279 0.212026
vt 0.983279 0.211409
vt 0.981925 0.208701
vt 0.981925 0.209317
vt 0.983279 0.209317
vt 0.983279 0.208701
vt 0.980570 0.211010
vt 0.980570 0.211349
vt 0.981247 0.210333
vt 0.981247 0.210671
vt 0.981864 0.210671
vt 0.981864 0.210333
vt 0.983279 0.210333
vt 0.983279 0.210671
vt 0.983339 0.210671
vt 0.983339 0.210333
vt 0.983956 0.210333
vt 0.983956 0.210671
vt 0.984573 0.210671
vt 0.984573 0.210333
vt 0.980570 0.210333
vt 0.980570 0.210671
vt 0.980631 0.210671
vt 0.980631 0.210333
vt 0.984634 0.210671
vt 0.984634 0.210333
vt 0.981925 0.210671
vt 0.981925 0.210333
vt 0.981925 0.207624
vt 0.981925 0.207962
vt 0.983279 0.207962
vt 0.983279 0.207624
vt 0.981925 0.207285
vt 0.983279 0.207285
vt 0.981864 0.209994
vt 0.984573 0.209994
vt 0.984634 0.209994
vt 0.983339 0.209994
vt 0.983956 0.209994
vt 0.980631 0.209994
vt 0.981247 0.209994
vt 0.980570 0.209994
vt 0.452814 0.479259
vt 0.452814 0.479918
vt 0.455452 0.479918
vt 0.455452 0.479259
vt 0.452814 0.482439
vt 0.452814 0.482556
vt 0.455452 0.482556
vt 0.455452 0.482439
vt 0.452814 0.484534
vt 0.452814 0.485194
vt 0.455452 0.485194
vt 0.455452 0.484534
vt 0.452814 0.487713
vt 0.452814 0.487832
vt 0.455452 0.487832
vt 0.455452 0.487713
vt 0.452697 0.484534
vt 0.452697 0.485194
vt 0.457971 0.484534
vt 0.457971 0.485194
vt 0.458090 0.485194
vt 0.458090 0.484534
vt 0.455569 0.484534
vt 0.455569 0.485194
vt 0.456771 0.485194
vt 0.456771 0.484534
vt 0.450295 0.484534
vt 0.450295 0.485194
vt 0.451495 0.485194
vt 0.451495 0.484534
vt 0.452814 0.485311
vt 0.452814 0.486513
vt 0.455452 0.486513
vt 0.455452 0.485311
vt 0.452814 0.480037
vt 0.452814 0.481237
vt 0.455452 0.481237
vt 0.455452 0.480037
vt 0.450176 0.484534
vt 0.450176 0.485194
vt 0.451495 0.483216
vt 0.451495 0.483875
vt 0.452697 0.483875
vt 0.452697 0.483216
vt 0.455452 0.483216
vt 0.455452 0.483875
vt 0.455569 0.483875
vt 0.455569 0.483216
vt 0.456771 0.483216
vt 0.456771 0.483875
vt 0.457971 0.483875
vt 0.457971 0.483216
vt 0.450176 0.483216
vt 0.450176 0.483875
vt 0.450295 0.483875
vt 0.450295 0.483216
vt 0.458090 0.483875
vt 0.458090 0.483216
vt 0.452814 0.483875
vt 0.452814 0.483216
vt 0.452814 0.477940
vt 0.452814 0.478599
vt 0.455452 0.478599
vt 0.455452 0.477940
vt 0.452814 0.477280
vt 0.455452 0.477280
vt 0.452697 0.482556
vt 0.457971 0.482556
vt 0.458090 0.482556
vt 0.455569 0.482556
vt 0.456771 0.482556
vt 0.450295 0.482556
vt 0.451495 0.482556
vt 0.450176 0.482556
vt 0.277397 0.414655
vt 0.277397 0.414280
vt 0.275897 0.414280
vt 0.275897 0.414655
vt 0.277397 0.412847
vt 0.277397 0.412780
vt 0.275897 0.412780
vt 0.275897 0.412847
vt 0.277397 0.411656
vt 0.277397 0.411281
vt 0.275897 0.411281
vt 0.275897 0.411656
vt 0.277397 0.409849
vt 0.277397 0.409781
vt 0.275897 0.409781
vt 0.275897 0.409849
vt 0.277463 0.411656
vt 0.277463 0.411281
vt 0.274465 0.411656
vt 0.274465 0.411281
vt 0.274398 0.411281
vt 0.274398 0.411656
vt 0.275831 0.411656
vt 0.275831 0.411281
vt 0.275148 0.411281
vt 0.275148 0.411656
vt 0.278829 0.411656
vt 0.278829 0.411281
vt 0.278147 0.411281
vt 0.278147 0.411656
vt 0.277397 0.411214
vt 0.277397 0.410531
vt 0.275897 0.410531
vt 0.275897 0.411214
vt 0.277397 0.414212
vt 0.277397 0.413530
vt 0.275897 0.413530
vt 0.275897 0.414212
vt 0.278896 0.411656
vt 0.278896 0.411281
vt 0.278147 0.412405
vt 0.278147 0.412030
vt 0.277463 0.412030
vt 0.277463 0.412405
vt 0.275897 0.412405
vt 0.275897 0.412030
vt 0.275831 0.412030
vt 0.275831 0.412405
vt 0.275148 0.412405
vt 0.275148 0.412030
vt 0.274465 0.412030
vt 0.274465 0.412405
vt 0.278896 0.412405
vt 0.278896 0.412030
vt 0.278829 0.412030
vt 0.278829 0.412405
vt 0.274398 0.412030
vt 0.274398 0.412405
vt 0.277397 0.412030
vt 0.277397 0.412405
vt 0.277397 0.415404
vt 0.277397 0.415029
vt 0.275897 0.415029
vt 0.275897 0.415404
vt 0.277397 0.415779
vt 0.275897 0.415779
vt 0.277463 0.412780
vt 0.274465 0.412780
vt 0.274398 0.412780
vt 0.275831 0.412780
vt 0.275148 0.412780
vt 0.278829 0.412780
vt 0.278147 0.412780
vt 0.278896 0.412780
vt 0.068877 0.481629
vt 0.068877 0.481815
vt 0.069619 0.481815
vt 0.069619 0.481629
vt 0.068877 0.482523
vt 0.068877 0.482556
vt 0.069619 0.482556
vt 0.069619 0.482523
vt 0.068877 0.483112
vt 0.068877 0.483297
vt 0.069619 0.483297
vt 0.069619 0.483112
vt 0.068877 0.484005
vt 0.068877 0.484039
vt 0.069619 0.484039
vt 0.069619 0.484005
vt 0.068844 0.483112
vt 0.068844 0.483297
vt 0.070327 0.483112
vt 0.070327 0.483297
vt 0.070360 0.483297
vt 0.070360 0.483112
vt 0.069652 0.483112
vt 0.069652 0.483297
vt 0.069989 0.483297
vt 0.069989 0.483112
vt 0.068169 0.483112
vt 0.068169 0.483297
vt 0.068507 0.483297
vt 0.068507 0.483112
vt 0.068877 0.483330
vt 0.068877 0.483668
vt 0.069619 0.483668
vt 0.069619 0.483330
vt 0.068877 0.481848
vt 0.068877 0.482185
vt 0.069619 0.482185
vt 0.069619 0.481848
vt 0.068136 0.483112
vt 0.068136 0.483297
vt 0.068507 0.482741
vt 0.068507 0.482927
vt 0.068844 0.482927
vt 0.068844 0.482741
vt 0.069619 0.482741
vt 0.069619 0.482927
vt 0.069652 0.482927
vt 0.069652 0.482741
vt 0.069989 0.482741
vt 0.069989 0.482927
vt 0.070327 0.482927
vt 0.070327 0.482741
vt 0.068136 0.482741
vt 0.068136 0.482927
vt 0.068169 0.482927
vt 0.068169 0.482741
vt 0.070360 0.482927
vt 0.070360 0.482741
vt 0.068877 0.482927
vt 0.068877 0.482741
vt 0.068877 0.481259
vt 0.068877 0.481444
vt 0.069619 0.481444
vt 0.069619 0.481259
vt 0.068877 0.481073
vt 0.069619 0.481073
vt 0.068844 0.482556
vt 0.070327 0.482556
vt 0.070360 0.482556
vt 0.069652 0.482556
vt 0.069989 0.482556
vt 0.068169 0.482556
vt 0.068507 0.482556
vt 0.068136 0.482556
vt 0.999956 0.003633
vt 0.996093 0.992288
vt 0.495135 0.996607
vt 0.495828 0.002301
vt 0.005552 0.995674
vt 0.003068 0.003685
vt 0.982374 0.182171
vt 0.978842 0.182171
vt 0.978842 0.178638
vt 0.982374 0.178638
vt 0.978842 0.175106
vt 0.982374 0.175106
vt 0.982096 0.174902
vt 0.978842 0.171574
vt 0.982374 0.171574
vt 0.982096 0.171778
vt 0.979292 0.171778
vt 0.979292 0.174902
vt 0.978842 0.168042
vt 0.982374 0.168042
vt 0.985906 0.175106
vt 0.985906 0.171574
vt 0.975309 0.175106
vt 0.975309 0.171574
vt 0.982374 0.182171
vt 0.982374 0.178638
vt 0.978842 0.178638
vt 0.978842 0.182171
vt 0.978842 0.175636
vt 0.982374 0.175636
vt 0.982374 0.171044
vt 0.982374 0.168042
vt 0.978842 0.168042
vt 0.978842 0.171044
vt 0.985906 0.175106
vt 0.985906 0.171574
vt 0.982904 0.171574
vt 0.982904 0.175106
vt 0.975309 0.171574
vt 0.975309 0.175106
vt 0.978311 0.175106
vt 0.978311 0.171574
vn -1.0000 0.0000 0.0000
vn 1.0000 0.0000 0.0000
vn 0.0000 0.9379 0.3470
vn 0.0000 -0.9379 -0.3470
vn 0.0000 -0.0980 -0.9952
vn 0.0000 -0.2903 -0.9569
vn 0.0000 -0.4714 -0.8819
vn 0.0000 -0.6344 -0.7730
vn 0.0000 -0.7730 -0.6344
vn 0.0000 -0.8819 -0.4714
vn 0.0000 -0.9569 -0.2903
vn 0.0000 -0.9952 -0.0980
vn 0.0000 -0.9952 0.0980
vn 0.0000 -0.9569 0.2903
vn 0.0000 -0.8819 0.4714
vn 0.0000 -0.7730 0.6344
vn 0.0000 -0.5176 0.8556
vn 0.0000 -0.4714 0.8819
vn -0.0020 0.7574 -0.6529
vn 0.0004 -0.1607 0.9870
vn 0.0000 0.0980 0.9952
vn 0.0000 0.2903 0.9569
vn 0.0000 0.4714 0.8819
vn -0.0000 0.6344 0.7730
vn -0.0000 0.7730 0.6344
vn 0.0000 0.8819 0.4714
vn 0.0000 0.9569 0.2903
vn 0.0000 0.9952 0.0980
vn 0.0000 0.9952 -0.0980
vn 0.0000 0.9569 -0.2903
vn 0.0000 0.8819 -0.4714
vn 0.0000 0.7730 -0.6344
vn 0.0000 0.6344 -0.7730
vn 0.0000 0.4714 -0.8819
vn 0.0000 0.2903 -0.9569
vn 0.0000 0.0980 -0.9952
vn 0.0000 0.9780 0.2086
vn 0.0000 -0.9888 -0.1492
vn 0.0000 0.9806 -0.1961
vn 0.0000 0.3594 0.9332
vn 0.0000 -0.8364 0.5481
vn 0.0000 0.7241 -0.6897
vn 0.0000 0.8725 0.4886
vn -0.0000 0.5715 -0.8206
vn 0.0000 0.4549 0.8905
vn -0.0000 0.5197 -0.8544
vn 0.0000 0.9884 0.1521
vn 0.0000 -0.8740 -0.4860
vn 0.0000 0.9509 0.3095
vn 0.0000 -0.9555 -0.2950
vn 0.0000 0.9687 0.2481
vn 0.0000 -0.9807 -0.1955
vn 0.0000 -0.3453 -0.9385
vn -0.2088 0.7295 0.6513
vn 0.0042 0.9783 0.2070
vn 0.0023 0.9783 0.2070
vn 0.0045 0.9784 0.2069
vn 0.0139 0.9565 0.2914
vn 0.0446 0.9643 0.2610
vn -0.4021 -0.3509 0.8457
vn 0.0000 0.9764 0.2161
vn -0.3313 0.3963 0.8563
vn 0.0000 0.9982 -0.0596
vn -0.3969 0.0114 0.9178
vn 0.0000 0.9421 -0.3353
vn -0.3258 -0.7490 0.5769
vn 0.0000 -0.7922 0.6102
vn 0.0000 0.0124 0.9999
vn 0.0000 0.4200 0.9075
vn 0.0000 -0.3832 0.9237
vn 0.0000 0.3706 -0.9288
vn -0.0064 0.9573 0.2891
vn -0.0013 0.9578 0.2874
vn 0.0000 0.9580 0.2869
vn -0.0038 0.9783 0.2070
vn -0.0021 0.9783 0.2070
vn 0.0000 0.9783 0.2071
vn 0.0000 0.7459 0.6660
vn 0.0000 -0.1635 0.9865
vn -0.0429 0.9111 0.4100
vn 0.0395 0.9112 0.4101
vn 0.1930 0.7319 0.6535
vn -0.0042 0.9784 0.2069
vn -0.0128 0.9565 0.2914
vn -0.0411 0.9644 0.2611
vn 0.3750 -0.3552 0.8562
vn 0.3077 0.3996 0.8635
vn 0.3700 0.0115 0.9290
vn 0.3025 -0.7551 0.5816
vn -0.9940 0.1057 0.0295
vn 0.9938 0.1067 0.0297
vn 0.5749 0.2335 -0.7842
vn -0.6384 -0.2196 0.7377
vn 0.0000 0.9584 0.2854
vn -0.0000 -0.9584 -0.2854
vn -0.0000 -0.9584 -0.2855
vn 0.0000 -0.2854 0.9584
vn 0.0000 0.2854 -0.9584
vn -0.5687 0.2348 -0.7884
vn 0.6445 -0.2182 0.7328
vn -0.6384 -0.2197 0.7377
vn -0.5686 0.2348 -0.7884
vn 0.6446 -0.2182 0.7328
vn 0.5749 0.2751 -0.7706
vn -0.6384 -0.2588 0.7249
vn 0.0000 0.9418 0.3362
vn -0.0000 -0.9418 -0.3362
vn 0.0000 -0.3362 0.9418
vn 0.0000 0.3363 -0.9418
vn -0.5686 0.2766 -0.7747
vn 0.6446 -0.2571 0.7200
vn 0.0000 0.9418 0.3363
vn 0.5748 0.2751 -0.7706
vn 0.0000 -0.3363 0.9418
vn 0.6445 -0.2571 0.7201
vn 0.0000 -0.9418 -0.3363
vn -0.6384 -0.2588 0.7248
vn 0.5749 0.2914 -0.7646
vn -0.6384 -0.2741 0.7192
vn -0.0000 0.9344 0.3561
vn -0.0000 0.9345 0.3561
vn -0.0000 -0.9344 -0.3561
vn -0.0000 -0.9345 -0.3561
vn -0.0000 -0.3561 0.9344
vn 0.0000 0.3561 -0.9344
vn -0.5686 0.2929 -0.7687
vn 0.6446 -0.2722 0.7144
vn 0.0000 -0.3561 0.9345
vn 0.6445 -0.2723 0.7145
vn 0.5749 0.2708 -0.7721
vn -0.6384 -0.2547 0.7263
vn 0.0000 0.9437 0.3309
vn 0.0000 0.9436 0.3310
vn 0.0000 0.9436 0.3309
vn 0.0000 -0.9436 -0.3309
vn 0.0000 -0.9436 -0.3310
vn 0.0000 -0.9437 -0.3309
vn 0.0000 -0.3310 0.9436
vn 0.0000 0.3309 -0.9437
vn -0.5686 0.2722 -0.7762
vn 0.6446 -0.2530 0.7215
vn 0.5748 0.2708 -0.7722
vn 0.6445 -0.2530 0.7215
vn -0.5686 0.2722 -0.7763
vn 0.0000 0.9632 0.2686
vn 0.0000 0.3470 -0.9379
vn 0.0000 -0.3469 0.9379
vn 0.0000 -0.3470 0.9378
vn -0.0000 -0.3470 0.9379
usemtl Material.002
s off
f 773/1/1 778/2/1 777/3/1 774/4/1
f 781/5/2 775/6/2 776/7/2 782/8/2
f 773/9/3 775/10/3 781/11/3 779/12/3 778/13/3
f 782/14/4 776/15/4 774/16/4 777/17/4 780/18/4
s 1
f 1/19/5 2/20/5 3/21/5 4/22/5
f 4/22/6 3/21/6 5/23/6 6/24/6
f 6/24/7 5/23/7 7/25/7 8/26/7
f 8/26/8 7/25/8 9/27/8 10/28/8
f 10/28/9 9/27/9 11/29/9 12/30/9
f 12/30/10 11/29/10 13/31/10 14/32/10
f 14/32/11 13/31/11 15/33/11 16/34/11
f 16/34/12 15/33/12 17/35/12 18/36/12
f 18/36/13 17/35/13 19/37/13 20/38/13
f 20/38/14 19/37/14 21/39/14 22/40/14
f 22/40/15 21/39/15 23/41/15 24/42/15
f 24/42/16 23/41/16 25/43/16 26/44/16
f 26/44/17 25/43/17 27/45/17 28/46/17
f 28/46/18 27/45/18 29/47/18 30/48/18
f 30/48/19 29/47/19 31/49/19 32/50/19
f 32/50/20 31/49/20 33/51/20 34/52/20
f 34/52/21 33/51/21 35/53/21 36/54/21
f 36/54/22 35/53/22 37/55/22 38/56/22
f 38/56/23 37/55/23 39/57/23 40/58/23
f 40/58/24 39/57/24 41/59/24 42/60/24
f 42/60/25 41/59/25 43/61/25 44/62/25
f 44/62/26 43/61/26 45/63/26 46/64/26
f 46/64/27 45/63/27 47/65/27 48/66/27
f 48/66/28 47/65/28 49/67/28 50/68/28
f 50/68/29 49/67/29 51/69/29 52/70/29
f 52/70/30 51/69/30 53/71/30 54/72/30
f 54/72/31 53/71/31 55/73/31 56/74/31
f 56/74/32 55/73/32 57/75/32 58/76/32
f 58/76/33 57/75/33 59/77/33 60/78/33
f 60/78/34 59/77/34 61/79/34 62/80/34
f 27/81/2 25/82/2 23/83/2 21/84/2 19/85/2 17/86/2 15/87/2 13/88/2 11/89/2 9/90/2 7/91/2 5/92/2 3/93/2 2/94/2 63/95/2 61/96/2 59/97/2 57/98/2 55/99/2 53/100/2 51/101/2 49/102/2 47/103/2 45/104/2 43/105/2 41/106/2 39/107/2 37/108/2 35/109/2 33/110/2 31/111/2 29/112/2
f 62/80/35 61/79/35 63/113/35 64/114/35
f 64/114/36 63/113/36 2/115/36 1/116/36
f 32/117/1 34/118/1 36/119/1 38/120/1 40/121/1 42/122/1 44/123/1 46/124/1 48/125/1 50/126/1 52/127/1 54/128/1 56/129/1 58/130/1 60/131/1 62/132/1 64/133/1 1/134/1 4/135/1 6/136/1 8/137/1 10/138/1 12/139/1 14/140/1 16/141/1 18/142/1 20/143/1 22/144/1 24/145/1 26/146/1 28/147/1 30/148/1
f 80/149/2 79/150/2 78/151/2 77/152/2 76/153/2 75/154/2 74/155/2 73/156/2 72/157/2 71/158/2 70/159/2 69/160/2 68/161/2 67/162/2 66/163/2 65/164/2
f 81/165/1 96/166/1 95/167/1 94/168/1 93/169/1 92/170/1 91/171/1 90/172/1 89/173/1 88/174/1 87/175/1 86/176/1 85/177/1 84/178/1 83/179/1 82/180/1
f 71/158/37 91/171/37 92/170/37 70/159/37
f 79/150/38 83/179/38 84/178/38 78/151/38
f 72/157/39 90/172/39 91/171/39 71/158/39
f 66/163/40 96/166/40 81/165/40 65/164/40
f 80/149/41 82/180/41 83/179/41 79/150/41
f 73/156/42 89/173/42 90/172/42 72/157/42
f 68/161/43 94/168/43 95/167/43 67/162/43
f 74/155/44 88/174/44 89/173/44 73/156/44
f 67/162/45 774/181/45 773/182/45 66/163/45
f 66/163/45 773/182/45 775/183/45 776/184/45 774/181/45 67/162/45 95/167/45 96/166/45
f 75/154/46 87/175/46 88/174/46 74/155/46
f 65/164/47 81/165/47 82/180/47 80/149/47
f 76/153/48 86/176/48 87/175/48 75/154/48
f 69/160/49 93/169/49 94/168/49 68/161/49
f 77/152/50 85/177/50 86/176/50 76/153/50
f 70/159/51 92/170/51 93/169/51 69/160/51
f 78/151/52 84/178/52 85/177/52 77/152/52
f 97/185/53 98/186/53 99/187/53 100/188/53
f 101/189/54 102/190/54 103/191/54 104/192/54
f 105/193/55 98/186/56 99/187/57 106/194/57
f 107/195/3 108/196/3 109/197/3 110/198/3
f 108/196/58 111/199/58 112/200/58 109/197/58
f 111/199/59 113/201/59 114/202/59 112/200/59
f 115/203/60 116/204/60 117/205/60 118/206/60
f 113/201/61 119/207/61 120/208/61 114/202/61
f 121/209/62 101/189/62 104/192/62 122/210/62
f 119/207/63 123/211/63 124/212/63 120/208/63
f 116/204/64 121/209/64 122/210/64 117/205/64
f 123/211/65 97/185/65 100/188/65 124/212/65
f 105/193/66 115/203/66 118/206/66 106/194/66
f 104/192/1 103/191/1 110/198/1 109/197/1 112/200/1 114/202/1 120/208/1 124/212/1 100/188/1 99/187/1 106/194/1 118/206/1 117/205/1 122/210/1
f 125/213/2 126/214/2 127/215/2 128/216/2 129/217/2 130/218/2 131/219/2 132/220/2 133/221/2 134/222/2 135/223/2 136/224/2 137/225/2 138/226/2
f 139/227/67 140/228/67 141/229/67 142/230/67
f 143/231/65 144/232/65 145/233/65 146/234/65
f 779/235/68 150/236/68 147/237/68 148/238/68 149/239/68 780/240/68 777/241/68 778/242/68
f 151/243/63 143/231/63 146/234/63 152/244/63
f 148/238/69 153/245/69 154/246/69 149/239/69
f 155/247/61 151/243/61 152/244/61 156/248/61
f 140/228/70 147/237/70 150/236/70 141/229/70
f 157/249/71 158/250/71 159/251/71 160/252/71
f 161/253/72 158/250/73 157/249/74 162/254/74
f 163/255/3 161/253/3 162/254/3 164/256/3
f 139/227/75 165/257/76 166/258/77 142/230/77
f 153/245/78 167/259/78 168/260/78 154/246/78
f 144/232/53 165/257/53 166/258/53 145/233/53
f 142/230/67 141/229/67 115/203/67 105/193/67
f 146/234/65 145/233/65 97/185/65 123/211/65
f 780/240/68 149/239/68 121/209/68 116/204/68 150/236/68 779/235/68 781/261/68 782/262/68
f 152/244/63 146/234/63 123/211/63 119/207/63
f 149/239/69 154/246/69 101/189/69 121/209/69
f 156/248/61 152/244/61 119/207/61 113/201/61
f 141/229/70 150/236/70 116/204/70 115/203/70
f 156/248/79 113/201/79 169/263/79 170/264/79
f 162/254/74 157/249/74 111/199/74 108/196/74
f 164/256/3 162/254/3 108/196/3 107/195/3
f 142/230/77 166/258/77 98/186/56 105/193/55
f 154/246/78 168/260/78 102/190/78 101/189/78
f 145/233/53 166/258/53 98/186/53 97/185/53
f 168/260/3 164/256/3 107/195/3 102/190/3
f 167/259/3 163/255/3 164/256/3 168/260/3
f 102/190/80 107/195/80 110/198/80 103/191/80
f 135/223/81 134/222/81 163/255/81 167/259/81
f 128/216/53 127/215/53 165/257/53 144/232/53
f 136/224/82 135/223/82 167/259/82 153/245/82
f 126/214/83 127/215/83 165/257/76 139/227/75
f 134/222/3 133/221/3 161/253/3 163/255/3
f 133/221/84 132/220/84 158/250/73 161/253/72
f 132/220/85 131/219/85 155/247/85 158/250/85
f 125/213/86 138/226/86 147/237/86 140/228/86
f 131/219/61 130/218/61 151/243/61 155/247/61
f 137/225/87 136/224/87 153/245/87 148/238/87
f 130/218/63 129/217/63 143/231/63 151/243/63
f 138/226/88 137/225/88 148/238/88 147/237/88
f 129/217/65 128/216/65 144/232/65 143/231/65
f 126/214/89 125/213/89 140/228/89 139/227/89
f 158/250/90 155/247/90 171/265/90 159/251/90
f 113/201/91 111/199/91 172/266/91 169/263/91
f 155/247/79 156/248/79 170/264/79 171/265/79
f 111/199/71 157/249/71 160/252/71 172/266/71
f 173/267/1 176/268/1 175/269/1 174/270/1
f 177/271/92 180/272/92 179/273/92 178/274/92
f 181/275/2 184/276/2 183/277/2 182/278/2
f 185/279/93 188/280/93 187/281/93 186/282/93
f 189/283/94 190/284/94 184/276/94 181/275/94
f 191/285/95 186/286/95 187/287/96 192/288/95
f 193/289/95 196/290/95 195/291/95 194/292/95
f 197/293/94 185/294/94 199/295/94 198/296/94
f 190/297/97 199/298/97 195/299/97 196/300/97
f 200/301/98 203/302/98 202/303/98 201/304/98
f 176/268/99 200/301/99 201/304/99 175/269/99
f 204/305/94 188/306/94 185/294/94 197/293/94
f 194/292/95 195/291/95 186/286/95 191/285/95
f 199/298/97 185/279/97 186/282/97 195/299/97
f 184/276/100 190/297/100 196/300/100 183/277/100
f 182/278/95 183/277/95 196/290/95 193/289/95
f 198/296/94 199/295/94 190/284/94 189/283/94
f 203/302/98 177/271/98 178/274/98 202/303/98
f 205/307/94 208/308/94 207/309/94 206/310/94
f 209/311/95 212/312/95 211/313/95 210/314/95
f 213/315/95 216/316/95 215/317/95 214/318/95
f 173/319/94 219/320/94 218/321/94 217/322/94
f 217/322/94 218/321/94 208/308/94 205/307/94
f 210/314/95 211/313/95 216/316/95 213/315/95
f 214/318/95 215/317/95 220/323/95 174/324/95
f 206/310/94 207/309/94 222/325/94 221/326/94
f 221/326/2 222/325/2 212/312/2 209/311/2
f 204/327/1 219/328/1 220/329/1 192/330/1
f 188/331/1 204/327/1 192/330/1 187/332/1
f 208/308/94 198/296/94 189/283/94 207/309/94
f 212/312/95 182/278/95 193/289/95 211/313/95
f 216/316/95 194/292/95 191/285/95 215/317/95
f 219/320/94 204/305/94 197/293/94 218/321/94
f 218/321/94 197/293/94 198/296/94 208/308/94
f 211/313/95 193/289/95 194/292/95 216/316/95
f 215/317/95 191/285/95 192/288/95 220/323/95
f 207/309/94 189/283/94 181/275/94 222/325/94
f 222/325/2 181/275/2 182/278/2 212/312/2
f 180/272/2 221/326/2 209/311/2 179/273/2
f 177/333/94 206/310/94 221/326/94 180/272/94
f 201/334/95 214/318/95 174/324/95 175/335/95
f 178/336/95 210/314/95 213/315/95 202/337/95
f 200/338/94 217/322/94 205/307/94 203/339/94
f 176/340/94 173/319/94 217/322/94 200/338/94
f 202/337/95 213/315/95 214/318/95 201/334/95
f 179/273/95 209/311/95 210/314/95 178/336/95
f 203/339/94 205/307/94 206/310/94 177/333/94
f 219/328/1 173/267/1 174/270/1 220/329/1
f 223/341/1 226/342/1 225/343/1 224/344/1
f 227/345/92 230/346/92 229/347/92 228/348/92
f 231/349/2 234/350/2 233/351/2 232/352/2
f 235/353/101 238/354/101 237/355/101 236/356/101
f 239/357/94 240/358/94 234/350/94 231/349/94
f 241/359/95 236/360/95 237/361/95 242/362/95
f 243/363/95 246/364/95 245/365/95 244/366/95
f 247/367/94 235/368/94 249/369/94 248/370/94
f 240/371/97 249/372/97 245/373/97 246/374/97
f 250/375/98 253/376/98 252/377/98 251/378/98
f 226/342/102 250/375/102 251/378/102 225/343/102
f 254/379/94 238/380/94 235/368/94 247/367/94
f 244/366/95 245/365/95 236/360/95 241/359/95
f 249/372/97 235/353/97 236/356/97 245/373/97
f 234/350/100 240/371/100 246/374/100 233/351/100
f 232/352/95 233/351/95 246/364/95 243/363/95
f 248/370/94 249/369/94 240/358/94 239/357/94
f 253/376/98 227/345/98 228/348/98 252/377/98
f 255/381/94 258/382/94 257/383/94 256/384/94
f 259/385/95 262/386/95 261/387/95 260/388/95
f 263/389/95 266/390/95 265/391/95 264/392/95
f 223/393/94 269/394/94 268/395/94 267/396/94
f 267/396/94 268/395/94 258/382/94 255/381/94
f 260/388/95 261/387/95 266/390/95 263/389/95
f 264/392/95 265/391/95 270/397/95 224/398/95
f 256/384/94 257/383/94 272/399/94 271/400/94
f 271/400/2 272/399/2 262/386/2 259/385/2
f 254/401/1 269/402/1 270/403/1 242/404/1
f 238/405/1 254/401/1 242/404/1 237/406/1
f 258/382/94 248/370/94 239/357/94 257/383/94
f 262/386/95 232/352/95 243/363/95 261/387/95
f 266/390/95 244/366/95 241/359/95 265/391/95
f 269/394/94 254/379/94 247/367/94 268/395/94
f 268/395/94 247/367/94 248/370/94 258/382/94
f 261/387/95 243/363/95 244/366/95 266/390/95
f 265/391/95 241/359/95 242/362/95 270/397/95
f 257/383/94 239/357/94 231/349/94 272/399/94
f 272/399/2 231/349/2 232/352/2 262/386/2
f 230/346/2 271/400/2 259/385/2 229/347/2
f 227/407/94 256/384/94 271/400/94 230/346/94
f 251/408/95 264/392/95 224/398/95 225/409/95
f 228/410/95 260/388/95 263/389/95 252/411/95
f 250/412/94 267/396/94 255/381/94 253/413/94
f 226/414/94 223/393/94 267/396/94 250/412/94
f 252/411/95 263/389/95 264/392/95 251/408/95
f 229/347/95 259/385/95 260/388/95 228/410/95
f 253/413/94 255/381/94 256/384/94 227/407/94
f 269/402/1 223/341/1 224/344/1 270/403/1
f 273/415/1 276/416/1 275/417/1 274/418/1
f 277/419/92 280/420/92 279/421/92 278/422/92
f 281/423/2 284/424/2 283/425/2 282/426/2
f 285/427/93 288/428/93 287/429/93 286/430/93
f 289/431/94 290/432/94 284/424/94 281/423/94
f 291/433/95 286/434/95 287/435/96 292/436/95
f 293/437/95 296/438/95 295/439/95 294/440/95
f 297/441/94 285/442/94 299/443/94 298/444/94
f 290/445/97 299/446/97 295/447/97 296/448/97
f 300/449/98 303/450/98 302/451/98 301/452/98
f 276/416/102 300/449/102 301/452/102 275/417/102
f 304/453/94 288/454/94 285/442/94 297/441/94
f 294/440/95 295/439/95 286/434/95 291/433/95
f 299/446/97 285/427/97 286/430/97 295/447/97
f 284/424/103 290/445/103 296/448/103 283/425/103
f 282/426/95 283/425/95 296/438/95 293/437/95
f 298/444/94 299/443/94 290/432/94 289/431/94
f 303/450/98 277/419/98 278/422/98 302/451/98
f 305/455/94 308/456/94 307/457/94 306/458/94
f 309/459/95 312/460/95 311/461/95 310/462/95
f 313/463/95 316/464/95 315/465/95 314/466/95
f 273/467/94 319/468/94 318/469/94 317/470/94
f 317/470/94 318/469/94 308/456/94 305/455/94
f 310/462/95 311/461/95 316/464/95 313/463/95
f 314/466/95 315/465/95 320/471/95 274/472/95
f 306/458/94 307/457/94 322/473/94 321/474/94
f 321/474/2 322/473/2 312/460/2 309/459/2
f 304/475/1 319/476/1 320/477/1 292/478/1
f 288/479/1 304/475/1 292/478/1 287/480/1
f 308/456/94 298/444/94 289/431/94 307/457/94
f 312/460/95 282/426/95 293/437/95 311/461/95
f 316/464/95 294/440/95 291/433/95 315/465/95
f 319/468/94 304/453/94 297/441/94 318/469/94
f 318/469/94 297/441/94 298/444/94 308/456/94
f 311/461/95 293/437/95 294/440/95 316/464/95
f 315/465/95 291/433/95 292/436/95 320/471/95
f 307/457/94 289/431/94 281/423/94 322/473/94
f 322/473/2 281/423/2 282/426/2 312/460/2
f 280/420/2 321/474/2 309/459/2 279/421/2
f 277/481/94 306/458/94 321/474/94 280/420/94
f 301/482/95 314/466/95 274/472/95 275/483/95
f 278/484/95 310/462/95 313/463/95 302/485/95
f 300/486/94 317/470/94 305/455/94 303/487/94
f 276/488/94 273/467/94 317/470/94 300/486/94
f 302/485/95 313/463/95 314/466/95 301/482/95
f 279/421/95 309/459/95 310/462/95 278/484/95
f 303/487/94 305/455/94 306/458/94 277/481/94
f 319/476/1 273/415/1 274/418/1 320/477/1
f 323/489/1 326/490/1 325/491/1 324/492/1
f 327/493/104 330/494/104 329/495/104 328/496/104
f 331/497/2 334/498/2 333/499/2 332/500/2
f 335/501/105 338/502/105 337/503/105 336/504/105
f 339/505/106 340/506/106 334/498/106 331/497/106
f 341/507/107 336/508/107 337/509/107 342/510/107
f 343/511/107 346/512/107 345/513/107 344/514/107
f 347/515/106 335/516/106 349/517/106 348/518/106
f 340/519/108 349/520/108 345/521/108 346/522/108
f 350/523/109 353/524/109 352/525/109 351/526/109
f 326/490/110 350/523/110 351/526/110 325/491/110
f 354/527/106 338/528/106 335/516/106 347/515/106
f 344/514/107 345/513/107 336/508/107 341/507/107
f 349/520/108 335/501/108 336/504/108 345/521/108
f 334/498/111 340/519/111 346/522/111 333/499/111
f 332/500/107 333/499/107 346/512/107 343/511/107
f 348/518/106 349/517/106 340/506/106 339/505/106
f 353/524/109 327/493/109 328/496/109 352/525/109
f 355/529/106 358/530/106 357/531/106 356/532/106
f 359/533/107 362/534/107 361/535/107 360/536/107
f 363/537/107 366/538/107 365/539/107 364/540/107
f 323/541/106 369/542/106 368/543/106 367/544/106
f 367/544/106 368/543/106 358/530/106 355/529/106
f 360/536/107 361/535/107 366/538/107 363/537/107
f 364/540/107 365/539/107 370/545/107 324/546/107
f 356/532/106 357/531/106 372/547/106 371/548/106
f 371/548/2 372/547/2 362/534/2 359/533/2
f 354/549/1 369/550/1 370/551/1 342/552/1
f 338/553/1 354/549/1 342/552/1 337/554/1
f 358/530/106 348/518/106 339/505/106 357/531/106
f 362/534/107 332/500/107 343/511/107 361/535/107
f 366/538/107 344/514/107 341/507/107 365/539/107
f 369/542/106 354/527/106 347/515/106 368/543/106
f 368/543/106 347/515/106 348/518/106 358/530/106
f 361/535/107 343/511/107 344/514/107 366/538/107
f 365/539/107 341/507/107 342/510/107 370/545/107
f 357/531/106 339/505/106 331/497/106 372/547/106
f 372/547/2 331/497/2 332/500/2 362/534/2
f 330/494/2 371/548/2 359/533/2 329/495/2
f 327/555/106 356/532/106 371/548/106 330/494/106
f 351/556/107 364/540/107 324/546/107 325/557/107
f 328/558/107 360/536/107 363/537/107 352/559/107
f 350/560/112 367/544/106 355/529/106 353/561/106
f 326/562/112 323/541/106 367/544/106 350/560/112
f 352/559/107 363/537/107 364/540/107 351/556/107
f 329/495/107 359/533/107 360/536/107 328/558/107
f 353/561/106 355/529/106 356/532/106 327/555/106
f 369/550/1 323/489/1 324/492/1 370/551/1
f 373/563/1 376/564/1 375/565/1 374/566/1
f 377/567/113 380/568/113 379/569/113 378/570/113
f 381/571/2 384/572/2 383/573/2 382/574/2
f 385/575/105 388/576/105 387/577/105 386/578/105
f 389/579/106 390/580/106 384/572/106 381/571/106
f 391/581/107 386/582/107 387/583/107 392/584/107
f 393/585/107 396/586/107 395/587/107 394/588/107
f 397/589/106 385/590/106 399/591/106 398/592/106
f 390/593/114 399/594/108 395/595/108 396/596/114
f 400/597/109 403/598/109 402/599/109 401/600/109
f 376/564/110 400/597/110 401/600/110 375/565/110
f 404/601/106 388/602/106 385/590/106 397/589/106
f 394/588/107 395/587/107 386/582/107 391/581/107
f 399/594/108 385/575/108 386/578/108 395/595/108
f 384/572/115 390/593/115 396/596/115 383/573/115
f 382/574/107 383/573/107 396/586/107 393/585/107
f 398/592/106 399/591/106 390/580/106 389/579/106
f 403/598/109 377/567/109 378/570/109 402/599/109
f 405/603/106 408/604/106 407/605/106 406/606/106
f 409/607/116 412/608/107 411/609/107 410/610/107
f 413/611/107 416/612/107 415/613/107 414/614/107
f 373/615/106 419/616/106 418/617/106 417/618/106
f 417/618/106 418/617/106 408/604/106 405/603/106
f 410/610/107 411/609/107 416/612/107 413/611/107
f 414/614/107 415/613/107 420/619/107 374/620/107
f 406/606/106 407/605/106 422/621/106 421/622/106
f 421/622/2 422/621/2 412/608/2 409/607/2
f 404/623/1 419/624/1 420/625/1 392/626/1
f 388/627/1 404/623/1 392/626/1 387/628/1
f 408/604/106 398/592/106 389/579/106 407/605/106
f 412/608/107 382/574/107 393/585/107 411/609/107
f 416/612/107 394/588/107 391/581/107 415/613/107
f 419/616/106 404/601/106 397/589/106 418/617/106
f 418/617/106 397/589/106 398/592/106 408/604/106
f 411/609/107 393/585/107 394/588/107 416/612/107
f 415/613/107 391/581/107 392/584/107 420/619/107
f 407/605/106 389/579/106 381/571/106 422/621/106
f 422/621/2 381/571/2 382/574/2 412/608/2
f 380/568/2 421/622/2 409/607/2 379/569/2
f 377/629/106 406/606/106 421/622/106 380/568/106
f 401/630/107 414/614/107 374/620/107 375/631/107
f 378/632/107 410/610/107 413/611/107 402/633/107
f 400/634/106 417/618/106 405/603/106 403/635/106
f 376/636/112 373/615/106 417/618/106 400/634/106
f 402/633/107 413/611/107 414/614/107 401/630/107
f 379/569/107 409/607/116 410/610/107 378/632/107
f 403/635/106 405/603/106 406/606/106 377/629/106
f 419/624/1 373/563/1 374/566/1 420/625/1
f 423/637/1 426/638/1 425/639/1 424/640/1
f 427/641/104 430/642/104 429/643/104 428/644/104
f 431/645/2 434/646/2 433/647/2 432/648/2
f 435/649/117 438/650/117 437/651/117 436/652/117
f 439/653/106 440/654/106 434/646/106 431/645/106
f 441/655/107 436/656/107 437/657/107 442/658/107
f 443/659/107 446/660/107 445/661/107 444/662/107
f 447/663/106 435/664/106 449/665/106 448/666/106
f 440/667/108 449/668/108 445/669/108 446/670/108
f 450/671/109 453/672/109 452/673/109 451/674/109
f 426/638/110 450/671/110 451/674/110 425/639/110
f 454/675/106 438/676/112 435/664/106 447/663/106
f 444/662/107 445/661/107 436/656/107 441/655/107
f 449/668/108 435/649/108 436/652/108 445/669/108
f 434/646/111 440/667/111 446/670/111 433/647/111
f 432/648/107 433/647/107 446/660/107 443/659/107
f 448/666/106 449/665/106 440/654/106 439/653/106
f 453/672/109 427/641/109 428/644/109 452/673/109
f 455/677/106 458/678/106 457/679/106 456/680/106
f 459/681/107 462/682/107 461/683/107 460/684/107
f 463/685/107 466/686/107 465/687/107 464/688/107
f 423/689/106 469/690/106 468/691/106 467/692/106
f 467/692/106 468/691/106 458/678/106 455/677/106
f 460/684/107 461/683/107 466/686/107 463/685/107
f 464/688/107 465/687/107 470/693/107 424/694/107
f 456/680/106 457/679/106 472/695/106 471/696/106
f 471/696/2 472/695/2 462/682/2 459/681/2
f 454/697/1 469/698/1 470/699/1 442/700/1
f 438/701/1 454/697/1 442/700/1 437/702/1
f 458/678/106 448/666/106 439/653/106 457/679/106
f 462/682/107 432/648/107 443/659/107 461/683/107
f 466/686/107 444/662/107 441/655/107 465/687/107
f 469/690/106 454/675/106 447/663/106 468/691/106
f 468/691/106 447/663/106 448/666/106 458/678/106
f 461/683/107 443/659/107 444/662/107 466/686/107
f 465/687/107 441/655/107 442/658/107 470/693/107
f 457/679/106 439/653/106 431/645/106 472/695/106
f 472/695/2 431/645/2 432/648/2 462/682/2
f 430/642/2 471/696/2 459/681/2 429/643/2
f 427/703/106 456/680/106 471/696/106 430/642/106
f 451/704/107 464/688/107 424/694/107 425/705/107
f 428/706/107 460/684/107 463/685/107 452/707/107
f 450/708/106 467/692/106 455/677/106 453/709/106
f 426/710/112 423/689/106 467/692/106 450/708/106
f 452/707/107 463/685/107 464/688/107 451/704/107
f 429/643/107 459/681/107 460/684/107 428/706/107
f 453/709/106 455/677/106 456/680/106 427/703/106
f 469/698/1 423/637/1 424/640/1 470/699/1
f 473/711/1 476/712/1 475/713/1 474/714/1
f 477/715/118 480/716/118 479/717/118 478/718/118
f 481/719/2 484/720/2 483/721/2 482/722/2
f 485/723/119 488/724/119 487/725/119 486/726/119
f 489/727/120 490/728/120 484/720/121 481/719/120
f 491/729/122 486/730/122 487/731/122 492/732/122
f 493/733/122 496/734/123 495/735/123 494/736/122
f 497/737/120 485/738/120 499/739/120 498/740/120
f 490/741/124 499/742/124 495/743/124 496/744/124
f 500/745/125 503/746/125 502/747/125 501/748/125
f 476/712/126 500/745/126 501/748/126 475/713/126
f 504/749/120 488/750/121 485/738/120 497/737/120
f 494/736/122 495/735/123 486/730/122 491/729/122
f 499/742/124 485/723/124 486/726/124 495/743/124
f 484/720/127 490/741/127 496/744/127 483/721/127
f 482/722/122 483/721/123 496/734/123 493/733/122
f 498/740/120 499/739/120 490/728/120 489/727/120
f 503/746/125 477/715/125 478/718/125 502/747/125
f 505/751/121 508/752/121 507/753/120 506/754/121
f 509/755/123 512/756/122 511/757/122 510/758/122
f 513/759/122 516/760/122 515/761/122 514/762/122
f 473/763/121 519/764/121 518/765/121 517/766/121
f 517/766/121 518/765/121 508/752/121 505/751/121
f 510/758/122 511/757/122 516/760/122 513/759/122
f 514/762/122 515/761/122 520/767/122 474/768/123
f 506/754/121 507/753/120 522/769/120 521/770/121
f 521/770/2 522/769/2 512/756/2 509/755/2
f 504/771/1 519/772/1 520/773/1 492/774/1
f 488/775/1 504/771/1 492/774/1 487/776/1
f 508/752/121 498/740/120 489/727/120 507/753/120
f 512/756/122 482/722/122 493/733/122 511/757/122
f 516/760/122 494/736/122 491/729/122 515/761/122
f 519/764/121 504/749/120 497/737/120 518/765/121
f 518/765/121 497/737/120 498/740/120 508/752/121
f 511/757/122 493/733/122 494/736/122 516/760/122
f 515/761/122 491/729/122 492/732/122 520/767/122
f 507/753/120 489/727/120 481/719/120 522/769/120
f 522/769/2 481/719/2 482/722/2 512/756/2
f 480/716/2 521/770/2 509/755/2 479/717/2
f 477/777/120 506/754/121 521/770/121 480/716/121
f 501/778/123 514/762/122 474/768/123 475/779/123
f 478/780/122 510/758/122 513/759/122 502/781/122
f 500/782/120 517/766/121 505/751/121 503/783/120
f 476/784/120 473/763/121 517/766/121 500/782/120
f 502/781/122 513/759/122 514/762/122 501/778/123
f 479/717/123 509/755/123 510/758/122 478/780/122
f 503/783/120 505/751/121 506/754/121 477/777/120
f 519/772/1 473/711/1 474/714/1 520/773/1
f 523/785/1 526/786/1 525/787/1 524/788/1
f 527/789/118 530/790/118 529/791/118 528/792/118
f 531/793/2 534/794/2 533/795/2 532/796/2
f 535/797/119 538/798/119 537/799/119 536/800/119
f 539/801/120 540/802/120 534/794/120 531/793/120
f 541/803/122 536/804/122 537/805/123 542/806/122
f 543/807/122 546/808/122 545/809/122 544/810/122
f 547/811/120 535/812/120 549/813/120 548/814/120
f 540/815/128 549/816/128 545/817/128 546/818/128
f 550/819/125 553/820/125 552/821/125 551/822/125
f 526/786/126 550/819/126 551/822/126 525/787/126
f 554/823/120 538/824/121 535/812/120 547/811/120
f 544/810/122 545/809/122 536/804/122 541/803/122
f 549/816/128 535/797/128 536/800/128 545/817/128
f 534/794/129 540/815/129 546/818/129 533/795/129
f 532/796/122 533/795/122 546/808/122 543/807/122
f 548/814/120 549/813/120 540/802/120 539/801/120
f 553/820/125 527/789/125 528/792/125 552/821/125
f 555/825/121 558/826/121 557/827/121 556/828/121
f 559/829/123 562/830/122 561/831/122 560/832/122
f 563/833/122 566/834/122 565/835/122 564/836/123
f 523/837/121 569/838/120 568/839/120 567/840/121
f 567/840/121 568/839/120 558/826/121 555/825/121
f 560/832/122 561/831/122 566/834/122 563/833/122
f 564/836/123 565/835/122 570/841/122 524/842/123
f 556/828/121 557/827/121 572/843/121 571/844/121
f 571/844/2 572/843/2 562/830/2 559/829/2
f 554/845/1 569/846/1 570/847/1 542/848/1
f 538/849/1 554/845/1 542/848/1 537/850/1
f 558/826/121 548/814/120 539/801/120 557/827/121
f 562/830/122 532/796/122 543/807/122 561/831/122
f 566/834/122 544/810/122 541/803/122 565/835/122
f 569/838/120 554/823/120 547/811/120 568/839/120
f 568/839/120 547/811/120 548/814/120 558/826/121
f 561/831/122 543/807/122 544/810/122 566/834/122
f 565/835/122 541/803/122 542/806/122 570/841/122
f 557/827/121 539/801/120 531/793/120 572/843/121
f 572/843/2 531/793/2 532/796/2 562/830/2
f 530/790/2 571/844/2 559/829/2 529/791/2
f 527/851/120 556/828/121 571/844/121 530/790/120
f 551/852/122 564/836/123 524/842/123 525/853/122
f 528/854/122 560/832/122 563/833/122 552/855/122
f 550/856/121 567/840/121 555/825/121 553/857/120
f 526/858/121 523/837/121 567/840/121 550/856/121
f 552/855/122 563/833/122 564/836/123 551/852/122
f 529/791/123 559/829/123 560/832/122 528/854/122
f 553/857/120 555/825/121 556/828/121 527/851/120
f 569/846/1 523/785/1 524/788/1 570/847/1
f 573/859/1 576/860/1 575/861/1 574/862/1
f 577/863/118 580/864/118 579/865/118 578/866/118
f 581/867/2 584/868/2 583/869/2 582/870/2
f 585/871/119 588/872/119 587/873/119 586/874/119
f 589/875/120 590/876/120 584/868/121 581/867/120
f 591/877/122 586/878/122 587/879/123 592/880/122
f 593/881/122 596/882/122 595/883/122 594/884/122
f 597/885/120 585/886/120 599/887/120 598/888/120
f 590/889/128 599/890/128 595/891/128 596/892/128
f 600/893/125 603/894/125 602/895/125 601/896/125
f 576/860/126 600/893/126 601/896/126 575/861/126
f 604/897/120 588/898/121 585/886/120 597/885/120
f 594/884/122 595/883/122 586/878/122 591/877/122
f 599/890/128 585/871/128 586/874/128 595/891/128
f 584/868/127 590/889/127 596/892/127 583/869/127
f 582/870/122 583/869/123 596/882/122 593/881/122
f 598/888/120 599/887/120 590/876/120 589/875/120
f 603/894/125 577/863/125 578/866/125 602/895/125
f 605/899/121 608/900/121 607/901/121 606/902/121
f 609/903/123 612/904/122 611/905/122 610/906/122
f 613/907/123 616/908/122 615/909/122 614/910/123
f 573/911/121 619/912/120 618/913/121 617/914/121
f 617/914/121 618/913/121 608/900/121 605/899/121
f 610/906/122 611/905/122 616/908/122 613/907/123
f 614/910/123 615/909/122 620/915/122 574/916/123
f 606/902/121 607/901/121 622/917/121 621/918/121
f 621/918/2 622/917/2 612/904/2 609/903/2
f 604/919/1 619/920/1 620/921/1 592/922/1
f 588/923/1 604/919/1 592/922/1 587/924/1
f 608/900/121 598/888/120 589/875/120 607/901/121
f 612/904/122 582/870/122 593/881/122 611/905/122
f 616/908/122 594/884/122 591/877/122 615/909/122
f 619/912/120 604/897/120 597/885/120 618/913/121
f 618/913/121 597/885/120 598/888/120 608/900/121
f 611/905/122 593/881/122 594/884/122 616/908/122
f 615/909/122 591/877/122 592/880/122 620/915/122
f 607/901/121 589/875/120 581/867/120 622/917/121
f 622/917/2 581/867/2 582/870/2 612/904/2
f 580/864/2 621/918/2 609/903/2 579/865/2
f 577/925/120 606/902/121 621/918/121 580/864/120
f 601/926/122 614/910/123 574/916/123 575/927/122
f 578/928/122 610/906/122 613/907/123 602/929/122
f 600/930/121 617/914/121 605/899/121 603/931/120
f 576/932/121 573/911/121 617/914/121 600/930/121
f 602/929/122 613/907/123 614/910/123 601/926/122
f 579/865/122 609/903/123 610/906/122 578/928/122
f 603/931/120 605/899/121 606/902/121 577/925/120
f 619/920/1 573/859/1 574/862/1 620/921/1
f 623/933/1 626/934/1 625/935/1 624/936/1
f 627/937/130 630/938/130 629/939/130 628/940/130
f 631/941/2 634/942/2 633/943/2 632/944/2
f 635/945/131 638/946/131 637/947/131 636/948/131
f 639/949/132 640/950/132 634/942/133 631/941/134
f 641/951/135 636/952/136 637/953/136 642/954/136
f 643/955/135 646/956/136 645/957/136 644/958/137
f 647/959/132 635/960/132 649/961/132 648/962/132
f 640/963/138 649/964/138 645/965/138 646/966/138
f 650/967/139 653/968/139 652/969/139 651/970/139
f 626/934/140 650/967/140 651/970/140 625/935/140
f 654/971/132 638/972/133 635/960/132 647/959/132
f 644/958/137 645/957/136 636/952/136 641/951/135
f 649/964/138 635/945/138 636/948/138 645/965/138
f 634/942/141 640/963/141 646/966/141 633/943/141
f 632/944/136 633/943/136 646/956/136 643/955/135
f 648/962/132 649/961/132 640/950/132 639/949/132
f 653/968/139 627/937/139 628/940/139 652/969/139
f 655/973/132 658/974/132 657/975/132 656/976/132
f 659/977/137 662/978/137 661/979/137 660/980/137
f 663/981/137 666/982/137 665/983/137 664/984/135
f 623/985/134 669/986/132 668/987/132 667/988/132
f 667/988/132 668/987/132 658/974/132 655/973/132
f 660/980/137 661/979/137 666/982/137 663/981/137
f 664/984/135 665/983/137 670/989/137 624/990/135
f 656/976/132 657/975/132 672/991/132 671/992/134
f 671/992/2 672/991/2 662/978/2 659/977/2
f 654/993/1 669/994/1 670/995/1 642/996/1
f 638/997/1 654/993/1 642/996/1 637/998/1
f 658/974/132 648/962/132 639/949/132 657/975/132
f 662/978/137 632/944/136 643/955/135 661/979/137
f 666/982/137 644/958/137 641/951/135 665/983/137
f 669/986/132 654/971/132 647/959/132 668/987/132
f 668/987/132 647/959/132 648/962/132 658/974/132
f 661/979/137 643/955/135 644/958/137 666/982/137
f 665/983/137 641/951/135 642/954/136 670/989/137
f 657/975/132 639/949/132 631/941/134 672/991/132
f 672/991/2 631/941/2 632/944/2 662/978/2
f 630/938/2 671/992/2 659/977/2 629/939/2
f 627/999/134 656/976/132 671/992/134 630/938/133
f 651/1000/136 664/984/135 624/990/135 625/1001/136
f 628/1002/135 660/980/137 663/981/137 652/1003/135
f 650/1004/132 667/988/132 655/973/132 653/1005/132
f 626/1006/134 623/985/134 667/988/132 650/1004/132
f 652/1003/135 663/981/137 664/984/135 651/1000/136
f 629/939/136 659/977/137 660/980/137 628/1002/135
f 653/1005/132 655/973/132 656/976/132 627/999/134
f 669/994/1 623/933/1 624/936/1 670/995/1
f 673/1007/1 676/1008/1 675/1009/1 674/1010/1
f 677/1011/142 680/1012/142 679/1013/142 678/1014/142
f 681/1015/2 684/1016/2 683/1017/2 682/1018/2
f 685/1019/131 688/1020/131 687/1021/131 686/1022/131
f 689/1023/132 690/1024/134 684/1016/133 681/1015/134
f 691/1025/135 686/1026/136 687/1027/136 692/1028/136
f 693/1029/136 696/1030/136 695/1031/136 694/1032/135
f 697/1033/132 685/1034/132 699/1035/132 698/1036/132
f 690/1037/138 699/1038/138 695/1039/138 696/1040/138
f 700/1041/139 703/1042/139 702/1043/139 701/1044/139
f 676/1008/140 700/1041/140 701/1044/140 675/1009/140
f 704/1045/134 688/1046/133 685/1034/132 697/1033/132
f 694/1032/135 695/1031/136 686/1026/136 691/1025/135
f 699/1038/138 685/1019/138 686/1022/138 695/1039/138
f 684/1016/143 690/1037/143 696/1040/143 683/1017/143
f 682/1018/136 683/1017/136 696/1030/136 693/1029/136
f 698/1036/132 699/1035/132 690/1024/134 689/1023/132
f 703/1042/139 677/1011/139 678/1014/139 702/1043/139
f 705/1047/132 708/1048/132 707/1049/132 706/1050/132
f 709/1051/135 712/1052/137 711/1053/137 710/1054/135
f 713/1055/137 716/1056/137 715/1057/137 714/1058/135
f 673/1059/134 719/1060/132 718/1061/132 717/1062/132
f 717/1062/132 718/1061/132 708/1048/132 705/1047/132
f 710/1054/135 711/1053/137 716/1056/137 713/1055/137
f 714/1058/135 715/1057/137 720/1063/137 674/1064/135
f 706/1050/132 707/1049/132 722/1065/132 721/1066/134
f 721/1066/2 722/1065/2 712/1052/2 709/1051/2
f 704/1067/1 719/1068/1 720/1069/1 692/1070/1
f 688/1071/1 704/1067/1 692/1070/1 687/1072/1
f 708/1048/132 698/1036/132 689/1023/132 707/1049/132
f 712/1052/137 682/1018/136 693/1029/136 711/1053/137
f 716/1056/137 694/1032/135 691/1025/135 715/1057/137
f 719/1060/132 704/1045/134 697/1033/132 718/1061/132
f 718/1061/132 697/1033/132 698/1036/132 708/1048/132
f 711/1053/137 693/1029/136 694/1032/135 716/1056/137
f 715/1057/137 691/1025/135 692/1028/136 720/1063/137
f 707/1049/132 689/1023/132 681/1015/134 722/1065/132
f 722/1065/2 681/1015/2 682/1018/2 712/1052/2
f 680/1012/2 721/1066/2 709/1051/2 679/1013/2
f 677/1073/133 706/1050/132 721/1066/134 680/1012/133
f 701/1074/136 714/1058/135 674/1064/135 675/1075/136
f 678/1076/136 710/1054/135 713/1055/137 702/1077/135
f 700/1078/132 717/1062/132 705/1047/132 703/1079/132
f 676/1080/134 673/1059/134 717/1062/132 700/1078/132
f 702/1077/135 713/1055/137 714/1058/135 701/1074/136
f 679/1013/136 709/1051/135 710/1054/135 678/1076/136
f 703/1079/132 705/1047/132 706/1050/132 677/1073/133
f 719/1068/1 673/1007/1 674/1010/1 720/1069/1
f 723/1081/1 726/1082/1 725/1083/1 724/1084/1
f 727/1085/130 730/1086/130 729/1087/130 728/1088/130
f 731/1089/2 734/1090/2 733/1091/2 732/1092/2
f 735/1093/131 738/1094/131 737/1095/131 736/1096/131
f 739/1097/132 740/1098/132 734/1090/133 731/1089/134
f 741/1099/135 736/1100/136 737/1101/136 742/1102/135
f 743/1103/136 746/1104/136 745/1105/136 744/1106/137
f 747/1107/132 735/1108/132 749/1109/132 748/1110/132
f 740/1111/138 749/1112/138 745/1113/138 746/1114/138
f 750/1115/139 753/1116/139 752/1117/139 751/1118/139
f 726/1082/144 750/1115/144 751/1118/144 725/1083/144
f 754/1119/132 738/1120/133 735/1108/132 747/1107/132
f 744/1106/137 745/1105/136 736/1100/136 741/1099/135
f 749/1112/138 735/1093/138 736/1096/138 745/1113/138
f 734/1090/141 740/1111/141 746/1114/141 733/1091/141
f 732/1092/136 733/1091/136 746/1104/136 743/1103/136
f 748/1110/132 749/1109/132 740/1098/132 739/1097/132
f 753/1116/139 727/1085/139 728/1088/139 752/1117/139
f 755/1121/132 758/1122/132 757/1123/132 756/1124/132
f 759/1125/137 762/1126/137 761/1127/137 760/1128/137
f 763/1129/137 766/1130/137 765/1131/137 764/1132/135
f 723/1133/134 769/1134/132 768/1135/132 767/1136/132
f 767/1136/132 768/1135/132 758/1122/132 755/1121/132
f 760/1128/137 761/1127/137 766/1130/137 763/1129/137
f 764/1132/135 765/1131/137 770/1137/137 724/1138/135
f 756/1124/132 757/1123/132 772/1139/132 771/1140/134
f 771/1140/2 772/1139/2 762/1126/2 759/1125/2
f 754/1141/1 769/1142/1 770/1143/1 742/1144/1
f 738/1145/1 754/1141/1 742/1144/1 737/1146/1
f 758/1122/132 748/1110/132 739/1097/132 757/1123/132
f 762/1126/137 732/1092/136 743/1103/136 761/1127/137
f 766/1130/137 744/1106/137 741/1099/135 765/1131/137
f 769/1134/132 754/1119/132 747/1107/132 768/1135/132
f 768/1135/132 747/1107/132 748/1110/132 758/1122/132
f 761/1127/137 743/1103/136 744/1106/137 766/1130/137
f 765/1131/137 741/1099/135 742/1102/135 770/1137/137
f 757/1123/132 739/1097/132 731/1089/134 772/1139/132
f 772/1139/2 731/1089/2 732/1092/2 762/1126/2
f 730/1086/2 771/1140/2 759/1125/2 729/1087/2
f 727/1147/134 756/1124/132 771/1140/134 730/1086/133
f 751/1148/136 764/1132/135 724/1138/135 725/1149/136
f 728/1150/135 760/1128/137 763/1129/137 752/1151/135
f 750/1152/133 767/1136/132 755/1121/132 753/1153/132
f 726/1154/133 723/1133/134 767/1136/132 750/1152/133
f 752/1151/135 763/1129/137 764/1132/135 751/1148/136
f 729/1087/136 759/1125/137 760/1128/137 728/1150/135
f 753/1153/132 755/1121/132 756/1124/132 727/1147/134
f 769/1142/1 723/1081/1 724/1084/1 770/1143/1
usemtl Screen.001
f 159/1155/145 171/1156/145 170/1157/145 160/1158/145
f 160/1158/145 170/1157/145 169/1159/145 172/1160/145
usemtl Material.001
s off
f 783/1161/146 784/1162/146 786/1163/146 785/1164/146
f 785/1164/2 786/1163/2 790/1165/2 789/1166/2
f 795/1167/147 789/1166/147 790/1165/147 788/1168/147 787/1169/147 797/1170/147 798/1171/147 796/1172/147
f 797/1170/148 787/1169/148 789/1166/148 795/1167/148
f 787/1169/1 788/1168/1 784/1173/1 783/1174/1
f 785/1175/4 789/1166/4 787/1169/4 783/1176/4
f 790/1165/3 786/1177/3 784/1178/3 788/1168/3
f 791/1179/149 793/1180/149 794/1181/149 792/1182/149
f 796/1183/1 794/1181/1 793/1180/1 795/1184/1
f 797/1185/2 791/1186/2 792/1187/2 798/1188/2
f 793/1189/3 791/1190/3 797/1191/3 795/1192/3
f 792/1193/4 794/1194/4 796/1195/4 798/1196/4
