# Blender v3.0.0 OBJ File: ''
# www.blender.org
mtllib untitled.mtl
o 480cdfcc-e8bd-deed-76fd-6afe06378555_Mesh_0
v 2.000000 34.986412 -8.405779
v 2.000000 23.710102 -4.301537
v 2.000000 33.276314 -13.104242
v 2.000000 23.710102 -4.301537
v 2.000000 22.000000 -9.000000
v 2.000000 33.276314 -13.104242
v -2.000000 33.276314 -13.104242
v -2.000000 22.000000 -9.000000
v -2.000000 34.986412 -8.405779
v -2.000000 22.000000 -9.000000
v -2.000000 23.710102 -4.301537
v -2.000000 34.986412 -8.405779
v -2.000000 33.276314 -13.104242
v -2.000000 34.986412 -8.405779
v 2.000000 33.276314 -13.104242
v -2.000000 34.986412 -8.405779
v 2.000000 34.986412 -8.405779
v 2.000000 33.276314 -13.104242
v -2.000000 23.710102 -4.301537
v -2.000000 22.000000 -9.000000
v 2.000000 23.710102 -4.301537
v -2.000000 22.000000 -9.000000
v 2.000000 22.000000 -9.000000
v 2.000000 23.710102 -4.301537
v -2.000000 34.986412 -8.405779
v -2.000000 23.710102 -4.301537
v 2.000000 34.986412 -8.405779
v -2.000000 23.710102 -4.301537
v 2.000000 23.710102 -4.301537
v 2.000000 34.986412 -8.405779
v 2.000000 33.276314 -13.104242
v 2.000000 22.000000 -9.000000
v -2.000000 33.276314 -13.104242
v 2.000000 22.000000 -9.000000
v -2.000000 22.000000 -9.000000
v -2.000000 33.276314 -13.104242
vt 0.406372 0.211060
vt 0.406372 0.304565
vt 0.445190 0.211060
vt 0.406372 0.304565
vt 0.445190 0.304565
vt 0.445190 0.211060
vt 0.476685 0.211060
vt 0.476685 0.304565
vt 0.515503 0.211060
vt 0.476685 0.304565
vt 0.515503 0.304565
vt 0.515503 0.211060
vt 0.476440 0.210815
vt 0.476440 0.171997
vt 0.445435 0.210815
vt 0.476440 0.171997
vt 0.445435 0.171997
vt 0.445435 0.210815
vt 0.507690 0.171997
vt 0.507690 0.210815
vt 0.476685 0.171997
vt 0.507690 0.210815
vt 0.476685 0.210815
vt 0.476685 0.171997
vt 0.515747 0.211060
vt 0.515747 0.304565
vt 0.546753 0.211060
vt 0.515747 0.304565
vt 0.546753 0.304565
vt 0.546753 0.211060
vt 0.445435 0.211060
vt 0.445435 0.304565
vt 0.476440 0.211060
vt 0.445435 0.304565
vt 0.476440 0.304565
vt 0.476440 0.211060
vn 1.0000 0.0000 0.0000
vn -1.0000 0.0000 0.0000
vn 0.0000 0.9397 -0.3420
vn 0.0000 -0.9397 0.3420
vn 0.0000 0.3420 0.9397
vn 0.0000 -0.3420 -0.9397
usemtl giraffe.png
s off
f 1/1/1 2/2/1 3/3/1
f 4/4/1 5/5/1 6/6/1
f 7/7/2 8/8/2 9/9/2
f 10/10/2 11/11/2 12/12/2
f 13/13/3 14/14/3 15/15/3
f 16/16/3 17/17/3 18/18/3
f 19/19/4 20/20/4 21/21/4
f 22/22/4 23/23/4 24/24/4
f 25/25/5 26/26/5 27/27/5
f 28/28/5 29/29/5 30/30/5
f 31/31/6 32/32/6 33/33/6
f 34/34/6 35/35/6 36/36/6
o 29b26015-06f0-5ebc-d434-893a386008c2_Mesh_1
v 1.000000 49.423820 -12.596392
v 1.000000 24.052122 -3.361845
v 1.000000 48.739780 -14.475777
v 1.000000 24.052122 -3.361845
v 1.000000 23.368080 -5.241230
v 1.000000 48.739780 -14.475777
v -1.000000 48.739780 -14.475777
v -1.000000 23.368080 -5.241230
v -1.000000 49.423820 -12.596392
v -1.000000 23.368080 -5.241230
v -1.000000 24.052122 -3.361845
v -1.000000 49.423820 -12.596392
v -1.000000 48.739780 -14.475777
v -1.000000 49.423820 -12.596392
v 1.000000 48.739780 -14.475777
v -1.000000 49.423820 -12.596392
v 1.000000 49.423820 -12.596392
v 1.000000 48.739780 -14.475777
v -1.000000 24.052122 -3.361845
v -1.000000 23.368080 -5.241230
v 1.000000 24.052122 -3.361845
v -1.000000 23.368080 -5.241230
v 1.000000 23.368080 -5.241230
v 1.000000 24.052122 -3.361845
v -1.000000 49.423820 -12.596392
v -1.000000 24.052122 -3.361845
v 1.000000 49.423820 -12.596392
v -1.000000 24.052122 -3.361845
v 1.000000 24.052122 -3.361845
v 1.000000 49.423820 -12.596392
v 1.000000 48.739780 -14.475777
v 1.000000 23.368080 -5.241230
v -1.000000 48.739780 -14.475777
v 1.000000 23.368080 -5.241230
v -1.000000 23.368080 -5.241230
v -1.000000 48.739780 -14.475777
vt 0.375122 0.406372
vt 0.375122 0.617065
vt 0.390503 0.406372
vt 0.375122 0.617065
vt 0.390503 0.617065
vt 0.390503 0.406372
vt 0.406372 0.406372
vt 0.406372 0.617065
vt 0.421753 0.406372
vt 0.406372 0.617065
vt 0.421753 0.617065
vt 0.421753 0.406372
vt 0.406128 0.406128
vt 0.406128 0.390747
vt 0.390747 0.406128
vt 0.406128 0.390747
vt 0.390747 0.390747
vt 0.390747 0.406128
vt 0.421753 0.390747
vt 0.421753 0.406128
vt 0.406372 0.390747
vt 0.421753 0.406128
vt 0.406372 0.406128
vt 0.406372 0.390747
vt 0.421997 0.406372
vt 0.421997 0.617065
vt 0.437378 0.406372
vt 0.421997 0.617065
vt 0.437378 0.617065
vt 0.437378 0.406372
vt 0.390747 0.406372
vt 0.390747 0.617065
vt 0.406128 0.406372
vt 0.390747 0.617065
vt 0.406128 0.617065
vt 0.406128 0.406372
vn 1.0000 0.0000 0.0000
vn -1.0000 0.0000 0.0000
vn 0.0000 0.9397 -0.3420
vn 0.0000 -0.9397 0.3420
vn 0.0000 0.3420 0.9397
vn 0.0000 -0.3420 -0.9397
usemtl giraffe.png
s off
f 37/37/7 38/38/7 39/39/7
f 40/40/7 41/41/7 42/42/7
f 43/43/8 44/44/8 45/45/8
f 46/46/8 47/47/8 48/48/8
f 49/49/9 50/50/9 51/51/9
f 52/52/9 53/53/9 54/54/9
f 55/55/10 56/56/10 57/57/10
f 58/58/10 59/59/10 60/60/10
f 61/61/11 62/62/11 63/63/11
f 64/64/11 65/65/11 66/66/11
f 67/67/12 68/68/12 69/69/12
f 70/70/12 71/71/12 72/72/12
o 7eb7796e-66d1-af79-05fd-4ff4282b0bb4_Mesh_2
v 1.500000 45.152023 -12.637848
v 1.500000 34.815403 -8.875626
v 1.500000 43.783939 -16.396618
v 1.500000 34.815403 -8.875626
v 1.500000 33.447323 -12.634396
v 1.500000 43.783939 -16.396618
v -1.500000 43.783939 -16.396618
v -1.500000 33.447323 -12.634396
v -1.500000 45.152023 -12.637848
v -1.500000 33.447323 -12.634396
v -1.500000 34.815403 -8.875626
v -1.500000 45.152023 -12.637848
v -1.500000 43.783939 -16.396618
v -1.500000 45.152023 -12.637848
v 1.500000 43.783939 -16.396618
v -1.500000 45.152023 -12.637848
v 1.500000 45.152023 -12.637848
v 1.500000 43.783939 -16.396618
v -1.500000 34.815403 -8.875626
v -1.500000 33.447323 -12.634396
v 1.500000 34.815403 -8.875626
v -1.500000 33.447323 -12.634396
v 1.500000 33.447323 -12.634396
v 1.500000 34.815403 -8.875626
v -1.500000 45.152023 -12.637848
v -1.500000 34.815403 -8.875626
v 1.500000 45.152023 -12.637848
v -1.500000 34.815403 -8.875626
v 1.500000 34.815403 -8.875626
v 1.500000 45.152023 -12.637848
v 1.500000 43.783939 -16.396618
v 1.500000 33.447323 -12.634396
v -1.500000 43.783939 -16.396618
v 1.500000 33.447323 -12.634396
v -1.500000 33.447323 -12.634396
v -1.500000 43.783939 -16.396618
vt 0.453247 0.031372
vt 0.453247 0.117065
vt 0.484253 0.031372
vt 0.453247 0.117065
vt 0.484253 0.117065
vt 0.484253 0.031372
vt 0.507935 0.031372
vt 0.507935 0.117065
vt 0.538940 0.031372
vt 0.507935 0.117065
vt 0.538940 0.117065
vt 0.538940 0.031372
vt 0.507690 0.031128
vt 0.507690 0.000122
vt 0.484497 0.031128
vt 0.507690 0.000122
vt 0.484497 0.000122
vt 0.484497 0.031128
vt 0.531128 0.000122
vt 0.531128 0.031128
vt 0.507935 0.000122
vt 0.531128 0.031128
vt 0.507935 0.031128
vt 0.507935 0.000122
vt 0.539185 0.031372
vt 0.539185 0.117065
vt 0.562378 0.031372
vt 0.539185 0.117065
vt 0.562378 0.117065
vt 0.562378 0.031372
vt 0.484497 0.031372
vt 0.484497 0.117065
vt 0.507690 0.031372
vt 0.484497 0.117065
vt 0.507690 0.117065
vt 0.507690 0.031372
vn 1.0000 0.0000 0.0000
vn -1.0000 0.0000 0.0000
vn 0.0000 0.9397 -0.3420
vn 0.0000 -0.9397 0.3420
vn 0.0000 0.3420 0.9397
vn 0.0000 -0.3420 -0.9397
usemtl giraffe.png
s off
f 73/73/13 74/74/13 75/75/13
f 76/76/13 77/77/13 78/78/13
f 79/79/14 80/80/14 81/81/14
f 82/82/14 83/83/14 84/84/14
f 85/85/15 86/86/15 87/87/15
f 88/88/15 89/89/15 90/90/15
f 91/91/16 92/92/16 93/93/16
f 94/94/16 95/95/16 96/96/16
f 97/97/17 98/98/17 99/99/17
f 100/100/17 101/101/17 102/102/17
f 103/103/18 104/104/18 105/105/18
f 106/106/18 107/107/18 108/108/18
o ca463d32-cf28-1504-94ea-9c696b380226_Mesh_3
v 2.500000 50.021496 -13.878105
v 2.500000 45.323032 -12.168003
v 2.500000 47.969376 -19.516260
v 2.500000 45.323032 -12.168003
v 2.500000 43.270912 -17.806158
v 2.500000 47.969376 -19.516260
v -2.500000 47.969376 -19.516260
v -2.500000 43.270912 -17.806158
v -2.500000 50.021496 -13.878105
v -2.500000 43.270912 -17.806158
v -2.500000 45.323032 -12.168003
v -2.500000 50.021496 -13.878105
v -2.500000 47.969376 -19.516260
v -2.500000 50.021496 -13.878105
v 2.500000 47.969376 -19.516260
v -2.500000 50.021496 -13.878105
v 2.500000 50.021496 -13.878105
v 2.500000 47.969376 -19.516260
v -2.500000 45.323032 -12.168003
v -2.500000 43.270912 -17.806158
v 2.500000 45.323032 -12.168003
v -2.500000 43.270912 -17.806158
v 2.500000 43.270912 -17.806158
v 2.500000 45.323032 -12.168003
v -2.500000 50.021496 -13.878105
v -2.500000 45.323032 -12.168003
v 2.500000 50.021496 -13.878105
v -2.500000 45.323032 -12.168003
v 2.500000 45.323032 -12.168003
v 2.500000 50.021496 -13.878105
v 2.500000 47.969376 -19.516260
v 2.500000 43.270912 -17.806158
v -2.500000 47.969376 -19.516260
v 2.500000 43.270912 -17.806158
v -2.500000 43.270912 -17.806158
v -2.500000 47.969376 -19.516260
vt 0.437622 0.484497
vt 0.437622 0.523315
vt 0.484253 0.484497
vt 0.437622 0.523315
vt 0.484253 0.523315
vt 0.484253 0.484497
vt 0.523560 0.484497
vt 0.523560 0.523315
vt 0.570190 0.484497
vt 0.523560 0.523315
vt 0.570190 0.523315
vt 0.570190 0.484497
vt 0.523315 0.484253
vt 0.523315 0.437622
vt 0.484497 0.484253
vt 0.523315 0.437622
vt 0.484497 0.437622
vt 0.484497 0.484253
vt 0.562378 0.437622
vt 0.562378 0.484253
vt 0.523560 0.437622
vt 0.562378 0.484253
vt 0.523560 0.484253
vt 0.523560 0.437622
vt 0.570435 0.484497
vt 0.570435 0.523315
vt 0.609253 0.484497
vt 0.570435 0.523315
vt 0.609253 0.523315
vt 0.609253 0.484497
vt 0.484497 0.484497
vt 0.484497 0.523315
vt 0.523315 0.484497
vt 0.484497 0.523315
vt 0.523315 0.523315
vt 0.523315 0.484497
vn 1.0000 0.0000 0.0000
vn -1.0000 0.0000 0.0000
vn 0.0000 0.9397 -0.3420
vn 0.0000 -0.9397 0.3420
vn 0.0000 0.3420 0.9397
vn 0.0000 -0.3420 -0.9397
usemtl giraffe.png
s off
f 109/109/19 110/110/19 111/111/19
f 112/112/19 113/113/19 114/114/19
f 115/115/20 116/116/20 117/117/20
f 118/118/20 119/119/20 120/120/20
f 121/121/21 122/122/21 123/123/21
f 124/124/21 125/125/21 126/126/21
f 127/127/22 128/128/22 129/129/22
f 130/130/22 131/131/22 132/132/22
f 133/133/23 134/134/23 135/135/23
f 136/136/23 137/137/23 138/138/23
f 139/139/24 140/140/24 141/141/24
f 142/142/24 143/143/24 144/144/24
o d605884b-0fad-cf55-f1ec-89f499944b95_Mesh_4
v -1.890760 51.010986 -13.331417
v -1.018072 49.132542 -14.072946
v -2.256017 51.279865 -14.442404
v -1.018072 49.132542 -14.072946
v -1.383329 49.401421 -15.183932
v -2.256017 51.279865 -14.442404
v -3.295248 50.716049 -14.237191
v -2.422559 48.837608 -14.978721
v -2.929991 50.447170 -13.126204
v -2.422559 48.837608 -14.978721
v -2.057302 48.568729 -13.867734
v -2.929991 50.447170 -13.126204
v -3.295248 50.716049 -14.237191
v -2.929991 50.447170 -13.126204
v -2.256017 51.279865 -14.442404
v -2.929991 50.447170 -13.126204
v -1.890760 51.010986 -13.331417
v -2.256017 51.279865 -14.442404
v -2.057302 48.568729 -13.867734
v -2.422559 48.837608 -14.978721
v -1.018072 49.132542 -14.072946
v -2.422559 48.837608 -14.978721
v -1.383329 49.401421 -15.183932
v -1.018072 49.132542 -14.072946
v -2.929991 50.447170 -13.126204
v -2.057302 48.568729 -13.867734
v -1.890760 51.010986 -13.331417
v -2.057302 48.568729 -13.867734
v -1.018072 49.132542 -14.072946
v -1.890760 51.010986 -13.331417
v -2.256017 51.279865 -14.442404
v -1.383329 49.401421 -15.183932
v -3.295248 50.716049 -14.237191
v -1.383329 49.401421 -15.183932
v -2.422559 48.837608 -14.978721
v -3.295248 50.716049 -14.237191
vt 0.250122 0.046997
vt 0.250122 0.070190
vt 0.265503 0.046997
vt 0.250122 0.070190
vt 0.265503 0.070190
vt 0.265503 0.046997
vt 0.281372 0.046997
vt 0.281372 0.070190
vt 0.296753 0.046997
vt 0.281372 0.070190
vt 0.296753 0.070190
vt 0.296753 0.046997
vt 0.281128 0.046753
vt 0.281128 0.031372
vt 0.265747 0.046753
vt 0.281128 0.031372
vt 0.265747 0.031372
vt 0.265747 0.046753
vt 0.296753 0.031372
vt 0.296753 0.046753
vt 0.281372 0.031372
vt 0.296753 0.046753
vt 0.281372 0.046753
vt 0.281372 0.031372
vt 0.296997 0.046997
vt 0.296997 0.070190
vt 0.312378 0.046997
vt 0.296997 0.070190
vt 0.312378 0.070190
vt 0.312378 0.046997
vt 0.265747 0.046997
vt 0.265747 0.070190
vt 0.281128 0.046997
vt 0.265747 0.070190
vt 0.281128 0.070190
vt 0.281128 0.046997
vn 0.8660 0.4698 -0.1710
vn -0.8660 -0.4698 0.1710
vn -0.3967 0.8538 0.3371
vn 0.3967 -0.8538 -0.3371
vn 0.3044 -0.2241 0.9258
vn -0.3044 0.2241 -0.9258
usemtl giraffe.png
s off
f 145/145/25 146/146/25 147/147/25
f 148/148/25 149/149/25 150/150/25
f 151/151/26 152/152/26 153/153/26
f 154/154/26 155/155/26 156/156/26
f 157/157/27 158/158/27 159/159/27
f 160/160/27 161/161/27 162/162/27
f 163/163/28 164/164/28 165/165/28
f 166/166/28 167/167/28 168/168/28
f 169/169/29 170/170/29 171/171/29
f 172/172/29 173/173/29 174/174/29
f 175/175/30 176/176/30 177/177/30
f 178/178/30 179/179/30 180/180/30
o a5c0c81d-3100-1ca3-4bb4-022914dcd602_Mesh_5
v 2.929991 50.447170 -13.126204
v 2.057302 48.568729 -13.867734
v 3.295248 50.716049 -14.237191
v 2.057302 48.568729 -13.867734
v 2.422559 48.837608 -14.978721
v 3.295248 50.716049 -14.237191
v 2.256017 51.279865 -14.442404
v 1.383329 49.401421 -15.183932
v 1.890760 51.010986 -13.331417
v 1.383329 49.401421 -15.183932
v 1.018072 49.132542 -14.072946
v 1.890760 51.010986 -13.331417
v 2.256017 51.279865 -14.442404
v 1.890760 51.010986 -13.331417
v 3.295248 50.716049 -14.237191
v 1.890760 51.010986 -13.331417
v 2.929991 50.447170 -13.126204
v 3.295248 50.716049 -14.237191
v 1.018072 49.132542 -14.072946
v 1.383329 49.401421 -15.183932
v 2.057302 48.568729 -13.867734
v 1.383329 49.401421 -15.183932
v 2.422559 48.837608 -14.978721
v 2.057302 48.568729 -13.867734
v 1.890760 51.010986 -13.331417
v 1.018072 49.132542 -14.072946
v 2.929991 50.447170 -13.126204
v 1.018072 49.132542 -14.072946
v 2.057302 48.568729 -13.867734
v 2.929991 50.447170 -13.126204
v 3.295248 50.716049 -14.237191
v 2.422559 48.837608 -14.978721
v 2.256017 51.279865 -14.442404
v 2.422559 48.837608 -14.978721
v 1.383329 49.401421 -15.183932
v 2.256017 51.279865 -14.442404
vt 0.250122 0.046997
vt 0.250122 0.070190
vt 0.265503 0.046997
vt 0.250122 0.070190
vt 0.265503 0.070190
vt 0.265503 0.046997
vt 0.281372 0.046997
vt 0.281372 0.070190
vt 0.296753 0.046997
vt 0.281372 0.070190
vt 0.296753 0.070190
vt 0.296753 0.046997
vt 0.281128 0.046753
vt 0.281128 0.031372
vt 0.265747 0.046753
vt 0.281128 0.031372
vt 0.265747 0.031372
vt 0.265747 0.046753
vt 0.296753 0.031372
vt 0.296753 0.046753
vt 0.281372 0.031372
vt 0.296753 0.046753
vt 0.281372 0.046753
vt 0.281372 0.031372
vt 0.296997 0.046997
vt 0.296997 0.070190
vt 0.312378 0.046997
vt 0.296997 0.070190
vt 0.312378 0.070190
vt 0.312378 0.046997
vt 0.265747 0.046997
vt 0.265747 0.070190
vt 0.281128 0.046997
vt 0.265747 0.070190
vt 0.281128 0.070190
vt 0.281128 0.046997
vn 0.8660 -0.4698 0.1710
vn -0.8660 0.4698 -0.1710
vn 0.3967 0.8538 0.3371
vn -0.3967 -0.8538 -0.3371
vn -0.3044 -0.2241 0.9258
vn 0.3044 0.2241 -0.9258
usemtl giraffe.png
s off
f 181/181/31 182/182/31 183/183/31
f 184/184/31 185/185/31 186/186/31
f 187/187/32 188/188/32 189/189/32
f 190/190/32 191/191/32 192/192/32
f 193/193/33 194/194/33 195/195/33
f 196/196/33 197/197/33 198/198/33
f 199/199/34 200/200/34 201/201/34
f 202/202/34 203/203/34 204/204/34
f 205/205/35 206/206/35 207/207/35
f 208/208/35 209/209/35 210/210/35
f 211/211/36 212/212/36 213/213/36
f 214/214/36 215/215/36 216/216/36
o 60aeb4bd-d576-0c16-99e2-86ea43ae65ed_Mesh_6
v -2.500000 48.739784 -14.475777
v -1.723543 46.016766 -13.484678
v -2.500000 48.397762 -15.415469
v -1.723543 46.016766 -13.484678
v -1.723543 45.674744 -14.424371
v -2.500000 48.397762 -15.415469
v -6.363703 47.424923 -15.061384
v -5.587246 44.701904 -14.070286
v -6.363703 47.766941 -14.121692
v -5.587246 44.701904 -14.070286
v -5.587246 45.043922 -13.130592
v -6.363703 47.766941 -14.121692
v -6.363703 47.424923 -15.061384
v -6.363703 47.766941 -14.121692
v -2.500000 48.397762 -15.415469
v -6.363703 47.766941 -14.121692
v -2.500000 48.739784 -14.475777
v -2.500000 48.397762 -15.415469
v -5.587246 45.043922 -13.130592
v -5.587246 44.701904 -14.070286
v -1.723543 46.016766 -13.484678
v -5.587246 44.701904 -14.070286
v -1.723543 45.674744 -14.424371
v -1.723543 46.016766 -13.484678
v -6.363703 47.766941 -14.121692
v -5.587246 45.043922 -13.130592
v -2.500000 48.739784 -14.475777
v -5.587246 45.043922 -13.130592
v -1.723543 46.016766 -13.484678
v -2.500000 48.739784 -14.475777
v -2.500000 48.397762 -15.415469
v -1.723543 45.674744 -14.424371
v -6.363703 47.424923 -15.061384
v -1.723543 45.674744 -14.424371
v -5.587246 44.701904 -14.070286
v -6.363703 47.424923 -15.061384
vt 0.250122 0.007935
vt 0.250122 0.031128
vt 0.257690 0.007935
vt 0.250122 0.031128
vt 0.257690 0.031128
vt 0.257690 0.007935
vt 0.289185 0.007935
vt 0.289185 0.031128
vt 0.296753 0.007935
vt 0.289185 0.031128
vt 0.296753 0.031128
vt 0.296753 0.007935
vt 0.288940 0.007690
vt 0.288940 0.000122
vt 0.257935 0.007690
vt 0.288940 0.000122
vt 0.257935 0.000122
vt 0.257935 0.007690
vt 0.320190 0.000122
vt 0.320190 0.007690
vt 0.289185 0.000122
vt 0.320190 0.007690
vt 0.289185 0.007690
vt 0.289185 0.000122
vt 0.296997 0.007935
vt 0.296997 0.031128
vt 0.328003 0.007935
vt 0.296997 0.031128
vt 0.328003 0.031128
vt 0.328003 0.007935
vt 0.257935 0.007935
vt 0.257935 0.031128
vt 0.288940 0.007935
vt 0.257935 0.031128
vt 0.288940 0.031128
vt 0.288940 0.007935
vn 0.9659 0.2432 -0.0885
vn -0.9659 -0.2432 0.0885
vn -0.2588 0.9077 -0.3304
vn 0.2588 -0.9077 0.3304
vn -0.0000 0.3420 0.9397
vn 0.0000 -0.3420 -0.9397
usemtl giraffe.png
s off
f 217/217/37 218/218/37 219/219/37
f 220/220/37 221/221/37 222/222/37
f 223/223/38 224/224/38 225/225/38
f 226/226/38 227/227/38 228/228/38
f 229/229/39 230/230/39 231/231/39
f 232/232/39 233/233/39 234/234/39
f 235/235/40 236/236/40 237/237/40
f 238/238/40 239/239/40 240/240/40
f 241/241/41 242/242/41 243/243/41
f 244/244/41 245/245/41 246/246/41
f 247/247/42 248/248/42 249/249/42
f 250/250/42 251/251/42 252/252/42
o 3b19e913-ec23-4ee7-ba8f-8406c0c21c17_Mesh_7
v 6.363703 47.766941 -14.121692
v 5.587246 45.043922 -13.130592
v 6.363703 47.424923 -15.061384
v 5.587246 45.043922 -13.130592
v 5.587246 44.701904 -14.070286
v 6.363703 47.424923 -15.061384
v 2.500000 48.397762 -15.415469
v 1.723543 45.674744 -14.424371
v 2.500000 48.739784 -14.475777
v 1.723543 45.674744 -14.424371
v 1.723543 46.016766 -13.484678
v 2.500000 48.739784 -14.475777
v 2.500000 48.397762 -15.415469
v 2.500000 48.739784 -14.475777
v 6.363703 47.424923 -15.061384
v 2.500000 48.739784 -14.475777
v 6.363703 47.766941 -14.121692
v 6.363703 47.424923 -15.061384
v 1.723543 46.016766 -13.484678
v 1.723543 45.674744 -14.424371
v 5.587246 45.043922 -13.130592
v 1.723543 45.674744 -14.424371
v 5.587246 44.701904 -14.070286
v 5.587246 45.043922 -13.130592
v 2.500000 48.739784 -14.475777
v 1.723543 46.016766 -13.484678
v 6.363703 47.766941 -14.121692
v 1.723543 46.016766 -13.484678
v 5.587246 45.043922 -13.130592
v 6.363703 47.766941 -14.121692
v 6.363703 47.424923 -15.061384
v 5.587246 44.701904 -14.070286
v 2.500000 48.397762 -15.415469
v 5.587246 44.701904 -14.070286
v 1.723543 45.674744 -14.424371
v 2.500000 48.397762 -15.415469
vt 0.250122 0.007935
vt 0.250122 0.031128
vt 0.257690 0.007935
vt 0.250122 0.031128
vt 0.257690 0.031128
vt 0.257690 0.007935
vt 0.289185 0.007935
vt 0.289185 0.031128
vt 0.296753 0.007935
vt 0.289185 0.031128
vt 0.296753 0.031128
vt 0.296753 0.007935
vt 0.288940 0.007690
vt 0.288940 0.000122
vt 0.257935 0.007690
vt 0.288940 0.000122
vt 0.257935 0.000122
vt 0.257935 0.007690
vt 0.320190 0.000122
vt 0.320190 0.007690
vt 0.289185 0.000122
vt 0.320190 0.007690
vt 0.289185 0.007690
vt 0.289185 0.000122
vt 0.296997 0.007935
vt 0.296997 0.031128
vt 0.328003 0.007935
vt 0.296997 0.031128
vt 0.328003 0.031128
vt 0.328003 0.007935
vt 0.257935 0.007935
vt 0.257935 0.031128
vt 0.288940 0.007935
vt 0.257935 0.031128
vt 0.288940 0.031128
vt 0.288940 0.007935
vn 0.9659 -0.2432 0.0885
vn -0.9659 0.2432 -0.0885
vn 0.2588 0.9077 -0.3304
vn -0.2588 -0.9077 0.3304
vn 0.0000 0.3420 0.9397
vn 0.0000 -0.3420 -0.9397
usemtl giraffe.png
s off
f 253/253/43 254/254/43 255/255/43
f 256/256/43 257/257/43 258/258/43
f 259/259/44 260/260/44 261/261/44
f 262/262/44 263/263/44 264/264/44
f 265/265/45 266/266/45 267/267/45
f 268/268/45 269/269/45 270/270/45
f 271/271/46 272/272/46 273/273/46
f 274/274/46 275/275/46 276/276/46
f 277/277/47 278/278/47 279/279/47
f 280/280/47 281/281/47 282/282/47
f 283/283/48 284/284/48 285/285/48
f 286/286/48 287/287/48 288/288/48
o 96200311-2270-c224-878f-49139b3a5ba7_Mesh_8
v 1.500000 47.029678 -19.174242
v 1.500000 43.270912 -17.806158
v 1.500000 46.003620 -21.993319
v 1.500000 43.270912 -17.806158
v 1.500000 42.244850 -20.625238
v 1.500000 46.003620 -21.993319
v -1.500000 46.003620 -21.993319
v -1.500000 42.244850 -20.625238
v -1.500000 47.029678 -19.174242
v -1.500000 42.244850 -20.625238
v -1.500000 43.270912 -17.806158
v -1.500000 47.029678 -19.174242
v -1.500000 46.003620 -21.993319
v -1.500000 47.029678 -19.174242
v 1.500000 46.003620 -21.993319
v -1.500000 47.029678 -19.174242
v 1.500000 47.029678 -19.174242
v 1.500000 46.003620 -21.993319
v -1.500000 43.270912 -17.806158
v -1.500000 42.244850 -20.625238
v 1.500000 43.270912 -17.806158
v -1.500000 42.244850 -20.625238
v 1.500000 42.244850 -20.625238
v 1.500000 43.270912 -17.806158
v -1.500000 47.029678 -19.174242
v -1.500000 43.270912 -17.806158
v 1.500000 47.029678 -19.174242
v -1.500000 43.270912 -17.806158
v 1.500000 43.270912 -17.806158
v 1.500000 47.029678 -19.174242
v 1.500000 46.003620 -21.993319
v 1.500000 42.244850 -20.625238
v -1.500000 46.003620 -21.993319
v 1.500000 42.244850 -20.625238
v -1.500000 42.244850 -20.625238
v -1.500000 46.003620 -21.993319
vt 0.226685 0.195435
vt 0.226685 0.226440
vt 0.249878 0.195435
vt 0.226685 0.226440
vt 0.249878 0.226440
vt 0.249878 0.195435
vt 0.273560 0.195435
vt 0.273560 0.226440
vt 0.296753 0.195435
vt 0.273560 0.226440
vt 0.296753 0.226440
vt 0.296753 0.195435
vt 0.273315 0.195190
vt 0.273315 0.171997
vt 0.250122 0.195190
vt 0.273315 0.171997
vt 0.250122 0.171997
vt 0.250122 0.195190
vt 0.296753 0.171997
vt 0.296753 0.195190
vt 0.273560 0.171997
vt 0.296753 0.195190
vt 0.273560 0.195190
vt 0.273560 0.171997
vt 0.296997 0.195435
vt 0.296997 0.226440
vt 0.320190 0.195435
vt 0.296997 0.226440
vt 0.320190 0.226440
vt 0.320190 0.195435
vt 0.250122 0.195435
vt 0.250122 0.226440
vt 0.273315 0.195435
vt 0.250122 0.226440
vt 0.273315 0.226440
vt 0.273315 0.195435
vn 1.0000 0.0000 0.0000
vn -1.0000 0.0000 0.0000
vn 0.0000 0.9397 -0.3420
vn 0.0000 -0.9397 0.3420
vn 0.0000 0.3420 0.9397
vn 0.0000 -0.3420 -0.9397
usemtl giraffe.png
s off
f 289/289/49 290/290/49 291/291/49
f 292/292/49 293/293/49 294/294/49
f 295/295/50 296/296/50 297/297/50
f 298/298/50 299/299/50 300/300/50
f 301/301/51 302/302/51 303/303/51
f 304/304/51 305/305/51 306/306/51
f 307/307/52 308/308/52 309/309/52
f 310/310/52 311/311/52 312/312/52
f 313/313/53 314/314/53 315/315/53
f 316/316/53 317/317/53 318/318/53
f 319/319/54 320/320/54 321/321/54
f 322/322/54 323/323/54 324/324/54
o 52f62a1e-88d6-a3f9-278b-a92fb04288f8_Mesh_9
v 5.500000 27.000000 1.000000
v 5.500000 15.000000 1.000000
v 5.500000 27.000000 -9.000000
v 5.500000 15.000000 1.000000
v 5.500000 15.000000 -9.000000
v 5.500000 27.000000 -9.000000
v -5.500000 27.000000 -9.000000
v -5.500000 15.000000 -9.000000
v -5.500000 27.000000 1.000000
v -5.500000 15.000000 -9.000000
v -5.500000 15.000000 1.000000
v -5.500000 27.000000 1.000000
v -5.500000 27.000000 -9.000000
v -5.500000 27.000000 1.000000
v 5.500000 27.000000 -9.000000
v -5.500000 27.000000 1.000000
v 5.500000 27.000000 1.000000
v 5.500000 27.000000 -9.000000
v -5.500000 15.000000 1.000000
v -5.500000 15.000000 -9.000000
v 5.500000 15.000000 1.000000
v -5.500000 15.000000 -9.000000
v 5.500000 15.000000 -9.000000
v 5.500000 15.000000 1.000000
v -5.500000 27.000000 1.000000
v -5.500000 15.000000 1.000000
v 5.500000 27.000000 1.000000
v -5.500000 15.000000 1.000000
v 5.500000 15.000000 1.000000
v 5.500000 27.000000 1.000000
v 5.500000 27.000000 -9.000000
v 5.500000 15.000000 -9.000000
v -5.500000 27.000000 -9.000000
v 5.500000 15.000000 -9.000000
v -5.500000 15.000000 -9.000000
v -5.500000 27.000000 -9.000000
vt 0.000122 0.078247
vt 0.000122 0.171753
vt 0.078003 0.078247
vt 0.000122 0.171753
vt 0.078003 0.171753
vt 0.078003 0.078247
vt 0.164185 0.078247
vt 0.164185 0.171753
vt 0.242065 0.078247
vt 0.164185 0.171753
vt 0.242065 0.171753
vt 0.242065 0.078247
vt 0.163940 0.078003
vt 0.163940 0.000122
vt 0.078247 0.078003
vt 0.163940 0.000122
vt 0.078247 0.000122
vt 0.078247 0.078003
vt 0.249878 0.000122
vt 0.249878 0.078003
vt 0.164185 0.000122
vt 0.249878 0.078003
vt 0.164185 0.078003
vt 0.164185 0.000122
vt 0.242310 0.078247
vt 0.242310 0.171753
vt 0.328003 0.078247
vt 0.242310 0.171753
vt 0.328003 0.171753
vt 0.328003 0.078247
vt 0.078247 0.078247
vt 0.078247 0.171753
vt 0.163940 0.078247
vt 0.078247 0.171753
vt 0.163940 0.171753
vt 0.163940 0.078247
vn 1.0000 0.0000 0.0000
vn -1.0000 0.0000 0.0000
vn 0.0000 1.0000 0.0000
vn 0.0000 -1.0000 0.0000
vn 0.0000 0.0000 1.0000
vn 0.0000 0.0000 -1.0000
usemtl giraffe.png
s off
f 325/325/55 326/326/55 327/327/55
f 328/328/55 329/329/55 330/330/55
f 331/331/56 332/332/56 333/333/56
f 334/334/56 335/335/56 336/336/56
f 337/337/57 338/338/57 339/339/57
f 340/340/57 341/341/57 342/342/57
f 343/343/58 344/344/58 345/345/58
f 346/346/58 347/347/58 348/348/58
f 349/349/59 350/350/59 351/351/59
f 352/352/59 353/353/59 354/354/59
f 355/355/60 356/356/60 357/357/60
f 358/358/60 359/359/60 360/360/60
o 6af2a23a-f460-4016-4c05-4610e908706b_Mesh_10
v 3.500000 27.123400 0.314011
v 3.500000 19.605858 -2.422152
v 3.500000 30.201580 -8.143224
v 3.500000 19.605858 -2.422152
v 3.500000 22.684040 -10.879385
v 3.500000 30.201580 -8.143224
v -3.500000 30.201580 -8.143224
v -3.500000 22.684040 -10.879385
v -3.500000 27.123400 0.314011
v -3.500000 22.684040 -10.879385
v -3.500000 19.605858 -2.422152
v -3.500000 27.123400 0.314011
v -3.500000 30.201580 -8.143224
v -3.500000 27.123400 0.314011
v 3.500000 30.201580 -8.143224
v -3.500000 27.123400 0.314011
v 3.500000 27.123400 0.314011
v 3.500000 30.201580 -8.143224
v -3.500000 19.605858 -2.422152
v -3.500000 22.684040 -10.879385
v 3.500000 19.605858 -2.422152
v -3.500000 22.684040 -10.879385
v 3.500000 22.684040 -10.879385
v 3.500000 19.605858 -2.422152
v -3.500000 27.123400 0.314011
v -3.500000 19.605858 -2.422152
v 3.500000 27.123400 0.314011
v -3.500000 19.605858 -2.422152
v 3.500000 19.605858 -2.422152
v 3.500000 27.123400 0.314011
v 3.500000 30.201580 -8.143224
v 3.500000 22.684040 -10.879385
v -3.500000 30.201580 -8.143224
v 3.500000 22.684040 -10.879385
v -3.500000 22.684040 -10.879385
v -3.500000 30.201580 -8.143224
vt 0.226685 0.328247
vt 0.226685 0.390503
vt 0.296753 0.328247
vt 0.226685 0.390503
vt 0.296753 0.390503
vt 0.296753 0.328247
vt 0.351685 0.328247
vt 0.351685 0.390503
vt 0.421753 0.328247
vt 0.351685 0.390503
vt 0.421753 0.390503
vt 0.421753 0.328247
vt 0.351440 0.328003
vt 0.351440 0.257935
vt 0.296997 0.328003
vt 0.351440 0.257935
vt 0.296997 0.257935
vt 0.296997 0.328003
vt 0.406128 0.257935
vt 0.406128 0.328003
vt 0.351685 0.257935
vt 0.406128 0.328003
vt 0.351685 0.328003
vt 0.351685 0.257935
vt 0.421997 0.328247
vt 0.421997 0.390503
vt 0.476440 0.328247
vt 0.421997 0.390503
vt 0.476440 0.390503
vt 0.476440 0.328247
vt 0.296997 0.328247
vt 0.296997 0.390503
vt 0.351440 0.328247
vt 0.296997 0.390503
vt 0.351440 0.390503
vt 0.351440 0.328247
vn 1.0000 -0.0000 0.0000
vn -1.0000 -0.0000 0.0000
vn 0.0000 0.9397 0.3420
vn 0.0000 -0.9397 -0.3420
vn 0.0000 -0.3420 0.9397
vn 0.0000 0.3420 -0.9397
usemtl giraffe.png
s off
f 361/361/61 362/362/61 363/363/61
f 364/364/61 365/365/61 366/366/61
f 367/367/62 368/368/62 369/369/62
f 370/370/62 371/371/62 372/372/62
f 373/373/63 374/374/63 375/375/63
f 376/376/63 377/377/63 378/378/63
f 379/379/64 380/380/64 381/381/64
f 382/382/64 383/383/64 384/384/64
f 385/385/65 386/386/65 387/387/65
f 388/388/65 389/389/65 390/390/65
f 391/391/66 392/392/66 393/393/66
f 394/394/66 395/395/66 396/396/66
o eebf20c2-1de6-cec6-2f0e-3ed62a57395c_Mesh_11
v 5.000000 26.500000 10.000000
v 5.000000 15.500000 10.000000
v 5.000000 26.500000 1.000000
v 5.000000 15.500000 10.000000
v 5.000000 15.500000 1.000000
v 5.000000 26.500000 1.000000
v -5.000000 26.500000 1.000000
v -5.000000 15.500000 1.000000
v -5.000000 26.500000 10.000000
v -5.000000 15.500000 1.000000
v -5.000000 15.500000 10.000000
v -5.000000 26.500000 10.000000
v -5.000000 26.500000 1.000000
v -5.000000 26.500000 10.000000
v 5.000000 26.500000 1.000000
v -5.000000 26.500000 10.000000
v 5.000000 26.500000 10.000000
v 5.000000 26.500000 1.000000
v -5.000000 15.500000 10.000000
v -5.000000 15.500000 1.000000
v 5.000000 15.500000 10.000000
v -5.000000 15.500000 1.000000
v 5.000000 15.500000 1.000000
v 5.000000 15.500000 10.000000
v -5.000000 26.500000 10.000000
v -5.000000 15.500000 10.000000
v 5.000000 26.500000 10.000000
v -5.000000 15.500000 10.000000
v 5.000000 15.500000 10.000000
v 5.000000 26.500000 10.000000
v 5.000000 26.500000 1.000000
v 5.000000 15.500000 1.000000
v -5.000000 26.500000 1.000000
v 5.000000 15.500000 1.000000
v -5.000000 15.500000 1.000000
v -5.000000 26.500000 1.000000
vt 0.000122 0.242310
vt 0.000122 0.328003
vt 0.070190 0.242310
vt 0.000122 0.328003
vt 0.070190 0.328003
vt 0.070190 0.242310
vt 0.148560 0.242310
vt 0.148560 0.328003
vt 0.218628 0.242310
vt 0.148560 0.328003
vt 0.218628 0.328003
vt 0.218628 0.242310
vt 0.148315 0.242065
vt 0.148315 0.171997
vt 0.070435 0.242065
vt 0.148315 0.171997
vt 0.070435 0.171997
vt 0.070435 0.242065
vt 0.226440 0.171997
vt 0.226440 0.242065
vt 0.148560 0.171997
vt 0.226440 0.242065
vt 0.148560 0.242065
vt 0.148560 0.171997
vt 0.218872 0.242310
vt 0.218872 0.328003
vt 0.296753 0.242310
vt 0.218872 0.328003
vt 0.296753 0.328003
vt 0.296753 0.242310
vt 0.070435 0.242310
vt 0.070435 0.328003
vt 0.148315 0.242310
vt 0.070435 0.328003
vt 0.148315 0.328003
vt 0.148315 0.242310
vn 1.0000 0.0000 0.0000
vn -1.0000 0.0000 0.0000
vn 0.0000 1.0000 0.0000
vn 0.0000 -1.0000 0.0000
vn 0.0000 0.0000 1.0000
vn 0.0000 0.0000 -1.0000
usemtl giraffe.png
s off
f 397/397/67 398/398/67 399/399/67
f 400/400/67 401/401/67 402/402/67
f 403/403/68 404/404/68 405/405/68
f 406/406/68 407/407/68 408/408/68
f 409/409/69 410/410/69 411/411/69
f 412/412/69 413/413/69 414/414/69
f 415/415/70 416/416/70 417/417/70
f 418/418/70 419/419/70 420/420/70
f 421/421/71 422/422/71 423/423/71
f 424/424/71 425/425/71 426/426/71
f 427/427/72 428/428/72 429/429/72
f 430/430/72 431/431/72 432/432/72
o 97fd8852-8501-e2f8-8e83-20688ae835b0_Mesh_12
v -2.000000 19.000000 9.000000
v -2.000000 1.000000 9.000000
v -2.000000 19.000000 5.000000
v -2.000000 1.000000 9.000000
v -2.000000 1.000000 5.000000
v -2.000000 19.000000 5.000000
v -6.000000 19.000000 5.000000
v -6.000000 1.000000 5.000000
v -6.000000 19.000000 9.000000
v -6.000000 1.000000 5.000000
v -6.000000 1.000000 9.000000
v -6.000000 19.000000 9.000000
v -6.000000 19.000000 5.000000
v -6.000000 19.000000 9.000000
v -2.000000 19.000000 5.000000
v -6.000000 19.000000 9.000000
v -2.000000 19.000000 9.000000
v -2.000000 19.000000 5.000000
v -6.000000 1.000000 9.000000
v -6.000000 1.000000 5.000000
v -2.000000 1.000000 9.000000
v -6.000000 1.000000 5.000000
v -2.000000 1.000000 5.000000
v -2.000000 1.000000 9.000000
v -6.000000 19.000000 9.000000
v -6.000000 1.000000 9.000000
v -2.000000 19.000000 9.000000
v -6.000000 1.000000 9.000000
v -2.000000 1.000000 9.000000
v -2.000000 19.000000 9.000000
v -2.000000 19.000000 5.000000
v -2.000000 1.000000 5.000000
v -6.000000 19.000000 5.000000
v -2.000000 1.000000 5.000000
v -6.000000 1.000000 5.000000
v -6.000000 19.000000 5.000000
vt 0.000122 0.359497
vt 0.000122 0.499878
vt 0.031128 0.359497
vt 0.000122 0.499878
vt 0.031128 0.499878
vt 0.031128 0.359497
vt 0.062622 0.359497
vt 0.062622 0.499878
vt 0.093628 0.359497
vt 0.062622 0.499878
vt 0.093628 0.499878
vt 0.093628 0.359497
vt 0.062378 0.359253
vt 0.062378 0.328247
vt 0.031372 0.359253
vt 0.062378 0.328247
vt 0.031372 0.328247
vt 0.031372 0.359253
vt 0.093628 0.328247
vt 0.093628 0.359253
vt 0.062622 0.328247
vt 0.093628 0.359253
vt 0.062622 0.359253
vt 0.062622 0.328247
vt 0.093872 0.359497
vt 0.093872 0.499878
vt 0.124878 0.359497
vt 0.093872 0.499878
vt 0.124878 0.499878
vt 0.124878 0.359497
vt 0.031372 0.359497
vt 0.031372 0.499878
vt 0.062378 0.359497
vt 0.031372 0.499878
vt 0.062378 0.499878
vt 0.062378 0.359497
vn 1.0000 0.0000 0.0000
vn -1.0000 0.0000 0.0000
vn 0.0000 1.0000 0.0000
vn 0.0000 -1.0000 0.0000
vn 0.0000 0.0000 1.0000
vn 0.0000 0.0000 -1.0000
usemtl giraffe.png
s off
f 433/433/73 434/434/73 435/435/73
f 436/436/73 437/437/73 438/438/73
f 439/439/74 440/440/74 441/441/74
f 442/442/74 443/443/74 444/444/74
f 445/445/75 446/446/75 447/447/75
f 448/448/75 449/449/75 450/450/75
f 451/451/76 452/452/76 453/453/76
f 454/454/76 455/455/76 456/456/76
f 457/457/77 458/458/77 459/459/77
f 460/460/77 461/461/77 462/462/77
f 463/463/78 464/464/78 465/465/78
f 466/466/78 467/467/78 468/468/78
o e81f8415-cfdd-fe0a-daa9-4d9565a0a49b_Mesh_13
v 6.000000 19.000000 9.000000
v 6.000000 1.000000 9.000000
v 6.000000 19.000000 5.000000
v 6.000000 1.000000 9.000000
v 6.000000 1.000000 5.000000
v 6.000000 19.000000 5.000000
v 2.000000 19.000000 5.000000
v 2.000000 1.000000 5.000000
v 2.000000 19.000000 9.000000
v 2.000000 1.000000 5.000000
v 2.000000 1.000000 9.000000
v 2.000000 19.000000 9.000000
v 2.000000 19.000000 5.000000
v 2.000000 19.000000 9.000000
v 6.000000 19.000000 5.000000
v 2.000000 19.000000 9.000000
v 6.000000 19.000000 9.000000
v 6.000000 19.000000 5.000000
v 2.000000 1.000000 9.000000
v 2.000000 1.000000 5.000000
v 6.000000 1.000000 9.000000
v 2.000000 1.000000 5.000000
v 6.000000 1.000000 5.000000
v 6.000000 1.000000 9.000000
v 2.000000 19.000000 9.000000
v 2.000000 1.000000 9.000000
v 6.000000 19.000000 9.000000
v 2.000000 1.000000 9.000000
v 6.000000 1.000000 9.000000
v 6.000000 19.000000 9.000000
v 6.000000 19.000000 5.000000
v 6.000000 1.000000 5.000000
v 2.000000 19.000000 5.000000
v 6.000000 1.000000 5.000000
v 2.000000 1.000000 5.000000
v 2.000000 19.000000 5.000000
vt 0.000122 0.359497
vt 0.000122 0.499878
vt 0.031128 0.359497
vt 0.000122 0.499878
vt 0.031128 0.499878
vt 0.031128 0.359497
vt 0.062622 0.359497
vt 0.062622 0.499878
vt 0.093628 0.359497
vt 0.062622 0.499878
vt 0.093628 0.499878
vt 0.093628 0.359497
vt 0.062378 0.359253
vt 0.062378 0.328247
vt 0.031372 0.359253
vt 0.062378 0.328247
vt 0.031372 0.328247
vt 0.031372 0.359253
vt 0.093628 0.328247
vt 0.093628 0.359253
vt 0.062622 0.328247
vt 0.093628 0.359253
vt 0.062622 0.359253
vt 0.062622 0.328247
vt 0.093872 0.359497
vt 0.093872 0.499878
vt 0.124878 0.359497
vt 0.093872 0.499878
vt 0.124878 0.499878
vt 0.124878 0.359497
vt 0.031372 0.359497
vt 0.031372 0.499878
vt 0.062378 0.359497
vt 0.031372 0.499878
vt 0.062378 0.499878
vt 0.062378 0.359497
vn 1.0000 0.0000 0.0000
vn -1.0000 0.0000 0.0000
vn 0.0000 1.0000 0.0000
vn 0.0000 -1.0000 0.0000
vn 0.0000 0.0000 1.0000
vn 0.0000 0.0000 -1.0000
usemtl giraffe.png
s off
f 469/469/79 470/470/79 471/471/79
f 472/472/79 473/473/79 474/474/79
f 475/475/80 476/476/80 477/477/80
f 478/478/80 479/479/80 480/480/80
f 481/481/81 482/482/81 483/483/81
f 484/484/81 485/485/81 486/486/81
f 487/487/82 488/488/82 489/489/82
f 490/490/82 491/491/82 492/492/82
f 493/493/83 494/494/83 495/495/83
f 496/496/83 497/497/83 498/498/83
f 499/499/84 500/500/84 501/501/84
f 502/502/84 503/503/84 504/504/84
o f9e7cc0e-d663-102c-db0b-51f11bad225c_Mesh_14
v -2.000000 19.000000 -4.000000
v -2.000000 1.000000 -4.000000
v -2.000000 19.000000 -8.000000
v -2.000000 1.000000 -4.000000
v -2.000000 1.000000 -8.000000
v -2.000000 19.000000 -8.000000
v -6.000000 19.000000 -8.000000
v -6.000000 1.000000 -8.000000
v -6.000000 19.000000 -4.000000
v -6.000000 1.000000 -8.000000
v -6.000000 1.000000 -4.000000
v -6.000000 19.000000 -4.000000
v -6.000000 19.000000 -8.000000
v -6.000000 19.000000 -4.000000
v -2.000000 19.000000 -8.000000
v -6.000000 19.000000 -4.000000
v -2.000000 19.000000 -4.000000
v -2.000000 19.000000 -8.000000
v -6.000000 1.000000 -4.000000
v -6.000000 1.000000 -8.000000
v -2.000000 1.000000 -4.000000
v -6.000000 1.000000 -8.000000
v -2.000000 1.000000 -8.000000
v -2.000000 1.000000 -4.000000
v -6.000000 19.000000 -4.000000
v -6.000000 1.000000 -4.000000
v -2.000000 19.000000 -4.000000
v -6.000000 1.000000 -4.000000
v -2.000000 1.000000 -4.000000
v -2.000000 19.000000 -4.000000
v -2.000000 19.000000 -8.000000
v -2.000000 1.000000 -8.000000
v -6.000000 19.000000 -8.000000
v -2.000000 1.000000 -8.000000
v -6.000000 1.000000 -8.000000
v -6.000000 19.000000 -8.000000
vt 0.000122 0.359497
vt 0.000122 0.499878
vt 0.031128 0.359497
vt 0.000122 0.499878
vt 0.031128 0.499878
vt 0.031128 0.359497
vt 0.062622 0.359497
vt 0.062622 0.499878
vt 0.093628 0.359497
vt 0.062622 0.499878
vt 0.093628 0.499878
vt 0.093628 0.359497
vt 0.062378 0.359253
vt 0.062378 0.328247
vt 0.031372 0.359253
vt 0.062378 0.328247
vt 0.031372 0.328247
vt 0.031372 0.359253
vt 0.093628 0.328247
vt 0.093628 0.359253
vt 0.062622 0.328247
vt 0.093628 0.359253
vt 0.062622 0.359253
vt 0.062622 0.328247
vt 0.093872 0.359497
vt 0.093872 0.499878
vt 0.124878 0.359497
vt 0.093872 0.499878
vt 0.124878 0.499878
vt 0.124878 0.359497
vt 0.031372 0.359497
vt 0.031372 0.499878
vt 0.062378 0.359497
vt 0.031372 0.499878
vt 0.062378 0.499878
vt 0.062378 0.359497
vn 1.0000 0.0000 0.0000
vn -1.0000 0.0000 0.0000
vn 0.0000 1.0000 0.0000
vn 0.0000 -1.0000 0.0000
vn 0.0000 0.0000 1.0000
vn 0.0000 0.0000 -1.0000
usemtl giraffe.png
s off
f 505/505/85 506/506/85 507/507/85
f 508/508/85 509/509/85 510/510/85
f 511/511/86 512/512/86 513/513/86
f 514/514/86 515/515/86 516/516/86
f 517/517/87 518/518/87 519/519/87
f 520/520/87 521/521/87 522/522/87
f 523/523/88 524/524/88 525/525/88
f 526/526/88 527/527/88 528/528/88
f 529/529/89 530/530/89 531/531/89
f 532/532/89 533/533/89 534/534/89
f 535/535/90 536/536/90 537/537/90
f 538/538/90 539/539/90 540/540/90
o ee687e5d-34cc-d0f2-5bd0-6fd27a68d316_Mesh_15
v 6.000000 19.000000 -4.000000
v 6.000000 1.000000 -4.000000
v 6.000000 19.000000 -8.000000
v 6.000000 1.000000 -4.000000
v 6.000000 1.000000 -8.000000
v 6.000000 19.000000 -8.000000
v 2.000000 19.000000 -8.000000
v 2.000000 1.000000 -8.000000
v 2.000000 19.000000 -4.000000
v 2.000000 1.000000 -8.000000
v 2.000000 1.000000 -4.000000
v 2.000000 19.000000 -4.000000
v 2.000000 19.000000 -8.000000
v 2.000000 19.000000 -4.000000
v 6.000000 19.000000 -8.000000
v 2.000000 19.000000 -4.000000
v 6.000000 19.000000 -4.000000
v 6.000000 19.000000 -8.000000
v 2.000000 1.000000 -4.000000
v 2.000000 1.000000 -8.000000
v 6.000000 1.000000 -4.000000
v 2.000000 1.000000 -8.000000
v 6.000000 1.000000 -8.000000
v 6.000000 1.000000 -4.000000
v 2.000000 19.000000 -4.000000
v 2.000000 1.000000 -4.000000
v 6.000000 19.000000 -4.000000
v 2.000000 1.000000 -4.000000
v 6.000000 1.000000 -4.000000
v 6.000000 19.000000 -4.000000
v 6.000000 19.000000 -8.000000
v 6.000000 1.000000 -8.000000
v 2.000000 19.000000 -8.000000
v 6.000000 1.000000 -8.000000
v 2.000000 1.000000 -8.000000
v 2.000000 19.000000 -8.000000
vt 0.000122 0.359497
vt 0.000122 0.499878
vt 0.031128 0.359497
vt 0.000122 0.499878
vt 0.031128 0.499878
vt 0.031128 0.359497
vt 0.062622 0.359497
vt 0.062622 0.499878
vt 0.093628 0.359497
vt 0.062622 0.499878
vt 0.093628 0.499878
vt 0.093628 0.359497
vt 0.062378 0.359253
vt 0.062378 0.328247
vt 0.031372 0.359253
vt 0.062378 0.328247
vt 0.031372 0.328247
vt 0.031372 0.359253
vt 0.093628 0.328247
vt 0.093628 0.359253
vt 0.062622 0.328247
vt 0.093628 0.359253
vt 0.062622 0.359253
vt 0.062622 0.328247
vt 0.093872 0.359497
vt 0.093872 0.499878
vt 0.124878 0.359497
vt 0.093872 0.499878
vt 0.124878 0.499878
vt 0.124878 0.359497
vt 0.031372 0.359497
vt 0.031372 0.499878
vt 0.062378 0.359497
vt 0.031372 0.499878
vt 0.062378 0.499878
vt 0.062378 0.359497
vn 1.0000 0.0000 0.0000
vn -1.0000 0.0000 0.0000
vn 0.0000 1.0000 0.0000
vn 0.0000 -1.0000 0.0000
vn 0.0000 0.0000 1.0000
vn 0.0000 0.0000 -1.0000
usemtl giraffe.png
s off
f 541/541/91 542/542/91 543/543/91
f 544/544/91 545/545/91 546/546/91
f 547/547/92 548/548/92 549/549/92
f 550/550/92 551/551/92 552/552/92
f 553/553/93 554/554/93 555/555/93
f 556/556/93 557/557/93 558/558/93
f 559/559/94 560/560/94 561/561/94
f 562/562/94 563/563/94 564/564/94
f 565/565/95 566/566/95 567/567/95
f 568/568/95 569/569/95 570/570/95
f 571/571/96 572/572/96 573/573/96
f 574/574/96 575/575/96 576/576/96
o 8d086cf2-aab8-7513-8183-03a5e4d56d60_Mesh_16
v 0.500000 24.969267 13.695517
v 0.500000 24.045387 13.312834
v 0.500000 26.500000 10.000000
v 0.500000 24.045387 13.312834
v 0.500000 25.576120 9.617315
v 0.500000 26.500000 10.000000
v -0.500000 26.500000 10.000000
v -0.500000 25.576120 9.617315
v -0.500000 24.969267 13.695517
v -0.500000 25.576120 9.617315
v -0.500000 24.045387 13.312834
v -0.500000 24.969267 13.695517
v -0.500000 26.500000 10.000000
v -0.500000 24.969267 13.695517
v 0.500000 26.500000 10.000000
v -0.500000 24.969267 13.695517
v 0.500000 24.969267 13.695517
v 0.500000 26.500000 10.000000
v -0.500000 24.045387 13.312834
v -0.500000 25.576120 9.617315
v 0.500000 24.045387 13.312834
v -0.500000 25.576120 9.617315
v 0.500000 25.576120 9.617315
v 0.500000 24.045387 13.312834
v -0.500000 24.969267 13.695517
v -0.500000 24.045387 13.312834
v 0.500000 24.969267 13.695517
v -0.500000 24.045387 13.312834
v 0.500000 24.045387 13.312834
v 0.500000 24.969267 13.695517
v 0.500000 26.500000 10.000000
v 0.500000 25.576120 9.617315
v -0.500000 26.500000 10.000000
v 0.500000 25.576120 9.617315
v -0.500000 25.576120 9.617315
v -0.500000 26.500000 10.000000
vt 0.000122 0.031372
vt 0.000122 0.038940
vt 0.031128 0.031372
vt 0.000122 0.038940
vt 0.031128 0.038940
vt 0.031128 0.031372
vt 0.039185 0.031372
vt 0.039185 0.038940
vt 0.070190 0.031372
vt 0.039185 0.038940
vt 0.070190 0.038940
vt 0.070190 0.031372
vt 0.038940 0.031128
vt 0.038940 0.000122
vt 0.031372 0.031128
vt 0.038940 0.000122
vt 0.031372 0.000122
vt 0.031372 0.031128
vt 0.046753 0.000122
vt 0.046753 0.031128
vt 0.039185 0.000122
vt 0.046753 0.031128
vt 0.039185 0.031128
vt 0.039185 0.000122
vt 0.070435 0.031372
vt 0.070435 0.038940
vt 0.078003 0.031372
vt 0.070435 0.038940
vt 0.078003 0.038940
vt 0.078003 0.031372
vt 0.031372 0.031372
vt 0.031372 0.038940
vt 0.038940 0.031372
vt 0.031372 0.038940
vt 0.038940 0.038940
vt 0.038940 0.031372
vn 1.0000 0.0000 0.0000
vn -1.0000 0.0000 0.0000
vn 0.0000 0.9239 0.3827
vn 0.0000 -0.9239 -0.3827
vn 0.0000 -0.3827 0.9239
vn 0.0000 0.3827 -0.9239
usemtl giraffe.png
s off
f 577/577/97 578/578/97 579/579/97
f 580/580/97 581/581/97 582/582/97
f 583/583/98 584/584/98 585/585/98
f 586/586/98 587/587/98 588/588/98
f 589/589/99 590/590/99 591/591/99
f 592/592/99 593/593/99 594/594/99
f 595/595/100 596/596/100 597/597/100
f 598/598/100 599/599/100 600/600/100
f 601/601/101 602/602/101 603/603/101
f 604/604/101 605/605/101 606/606/101
f 607/607/102 608/608/102 609/609/102
f 610/610/102 611/611/102 612/612/102
o 3215c677-8dc9-2f28-9b0d-4f7dc6f969e1_Mesh_17
v 1.000000 24.283155 16.658499
v 1.000000 22.435394 15.893131
v 1.000000 25.813889 12.962980
v 1.000000 22.435394 15.893131
v 1.000000 23.966129 12.197613
v 1.000000 25.813889 12.962980
v -1.000000 25.813889 12.962980
v -1.000000 23.966129 12.197613
v -1.000000 24.283155 16.658499
v -1.000000 23.966129 12.197613
v -1.000000 22.435394 15.893131
v -1.000000 24.283155 16.658499
v -1.000000 25.813889 12.962980
v -1.000000 24.283155 16.658499
v 1.000000 25.813889 12.962980
v -1.000000 24.283155 16.658499
v 1.000000 24.283155 16.658499
v 1.000000 25.813889 12.962980
v -1.000000 22.435394 15.893131
v -1.000000 23.966129 12.197613
v 1.000000 22.435394 15.893131
v -1.000000 23.966129 12.197613
v 1.000000 23.966129 12.197613
v 1.000000 22.435394 15.893131
v -1.000000 24.283155 16.658499
v -1.000000 22.435394 15.893131
v 1.000000 24.283155 16.658499
v -1.000000 22.435394 15.893131
v 1.000000 22.435394 15.893131
v 1.000000 24.283155 16.658499
v 1.000000 25.813889 12.962980
v 1.000000 23.966129 12.197613
v -1.000000 25.813889 12.962980
v 1.000000 23.966129 12.197613
v -1.000000 23.966129 12.197613
v -1.000000 25.813889 12.962980
vt 0.289185 0.226685
vt 0.289185 0.242065
vt 0.320190 0.226685
vt 0.289185 0.242065
vt 0.320190 0.242065
vt 0.320190 0.226685
vt 0.336060 0.226685
vt 0.336060 0.242065
vt 0.367065 0.226685
vt 0.336060 0.242065
vt 0.367065 0.242065
vt 0.367065 0.226685
vt 0.335815 0.226440
vt 0.335815 0.195435
vt 0.320435 0.226440
vt 0.335815 0.195435
vt 0.320435 0.195435
vt 0.320435 0.226440
vt 0.351440 0.195435
vt 0.351440 0.226440
vt 0.336060 0.195435
vt 0.351440 0.226440
vt 0.336060 0.226440
vt 0.336060 0.195435
vt 0.367310 0.226685
vt 0.367310 0.242065
vt 0.382690 0.226685
vt 0.367310 0.242065
vt 0.382690 0.242065
vt 0.382690 0.226685
vt 0.320435 0.226685
vt 0.320435 0.242065
vt 0.335815 0.226685
vt 0.320435 0.242065
vt 0.335815 0.242065
vt 0.335815 0.226685
vn 1.0000 0.0000 0.0000
vn -1.0000 0.0000 0.0000
vn 0.0000 0.9239 0.3827
vn 0.0000 -0.9239 -0.3827
vn 0.0000 -0.3827 0.9239
vn 0.0000 0.3827 -0.9239
usemtl giraffe.png
s off
f 613/613/103 614/614/103 615/615/103
f 616/616/103 617/617/103 618/618/103
f 619/619/104 620/620/104 621/621/104
f 622/622/104 623/623/104 624/624/104
f 625/625/105 626/626/105 627/627/105
f 628/628/105 629/629/105 630/630/105
f 631/631/106 632/632/106 633/633/106
f 634/634/106 635/635/106 636/636/106
f 637/637/107 638/638/107 639/639/107
f 640/640/107 641/641/107 642/642/107
f 643/643/108 644/644/108 645/645/108
f 646/646/108 647/647/108 648/648/108
