# Blender v3.0.0 OBJ File: ''
# www.blender.org
mtllib poteau.mtl
o base
v 0.250322 -1.350000 -0.250322
v 0.490127 -1.350000 -0.490127
v -0.490127 -1.350000 -0.490127
v -0.490127 -1.350000 0.490127
v 0.490127 -1.350000 0.490127
v 0.250322 -1.350000 0.250322
v 0.196677 -1.350000 0.294348
v 0.135474 -1.350000 0.327062
v 0.069064 -1.350000 0.347207
v 0.000000 -1.350000 0.354009
v -0.069064 -1.350000 0.347207
v -0.135474 -1.350000 0.327062
v -0.196677 -1.350000 0.294348
v -0.250322 -1.350000 0.250322
v -0.294348 -1.350000 0.196677
v -0.327062 -1.350000 0.135474
v -0.347207 -1.350000 0.069064
v -0.354009 -1.350000 0.000000
v -0.347207 -1.350000 -0.069064
v -0.327062 -1.350000 -0.135474
v -0.294348 -1.350000 -0.196677
v -0.250322 -1.350000 -0.250322
v -0.196677 -1.350000 -0.294348
v -0.135474 -1.350000 -0.327062
v -0.069064 -1.350000 -0.347207
v 0.000000 -1.350000 -0.354009
v 0.069064 -1.350000 -0.347207
v 0.135474 -1.350000 -0.327062
v 0.196677 -1.350000 -0.294348
v 0.294348 -1.350000 -0.196677
v 0.327062 -1.350000 -0.135474
v 0.347207 -1.350000 -0.069064
v 0.354009 -1.350000 0.000000
v 0.347207 -1.350000 0.069064
v 0.327062 -1.350000 0.135474
v 0.294348 -1.350000 0.196677
v 0.250322 -1.393873 -0.250322
v 0.490127 -1.393873 -0.490127
v 0.490127 -1.393873 0.490127
v 0.250322 -1.393873 0.250322
v 0.294348 -1.393873 0.196677
v 0.327062 -1.393873 0.135474
v 0.347207 -1.393873 0.069064
v 0.354009 -1.393873 -0.000000
v 0.347207 -1.393873 -0.069064
v 0.327062 -1.393873 -0.135474
v 0.294348 -1.393873 -0.196677
v -0.490127 -1.393873 0.490127
v -0.490127 -1.393873 -0.490127
v 0.196677 -1.393873 -0.294348
v 0.135474 -1.393873 -0.327062
v 0.069064 -1.393873 -0.347207
v 0.000000 -1.393873 -0.354009
v -0.069064 -1.393873 -0.347207
v -0.135474 -1.393873 -0.327062
v -0.196677 -1.393873 -0.294348
v -0.250322 -1.393873 -0.250322
v -0.294348 -1.393873 -0.196677
v -0.327062 -1.393873 -0.135474
v -0.347207 -1.393873 -0.069064
v -0.354009 -1.393873 -0.000000
v -0.347207 -1.393873 0.069064
v -0.327062 -1.393873 0.135474
v -0.294348 -1.393873 0.196677
v -0.250322 -1.393873 0.250322
v -0.196677 -1.393873 0.294348
v -0.135474 -1.393873 0.327062
v -0.069064 -1.393873 0.347207
v 0.000000 -1.393873 0.354009
v 0.069064 -1.393873 0.347207
v 0.135474 -1.393873 0.327062
v 0.196677 -1.393873 0.294348
vt 0.936748 0.675269
vt 0.939373 0.677894
vt 0.932486 0.677894
vt 0.932486 0.671007
vt 0.939373 0.671007
vt 0.936748 0.673632
vt 0.936572 0.673489
vt 0.936372 0.673382
vt 0.936155 0.673316
vt 0.935930 0.673294
vt 0.935704 0.673316
vt 0.935487 0.673382
vt 0.935287 0.673489
vt 0.935112 0.673632
vt 0.934968 0.673808
vt 0.934861 0.674008
vt 0.934795 0.674225
vt 0.934773 0.674451
vt 0.934795 0.674676
vt 0.934861 0.674893
vt 0.934968 0.675093
vt 0.935112 0.675269
vt 0.935287 0.675412
vt 0.935487 0.675519
vt 0.935704 0.675585
vt 0.935930 0.675607
vt 0.936155 0.675585
vt 0.936372 0.675519
vt 0.936572 0.675412
vt 0.936891 0.675093
vt 0.936998 0.674893
vt 0.937064 0.674676
vt 0.937086 0.674451
vt 0.937064 0.674225
vt 0.936998 0.674008
vt 0.936891 0.673808
vt 0.936748 0.675269
vt 0.939373 0.677894
vt 0.939373 0.671007
vt 0.936748 0.673632
vt 0.936891 0.673808
vt 0.936998 0.674008
vt 0.937064 0.674225
vt 0.937086 0.674451
vt 0.937064 0.674676
vt 0.936998 0.674893
vt 0.936891 0.675093
vt 0.932486 0.671007
vt 0.932486 0.677894
vt 0.936572 0.675412
vt 0.936372 0.675519
vt 0.936155 0.675585
vt 0.935930 0.675607
vt 0.935704 0.675585
vt 0.935487 0.675519
vt 0.935287 0.675412
vt 0.935112 0.675269
vt 0.934968 0.675093
vt 0.934861 0.674893
vt 0.934795 0.674676
vt 0.934773 0.674451
vt 0.934795 0.674225
vt 0.934861 0.674008
vt 0.934968 0.673808
vt 0.935112 0.673632
vt 0.935287 0.673489
vt 0.935487 0.673382
vt 0.935704 0.673316
vt 0.935930 0.673294
vt 0.936155 0.673316
vt 0.936372 0.673382
vt 0.936572 0.673489
vt 0.939158 0.674480
vt 0.939158 0.674626
vt 0.939373 0.674626
vt 0.939373 0.674480
vt 0.938943 0.674480
vt 0.938943 0.674626
vt 0.938727 0.674480
vt 0.938727 0.674626
vt 0.938512 0.674480
vt 0.938512 0.674626
vt 0.938297 0.674626
vt 0.938297 0.674480
vt 0.938082 0.674626
vt 0.938082 0.674480
vt 0.937867 0.674626
vt 0.937867 0.674480
vt 0.937651 0.674626
vt 0.937651 0.674480
vt 0.937436 0.674626
vt 0.937436 0.674480
vt 0.937221 0.674626
vt 0.937221 0.674480
vt 0.937006 0.674626
vt 0.937006 0.674480
vt 0.936791 0.674626
vt 0.936791 0.674480
vt 0.936575 0.674626
vt 0.936575 0.674480
vt 0.936360 0.674626
vt 0.936360 0.674480
vt 0.936145 0.674480
vt 0.936145 0.674626
vt 0.935930 0.674480
vt 0.935930 0.674626
vt 0.935714 0.674480
vt 0.935714 0.674626
vt 0.935499 0.674480
vt 0.935499 0.674626
vt 0.935284 0.674480
vt 0.935284 0.674626
vt 0.935069 0.674626
vt 0.935069 0.674480
vt 0.934853 0.674480
vt 0.934853 0.674626
vt 0.934638 0.674480
vt 0.934638 0.674626
vt 0.934423 0.674480
vt 0.934423 0.674626
vt 0.934208 0.674480
vt 0.934208 0.674626
vt 0.933993 0.674480
vt 0.933993 0.674626
vt 0.933777 0.674480
vt 0.933777 0.674626
vt 0.933562 0.674480
vt 0.933562 0.674626
vt 0.933347 0.674480
vt 0.933347 0.674626
vt 0.933132 0.674480
vt 0.933132 0.674626
vt 0.932916 0.674480
vt 0.932916 0.674626
vt 0.932701 0.674480
vt 0.932701 0.674626
vt 0.932486 0.674480
vt 0.932486 0.674626
vn 0.0000 1.0000 0.0000
vn -0.0000 -1.0000 -0.0000
vn 0.0000 0.0000 -1.0000
vn 0.0000 0.0000 1.0000
vn 1.0000 0.0000 0.0000
vn -1.0000 0.0000 0.0000
vn -0.0980 0.0000 0.9952
vn -0.2903 0.0000 0.9569
vn -0.4714 0.0000 0.8819
vn -0.6344 0.0000 0.7730
vn -0.7730 0.0000 0.6344
vn -0.8819 0.0000 0.4714
vn -0.9569 0.0000 0.2903
vn -0.9952 0.0000 0.0980
vn -0.9952 0.0000 -0.0980
vn -0.9569 0.0000 -0.2903
vn -0.8819 0.0000 -0.4714
vn -0.7730 0.0000 -0.6344
vn -0.6344 0.0000 -0.7730
vn -0.4714 0.0000 -0.8819
vn -0.2903 0.0000 -0.9569
vn -0.0980 0.0000 -0.9952
vn 0.0980 0.0000 -0.9952
vn 0.2903 0.0000 -0.9569
vn 0.4714 0.0000 -0.8819
vn 0.6344 0.0000 -0.7730
vn 0.7730 0.0000 -0.6344
vn 0.8819 0.0000 -0.4714
vn 0.9569 0.0000 -0.2903
vn 0.9952 0.0000 -0.0980
vn 0.9952 0.0000 0.0980
vn 0.9569 0.0000 0.2903
vn 0.8819 0.0000 0.4714
vn 0.7730 0.0000 0.6344
vn 0.6344 0.0000 0.7730
vn 0.4714 0.0000 0.8819
vn 0.2903 0.0000 0.9569
vn 0.0980 0.0000 0.9952
usemtl Material.002
s 1
f 1/1/1 2/2/1 3/3/1 4/4/1 5/5/1 6/6/1 7/7/1 8/8/1 9/9/1 10/10/1 11/11/1 12/12/1 13/13/1 14/14/1 15/15/1 16/16/1 17/17/1 18/18/1 19/19/1 20/20/1 21/21/1 22/22/1 23/23/1 24/24/1 25/25/1 26/26/1 27/27/1 28/28/1 29/29/1
f 6/6/1 5/5/1 2/2/1 1/1/1 30/30/1 31/31/1 32/32/1 33/33/1 34/34/1 35/35/1 36/36/1
f 37/37/2 38/38/2 39/39/2 40/40/2 41/41/2 42/42/2 43/43/2 44/44/2 45/45/2 46/46/2 47/47/2
f 39/39/2 48/48/2 49/49/2 38/38/2 37/37/2 50/50/2 51/51/2 52/52/2 53/53/2 54/54/2 55/55/2 56/56/2 57/57/2 58/58/2 59/59/2 60/60/2 61/61/2 62/62/2 63/63/2 64/64/2 65/65/2 66/66/2 67/67/2 68/68/2 69/69/2 70/70/2 71/71/2 72/72/2 40/40/2
f 2/2/3 38/38/3 49/49/3 3/3/3
f 4/4/4 48/48/4 39/39/4 5/5/4
f 5/5/5 39/39/5 38/38/5 2/2/5
f 3/3/6 49/49/6 48/48/6 4/4/6
f 52/73/7 27/74/7 26/75/7 53/76/7
f 51/77/8 28/78/8 27/74/8 52/73/8
f 50/79/9 29/80/9 28/78/9 51/77/9
f 37/81/10 1/82/10 29/80/10 50/79/10
f 30/83/11 1/82/11 37/81/11 47/84/11
f 31/85/12 30/83/12 47/84/12 46/86/12
f 32/87/13 31/85/13 46/86/13 45/88/13
f 33/89/14 32/87/14 45/88/14 44/90/14
f 34/91/15 33/89/15 44/90/15 43/92/15
f 35/93/16 34/91/16 43/92/16 42/94/16
f 36/95/17 35/93/17 42/94/17 41/96/17
f 6/97/18 36/95/18 41/96/18 40/98/18
f 7/99/19 6/97/19 40/98/19 72/100/19
f 8/101/20 7/99/20 72/100/20 71/102/20
f 70/103/21 9/104/21 8/101/21 71/102/21
f 70/103/22 69/105/22 10/106/22 9/104/22
f 10/106/23 69/105/23 68/107/23 11/108/23
f 11/108/24 68/107/24 67/109/24 12/110/24
f 12/110/25 67/109/25 66/111/25 13/112/25
f 14/113/26 13/112/26 66/111/26 65/114/26
f 64/115/27 15/116/27 14/113/27 65/114/27
f 63/117/28 16/118/28 15/116/28 64/115/28
f 62/119/29 17/120/29 16/118/29 63/117/29
f 61/121/30 18/122/30 17/120/30 62/119/30
f 60/123/31 19/124/31 18/122/31 61/121/31
f 59/125/32 20/126/32 19/124/32 60/123/32
f 58/127/33 21/128/33 20/126/33 59/125/33
f 57/129/34 22/130/34 21/128/34 58/127/34
f 56/131/35 23/132/35 22/130/35 57/129/35
f 55/133/36 24/134/36 23/132/36 56/131/36
f 54/135/37 25/136/37 24/134/37 55/133/37
f 53/137/38 26/138/38 25/136/38 54/135/38
o moving
v 0.000000 -0.444187 -0.164662
v 0.000000 -0.364777 -0.164662
v 0.032124 -0.364777 -0.161498
v 0.032124 -0.444187 -0.161498
v 0.063013 -0.364777 -0.152128
v 0.063013 -0.444187 -0.152128
v 0.091481 -0.364777 -0.136911
v 0.091481 -0.444187 -0.136911
v 0.116433 -0.364777 -0.116433
v 0.116433 -0.444187 -0.116433
v 0.136911 -0.364777 -0.091481
v 0.136911 -0.444187 -0.091481
v 0.152128 -0.364777 -0.063013
v 0.152128 -0.444187 -0.063013
v 0.161498 -0.364777 -0.032124
v 0.161498 -0.444187 -0.032124
v 0.164662 -0.364777 0.000000
v 0.164662 -0.444187 0.000000
v 0.161498 -0.364777 0.032124
v 0.161498 -0.444187 0.032124
v 0.152128 -0.364777 0.063014
v 0.152128 -0.444187 0.063014
v 0.136911 -0.364777 0.091482
v 0.136911 -0.444187 0.091481
v 0.116433 -0.364777 0.116434
v 0.116433 -0.444187 0.116434
v 0.091481 -0.364777 0.136912
v 0.091481 -0.444187 0.136912
v 0.063013 -0.364777 0.152128
v 0.063013 -0.444187 0.152128
v 0.032124 -0.364777 0.161498
v 0.032124 -0.444187 0.161498
v 0.000000 -0.364777 0.164662
v 0.000000 -0.444187 0.164662
v -0.032124 -0.364777 0.161498
v -0.032124 -0.444187 0.161498
v -0.063013 -0.364777 0.152128
v -0.063013 -0.444187 0.152128
v -0.091481 -0.364777 0.136912
v -0.091481 -0.444187 0.136912
v -0.116433 -0.364777 0.116434
v -0.116433 -0.444187 0.116434
v -0.136911 -0.364777 0.091482
v -0.136911 -0.444187 0.091481
v -0.152128 -0.364777 0.063014
v -0.152128 -0.444187 0.063014
v -0.161498 -0.364777 0.032124
v -0.161498 -0.444187 0.032124
v -0.164662 -0.364777 0.000000
v -0.164662 -0.444187 0.000000
v -0.161498 -0.364777 -0.032124
v -0.161498 -0.444187 -0.032124
v -0.152128 -0.364777 -0.063013
v -0.152128 -0.444187 -0.063013
v -0.136911 -0.364777 -0.091481
v -0.136911 -0.444187 -0.091481
v -0.116433 -0.364777 -0.116433
v -0.116433 -0.444187 -0.116433
v -0.091481 -0.364777 -0.136911
v -0.091481 -0.444187 -0.136911
v -0.063013 -0.364777 -0.152128
v -0.063013 -0.444187 -0.152128
v -0.032124 -0.364777 -0.161498
v -0.032124 -0.444187 -0.161498
v 0.000000 -1.393873 -0.164662
v 0.032124 -1.393873 -0.161498
v 0.063013 -1.393873 -0.152128
v 0.091481 -1.393873 -0.136911
v 0.116433 -1.393873 -0.116434
v 0.136911 -1.393873 -0.091481
v 0.152128 -1.393873 -0.063013
v 0.161498 -1.393873 -0.032124
v 0.164662 -1.393873 -0.000000
v 0.161498 -1.393873 0.032124
v 0.152128 -1.393873 0.063013
v 0.136911 -1.393873 0.091481
v 0.116433 -1.393873 0.116433
v 0.091481 -1.393873 0.136911
v 0.063013 -1.393873 0.152128
v 0.032124 -1.393873 0.161498
v 0.000000 -1.393873 0.164662
v -0.032124 -1.393873 0.161498
v -0.063013 -1.393873 0.152128
v -0.091481 -1.393873 0.136911
v -0.116433 -1.393873 0.116433
v -0.136911 -1.393873 0.091481
v -0.152128 -1.393873 0.063013
v -0.161498 -1.393873 0.032124
v -0.164662 -1.393873 -0.000000
v -0.161498 -1.393873 -0.032124
v -0.152128 -1.393873 -0.063013
v -0.136911 -1.393873 -0.091481
v -0.116433 -1.393873 -0.116434
v -0.091481 -1.393873 -0.136911
v -0.063013 -1.393873 -0.152128
v -0.032124 -1.393873 -0.161498
v -0.032124 -0.506689 -0.161498
v -0.032124 -0.473927 -0.161498
v 0.000000 -0.473927 -0.164662
v 0.000000 -0.506689 -0.164662
v -0.032124 -0.531635 0.161498
v 0.000000 -0.531635 0.164662
v 0.000000 -0.531635 0.164662
v -0.032124 -0.531635 0.161498
v -0.063013 -0.506689 -0.152128
v -0.063013 -0.473927 -0.152128
v 0.116433 -0.444187 -0.116433
v 0.091481 -0.444187 -0.136911
v -0.091481 -0.506689 -0.136911
v -0.091481 -0.473927 -0.136911
v -0.063013 -0.444187 -0.152128
v -0.091481 -0.444187 -0.136911
v -0.116433 -0.506689 -0.116433
v -0.116433 -0.473927 -0.116433
v 0.032124 -0.506689 0.161498
v 0.000000 -0.506689 0.164662
v 0.000000 -0.506689 0.164662
v 0.032124 -0.506689 0.161498
v -0.136911 -0.506689 -0.091481
v -0.136911 -0.473927 -0.091481
v 0.116433 -0.473927 -0.116433
v 0.091481 -0.473927 -0.136911
v 0.091481 -0.473927 -0.136911
v 0.116433 -0.473927 -0.116433
v -0.152128 -0.506689 -0.063013
v -0.152128 -0.473927 -0.063013
v -0.091481 -0.473927 -0.136911
v -0.063013 -0.473927 -0.152128
v -0.161498 -0.506689 -0.032124
v -0.161498 -0.473927 -0.032124
v 0.032124 -0.531635 0.161498
v 0.032124 -0.531635 0.161498
v -0.164662 -0.506689 0.000000
v -0.164662 -0.473927 0.000000
v 0.136911 -0.444187 -0.091481
v -0.161498 -0.506689 0.032124
v -0.161498 -0.473927 0.032124
v -0.032124 -0.444187 -0.161498
v -0.152128 -0.506689 0.063014
v -0.152128 -0.473927 0.063014
v 0.063013 -0.506689 0.152128
v 0.063013 -0.506689 0.152128
v -0.136911 -0.506689 0.091481
v -0.136911 -0.473927 0.091481
v 0.136911 -0.473927 -0.091481
v 0.136911 -0.473927 -0.091481
v -0.116433 -0.506689 0.116434
v -0.116433 -0.473927 0.116434
v -0.032124 -0.473927 -0.161498
v -0.091481 -0.506689 0.136912
v -0.091481 -0.473927 0.136912
v 0.063013 -0.531635 0.152128
v 0.063013 -0.531635 0.152128
v -0.063013 -0.506689 0.152128
v -0.063013 -0.473927 0.152128
v 0.152128 -0.444187 -0.063013
v -0.032124 -0.506689 0.161498
v -0.032124 -0.473927 0.161498
v 0.000000 -0.444187 -0.164662
v 0.000000 -0.473927 0.164662
v 0.091481 -0.506689 0.136912
v 0.091481 -0.506689 0.136912
v 0.032124 -0.473927 0.161498
v 0.152128 -0.473927 -0.063013
v 0.152128 -0.473927 -0.063013
v 0.063013 -0.473927 0.152128
v 0.000000 -0.473927 -0.164662
v 0.091481 -0.473927 0.136912
v 0.091481 -0.531635 0.136912
v 0.091481 -0.531635 0.136912
v 0.116433 -0.506689 0.116434
v 0.116433 -0.473927 0.116434
v 0.161498 -0.444187 -0.032124
v 0.136911 -0.506689 0.091481
v 0.136911 -0.473927 0.091481
v 0.116433 -0.506689 0.116434
v 0.152128 -0.506689 0.063014
v 0.152128 -0.473927 0.063014
v 0.161498 -0.473927 -0.032124
v 0.161498 -0.473927 -0.032124
v 0.161498 -0.506689 0.032124
v 0.161498 -0.473927 0.032124
v 0.116433 -0.531635 0.116434
v 0.116433 -0.531635 0.116434
v 0.164662 -0.506689 0.000000
v 0.164662 -0.473927 0.000000
v 0.164662 -0.444187 0.000000
v 0.161498 -0.506689 -0.032124
v 0.136911 -0.506689 0.091481
v 0.152128 -0.506689 -0.063013
v 0.164662 -0.473927 0.000000
v 0.136911 -0.506689 -0.091481
v 0.136911 -0.531635 0.091481
v 0.136911 -0.531635 0.091481
v 0.116433 -0.506689 -0.116433
v 0.161498 -0.444187 0.032124
v 0.091481 -0.506689 -0.136911
v 0.152128 -0.506689 0.063014
v 0.063013 -0.506689 -0.152128
v 0.063013 -0.473927 -0.152128
v 0.161498 -0.473927 0.032124
v 0.032124 -0.506689 -0.161498
v 0.032124 -0.473927 -0.161498
v 0.152128 -0.531635 0.063014
v 0.152128 -0.531635 0.063014
v 0.152128 -0.444187 0.063014
v 0.000000 -0.531635 -0.164662
v 0.032124 -0.531635 -0.161498
v 0.161498 -0.506689 0.032124
v 0.063013 -0.531635 -0.152128
v 0.152128 -0.473927 0.063014
v 0.091481 -0.531635 -0.136911
v 0.161498 -0.531635 0.032124
v 0.161498 -0.531635 0.032124
v 0.116433 -0.531635 -0.116433
v 0.136911 -0.444187 0.091481
v 0.136911 -0.531635 -0.091481
v 0.164662 -0.506689 0.000000
v 0.152128 -0.531635 -0.063013
v 0.136911 -0.473927 0.091481
v 0.161498 -0.531635 -0.032124
v 0.164662 -0.531635 0.000000
v 0.164662 -0.531635 0.000000
v 0.116433 -0.444187 0.116434
v 0.161498 -0.506689 -0.032124
v 0.116433 -0.473927 0.116434
v 0.161498 -0.531635 -0.032124
v 0.091481 -0.444187 0.136912
v 0.152128 -0.506689 -0.063013
v 0.091481 -0.473927 0.136912
v 0.152128 -0.531635 -0.063013
v 0.063013 -0.444187 0.152128
v 0.000000 -0.506689 -0.164662
v -0.032124 -0.506689 -0.161498
v -0.063013 -0.531635 0.152128
v 0.136911 -0.506689 -0.091481
v -0.091481 -0.531635 0.136912
v 0.063013 -0.473927 0.152128
v -0.116433 -0.531635 0.116434
v -0.032124 -0.531635 -0.161498
v -0.032124 -0.531635 -0.161498
v 0.000000 -0.531635 -0.164662
v -0.136911 -0.531635 0.091481
v 0.136911 -0.531635 -0.091481
v -0.152128 -0.531635 0.063014
v 0.032124 -0.444187 0.161498
v -0.161498 -0.531635 0.032124
v -0.063013 -0.506689 -0.152128
v -0.164662 -0.531635 0.000000
v 0.116433 -0.506689 -0.116433
v -0.161498 -0.531635 -0.032124
v 0.032124 -0.473927 0.161498
v -0.152128 -0.531635 -0.063013
v -0.063013 -0.531635 -0.152128
v -0.063013 -0.531635 -0.152128
v -0.136911 -0.531635 -0.091481
v 0.116433 -0.531635 -0.116433
v -0.116433 -0.531635 -0.116433
v 0.000000 -0.444187 0.164662
v -0.091481 -0.531635 -0.136911
v -0.091481 -0.506689 -0.136911
v 0.091481 -0.506689 -0.136911
v 0.000000 -0.473927 0.164662
v -0.091481 -0.531635 -0.136911
v 0.148248 -0.444187 0.029625
v 0.151153 -0.444187 0.000133
v 0.063013 -0.531635 -0.152128
v 0.032124 -0.531635 -0.161498
v 0.029473 -0.531635 -0.148134
v 0.057832 -0.531635 -0.139532
v -0.152128 -0.506689 -0.063013
v -0.136911 -0.506689 -0.091481
v -0.125713 -0.506689 -0.083854
v -0.139683 -0.506689 -0.057718
v 0.151153 -0.473927 0.000133
v 0.148248 -0.473927 0.029625
v 0.032124 -0.506689 -0.161498
v 0.029473 -0.506689 -0.148134
v -0.000019 -0.506689 -0.151039
v -0.136911 -0.531635 -0.091481
v -0.152128 -0.531635 -0.063013
v -0.139683 -0.531635 -0.057718
v -0.125713 -0.531635 -0.083854
v 0.139646 -0.444187 0.057983
v -0.000019 -0.531635 -0.151039
v -0.161498 -0.506689 -0.032124
v -0.148285 -0.506689 -0.029360
v 0.139646 -0.473927 0.057983
v -0.161498 -0.531635 -0.032124
v -0.148285 -0.531635 -0.029360
v 0.125676 -0.444187 0.084119
v -0.164662 -0.506689 0.000000
v -0.151190 -0.506689 0.000133
v 0.125676 -0.473927 0.084119
v -0.164662 -0.531635 0.000000
v -0.151190 -0.531635 0.000133
v 0.106876 -0.444187 0.107027
v -0.161498 -0.506689 0.032124
v -0.148285 -0.506689 0.029625
v 0.106876 -0.473927 0.107027
v -0.161498 -0.531635 0.032124
v -0.148285 -0.531635 0.029625
v 0.083968 -0.444187 0.125827
v -0.152128 -0.506689 0.063014
v -0.139683 -0.506689 0.057983
v 0.083968 -0.473927 0.125827
v -0.152128 -0.531635 0.063014
v -0.139683 -0.531635 0.057983
v 0.057832 -0.444187 0.139797
v -0.136911 -0.506689 0.091481
v -0.125713 -0.506689 0.084119
v 0.057832 -0.473927 0.139797
v -0.136911 -0.531635 0.091481
v -0.125713 -0.531635 0.084119
v 0.029473 -0.444187 0.148399
v -0.116433 -0.506689 0.116434
v -0.106913 -0.506689 0.107027
v 0.029473 -0.473927 0.148399
v -0.116433 -0.531635 0.116434
v -0.106913 -0.531635 0.107027
v -0.000019 -0.444187 0.151304
v -0.091481 -0.506689 0.136912
v -0.084005 -0.506689 0.125827
v -0.000019 -0.473927 0.151304
v -0.091481 -0.531635 0.136912
v -0.084005 -0.531635 0.125827
v -0.032124 -0.444187 0.161498
v -0.029511 -0.444187 0.148399
v -0.063013 -0.506689 0.152128
v -0.057869 -0.506689 0.139797
v -0.032124 -0.473927 0.161498
v -0.029511 -0.473927 0.148399
v -0.063013 -0.531635 0.152128
v -0.057869 -0.531635 0.139797
v -0.063013 -0.444187 0.152128
v -0.057869 -0.444187 0.139797
v -0.032124 -0.506689 0.161498
v -0.029511 -0.506689 0.148399
v -0.063013 -0.473927 0.152128
v -0.057869 -0.473927 0.139797
v -0.029511 -0.531635 0.148399
v -0.091481 -0.444187 0.136912
v -0.084005 -0.444187 0.125827
v -0.000019 -0.506689 0.151304
v -0.091481 -0.473927 0.136912
v -0.084005 -0.473927 0.125827
v -0.000019 -0.531635 0.151304
v -0.116433 -0.444187 0.116434
v -0.106913 -0.444187 0.107027
v 0.029473 -0.506689 0.148399
v -0.116433 -0.473927 0.116434
v -0.106913 -0.473927 0.107027
v 0.029473 -0.531635 0.148399
v -0.136911 -0.444187 0.091481
v -0.125713 -0.444187 0.084119
v 0.057832 -0.506689 0.139797
v -0.136911 -0.473927 0.091481
v -0.125713 -0.473927 0.084119
v 0.057832 -0.531635 0.139797
v -0.152128 -0.444187 0.063014
v -0.139683 -0.444187 0.057983
v 0.083968 -0.506689 0.125827
v -0.152128 -0.473927 0.063014
v -0.139683 -0.473927 0.057983
v 0.083968 -0.531635 0.125827
v -0.161498 -0.444187 0.032124
v -0.148285 -0.444187 0.029625
v 0.106876 -0.506689 0.107027
v -0.161498 -0.473927 0.032124
v -0.148285 -0.473927 0.029625
v 0.106876 -0.531635 0.107027
v -0.164662 -0.444187 0.000000
v -0.151190 -0.444187 0.000133
v -0.116433 -0.473927 -0.116433
v 0.063013 -0.473927 -0.152128
v -0.116433 -0.444187 -0.116433
v 0.063013 -0.444187 -0.152128
v -0.136911 -0.473927 -0.091481
v 0.032124 -0.473927 -0.161498
v -0.136911 -0.444187 -0.091481
v 0.032124 -0.444187 -0.161498
v -0.152128 -0.473927 -0.063013
v -0.152128 -0.444187 -0.063013
v -0.161498 -0.473927 -0.032124
v -0.161498 -0.444187 -0.032124
v -0.164662 -0.473927 0.000000
v -0.116433 -0.531635 -0.116433
v 0.063013 -0.506689 -0.152128
v -0.116433 -0.506689 -0.116433
v 0.091481 -0.531635 -0.136911
v -0.029511 -0.473927 -0.148134
v -0.029511 -0.444187 -0.148134
v -0.000019 -0.444187 -0.151039
v -0.000019 -0.473927 -0.151039
v -0.057869 -0.473927 -0.139532
v -0.057869 -0.444187 -0.139532
v -0.084005 -0.473927 -0.125562
v -0.084005 -0.444187 -0.125562
v -0.106913 -0.473927 -0.106762
v -0.106913 -0.444187 -0.106762
v -0.125713 -0.473927 -0.083854
v -0.125713 -0.444187 -0.083854
v -0.139683 -0.473927 -0.057718
v -0.139683 -0.444187 -0.057718
v -0.148285 -0.473927 -0.029360
v -0.148285 -0.444187 -0.029360
v -0.151190 -0.473927 0.000133
v 0.148248 -0.473927 -0.029360
v 0.148248 -0.444187 -0.029360
v 0.139646 -0.473927 -0.057718
v 0.139646 -0.444187 -0.057718
v 0.125676 -0.473927 -0.083854
v 0.125676 -0.444187 -0.083854
v 0.106876 -0.473927 -0.106762
v 0.106876 -0.444187 -0.106762
v 0.083968 -0.473927 -0.125562
v 0.083968 -0.444187 -0.125562
v 0.057832 -0.473927 -0.139532
v 0.057832 -0.444187 -0.139532
v 0.029473 -0.473927 -0.148134
v 0.029473 -0.444187 -0.148134
v 0.057832 -0.506689 -0.139532
v 0.083968 -0.506689 -0.125562
v 0.083968 -0.531635 -0.125562
v 0.106876 -0.506689 -0.106762
v 0.106876 -0.531635 -0.106762
v 0.125676 -0.506689 -0.083854
v 0.125676 -0.531635 -0.083854
v 0.139646 -0.506689 -0.057718
v 0.139646 -0.531635 -0.057718
v 0.148248 -0.506689 -0.029360
v 0.148248 -0.531635 -0.029360
v 0.151153 -0.506689 0.000133
v 0.151153 -0.531635 0.000133
v 0.148248 -0.506689 0.029625
v 0.148248 -0.531635 0.029625
v 0.139646 -0.506689 0.057983
v 0.139646 -0.531635 0.057983
v 0.125676 -0.506689 0.084119
v 0.125676 -0.531635 0.084119
v -0.106913 -0.506689 -0.106762
v -0.106913 -0.531635 -0.106762
v -0.084005 -0.506689 -0.125562
v -0.084005 -0.531635 -0.125562
v -0.057869 -0.506689 -0.139532
v -0.057869 -0.531635 -0.139532
v -0.029511 -0.506689 -0.148134
v -0.029511 -0.531635 -0.148134
vt 0.936850 0.290492
vt 0.936850 0.289333
vt 0.937067 0.289333
vt 0.937067 0.290492
vt 0.937285 0.289333
vt 0.937285 0.290492
vt 0.937502 0.289333
vt 0.937502 0.290492
vt 0.937719 0.289333
vt 0.937719 0.290492
vt 0.937937 0.289333
vt 0.937937 0.290492
vt 0.938154 0.289333
vt 0.938154 0.290492
vt 0.938371 0.289333
vt 0.938371 0.290492
vt 0.938588 0.289333
vt 0.938588 0.290492
vt 0.938806 0.289333
vt 0.938806 0.290492
vt 0.939023 0.289333
vt 0.939023 0.290492
vt 0.939240 0.289333
vt 0.939240 0.290492
vt 0.939458 0.289333
vt 0.939458 0.290492
vt 0.939675 0.289333
vt 0.939675 0.290492
vt 0.939892 0.289333
vt 0.939892 0.290492
vt 0.940109 0.289333
vt 0.940109 0.290492
vt 0.940327 0.289333
vt 0.940327 0.290492
vt 0.940544 0.289333
vt 0.940544 0.290492
vt 0.940761 0.289333
vt 0.940761 0.290492
vt 0.940978 0.289333
vt 0.940978 0.290492
vt 0.941196 0.289333
vt 0.941196 0.290492
vt 0.941413 0.289333
vt 0.941413 0.290492
vt 0.941630 0.289333
vt 0.941630 0.290492
vt 0.941848 0.289333
vt 0.941848 0.290492
vt 0.942065 0.289333
vt 0.942065 0.290492
vt 0.942282 0.289333
vt 0.942282 0.290492
vt 0.942499 0.289333
vt 0.942499 0.290492
vt 0.942717 0.289333
vt 0.942717 0.290492
vt 0.942934 0.289333
vt 0.942934 0.290492
vt 0.943151 0.289333
vt 0.943151 0.290492
vt 0.943369 0.289333
vt 0.943369 0.290492
vt 0.941739 0.292911
vt 0.942065 0.292879
vt 0.942391 0.292911
vt 0.942704 0.293006
vt 0.942992 0.293160
vt 0.943245 0.293368
vt 0.943452 0.293621
vt 0.943607 0.293909
vt 0.943702 0.294222
vt 0.943734 0.294548
vt 0.943702 0.294873
vt 0.943607 0.295186
vt 0.943452 0.295475
vt 0.943245 0.295728
vt 0.942992 0.295935
vt 0.942704 0.296089
vt 0.942391 0.296184
vt 0.942065 0.296217
vt 0.941739 0.296184
vt 0.941426 0.296089
vt 0.941138 0.295935
vt 0.940885 0.295728
vt 0.940677 0.295475
vt 0.940523 0.295186
vt 0.940428 0.294873
vt 0.940396 0.294548
vt 0.940428 0.294222
vt 0.940523 0.293909
vt 0.940677 0.293621
vt 0.940885 0.293368
vt 0.941138 0.293160
vt 0.941426 0.293006
vt 0.943586 0.289333
vt 0.943586 0.290492
vt 0.943803 0.289333
vt 0.943803 0.290492
vt 0.938588 0.292879
vt 0.938263 0.292911
vt 0.937950 0.293006
vt 0.937661 0.293160
vt 0.937408 0.293368
vt 0.937201 0.293621
vt 0.937047 0.293909
vt 0.936952 0.294222
vt 0.936920 0.294548
vt 0.936952 0.294873
vt 0.937047 0.295186
vt 0.937201 0.295475
vt 0.937408 0.295728
vt 0.937661 0.295935
vt 0.937950 0.296089
vt 0.938263 0.296184
vt 0.938588 0.296217
vt 0.938914 0.296184
vt 0.939227 0.296089
vt 0.939516 0.295935
vt 0.939768 0.295728
vt 0.939976 0.295475
vt 0.940130 0.295186
vt 0.940225 0.294873
vt 0.940257 0.294548
vt 0.940225 0.294222
vt 0.940130 0.293909
vt 0.939976 0.293621
vt 0.939768 0.293368
vt 0.939516 0.293160
vt 0.939227 0.293006
vt 0.938914 0.292911
vt 0.943586 0.292037
vt 0.943586 0.291651
vt 0.943803 0.291651
vt 0.943803 0.292037
vt 0.940544 0.292423
vt 0.940327 0.292423
vt 0.940327 0.292423
vt 0.940544 0.292423
vt 0.943369 0.292037
vt 0.943369 0.291651
vt 0.937719 0.290492
vt 0.937502 0.290492
vt 0.943151 0.292037
vt 0.943151 0.291651
vt 0.943369 0.290492
vt 0.943151 0.290492
vt 0.942934 0.292037
vt 0.942934 0.291651
vt 0.940109 0.292037
vt 0.940327 0.292037
vt 0.940327 0.292037
vt 0.940109 0.292037
vt 0.942717 0.292037
vt 0.942717 0.291651
vt 0.937719 0.291651
vt 0.937502 0.291651
vt 0.937502 0.291651
vt 0.937719 0.291651
vt 0.942499 0.292037
vt 0.942499 0.291651
vt 0.943151 0.291651
vt 0.943369 0.291651
vt 0.942282 0.292037
vt 0.942282 0.291651
vt 0.940109 0.292423
vt 0.940109 0.292423
vt 0.942065 0.292037
vt 0.942065 0.291651
vt 0.937937 0.290492
vt 0.941848 0.292037
vt 0.941848 0.291651
vt 0.943586 0.290492
vt 0.941630 0.292037
vt 0.941630 0.291651
vt 0.939892 0.292037
vt 0.939892 0.292037
vt 0.941413 0.292037
vt 0.941413 0.291651
vt 0.937937 0.291651
vt 0.937937 0.291651
vt 0.941196 0.292037
vt 0.941196 0.291651
vt 0.943586 0.291651
vt 0.940978 0.292037
vt 0.940978 0.291651
vt 0.939892 0.292423
vt 0.939892 0.292423
vt 0.940761 0.292037
vt 0.940761 0.291651
vt 0.938154 0.290492
vt 0.940544 0.292037
vt 0.940544 0.291651
vt 0.943803 0.290492
vt 0.940327 0.291651
vt 0.939675 0.292037
vt 0.939675 0.292037
vt 0.940109 0.291651
vt 0.938154 0.291651
vt 0.938154 0.291651
vt 0.939892 0.291651
vt 0.943803 0.291651
vt 0.939675 0.291651
vt 0.939675 0.292423
vt 0.939675 0.292423
vt 0.939458 0.292037
vt 0.939458 0.291651
vt 0.938371 0.290492
vt 0.939240 0.292037
vt 0.939240 0.291651
vt 0.939458 0.292037
vt 0.939023 0.292037
vt 0.939023 0.291651
vt 0.938371 0.291651
vt 0.938371 0.291651
vt 0.938806 0.292037
vt 0.938806 0.291651
vt 0.939458 0.292423
vt 0.939458 0.292423
vt 0.938588 0.292037
vt 0.938588 0.291651
vt 0.938588 0.290492
vt 0.938371 0.292037
vt 0.939240 0.292037
vt 0.938154 0.292037
vt 0.938588 0.291651
vt 0.937937 0.292037
vt 0.939240 0.292423
vt 0.939240 0.292423
vt 0.937719 0.292037
vt 0.938806 0.290492
vt 0.937502 0.292037
vt 0.939023 0.292037
vt 0.937285 0.292037
vt 0.937285 0.291651
vt 0.938806 0.291651
vt 0.937067 0.292037
vt 0.937067 0.291651
vt 0.939023 0.292423
vt 0.939023 0.292423
vt 0.936850 0.292037
vt 0.936850 0.291651
vt 0.939023 0.290492
vt 0.936850 0.292809
vt 0.936850 0.292423
vt 0.937067 0.292423
vt 0.937067 0.292809
vt 0.938806 0.292037
vt 0.937285 0.292423
vt 0.937285 0.292809
vt 0.939023 0.291651
vt 0.937502 0.292423
vt 0.937502 0.292809
vt 0.938806 0.292423
vt 0.938806 0.292423
vt 0.937719 0.292423
vt 0.937719 0.292809
vt 0.939240 0.290492
vt 0.937937 0.292423
vt 0.937937 0.292809
vt 0.938588 0.292037
vt 0.938154 0.292423
vt 0.938154 0.292809
vt 0.939240 0.291651
vt 0.938371 0.292423
vt 0.938371 0.292809
vt 0.938588 0.292423
vt 0.938588 0.292423
vt 0.938588 0.292809
vt 0.939458 0.290492
vt 0.938806 0.292809
vt 0.938371 0.292037
vt 0.939023 0.292809
vt 0.939458 0.291651
vt 0.939240 0.292809
vt 0.938371 0.292423
vt 0.939458 0.292809
vt 0.939675 0.290492
vt 0.939675 0.292809
vt 0.938154 0.292037
vt 0.939892 0.292809
vt 0.939675 0.291651
vt 0.940109 0.292809
vt 0.938154 0.292423
vt 0.940327 0.292809
vt 0.939892 0.290492
vt 0.940544 0.292809
vt 0.943803 0.292037
vt 0.943586 0.292037
vt 0.940761 0.292423
vt 0.940761 0.292809
vt 0.937937 0.292037
vt 0.940978 0.292423
vt 0.940978 0.292809
vt 0.939892 0.291651
vt 0.941196 0.292423
vt 0.941196 0.292809
vt 0.943803 0.292423
vt 0.943586 0.292423
vt 0.943586 0.292423
vt 0.943803 0.292423
vt 0.941413 0.292423
vt 0.941413 0.292809
vt 0.937937 0.292423
vt 0.941630 0.292423
vt 0.941630 0.292809
vt 0.940109 0.290492
vt 0.941848 0.292423
vt 0.941848 0.292809
vt 0.943369 0.292037
vt 0.942065 0.292423
vt 0.942065 0.292809
vt 0.937719 0.292037
vt 0.942282 0.292423
vt 0.942282 0.292809
vt 0.940109 0.291651
vt 0.942499 0.292423
vt 0.942499 0.292809
vt 0.943369 0.292423
vt 0.943369 0.292423
vt 0.942717 0.292423
vt 0.942717 0.292809
vt 0.937719 0.292423
vt 0.942934 0.292423
vt 0.942934 0.292809
vt 0.940327 0.290492
vt 0.943151 0.292423
vt 0.943151 0.292809
vt 0.943151 0.292037
vt 0.943369 0.292809
vt 0.937502 0.292037
vt 0.943586 0.292809
vt 0.940327 0.291651
vt 0.943803 0.292809
vt 0.943151 0.292423
vt 0.938806 0.290492
vt 0.938588 0.290492
vt 0.937285 0.292423
vt 0.937067 0.292423
vt 0.937067 0.292423
vt 0.937285 0.292423
vt 0.942499 0.292037
vt 0.942717 0.292037
vt 0.942717 0.292037
vt 0.942499 0.292037
vt 0.938588 0.291651
vt 0.938806 0.291651
vt 0.936850 0.292037
vt 0.937067 0.292037
vt 0.937067 0.292037
vt 0.936850 0.292037
vt 0.942717 0.292423
vt 0.942499 0.292423
vt 0.942499 0.292423
vt 0.942717 0.292423
vt 0.939023 0.290492
vt 0.936850 0.292423
vt 0.936850 0.292423
vt 0.942282 0.292037
vt 0.942282 0.292037
vt 0.939023 0.291651
vt 0.942282 0.292423
vt 0.942282 0.292423
vt 0.939240 0.290492
vt 0.942065 0.292037
vt 0.942065 0.292037
vt 0.939240 0.291651
vt 0.942065 0.292423
vt 0.942065 0.292423
vt 0.939458 0.290492
vt 0.941848 0.292037
vt 0.941848 0.292037
vt 0.939458 0.291651
vt 0.941848 0.292423
vt 0.941848 0.292423
vt 0.939675 0.290492
vt 0.941630 0.292037
vt 0.941630 0.292037
vt 0.939675 0.291651
vt 0.941630 0.292423
vt 0.941630 0.292423
vt 0.939892 0.290492
vt 0.941413 0.292037
vt 0.941413 0.292037
vt 0.939892 0.291651
vt 0.941413 0.292423
vt 0.941413 0.292423
vt 0.940109 0.290492
vt 0.941196 0.292037
vt 0.941196 0.292037
vt 0.940109 0.291651
vt 0.941196 0.292423
vt 0.941196 0.292423
vt 0.940327 0.290492
vt 0.940978 0.292037
vt 0.940978 0.292037
vt 0.940327 0.291651
vt 0.940978 0.292423
vt 0.940978 0.292423
vt 0.940544 0.290492
vt 0.940544 0.290492
vt 0.940761 0.292037
vt 0.940761 0.292037
vt 0.940544 0.291651
vt 0.940544 0.291651
vt 0.940761 0.292423
vt 0.940761 0.292423
vt 0.940761 0.290492
vt 0.940761 0.290492
vt 0.940544 0.292037
vt 0.940544 0.292037
vt 0.940761 0.291651
vt 0.940761 0.291651
vt 0.940544 0.292423
vt 0.940978 0.290492
vt 0.940978 0.290492
vt 0.940327 0.292037
vt 0.940978 0.291651
vt 0.940978 0.291651
vt 0.940327 0.292423
vt 0.941196 0.290492
vt 0.941196 0.290492
vt 0.940109 0.292037
vt 0.941196 0.291651
vt 0.941196 0.291651
vt 0.940109 0.292423
vt 0.941413 0.290492
vt 0.941413 0.290492
vt 0.939892 0.292037
vt 0.941413 0.291651
vt 0.941413 0.291651
vt 0.939892 0.292423
vt 0.941630 0.290492
vt 0.941630 0.290492
vt 0.939675 0.292037
vt 0.941630 0.291651
vt 0.941630 0.291651
vt 0.939675 0.292423
vt 0.941848 0.290492
vt 0.941848 0.290492
vt 0.939458 0.292037
vt 0.941848 0.291651
vt 0.941848 0.291651
vt 0.939458 0.292423
vt 0.942065 0.290492
vt 0.942065 0.290492
vt 0.942934 0.291651
vt 0.937285 0.291651
vt 0.942934 0.290492
vt 0.937285 0.290492
vt 0.942717 0.291651
vt 0.937067 0.291651
vt 0.942717 0.290492
vt 0.937067 0.290492
vt 0.942499 0.291651
vt 0.936850 0.291651
vt 0.942499 0.290492
vt 0.936850 0.290492
vt 0.942282 0.291651
vt 0.942282 0.290492
vt 0.942065 0.291651
vt 0.942934 0.292423
vt 0.937285 0.292037
vt 0.942934 0.292037
vt 0.937502 0.292423
vt 0.943586 0.672145
vt 0.943586 0.670986
vt 0.943803 0.670986
vt 0.943803 0.672145
vt 0.943369 0.672145
vt 0.943369 0.670986
vt 0.943151 0.672145
vt 0.943151 0.670986
vt 0.942934 0.672145
vt 0.942934 0.670986
vt 0.942717 0.672145
vt 0.942717 0.670986
vt 0.942499 0.672145
vt 0.942499 0.670986
vt 0.942282 0.672145
vt 0.942282 0.670986
vt 0.942065 0.672145
vt 0.942065 0.670986
vt 0.941848 0.672145
vt 0.941848 0.670986
vt 0.941630 0.672145
vt 0.941630 0.670986
vt 0.941413 0.672145
vt 0.941413 0.670986
vt 0.941196 0.672145
vt 0.941196 0.670986
vt 0.940978 0.672145
vt 0.940978 0.670986
vt 0.940761 0.672145
vt 0.940761 0.670986
vt 0.940544 0.672145
vt 0.940544 0.670986
vt 0.940327 0.672145
vt 0.940327 0.670986
vt 0.940109 0.672145
vt 0.940109 0.670986
vt 0.939892 0.672145
vt 0.939892 0.670986
vt 0.939675 0.672145
vt 0.939675 0.670986
vt 0.939458 0.672145
vt 0.939458 0.670986
vt 0.939240 0.672145
vt 0.939240 0.670986
vt 0.939023 0.672145
vt 0.939023 0.670986
vt 0.938806 0.672145
vt 0.938806 0.670986
vt 0.938588 0.672145
vt 0.938588 0.670986
vt 0.938371 0.672145
vt 0.938371 0.670986
vt 0.938154 0.672145
vt 0.938154 0.670986
vt 0.937937 0.672145
vt 0.937937 0.670986
vt 0.937719 0.672145
vt 0.937719 0.670986
vt 0.937502 0.672145
vt 0.937502 0.670986
vt 0.937285 0.672145
vt 0.937285 0.670986
vt 0.937067 0.672145
vt 0.937067 0.670986
vt 0.936850 0.672145
vt 0.936850 0.670986
vt 0.936850 0.672918
vt 0.936850 0.672531
vt 0.937067 0.672531
vt 0.937067 0.672918
vt 0.937285 0.672531
vt 0.937285 0.672918
vt 0.937502 0.672531
vt 0.937502 0.672918
vt 0.937719 0.672531
vt 0.937719 0.672918
vt 0.937937 0.672531
vt 0.937937 0.672918
vt 0.938154 0.672531
vt 0.938154 0.672918
vt 0.938371 0.672531
vt 0.938371 0.672918
vt 0.938588 0.672531
vt 0.938588 0.672918
vt 0.938806 0.672531
vt 0.938806 0.672918
vt 0.939023 0.672531
vt 0.939023 0.672918
vt 0.939240 0.672531
vt 0.939240 0.672918
vt 0.939458 0.672531
vt 0.939458 0.672918
vt 0.939675 0.672531
vt 0.939675 0.672918
vt 0.939892 0.672531
vt 0.939892 0.672918
vt 0.940109 0.672531
vt 0.940109 0.672918
vt 0.940327 0.672531
vt 0.940327 0.672918
vt 0.940544 0.672531
vt 0.940544 0.672918
vt 0.940761 0.672531
vt 0.940761 0.672918
vt 0.940978 0.672531
vt 0.940978 0.672918
vt 0.941196 0.672531
vt 0.941196 0.672918
vt 0.941413 0.672531
vt 0.941413 0.672918
vt 0.941630 0.672531
vt 0.941630 0.672918
vt 0.941848 0.672531
vt 0.941848 0.672918
vt 0.942065 0.672531
vt 0.942065 0.672918
vt 0.942282 0.672531
vt 0.942282 0.672918
vt 0.942499 0.672531
vt 0.942499 0.672918
vt 0.942717 0.672531
vt 0.942717 0.672918
vt 0.942934 0.672531
vt 0.942934 0.672918
vt 0.943151 0.672531
vt 0.943151 0.672918
vt 0.943369 0.672531
vt 0.943369 0.672918
vt 0.943586 0.672531
vt 0.943586 0.672918
vt 0.943803 0.672531
vt 0.943803 0.672918
vt 0.942934 0.292423
vt 0.937285 0.292037
vt 0.938371 0.291651
vt 0.942934 0.292037
vt 0.937502 0.292423
vt 0.938371 0.290492
vt 0.943151 0.292423
vt 0.937502 0.292037
vt 0.938154 0.291651
vt 0.943151 0.292037
vt 0.937719 0.292423
vt 0.938154 0.290492
vt 0.943369 0.292423
vt 0.943586 0.291651
vt 0.943803 0.291651
vt 0.937719 0.292037
vt 0.937937 0.291651
vt 0.943369 0.292037
vt 0.943803 0.290492
vt 0.943586 0.290492
vt 0.937937 0.292423
vt 0.937937 0.290492
vt 0.943586 0.292423
vt 0.943369 0.291651
vt 0.937937 0.292037
vt 0.937719 0.291651
vt 0.943586 0.292037
vt 0.943369 0.290492
vt 0.938154 0.292423
vt 0.937719 0.290492
vt 0.943803 0.292423
vt 0.943151 0.291651
vt 0.938154 0.292037
vt 0.937502 0.291651
vt 0.943803 0.292037
vt 0.943151 0.290492
vt 0.938371 0.292423
vt 0.937502 0.290492
vt 0.942934 0.291651
vt 0.938371 0.292037
vt 0.937285 0.291651
vt 0.942934 0.290492
vt 0.938588 0.292423
vt 0.937285 0.290492
vt 0.942717 0.291651
vt 0.938588 0.292037
vt 0.937067 0.291651
vt 0.942717 0.290492
vt 0.938806 0.292423
vt 0.937067 0.290492
vt 0.942499 0.291651
vt 0.938806 0.292037
vt 0.936850 0.291651
vt 0.942499 0.290492
vt 0.939023 0.292423
vt 0.936850 0.290492
vt 0.942282 0.291651
vt 0.939023 0.292037
vt 0.942282 0.290492
vt 0.939240 0.292423
vt 0.942065 0.291651
vt 0.939240 0.292037
vn 0.0980 0.0000 -0.9952
vn 0.2903 0.0000 -0.9569
vn 0.4714 0.0000 -0.8819
vn 0.6344 0.0000 -0.7730
vn 0.7730 0.0000 -0.6344
vn 0.8819 0.0000 -0.4714
vn 0.9569 -0.0000 -0.2903
vn 0.9952 0.0000 -0.0980
vn 0.9952 -0.0000 0.0980
vn 0.9569 -0.0000 0.2903
vn 0.8819 -0.0000 0.4714
vn 0.7730 -0.0000 0.6344
vn 0.6344 -0.0000 0.7730
vn 0.4714 -0.0000 0.8819
vn 0.2903 -0.0000 0.9569
vn 0.0980 -0.0000 0.9952
vn -0.0980 -0.0000 0.9952
vn -0.2903 -0.0000 0.9569
vn -0.4714 -0.0000 0.8819
vn -0.6344 -0.0000 0.7730
vn -0.7730 -0.0000 0.6344
vn -0.8819 -0.0000 0.4714
vn -0.9569 -0.0000 0.2903
vn -0.9952 -0.0000 0.0980
vn -0.9952 0.0000 -0.0980
vn -0.9569 0.0000 -0.2903
vn -0.8819 0.0000 -0.4714
vn -0.7730 0.0000 -0.6344
vn -0.6344 0.0000 -0.7730
vn -0.4714 0.0000 -0.8819
vn 0.0000 1.0000 -0.0000
vn -0.2903 0.0000 -0.9569
vn -0.0980 0.0000 -0.9952
vn 0.0000 -1.0000 -0.0000
vn 0.0000 0.0000 1.0000
usemtl Material.001
s 1
f 73/139/39 74/140/39 75/141/39 76/142/39
f 76/142/40 75/141/40 77/143/40 78/144/40
f 78/144/41 77/143/41 79/145/41 80/146/41
f 80/146/42 79/145/42 81/147/42 82/148/42
f 82/148/43 81/147/43 83/149/43 84/150/43
f 84/150/44 83/149/44 85/151/44 86/152/44
f 86/152/45 85/151/45 87/153/45 88/154/45
f 88/154/46 87/153/46 89/155/46 90/156/46
f 90/156/47 89/155/47 91/157/47 92/158/47
f 92/158/48 91/157/48 93/159/48 94/160/48
f 94/160/49 93/159/49 95/161/49 96/162/49
f 96/162/50 95/161/50 97/163/50 98/164/50
f 98/164/51 97/163/51 99/165/51 100/166/51
f 100/166/52 99/165/52 101/167/52 102/168/52
f 102/168/53 101/167/53 103/169/53 104/170/53
f 104/170/54 103/169/54 105/171/54 106/172/54
f 106/172/55 105/171/55 107/173/55 108/174/55
f 108/174/56 107/173/56 109/175/56 110/176/56
f 110/176/57 109/175/57 111/177/57 112/178/57
f 112/178/58 111/177/58 113/179/58 114/180/58
f 114/180/59 113/179/59 115/181/59 116/182/59
f 116/182/60 115/181/60 117/183/60 118/184/60
f 118/184/61 117/183/61 119/185/61 120/186/61
f 120/186/62 119/185/62 121/187/62 122/188/62
f 122/188/63 121/187/63 123/189/63 124/190/63
f 124/190/64 123/189/64 125/191/64 126/192/64
f 126/192/65 125/191/65 127/193/65 128/194/65
f 128/194/66 127/193/66 129/195/66 130/196/66
f 130/196/67 129/195/67 131/197/67 132/198/67
f 132/198/68 131/197/68 133/199/68 134/200/68
f 75/201/69 74/202/69 135/203/69 133/204/69 131/205/69 129/206/69 127/207/69 125/208/69 123/209/69 121/210/69 119/211/69 117/212/69 115/213/69 113/214/69 111/215/69 109/216/69 107/217/69 105/218/69 103/219/69 101/220/69 99/221/69 97/222/69 95/223/69 93/224/69 91/225/69 89/226/69 87/227/69 85/228/69 83/229/69 81/230/69 79/231/69 77/232/69
f 134/200/70 133/199/70 135/233/70 136/234/70
f 136/234/71 135/233/71 74/235/71 73/236/71
f 137/237/72 138/238/72 139/239/72 140/240/72 141/241/72 142/242/72 143/243/72 144/244/72 145/245/72 146/246/72 147/247/72 148/248/72 149/249/72 150/250/72 151/251/72 152/252/72 153/253/72 154/254/72 155/255/72 156/256/72 157/257/72 158/258/72 159/259/72 160/260/72 161/261/72 162/262/72 163/263/72 164/264/72 165/265/72 166/266/72 167/267/72 168/268/72
f 169/269/71 170/270/71 171/271/71 172/272/71
f 173/273/73 174/274/73 175/275/73 176/276/73
f 177/277/70 178/278/70 170/270/70 169/269/70
f 80/146/73 82/148/73 179/279/73 180/280/73
f 181/281/68 182/282/68 178/278/68 177/277/68
f 132/198/73 134/200/73 183/283/73 184/284/73
f 185/285/67 186/286/67 182/282/67 181/281/67
f 187/287/73 188/288/73 189/289/73 190/290/73
f 191/291/66 192/292/66 186/286/66 185/285/66
f 193/293/73 194/294/73 195/295/73 196/296/73
f 197/297/65 198/298/65 192/292/65 191/291/65
f 178/278/73 182/282/73 199/299/73 200/300/73
f 201/301/64 202/302/64 198/298/64 197/297/64
f 174/274/73 203/303/73 204/304/73 175/275/73
f 205/305/63 206/306/63 202/302/63 201/301/63
f 82/148/73 84/150/73 207/307/73 179/279/73
f 208/308/62 209/309/62 206/306/62 205/305/62
f 134/200/73 136/234/73 210/310/73 183/283/73
f 211/311/61 212/312/61 209/309/61 208/308/61
f 213/313/73 187/287/73 190/290/73 214/314/73
f 215/315/60 216/316/60 212/312/60 211/311/60
f 217/317/73 193/293/73 196/296/73 218/318/73
f 219/319/59 220/320/59 216/316/59 215/315/59
f 170/270/73 178/278/73 200/300/73 221/321/73
f 222/322/58 223/323/58 220/320/58 219/319/58
f 203/303/73 224/324/73 225/325/73 204/304/73
f 226/326/57 227/327/57 223/323/57 222/322/57
f 84/150/73 86/152/73 228/328/73 207/307/73
f 229/329/56 230/330/56 227/327/56 226/326/56
f 136/234/73 73/236/73 231/331/73 210/310/73
f 188/288/55 232/332/55 230/330/55 229/329/55
f 233/333/73 213/313/73 214/314/73 234/334/73
f 187/287/54 235/335/54 232/332/54 188/288/54
f 236/336/73 217/317/73 218/318/73 237/337/73
f 213/313/53 238/338/53 235/335/53 187/287/53
f 171/271/73 170/270/73 221/321/73 239/339/73
f 233/333/52 240/340/52 238/338/52 213/313/52
f 224/324/73 241/341/73 242/342/73 225/325/73
f 243/343/51 244/344/51 240/340/51 233/333/51
f 86/152/73 88/154/73 245/345/73 228/328/73
f 246/346/50 247/347/50 244/344/50 243/343/50
f 243/343/73 233/333/73 234/334/73 248/348/73
f 249/349/49 250/350/49 247/347/49 246/346/49
f 251/351/73 236/336/73 237/337/73 252/352/73
f 253/353/48 254/354/48 250/350/48 249/349/48
f 241/341/73 255/355/73 256/356/73 242/342/73
f 257/357/47 258/358/47 254/354/47 253/353/47
f 88/154/73 90/156/73 259/359/73 245/345/73
f 260/360/46 251/351/46 258/358/46 257/357/46
f 246/346/73 243/343/73 248/348/73 261/361/73
f 262/362/45 236/336/45 251/351/45 260/360/45
f 258/358/73 251/351/73 252/352/73 263/363/73
f 264/364/44 217/317/44 236/336/44 262/362/44
f 255/355/73 265/365/73 266/366/73 256/356/73
f 267/367/43 193/293/43 217/317/43 264/364/43
f 90/156/73 92/158/73 268/368/73 259/359/73
f 269/369/42 194/294/42 193/293/42 267/367/42
f 249/349/73 246/346/73 261/361/73 270/370/73
f 271/371/41 272/372/41 194/294/41 269/369/41
f 254/354/73 258/358/73 263/363/73 273/373/73
f 274/374/40 275/375/40 272/372/40 271/371/40
f 265/365/73 276/376/73 277/377/73 266/366/73
f 172/378/39 171/379/39 275/375/39 274/374/39
f 92/158/73 94/160/73 278/380/73 268/368/73
f 137/381/39 279/382/39 280/383/39 138/384/39
f 253/353/73 249/349/73 270/370/73 281/385/73
f 138/384/40 280/383/40 282/386/40 139/387/40
f 250/350/73 254/354/73 273/373/73 283/388/73
f 139/387/41 282/386/41 284/389/41 140/390/41
f 276/376/73 285/391/73 286/392/73 277/377/73
f 140/390/42 284/389/42 287/393/42 141/394/42
f 94/160/73 96/162/73 288/395/73 278/380/73
f 141/394/43 287/393/43 289/396/43 142/397/43
f 257/357/73 253/353/73 281/385/73 290/398/73
f 142/397/44 289/396/44 291/399/44 143/400/44
f 247/347/73 250/350/73 283/388/73 292/401/73
f 143/400/45 291/399/45 293/402/45 144/403/45
f 285/391/73 294/404/73 295/405/73 286/392/73
f 144/403/46 293/402/46 294/404/46 145/406/46
f 96/162/73 98/164/73 296/407/73 288/395/73
f 145/406/47 294/404/47 285/391/47 146/408/47
f 260/360/73 257/357/73 290/398/73 297/409/73
f 146/408/48 285/391/48 276/376/48 147/410/48
f 244/344/73 247/347/73 292/401/73 298/411/73
f 147/410/49 276/376/49 265/365/49 148/412/49
f 294/404/73 293/402/73 299/413/73 295/405/73
f 148/412/50 265/365/50 255/355/50 149/414/50
f 98/164/73 100/166/73 300/415/73 296/407/73
f 149/414/51 255/355/51 241/341/51 150/416/51
f 262/362/73 260/360/73 297/409/73 301/417/73
f 150/416/52 241/341/52 224/324/52 151/418/52
f 240/340/73 244/344/73 298/411/73 302/419/73
f 151/418/53 224/324/53 203/303/53 152/420/53
f 293/402/73 291/399/73 303/421/73 299/413/73
f 152/420/54 203/303/54 174/274/54 153/422/54
f 100/166/73 102/168/73 304/423/73 300/415/73
f 153/422/55 174/274/55 173/273/55 154/424/55
f 169/269/73 172/272/73 305/425/73 306/426/73
f 154/424/56 173/273/56 307/427/56 155/428/56
f 264/364/73 262/362/73 301/417/73 308/429/73
f 155/428/57 307/427/57 309/430/57 156/431/57
f 238/338/73 240/340/73 302/419/73 310/432/73
f 156/431/58 309/430/58 311/433/58 157/434/58
f 279/435/73 312/436/73 313/437/73 314/438/73
f 157/434/59 311/433/59 315/439/59 158/440/59
f 291/399/73 289/396/73 316/441/73 303/421/73
f 158/440/60 315/439/60 317/442/60 159/443/60
f 102/168/73 104/170/73 318/444/73 304/423/73
f 159/443/61 317/442/61 319/445/61 160/446/61
f 177/277/73 169/269/73 306/426/73 320/447/73
f 160/446/62 319/445/62 321/448/62 161/449/62
f 267/367/73 264/364/73 308/429/73 322/450/73
f 161/449/63 321/448/63 323/451/63 162/452/63
f 235/335/73 238/338/73 310/432/73 324/453/73
f 162/452/64 323/451/64 325/454/64 163/455/64
f 312/436/73 326/456/73 327/457/73 313/437/73
f 163/455/65 325/454/65 328/458/65 164/459/65
f 289/396/73 287/393/73 329/460/73 316/441/73
f 164/459/66 328/458/66 330/461/66 165/462/66
f 104/170/73 106/172/73 331/463/73 318/444/73
f 165/462/67 330/461/67 332/464/67 166/465/67
f 181/281/73 177/277/73 320/447/73 333/466/73
f 166/465/68 332/464/68 326/456/68 167/467/68
f 269/369/73 267/367/73 322/450/73 334/468/73
f 167/467/70 326/456/70 312/436/70 168/469/70
f 232/332/73 235/335/73 324/453/73 335/470/73
f 168/469/71 312/436/71 279/435/71 137/471/71
f 326/456/73 332/464/73 336/472/73 327/457/73
f 259/359/72 268/368/72 337/473/72 338/474/72
f 339/475/69 340/476/69 341/477/69 342/478/69
f 343/479/72 344/480/72 345/481/72 346/482/72
f 273/373/69 263/363/69 347/483/69 348/484/69
f 305/485/72 349/486/72 350/487/72 351/488/72
f 352/489/69 353/490/69 354/491/69 355/492/69
f 268/368/72 278/380/72 356/493/72 337/473/72
f 340/476/69 314/494/69 357/495/69 341/477/69
f 358/496/72 343/479/72 346/482/72 359/497/72
f 283/388/69 273/373/69 348/484/69 360/498/69
f 353/490/69 361/499/69 362/500/69 354/491/69
f 278/380/72 288/395/72 363/501/72 356/493/72
f 364/502/72 358/496/72 359/497/72 365/503/72
f 292/401/69 283/388/69 360/498/69 366/504/69
f 361/499/69 367/505/69 368/506/69 362/500/69
f 288/395/72 296/407/72 369/507/72 363/501/72
f 370/508/72 364/502/72 365/503/72 371/509/72
f 298/411/69 292/401/69 366/504/69 372/510/69
f 367/505/69 373/511/69 374/512/69 368/506/69
f 296/407/72 300/415/72 375/513/72 369/507/72
f 376/514/72 370/508/72 371/509/72 377/515/72
f 302/419/69 298/411/69 372/510/69 378/516/69
f 373/511/69 379/517/69 380/518/69 374/512/69
f 300/415/72 304/423/72 381/519/72 375/513/72
f 382/520/72 376/514/72 377/515/72 383/521/72
f 310/432/69 302/419/69 378/516/69 384/522/69
f 379/517/69 385/523/69 386/524/69 380/518/69
f 304/423/72 318/444/72 387/525/72 381/519/72
f 388/526/72 382/520/72 383/521/72 389/527/72
f 324/453/69 310/432/69 384/522/69 390/528/69
f 385/523/69 391/529/69 392/530/69 386/524/69
f 318/444/72 331/463/72 393/531/72 387/525/72
f 394/532/72 388/526/72 389/527/72 395/533/72
f 335/470/69 324/453/69 390/528/69 396/534/69
f 391/529/69 397/535/69 398/536/69 392/530/69
f 331/463/72 399/537/72 400/538/72 393/531/72
f 401/539/72 394/532/72 395/533/72 402/540/72
f 403/541/69 335/470/69 396/534/69 404/542/69
f 397/535/69 405/543/69 406/544/69 398/536/69
f 399/537/72 407/545/72 408/546/72 400/538/72
f 409/547/72 401/539/72 402/540/72 410/548/72
f 411/549/69 403/541/69 404/542/69 412/550/69
f 405/543/69 176/276/69 413/551/69 406/544/69
f 407/545/72 414/552/72 415/553/72 408/546/72
f 189/289/72 409/547/72 410/548/72 416/554/72
f 417/555/69 411/549/69 412/550/69 418/556/69
f 176/276/69 175/275/69 419/557/69 413/551/69
f 414/552/72 420/558/72 421/559/72 415/553/72
f 190/290/72 189/289/72 416/554/72 422/560/72
f 423/561/69 417/555/69 418/556/69 424/562/69
f 175/275/69 204/304/69 425/563/69 419/557/69
f 420/558/72 426/564/72 427/565/72 421/559/72
f 214/314/72 190/290/72 422/560/72 428/566/72
f 429/567/69 423/561/69 424/562/69 430/568/69
f 204/304/69 225/325/69 431/569/69 425/563/69
f 426/564/72 432/570/72 433/571/72 427/565/72
f 234/334/72 214/314/72 428/566/72 434/572/72
f 435/573/69 429/567/69 430/568/69 436/574/69
f 225/325/69 242/342/69 437/575/69 431/569/69
f 432/570/72 438/576/72 439/577/72 433/571/72
f 248/348/72 234/334/72 434/572/72 440/578/72
f 441/579/69 435/573/69 436/574/69 442/580/69
f 242/342/69 256/356/69 443/581/69 437/575/69
f 438/576/72 444/582/72 445/583/72 439/577/72
f 182/282/73 186/286/73 446/584/73 199/299/73
f 194/294/73 272/372/73 447/585/73 195/295/73
f 188/288/73 229/329/73 409/547/73 189/289/73
f 130/196/73 132/198/73 184/284/73 448/586/73
f 78/144/73 80/146/73 180/280/73 449/587/73
f 307/427/73 173/273/73 176/276/73 405/543/73
f 186/286/73 192/292/73 450/588/73 446/584/73
f 272/372/73 275/375/73 451/589/73 447/585/73
f 229/329/73 226/326/73 401/539/73 409/547/73
f 128/194/73 130/196/73 448/586/73 452/590/73
f 76/142/73 78/144/73 449/587/73 453/591/73
f 309/430/73 307/427/73 405/543/73 397/535/73
f 192/292/73 198/298/73 454/592/73 450/588/73
f 275/375/73 171/379/73 239/593/73 451/589/73
f 226/326/73 222/322/73 394/532/73 401/539/73
f 126/192/73 128/194/73 452/590/73 455/594/73
f 73/139/73 76/142/73 453/591/73 231/595/73
f 311/433/73 309/430/73 397/535/73 391/529/73
f 198/298/73 202/302/73 456/596/73 454/592/73
f 222/322/73 219/319/73 388/526/73 394/532/73
f 124/190/73 126/192/73 455/594/73 457/597/73
f 315/439/73 311/433/73 391/529/73 385/523/73
f 202/302/73 206/306/73 458/598/73 456/596/73
f 219/319/73 215/315/73 382/520/73 388/526/73
f 122/188/73 124/190/73 457/597/73 444/582/73
f 317/442/73 315/439/73 385/523/73 379/517/73
f 206/306/73 209/309/73 441/579/73 458/598/73
f 215/315/73 211/311/73 376/514/73 382/520/73
f 120/186/73 122/188/73 444/582/73 438/576/73
f 319/445/73 317/442/73 379/517/73 373/511/73
f 209/309/73 212/312/73 435/573/73 441/579/73
f 211/311/73 208/308/73 370/508/73 376/514/73
f 118/184/73 120/186/73 438/576/73 432/570/73
f 321/448/73 319/445/73 373/511/73 367/505/73
f 212/312/73 216/316/73 429/567/73 435/573/73
f 208/308/73 205/305/73 364/502/73 370/508/73
f 116/182/73 118/184/73 432/570/73 426/564/73
f 323/451/73 321/448/73 367/505/73 361/499/73
f 216/316/73 220/320/73 423/561/73 429/567/73
f 205/305/73 201/301/73 358/496/73 364/502/73
f 114/180/73 116/182/73 426/564/73 420/558/73
f 325/454/73 323/451/73 361/499/73 353/490/73
f 220/320/73 223/323/73 417/555/73 423/561/73
f 201/301/73 197/297/73 343/479/73 358/496/73
f 112/178/73 114/180/73 420/558/73 414/552/73
f 280/383/73 279/382/73 314/494/73 340/476/73
f 328/458/73 325/454/73 353/490/73 352/489/73
f 223/323/73 227/327/73 411/549/73 417/555/73
f 172/378/73 274/374/73 349/486/73 305/485/73
f 197/297/73 191/291/73 344/480/73 343/479/73
f 110/176/73 112/178/73 414/552/73 407/545/73
f 282/386/73 280/383/73 340/476/73 339/475/73
f 330/461/73 328/458/73 352/489/73 459/599/73
f 227/327/73 230/330/73 403/541/73 411/549/73
f 274/374/73 271/371/73 460/600/73 349/486/73
f 191/291/73 185/285/73 461/601/73 344/480/73
f 108/174/73 110/176/73 407/545/73 399/537/73
f 284/389/73 282/386/73 339/475/73 462/602/73
f 332/464/73 330/461/73 459/599/73 336/472/73
f 230/330/73 232/332/73 335/470/73 403/541/73
f 271/371/73 269/369/73 334/468/73 460/600/73
f 185/285/73 181/281/73 333/466/73 461/601/73
f 106/172/73 108/174/73 399/537/73 331/463/73
f 287/393/73 284/389/73 462/602/73 329/460/73
f 463/603/71 464/604/71 465/605/71 466/606/71
f 467/607/70 468/608/70 464/604/70 463/603/70
f 469/609/68 470/610/68 468/608/68 467/607/68
f 471/611/67 472/612/67 470/610/67 469/609/67
f 473/613/66 474/614/66 472/612/66 471/611/66
f 475/615/65 476/616/65 474/614/65 473/613/65
f 477/617/64 478/618/64 476/616/64 475/615/64
f 479/619/63 445/620/63 478/618/63 477/617/63
f 442/621/62 439/622/62 445/620/62 479/619/62
f 436/623/61 433/624/61 439/622/61 442/621/61
f 430/625/60 427/626/60 433/624/60 436/623/60
f 424/627/59 421/628/59 427/626/59 430/625/59
f 418/629/58 415/630/58 421/628/58 424/627/58
f 412/631/57 408/632/57 415/630/57 418/629/57
f 404/633/56 400/634/56 408/632/56 412/631/56
f 396/635/55 393/636/55 400/634/55 404/633/55
f 390/637/54 387/638/54 393/636/54 396/635/54
f 384/639/53 381/640/53 387/638/53 390/637/53
f 378/641/52 375/642/52 381/640/52 384/639/52
f 372/643/51 369/644/51 375/642/51 378/641/51
f 366/645/50 363/646/50 369/644/50 372/643/50
f 360/647/49 356/648/49 363/646/49 366/645/49
f 348/649/48 337/650/48 356/648/48 360/647/48
f 347/651/47 338/652/47 337/650/47 348/649/47
f 480/653/46 481/654/46 338/652/46 347/651/46
f 482/655/45 483/656/45 481/654/45 480/653/45
f 484/657/44 485/658/44 483/656/44 482/655/44
f 486/659/43 487/660/43 485/658/43 484/657/43
f 488/661/42 489/662/42 487/660/42 486/659/42
f 490/663/41 491/664/41 489/662/41 488/661/41
f 492/665/40 493/666/40 491/664/40 490/663/40
f 466/667/39 465/668/39 493/666/39 492/665/39
f 357/669/39 351/670/39 350/671/39 341/672/39
f 341/672/40 350/671/40 494/673/40 342/674/40
f 342/674/41 494/673/41 495/675/41 496/676/41
f 496/676/42 495/675/42 497/677/42 498/678/42
f 498/678/43 497/677/43 499/679/43 500/680/43
f 500/680/44 499/679/44 501/681/44 502/682/44
f 502/682/45 501/681/45 503/683/45 504/684/45
f 504/684/46 503/683/46 505/685/46 506/686/46
f 506/686/47 505/685/47 507/687/47 508/688/47
f 508/688/48 507/687/48 509/689/48 510/690/48
f 510/690/49 509/689/49 511/691/49 512/692/49
f 512/692/50 511/691/50 440/693/50 443/694/50
f 443/694/51 440/693/51 434/695/51 437/696/51
f 437/696/52 434/695/52 428/697/52 431/698/52
f 431/698/53 428/697/53 422/699/53 425/700/53
f 425/700/54 422/699/54 416/701/54 419/702/54
f 419/702/55 416/701/55 410/703/55 413/704/55
f 413/704/56 410/703/56 402/705/56 406/706/56
f 406/706/57 402/705/57 395/707/57 398/708/57
f 398/708/58 395/707/58 389/709/58 392/710/58
f 392/710/59 389/709/59 383/711/59 386/712/59
f 386/712/60 383/711/60 377/713/60 380/714/60
f 380/714/61 377/713/61 371/715/61 374/716/61
f 374/716/62 371/715/62 365/717/62 368/718/62
f 368/718/63 365/717/63 359/719/63 362/720/63
f 362/720/64 359/719/64 346/721/64 354/722/64
f 354/722/65 346/721/65 345/723/65 355/724/65
f 355/724/66 345/723/66 513/725/66 514/726/66
f 514/726/67 513/725/67 515/727/67 516/728/67
f 516/728/68 515/727/68 517/729/68 518/730/68
f 518/730/70 517/729/70 519/731/70 520/732/70
f 520/732/71 519/731/71 351/733/71 357/734/71
f 459/599/69 352/489/69 355/492/69 514/735/69
f 349/486/72 460/600/72 494/736/72 350/487/72
f 263/363/69 252/352/69 480/737/69 347/483/69
f 344/480/72 461/601/72 513/738/72 345/481/72
f 462/602/69 339/475/69 342/478/69 496/739/69
f 245/345/72 259/359/72 338/474/72 481/740/72
f 336/472/69 459/599/69 514/735/69 516/741/69
f 460/600/72 334/468/72 495/742/72 494/736/72
f 252/352/69 237/337/69 482/743/69 480/737/69
f 461/601/72 333/466/72 515/744/72 513/738/72
f 329/460/69 462/602/69 496/739/69 498/745/69
f 228/328/72 245/345/72 481/740/72 483/746/72
f 327/457/69 336/472/69 516/741/69 518/747/69
f 239/339/69 221/321/69 463/748/69 466/749/69
f 334/468/72 322/450/72 497/750/72 495/742/72
f 237/337/69 218/318/69 484/751/69 482/743/69
f 333/466/72 320/447/72 517/752/72 515/744/72
f 210/310/72 231/331/72 465/753/72 464/754/72
f 316/441/69 329/460/69 498/745/69 500/755/69
f 207/307/72 228/328/72 483/746/72 485/756/72
f 313/437/69 327/457/69 518/747/69 520/757/69
f 221/321/69 200/300/69 467/758/69 463/748/69
f 322/450/72 308/429/72 499/759/72 497/750/72
f 218/318/69 196/296/69 486/760/69 484/751/69
f 320/447/72 306/426/72 519/761/72 517/752/72
f 183/283/72 210/310/72 464/754/72 468/762/72
f 303/421/69 316/441/69 500/755/69 502/763/69
f 179/279/72 207/307/72 485/756/72 487/764/72
f 314/438/69 313/437/69 520/757/69 357/765/69
f 200/300/69 199/299/69 469/766/69 467/758/69
f 308/429/72 301/417/72 501/767/72 499/759/72
f 196/296/69 195/295/69 488/768/69 486/760/69
f 306/426/72 305/425/72 351/769/72 519/761/72
f 184/284/72 183/283/72 468/762/72 470/770/72
f 299/413/69 303/421/69 502/763/69 504/771/69
f 180/280/72 179/279/72 487/764/72 489/772/72
f 199/299/69 446/584/69 471/773/69 469/766/69
f 301/417/72 297/409/72 503/774/72 501/767/72
f 195/295/69 447/585/69 490/775/69 488/768/69
f 448/586/72 184/284/72 470/770/72 472/776/72
f 295/405/69 299/413/69 504/771/69 506/777/69
f 449/587/72 180/280/72 489/772/72 491/778/72
f 446/584/69 450/588/69 473/779/69 471/773/69
f 297/409/72 290/398/72 505/780/72 503/774/72
f 447/585/69 451/589/69 492/781/69 490/775/69
f 452/590/72 448/586/72 472/776/72 474/782/72
f 286/392/69 295/405/69 506/777/69 508/783/69
f 453/591/72 449/587/72 491/778/72 493/784/72
f 450/588/69 454/592/69 475/785/69 473/779/69
f 290/398/72 281/385/72 507/786/72 505/780/72
f 451/589/69 239/593/69 466/787/69 492/781/69
f 455/594/72 452/590/72 474/782/72 476/788/72
f 277/377/69 286/392/69 508/783/69 510/789/69
f 231/595/72 453/591/72 493/784/72 465/790/72
f 454/592/69 456/596/69 477/791/69 475/785/69
f 281/385/72 270/370/72 509/792/72 507/786/72
f 457/597/72 455/594/72 476/788/72 478/793/72
f 266/366/69 277/377/69 510/789/69 512/794/69
f 456/596/69 458/598/69 479/795/69 477/791/69
f 270/370/72 261/361/72 511/796/72 509/792/72
f 444/582/72 457/597/72 478/793/72 445/583/72
f 256/356/69 266/366/69 512/794/69 443/581/69
f 458/598/69 441/579/69 442/580/69 479/795/69
f 261/361/72 248/348/72 440/578/72 511/796/72
