# Blender v2.93.0 OBJ File: ''
# www.blender.org
mtllib panneaurue.mtl
o Cube_Cube.006
v 0.020150 -1.500984 0.052881
v 0.020150 -1.167704 0.052881
v -0.020150 -1.167704 0.052881
v -0.020150 -1.500984 0.052881
v 0.052881 -1.500984 -0.020150
v 0.052881 -1.167704 -0.020150
v 0.052881 -1.167704 0.020150
v 0.052881 -1.500984 0.020148
v 0.043294 -1.167704 -0.043294
v 0.020150 -1.167704 -0.052882
v -0.020150 -1.167704 -0.052882
v -0.043294 -1.167704 -0.043294
v -0.052881 -1.167704 -0.020150
v -0.052881 -1.167704 0.020150
v -0.043294 -1.167704 0.043294
v 0.043294 -1.167704 0.043294
v -0.052881 -1.500984 0.020148
v -0.052881 -1.500984 -0.020150
v -0.020150 -1.500984 -0.052883
v 0.020150 -1.500984 -0.052883
v -0.043294 -1.500984 0.043294
v -0.043294 -1.500984 -0.043296
v 0.043294 -1.500984 -0.043296
v 0.043294 -1.500984 0.043294
vt 0.728738 0.243764
vt 0.733809 0.243764
vt 0.733809 0.245697
vt 0.728738 0.245697
vt 0.728738 0.238692
vt 0.733809 0.238692
vt 0.733809 0.240625
vt 0.728738 0.240625
vt 0.734271 0.237583
vt 0.735380 0.237121
vt 0.737313 0.237121
vt 0.738423 0.237583
vt 0.738881 0.238692
vt 0.738881 0.240625
vt 0.738423 0.241734
vt 0.737313 0.242193
vt 0.735380 0.242193
vt 0.734271 0.241734
vt 0.728738 0.228548
vt 0.733809 0.228548
vt 0.733809 0.230478
vt 0.728738 0.230478
vt 0.728738 0.233620
vt 0.733809 0.233620
vt 0.733809 0.235553
vt 0.728738 0.235553
vt 0.733809 0.247268
vt 0.728738 0.247268
vt 0.728738 0.226977
vt 0.733809 0.226977
vt 0.728738 0.232049
vt 0.733809 0.232049
vt 0.728738 0.237121
vt 0.733809 0.237121
vt 0.728738 0.242193
vt 0.733809 0.242193
vt 0.723666 0.238692
vt 0.724124 0.237583
vt 0.725237 0.237121
vt 0.727167 0.237121
vt 0.728279 0.237583
vt 0.728279 0.241734
vt 0.727167 0.242193
vt 0.725237 0.242193
vt 0.724124 0.241734
vt 0.723666 0.240625
vn 0.0000 -0.0000 1.0000
vn 1.0000 0.0000 0.0000
vn 0.0000 1.0000 0.0000
vn -1.0000 0.0000 0.0000
vn 0.0000 0.0000 -1.0000
vn -0.3827 -0.0000 0.9239
vn -0.9239 -0.0000 0.3827
vn -0.3827 0.0000 -0.9239
vn -0.9239 0.0000 -0.3827
vn 0.9239 0.0000 -0.3827
vn 0.3827 0.0000 -0.9239
vn 0.3827 -0.0000 0.9239
vn 0.9239 -0.0000 0.3827
vn 0.0000 -1.0000 -0.0000
usemtl Material.008
s 1
f 1/1/1 2/2/1 3/3/1 4/4/1
f 5/5/2 6/6/2 7/7/2 8/8/2
f 6/6/3 9/9/3 10/10/3 11/11/3 12/12/3 13/13/3 14/14/3 15/15/3 3/16/3 2/17/3 16/18/3 7/7/3
f 17/19/4 14/20/4 13/21/4 18/22/4
f 19/23/5 11/24/5 10/25/5 20/26/5
f 4/4/6 3/3/6 15/27/6 21/28/6
f 21/29/7 15/30/7 14/20/7 17/19/7
f 11/24/8 19/23/8 22/31/8 12/32/8
f 12/32/9 22/31/9 18/22/9 13/21/9
f 6/6/10 5/5/10 23/33/10 9/34/10
f 9/34/11 23/33/11 20/26/11 10/25/11
f 2/2/12 1/1/12 24/35/12 16/36/12
f 16/36/13 24/35/13 8/8/13 7/7/13
f 18/37/14 22/38/14 19/39/14 20/40/14 23/41/14 5/5/14 8/8/14 24/42/14 1/43/14 4/44/14 21/45/14 17/46/14
o Plane_Plane.001
v -0.308531 -1.334437 -0.062989
v 0.309132 -1.334437 -0.062989
v 0.309132 -1.334437 -0.048947
v -0.308531 -1.334437 -0.048947
v 0.309132 -0.907637 -0.062989
v -0.308531 -0.907637 -0.062989
v -0.308531 -0.907637 -0.048947
v 0.309132 -0.907637 -0.048947
v -0.317728 -1.331972 -0.062989
v -0.324461 -1.325241 -0.062989
v -0.326925 -1.316044 -0.062989
v -0.326925 -0.926030 -0.062989
v -0.324461 -0.916833 -0.062989
v -0.317728 -0.910101 -0.062989
v 0.318328 -0.910101 -0.062989
v 0.325061 -0.916833 -0.062989
v 0.327526 -0.926030 -0.062989
v 0.327526 -1.316044 -0.062989
v 0.325061 -1.325241 -0.062989
v 0.318328 -1.331972 -0.062989
v -0.326925 -1.316044 -0.048947
v -0.324461 -1.325241 -0.048947
v -0.317728 -1.331972 -0.048947
v 0.318328 -1.331972 -0.048947
v 0.325061 -1.325241 -0.048947
v 0.327526 -1.316044 -0.048947
v 0.327526 -0.926030 -0.048947
v 0.325061 -0.916833 -0.048947
v 0.318328 -0.910101 -0.048947
v -0.317728 -0.910101 -0.048947
v -0.324461 -0.916833 -0.048947
v -0.326925 -0.926030 -0.048947
vt 0.582122 0.446648
vt 0.600429 0.446648
vt 0.600429 0.446648
vt 0.582122 0.446648
vt 0.600429 0.466045
vt 0.582122 0.466045
vt 0.582122 0.466045
vt 0.600429 0.466045
vt 0.969301 0.319063
vt 0.983334 0.320317
vt 0.996114 0.333104
vt 0.997368 0.347145
vt 0.997368 0.942587
vt 0.996114 0.956628
vt 0.983334 0.969414
vt 0.969301 0.970668
vt 0.026793 0.970668
vt 0.012760 0.969414
vt -0.000020 0.956628
vt -0.001274 0.942587
vt -0.001274 0.347145
vt -0.000020 0.333104
vt 0.012760 0.320317
vt 0.026793 0.319063
vt 0.581577 0.447484
vt 0.581601 0.447066
vt 0.581850 0.446685
vt 0.600702 0.446685
vt 0.600950 0.447066
vt 0.600974 0.447484
vt 0.600974 0.465209
vt 0.600950 0.465627
vt 0.600702 0.466008
vt 0.581850 0.466008
vt 0.581601 0.465627
vt 0.581577 0.465209
vt 0.600974 0.447484
vt 0.600974 0.465209
vt 0.600702 0.466008
vt 0.600950 0.465627
vt 0.600702 0.446685
vt 0.600950 0.447066
vt 0.581850 0.446685
vt 0.581601 0.447066
vt 0.581577 0.447484
vt 0.581850 0.466008
vt 0.581601 0.465627
vt 0.581577 0.465209
vn 0.0000 -1.0000 0.0000
vn 0.0000 1.0000 0.0000
vn -0.0000 0.0000 -1.0000
vn -0.0000 -0.0000 1.0000
vn 1.0000 -0.0000 0.0000
vn 0.2588 0.9659 0.0000
vn 0.7071 0.7071 0.0000
vn 0.9659 0.2589 0.0000
vn 0.2589 -0.9659 0.0000
vn 0.7070 -0.7072 0.0000
vn 0.9659 -0.2589 0.0000
vn -0.2588 -0.9659 0.0000
vn -0.7070 -0.7072 0.0000
vn -0.9659 -0.2587 0.0000
vn -0.2587 0.9659 0.0000
vn -0.7071 0.7071 0.0000
vn -0.9659 0.2588 0.0000
vn -1.0000 -0.0000 0.0000
usemtl Material.008
s off
f 25/47/15 26/48/15 27/49/15 28/50/15
f 29/51/16 30/52/16 31/53/16 32/54/16
f 25/55/17 33/56/17 34/57/17 35/58/17 36/59/17 37/60/17 38/61/17 30/62/17 29/63/17 39/64/17 40/65/17 41/66/17 42/67/17 43/68/17 44/69/17 26/70/17
f 45/71/18 46/72/18 47/73/18 28/50/18 27/49/18 48/74/18 49/75/18 50/76/18 51/77/18 52/78/18 53/79/18 32/54/18 31/53/18 54/80/18 55/81/18 56/82/18
f 42/83/19 41/84/19 51/77/19 50/76/19
f 29/51/20 32/54/20 53/79/20 39/85/20
f 39/85/21 53/79/21 52/78/21 40/86/21
f 40/86/22 52/78/22 51/77/22 41/84/22
f 27/49/23 26/48/23 44/87/23 48/74/23
f 48/74/24 44/87/24 43/88/24 49/75/24
f 49/75/25 43/88/25 42/83/25 50/76/25
f 25/47/26 28/50/26 47/73/26 33/89/26
f 33/89/27 47/73/27 46/72/27 34/90/27
f 34/90/28 46/72/28 45/71/28 35/91/28
f 31/53/29 30/52/29 38/92/29 54/80/29
f 54/80/30 38/92/30 37/93/30 55/81/30
f 55/81/31 37/93/31 36/94/31 56/82/31
f 36/94/32 35/91/32 45/71/32 56/82/32
