# Blender v3.0.0 OBJ File: ''
# www.blender.org
mtllib lyre.mtl
o base
v 0.418076 0.516162 0.220341
v 0.349464 0.520601 0.436244
v 0.488857 0.447630 0.509215
v 0.531581 0.425264 0.478423
v 0.531581 0.425264 0.265790
v 0.443222 0.513623 0.000000
v 0.531581 0.425264 0.000000
v -0.418076 0.516162 -0.220342
v -0.349464 0.520601 -0.436244
v -0.488857 0.447630 -0.509215
v -0.531581 0.425265 -0.478422
v -0.531581 0.425264 -0.265790
v 0.349464 0.520601 -0.436244
v 0.418076 0.516162 -0.220342
v 0.531581 0.425264 -0.265790
v 0.531581 0.425265 -0.478422
v 0.488856 0.447630 -0.509215
v -0.443222 0.513623 0.000000
v -0.531581 0.425264 0.000000
v -0.349464 0.520601 0.436244
v -0.418076 0.516162 0.220342
v -0.531581 0.425264 0.265790
v -0.531581 0.425264 0.478423
v -0.488856 0.447630 0.509215
v 0.516011 0.425264 0.516011
v -0.516011 0.425264 0.516011
v 0.516011 0.425265 -0.516011
v -0.516011 0.425265 -0.516011
v 0.371902 0.531581 -0.212632
v 0.398345 0.531581 0.000000
v 0.371902 0.531581 0.212632
v 0.310025 0.531581 0.399706
v -0.372510 0.531581 -0.212632
v -0.310633 0.531581 -0.399707
v -0.372510 0.531581 0.212632
v -0.398953 0.531581 0.000000
v 0.310025 0.531581 -0.399707
v -0.310633 0.531581 0.399706
v -0.349464 0.520601 -0.436244
v 0.000000 0.520601 -0.436244
v 0.000000 0.425265 -0.531581
v -0.478422 0.425265 -0.531581
v -0.488857 0.447630 -0.509215
v 0.000000 0.520601 0.436244
v -0.349464 0.520601 0.436244
v -0.488856 0.447630 0.509215
v -0.478422 0.425264 0.531581
v 0.000000 0.425264 0.531581
v 0.349464 0.520601 0.436244
v 0.478422 0.425264 0.531581
v 0.488857 0.447630 0.509215
v 0.516011 0.425264 0.516011
v -0.516011 0.425264 0.516011
v 0.516011 0.425265 -0.516011
v 0.478422 0.425265 -0.531581
v 0.488856 0.447630 -0.509215
v -0.516011 0.425265 -0.516011
v 0.349464 0.520601 -0.436244
v -0.310633 0.531581 -0.399707
v 0.000000 0.531581 -0.399707
v 0.310025 0.531581 0.399706
v 0.000000 0.531581 0.399706
v 0.310025 0.531581 -0.399707
v -0.310633 0.531581 0.399706
v -0.372106 -0.005316 -0.446528
v -0.372106 0.143527 -0.446528
v -0.319483 0.143527 -0.424730
v -0.319483 -0.005316 -0.424730
v -0.297685 0.143527 -0.372106
v -0.297685 -0.005316 -0.372106
v -0.319483 0.143527 -0.319483
v -0.319483 -0.005316 -0.319483
v -0.372106 0.143527 -0.297685
v -0.372106 -0.005316 -0.297685
v -0.424730 0.143527 -0.319483
v -0.424730 -0.005316 -0.319483
v -0.446528 0.143527 -0.372106
v -0.446528 -0.005316 -0.372106
v -0.424730 0.143527 -0.424730
v -0.424730 -0.005316 -0.424730
v 0.372106 -0.005316 -0.446528
v 0.319483 -0.005316 -0.424730
v 0.319483 0.143527 -0.424730
v 0.372106 0.143527 -0.446528
v 0.297685 -0.005316 -0.372106
v 0.297685 0.143527 -0.372106
v 0.319483 -0.005316 -0.319483
v 0.319483 0.143527 -0.319483
v 0.372106 -0.005316 -0.297685
v 0.372106 0.143527 -0.297685
v 0.424730 -0.005316 -0.319483
v 0.424730 0.143527 -0.319483
v 0.446528 -0.005316 -0.372106
v 0.446528 0.143527 -0.372106
v 0.424730 -0.005316 -0.424730
v 0.424730 0.143527 -0.424730
v -0.372106 -0.005316 0.446528
v -0.319483 -0.005316 0.424730
v -0.319483 0.143527 0.424730
v -0.372106 0.143527 0.446528
v -0.297685 -0.005316 0.372106
v -0.297685 0.143527 0.372106
v -0.319483 -0.005316 0.319483
v -0.319483 0.143527 0.319483
v -0.372106 -0.005316 0.297685
v -0.372106 0.143527 0.297685
v -0.424730 -0.005316 0.319483
v -0.424730 0.143527 0.319483
v -0.446528 -0.005316 0.372106
v -0.446528 0.143527 0.372106
v -0.424730 -0.005316 0.424730
v -0.424730 0.143527 0.424730
v 0.372106 -0.005316 0.446528
v 0.372106 0.143527 0.446528
v 0.319483 0.143527 0.424730
v 0.319483 -0.005316 0.424730
v 0.297685 0.143527 0.372106
v 0.297685 -0.005316 0.372106
v 0.319483 0.143527 0.319483
v 0.319483 -0.005316 0.319483
v 0.372106 0.143527 0.297685
v 0.372106 -0.005316 0.297685
v 0.424730 0.143527 0.319483
v 0.424730 -0.005316 0.319483
v 0.446528 0.143527 0.372106
v 0.446528 -0.005316 0.372106
v 0.424730 0.143527 0.424730
v 0.424730 -0.005316 0.424730
v 0.000000 0.531581 0.399706
v 0.000000 0.531581 0.212632
v -0.372510 0.531581 0.212632
v -0.310633 0.531581 0.399706
v 0.371902 0.531581 0.212632
v 0.398345 0.531581 0.000000
v 0.000000 0.531581 0.000000
v 0.371902 0.531581 -0.212632
v 0.310025 0.531581 -0.399707
v 0.000000 0.531581 -0.399707
v 0.000000 0.531581 -0.212632
v -0.478422 0.106316 0.531581
v -0.516011 0.106316 0.516011
v -0.531581 0.106316 0.478423
v -0.531581 0.106316 0.265790
v 0.000000 0.106316 0.265790
v 0.000000 0.106316 0.531581
v 0.531581 0.425264 0.265790
v 0.531581 0.425264 0.478423
v 0.531581 0.106316 0.478423
v 0.531581 0.106316 0.265790
v -0.478422 0.425265 -0.531581
v 0.000000 0.425265 -0.531581
v 0.000000 0.106316 -0.531581
v -0.478422 0.106316 -0.531581
v 0.531581 0.425265 -0.478422
v 0.531581 0.425264 -0.265790
v 0.531581 0.106316 -0.265790
v 0.531581 0.106316 -0.478422
v 0.000000 0.106316 -0.265790
v 0.478422 0.106316 -0.531581
v 0.516011 0.106316 -0.516011
v -0.531581 0.425264 0.478423
v -0.531581 0.425264 0.265790
v 0.516011 0.106316 0.516011
v 0.478422 0.106316 0.531581
v -0.531581 0.425264 -0.265790
v -0.531581 0.425265 -0.478422
v -0.531581 0.106316 -0.478422
v -0.531581 0.106316 -0.265790
v -0.531581 0.106316 0.000000
v 0.000000 0.106316 0.000000
v 0.531581 0.106316 0.000000
v -0.531581 0.425264 0.000000
v 0.531581 0.425264 0.000000
v 0.310025 0.531581 0.399706
v -0.310633 0.531581 -0.399707
v -0.372510 0.531581 -0.212632
v -0.398953 0.531581 0.000000
v -0.516011 0.106316 -0.516011
v 0.478422 0.425265 -0.531581
v 0.000000 0.425264 0.531581
v -0.478422 0.425264 0.531581
v 0.478422 0.425264 0.531581
v -0.516011 0.425264 0.516011
v 0.516011 0.425265 -0.516011
v 0.516011 0.425264 0.516011
v -0.516011 0.425265 -0.516011
vt 0.973661 0.098123
vt 0.973370 0.097208
vt 0.973959 0.096906
vt 0.974140 0.097039
vt 0.974140 0.097940
vt 0.973767 0.099057
vt 0.974140 0.099066
vt 0.978035 0.096317
vt 0.978325 0.097231
vt 0.977736 0.097548
vt 0.977555 0.097420
vt 0.977555 0.096519
vt 0.973370 0.100905
vt 0.973661 0.099991
vt 0.974140 0.100192
vt 0.974140 0.101093
vt 0.973959 0.101222
vt 0.977929 0.095383
vt 0.977555 0.095392
vt 0.978325 0.093534
vt 0.978035 0.094449
vt 0.977555 0.094266
vt 0.977555 0.093365
vt 0.977736 0.093232
vt 0.974074 0.096879
vt 0.977621 0.093206
vt 0.974074 0.101253
vt 0.977621 0.097579
vt 0.973465 0.099956
vt 0.973577 0.099055
vt 0.973465 0.098154
vt 0.973204 0.097361
vt 0.978228 0.096283
vt 0.978489 0.097075
vt 0.978228 0.094481
vt 0.978116 0.095382
vt 0.973204 0.100749
vt 0.978489 0.093688
vt 0.971969 0.093099
vt 0.971969 0.094580
vt 0.971557 0.094580
vt 0.971557 0.092552
vt 0.971654 0.092508
vt 0.971478 0.101040
vt 0.971478 0.102521
vt 0.971169 0.103112
vt 0.971074 0.103068
vt 0.971074 0.101040
vt 0.971478 0.099559
vt 0.971074 0.099012
vt 0.971169 0.098968
vt 0.971074 0.098853
vt 0.971074 0.103227
vt 0.979960 0.090004
vt 0.980062 0.090127
vt 0.979960 0.090154
vt 0.982839 0.092275
vt 0.982839 0.092116
vt 0.982934 0.092231
vt 0.971969 0.096062
vt 0.971654 0.096653
vt 0.971557 0.096608
vt 0.972125 0.093264
vt 0.972125 0.094580
vt 0.969521 0.103060
vt 0.969521 0.101746
vt 0.969674 0.101746
vt 0.969674 0.103227
vt 0.972125 0.095895
vt 0.969521 0.100429
vt 0.969674 0.100265
vt 0.975560 0.090402
vt 0.975560 0.089771
vt 0.975782 0.089770
vt 0.975782 0.090401
vt 0.971011 0.090796
vt 0.971011 0.090166
vt 0.971233 0.090168
vt 0.971233 0.090799
vt 0.971455 0.090166
vt 0.971455 0.090796
vt 0.969656 0.090243
vt 0.969656 0.089612
vt 0.969878 0.089612
vt 0.969878 0.090243
vt 0.970101 0.089612
vt 0.970101 0.090243
vt 0.975002 0.089869
vt 0.975002 0.090500
vt 0.974780 0.090497
vt 0.974780 0.089867
vt 0.974557 0.090500
vt 0.974557 0.089869
vt 0.975337 0.090401
vt 0.975337 0.089770
vt 0.974087 0.090296
vt 0.973864 0.090296
vt 0.973864 0.089665
vt 0.974087 0.089665
vt 0.982278 0.095829
vt 0.982500 0.095827
vt 0.982500 0.096457
vt 0.982278 0.096460
vt 0.982723 0.095829
vt 0.982723 0.096460
vt 0.982621 0.090248
vt 0.982399 0.090248
vt 0.982399 0.089617
vt 0.982621 0.089617
vt 0.982177 0.090248
vt 0.982177 0.089617
vt 0.984776 0.090494
vt 0.984553 0.090497
vt 0.984553 0.089867
vt 0.984776 0.089864
vt 0.984331 0.090494
vt 0.984331 0.089864
vt 0.974309 0.090296
vt 0.974309 0.089665
vt 0.980799 0.090276
vt 0.980576 0.090276
vt 0.980576 0.089645
vt 0.980799 0.089645
vt 0.984106 0.090494
vt 0.983884 0.090497
vt 0.983884 0.089867
vt 0.984106 0.089864
vt 0.983661 0.090494
vt 0.983661 0.089864
vt 0.970086 0.094562
vt 0.969863 0.094562
vt 0.969863 0.093932
vt 0.970086 0.093931
vt 0.969641 0.094562
vt 0.969641 0.093931
vt 0.971680 0.090168
vt 0.971902 0.090166
vt 0.971902 0.090796
vt 0.971680 0.090799
vt 0.972125 0.090168
vt 0.972125 0.090799
vt 0.981021 0.090276
vt 0.981021 0.089645
vt 0.981730 0.090248
vt 0.981730 0.089617
vt 0.981952 0.089617
vt 0.981952 0.090248
vt 0.974477 0.102198
vt 0.974477 0.101568
vt 0.974700 0.101571
vt 0.974700 0.102201
vt 0.974922 0.101568
vt 0.974922 0.102198
vt 0.969641 0.093705
vt 0.969641 0.093074
vt 0.969863 0.093075
vt 0.969863 0.093706
vt 0.970086 0.093074
vt 0.970086 0.093705
vt 0.978044 0.090462
vt 0.978044 0.089832
vt 0.978267 0.089834
vt 0.978267 0.090465
vt 0.978489 0.089832
vt 0.978489 0.090462
vt 0.981507 0.090248
vt 0.981507 0.089617
vt 0.978376 0.104866
vt 0.978376 0.104073
vt 0.979950 0.104073
vt 0.979689 0.104866
vt 0.976804 0.104073
vt 0.976692 0.103172
vt 0.978376 0.103172
vt 0.976804 0.102271
vt 0.977066 0.101478
vt 0.978376 0.101478
vt 0.978376 0.102271
vt 0.984776 0.104640
vt 0.984710 0.104800
vt 0.984551 0.104866
vt 0.983653 0.104866
vt 0.983653 0.102612
vt 0.984776 0.102612
vt 0.981999 0.099073
vt 0.981999 0.099974
vt 0.980652 0.099974
vt 0.980652 0.099073
vt 0.975712 0.097037
vt 0.975712 0.099065
vt 0.974365 0.099065
vt 0.974365 0.097037
vt 0.981999 0.095918
vt 0.981999 0.096819
vt 0.980652 0.096820
vt 0.980652 0.095918
vt 0.981409 0.102612
vt 0.980286 0.102612
vt 0.980286 0.100584
vt 0.980352 0.100425
vt 0.980511 0.100359
vt 0.981409 0.100359
vt 0.975939 0.101093
vt 0.975939 0.100192
vt 0.977287 0.100192
vt 0.977287 0.101093
vt 0.983653 0.100359
vt 0.984551 0.100359
vt 0.984710 0.100425
vt 0.984776 0.100584
vt 0.975939 0.097938
vt 0.975939 0.097037
vt 0.977287 0.097037
vt 0.977287 0.097939
vt 0.982531 0.104866
vt 0.982531 0.102612
vt 0.982531 0.100359
vt 0.975939 0.099065
vt 0.977287 0.099065
vt 0.981999 0.097946
vt 0.980652 0.097946
vt 0.977066 0.104866
vt 0.981409 0.104866
vt 0.979689 0.101478
vt 0.979950 0.102271
vt 0.980062 0.103172
vt 0.980511 0.104866
vt 0.980352 0.104800
vt 0.980286 0.104640
vt 0.975712 0.101093
vt 0.974365 0.101093
vt 0.980062 0.095392
vt 0.980062 0.097420
vt 0.978714 0.097420
vt 0.978714 0.095392
vt 0.980062 0.093364
vt 0.978714 0.093364
vt 0.977285 0.101253
vt 0.975937 0.101253
vt 0.980062 0.097579
vt 0.978714 0.097579
vt 0.980654 0.095759
vt 0.982001 0.095759
vt 0.975713 0.101253
vt 0.974365 0.101253
vt 0.982001 0.100134
vt 0.980654 0.100134
vt 0.978714 0.093204
vt 0.980062 0.093204
vt 0.974365 0.096878
vt 0.975713 0.096878
vt 0.975937 0.096878
vt 0.977285 0.096878
vn 0.5110 0.8570 0.0666
vn 0.6599 0.7508 0.0302
vn -0.5110 0.8570 -0.0666
vn 0.5110 0.8570 -0.0666
vn -0.6599 0.7508 -0.0302
vn 0.6599 0.7508 -0.0302
vn -0.5110 0.8570 0.0666
vn -0.6599 0.7508 0.0302
vn 0.5805 0.7779 0.2405
vn -0.5805 0.7779 0.2405
vn 0.5805 0.7779 -0.2405
vn -0.5805 0.7779 -0.2405
vn 0.3413 0.9393 -0.0352
vn 0.2591 0.9631 0.0733
vn -0.2620 0.9622 -0.0743
vn -0.3454 0.9378 0.0356
vn -0.3454 0.9378 -0.0357
vn 0.2591 0.9631 -0.0733
vn 0.3413 0.9393 0.0352
vn -0.2620 0.9622 0.0742
vn -0.0000 0.7071 -0.7071
vn -0.0000 0.7071 0.7071
vn 0.3068 0.5976 0.7408
vn -0.3068 0.5976 0.7408
vn 0.3068 0.5976 -0.7408
vn -0.3068 0.5976 -0.7408
vn -0.0000 0.9577 -0.2878
vn 0.0000 0.9577 0.2878
vn 0.3827 0.0000 -0.9239
vn 0.9239 0.0000 -0.3827
vn 0.9239 -0.0000 0.3827
vn 0.3827 -0.0000 0.9239
vn -0.3827 -0.0000 0.9239
vn -0.9239 -0.0000 0.3827
vn -0.9239 0.0000 -0.3827
vn -0.3827 0.0000 -0.9239
vn 0.0000 1.0000 -0.0000
vn -0.0000 -1.0000 -0.0000
vn 1.0000 -0.0000 0.0000
vn 0.0000 0.0000 -1.0000
vn -1.0000 0.0000 0.0000
vn 0.0000 -0.0000 1.0000
usemtl Material.001
s 1
f 1/1/1 2/2/1 3/3/1 4/4/1 5/5/1
f 6/6/2 1/1/2 5/5/2 7/7/2
f 8/8/3 9/9/3 10/10/3 11/11/3 12/12/3
f 13/13/4 14/14/4 15/15/4 16/16/4 17/17/4
f 18/18/5 8/8/5 12/12/5 19/19/5
f 14/14/6 6/6/6 7/7/6 15/15/6
f 20/20/7 21/21/7 22/22/7 23/23/7 24/24/7
f 21/21/8 18/18/8 19/19/8 22/22/8
f 25/25/9 4/4/9 3/3/9
f 23/23/10 26/26/10 24/24/10
f 16/16/11 27/27/11 17/17/11
f 28/28/12 11/11/12 10/10/12
f 29/29/13 30/30/13 6/6/13 14/14/13
f 31/31/14 32/32/14 2/2/14 1/1/14
f 33/33/15 34/34/15 9/9/15 8/8/15
f 35/35/16 36/36/16 18/18/16 21/21/16
f 36/36/17 33/33/17 8/8/17 18/18/17
f 37/37/18 29/29/18 14/14/18 13/13/18
f 30/30/19 31/31/19 1/1/19 6/6/19
f 38/38/20 35/35/20 21/21/20 20/20/20
f 39/39/21 40/40/21 41/41/21 42/42/21 43/43/21
f 44/44/22 45/45/22 46/46/22 47/47/22 48/48/22
f 49/49/22 44/44/22 48/48/22 50/50/22 51/51/22
f 50/50/23 52/52/23 51/51/23
f 53/53/24 47/47/24 46/46/24
f 54/54/25 55/55/25 56/56/25
f 42/57/26 57/58/26 43/59/26
f 40/40/21 58/60/21 56/61/21 55/62/21 41/41/21
f 59/63/27 60/64/27 40/40/27 39/39/27
f 61/65/28 62/66/28 44/67/28 49/68/28
f 60/64/27 63/69/27 58/60/27 40/40/27
f 62/66/28 64/70/28 45/71/28 44/67/28
f 65/72/29 66/73/29 67/74/29 68/75/29
f 68/76/30 67/77/30 69/78/30 70/79/30
f 70/79/31 69/78/31 71/80/31 72/81/31
f 72/82/32 71/83/32 73/84/32 74/85/32
f 74/85/33 73/84/33 75/86/33 76/87/33
f 76/88/34 75/89/34 77/90/34 78/91/34
f 78/91/35 77/90/35 79/92/35 80/93/35
f 80/94/36 79/95/36 66/73/36 65/72/36
f 81/96/36 82/97/36 83/98/36 84/99/36
f 82/100/35 85/101/35 86/102/35 83/103/35
f 85/101/34 87/104/34 88/105/34 86/102/34
f 87/106/33 89/107/33 90/108/33 88/109/33
f 89/107/32 91/110/32 92/111/32 90/108/32
f 91/112/31 93/113/31 94/114/31 92/115/31
f 93/113/30 95/116/30 96/117/30 94/114/30
f 95/118/29 81/96/29 84/99/29 96/119/29
f 97/120/32 98/121/32 99/122/32 100/123/32
f 98/124/31 101/125/31 102/126/31 99/127/31
f 101/125/30 103/128/30 104/129/30 102/126/30
f 103/130/29 105/131/29 106/132/29 104/133/29
f 105/131/36 107/134/36 108/135/36 106/132/36
f 107/136/35 109/137/35 110/138/35 108/139/35
f 109/137/34 111/140/34 112/141/34 110/138/34
f 111/142/33 97/120/33 100/123/33 112/143/33
f 113/144/33 114/145/33 115/146/33 116/147/33
f 116/148/34 115/149/34 117/150/34 118/151/34
f 118/151/35 117/150/35 119/152/35 120/153/35
f 120/154/36 119/155/36 121/156/36 122/157/36
f 122/157/29 121/156/29 123/158/29 124/159/29
f 124/160/30 123/161/30 125/162/30 126/163/30
f 126/163/31 125/162/31 127/164/31 128/165/31
f 128/166/32 127/167/32 114/145/32 113/144/32
f 129/168/37 130/169/37 131/170/37 132/171/37
f 133/172/37 134/173/37 135/174/37 130/169/37
f 136/175/37 137/176/37 138/177/37 139/178/37
f 140/179/38 141/180/38 142/181/38 143/182/38 144/183/38 145/184/38
f 146/185/39 147/186/39 148/187/39 149/188/39
f 150/189/40 151/190/40 152/191/40 153/192/40
f 154/193/39 155/194/39 156/195/39 157/196/39
f 158/197/38 152/198/38 159/199/38 160/200/38 157/201/38 156/202/38
f 161/203/41 162/204/41 143/205/41 142/206/41
f 145/184/38 144/183/38 149/207/38 148/208/38 163/209/38 164/210/38
f 165/211/41 166/212/41 167/213/41 168/214/41
f 143/182/38 169/215/38 170/216/38 144/183/38
f 144/183/38 170/216/38 171/217/38 149/207/38
f 162/204/41 172/218/41 169/219/41 143/205/41
f 155/194/39 173/220/39 171/221/39 156/195/39
f 174/222/37 133/172/37 130/169/37 129/168/37
f 169/215/38 168/223/38 158/197/38 170/216/38
f 170/216/38 158/197/38 156/202/38 171/217/38
f 172/218/41 165/211/41 168/214/41 169/219/41
f 139/178/37 138/177/37 175/224/37 176/225/37
f 130/169/37 135/174/37 177/226/37 131/170/37
f 168/223/38 167/227/38 178/228/38 153/229/38 152/198/38 158/197/38
f 151/190/40 179/230/40 159/231/40 152/191/40
f 180/232/42 181/233/42 140/234/42 145/235/42
f 173/220/39 146/185/39 149/188/39 171/221/39
f 182/236/42 180/232/42 145/235/42 164/237/42
f 135/174/37 139/178/37 176/225/37 177/226/37
f 161/203/34 142/206/34 141/238/34 183/239/34
f 183/240/33 141/241/33 140/234/33 181/233/33
f 154/193/30 157/196/30 160/242/30 184/243/30
f 184/244/29 160/245/29 159/231/29 179/230/29
f 148/187/31 147/186/31 185/246/31 163/247/31
f 163/248/32 185/249/32 182/236/32 164/237/32
f 150/189/36 153/192/36 178/250/36 186/251/36
f 186/252/35 178/253/35 167/213/35 166/212/35
f 134/173/37 136/175/37 139/178/37 135/174/37
f 116/148/38 118/151/38 120/153/38 122/157/38 124/159/38 126/163/38 128/165/38 113/144/38
f 81/96/38 95/118/38 93/113/38 91/112/38 89/107/38 87/106/38 85/101/38 82/100/38
f 97/120/38 111/142/38 109/137/38 107/136/38 105/131/38 103/130/38 101/125/38 98/124/38
f 68/76/38 70/79/38 72/81/38 74/85/38 76/87/38 78/91/38 80/93/38 65/72/38
o pitch
v 0.420305 -0.100217 -0.000000
v 0.420305 -0.091127 0.045702
v 0.420305 -0.106467 0.052056
v 0.420305 -0.116821 -0.000000
v 0.420305 -0.065239 0.084445
v 0.420305 -0.076979 0.096186
v 0.420305 -0.026495 0.110333
v 0.420305 -0.032849 0.125673
v 0.420305 0.019207 0.119425
v 0.420305 0.019207 0.136028
v 0.420305 0.064908 0.110333
v 0.420305 0.071262 0.125673
v 0.420305 0.103653 0.084445
v 0.420305 0.115393 0.096187
v 0.420305 0.129541 0.045702
v 0.420305 0.144880 0.052056
v 0.420305 0.138631 0.000000
v 0.420305 0.155235 0.000000
v 0.420305 0.129541 -0.045702
v 0.420305 0.144880 -0.052056
v 0.420305 0.103653 -0.084446
v 0.420305 0.115393 -0.096187
v 0.420305 0.064908 -0.110334
v 0.420305 0.071263 -0.125673
v 0.420305 0.019207 -0.119425
v 0.420305 0.019207 -0.136028
v 0.420305 -0.026495 -0.110334
v 0.420305 -0.032849 -0.125673
v 0.420305 -0.065239 -0.084446
v 0.420305 -0.076979 -0.096187
v 0.420305 -0.091127 -0.045702
v 0.420305 -0.106467 -0.052056
v 0.393989 -0.091127 0.045702
v 0.393989 -0.100217 -0.000000
v 0.393989 -0.091127 -0.045702
v 0.393989 -0.065239 -0.084446
v 0.393989 -0.026495 -0.110334
v 0.393989 0.019207 -0.119424
v 0.393989 0.064908 -0.110334
v 0.393989 0.103653 -0.084446
v 0.393989 0.129541 -0.045702
v 0.393989 0.138631 0.000000
v 0.393989 0.129541 0.045702
v 0.393989 0.103653 0.084445
v 0.393989 0.064908 0.110333
v 0.393989 0.019207 0.119425
v 0.393989 -0.026495 0.110333
v 0.393989 -0.065239 0.084445
v 0.379497 0.209895 -0.045474
v 0.334082 0.264199 0.000000
v 0.379497 0.209895 0.045474
v 0.379496 -0.171481 -0.045474
v 0.379496 -0.171481 0.045474
v 0.334082 -0.225785 -0.000000
v 0.379497 0.127409 0.168708
v 0.379497 0.200929 0.111971
v 0.334082 0.245613 0.137846
v 0.334072 0.143560 0.216337
v 0.379496 -0.162515 0.111971
v 0.379496 -0.088995 0.168708
v 0.334072 -0.105146 0.216337
v 0.334082 -0.207199 0.137846
v 0.379497 0.200929 -0.111971
v 0.379497 0.127409 -0.168708
v 0.334072 0.143560 -0.216337
v 0.334082 0.245613 -0.137847
v 0.379496 -0.088995 -0.168708
v 0.379496 -0.162515 -0.111971
v 0.334082 -0.207199 -0.137847
v 0.334072 -0.105146 -0.216337
v 0.379497 0.019207 0.168708
v 0.334070 0.019207 0.216283
v 0.379496 0.019207 -0.168708
v 0.334070 0.019207 -0.216283
v -0.312775 0.187439 -0.078290
v -0.312775 0.187439 0.078291
v 0.066304 0.283038 0.000000
v -0.312770 0.164035 0.121578
v -0.312679 0.128523 0.148577
v -0.168206 0.152188 0.245209
v 0.066302 0.263024 0.148447
v -0.312679 0.128523 -0.148577
v -0.312770 0.164035 -0.121578
v 0.066302 0.263024 -0.148447
v -0.168206 0.152189 -0.245209
v -0.312651 0.019207 -0.148571
v -0.241120 0.019207 -0.247808
v -0.312651 0.019207 0.148572
v -0.241119 0.019207 0.247808
v -0.312775 -0.149025 -0.078290
v 0.066304 -0.244625 0.000000
v -0.312775 -0.149025 0.078291
v -0.312679 -0.090109 0.148577
v -0.312770 -0.125622 0.121578
v 0.066302 -0.224610 0.148447
v -0.168206 -0.113774 0.245209
v -0.312770 -0.125622 -0.121578
v -0.312679 -0.090109 -0.148577
v -0.168206 -0.113774 -0.245209
v 0.066302 -0.224610 -0.148447
v -0.312651 0.019207 0.148572
v -0.241119 0.019207 0.247808
v -0.312651 0.019207 -0.148571
v -0.241120 0.019207 -0.247808
v 0.334082 -0.225785 -0.000000
v 0.066304 -0.244625 0.000000
v 0.066302 -0.224610 -0.148447
v 0.334082 -0.207199 -0.137847
v 0.334082 0.245613 -0.137847
v 0.066302 0.263024 -0.148447
v 0.066304 0.283038 0.000000
v 0.334082 0.264199 0.000000
v 0.066302 0.263024 0.148447
v 0.334082 0.245613 0.137846
v 0.066302 -0.224610 0.148447
v 0.334082 -0.207199 0.137846
v 0.334072 -0.105146 0.216337
v -0.168206 -0.113774 0.245209
v 0.334070 0.019207 0.216283
v -0.241119 0.019207 0.247808
v 0.334070 0.019207 -0.216283
v -0.241120 0.019207 -0.247808
v -0.168206 0.152189 -0.245209
v 0.334072 0.143560 -0.216337
v 0.379496 -0.088995 0.168708
v 0.379496 -0.162515 0.111971
v 0.379496 -0.171481 0.045474
v 0.379497 0.209895 0.045474
v 0.379497 0.200929 0.111971
v 0.379497 0.127409 0.168708
v 0.379497 0.019207 0.168708
v -0.312679 -0.090109 -0.148577
v -0.312770 -0.125622 -0.121578
v -0.312775 -0.149025 -0.078290
v -0.312775 0.187439 -0.078290
v -0.312770 0.164035 -0.121578
v -0.312679 0.128523 -0.148577
v -0.312651 0.019207 -0.148571
v 0.334072 -0.105146 -0.216337
v -0.168206 -0.113774 -0.245209
v 0.334072 0.143560 0.216337
v -0.168206 0.152188 0.245209
v -0.312775 -0.149025 0.078291
v -0.312775 0.187439 0.078291
v -0.312770 -0.125622 0.121578
v -0.312679 -0.090109 0.148577
v -0.312651 0.019207 0.148572
v -0.312679 0.128523 0.148577
v -0.312770 0.164035 0.121578
v 0.379496 -0.171481 -0.045474
v 0.379497 0.209895 -0.045474
v 0.379496 -0.162515 -0.111971
v 0.379496 -0.088995 -0.168708
v 0.379496 0.019207 -0.168708
v 0.379497 0.127409 -0.168708
v 0.379497 0.200929 -0.111971
v 0.338688 -0.116821 -0.000000
v 0.420305 -0.116821 -0.000000
v 0.420305 -0.106467 0.052056
v 0.338688 -0.106467 0.052056
v 0.420305 -0.076979 0.096186
v 0.338688 -0.076979 0.096186
v 0.420305 -0.032849 0.125673
v 0.338689 -0.032849 0.125673
v 0.420305 0.019207 0.136028
v 0.338689 0.019207 0.136028
v 0.420305 0.071262 0.125673
v 0.338689 0.071262 0.125673
v 0.420305 0.115393 0.096187
v 0.338689 0.115393 0.096187
v 0.420305 0.144880 0.052056
v 0.338689 0.144880 0.052056
v 0.420305 0.155235 0.000000
v 0.338689 0.155235 0.000000
v 0.420305 0.144880 -0.052056
v 0.338689 0.144880 -0.052056
v 0.420305 0.115393 -0.096187
v 0.338689 0.115393 -0.096187
v 0.420305 0.071263 -0.125673
v 0.338689 0.071263 -0.125673
v 0.420305 0.019207 -0.136028
v 0.338689 0.019207 -0.136028
v 0.420305 -0.032849 -0.125673
v 0.338689 -0.032849 -0.125673
v 0.420305 -0.076979 -0.096187
v 0.338688 -0.076979 -0.096187
v 0.420305 0.019207 -0.119425
v 0.420305 0.064908 -0.110334
v 0.393989 0.064908 -0.110334
v 0.393989 0.019207 -0.119424
v 0.420305 -0.106467 -0.052056
v 0.338688 -0.106467 -0.052056
v 0.420305 0.064908 0.110333
v 0.420305 0.019207 0.119425
v 0.393989 0.019207 0.119425
v 0.393989 0.064908 0.110333
v 0.420305 -0.026495 -0.110334
v 0.393989 -0.026495 -0.110334
v 0.420305 0.103653 0.084445
v 0.393989 0.103653 0.084445
v 0.420305 -0.065239 -0.084446
v 0.393989 -0.065239 -0.084446
v 0.420305 0.129541 0.045702
v 0.393989 0.129541 0.045702
v 0.420305 -0.091127 -0.045702
v 0.393989 -0.091127 -0.045702
v 0.420305 0.138631 0.000000
v 0.393989 0.138631 0.000000
v 0.420305 -0.091127 0.045702
v 0.420305 -0.100217 -0.000000
v 0.393989 -0.100217 -0.000000
v 0.393989 -0.091127 0.045702
v 0.420305 0.129541 -0.045702
v 0.393989 0.129541 -0.045702
v 0.420305 -0.065239 0.084445
v 0.393989 -0.065239 0.084445
v 0.420305 0.103653 -0.084446
v 0.393989 0.103653 -0.084446
v 0.420305 -0.026495 0.110333
v 0.393989 -0.026495 0.110333
v 0.000000 -0.074061 0.335193
v 0.000000 -0.074061 -0.335193
v 0.053113 -0.052061 -0.335193
v 0.053113 -0.052061 0.335193
v 0.075113 0.001052 -0.335193
v 0.075113 0.001052 0.335193
v 0.053113 0.054165 -0.335193
v 0.053113 0.054165 0.335193
v 0.000000 0.076166 -0.335193
v 0.000000 0.076166 0.335193
v -0.053113 0.054165 -0.335193
v -0.053113 0.054165 0.335193
v -0.075113 0.001052 -0.335193
v -0.075113 0.001052 0.335193
v -0.053113 -0.052061 -0.335193
v -0.053113 -0.052061 0.335193
vt 0.984707 0.091189
vt 0.984631 0.091007
vt 0.984690 0.090968
vt 0.984776 0.091176
vt 0.984492 0.090867
vt 0.984531 0.090809
vt 0.984310 0.090792
vt 0.984324 0.090723
vt 0.984113 0.090792
vt 0.984100 0.090723
vt 0.983931 0.090867
vt 0.983892 0.090809
vt 0.983792 0.091007
vt 0.983734 0.090968
vt 0.983717 0.091189
vt 0.983648 0.091176
vt 0.983717 0.091387
vt 0.983648 0.091401
vt 0.983792 0.091569
vt 0.983734 0.091608
vt 0.983931 0.091709
vt 0.983892 0.091768
vt 0.984113 0.091785
vt 0.984100 0.091854
vt 0.984310 0.091785
vt 0.984324 0.091854
vt 0.984492 0.091709
vt 0.984531 0.091768
vt 0.984631 0.091569
vt 0.984690 0.091608
vt 0.984707 0.091387
vt 0.984776 0.091401
vt 0.973969 0.907431
vt 0.973787 0.907506
vt 0.973590 0.907506
vt 0.973408 0.907431
vt 0.973269 0.907291
vt 0.973193 0.907109
vt 0.973193 0.906911
vt 0.973269 0.906729
vt 0.973408 0.906589
vt 0.973590 0.906513
vt 0.973787 0.906513
vt 0.973969 0.906589
vt 0.974108 0.906729
vt 0.974183 0.906911
vt 0.974183 0.907109
vt 0.974108 0.907291
vt 0.984053 0.096231
vt 0.983861 0.096460
vt 0.983669 0.096231
vt 0.984053 0.094614
vt 0.983669 0.094614
vt 0.983861 0.094383
vt 0.983148 0.095881
vt 0.983388 0.096193
vt 0.983279 0.096381
vt 0.982947 0.095949
vt 0.983388 0.094652
vt 0.983148 0.094964
vt 0.982947 0.094895
vt 0.983279 0.094462
vt 0.984335 0.096193
vt 0.984574 0.095881
vt 0.984776 0.095949
vt 0.984444 0.096381
vt 0.984574 0.094964
vt 0.984335 0.094652
vt 0.984444 0.094462
vt 0.984776 0.094895
vt 0.983148 0.095422
vt 0.982947 0.095422
vt 0.984574 0.095422
vt 0.984775 0.095422
vt 0.972566 0.104158
vt 0.972566 0.103494
vt 0.974183 0.103826
vt 0.972562 0.103311
vt 0.972557 0.103196
vt 0.973171 0.102787
vt 0.974180 0.103197
vt 0.972557 0.104456
vt 0.972562 0.104342
vt 0.974180 0.104456
vt 0.973171 0.104866
vt 0.975920 0.101566
vt 0.976381 0.101585
vt 0.976468 0.102201
vt 0.975920 0.101869
vt 0.975608 0.102182
vt 0.975147 0.102201
vt 0.975147 0.101899
vt 0.975695 0.101566
vt 0.983164 0.092787
vt 0.984776 0.093119
vt 0.983164 0.093450
vt 0.983159 0.093748
vt 0.983162 0.093634
vt 0.984774 0.093748
vt 0.983772 0.094158
vt 0.983162 0.092603
vt 0.983159 0.092489
vt 0.983772 0.092079
vt 0.984774 0.092489
vt 0.974453 0.090725
vt 0.974915 0.090725
vt 0.975002 0.091337
vt 0.974440 0.091028
vt 0.970854 0.097011
vt 0.971316 0.097011
vt 0.971329 0.097313
vt 0.970767 0.097622
vt 0.975002 0.092191
vt 0.973873 0.092192
vt 0.973871 0.091562
vt 0.975000 0.091607
vt 0.972121 0.092238
vt 0.970994 0.092283
vt 0.970997 0.091654
vt 0.972125 0.091654
vt 0.970994 0.091024
vt 0.972121 0.091069
vt 0.975227 0.095349
vt 0.975299 0.094213
vt 0.975740 0.094214
vt 0.975707 0.096344
vt 0.976265 0.094214
vt 0.976269 0.096653
vt 0.975000 0.092776
vt 0.973871 0.092821
vt 0.975429 0.102427
vt 0.975426 0.104866
vt 0.974864 0.104557
vt 0.974904 0.102427
vt 0.972979 0.098278
vt 0.972739 0.098589
vt 0.972458 0.098627
vt 0.972458 0.097011
vt 0.972739 0.097049
vt 0.972979 0.097360
vt 0.972979 0.097819
vt 0.978806 0.091803
vt 0.978920 0.091652
vt 0.979103 0.091553
vt 0.979103 0.092979
vt 0.978920 0.092880
vt 0.978806 0.092729
vt 0.978806 0.092266
vt 0.975955 0.102427
vt 0.975988 0.104557
vt 0.976396 0.102426
vt 0.976468 0.103562
vt 0.976791 0.094214
vt 0.976831 0.096344
vt 0.979765 0.091553
vt 0.979765 0.092979
vt 0.979948 0.091652
vt 0.980062 0.091803
vt 0.980062 0.092266
vt 0.980062 0.092729
vt 0.979948 0.092880
vt 0.974408 0.103562
vt 0.974483 0.102426
vt 0.977212 0.094213
vt 0.977287 0.095349
vt 0.972074 0.098627
vt 0.972074 0.097011
vt 0.971793 0.098589
vt 0.971553 0.098278
vt 0.971553 0.097819
vt 0.971553 0.097360
vt 0.971793 0.097049
vt 0.982181 0.090881
vt 0.982525 0.090881
vt 0.982524 0.091102
vt 0.982180 0.091102
vt 0.982521 0.091289
vt 0.982177 0.091289
vt 0.970286 0.104866
vt 0.969941 0.104866
vt 0.969941 0.104675
vt 0.970286 0.104675
vt 0.969941 0.104453
vt 0.970286 0.104453
vt 0.969941 0.104234
vt 0.970286 0.104234
vt 0.969941 0.104051
vt 0.970286 0.104051
vt 0.974216 0.091337
vt 0.973871 0.091337
vt 0.973866 0.091150
vt 0.974211 0.091150
vt 0.973864 0.090929
vt 0.974209 0.090929
vt 0.973866 0.090708
vt 0.974211 0.090708
vt 0.973871 0.090521
vt 0.974216 0.090521
vt 0.981952 0.091289
vt 0.981607 0.091289
vt 0.981607 0.091105
vt 0.981952 0.091105
vt 0.981607 0.090886
vt 0.981952 0.090886
vt 0.981607 0.090664
vt 0.981952 0.090664
vt 0.981607 0.090474
vt 0.981952 0.090474
vt 0.980448 0.091088
vt 0.980448 0.091283
vt 0.980337 0.091283
vt 0.980337 0.091088
vt 0.982177 0.090473
vt 0.982521 0.090473
vt 0.982524 0.090660
vt 0.982180 0.090660
vt 0.971329 0.098079
vt 0.971329 0.098274
vt 0.971217 0.098274
vt 0.971217 0.098079
vt 0.980448 0.090895
vt 0.980337 0.090895
vt 0.971328 0.097912
vt 0.971217 0.097912
vt 0.980448 0.090734
vt 0.980337 0.090734
vt 0.982822 0.092665
vt 0.982820 0.092501
vt 0.982931 0.092501
vt 0.982933 0.092665
vt 0.982821 0.093606
vt 0.982817 0.093442
vt 0.982928 0.093442
vt 0.982933 0.093606
vt 0.982823 0.092859
vt 0.982934 0.092859
vt 0.982821 0.093994
vt 0.982823 0.093800
vt 0.982934 0.093800
vt 0.982933 0.093994
vt 0.982822 0.093052
vt 0.982933 0.093052
vt 0.982817 0.094158
vt 0.982928 0.094158
vt 0.982820 0.093217
vt 0.982931 0.093217
vt 0.971329 0.098466
vt 0.971328 0.098627
vt 0.971217 0.098627
vt 0.971217 0.098466
vt 0.980448 0.091450
vt 0.980337 0.091450
vt 0.984888 0.104978
vt 0.984888 0.104978
vt 0.984888 0.104978
vt 0.984888 0.104978
vt 0.984888 0.104978
vt 0.984888 0.104978
vt 0.984888 0.104978
vt 0.984888 0.104978
vt 0.984888 0.104978
vt 0.984888 0.104978
vt 0.984888 0.104978
vt 0.984888 0.104978
vt 0.984888 0.104978
vt 0.984888 0.104978
vt 0.984888 0.104978
vt 0.984888 0.104978
vn 1.0000 0.0000 0.0000
vn 0.7671 0.6415 0.0000
vn 0.7671 -0.6415 0.0000
vn 0.7240 0.4209 0.5465
vn 0.7240 -0.4209 0.5465
vn 0.7240 0.4209 -0.5465
vn 0.7240 -0.4209 -0.5465
vn 0.7234 -0.0000 0.6904
vn 0.7234 -0.0002 0.6904
vn 0.7245 -0.6830 0.0921
vn 0.7245 0.6831 0.0921
vn 0.7234 -0.0000 -0.6904
vn 0.7234 0.0002 -0.6904
vn 0.7245 -0.6830 -0.0921
vn 0.7245 0.6831 -0.0921
vn 0.7234 -0.0002 -0.6904
vn 0.7234 0.0002 0.6904
vn -0.2445 0.9696 0.0000
vn -0.3012 0.8492 0.4336
vn -0.3012 0.8492 -0.4336
vn -0.2291 0.9494 0.2150
vn -0.6694 0.2090 -0.7129
vn -0.2291 0.9494 -0.2150
vn -0.6694 0.2090 0.7129
vn -0.2445 -0.9696 -0.0000
vn -0.3012 -0.8492 0.4336
vn -0.3012 -0.8492 -0.4336
vn -0.6694 -0.2090 0.7129
vn -0.2291 -0.9494 0.2150
vn -0.2291 -0.9494 -0.2150
vn -0.6694 -0.2090 -0.7129
vn 0.0696 -0.9886 -0.1333
vn 0.0696 0.9886 -0.1333
vn 0.0696 0.9886 0.1333
vn 0.0612 -0.5933 0.8026
vn 0.0559 0.0060 0.9984
vn 0.0559 -0.0000 0.9984
vn 0.0696 -0.9886 0.1333
vn 0.0559 0.0000 -0.9984
vn 0.0559 -0.0060 -0.9984
vn -1.0000 0.0000 -0.0014
vn -1.0000 -0.0000 -0.0012
vn 0.0559 0.0060 -0.9984
vn 0.0612 -0.5933 -0.8026
vn 0.0559 -0.0060 0.9984
vn -1.0000 0.0000 0.0012
vn -1.0000 0.0000 0.0014
vn 0.0612 0.5933 -0.8026
vn 0.0612 0.5933 0.8026
vn 0.0000 -0.9808 0.1951
vn 0.0000 -0.8315 0.5556
vn 0.0000 -0.5556 0.8315
vn 0.0000 -0.1951 0.9808
vn 0.0000 0.1951 0.9808
vn 0.0000 0.5556 0.8315
vn 0.0000 0.8315 0.5556
vn 0.0000 0.9808 0.1951
vn 0.0000 0.9808 -0.1951
vn 0.0000 0.8315 -0.5556
vn 0.0000 0.5556 -0.8315
vn 0.0000 0.1951 -0.9808
vn 0.0000 -0.1951 -0.9808
vn 0.0000 -0.5556 -0.8315
vn 0.0000 -0.8315 -0.5556
vn 0.0000 -0.9808 -0.1951
vn 0.3827 -0.9239 -0.0000
vn 0.9239 -0.3827 -0.0000
vn 0.9239 0.3827 0.0000
vn 0.3827 0.9239 0.0000
vn -0.3827 0.9239 0.0000
vn -0.9239 0.3827 0.0000
vn -0.9239 -0.3827 0.0000
vn -0.3827 -0.9239 0.0000
usemtl Material.001
s 1
f 187/254/43 188/255/43 189/256/43 190/257/43
f 188/255/43 191/258/43 192/259/43 189/256/43
f 191/258/43 193/260/43 194/261/43 192/259/43
f 193/260/43 195/262/43 196/263/43 194/261/43
f 195/262/43 197/264/43 198/265/43 196/263/43
f 197/264/43 199/266/43 200/267/43 198/265/43
f 199/266/43 201/268/43 202/269/43 200/267/43
f 201/268/43 203/270/43 204/271/43 202/269/43
f 203/270/43 205/272/43 206/273/43 204/271/43
f 205/272/43 207/274/43 208/275/43 206/273/43
f 207/274/43 209/276/43 210/277/43 208/275/43
f 209/276/43 211/278/43 212/279/43 210/277/43
f 211/278/43 213/280/43 214/281/43 212/279/43
f 213/280/43 215/282/43 216/283/43 214/281/43
f 215/282/43 217/284/43 218/285/43 216/283/43
f 217/284/43 187/254/43 190/257/43 218/285/43
f 219/286/43 220/287/43 221/288/43 222/289/43 223/290/43 224/291/43 225/292/43 226/293/43 227/294/43 228/295/43 229/296/43 230/297/43 231/298/43 232/299/43 233/300/43 234/301/43
f 235/302/44 236/303/44 237/304/44
f 238/305/45 239/306/45 240/307/45
f 241/308/46 242/309/46 243/310/46 244/311/46
f 245/312/47 246/313/47 247/314/47 248/315/47
f 249/316/48 250/317/48 251/318/48 252/319/48
f 253/320/49 254/321/49 255/322/49 256/323/49
f 257/324/50 241/308/51 244/311/51 258/325/50
f 239/306/52 245/312/52 248/315/52 240/307/52
f 242/309/53 237/304/53 236/303/53 243/310/53
f 259/326/54 253/320/55 256/323/55 260/327/54
f 254/321/56 238/305/56 240/307/56 255/322/56
f 235/302/57 249/316/57 252/319/57 236/303/57
f 250/317/58 259/326/54 260/327/54 251/318/58
f 246/313/59 257/324/50 258/325/50 247/314/59
f 261/328/60 262/329/60 263/330/60
f 264/331/61 265/332/61 266/333/61 267/334/61
f 268/335/62 269/336/62 270/337/62 271/338/62
f 267/334/63 263/330/63 262/329/63 264/331/63
f 272/339/64 268/340/64 271/341/64 273/342/64
f 263/330/65 270/337/65 269/336/65 261/328/65
f 265/343/66 274/344/66 275/345/66 266/346/66
f 276/347/67 277/348/67 278/349/67
f 279/350/68 280/351/68 281/352/68 282/353/68
f 283/354/69 284/355/69 285/356/69 286/357/69
f 287/358/70 279/359/70 282/360/70 288/361/70
f 277/348/71 281/352/71 280/351/71 278/349/71
f 276/347/72 283/354/72 286/357/72 277/348/72
f 284/362/73 289/363/73 290/364/73 285/365/73
f 291/366/74 292/367/74 293/368/74 294/369/74
f 295/370/75 296/371/75 297/372/75 298/373/75
f 298/373/76 297/372/76 299/374/76 300/375/76
f 301/376/77 302/377/77 303/378/77 304/379/77
f 304/379/78 303/378/78 305/380/79 306/381/79
f 302/382/80 301/383/80 292/367/80 291/366/80
f 307/384/81 308/385/81 309/386/82 310/387/82
f 311/388/43 312/389/43 313/390/43 314/391/43 315/392/43 316/393/43 317/394/43
f 318/395/83 319/396/83 320/397/84 321/398/84 322/399/83 323/400/83 324/401/83
f 325/402/85 326/403/85 308/385/81 307/384/81
f 294/404/86 293/405/86 326/403/86 325/402/86
f 306/381/79 305/380/79 327/406/87 328/407/87
f 329/408/88 330/409/88 321/398/84 320/397/84
f 329/408/88 331/410/89 332/411/89 333/412/89 334/413/89 335/414/89 330/409/88
f 296/415/90 295/416/90 310/387/90 309/386/90
f 300/417/91 299/418/91 328/407/91 327/406/91
f 336/419/43 337/420/43 314/391/43 313/390/43
f 336/419/43 338/421/43 339/422/43 340/423/43 341/424/43 342/425/43 337/420/43
f 343/426/92 344/427/92 345/428/92 346/429/92
f 346/429/93 345/428/93 347/430/93 348/431/93
f 348/432/94 347/433/94 349/434/94 350/435/94
f 350/435/95 349/434/95 351/436/95 352/437/95
f 352/437/96 351/436/96 353/438/96 354/439/96
f 354/439/97 353/438/97 355/440/97 356/441/97
f 356/442/98 355/443/98 357/444/98 358/445/98
f 358/445/99 357/444/99 359/446/99 360/447/99
f 360/447/100 359/446/100 361/448/100 362/449/100
f 362/449/101 361/448/101 363/450/101 364/451/101
f 364/452/102 363/453/102 365/454/102 366/455/102
f 366/455/103 365/454/103 367/456/103 368/457/103
f 368/457/104 367/456/104 369/458/104 370/459/104
f 370/459/105 369/458/105 371/460/105 372/461/105
f 373/462/95 374/463/95 375/464/95 376/465/95
f 372/466/106 371/467/106 377/468/106 378/469/106
f 378/469/107 377/468/107 344/427/107 343/426/107
f 379/470/104 380/471/104 381/472/104 382/473/104
f 383/474/96 373/462/96 376/465/96 384/475/96
f 385/476/105 379/470/105 382/473/105 386/477/105
f 387/478/97 383/474/97 384/475/97 388/479/97
f 389/480/106 385/481/106 386/482/106 390/483/106
f 391/484/98 387/485/98 388/486/98 392/487/98
f 393/488/107 389/480/107 390/483/107 394/489/107
f 395/490/100 396/491/100 397/492/100 398/493/100
f 396/491/99 391/484/99 392/487/99 397/492/99
f 399/494/92 393/488/92 394/489/92 400/495/92
f 401/496/101 395/490/101 398/493/101 402/497/101
f 403/498/93 399/494/93 400/495/93 404/499/93
f 405/500/102 401/501/102 402/502/102 406/503/102
f 374/463/94 403/504/94 404/505/94 375/464/94
f 380/471/103 405/500/103 406/503/103 381/472/103
f 407/506/108 408/507/108 409/508/108 410/509/108
f 410/509/109 409/508/109 411/510/109 412/511/109
f 412/511/110 411/510/110 413/512/110 414/513/110
f 414/513/111 413/512/111 415/514/111 416/515/111
f 416/515/112 415/514/112 417/516/112 418/517/112
f 418/517/113 417/516/113 419/518/113 420/519/113
f 420/519/114 419/518/114 421/520/114 422/521/114
f 422/521/115 421/520/115 408/507/115 407/506/115
o yaw
v 0.135043 0.552844 0.251523
v 0.135043 0.552844 0.000000
v 0.154158 0.571515 0.000000
v 0.154158 0.571515 0.247367
v 0.135043 0.802687 0.425404
v 0.135043 0.696370 0.425404
v 0.154158 0.698895 0.406733
v 0.154158 0.796738 0.406733
v 0.135043 0.909003 0.425404
v 0.154158 0.909003 0.406733
v 0.154158 0.571515 0.348937
v 0.154158 0.629311 0.406733
v 0.135043 0.621578 0.425404
v 0.135043 0.552844 0.356671
v 0.135487 0.664552 0.153445
v 0.135487 0.737537 0.239480
v 0.154158 0.732851 0.256817
v 0.154158 0.651331 0.160417
v 0.135487 0.779702 0.260563
v 0.135487 0.843693 0.282124
v 0.154158 0.834709 0.300173
v 0.154158 0.781556 0.281170
v 0.154158 0.645729 0.000000
v 0.135487 0.660329 0.000000
v 0.154158 0.909003 0.311205
v 0.135487 0.909003 0.292509
v 0.146036 0.980519 0.281878
v 0.151435 1.068477 0.281878
v 0.170106 1.068477 0.300573
v 0.164708 0.980519 0.300573
v 0.145593 0.980519 0.425404
v 0.164708 0.980519 0.406733
v 0.134424 1.121635 0.281878
v 0.153095 1.121635 0.300573
v 0.133980 1.121635 0.425404
v 0.150991 1.068477 0.425404
v 0.170106 1.068477 0.406733
v 0.153095 1.121635 0.406733
v 0.088495 1.174793 0.281878
v 0.107167 1.174793 0.300573
v 0.088052 1.174793 0.425404
v 0.107167 1.174793 0.406733
v 0.042867 1.206688 0.300573
v 0.061837 1.188016 0.281878
v 0.042867 1.206688 0.406733
v 0.061393 1.188017 0.425404
v 0.000000 1.188016 0.281878
v 0.000000 1.206688 0.300573
v 0.000000 1.206688 0.406733
v 0.000000 1.188017 0.425404
v 0.000000 0.802687 0.425404
v 0.135043 0.802687 0.425404
v 0.135043 0.909003 0.425404
v 0.000000 0.909003 0.425404
v 0.154158 0.645729 0.000000
v 0.154158 0.651331 0.160417
v 0.154158 0.620736 0.236406
v 0.154158 0.571515 0.247367
v 0.154158 0.571515 0.000000
v 0.000000 0.552844 0.252381
v 0.135043 0.552844 0.251523
v 0.135043 0.552844 0.356671
v 0.000000 0.552844 0.356671
v 0.000000 0.664552 0.153445
v 0.135487 0.664552 0.153445
v 0.135487 0.660329 0.000000
v 0.000000 0.660329 0.000000
v 0.000000 0.552844 0.000000
v 0.135043 0.552844 0.000000
v 0.154158 0.705461 0.358167
v 0.154158 0.698895 0.406733
v 0.154158 0.629311 0.406733
v 0.154158 0.571515 0.348937
v 0.135043 0.621578 0.425404
v 0.000000 0.621578 0.425404
v 0.154158 0.796738 0.406733
v 0.154158 0.791323 0.389734
v 0.154158 0.834709 0.300173
v 0.154158 0.909003 0.311205
v 0.154158 0.909003 0.406733
v 0.154158 0.732851 0.256817
v 0.164708 0.980519 0.406733
v 0.164708 0.980519 0.300573
v 0.170106 1.068477 0.300573
v 0.170106 1.068477 0.406733
v 0.154158 0.781556 0.281170
v 0.000000 0.988740 0.425404
v 0.145593 0.980519 0.425404
v 0.150991 1.068477 0.425404
v 0.000000 1.068477 0.425404
v 0.000000 1.121635 0.425404
v 0.133980 1.121635 0.425404
v 0.088052 1.174793 0.425404
v 0.000000 1.174793 0.425404
v 0.153095 1.121635 0.300573
v 0.153095 1.121635 0.406733
v 0.107167 1.174793 0.406733
v 0.107167 1.174793 0.300573
v 0.042867 1.206688 0.300573
v 0.042867 1.206688 0.406733
v 0.000000 1.206688 0.406733
v 0.000000 1.206688 0.300573
v 0.061393 1.188017 0.425404
v 0.000000 1.188017 0.425404
v 0.000000 0.696370 0.425404
v 0.135043 0.696370 0.425404
v 0.088495 1.174793 0.281878
v 0.000000 1.174793 0.281878
v 0.000000 1.188016 0.281878
v 0.061837 1.188016 0.281878
v 0.135487 0.843693 0.282124
v 0.000000 0.843693 0.282124
v 0.000000 0.909003 0.292509
v 0.135487 0.909003 0.292509
v 0.134424 1.121635 0.281878
v 0.000000 1.121635 0.281878
v 0.135487 0.737537 0.239480
v 0.000000 0.737537 0.239480
v 0.000000 0.779702 0.260563
v 0.135487 0.779702 0.260563
v 0.151435 1.068477 0.281878
v 0.000000 1.068477 0.281878
v 0.146036 0.980519 0.281878
v 0.000000 0.988740 0.281878
v 0.135043 0.552844 -0.251523
v 0.154158 0.571515 -0.247367
v 0.135043 0.802687 -0.425405
v 0.154158 0.796738 -0.406733
v 0.154158 0.698895 -0.406733
v 0.135043 0.696371 -0.425405
v 0.135043 0.909003 -0.425405
v 0.154158 0.909003 -0.406733
v 0.154158 0.571515 -0.348937
v 0.135043 0.552844 -0.356671
v 0.135043 0.621577 -0.425405
v 0.154158 0.629311 -0.406733
v 0.135487 0.664552 -0.153444
v 0.154158 0.651331 -0.160417
v 0.154158 0.732851 -0.256818
v 0.135487 0.737537 -0.239480
v 0.135487 0.779702 -0.260563
v 0.154158 0.781556 -0.281169
v 0.154158 0.834709 -0.300173
v 0.135487 0.843693 -0.282125
v 0.154158 0.909003 -0.311205
v 0.135487 0.909003 -0.292509
v 0.146036 0.980520 -0.281878
v 0.164708 0.980520 -0.300574
v 0.170106 1.068477 -0.300574
v 0.151435 1.068477 -0.281878
v 0.145593 0.980520 -0.425405
v 0.164708 0.980520 -0.406733
v 0.153095 1.121635 -0.300574
v 0.134424 1.121635 -0.281878
v 0.133980 1.121635 -0.425405
v 0.153095 1.121635 -0.406733
v 0.170106 1.068477 -0.406733
v 0.150991 1.068477 -0.425405
v 0.107167 1.174793 -0.300574
v 0.088495 1.174793 -0.281878
v 0.088052 1.174793 -0.425405
v 0.107167 1.174793 -0.406733
v 0.042867 1.206688 -0.300573
v 0.061837 1.188016 -0.281878
v 0.061393 1.188016 -0.425405
v 0.042867 1.206688 -0.406733
v 0.000000 1.206688 -0.300573
v 0.000000 1.188016 -0.281878
v 0.000000 1.188016 -0.425405
v 0.000000 1.206688 -0.406733
v 0.000000 0.802687 -0.425405
v 0.000000 0.909003 -0.425405
v 0.135043 0.909003 -0.425405
v 0.135043 0.802687 -0.425405
v 0.154158 0.571515 -0.247367
v 0.154158 0.620736 -0.236407
v 0.154158 0.651331 -0.160417
v 0.000000 0.552844 -0.252381
v 0.000000 0.552844 -0.356671
v 0.135043 0.552844 -0.356671
v 0.135043 0.552844 -0.251523
v 0.000000 0.664552 -0.153444
v 0.135487 0.664552 -0.153444
v 0.154158 0.571515 -0.348937
v 0.154158 0.629311 -0.406733
v 0.154158 0.698895 -0.406733
v 0.154158 0.705461 -0.358167
v 0.000000 0.621577 -0.425405
v 0.135043 0.621577 -0.425405
v 0.154158 0.796738 -0.406733
v 0.154158 0.909003 -0.406733
v 0.154158 0.909003 -0.311205
v 0.154158 0.834709 -0.300173
v 0.154158 0.791323 -0.389735
v 0.154158 0.732851 -0.256818
v 0.164708 0.980520 -0.406733
v 0.170106 1.068477 -0.406733
v 0.170106 1.068477 -0.300574
v 0.164708 0.980520 -0.300574
v 0.154158 0.781556 -0.281169
v 0.000000 0.988740 -0.425405
v 0.000000 1.068477 -0.425405
v 0.150991 1.068477 -0.425405
v 0.145593 0.980520 -0.425405
v 0.000000 1.121635 -0.425405
v 0.000000 1.174793 -0.425405
v 0.088052 1.174793 -0.425405
v 0.133980 1.121635 -0.425405
v 0.153095 1.121635 -0.406733
v 0.153095 1.121635 -0.300574
v 0.107167 1.174793 -0.406733
v 0.042867 1.206688 -0.406733
v 0.042867 1.206688 -0.300573
v 0.107167 1.174793 -0.300574
v 0.000000 1.206688 -0.406733
v 0.000000 1.206688 -0.300573
v 0.000000 1.188016 -0.425405
v 0.061393 1.188016 -0.425405
v 0.000000 0.696371 -0.425405
v 0.135043 0.696371 -0.425405
v 0.088495 1.174793 -0.281878
v 0.061837 1.188016 -0.281878
v 0.000000 1.188016 -0.281878
v 0.000000 1.174793 -0.281878
v 0.135487 0.843693 -0.282125
v 0.135487 0.909003 -0.292509
v 0.000000 0.909003 -0.292509
v 0.000000 0.843693 -0.282125
v 0.134424 1.121635 -0.281878
v 0.000000 1.121635 -0.281878
v 0.135487 0.737537 -0.239480
v 0.135487 0.779702 -0.260563
v 0.000000 0.779702 -0.260563
v 0.000000 0.737537 -0.239480
v 0.151435 1.068477 -0.281878
v 0.000000 1.068477 -0.281878
v 0.146036 0.980520 -0.281878
v 0.000000 0.988740 -0.281878
v -0.135043 0.552844 0.251523
v -0.154158 0.571515 0.247367
v -0.154158 0.571515 0.000000
v -0.135043 0.552844 0.000000
v -0.135043 0.802687 0.425404
v -0.154158 0.796738 0.406733
v -0.154158 0.698895 0.406733
v -0.135043 0.696370 0.425404
v -0.135043 0.909003 0.425404
v -0.154158 0.909003 0.406733
v -0.154158 0.571515 0.348937
v -0.135043 0.552844 0.356671
v -0.135043 0.621578 0.425404
v -0.154158 0.629311 0.406733
v -0.135487 0.664552 0.153445
v -0.154158 0.651331 0.160417
v -0.154158 0.732851 0.256817
v -0.135487 0.737537 0.239480
v -0.135487 0.779702 0.260563
v -0.154158 0.781556 0.281170
v -0.154158 0.834709 0.300173
v -0.135487 0.843693 0.282124
v -0.135487 0.660329 0.000000
v -0.154158 0.645729 0.000000
v -0.154158 0.909003 0.311205
v -0.135487 0.909003 0.292509
v -0.146036 0.980519 0.281878
v -0.164708 0.980519 0.300573
v -0.170106 1.068477 0.300573
v -0.151435 1.068477 0.281878
v -0.145593 0.980519 0.425404
v -0.164708 0.980519 0.406733
v -0.153095 1.121635 0.300573
v -0.134424 1.121635 0.281878
v -0.133980 1.121635 0.425404
v -0.153095 1.121635 0.406733
v -0.170106 1.068477 0.406733
v -0.150991 1.068477 0.425404
v -0.107167 1.174793 0.300573
v -0.088495 1.174793 0.281878
v -0.088052 1.174793 0.425404
v -0.107167 1.174793 0.406733
v -0.042867 1.206688 0.300573
v -0.061837 1.188016 0.281878
v -0.061393 1.188017 0.425404
v -0.042867 1.206688 0.406733
v -0.135043 0.909003 0.425404
v -0.135043 0.802687 0.425404
v -0.154158 0.645729 0.000000
v -0.154158 0.571515 0.000000
v -0.154158 0.571515 0.247367
v -0.154158 0.620736 0.236406
v -0.154158 0.651331 0.160417
v -0.135043 0.552844 0.356671
v -0.135043 0.552844 0.251523
v -0.135487 0.660329 0.000000
v -0.135487 0.664552 0.153445
v -0.135043 0.552844 0.000000
v -0.154158 0.571515 0.348937
v -0.154158 0.629311 0.406733
v -0.154158 0.698895 0.406733
v -0.154158 0.705461 0.358167
v -0.135043 0.621578 0.425404
v -0.154158 0.796738 0.406733
v -0.154158 0.909003 0.406733
v -0.154158 0.909003 0.311205
v -0.154158 0.834709 0.300173
v -0.154158 0.791323 0.389734
v -0.154158 0.732851 0.256817
v -0.164708 0.980519 0.406733
v -0.170106 1.068477 0.406733
v -0.170106 1.068477 0.300573
v -0.164708 0.980519 0.300573
v -0.154158 0.781556 0.281170
v -0.150991 1.068477 0.425404
v -0.145593 0.980519 0.425404
v -0.088052 1.174793 0.425404
v -0.133980 1.121635 0.425404
v -0.153095 1.121635 0.406733
v -0.153095 1.121635 0.300573
v -0.107167 1.174793 0.406733
v -0.042867 1.206688 0.406733
v -0.042867 1.206688 0.300573
v -0.107167 1.174793 0.300573
v -0.061393 1.188017 0.425404
v -0.135043 0.696370 0.425404
v -0.088495 1.174793 0.281878
v -0.061837 1.188016 0.281878
v -0.135487 0.843693 0.282124
v -0.135487 0.909003 0.292509
v -0.134424 1.121635 0.281878
v -0.135487 0.737537 0.239480
v -0.135487 0.779702 0.260563
v -0.151435 1.068477 0.281878
v -0.146036 0.980519 0.281878
v -0.135043 0.552844 -0.251523
v -0.154158 0.571515 -0.247367
v -0.135043 0.802687 -0.425405
v -0.135043 0.696371 -0.425405
v -0.154158 0.698895 -0.406733
v -0.154158 0.796738 -0.406733
v -0.135043 0.909003 -0.425405
v -0.154158 0.909003 -0.406733
v -0.154158 0.571515 -0.348937
v -0.154158 0.629311 -0.406733
v -0.135043 0.621577 -0.425405
v -0.135043 0.552844 -0.356671
v -0.135487 0.664552 -0.153444
v -0.135487 0.737537 -0.239480
v -0.154158 0.732851 -0.256818
v -0.154158 0.651331 -0.160417
v -0.135487 0.779702 -0.260563
v -0.135487 0.843693 -0.282125
v -0.154158 0.834709 -0.300173
v -0.154158 0.781556 -0.281169
v -0.154158 0.909003 -0.311205
v -0.135487 0.909003 -0.292509
v -0.146036 0.980520 -0.281878
v -0.151435 1.068477 -0.281878
v -0.170106 1.068477 -0.300574
v -0.164708 0.980520 -0.300574
v -0.145593 0.980520 -0.425405
v -0.164708 0.980520 -0.406733
v -0.134424 1.121635 -0.281878
v -0.153095 1.121635 -0.300574
v -0.133980 1.121635 -0.425405
v -0.150991 1.068477 -0.425405
v -0.170106 1.068477 -0.406733
v -0.153095 1.121635 -0.406733
v -0.088495 1.174793 -0.281878
v -0.107167 1.174793 -0.300574
v -0.088052 1.174793 -0.425405
v -0.107167 1.174793 -0.406733
v -0.042867 1.206688 -0.300573
v -0.061837 1.188016 -0.281878
v -0.042867 1.206688 -0.406733
v -0.061393 1.188016 -0.425405
v -0.135043 0.802687 -0.425405
v -0.135043 0.909003 -0.425405
v -0.154158 0.651331 -0.160417
v -0.154158 0.620736 -0.236407
v -0.154158 0.571515 -0.247367
v -0.135043 0.552844 -0.251523
v -0.135043 0.552844 -0.356671
v -0.135487 0.664552 -0.153444
v -0.154158 0.705461 -0.358167
v -0.154158 0.698895 -0.406733
v -0.154158 0.629311 -0.406733
v -0.154158 0.571515 -0.348937
v -0.135043 0.621577 -0.425405
v -0.154158 0.796738 -0.406733
v -0.154158 0.791323 -0.389735
v -0.154158 0.834709 -0.300173
v -0.154158 0.909003 -0.311205
v -0.154158 0.909003 -0.406733
v -0.154158 0.732851 -0.256818
v -0.164708 0.980520 -0.406733
v -0.164708 0.980520 -0.300574
v -0.170106 1.068477 -0.300574
v -0.170106 1.068477 -0.406733
v -0.154158 0.781556 -0.281169
v -0.145593 0.980520 -0.425405
v -0.150991 1.068477 -0.425405
v -0.133980 1.121635 -0.425405
v -0.088052 1.174793 -0.425405
v -0.153095 1.121635 -0.300574
v -0.153095 1.121635 -0.406733
v -0.107167 1.174793 -0.406733
v -0.107167 1.174793 -0.300574
v -0.042867 1.206688 -0.300573
v -0.042867 1.206688 -0.406733
v -0.061393 1.188016 -0.425405
v -0.135043 0.696371 -0.425405
v -0.088495 1.174793 -0.281878
v -0.061837 1.188016 -0.281878
v -0.135487 0.843693 -0.282125
v -0.135487 0.909003 -0.292509
v -0.134424 1.121635 -0.281878
v -0.135487 0.737537 -0.239480
v -0.135487 0.779702 -0.260563
v -0.151435 1.068477 -0.281878
v -0.146036 0.980520 -0.281878
v 0.270114 0.602793 0.111885
v 0.292369 0.602793 0.000000
v 0.226114 0.667775 0.000000
v 0.208902 0.667775 0.086530
v 0.206736 0.602793 0.206736
v 0.159886 0.667775 0.159886
v -0.206736 0.602793 0.206737
v -0.111885 0.602793 0.270114
v -0.086530 0.667775 0.208902
v -0.159886 0.667775 0.159886
v -0.270114 0.602793 0.111885
v -0.208902 0.667775 0.086530
v 0.000000 0.602793 -0.292369
v -0.111885 0.602793 -0.270114
v -0.086530 0.667775 -0.208901
v 0.000000 0.667775 -0.226114
v 0.111885 0.602793 -0.270114
v 0.086530 0.667775 -0.208901
v 0.206736 0.602793 -0.206736
v 0.159886 0.667775 -0.159886
v 0.000000 0.602793 0.292369
v 0.111885 0.602793 0.270114
v 0.086530 0.667775 0.208902
v 0.000000 0.667775 0.226113
v -0.270114 0.602793 -0.111885
v -0.292369 0.602793 0.000000
v -0.226113 0.667775 0.000000
v -0.208902 0.667775 -0.086530
v -0.206736 0.602793 -0.206736
v -0.159886 0.667775 -0.159886
v 0.270114 0.602793 -0.111885
v 0.208902 0.667775 -0.086530
v 0.270114 0.492354 -0.111885
v 0.270114 0.602793 -0.111885
v 0.292369 0.602793 0.000000
v 0.292369 0.492354 0.000000
v 0.208902 0.667775 0.086530
v 0.226114 0.667775 0.000000
v 0.208902 0.667775 -0.086530
v 0.159886 0.667775 -0.159886
v 0.086530 0.667775 -0.208901
v 0.000000 0.667775 -0.226114
v -0.086530 0.667775 -0.208901
v -0.159886 0.667775 -0.159886
v -0.208902 0.667775 -0.086530
v -0.226113 0.667775 0.000000
v -0.208902 0.667775 0.086530
v -0.159886 0.667775 0.159886
v -0.086530 0.667775 0.208902
v 0.000000 0.667775 0.226113
v 0.086530 0.667775 0.208902
v 0.159886 0.667775 0.159886
v 0.206736 0.492354 0.206737
v 0.206736 0.602793 0.206736
v 0.111885 0.602793 0.270114
v 0.111885 0.492354 0.270114
v -0.111885 0.492354 0.270114
v -0.111885 0.602793 0.270114
v -0.206736 0.602793 0.206737
v -0.206736 0.492354 0.206737
v -0.292369 0.492354 0.000000
v -0.292369 0.602793 0.000000
v -0.270114 0.602793 -0.111885
v -0.270114 0.492354 -0.111885
v -0.270114 0.602793 0.111885
v -0.270114 0.492354 0.111885
v 0.000000 0.492354 0.292369
v 0.000000 0.602793 0.292369
v -0.111885 0.492354 -0.270114
v -0.111885 0.602793 -0.270114
v 0.000000 0.602793 -0.292369
v 0.000000 0.492354 -0.292369
v -0.206736 0.602793 -0.206736
v -0.206736 0.492354 -0.206736
v 0.111885 0.602793 -0.270114
v 0.111885 0.492354 -0.270114
v 0.206736 0.602793 -0.206736
v 0.206736 0.492354 -0.206736
v 0.270114 0.492354 0.111885
v 0.270114 0.602793 0.111885
vt 0.980343 0.099688
vt 0.980343 0.098622
vt 0.980427 0.098622
vt 0.980427 0.099670
vt 0.969858 0.091233
vt 0.969820 0.090784
vt 0.969901 0.090790
vt 0.969936 0.091203
vt 0.969896 0.091682
vt 0.969976 0.091677
vt 0.972430 0.091392
vt 0.972430 0.091739
vt 0.972351 0.091772
vt 0.972351 0.091360
vt 0.969876 0.090496
vt 0.969793 0.090468
vt 0.980427 0.100101
vt 0.980343 0.100134
vt 0.969712 0.096608
vt 0.969966 0.096202
vt 0.970041 0.096199
vt 0.969758 0.096653
vt 0.969996 0.096005
vt 0.970001 0.095719
vt 0.970086 0.095732
vt 0.970077 0.095971
vt 0.980426 0.095525
vt 0.980427 0.096205
vt 0.980347 0.096205
vt 0.980346 0.095554
vt 0.970035 0.095418
vt 0.969959 0.095442
vt 0.969825 0.095167
vt 0.969712 0.094811
vt 0.969788 0.094788
vt 0.969901 0.095143
vt 0.969966 0.091980
vt 0.970046 0.091975
vt 0.981261 0.091251
vt 0.981313 0.091020
vt 0.981382 0.091058
vt 0.981330 0.091289
vt 0.969967 0.092580
vt 0.970020 0.092349
vt 0.970101 0.092345
vt 0.970048 0.092575
vt 0.981261 0.090727
vt 0.981330 0.090765
vt 0.969793 0.092821
vt 0.969874 0.092816
vt 0.971554 0.103732
vt 0.971554 0.103456
vt 0.971633 0.103535
vt 0.971633 0.103650
vt 0.970643 0.103732
vt 0.970643 0.103456
vt 0.970722 0.103537
vt 0.970722 0.103651
vt 0.970125 0.100650
vt 0.970125 0.100387
vt 0.970207 0.100387
vt 0.970207 0.100569
vt 0.969635 0.104787
vt 0.969635 0.104605
vt 0.969716 0.104605
vt 0.969716 0.104866
vt 0.972341 0.099620
vt 0.972912 0.099620
vt 0.972912 0.100070
vt 0.972341 0.100070
vt 0.979748 0.099529
vt 0.979725 0.098849
vt 0.979854 0.098526
vt 0.980062 0.098480
vt 0.980062 0.099529
vt 0.974420 0.095919
vt 0.974990 0.095916
vt 0.974990 0.096361
vt 0.974420 0.096361
vt 0.973053 0.092362
vt 0.973625 0.092362
vt 0.973626 0.093012
vt 0.973053 0.093012
vt 0.974420 0.094849
vt 0.974990 0.094849
vt 0.979496 0.098010
vt 0.979523 0.097804
vt 0.979818 0.097804
vt 0.980062 0.098049
vt 0.975002 0.096653
vt 0.974432 0.096653
vt 0.979110 0.097804
vt 0.979133 0.097877
vt 0.978950 0.098256
vt 0.978636 0.098209
vt 0.978636 0.097804
vt 0.979380 0.098440
vt 0.978334 0.097804
vt 0.978334 0.098254
vt 0.977962 0.098254
vt 0.977962 0.097804
vt 0.979174 0.098337
vt 0.972341 0.100408
vt 0.972956 0.100374
vt 0.972979 0.100746
vt 0.972341 0.100746
vt 0.972341 0.100971
vt 0.972907 0.100971
vt 0.972713 0.101197
vt 0.972341 0.101197
vt 0.977737 0.098254
vt 0.977737 0.097804
vt 0.971633 0.104866
vt 0.971184 0.104866
vt 0.971184 0.104590
vt 0.971633 0.104590
vt 0.977511 0.098254
vt 0.977511 0.097804
vt 0.971633 0.104408
vt 0.971184 0.104408
vt 0.972601 0.101253
vt 0.972341 0.101253
vt 0.972341 0.099170
vt 0.972912 0.099170
vt 0.977021 0.092130
vt 0.976647 0.092130
vt 0.976647 0.092074
vt 0.976908 0.092074
vt 0.977219 0.093533
vt 0.976647 0.093533
vt 0.976647 0.093255
vt 0.977219 0.093255
vt 0.977215 0.092355
vt 0.976647 0.092355
vt 0.977220 0.093988
vt 0.976647 0.093988
vt 0.976647 0.093807
vt 0.977219 0.093807
vt 0.977287 0.092580
vt 0.976647 0.092580
vt 0.973045 0.091997
vt 0.973618 0.091997
vt 0.977264 0.092953
vt 0.976647 0.092918
vt 0.972341 0.098853
vt 0.972912 0.098853
vt 0.980343 0.097556
vt 0.980427 0.097573
vt 0.969905 0.098974
vt 0.969983 0.099004
vt 0.969948 0.099417
vt 0.969867 0.099423
vt 0.969943 0.098525
vt 0.970023 0.098530
vt 0.972430 0.091102
vt 0.972351 0.091134
vt 0.972351 0.090722
vt 0.972430 0.090755
vt 0.969923 0.099711
vt 0.969840 0.099739
vt 0.980343 0.097110
vt 0.980427 0.097143
vt 0.972655 0.089952
vt 0.972700 0.089907
vt 0.972984 0.090360
vt 0.972908 0.090357
vt 0.972939 0.090554
vt 0.973019 0.090588
vt 0.973028 0.090827
vt 0.972943 0.090841
vt 0.980426 0.096885
vt 0.980346 0.096855
vt 0.972977 0.091141
vt 0.972902 0.091118
vt 0.972767 0.091393
vt 0.972843 0.091416
vt 0.972730 0.091772
vt 0.972655 0.091748
vt 0.970013 0.098227
vt 0.970093 0.098232
vt 0.970421 0.097099
vt 0.970490 0.097061
vt 0.970542 0.097291
vt 0.970473 0.097329
vt 0.970014 0.097627
vt 0.970095 0.097632
vt 0.970148 0.097862
vt 0.970067 0.097858
vt 0.970490 0.097584
vt 0.970421 0.097622
vt 0.969840 0.097386
vt 0.969921 0.097391
vt 0.971250 0.103456
vt 0.971329 0.103539
vt 0.971329 0.103653
vt 0.971250 0.103732
vt 0.970947 0.103456
vt 0.971025 0.103537
vt 0.971025 0.103652
vt 0.970947 0.103732
vt 0.977738 0.089941
vt 0.977820 0.090021
vt 0.977820 0.090203
vt 0.977738 0.090203
vt 0.970633 0.090164
vt 0.970552 0.090243
vt 0.970552 0.089983
vt 0.970633 0.089983
vt 0.972987 0.095885
vt 0.972987 0.095435
vt 0.973558 0.095435
vt 0.973558 0.095885
vt 0.980062 0.100577
vt 0.979854 0.100531
vt 0.979725 0.100209
vt 0.974420 0.093779
vt 0.974420 0.093337
vt 0.974990 0.093337
vt 0.974990 0.093783
vt 0.973053 0.093663
vt 0.973625 0.093663
vt 0.980062 0.101008
vt 0.979818 0.101253
vt 0.979523 0.101253
vt 0.979496 0.101047
vt 0.974432 0.093046
vt 0.975002 0.093046
vt 0.979110 0.101253
vt 0.978636 0.101253
vt 0.978636 0.100848
vt 0.978950 0.100801
vt 0.979133 0.101181
vt 0.979380 0.100617
vt 0.978334 0.101253
vt 0.977962 0.101253
vt 0.977962 0.100803
vt 0.978334 0.100803
vt 0.979174 0.100720
vt 0.972987 0.095097
vt 0.972987 0.094759
vt 0.973626 0.094759
vt 0.973603 0.095132
vt 0.972987 0.094534
vt 0.972987 0.094309
vt 0.973359 0.094309
vt 0.973554 0.094534
vt 0.977737 0.101253
vt 0.977737 0.100803
vt 0.970511 0.104866
vt 0.970511 0.104590
vt 0.970959 0.104590
vt 0.970959 0.104866
vt 0.977511 0.101253
vt 0.977511 0.100803
vt 0.970511 0.104408
vt 0.970959 0.104408
vt 0.972987 0.094253
vt 0.973247 0.094253
vt 0.972987 0.096336
vt 0.973558 0.096336
vt 0.981511 0.091570
vt 0.981624 0.091514
vt 0.981885 0.091514
vt 0.981885 0.091570
vt 0.981313 0.092973
vt 0.981313 0.092695
vt 0.981886 0.092695
vt 0.981885 0.092973
vt 0.981317 0.091795
vt 0.981885 0.091795
vt 0.981313 0.093428
vt 0.981313 0.093247
vt 0.981885 0.093247
vt 0.981885 0.093428
vt 0.981246 0.092021
vt 0.981885 0.092021
vt 0.973618 0.094027
vt 0.973045 0.094027
vt 0.981268 0.092393
vt 0.981885 0.092358
vt 0.973558 0.096653
vt 0.972987 0.096653
vt 0.970310 0.093783
vt 0.970389 0.093801
vt 0.970389 0.094849
vt 0.970310 0.094849
vt 0.969963 0.102463
vt 0.970042 0.102492
vt 0.970007 0.102905
vt 0.969926 0.102912
vt 0.970002 0.102014
vt 0.970082 0.102018
vt 0.970389 0.093370
vt 0.970310 0.093337
vt 0.970601 0.093046
vt 0.970633 0.093125
vt 0.969982 0.103199
vt 0.969899 0.103227
vt 0.973252 0.089951
vt 0.973297 0.089907
vt 0.973581 0.090360
vt 0.973505 0.090357
vt 0.973536 0.090554
vt 0.973617 0.090588
vt 0.973626 0.090827
vt 0.973541 0.090840
vt 0.980349 0.093939
vt 0.980427 0.093969
vt 0.980427 0.094619
vt 0.980350 0.094619
vt 0.973575 0.091141
vt 0.973499 0.091118
vt 0.973365 0.091393
vt 0.973440 0.091416
vt 0.973328 0.091772
vt 0.973252 0.091748
vt 0.970071 0.101716
vt 0.970152 0.101720
vt 0.971210 0.092557
vt 0.971280 0.092519
vt 0.971332 0.092749
vt 0.971263 0.092788
vt 0.970073 0.101116
vt 0.970154 0.101120
vt 0.970207 0.101351
vt 0.970126 0.101346
vt 0.971280 0.093042
vt 0.971210 0.093081
vt 0.969899 0.100875
vt 0.969980 0.100879
vt 0.970339 0.103463
vt 0.970418 0.103541
vt 0.970418 0.103653
vt 0.970339 0.103732
vt 0.970036 0.103463
vt 0.970115 0.103544
vt 0.970115 0.103655
vt 0.970036 0.103732
vt 0.970125 0.100125
vt 0.970207 0.100206
vt 0.969635 0.104424
vt 0.969716 0.104345
vt 0.971770 0.100070
vt 0.971770 0.099620
vt 0.982539 0.098410
vt 0.982225 0.098410
vt 0.982225 0.097361
vt 0.982433 0.097407
vt 0.982563 0.097730
vt 0.973850 0.096361
vt 0.973850 0.095916
vt 0.972481 0.093012
vt 0.972480 0.092362
vt 0.973850 0.094849
vt 0.982225 0.096930
vt 0.982470 0.096685
vt 0.982764 0.096685
vt 0.982791 0.096891
vt 0.973862 0.096653
vt 0.983177 0.096685
vt 0.983652 0.096685
vt 0.983652 0.097090
vt 0.983338 0.097137
vt 0.983154 0.096758
vt 0.982907 0.097321
vt 0.983954 0.096685
vt 0.984325 0.096685
vt 0.984325 0.097135
vt 0.983954 0.097135
vt 0.983113 0.097218
vt 0.971703 0.100746
vt 0.971726 0.100374
vt 0.971969 0.101197
vt 0.971775 0.100971
vt 0.984550 0.096685
vt 0.984550 0.097135
vt 0.971633 0.103957
vt 0.971633 0.104227
vt 0.971184 0.104227
vt 0.971184 0.103957
vt 0.984776 0.096685
vt 0.984776 0.097135
vt 0.972082 0.101253
vt 0.971770 0.099170
vt 0.976273 0.092130
vt 0.976385 0.092074
vt 0.976074 0.093533
vt 0.976074 0.093255
vt 0.976079 0.092355
vt 0.976074 0.093988
vt 0.976074 0.093807
vt 0.976007 0.092580
vt 0.972473 0.091997
vt 0.976030 0.092953
vt 0.971770 0.098853
vt 0.970310 0.095916
vt 0.970389 0.095898
vt 0.970390 0.091233
vt 0.970352 0.090784
vt 0.970434 0.090790
vt 0.970469 0.091203
vt 0.970428 0.091682
vt 0.970509 0.091677
vt 0.970389 0.096328
vt 0.970633 0.096573
vt 0.970601 0.096653
vt 0.970310 0.096361
vt 0.970409 0.090496
vt 0.970325 0.090468
vt 0.976221 0.091804
vt 0.976474 0.091399
vt 0.976550 0.091396
vt 0.976266 0.091849
vt 0.976505 0.091201
vt 0.976510 0.090915
vt 0.976594 0.090928
vt 0.976586 0.091167
vt 0.980349 0.095299
vt 0.980427 0.095270
vt 0.976543 0.090614
vt 0.976468 0.090638
vt 0.976334 0.090363
vt 0.976221 0.090007
vt 0.976296 0.089984
vt 0.976409 0.090339
vt 0.970498 0.091980
vt 0.970579 0.091975
vt 0.970864 0.093042
vt 0.970917 0.092812
vt 0.970986 0.092850
vt 0.970933 0.093081
vt 0.970500 0.092580
vt 0.970552 0.092349
vt 0.970633 0.092345
vt 0.970580 0.092575
vt 0.970864 0.092519
vt 0.970933 0.092557
vt 0.970325 0.092821
vt 0.970406 0.092816
vt 0.972351 0.090497
vt 0.972351 0.090228
vt 0.972430 0.090307
vt 0.972430 0.090418
vt 0.970148 0.096892
vt 0.970148 0.097161
vt 0.970069 0.097084
vt 0.970069 0.096973
vt 0.977738 0.090465
vt 0.977820 0.090385
vt 0.970633 0.089801
vt 0.970552 0.089722
vt 0.972417 0.095885
vt 0.972417 0.095435
vt 0.982563 0.099090
vt 0.982433 0.099412
vt 0.982225 0.099458
vt 0.973850 0.093783
vt 0.973850 0.093337
vt 0.972480 0.093663
vt 0.982791 0.099928
vt 0.982764 0.100134
vt 0.982470 0.100134
vt 0.982225 0.099889
vt 0.973862 0.093046
vt 0.983177 0.100134
vt 0.983154 0.100062
vt 0.983338 0.099682
vt 0.983652 0.099729
vt 0.983652 0.100134
vt 0.982907 0.099498
vt 0.983954 0.100134
vt 0.983954 0.099684
vt 0.984325 0.099684
vt 0.984325 0.100134
vt 0.983113 0.099601
vt 0.972372 0.095132
vt 0.972349 0.094759
vt 0.972421 0.094534
vt 0.972615 0.094309
vt 0.984550 0.099684
vt 0.984550 0.100134
vt 0.970511 0.103957
vt 0.970959 0.103957
vt 0.970959 0.104227
vt 0.970511 0.104227
vt 0.984776 0.099684
vt 0.984776 0.100134
vt 0.972728 0.094253
vt 0.972417 0.096336
vt 0.982259 0.091570
vt 0.982147 0.091514
vt 0.982458 0.092973
vt 0.982458 0.092695
vt 0.982454 0.091795
vt 0.982458 0.093428
vt 0.982458 0.093247
vt 0.982525 0.092021
vt 0.972473 0.094027
vt 0.982503 0.092393
vt 0.972417 0.096653
vt 0.978395 0.091361
vt 0.978489 0.091835
vt 0.978203 0.091835
vt 0.978130 0.091468
vt 0.978127 0.090959
vt 0.977923 0.091158
vt 0.981021 0.090976
vt 0.980927 0.091450
vt 0.980673 0.091338
vt 0.980746 0.090971
vt 0.980927 0.090502
vt 0.980673 0.090604
vt 0.980062 0.090853
vt 0.980059 0.091328
vt 0.979777 0.091221
vt 0.979779 0.090854
vt 0.980059 0.090379
vt 0.979777 0.090487
vt 0.978127 0.092712
vt 0.977727 0.092980
vt 0.977613 0.092721
vt 0.977923 0.092513
vt 0.979552 0.090853
vt 0.979549 0.091328
vt 0.979267 0.091220
vt 0.979269 0.090853
vt 0.979042 0.090379
vt 0.979043 0.090853
vt 0.978767 0.090853
vt 0.978767 0.090486
vt 0.972969 0.102087
vt 0.972875 0.102562
vt 0.972621 0.102459
vt 0.972693 0.102092
vt 0.977727 0.090690
vt 0.977613 0.090950
vt 0.979549 0.090379
vt 0.979267 0.090486
vt 0.979042 0.091328
vt 0.978767 0.091220
vt 0.972875 0.101613
vt 0.972621 0.101725
vt 0.978395 0.092310
vt 0.978130 0.092202
vt 0.982955 0.090503
vt 0.983422 0.090503
vt 0.983421 0.090977
vt 0.982955 0.090977
vt 0.980794 0.095126
vt 0.980652 0.094780
vt 0.980652 0.094406
vt 0.980794 0.094061
vt 0.981058 0.093797
vt 0.981402 0.093653
vt 0.981775 0.093654
vt 0.982119 0.093797
vt 0.982383 0.094061
vt 0.982525 0.094407
vt 0.982525 0.094781
vt 0.982383 0.095126
vt 0.982119 0.095391
vt 0.981775 0.095534
vt 0.981402 0.095534
vt 0.981058 0.095390
vt 0.970839 0.099739
vt 0.970372 0.099739
vt 0.970380 0.099337
vt 0.970847 0.099337
vt 0.970847 0.098389
vt 0.970380 0.098389
vt 0.970372 0.097986
vt 0.970839 0.097986
vt 0.976819 0.090972
vt 0.977285 0.090972
vt 0.977286 0.091447
vt 0.976819 0.091447
vt 0.976820 0.090096
vt 0.977287 0.090096
vt 0.977286 0.090498
vt 0.976819 0.090498
vt 0.970849 0.098863
vt 0.970383 0.098863
vt 0.981018 0.093025
vt 0.980552 0.093025
vt 0.980554 0.092551
vt 0.981021 0.092551
vt 0.977287 0.091849
vt 0.976820 0.091849
vt 0.980552 0.092077
vt 0.981018 0.092077
vt 0.981010 0.093428
vt 0.980544 0.093428
vt 0.980544 0.091675
vt 0.981010 0.091675
vt 0.982957 0.090101
vt 0.983423 0.090101
vt 0.982955 0.091452
vt 0.983422 0.091452
vt 0.983423 0.091854
vt 0.982957 0.091854
vn 0.6988 -0.7154 -0.0000
vn 0.6988 -0.0000 0.7154
vn 0.6988 -0.5058 0.5058
vn 0.6183 0.5998 -0.5079
vn 0.7210 0.2267 -0.6547
vn 0.6003 0.7994 -0.0250
vn 0.6860 0.3254 -0.6508
vn 0.7103 0.1067 -0.6958
vn 0.7069 -0.0434 -0.7060
vn 0.6951 -0.1025 0.7116
vn 0.6901 0.2208 -0.6892
vn 0.6819 0.2182 0.6981
vn 0.6037 0.5216 -0.6029
vn 0.5982 0.5168 0.6124
vn 0.4062 0.8188 -0.4056
vn 0.4045 0.8154 0.4141
vn 0.0000 0.7076 -0.7067
vn 0.0000 0.7071 0.7071
vn 0.0000 -0.0000 1.0000
vn 1.0000 -0.0000 0.0000
vn 0.0000 -1.0000 -0.0000
vn 0.0000 0.9996 -0.0275
vn 0.0000 -0.7071 0.7071
vn 0.9981 -0.0613 -0.0000
vn 0.9524 0.3048 0.0000
vn 0.4444 0.8958 0.0000
vn 0.7567 0.6538 0.0000
vn 0.0000 1.0000 0.0000
vn 0.0000 0.0000 -1.0000
vn 0.0000 0.1570 -0.9876
vn 0.0000 0.4472 -0.8944
vn 0.0000 0.3193 -0.9477
vn 0.0000 0.7626 -0.6469
vn 0.6925 -0.2050 -0.6916
vn 0.6981 -0.0428 0.7147
vn 0.9893 -0.1459 0.0000
vn -0.0041 -0.1389 -0.9903
vn 0.0000 -0.1389 -0.9903
vn 0.6988 0.0000 -0.7154
vn 0.6988 -0.5058 -0.5058
vn 0.6183 0.5998 0.5079
vn 0.7210 0.2267 0.6547
vn 0.6003 0.7994 0.0250
vn 0.6860 0.3254 0.6508
vn 0.7103 0.1067 0.6958
vn 0.7069 -0.0434 0.7060
vn 0.6951 -0.1025 -0.7116
vn 0.6901 0.2208 0.6892
vn 0.6819 0.2182 -0.6981
vn 0.6037 0.5216 0.6029
vn 0.5982 0.5168 -0.6124
vn 0.4062 0.8188 0.4057
vn 0.4045 0.8154 -0.4141
vn 0.0000 0.7076 0.7067
vn 0.0000 0.7071 -0.7071
vn 0.0000 0.9996 0.0275
vn 0.0000 -0.7071 -0.7071
vn 0.0000 0.1570 0.9876
vn 0.0000 0.4472 0.8944
vn 0.0000 0.3193 0.9477
vn 0.0000 0.7626 0.6469
vn 0.6925 -0.2050 0.6916
vn 0.6981 -0.0428 -0.7147
vn -0.0041 -0.1389 0.9903
vn -0.0000 -0.1389 0.9903
vn -0.6988 -0.7154 -0.0000
vn -0.6988 -0.0000 0.7154
vn -0.6988 -0.5058 0.5058
vn -0.6183 0.5998 -0.5079
vn -0.7210 0.2267 -0.6547
vn -0.6003 0.7994 -0.0250
vn -0.6860 0.3254 -0.6508
vn -0.7103 0.1067 -0.6958
vn -0.7069 -0.0434 -0.7060
vn -0.6951 -0.1025 0.7116
vn -0.6901 0.2208 -0.6892
vn -0.6819 0.2182 0.6981
vn -0.6037 0.5216 -0.6029
vn -0.5982 0.5168 0.6124
vn -0.4062 0.8188 -0.4056
vn -0.4045 0.8154 0.4141
vn -1.0000 -0.0000 0.0000
vn -0.9981 -0.0613 -0.0000
vn -0.9524 0.3048 0.0000
vn -0.4444 0.8958 0.0000
vn -0.7567 0.6538 0.0000
vn -0.6925 -0.2050 -0.6916
vn -0.6981 -0.0428 0.7147
vn -0.9893 -0.1459 0.0000
vn 0.0041 -0.1389 -0.9903
vn -0.6988 0.0000 -0.7154
vn -0.6988 -0.5058 -0.5058
vn -0.6183 0.5998 0.5079
vn -0.7210 0.2267 0.6547
vn -0.6003 0.7994 0.0250
vn -0.6860 0.3254 0.6508
vn -0.7103 0.1067 0.6958
vn -0.7069 -0.0434 0.7060
vn -0.6951 -0.1025 -0.7116
vn -0.6901 0.2208 0.6892
vn -0.6819 0.2182 -0.6981
vn -0.6037 0.5216 0.6029
vn -0.5982 0.5168 -0.6124
vn -0.4062 0.8188 0.4057
vn -0.4045 0.8154 -0.4141
vn -0.6925 -0.2050 0.6916
vn -0.6981 -0.0428 -0.7147
vn 0.0041 -0.1389 0.9903
vn 0.6935 0.7071 0.1379
vn 0.5879 0.7071 0.3928
vn -0.3928 0.7071 0.5879
vn -0.5879 0.7071 0.3928
vn -0.1379 0.7071 -0.6935
vn 0.1379 0.7071 -0.6935
vn 0.3928 0.7071 -0.5879
vn 0.1379 0.7071 0.6935
vn -0.6935 0.7071 -0.1379
vn -0.5879 0.7071 -0.3928
vn 0.3928 0.7071 0.5879
vn -0.1379 0.7071 0.6935
vn -0.6935 0.7071 0.1379
vn -0.3928 0.7071 -0.5879
vn 0.5879 0.7071 -0.3928
vn 0.6935 0.7071 -0.1379
vn 0.9808 0.0000 -0.1951
vn 0.5556 0.0000 0.8315
vn -0.5556 0.0000 0.8315
vn -0.9808 -0.0000 -0.1951
vn -0.8315 -0.0000 0.5556
vn -0.1951 0.0000 0.9808
vn -0.9808 -0.0000 0.1951
vn -0.1951 0.0000 -0.9808
vn -0.8315 0.0000 -0.5556
vn 0.1951 0.0000 -0.9808
vn -0.5556 0.0000 -0.8315
vn 0.5556 0.0000 -0.8315
vn 0.8315 0.0000 -0.5556
vn 0.1951 0.0000 0.9808
vn 0.8315 0.0000 0.5556
vn 0.9808 0.0000 0.1951
usemtl Material.001
s 1
f 423/522/116 424/523/116 425/524/116 426/525/116
f 427/526/117 428/527/117 429/528/117 430/529/117
f 431/530/117 427/526/117 430/529/117 432/531/117
f 433/532/118 434/533/118 435/534/118 436/535/118
f 434/536/117 429/528/117 428/527/117 435/537/117
f 426/525/116 433/538/116 436/539/116 423/522/116
f 437/540/119 438/541/119 439/542/119 440/543/119
f 441/544/120 442/545/120 443/546/120 444/547/120
f 440/548/121 445/549/121 446/550/121 437/551/121
f 444/547/122 439/542/122 438/541/122 441/544/122
f 447/552/123 443/546/123 442/545/123 448/553/123
f 449/554/124 450/555/124 451/556/124 452/557/124
f 453/558/125 431/530/125 432/531/125 454/559/125
f 450/560/126 455/561/126 456/562/126 451/563/126
f 457/564/127 458/565/127 459/566/127 460/567/127
f 455/561/128 461/568/128 462/569/128 456/562/128
f 463/570/129 457/564/129 460/567/129 464/571/129
f 465/572/130 462/573/130 461/574/130 466/575/130
f 464/576/131 467/577/131 468/578/131 463/579/131
f 466/580/132 469/581/132 470/582/132 465/583/132
f 467/584/133 471/585/133 472/586/133 468/587/133
f 473/588/134 474/589/134 475/590/134 476/591/134
f 477/592/135 478/593/135 479/594/135 480/595/135 481/596/135
f 482/597/136 483/598/136 484/599/136 485/600/136
f 486/601/137 487/602/137 488/603/137 489/604/137
f 490/605/136 491/606/136 483/598/136 482/597/136
f 479/594/135 492/607/135 493/608/135 494/609/135 495/610/135 480/595/135
f 485/600/138 484/599/138 496/611/138 497/612/138
f 498/613/135 499/614/135 500/615/135 501/616/135 502/617/135
f 478/593/135 503/618/135 492/607/135 479/594/135
f 504/619/139 505/620/139 506/621/139 507/622/139
f 508/623/135 500/615/135 499/614/135
f 493/608/135 492/607/135 503/618/135 508/623/135 499/614/135 498/613/135
f 509/624/134 510/625/134 511/626/134 512/627/134
f 513/628/134 514/629/134 515/630/134 516/631/134
f 512/627/134 511/626/134 514/629/134 513/628/134
f 507/622/140 506/621/140 517/632/140 518/633/140
f 519/634/141 520/635/141 521/636/141 522/637/141
f 518/633/142 517/632/142 520/638/142 519/639/142
f 523/640/143 522/637/143 521/636/143 524/641/143
f 516/631/134 515/630/134 525/642/134 526/643/134
f 527/644/134 528/645/134 474/589/134 473/588/134
f 529/646/144 530/647/144 531/648/144 532/649/144
f 533/650/145 534/651/145 535/652/145 536/653/145
f 537/654/144 538/655/144 530/647/144 529/646/144
f 539/656/146 540/657/146 541/658/146 542/659/146
f 543/660/144 544/661/144 538/655/144 537/654/144
f 542/659/147 541/658/147 534/651/147 533/650/147
f 487/602/148 486/601/148 540/662/148 539/663/148
f 545/664/144 546/665/144 544/661/144 543/660/144
f 528/645/134 527/644/134 497/666/134 496/667/134
f 448/553/149 449/554/149 452/557/149 447/552/149
f 476/591/134 475/590/134 510/625/134 509/624/134
f 458/565/150 453/558/150 454/559/150 459/566/150
f 502/617/151 501/616/151 505/620/151 504/619/151
f 536/653/152 535/652/153 546/665/153 545/664/152
f 547/668/116 548/669/116 425/524/116 424/523/116
f 549/670/154 550/671/154 551/672/154 552/673/154
f 553/674/154 554/675/154 550/671/154 549/670/154
f 555/676/155 556/677/155 557/678/155 558/679/155
f 558/680/154 557/681/154 552/673/154 551/672/154
f 548/669/116 547/668/116 556/682/116 555/683/116
f 559/684/156 560/685/156 561/686/156 562/687/156
f 563/688/157 564/689/157 565/690/157 566/691/157
f 560/692/158 559/693/158 446/550/158 445/549/158
f 564/689/159 563/688/159 562/687/159 561/686/159
f 567/694/160 568/695/160 566/691/160 565/690/160
f 569/696/161 570/697/161 571/698/161 572/699/161
f 573/700/162 574/701/162 554/675/162 553/674/162
f 572/702/163 571/703/163 575/704/163 576/705/163
f 577/706/164 578/707/164 579/708/164 580/709/164
f 576/705/165 575/704/165 581/710/165 582/711/165
f 583/712/166 584/713/166 578/707/166 577/706/166
f 585/714/167 586/715/167 582/716/167 581/717/167
f 584/718/168 583/719/168 587/720/168 588/721/168
f 586/722/169 585/723/169 589/724/169 590/725/169
f 588/726/170 587/727/170 591/728/170 592/729/170
f 593/730/144 594/731/144 595/732/144 596/733/144
f 477/592/135 481/596/135 597/734/135 598/735/135 599/736/135
f 600/737/136 601/738/136 602/739/136 603/740/136
f 604/741/171 489/604/171 488/603/171 605/742/171
f 490/605/136 600/737/136 603/740/136 491/606/136
f 598/735/135 597/734/135 606/743/135 607/744/135 608/745/135 609/746/135
f 601/738/172 610/747/172 611/748/172 602/739/172
f 612/749/135 613/750/135 614/751/135 615/752/135 616/753/135
f 599/736/135 598/735/135 609/746/135 617/754/135
f 618/755/139 619/756/139 620/757/139 621/758/139
f 622/759/135 616/753/135 615/752/135
f 608/745/135 612/749/135 616/753/135 622/759/135 617/754/135 609/746/135
f 623/760/144 624/761/144 625/762/144 626/763/144
f 627/764/144 628/765/144 629/766/144 630/767/144
f 624/761/144 627/764/144 630/767/144 625/762/144
f 619/756/140 631/768/140 632/769/140 620/757/140
f 633/770/141 634/771/141 635/772/141 636/773/141
f 631/768/142 633/774/142 636/775/142 632/769/142
f 637/776/143 638/777/143 635/772/143 634/771/143
f 628/765/144 639/778/144 640/779/144 629/766/144
f 641/780/144 593/730/144 596/733/144 642/781/144
f 643/782/134 644/783/134 645/784/134 646/785/134
f 647/786/173 648/787/173 649/788/173 650/789/173
f 651/790/134 643/782/134 646/785/134 652/791/134
f 653/792/174 654/793/174 655/794/174 656/795/174
f 657/796/134 651/790/134 652/791/134 658/797/134
f 654/793/175 647/786/175 650/789/175 655/794/175
f 605/742/176 653/798/176 656/799/176 604/741/176
f 659/800/134 657/796/134 658/797/134 660/801/134
f 642/781/144 611/802/144 610/803/144 641/780/144
f 568/695/177 567/694/177 570/697/177 569/696/177
f 594/731/144 623/760/144 626/763/144 595/732/144
f 580/709/178 579/708/178 574/701/178 573/700/178
f 613/750/151 618/755/151 621/758/151 614/751/151
f 648/787/179 659/800/179 660/801/180 649/788/180
f 661/804/181 662/805/181 663/806/181 664/807/181
f 665/808/182 666/809/182 667/810/182 668/811/182
f 669/812/182 670/813/182 666/809/182 665/808/182
f 671/814/183 672/815/183 673/816/183 674/817/183
f 674/818/182 673/819/182 668/811/182 667/810/182
f 662/805/181 661/804/181 672/815/181 671/814/181
f 675/820/184 676/821/184 677/822/184 678/823/184
f 679/824/185 680/825/185 681/826/185 682/827/185
f 676/828/186 675/829/186 683/830/186 684/831/186
f 680/825/187 679/824/187 678/823/187 677/822/187
f 685/832/188 686/833/188 682/827/188 681/826/188
f 687/834/189 688/835/189 689/836/189 690/837/189
f 691/838/190 692/839/190 670/813/190 669/812/190
f 690/840/191 689/841/191 693/842/191 694/843/191
f 695/844/192 696/845/192 697/846/192 698/847/192
f 694/843/193 693/842/193 699/848/193 700/849/193
f 701/850/194 702/851/194 696/845/194 695/844/194
f 703/852/195 704/853/195 700/854/195 699/855/195
f 702/856/196 701/857/196 705/858/196 706/859/196
f 704/860/132 703/861/132 470/582/132 469/581/132
f 706/862/133 705/863/133 472/586/133 471/585/133
f 473/588/134 476/591/134 707/864/134 708/865/134
f 709/866/197 710/867/197 711/868/197 712/869/197 713/870/197
f 482/597/136 485/600/136 714/871/136 715/872/136
f 486/601/137 489/604/137 716/873/137 717/874/137
f 490/605/136 482/597/136 715/872/136 718/875/136
f 712/869/197 711/868/197 719/876/197 720/877/197 721/878/197 722/879/197
f 485/600/138 497/612/138 723/880/138 714/871/138
f 724/881/197 725/882/197 726/883/197 727/884/197 728/885/197
f 713/870/197 712/869/197 722/879/197 729/886/197
f 730/887/198 731/888/198 732/889/198 733/890/198
f 734/891/197 728/885/197 727/884/197
f 721/878/197 724/881/197 728/885/197 734/891/197 729/886/197 722/879/197
f 509/624/134 512/627/134 735/892/134 736/893/134
f 513/628/134 516/631/134 737/894/134 738/895/134
f 512/627/134 513/628/134 738/895/134 735/892/134
f 731/888/199 739/896/199 740/897/199 732/889/199
f 741/898/200 742/899/200 743/900/200 744/901/200
f 739/896/201 741/902/201 744/903/201 740/897/201
f 523/640/143 524/641/143 743/900/143 742/899/143
f 516/631/134 526/643/134 745/904/134 737/894/134
f 527/644/134 473/588/134 708/865/134 746/905/134
f 747/906/144 748/907/144 531/648/144 530/647/144
f 749/908/145 750/909/145 535/652/145 534/651/145
f 751/910/144 747/906/144 530/647/144 538/655/144
f 752/911/146 753/912/146 541/658/146 540/657/146
f 754/913/144 751/910/144 538/655/144 544/661/144
f 753/912/147 749/908/147 534/651/147 541/658/147
f 717/874/148 752/914/148 540/662/148 486/601/148
f 755/915/144 754/913/144 544/661/144 546/665/144
f 746/905/134 723/916/134 497/666/134 527/644/134
f 686/833/202 685/832/202 688/835/202 687/834/202
f 476/591/134 509/624/134 736/893/134 707/864/134
f 698/847/203 697/846/203 692/839/203 691/838/203
f 725/882/204 730/887/204 733/890/204 726/883/204
f 750/909/205 755/915/205 546/665/153 535/652/153
f 756/917/181 664/807/181 663/806/181 757/918/181
f 758/919/206 759/920/206 760/921/206 761/922/206
f 762/923/206 758/919/206 761/922/206 763/924/206
f 764/925/207 765/926/207 766/927/207 767/928/207
f 765/929/206 760/921/206 759/920/206 766/930/206
f 757/918/181 764/925/181 767/928/181 756/917/181
f 768/931/208 769/932/208 770/933/208 771/934/208
f 772/935/209 773/936/209 774/937/209 775/938/209
f 771/939/210 684/831/210 683/830/210 768/940/210
f 775/938/211 770/933/211 769/932/211 772/935/211
f 776/941/212 774/937/212 773/936/212 777/942/212
f 778/943/213 779/944/213 780/945/213 781/946/213
f 782/947/214 762/923/214 763/924/214 783/948/214
f 779/949/215 784/950/215 785/951/215 780/952/215
f 786/953/216 787/954/216 788/955/216 789/956/216
f 784/950/217 790/957/217 791/958/217 785/951/217
f 792/959/218 786/953/218 789/956/218 793/960/218
f 794/961/219 791/962/219 790/963/219 795/964/219
f 793/965/220 796/966/220 797/967/220 792/968/220
f 795/969/169 590/725/169 589/724/169 794/970/169
f 796/971/170 592/729/170 591/728/170 797/972/170
f 593/730/144 798/973/144 799/974/144 594/731/144
f 709/866/197 800/975/197 801/976/197 802/977/197 710/867/197
f 600/737/136 803/978/136 804/979/136 601/738/136
f 604/741/171 805/980/171 716/873/171 489/604/171
f 490/605/136 718/875/136 803/978/136 600/737/136
f 801/976/197 806/981/197 807/982/197 808/983/197 809/984/197 802/977/197
f 601/738/172 804/979/172 810/985/172 610/747/172
f 811/986/197 812/987/197 813/988/197 814/989/197 815/990/197
f 800/975/197 816/991/197 806/981/197 801/976/197
f 817/992/198 818/993/198 819/994/198 820/995/198
f 821/996/197 813/988/197 812/987/197
f 807/982/197 806/981/197 816/991/197 821/996/197 812/987/197 811/986/197
f 623/760/144 822/997/144 823/998/144 624/761/144
f 627/764/144 824/999/144 825/1000/144 628/765/144
f 624/761/144 823/998/144 824/999/144 627/764/144
f 820/995/199 819/994/199 826/1001/199 827/1002/199
f 828/1003/200 829/1004/200 830/1005/200 831/1006/200
f 827/1002/201 826/1001/201 829/1007/201 828/1008/201
f 637/776/143 831/1006/143 830/1005/143 638/777/143
f 628/765/144 825/1000/144 832/1009/144 639/778/144
f 641/780/144 833/1010/144 798/973/144 593/730/144
f 834/1011/134 646/785/134 645/784/134 835/1012/134
f 836/1013/173 650/789/173 649/788/173 837/1014/173
f 838/1015/134 652/791/134 646/785/134 834/1011/134
f 839/1016/174 656/795/174 655/794/174 840/1017/174
f 841/1018/134 658/797/134 652/791/134 838/1015/134
f 840/1017/175 655/794/175 650/789/175 836/1013/175
f 805/980/176 604/741/176 656/799/176 839/1019/176
f 842/1020/134 660/801/134 658/797/134 841/1018/134
f 833/1010/144 641/780/144 610/803/144 810/1021/144
f 777/942/221 778/943/221 781/946/221 776/941/221
f 594/731/144 799/974/144 822/997/144 623/760/144
f 787/954/222 782/947/222 783/948/222 788/955/222
f 815/990/204 814/989/204 818/993/204 817/992/204
f 837/1014/223 649/788/180 660/801/180 842/1020/223
f 843/1022/224 844/1023/224 845/1024/224 846/1025/224
f 847/1026/225 843/1022/225 846/1025/225 848/1027/225
f 849/1028/226 850/1029/226 851/1030/226 852/1031/226
f 853/1032/227 849/1028/227 852/1031/227 854/1033/227
f 855/1034/228 856/1035/228 857/1036/228 858/1037/228
f 859/1038/229 855/1034/229 858/1037/229 860/1039/229
f 861/1040/230 859/1041/230 860/1042/230 862/1043/230
f 863/1044/231 864/1045/231 865/1046/231 866/1047/231
f 867/1048/232 868/1049/232 869/1050/232 870/1051/232
f 871/1052/233 867/1053/233 870/1054/233 872/1055/233
f 864/1056/234 847/1026/234 848/1027/234 865/1057/234
f 850/1058/235 863/1044/235 866/1047/235 851/1059/235
f 868/1049/236 853/1060/236 854/1061/236 869/1050/236
f 856/1062/237 871/1052/237 872/1055/237 857/1063/237
f 873/1064/238 861/1040/238 862/1043/238 874/1065/238
f 844/1023/239 873/1064/239 874/1065/239 845/1024/239
f 875/1066/240 876/1067/240 877/1068/240 878/1069/240
f 879/1070/143 880/1071/143 881/1072/143 882/1073/143 883/1074/143 884/1075/143 885/1076/143 886/1077/143 887/1078/143 888/1079/143 889/1080/143 890/1081/143 891/1082/143 892/1083/143 893/1084/143 894/1085/143
f 895/1086/241 896/1087/241 897/1088/241 898/1089/241
f 899/1090/242 900/1091/242 901/1092/242 902/1093/242
f 903/1094/243 904/1095/243 905/1096/243 906/1097/243
f 902/1098/244 901/1099/244 907/1100/244 908/1101/244
f 909/1102/245 910/1103/245 900/1091/245 899/1090/245
f 908/1101/246 907/1100/246 904/1095/246 903/1094/246
f 911/1104/247 912/1105/247 913/1106/247 914/1107/247
f 906/1097/248 905/1096/248 915/1108/248 916/1109/248
f 914/1107/249 913/1106/249 917/1110/249 918/1111/249
f 916/1112/250 915/1113/250 912/1105/250 911/1104/250
f 918/1111/251 917/1110/251 919/1114/251 920/1115/251
f 920/1116/252 919/1117/252 876/1067/252 875/1066/252
f 898/1089/253 897/1088/253 910/1103/253 909/1102/253
f 921/1118/254 922/1119/254 896/1120/254 895/1121/254
f 878/1069/255 877/1068/255 922/1119/255 921/1118/255
