# Blender v2.93.0 OBJ File: ''
# www.blender.org
mtllib atm.mtl
o Cube.001_Cube
v -0.487340 -0.270222 0.403334
v -0.487340 0.002164 0.403334
v -0.487340 0.002164 -0.605916
v -0.487340 -0.270221 -0.605916
v 0.334876 0.002164 -0.605916
v 0.499969 0.002164 -0.605916
v 0.419802 -0.280710 -0.605916
v 0.294793 -0.280710 -0.605916
v 0.499969 -0.270221 -0.605916
v 0.499969 0.002164 0.403334
v 0.499969 -0.270222 0.403334
v -0.322149 -0.270222 0.403334
v -0.322149 0.002164 0.403334
v 0.334876 -1.512528 -0.605916
v 0.499969 -1.512528 -0.605916
v 0.499969 -1.512529 0.403334
v 0.334876 -1.512529 0.403334
v -0.322149 0.002164 -0.605916
v 0.294793 -0.280710 -0.273613
v 0.419802 -0.280710 -0.273613
v 0.419802 -0.280710 0.036747
v 0.294793 -0.280710 0.036747
v -0.407173 -0.280710 -0.605916
v -0.407173 -0.363105 -0.605916
v 0.499969 -1.455409 -0.605916
v 0.419802 -1.403669 -0.605916
v 0.419802 -1.357747 -0.605916
v -0.322149 -1.512528 -0.605916
v -0.487340 -1.512528 -0.605916
v -0.407173 -1.403669 -0.605916
v -0.282066 -1.403669 -0.605916
v 0.294793 -0.363105 0.004975
v 0.419802 -0.363105 0.004975
v -0.407173 -0.363105 -0.289500
v -0.407173 -0.280710 -0.273613
v -0.407173 -0.280710 0.036747
v -0.407173 -0.363105 0.004975
v 0.419802 -1.357747 -0.379416
v 0.419802 -1.403669 -0.379416
v 0.419802 -1.403669 -0.174857
v 0.419802 -1.357747 -0.174857
v -0.282066 -1.403669 -0.379416
v -0.407173 -1.403669 -0.379416
v -0.407173 -1.403669 -0.174857
v -0.282066 -1.403669 -0.174857
v 0.419802 -1.018473 -0.379416
v 0.419802 -1.172652 -0.379416
v 0.419802 -1.172652 -0.174857
v 0.419802 -1.018473 -0.174857
v -0.407173 -1.272452 -0.379416
v -0.407173 -1.172652 -0.379416
v -0.407173 -1.172652 -0.174857
v -0.407173 -1.272452 -0.174857
v -0.407173 -1.403669 -0.495170
v -0.282066 -1.403669 -0.495170
v 0.499969 -1.052651 -0.605916
v 0.499969 -1.236722 -0.605916
v 0.419802 -1.172652 -0.605916
v 0.419802 -1.018473 -0.605916
v -0.487340 -1.358916 -0.605916
v -0.487340 -1.236722 -0.605916
v -0.407173 -1.172652 -0.605916
v -0.407173 -1.272452 -0.605916
v -0.322149 -1.358917 0.403334
v -0.322149 -1.236722 0.403334
v -0.487340 -1.236722 0.403334
v -0.487340 -1.358917 0.403334
v 0.499969 -1.358916 -0.605916
v 0.499969 -1.236722 0.403334
v 0.499969 -1.358917 0.403334
v 0.294793 -1.172652 -0.495170
v 0.419802 -1.172652 -0.495170
v 0.270748 -1.214290 -0.495170
v 0.220266 -1.214290 -0.495170
v -0.407173 -1.172652 -0.495170
v -0.407173 -1.272452 -0.495170
v 0.294793 -1.172652 -0.174857
v 0.419802 -1.403669 -0.495170
v 0.419802 -1.357747 -0.495170
v -0.258120 -1.272452 -0.495170
v -0.258120 -1.214290 -0.495170
v -0.258120 -1.214290 -0.452803
v -0.258120 -1.260579 -0.452803
v -0.258120 -1.362031 -0.495170
v -0.207539 -1.362031 -0.495170
v 0.270748 -1.362031 -0.495170
v 0.270748 -1.336928 -0.495170
v 0.006314 -1.214290 -0.452803
v 0.220266 -1.214290 -0.452803
v 0.220266 -1.214290 -0.494657
v 0.006314 -1.214290 -0.494657
v 0.270748 -1.214290 -0.452803
v -0.258120 -1.362031 -0.452803
v -0.207539 -1.362031 -0.452803
v 0.270748 -1.362031 -0.452803
v 0.270748 -1.336928 -0.452803
v 0.270748 -1.272452 -0.495170
v 0.270748 -1.260579 -0.452803
v 0.006314 -1.362031 -0.452803
v -0.207539 -1.362031 -0.494657
v 0.006314 -1.362031 -0.494657
v -0.407173 -1.357747 -0.495170
v -0.258120 -1.336928 -0.495170
v 0.419802 -1.272452 -0.495170
v -0.258120 -1.336928 -0.452803
v 0.419802 -1.272452 -0.174857
v -0.407173 -1.357747 -0.174857
v -0.487340 -1.455410 0.403334
v -0.487340 -1.455409 -0.605916
v 0.499969 -1.455410 0.403334
v -0.322149 -1.455410 0.403334
v -0.407173 -1.357747 -0.605916
v -0.407173 -1.357747 -0.379416
v 0.419802 -1.272452 -0.379416
v 0.419802 -1.272452 -0.605916
v 0.334876 -1.455410 0.403334
v 0.334876 -1.358917 0.403334
v 0.006314 -1.358917 0.403334
v 0.006314 -1.455410 0.403334
v 0.006314 -1.336928 -0.452803
v -0.207539 -1.336928 -0.452803
v -0.182060 -1.301567 -0.452803
v 0.006318 -1.301567 -0.452803
v 0.220266 -1.362031 -0.495170
v 0.006314 -1.362031 -0.495170
v 0.220266 -1.362031 -0.452803
v -0.207539 -1.214290 -0.495170
v 0.006314 -1.214290 -0.495170
v -0.207539 -1.214290 -0.452803
v 0.220266 -1.336928 -0.452803
v 0.220266 -1.336928 -0.494657
v 0.006314 -1.336928 -0.494657
v 0.294793 -1.403669 -0.495170
v 0.006314 -1.403669 -0.495170
v -0.282066 -1.172652 -0.174857
v 0.006314 -1.172652 -0.174857
v 0.006314 -1.172652 -0.495170
v -0.282066 -1.172652 -0.495170
v 0.334876 -1.236722 0.403334
v 0.006314 -1.236722 0.403334
v 0.294793 -1.403669 -0.174857
v 0.006314 -1.403669 -0.174857
v 0.294793 -1.403669 -0.379416
v 0.006314 -1.403669 -0.379416
v -0.282066 -0.363105 0.004975
v -0.282066 -0.280710 0.036747
v 0.006314 -0.280710 0.036747
v 0.006314 -0.363105 0.004975
v 0.006314 -1.512528 -0.605916
v 0.006314 -1.403669 -0.605916
v 0.294793 -1.403669 -0.605916
v -0.282066 -0.280710 -0.273613
v 0.006314 -0.280710 -0.273613
v 0.006314 0.002164 -0.605916
v 0.006314 0.002164 0.403334
v 0.334876 0.002164 0.403334
v 0.006314 -1.512529 0.403334
v -0.322149 -1.512529 0.403334
v 0.334876 -0.270222 0.403334
v 0.006314 -0.270222 0.403334
v 0.006314 -0.280710 -0.605916
v -0.282066 -0.280710 -0.605916
v 0.220266 -1.260579 -0.452803
v 0.194782 -1.301567 -0.452803
v 0.194782 -1.295939 -0.452803
v 0.270748 -1.214290 -0.494657
v -0.487340 -1.512529 0.403334
v 0.270748 -1.362031 -0.494657
v 0.270748 -1.336928 -0.494657
v -0.258120 -1.362031 -0.494657
v 0.270748 -1.260579 -0.494657
v 0.006314 -1.260579 -0.452803
v -0.207539 -1.260579 -0.452803
v -0.207539 -1.260579 -0.494657
v 0.006314 -1.260579 -0.494657
v -0.258120 -1.336928 -0.494657
v -0.258120 -1.260579 -0.494657
v 0.220266 -1.260579 -0.494657
v -0.207539 -1.214290 -0.494657
v -0.258120 -1.214290 -0.494657
v -0.207539 -1.336928 -0.494657
v 0.220266 -1.362031 -0.494657
v 0.194782 -1.301567 -0.440762
v 0.194782 -1.295939 -0.440762
v 0.006318 -1.301567 -0.440762
v 0.006318 -1.295939 -0.452803
v -0.182060 -1.295939 -0.452803
v -0.182060 -1.301567 -0.440762
v -0.182060 -1.295939 -0.440762
v 0.006318 -1.295939 -0.440762
v 0.006314 -1.052652 0.403334
v -0.322149 -1.052652 0.403334
v -0.407173 -1.018473 -0.174857
v -0.177327 -1.018473 -0.174857
v 0.072713 -1.018473 -0.174857
v 0.371483 -1.018473 -0.174857
v 0.499969 -1.052652 0.403334
v 0.334876 -1.052652 0.403334
v 0.499969 -0.826997 -0.605916
v 0.419802 -0.829464 -0.605916
v 0.419802 -0.829464 -0.379416
v 0.419802 -0.829464 -0.174857
v -0.407173 -1.018473 -0.379416
v -0.487340 -1.052651 -0.605916
v -0.407173 -1.018473 -0.605916
v -0.487340 -1.052652 0.403334
v 0.419802 -0.764380 -0.366867
v 0.419802 -0.764380 -0.149760
v 0.499969 -0.749294 -0.605916
v 0.419802 -0.764380 -0.605916
v 0.006314 -0.826998 0.403334
v -0.322149 -0.826998 0.403334
v -0.407173 -0.829464 -0.174857
v -0.177327 -0.829464 -0.174857
v -0.193206 -0.842522 -0.174687
v -0.391294 -0.842522 -0.174687
v 0.371483 -0.829464 -0.174857
v 0.361938 -0.930256 -0.174857
v 0.361938 -0.917682 -0.174857
v 0.499969 -0.826998 0.403334
v 0.334876 -0.826998 0.403334
v 0.072713 -0.829464 -0.174857
v -0.407173 -0.829464 -0.379416
v -0.487340 -0.826997 -0.605916
v -0.407173 -0.829464 -0.605916
v -0.487340 -0.826998 0.403334
v 0.419802 -0.363105 -0.605916
v 0.419802 -0.363105 -0.289500
v 0.006314 -0.749295 0.403334
v -0.322149 -0.749295 0.403334
v -0.407173 -0.764380 -0.149760
v -0.282066 -0.764380 -0.149760
v 0.006314 -0.764380 -0.149760
v 0.294793 -0.764380 -0.149760
v 0.499969 -0.749295 0.403334
v 0.334876 -0.749295 0.403334
v -0.407173 -0.764380 -0.366867
v -0.487340 -0.749294 -0.605916
v -0.407173 -0.764380 -0.605916
v -0.487340 -0.749295 0.403334
v 0.287862 -0.764617 -0.134783
v 0.287862 -0.372984 0.016234
v 0.006315 -0.372984 0.016234
v 0.006315 -0.764617 -0.134783
v -0.275136 -0.764617 -0.134783
v -0.275136 -0.372984 0.016234
v -0.193206 -1.005416 -0.174687
v -0.391294 -1.005416 -0.174687
v -0.375010 -0.930215 -0.174687
v -0.209491 -0.930215 -0.174687
v -0.375010 -0.917723 -0.174687
v -0.209491 -0.917723 -0.174687
v -0.209491 -0.917723 -0.140268
v -0.375010 -0.917723 -0.140268
v -0.375010 -0.930215 -0.140268
v -0.209491 -0.930215 -0.140268
v 0.082259 -0.930256 -0.174857
v 0.082259 -0.930256 -0.161038
v 0.361938 -0.930256 -0.161038
v 0.082259 -0.917682 -0.174857
v 0.082259 -0.917682 -0.161038
v 0.361938 -0.917682 -0.161038
v -0.407173 -0.764380 -0.475421
v -0.407173 -0.363105 -0.436737
v 0.419802 -0.280710 -0.428794
v 0.419802 -0.363105 -0.436737
v -0.407173 -0.829464 -0.481695
v 0.419802 -0.764380 -0.475421
v -0.407173 -1.018473 -0.481695
v 0.419802 -0.829464 -0.481695
v -0.407173 -1.172652 -0.481695
v 0.419802 -1.018473 -0.481695
v 0.419802 -1.272452 -0.481695
v 0.419802 -1.357747 -0.481695
v -0.407173 -1.403669 -0.481695
v -0.407173 -1.357747 -0.481695
v 0.006314 -1.403669 -0.481695
v -0.282066 -1.403669 -0.481695
v -0.407173 -0.280710 -0.428794
v -0.282066 -0.280710 -0.428794
v -0.282066 -0.281675 -0.273613
v 0.006314 -0.281675 -0.273613
v 0.419802 -1.403669 -0.481695
v 0.294793 -1.403669 -0.481695
v 0.294793 -0.280710 -0.428794
v 0.294793 -0.281675 -0.273613
v 0.294793 -0.281675 -0.428794
v 0.419802 -1.172652 -0.481695
v -0.407173 -1.272452 -0.481695
v 0.006314 -0.280710 -0.428794
v 0.006314 -0.281675 -0.428794
v -0.282066 -0.281675 -0.428794
v 0.012583 -0.287944 -0.422525
v 0.288524 -0.287944 -0.422525
v 0.288524 -0.287944 -0.279882
v 0.012583 -0.287944 -0.279882
v 0.006314 -0.287944 -0.422525
v 0.006314 -0.286640 -0.426352
v 0.009449 -0.286108 -0.426958
v 0.000046 -0.287944 -0.422525
v 0.003180 -0.286108 -0.426958
v 0.000046 -0.287944 -0.279882
v 0.006314 -0.287944 -0.279882
v 0.006314 -0.286640 -0.276055
v 0.003180 -0.286108 -0.275449
v 0.009449 -0.286108 -0.275449
v 0.292957 -0.286108 -0.275449
v 0.292957 -0.286108 -0.426958
v -0.275798 -0.287944 -0.422525
v -0.275798 -0.287944 -0.279882
v -0.280230 -0.286108 -0.275449
v -0.280230 -0.286108 -0.426958
v -0.172350 -1.051129 -0.243757
v -0.172350 -1.057130 -0.241246
v -0.172350 -1.040885 -0.207697
v -0.172350 -1.034884 -0.210208
v 0.091044 -1.034884 -0.210208
v 0.072230 -1.034884 -0.210208
v 0.072230 -1.032537 -0.204601
v 0.091044 -1.032537 -0.204601
v 0.178842 -1.115064 -0.375795
v 0.178842 -1.121066 -0.373283
v 0.178842 -1.125765 -0.382988
v 0.178842 -1.119764 -0.385500
v 0.091044 -1.119764 -0.385500
v 0.165994 -1.119764 -0.385500
v 0.165994 -1.142113 -0.432861
v 0.091044 -1.142113 -0.432861
v 0.165994 -1.115064 -0.375795
v -0.161033 -1.121066 -0.373283
v -0.172350 -1.121066 -0.373283
v -0.172350 -1.125765 -0.382988
v -0.161033 -1.125765 -0.382988
v 0.072230 -1.121066 -0.373283
v 0.003246 -1.121066 -0.373283
v 0.003246 -1.125765 -0.382988
v 0.072230 -1.125765 -0.382988
v -0.010673 -1.115064 -0.375795
v 0.003246 -1.115064 -0.375795
v 0.003246 -1.119764 -0.385500
v -0.010673 -1.119764 -0.385500
v 0.178842 -1.148115 -0.430350
v 0.178842 -1.142113 -0.432861
v 0.178842 -1.040885 -0.207697
v 0.178842 -1.034884 -0.210208
v 0.178842 -1.032537 -0.204601
v 0.178842 -1.038539 -0.202090
v -0.106502 -1.119764 -0.385500
v -0.084552 -1.119764 -0.385500
v -0.084552 -1.142113 -0.432861
v -0.106502 -1.142113 -0.432861
v 0.165994 -1.121066 -0.373283
v 0.091044 -1.121066 -0.373283
v 0.091044 -1.125765 -0.382988
v 0.165994 -1.125765 -0.382988
v 0.072230 -1.115064 -0.375795
v 0.091044 -1.115064 -0.375795
v 0.072230 -1.119764 -0.385500
v -0.010673 -1.034884 -0.210208
v -0.084552 -1.034884 -0.210208
v -0.084552 -1.032537 -0.204601
v -0.010673 -1.032537 -0.204601
v -0.010673 -1.040885 -0.207697
v 0.003246 -1.040885 -0.207697
v 0.003246 -1.038539 -0.202090
v -0.010673 -1.038539 -0.202090
v -0.106502 -1.115064 -0.375795
v -0.084552 -1.115064 -0.375795
v -0.010673 -1.121066 -0.373283
v -0.084552 -1.121066 -0.373283
v -0.084552 -1.125765 -0.382988
v -0.010673 -1.125765 -0.382988
v -0.106502 -1.125765 -0.382988
v -0.106502 -1.148115 -0.430350
v -0.084552 -1.148115 -0.430350
v 0.072230 -1.040885 -0.207697
v 0.091044 -1.040885 -0.207697
v 0.091044 -1.038539 -0.202090
v 0.072230 -1.038539 -0.202090
v -0.172350 -1.119764 -0.385500
v -0.172350 -1.142113 -0.432861
v -0.172350 -1.148115 -0.430350
v 0.091044 -1.148115 -0.430350
v 0.165994 -1.148115 -0.430350
v 0.165994 -1.040885 -0.207697
v 0.165994 -1.038539 -0.202090
v -0.161033 -1.115064 -0.375795
v -0.161033 -1.119764 -0.385500
v 0.003246 -1.034884 -0.210208
v 0.003246 -1.032537 -0.204601
v -0.106502 -1.121066 -0.373283
v -0.010673 -1.142113 -0.432861
v 0.003246 -1.148115 -0.430350
v 0.072230 -1.148115 -0.430350
v -0.161033 -1.034884 -0.210208
v -0.172350 -1.032537 -0.204601
v -0.161033 -1.032537 -0.204601
v -0.161033 -1.040885 -0.207697
v -0.161033 -1.038539 -0.202090
v -0.172350 -1.038539 -0.202090
v -0.172350 -1.115064 -0.375795
v -0.106502 -1.062105 -0.251520
v -0.161033 -1.062105 -0.251520
v -0.161033 -1.083325 -0.295343
v -0.106502 -1.083325 -0.295343
v -0.172350 -1.056104 -0.254031
v -0.161033 -1.056104 -0.254031
v -0.161033 -1.077324 -0.297854
v -0.172350 -1.077324 -0.297854
v 0.003246 -1.101496 -0.347775
v 0.003246 -1.083229 -0.310050
v 0.003246 -1.081450 -0.310911
v 0.003246 -1.099718 -0.348636
v 0.178842 -1.062105 -0.251520
v 0.165994 -1.062105 -0.251520
v 0.165994 -1.083325 -0.295343
v 0.178842 -1.083325 -0.295343
v -0.084552 -1.062105 -0.251520
v -0.084552 -1.083325 -0.295343
v 0.165994 -1.101496 -0.347775
v 0.091044 -1.101496 -0.347775
v 0.091044 -1.099718 -0.348636
v 0.165994 -1.099718 -0.348636
v 0.072230 -1.101496 -0.347775
v 0.072230 -1.099718 -0.348636
v 0.003246 -1.062105 -0.251520
v -0.010673 -1.062105 -0.251520
v -0.010673 -1.083325 -0.295343
v 0.003246 -1.083325 -0.295343
v 0.091044 -1.062105 -0.251520
v 0.072230 -1.062105 -0.251520
v 0.072230 -1.083325 -0.295343
v 0.091044 -1.083325 -0.295343
v 0.091044 -1.077324 -0.297854
v 0.091044 -1.056104 -0.254031
v 0.091044 -1.054325 -0.254893
v 0.091044 -1.075545 -0.298715
v -0.106502 -1.056104 -0.254031
v -0.084552 -1.056104 -0.254031
v -0.084552 -1.077324 -0.297854
v -0.106502 -1.077324 -0.297854
v 0.072230 -1.056104 -0.254031
v 0.072230 -1.077324 -0.297854
v -0.010673 -1.056104 -0.254031
v 0.003246 -1.056104 -0.254031
v 0.003246 -1.077324 -0.297854
v -0.010673 -1.077324 -0.297854
v -0.172350 -1.062105 -0.251520
v -0.172350 -1.083325 -0.295343
v 0.165994 -1.056104 -0.254031
v 0.178842 -1.056104 -0.254031
v 0.178842 -1.077324 -0.297854
v 0.165994 -1.077324 -0.297854
v -0.172350 -1.083229 -0.310050
v -0.172350 -1.089231 -0.307539
v -0.172350 -1.101496 -0.347775
v -0.172350 -1.107498 -0.345263
v -0.161033 -1.089231 -0.307539
v -0.106502 -1.089231 -0.307539
v -0.161033 -1.083229 -0.310050
v 0.165994 -1.083229 -0.310050
v 0.091044 -1.083229 -0.310050
v 0.165994 -1.089231 -0.307539
v 0.178842 -1.089231 -0.307539
v -0.084552 -1.089231 -0.307539
v -0.106502 -1.083229 -0.310050
v -0.010673 -1.083229 -0.310050
v -0.084552 -1.083229 -0.310050
v -0.010673 -1.089231 -0.307539
v 0.003246 -1.089231 -0.307539
v 0.072230 -1.089231 -0.307539
v 0.091044 -1.089231 -0.307539
v 0.072230 -1.083229 -0.310050
v 0.178842 -1.083229 -0.310050
v -0.161033 -1.107498 -0.345263
v -0.106502 -1.107498 -0.345263
v -0.161033 -1.101496 -0.347775
v -0.010673 -1.081450 -0.310911
v -0.084552 -1.081450 -0.310911
v 0.165994 -1.107498 -0.345263
v 0.178842 -1.107498 -0.345263
v -0.084552 -1.107498 -0.345263
v 0.003246 -1.075545 -0.298715
v 0.072230 -1.075545 -0.298715
v 0.091044 -1.081450 -0.310911
v -0.010673 -1.107498 -0.345263
v 0.003246 -1.107498 -0.345263
v 0.072230 -1.107498 -0.345263
v 0.091044 -1.107498 -0.345263
v -0.161033 -1.075545 -0.298715
v -0.106502 -1.075545 -0.298715
v -0.084552 -1.101496 -0.347775
v -0.106502 -1.101496 -0.347775
v -0.010673 -1.101496 -0.347775
v 0.178842 -1.101496 -0.347775
v 0.178842 -1.051129 -0.243757
v 0.178842 -1.057130 -0.241246
v 0.165994 -1.051129 -0.243757
v -0.161033 -1.057130 -0.241246
v 0.072230 -1.057130 -0.241246
v 0.003246 -1.057130 -0.241246
v -0.010673 -1.051129 -0.243757
v 0.003246 -1.051129 -0.243757
v 0.165994 -1.057130 -0.241246
v 0.091044 -1.057130 -0.241246
v 0.072230 -1.051129 -0.243757
v 0.091044 -1.051129 -0.243757
v -0.106502 -1.051129 -0.243757
v -0.084552 -1.051129 -0.243757
v -0.010673 -1.057130 -0.241246
v -0.084552 -1.057130 -0.241246
v -0.161033 -1.051129 -0.243757
v -0.106502 -1.057130 -0.241246
v -0.106502 -1.040885 -0.207697
v -0.084552 -1.040885 -0.207697
v 0.072230 -1.034365 -0.210460
v 0.003246 -1.034365 -0.210460
v 0.003246 -1.050610 -0.244009
v 0.091044 -1.034365 -0.210460
v 0.091044 -1.050610 -0.244009
v -0.106502 -1.034884 -0.210208
v 0.165994 -1.034884 -0.210208
v 0.165994 -1.054325 -0.254893
v -0.106502 -1.054325 -0.254893
v -0.161033 -1.054325 -0.254893
v -0.010673 -1.054325 -0.254893
v -0.084552 -1.054325 -0.254893
v 0.072230 -1.054325 -0.254893
v 0.003246 -1.054325 -0.254893
v 0.165994 -1.081450 -0.310911
v -0.106502 -1.099718 -0.348636
v -0.106502 -1.081450 -0.310911
v -0.010673 -1.099718 -0.348636
v 0.072230 -1.081450 -0.310911
v -0.084552 -1.075545 -0.298715
v -0.010673 -1.075545 -0.298715
v -0.161033 -1.081450 -0.310911
v 0.005750 -1.053163 -0.258237
v 0.069727 -1.053163 -0.258237
v 0.069727 -1.072201 -0.297553
v 0.005750 -1.072201 -0.297553
v 0.005750 -1.080288 -0.314256
v 0.069727 -1.080288 -0.314256
v 0.069727 -1.096373 -0.347474
v 0.005750 -1.096373 -0.347474
v 0.093548 -1.053163 -0.258237
v 0.163490 -1.053163 -0.258237
v 0.163490 -1.072201 -0.297553
v 0.093548 -1.072201 -0.297553
v -0.082049 -1.053163 -0.258237
v -0.013177 -1.053163 -0.258237
v -0.013177 -1.072201 -0.297553
v -0.082049 -1.072201 -0.297553
v 0.165994 -1.075545 -0.298715
v -0.084552 -1.099718 -0.348636
v 0.093548 -1.080288 -0.314256
v 0.163490 -1.080288 -0.314256
v 0.163490 -1.096373 -0.347474
v 0.093548 -1.096373 -0.347474
v -0.161033 -1.099718 -0.348636
v -0.158529 -1.080288 -0.314256
v -0.109005 -1.080288 -0.314256
v -0.109005 -1.096373 -0.347474
v -0.158529 -1.096373 -0.347474
v -0.158529 -1.053163 -0.258237
v -0.109005 -1.053163 -0.258237
v -0.109005 -1.072201 -0.297553
v -0.158529 -1.072201 -0.297553
v -0.082049 -1.080288 -0.314256
v -0.013177 -1.080288 -0.314256
v -0.013177 -1.096373 -0.347474
v -0.082049 -1.096373 -0.347474
v 0.003979 -1.073632 -0.298827
v 0.003979 -1.053051 -0.256324
v 0.091777 -1.073632 -0.298827
v 0.091777 -1.053051 -0.256324
v -0.083819 -1.073632 -0.298827
v -0.083819 -1.053051 -0.256324
v 0.071497 -1.073632 -0.298827
v 0.071497 -1.053051 -0.256324
v -0.011407 -1.073632 -0.298827
v -0.011407 -1.053051 -0.256324
v -0.107235 -1.073632 -0.298827
v -0.107235 -1.053051 -0.256324
v 0.165260 -1.073632 -0.298827
v 0.165261 -1.053051 -0.256324
v -0.160299 -1.073632 -0.298827
v -0.160299 -1.053051 -0.256324
v 0.091777 -1.080177 -0.312343
v 0.165261 -1.080177 -0.312343
v -0.160299 -1.080177 -0.312343
v -0.107235 -1.080177 -0.312343
v -0.083819 -1.080177 -0.312343
v -0.011406 -1.080177 -0.312343
v 0.003979 -1.080177 -0.312343
v 0.071497 -1.080177 -0.312343
v 0.003979 -1.097805 -0.348748
v 0.091777 -1.097805 -0.348748
v -0.083819 -1.097805 -0.348748
v 0.071497 -1.097805 -0.348748
v -0.011407 -1.097805 -0.348748
v -0.107235 -1.097805 -0.348748
v 0.165260 -1.097805 -0.348748
v -0.160299 -1.097805 -0.348748
v 0.165994 -1.032537 -0.204601
v -0.106502 -1.032537 -0.204601
v -0.106502 -1.038539 -0.202090
v -0.084552 -1.038539 -0.202090
v 0.165994 -1.050610 -0.244009
v 0.165994 -1.034365 -0.210460
v -0.106502 -1.050610 -0.244009
v -0.106502 -1.034365 -0.210460
v -0.010673 -1.050610 -0.244009
v -0.010673 -1.034365 -0.210460
v 0.072230 -1.050610 -0.244009
v -0.083042 -1.033664 -0.212477
v -0.012183 -1.033664 -0.212477
v -0.012183 -1.048593 -0.243308
v -0.083042 -1.048593 -0.243308
v -0.161033 -1.050610 -0.244009
v 0.092554 -1.033664 -0.212477
v 0.164484 -1.033664 -0.212477
v 0.164484 -1.048593 -0.243308
v 0.092554 -1.048593 -0.243308
v -0.084552 -1.034365 -0.210460
v -0.084552 -1.050610 -0.244009
v -0.161033 -1.034365 -0.210460
v -0.159523 -1.033664 -0.212477
v -0.108012 -1.033664 -0.212477
v -0.108012 -1.048593 -0.243308
v -0.159523 -1.048593 -0.243308
v 0.070720 -1.033664 -0.212477
v 0.004756 -1.033664 -0.212477
v 0.003688 -1.033596 -0.211323
v 0.071788 -1.033596 -0.211323
v 0.091486 -1.033596 -0.211323
v 0.165552 -1.033596 -0.211323
v -0.084110 -1.033596 -0.211323
v -0.011115 -1.033596 -0.211323
v -0.160590 -1.033596 -0.211323
v -0.106944 -1.033596 -0.211323
v 0.004756 -1.048593 -0.243308
v 0.003688 -1.049456 -0.244076
v 0.091486 -1.049456 -0.244076
v -0.084110 -1.049456 -0.244076
v 0.071788 -1.049456 -0.244076
v 0.070720 -1.048593 -0.243308
v -0.011115 -1.049456 -0.244076
v -0.106944 -1.049456 -0.244076
v 0.165552 -1.049456 -0.244076
v -0.160590 -1.049456 -0.244076
v -0.106502 -1.150933 -0.437083
v -0.084552 -1.150933 -0.437083
v 0.003246 -1.142113 -0.432861
v 0.003246 -1.144931 -0.439595
v -0.010673 -1.144931 -0.439595
v -0.161033 -1.142113 -0.432861
v -0.161033 -1.144931 -0.439595
v -0.172350 -1.144931 -0.439595
v -0.084552 -1.144931 -0.439595
v -0.106502 -1.144931 -0.439595
v -0.161033 -1.148115 -0.430350
v -0.172350 -1.150933 -0.437083
v -0.161033 -1.150933 -0.437083
v -0.010673 -1.148115 -0.430350
v -0.010673 -1.150933 -0.437083
v 0.003246 -1.150933 -0.437083
v 0.178842 -1.144931 -0.439595
v 0.165994 -1.144931 -0.439595
v 0.072230 -1.142113 -0.432861
v 0.072230 -1.144931 -0.439595
v 0.072230 -1.150933 -0.437083
v 0.165994 -1.150933 -0.437083
v 0.091044 -1.150933 -0.437083
v 0.091044 -1.144931 -0.439595
v 0.178842 -1.150933 -0.437083
v 0.003246 -1.119315 -0.385712
v 0.003246 -1.141665 -0.433073
v 0.072230 -1.141665 -0.433073
v 0.072230 -1.119315 -0.385712
v 0.004176 -1.118399 -0.386950
v 0.071300 -1.118399 -0.386950
v 0.071300 -1.139954 -0.432629
v 0.004176 -1.139954 -0.432629
v 0.071958 -1.118836 -0.386239
v 0.003519 -1.118836 -0.386239
v 0.071958 -1.140953 -0.433107
v 0.003519 -1.140953 -0.433107
vt 0.978253 0.553632
vt 0.978402 0.553632
vt 0.978402 0.555662
vt 0.978253 0.555662
vt 0.978909 0.557692
vt 0.978402 0.557692
vt 0.978402 0.557692
vt 0.978909 0.557692
vt 0.978253 0.557692
vt 0.978402 0.559722
vt 0.978253 0.559722
vt 0.978253 0.561245
vt 0.978402 0.561245
vt 0.978402 0.561752
vt 0.978253 0.561752
vt 0.975864 0.557692
vt 0.976372 0.557692
vt 0.976372 0.559722
vt 0.975864 0.559722
vt 0.979924 0.557692
vt 0.980432 0.557692
vt 0.980432 0.559722
vt 0.979924 0.559722
vt 0.978909 0.557692
vt 0.978402 0.557692
vt 0.978402 0.557692
vt 0.978909 0.557692
vt 0.978402 0.555662
vt 0.978253 0.555662
vt 0.976476 0.557692
vt 0.976372 0.557692
vt 0.976476 0.557692
vt 0.974849 0.557692
vt 0.974342 0.557692
vt 0.974342 0.557692
vt 0.974849 0.557692
vt 0.975578 0.558561
vt 0.975575 0.558561
vt 0.975575 0.558552
vt 0.975578 0.558552
vt 0.978253 0.555662
vt 0.978402 0.555662
vt 0.978402 0.555662
vt 0.978253 0.555662
vt 0.387858 0.500000
vt 0.375000 0.500000
vt 0.375000 0.500000
vt 0.387858 0.500000
vt 0.187500 0.500000
vt 0.125000 0.500000
vt 0.125000 0.500000
vt 0.187500 0.500000
vt 0.977068 0.557692
vt 0.976789 0.557692
vt 0.976789 0.557692
vt 0.977068 0.557692
vt 0.400715 0.250000
vt 0.426431 0.250000
vt 0.426430 0.250000
vt 0.400715 0.250000
vt 0.125000 0.500000
vt 0.187500 0.500000
vt 0.977068 0.557692
vt 0.976789 0.557692
vt 0.976789 0.557692
vt 0.977068 0.557692
vt 0.976581 0.555662
vt 0.976789 0.555662
vt 0.976789 0.555662
vt 0.976581 0.555662
vt 0.976581 0.561245
vt 0.976789 0.561245
vt 0.976789 0.561752
vt 0.976581 0.561752
vt 0.976581 0.557692
vt 0.976789 0.559722
vt 0.976581 0.559722
vt 0.976581 0.553632
vt 0.976789 0.553632
vt 0.976789 0.557185
vt 0.976789 0.557692
vt 0.976789 0.557692
vt 0.976789 0.557185
vt 0.426430 0.250000
vt 0.400715 0.250000
vt 0.426430 0.437500
vt 0.426430 0.500000
vt 0.426430 0.500000
vt 0.426430 0.437500
vt 0.375000 0.500000
vt 0.387858 0.500000
vt 0.400715 0.250000
vt 0.426430 0.250000
vt 0.426430 0.250000
vt 0.400715 0.250000
vt 0.974849 0.557692
vt 0.974342 0.557692
vt 0.974342 0.557692
vt 0.974849 0.557692
vt 0.976476 0.557692
vt 0.976372 0.557692
vt 0.976372 0.557692
vt 0.976476 0.557692
vt 0.976581 0.555662
vt 0.976789 0.555662
vt 0.976789 0.555662
vt 0.976581 0.555662
vt 0.426430 0.375000
vt 0.426430 0.437500
vt 0.426430 0.437500
vt 0.426430 0.375000
vt 0.426430 0.437500
vt 0.426430 0.500000
vt 0.426430 0.500000
vt 0.187500 0.500000
vt 0.125000 0.500000
vt 0.125000 0.500000
vt 0.187500 0.500000
vt 0.387858 0.500000
vt 0.375000 0.500000
vt 0.375000 0.500000
vt 0.387858 0.500000
vt 0.400715 0.500000
vt 0.400715 0.500000
vt 0.250000 0.500000
vt 0.187500 0.500000
vt 0.250000 0.500000
vt 0.976476 0.555662
vt 0.976476 0.555662
vt 0.976581 0.557692
vt 0.976581 0.557692
vt 0.387858 0.250000
vt 0.387858 0.250000
vt 0.400715 0.500000
vt 0.400715 0.500000
vt 0.387858 0.250000
vt 0.387858 0.250000
vt 0.976476 0.553632
vt 0.976476 0.555662
vt 0.976476 0.559722
vt 0.976476 0.561245
vt 0.976476 0.561752
vt 0.976476 0.555662
vt 0.387858 0.250000
vt 0.426431 0.500000
vt 0.400715 0.500000
vt 0.976581 0.557692
vt 0.976476 0.560230
vt 0.976581 0.560230
vt 0.976581 0.560737
vt 0.976476 0.560737
vt 0.976327 0.060384
vt 0.976327 0.061737
vt 0.976327 0.061737
vt 0.976327 0.060384
vt 0.312500 0.500000
vt 0.250000 0.500000
vt 0.312500 0.500000
vt 0.426430 0.312500
vt 0.426430 0.375000
vt 0.426430 0.312500
vt 0.976327 0.059031
vt 0.976327 0.059031
vt 0.976327 0.060384
vt 0.975864 0.557692
vt 0.975357 0.557692
vt 0.975357 0.557692
vt 0.975864 0.557692
vt 0.426430 0.312500
vt 0.426430 0.375000
vt 0.426430 0.375000
vt 0.426430 0.312500
vt 0.976789 0.556170
vt 0.976789 0.556677
vt 0.976789 0.556677
vt 0.976789 0.556170
vt 0.976789 0.560230
vt 0.976789 0.560737
vt 0.312500 0.500000
vt 0.250000 0.500000
vt 0.250000 0.500000
vt 0.312500 0.500000
vt 0.312500 0.500000
vt 0.250000 0.500000
vt 0.975578 0.558578
vt 0.975575 0.558578
vt 0.975575 0.558570
vt 0.975578 0.558570
vt 0.975357 0.557692
vt 0.975357 0.557692
vt 0.975864 0.557692
vt 0.979924 0.557692
vt 0.979417 0.557692
vt 0.979417 0.557692
vt 0.979924 0.557692
vt 0.979417 0.557692
vt 0.979417 0.559722
vt 0.978909 0.559722
vt 0.975357 0.559722
vt 0.974849 0.559722
vt 0.978253 0.560230
vt 0.978402 0.560230
vt 0.978402 0.560737
vt 0.978253 0.560737
vt 0.979417 0.557692
vt 0.979924 0.557692
vt 0.976049 0.059031
vt 0.976327 0.059031
vt 0.976049 0.059031
vt 0.426430 0.500000
vt 0.980432 0.557692
vt 0.974342 0.559722
vt 0.980432 0.557692
vt 0.980432 0.557692
vt 0.975578 0.558587
vt 0.975575 0.558587
vt 0.375000 0.500000
vt 0.387858 0.500000
vt 0.125000 0.500000
vt 0.976372 0.560737
vt 0.976372 0.561245
vt 0.400715 0.500000
vt 0.976049 0.060384
vt 0.976049 0.061737
vt 0.976049 0.061737
vt 0.976049 0.060384
vt 0.976372 0.560230
vt 0.375000 0.250000
vt 0.387858 0.250000
vt 0.375000 0.250000
vt 0.375000 0.250000
vt 0.375000 0.250000
vt 0.976372 0.555662
vt 0.976372 0.555662
vt 0.976372 0.561752
vt 0.976372 0.553632
vt 0.375000 0.250000
vt 0.375000 0.250000
vt 0.976372 0.555662
vt 0.976372 0.555662
vt 0.400715 0.250000
vt 0.976249 0.513657
vt 0.977320 0.513657
vt 0.977320 0.516260
vt 0.976249 0.516260
vt 0.975714 0.513657
vt 0.975714 0.516260
vt 0.976249 0.508451
vt 0.977320 0.508451
vt 0.977320 0.511054
vt 0.976249 0.511054
vt 0.976249 0.505848
vt 0.977320 0.505848
vt 0.975714 0.505848
vt 0.975714 0.508451
vt 0.975178 0.505848
vt 0.975178 0.508451
vt 0.975178 0.511054
vt 0.975714 0.511054
vt 0.975178 0.513657
vt 0.975178 0.516260
vt 0.976327 0.061737
vt 0.426430 0.250000
vt 0.976049 0.059031
vt 0.426430 0.312500
vt 0.312500 0.500000
vt 0.976327 0.059031
vt 0.976049 0.059031
vt 0.976327 0.060384
vt 0.976049 0.060384
vt 0.976049 0.061737
vt 0.976327 0.061737
vt 0.976049 0.061737
vt 0.976049 0.060384
vt 0.977068 0.560737
vt 0.977068 0.561245
vt 0.460755 0.250000
vt 0.460755 0.312500
vt 0.460755 0.375000
vt 0.460755 0.437500
vt 0.977068 0.559722
vt 0.977068 0.560230
vt 0.977410 0.557692
vt 0.977410 0.557692
vt 0.977410 0.557692
vt 0.977410 0.557692
vt 0.976789 0.555662
vt 0.977068 0.555662
vt 0.977068 0.555662
vt 0.976789 0.555662
vt 0.460755 0.500000
vt 0.977068 0.555662
vt 0.977068 0.555662
vt 0.977068 0.561752
vt 0.977068 0.553632
vt 0.975257 0.559678
vt 0.975257 0.559678
vt 0.975257 0.559678
vt 0.975257 0.559678
vt 0.975257 0.559678
vt 0.975257 0.559678
vt 0.975257 0.559678
vt 0.975257 0.559678
vt 0.975257 0.559678
vt 0.975257 0.559678
vt 0.977528 0.557692
vt 0.977528 0.557692
vt 0.977528 0.557692
vt 0.977528 0.557692
vt 0.977410 0.560737
vt 0.977410 0.561245
vt 0.975246 0.559654
vt 0.975246 0.559652
vt 0.975246 0.559652
vt 0.975246 0.559654
vt 0.975246 0.559650
vt 0.975247 0.559650
vt 0.975247 0.559650
vt 0.975246 0.559650
vt 0.977410 0.559722
vt 0.977410 0.560230
vt 0.975247 0.559652
vt 0.975246 0.559651
vt 0.975247 0.559651
vt 0.977410 0.555662
vt 0.977410 0.555662
vt 0.975246 0.559648
vt 0.975247 0.559648
vt 0.977410 0.555662
vt 0.977410 0.555662
vt 0.977410 0.561752
vt 0.977410 0.553632
vt 0.978253 0.557692
vt 0.978253 0.557692
vt 0.978253 0.557692
vt 0.977528 0.560737
vt 0.977528 0.561245
vt 0.975592 0.558587
vt 0.975590 0.558587
vt 0.975590 0.558578
vt 0.975592 0.558578
vt 0.975592 0.558570
vt 0.975590 0.558570
vt 0.975590 0.558561
vt 0.975592 0.558561
vt 0.977528 0.559722
vt 0.977528 0.560230
vt 0.977528 0.555662
vt 0.977528 0.555662
vt 0.975590 0.558552
vt 0.975592 0.558552
vt 0.977528 0.555662
vt 0.977528 0.555662
vt 0.977528 0.561752
vt 0.977528 0.553632
vt 0.975590 0.558561
vt 0.975578 0.558561
vt 0.975578 0.558570
vt 0.948716 0.062591
vt 0.947234 0.062591
vt 0.947234 0.061554
vt 0.948716 0.061554
vt 0.948716 0.063627
vt 0.947234 0.063627
vt 0.975590 0.558570
vt 0.975578 0.558578
vt 0.975590 0.558578
vt 0.975257 0.559659
vt 0.975257 0.559659
vt 0.975257 0.559659
vt 0.975257 0.559659
vt 0.975247 0.559652
vt 0.975247 0.559654
vt 0.975247 0.559654
vt 0.973853 0.063556
vt 0.973853 0.063821
vt 0.973853 0.063821
vt 0.973853 0.063556
vt 0.975246 0.559654
vt 0.975247 0.559654
vt 0.975246 0.559652
vt 0.975247 0.559652
vt 0.973674 0.063556
vt 0.973674 0.063821
vt 0.973674 0.063821
vt 0.971717 0.062494
vt 0.971717 0.062494
vt 0.971717 0.062494
vt 0.971717 0.062494
vt 0.973674 0.063556
vt 0.971717 0.062494
vt 0.971717 0.062494
vt 0.971717 0.062494
vt 0.971717 0.062494
vt 0.975257 0.559659
vt 0.975257 0.559659
vt 0.975246 0.559651
vt 0.975247 0.559651
vt 0.973674 0.064087
vt 0.973853 0.064087
vt 0.973853 0.064352
vt 0.973674 0.064352
vt 0.973674 0.064087
vt 0.973853 0.064087
vt 0.973853 0.064352
vt 0.973674 0.064352
vt 0.977528 0.555662
vt 0.978253 0.555662
vt 0.978402 0.557692
vt 0.978253 0.557692
vt 0.977410 0.555662
vt 0.977528 0.557692
vt 0.977068 0.555662
vt 0.977410 0.557692
vt 0.976789 0.555662
vt 0.977068 0.557692
vt 0.400715 0.500000
vt 0.387858 0.500000
vt 0.375000 0.250000
vt 0.387858 0.250000
vt 0.250000 0.500000
vt 0.187500 0.500000
vt 0.980432 0.557692
vt 0.979924 0.557692
vt 0.979900 0.906593
vt 0.979127 0.906593
vt 0.979127 0.906593
vt 0.979900 0.906593
vt 0.375000 0.500000
vt 0.312500 0.500000
vt 0.980672 0.906593
vt 0.980672 0.906593
vt 0.980672 0.906593
vt 0.980672 0.906593
vt 0.426431 0.500000
vt 0.400715 0.250000
vt 0.426431 0.250000
vt 0.976789 0.557692
vt 0.125000 0.500000
vt 0.978402 0.555662
vt 0.978909 0.557692
vt 0.976372 0.557692
vt 0.976476 0.557692
vt 0.974342 0.557692
vt 0.974849 0.557692
vt 0.976581 0.555662
vt 0.976476 0.555662
vt 0.976581 0.557692
vt 0.975357 0.557692
vt 0.975864 0.557692
vt 0.979417 0.557692
vt 0.976372 0.555662
vt 0.979900 0.906593
vt 0.979900 0.906593
vt 0.979127 0.906593
vt 0.979127 0.906593
vt 0.979916 0.906593
vt 0.980655 0.906593
vt 0.980655 0.906593
vt 0.979916 0.906593
vt 0.979900 0.906593
vt 0.979900 0.906593
vt 0.979908 0.906593
vt 0.979883 0.906593
vt 0.979891 0.906593
vt 0.979883 0.906593
vt 0.979900 0.906593
vt 0.979900 0.906593
vt 0.979891 0.906593
vt 0.979908 0.906593
vt 0.980670 0.906593
vt 0.980670 0.906593
vt 0.979144 0.906593
vt 0.979144 0.906593
vt 0.979129 0.906593
vt 0.979129 0.906593
vt 0.940580 0.206256
vt 0.939370 0.206256
vt 0.939370 0.206025
vt 0.940580 0.206025
vt 0.940882 0.204815
vt 0.940947 0.204815
vt 0.940947 0.204815
vt 0.940882 0.204815
vt 0.940580 0.203673
vt 0.939370 0.203673
vt 0.939370 0.203606
vt 0.940580 0.203606
vt 0.940882 0.203606
vt 0.940624 0.203606
vt 0.940624 0.203606
vt 0.940882 0.203606
vt 0.940624 0.203673
vt 0.938200 0.203673
vt 0.938161 0.203673
vt 0.938161 0.203606
vt 0.938200 0.203606
vt 0.939003 0.203673
vt 0.938766 0.203673
vt 0.938766 0.203606
vt 0.939003 0.203606
vt 0.941233 0.203673
vt 0.941185 0.203673
vt 0.941185 0.203606
vt 0.941233 0.203606
vt 0.939370 0.203606
vt 0.940580 0.203606
vt 0.939370 0.204815
vt 0.940580 0.204815
vt 0.940580 0.204815
vt 0.939370 0.204815
vt 0.941563 0.203606
vt 0.941487 0.203606
vt 0.941487 0.203606
vt 0.941563 0.203606
vt 0.939326 0.203673
vt 0.939068 0.203673
vt 0.939068 0.203606
vt 0.939326 0.203606
vt 0.940947 0.203673
vt 0.940882 0.203673
vt 0.940947 0.203606
vt 0.941233 0.204815
vt 0.941487 0.204815
vt 0.941487 0.204815
vt 0.941233 0.204815
vt 0.938718 0.204815
vt 0.938766 0.204815
vt 0.938766 0.204815
vt 0.938718 0.204815
vt 0.941563 0.203673
vt 0.941487 0.203673
vt 0.938718 0.203673
vt 0.938463 0.203673
vt 0.938463 0.203606
vt 0.938718 0.203606
vt 0.938388 0.203606
vt 0.938388 0.203606
vt 0.938463 0.203606
vt 0.939003 0.204815
vt 0.939068 0.204815
vt 0.939068 0.204815
vt 0.939003 0.204815
vt 0.939370 0.207234
vt 0.940580 0.207234
vt 0.940580 0.207234
vt 0.939370 0.207234
vt 0.939068 0.203606
vt 0.939326 0.203606
vt 0.939326 0.204815
vt 0.939326 0.204815
vt 0.941751 0.203673
vt 0.941751 0.203606
vt 0.941185 0.204815
vt 0.941185 0.204815
vt 0.938388 0.203673
vt 0.941233 0.203606
vt 0.938766 0.203606
vt 0.939003 0.203606
vt 0.941751 0.204815
vt 0.941790 0.204815
vt 0.941790 0.204815
vt 0.941751 0.204815
vt 0.938161 0.204815
vt 0.938200 0.204815
vt 0.938200 0.204815
vt 0.938161 0.204815
vt 0.941790 0.203673
vt 0.941790 0.203606
vt 0.938388 0.204513
vt 0.938200 0.204513
vt 0.938200 0.204211
vt 0.938388 0.204211
vt 0.941790 0.204513
vt 0.941751 0.204513
vt 0.941751 0.204211
vt 0.941790 0.204211
vt 0.942869 0.097458
vt 0.942869 0.096555
vt 0.942869 0.096555
vt 0.942869 0.097458
vt 0.939370 0.204513
vt 0.939326 0.204513
vt 0.939326 0.204211
vt 0.939370 0.204211
vt 0.938463 0.204513
vt 0.938463 0.204211
vt 0.944816 0.097458
vt 0.943919 0.097458
vt 0.943919 0.097458
vt 0.944816 0.097458
vt 0.943694 0.097458
vt 0.943694 0.097458
vt 0.938766 0.204513
vt 0.938718 0.204513
vt 0.938718 0.204211
vt 0.938766 0.204211
vt 0.939068 0.204513
vt 0.939003 0.204513
vt 0.939003 0.204211
vt 0.939068 0.204211
vt 0.943919 0.096262
vt 0.943919 0.095212
vt 0.943919 0.095212
vt 0.943919 0.096262
vt 0.941563 0.204513
vt 0.941487 0.204513
vt 0.941487 0.204211
vt 0.941563 0.204211
vt 0.940947 0.204513
vt 0.940882 0.204513
vt 0.940882 0.204211
vt 0.940947 0.204211
vt 0.941233 0.204513
vt 0.941185 0.204513
vt 0.941185 0.204211
vt 0.941233 0.204211
vt 0.938161 0.204513
vt 0.938161 0.204211
vt 0.940624 0.204513
vt 0.940580 0.204513
vt 0.940580 0.204211
vt 0.940624 0.204211
vt 0.940580 0.206714
vt 0.939370 0.206714
vt 0.939370 0.206630
vt 0.940580 0.206630
vt 0.940580 0.206974
vt 0.939370 0.206974
vt 0.938200 0.204126
vt 0.938388 0.204126
vt 0.941751 0.204126
vt 0.941790 0.204126
vt 0.940624 0.204126
vt 0.940882 0.204126
vt 0.939326 0.204126
vt 0.939370 0.204126
vt 0.938463 0.204126
vt 0.941563 0.204126
vt 0.941233 0.204126
vt 0.941487 0.204126
vt 0.938718 0.204126
vt 0.938766 0.204126
vt 0.939003 0.204126
vt 0.939068 0.204126
vt 0.940947 0.204126
vt 0.941185 0.204126
vt 0.938161 0.204126
vt 0.940580 0.204126
vt 0.940580 0.207167
vt 0.939370 0.207167
vt 0.938200 0.203866
vt 0.938388 0.203866
vt 0.941751 0.203866
vt 0.941790 0.203866
vt 0.941820 0.096555
vt 0.942703 0.096555
vt 0.942703 0.096555
vt 0.941820 0.096555
vt 0.939326 0.203866
vt 0.939370 0.203866
vt 0.938463 0.203866
vt 0.943694 0.096262
vt 0.942869 0.096262
vt 0.942869 0.096262
vt 0.943694 0.096262
vt 0.943919 0.096555
vt 0.943919 0.096555
vt 0.938718 0.203866
vt 0.938766 0.203866
vt 0.939003 0.203866
vt 0.939068 0.203866
vt 0.941557 0.096262
vt 0.940905 0.096262
vt 0.940905 0.096262
vt 0.941557 0.096262
vt 0.941487 0.203866
vt 0.941563 0.203866
vt 0.940882 0.203866
vt 0.940947 0.203866
vt 0.941185 0.203866
vt 0.941233 0.203866
vt 0.938161 0.203866
vt 0.940580 0.203866
vt 0.940624 0.203866
vt 0.940580 0.204584
vt 0.939370 0.204584
vt 0.940624 0.204584
vt 0.938200 0.204584
vt 0.938161 0.204584
vt 0.939003 0.204584
vt 0.938766 0.204584
vt 0.941233 0.204584
vt 0.941185 0.204584
vt 0.939326 0.204584
vt 0.939068 0.204584
vt 0.940947 0.204584
vt 0.940882 0.204584
vt 0.941563 0.204584
vt 0.941487 0.204584
vt 0.938718 0.204584
vt 0.938463 0.204584
vt 0.941751 0.204584
vt 0.938388 0.204584
vt 0.941790 0.204584
vt 0.939370 0.206327
vt 0.940580 0.206327
vt 0.938388 0.204815
vt 0.938463 0.204815
vt 0.942869 0.094163
vt 0.943694 0.094163
vt 0.943694 0.094163
vt 0.942869 0.094163
vt 0.942869 0.094966
vt 0.942869 0.094966
vt 0.943919 0.094966
vt 0.943919 0.094163
vt 0.943919 0.094163
vt 0.943919 0.094966
vt 0.941563 0.204815
vt 0.940624 0.204815
vt 0.944816 0.095212
vt 0.944816 0.095212
vt 0.940905 0.095212
vt 0.941557 0.095212
vt 0.941557 0.095212
vt 0.940905 0.095212
vt 0.941820 0.095212
vt 0.942703 0.095212
vt 0.942703 0.095212
vt 0.941820 0.095212
vt 0.942869 0.095212
vt 0.943694 0.095212
vt 0.943694 0.095212
vt 0.942869 0.095212
vt 0.944816 0.096555
vt 0.944816 0.096555
vt 0.941557 0.096555
vt 0.941557 0.097458
vt 0.941557 0.097458
vt 0.941557 0.096555
vt 0.942703 0.097458
vt 0.942703 0.097458
vt 0.943694 0.096555
vt 0.943694 0.096555
vt 0.942703 0.096262
vt 0.941820 0.096262
vt 0.941820 0.096262
vt 0.942703 0.096262
vt 0.940905 0.096555
vt 0.940905 0.096555
vt 0.942899 0.095266
vt 0.943664 0.095266
vt 0.943664 0.096208
vt 0.942899 0.096208
vt 0.942899 0.096609
vt 0.943664 0.096609
vt 0.943664 0.097404
vt 0.942899 0.097404
vt 0.943949 0.095266
vt 0.944786 0.095266
vt 0.944786 0.096208
vt 0.943949 0.096208
vt 0.941850 0.095266
vt 0.942673 0.095266
vt 0.942673 0.096208
vt 0.941850 0.096208
vt 0.944816 0.096262
vt 0.944816 0.096262
vt 0.941820 0.097458
vt 0.941820 0.097458
vt 0.943949 0.096609
vt 0.944786 0.096609
vt 0.944786 0.097404
vt 0.943949 0.097404
vt 0.940905 0.097458
vt 0.940905 0.097458
vt 0.106764 0.374082
vt 0.107356 0.374082
vt 0.107356 0.374877
vt 0.106764 0.374877
vt 0.241331 0.392940
vt 0.241922 0.392940
vt 0.241922 0.393882
vt 0.241331 0.393882
vt 0.941850 0.096609
vt 0.942673 0.096609
vt 0.942673 0.097404
vt 0.941850 0.097404
vt 0.942874 0.096254
vt 0.942874 0.095220
vt 0.943924 0.096254
vt 0.943924 0.095220
vt 0.941824 0.096254
vt 0.941824 0.095220
vt 0.943690 0.096254
vt 0.943690 0.095220
vt 0.942699 0.096254
vt 0.942699 0.095220
vt 0.941553 0.096254
vt 0.941553 0.095220
vt 0.941527 0.096208
vt 0.941527 0.095266
vt 0.944811 0.096254
vt 0.944811 0.095220
vt 0.940935 0.095266
vt 0.940935 0.096208
vt 0.940909 0.096254
vt 0.940909 0.095220
vt 0.943924 0.096562
vt 0.944811 0.096562
vt 0.941527 0.096609
vt 0.940935 0.096609
vt 0.940909 0.096562
vt 0.941553 0.096562
vt 0.941824 0.096562
vt 0.942699 0.096562
vt 0.942874 0.096562
vt 0.943690 0.096562
vt 0.942874 0.097450
vt 0.943924 0.097450
vt 0.941824 0.097450
vt 0.943690 0.097450
vt 0.942699 0.097450
vt 0.941553 0.097450
vt 0.941527 0.097404
vt 0.944811 0.097450
vt 0.940935 0.097404
vt 0.940909 0.097450
vt 0.940580 0.204860
vt 0.939370 0.204860
vt 0.940580 0.205468
vt 0.939370 0.205468
vt 0.939370 0.205420
vt 0.940580 0.205420
vt 0.940580 0.205183
vt 0.939370 0.205183
vt 0.939370 0.205118
vt 0.940580 0.205118
vt 0.940580 0.205798
vt 0.939370 0.205798
vt 0.939370 0.205723
vt 0.940580 0.205723
vt 0.940580 0.205986
vt 0.939370 0.205986
vt 0.940580 0.206025
vt 0.939370 0.206025
vt 0.938463 0.204815
vt 0.940624 0.204815
vt 0.941563 0.204815
vt 0.938388 0.204815
vt 0.944816 0.094163
vt 0.944816 0.094966
vt 0.944816 0.094966
vt 0.944816 0.094163
vt 0.941557 0.094163
vt 0.941557 0.094966
vt 0.941557 0.094966
vt 0.941557 0.094163
vt 0.942703 0.094163
vt 0.942703 0.094966
vt 0.942703 0.094966
vt 0.942703 0.094163
vt 0.943694 0.094966
vt 0.943694 0.094966
vt 0.941838 0.094195
vt 0.942685 0.094195
vt 0.942685 0.094934
vt 0.941838 0.094934
vt 0.940905 0.094966
vt 0.940905 0.094966
vt 0.943938 0.094195
vt 0.944798 0.094195
vt 0.944798 0.094934
vt 0.943938 0.094934
vt 0.941820 0.094966
vt 0.941820 0.094163
vt 0.941820 0.094163
vt 0.941820 0.094966
vt 0.940905 0.094163
vt 0.940905 0.094163
vt 0.453416 0.388407
vt 0.454032 0.388407
vt 0.454032 0.389146
vt 0.453416 0.389146
vt 0.943676 0.094195
vt 0.942887 0.094195
vt 0.942872 0.094167
vt 0.943692 0.094167
vt 0.943922 0.094167
vt 0.944813 0.094167
vt 0.941822 0.094167
vt 0.942700 0.094167
vt 0.941539 0.094195
vt 0.940923 0.094195
vt 0.940908 0.094167
vt 0.941554 0.094167
vt 0.942887 0.094934
vt 0.942872 0.094962
vt 0.943922 0.094962
vt 0.941822 0.094962
vt 0.943692 0.094962
vt 0.943676 0.094934
vt 0.942700 0.094962
vt 0.941554 0.094962
vt 0.941539 0.094934
vt 0.944813 0.094962
vt 0.940923 0.094934
vt 0.940908 0.094962
vt 0.938388 0.203606
vt 0.938463 0.203606
vt 0.941185 0.203606
vt 0.941185 0.203606
vt 0.941233 0.203606
vt 0.941790 0.203606
vt 0.941751 0.203606
vt 0.941751 0.203606
vt 0.941790 0.203606
vt 0.941487 0.203606
vt 0.941563 0.203606
vt 0.938200 0.203606
vt 0.938161 0.203606
vt 0.938161 0.203606
vt 0.938200 0.203606
vt 0.938718 0.203606
vt 0.938718 0.203606
vt 0.938766 0.203606
vt 0.940580 0.203606
vt 0.940624 0.203606
vt 0.940947 0.203606
vt 0.940580 0.202435
vt 0.939370 0.202435
vt 0.939370 0.202396
vt 0.940580 0.202396
vt 0.940580 0.203239
vt 0.939370 0.203239
vt 0.939370 0.203001
vt 0.940580 0.203001
vt 0.939370 0.203562
vt 0.939370 0.203303
vt 0.940580 0.203303
vt 0.940580 0.202953
vt 0.939370 0.202953
vt 0.939370 0.202699
vt 0.940580 0.202699
vt 0.939370 0.202623
vt 0.940580 0.202623
vt 0.939370 0.203606
vt 0.939003 0.203606
vt 0.939068 0.203606
vt 0.940947 0.203606
vt 0.940882 0.203606
vt 0.940580 0.207234
vt 0.939370 0.207234
vt 0.939326 0.203606
vt 0.942869 0.098362
vt 0.942869 0.098362
vt 0.942869 0.098362
vt 0.942869 0.098362
vt 0.943694 0.098362
vt 0.943694 0.098362
vt 0.943694 0.098362
vt 0.943694 0.098362
vt 0.942881 0.098362
vt 0.943683 0.098362
vt 0.943683 0.098362
vt 0.942881 0.098362
vt 0.943693 0.098362
vt 0.942871 0.098362
vt 0.943693 0.098362
vt 0.942871 0.098362
vn -1.0000 0.0000 0.0000
vn 0.0000 0.0000 -1.0000
vn 1.0000 0.0000 0.0000
vn 0.0000 -0.0000 1.0000
vn 0.0000 -1.0000 -0.0000
vn 0.0000 1.0000 0.0000
vn 0.0000 0.3598 -0.9330
vn 0.0000 0.9011 -0.4337
vn 0.0000 -0.0130 -0.9999
vn 0.0022 -0.0018 -1.0000
vn -0.0022 -0.0018 -1.0000
vn -0.0094 0.0000 -1.0000
vn -0.8969 0.1591 -0.4126
vn 0.0000 -0.7517 -0.6595
vn 0.0000 0.9999 0.0158
vn 0.8970 0.1591 -0.4125
vn 0.0022 0.0018 -1.0000
vn -0.0022 0.0018 -1.0000
vn 0.0107 0.0000 -0.9999
vn 0.0000 0.0130 -0.9999
vn 0.0291 -0.9306 -0.3648
vn -0.0292 -0.9306 -0.3648
vn 0.0000 -0.4413 -0.8973
vn -0.0291 -0.9306 0.3648
vn 0.0291 -0.9306 0.3648
vn 0.0000 -0.4413 0.8973
vn 0.9239 -0.3826 0.0000
vn 0.3826 -0.9239 0.0000
vn -0.3827 -0.9239 0.0000
vn -0.9239 -0.3826 0.0000
vn 0.0000 -0.3826 0.9239
vn 0.0000 -0.9239 0.3826
vn 0.0000 -0.9239 -0.3826
vn 0.0000 -0.3826 -0.9239
vn 0.0000 0.9224 -0.3861
vn 0.0000 0.9022 -0.4313
vn 0.0000 0.9044 -0.4268
vn 0.0000 0.9000 -0.4358
vn 0.0000 -0.9000 0.4358
vn 0.0000 -0.9022 0.4313
vn 0.0000 0.9015 -0.4328
vn 0.0000 0.9226 -0.3857
vn 0.0000 -0.9225 0.3860
vn 0.0000 -0.9044 0.4268
vn 0.0000 -0.4358 -0.9000
vn 0.0000 0.4356 0.9001
vn 0.0000 -0.4356 -0.9001
vn -0.0000 -0.4361 -0.8999
vn 0.0000 0.4357 0.9001
vn 0.0000 0.4361 0.8999
vn -0.0000 0.4362 0.8999
vn -0.3828 0.8315 -0.4026
vn -0.9239 0.3443 -0.1667
vn -0.3829 0.8315 -0.4026
vn -0.3830 0.8314 -0.4025
vn 0.9239 0.3443 -0.1667
vn 0.3826 0.8316 -0.4027
vn 0.9239 0.3444 -0.1668
vn 0.9238 0.3445 -0.1669
vn 0.9238 0.3445 -0.1668
vn 0.3825 0.8316 -0.4027
vn -0.3826 0.8316 -0.4027
vn -0.9238 0.3447 -0.1669
vn 0.0000 -0.0584 -0.9983
vn 0.0000 0.6649 -0.7469
vn 0.0000 0.9983 -0.0579
vn 0.0000 0.7474 0.6644
vn -0.0000 0.7471 0.6648
vn 0.0000 0.9983 -0.0580
vn -0.3827 0.8315 -0.4026
vn -0.3822 0.8316 -0.4030
vn -0.3822 0.8316 -0.4029
vn 0.3829 0.8314 -0.4026
vn 0.3828 0.8315 -0.4026
vn 0.3825 0.8316 -0.4028
vn -0.9237 0.3447 -0.1669
vn 0.0000 0.6647 -0.7471
vn 0.0000 0.9983 -0.0585
vn 0.0000 0.7469 0.6650
vn 0.0000 0.9983 -0.0583
vn 0.0000 0.7469 0.6649
vn 0.0000 0.9983 -0.0584
vn 0.0000 0.3859 0.9225
vn 0.0000 0.3860 0.9225
vn 0.0000 0.9225 -0.3861
vn 0.0000 -0.4359 -0.9000
vn 0.0000 -0.4357 -0.9001
vn 0.0000 0.4358 0.9001
vn 0.0000 -0.4358 -0.9001
vn 0.0000 0.4359 0.9000
vn 0.0000 0.9983 -0.0588
vn 0.0000 0.7466 0.6653
vn 0.0000 0.9983 -0.0589
vn 0.0000 0.7470 0.6648
vn 0.0000 0.9983 -0.0590
vn 0.0000 0.7465 0.6653
vn -0.3823 0.8317 -0.4027
vn -0.9240 0.3442 -0.1667
vn -0.9239 0.3444 -0.1668
vn 0.9240 0.3442 -0.1667
vn 0.3827 0.8315 -0.4025
vn 0.3823 0.8317 -0.4027
vn 0.3826 0.8316 -0.4026
vn -0.3826 0.8315 -0.4027
vn -0.9239 0.3443 -0.1669
vn 0.0000 -0.0580 -0.9983
vn 0.0000 0.6648 -0.7470
vn 0.0000 -0.0579 -0.9983
vn 0.0000 0.6648 -0.7471
vn 0.0000 -0.9225 0.3861
vn 0.0000 0.9225 -0.3860
vn 0.0000 -0.3861 -0.9225
vn 0.0000 -0.4271 -0.9042
vn -0.0000 0.7405 0.6721
vn 0.0000 0.8516 0.5242
vn 0.0000 0.4316 -0.9021
vn 0.0000 -0.0482 -0.9988
vn 0.9239 0.3460 -0.1633
vn 0.7284 0.6196 -0.2924
vn -0.9237 0.3465 -0.1635
vn -0.7285 0.6196 -0.2924
vn 0.0000 0.4269 0.9043
usemtl Material.001
s 1
f 1/1/1 2/2/1 3/3/1 4/4/1
f 5/5/2 6/6/2 7/7/2 8/8/2
f 9/9/3 6/6/3 10/10/3 11/11/3
f 12/12/4 13/13/4 2/14/4 1/15/4
f 14/16/5 15/17/5 16/18/5 17/19/5
f 18/20/6 3/21/6 2/22/6 13/23/6
f 19/24/5 20/25/5 21/26/5 22/27/5
f 4/4/2 3/3/2 23/28/2 24/29/2
f 25/30/2 15/17/2 26/31/2 27/32/2
f 28/33/2 29/34/2 30/35/2 31/36/2
f 32/37/7 22/38/7 21/39/7 33/40/7
f 34/41/3 35/42/3 36/43/3 37/44/3
f 38/45/1 39/46/1 40/47/1 41/48/1
f 42/49/6 43/50/6 44/51/6 45/52/6
f 46/53/1 47/54/1 48/55/1 49/56/1
f 50/57/3 51/58/3 52/59/3 53/60/3
f 45/52/5 44/51/5 54/61/5 55/62/5
f 56/63/2 57/64/2 58/65/2 59/66/2
f 60/67/2 61/68/2 62/69/2 63/70/2
f 64/71/4 65/72/4 66/73/4 67/74/4
f 68/75/3 57/64/3 69/76/3 70/77/3
f 67/78/1 66/79/1 61/68/1 60/67/1
f 71/80/2 72/81/2 73/82/2 74/83/2
f 53/60/1 52/59/1 75/84/1 76/85/1
f 77/86/6 48/87/6 72/88/6 71/89/6
f 41/48/3 40/47/3 78/90/3 79/91/3
f 80/92/3 81/93/3 82/94/3 83/95/3
f 55/96/2 54/97/2 84/98/2 85/99/2
f 79/100/2 78/101/2 86/102/2 87/103/2
f 76/104/2 75/105/2 81/106/2 80/107/2
f 88/108/6 89/109/6 90/110/6 91/111/6
f 74/112/5 73/113/5 92/114/5 89/109/5
f 85/115/6 84/116/6 93/117/6 94/118/6
f 87/119/1 86/120/1 95/121/1 96/122/1
f 73/113/1 97/123/1 98/124/1 92/114/1
f 99/125/5 94/118/5 100/126/5 101/127/5
f 102/128/2 76/104/2 80/107/2 103/129/2
f 72/81/2 104/130/2 97/131/2 73/82/2
f 103/132/3 80/92/3 83/95/3 105/133/3
f 48/87/3 106/134/3 104/135/3 72/88/3
f 107/136/1 53/60/1 76/85/1 102/137/1
f 108/138/1 67/78/1 60/67/1 109/139/1
f 25/30/3 68/75/3 70/77/3 110/140/3
f 111/141/4 64/71/4 67/74/4 108/142/4
f 109/139/2 60/67/2 63/70/2 112/143/2
f 113/144/3 50/57/3 53/60/3 107/136/3
f 47/145/1 114/146/1 106/134/1 48/87/1
f 57/64/2 68/75/2 115/147/2 58/65/2
f 116/148/4 117/149/4 118/150/4 119/151/4
f 120/152/2 121/153/2 122/154/2 123/155/2
f 124/156/6 125/157/6 99/125/6 126/158/6
f 127/159/5 128/160/5 88/108/5 129/161/5
f 120/152/6 130/162/6 131/163/6 132/164/6
f 133/165/2 134/166/2 125/167/2 124/168/2
f 135/169/6 136/170/6 137/171/6 138/172/6
f 138/173/2 137/174/2 128/175/2 127/176/2
f 117/149/4 139/177/4 140/178/4 118/150/4
f 141/179/5 142/180/5 134/181/5 133/182/5
f 143/183/6 144/184/6 142/180/6 141/179/6
f 145/185/7 146/186/7 147/187/7 148/188/7
f 14/16/2 149/189/2 150/190/2 151/191/2
f 152/192/5 153/193/5 147/194/5 146/195/5
f 5/5/6 154/196/6 155/197/6 156/198/6
f 28/33/5 149/189/5 157/199/5 158/200/5
f 159/201/4 156/202/4 155/203/4 160/204/4
f 18/20/2 154/196/2 161/205/2 162/206/2
f 11/11/4 10/10/4 156/202/4 159/201/4
f 6/6/6 5/5/6 156/198/6 10/10/6
f 15/17/2 14/16/2 151/191/2 26/31/2
f 39/46/6 143/183/6 141/179/6 40/47/6
f 40/47/5 141/179/5 133/182/5 78/90/5
f 70/77/4 69/76/4 139/177/4 117/149/4
f 78/101/2 133/165/2 124/168/2 86/102/2
f 86/120/6 124/156/6 126/158/6 95/121/6
f 110/140/4 70/77/4 117/149/4 116/148/4
f 163/207/2 130/162/2 164/208/2 165/209/2
f 128/160/5 74/112/5 89/109/5 88/108/5
f 89/109/6 92/114/6 166/210/6 90/110/6
f 136/170/6 77/86/6 71/89/6 137/171/6
f 137/174/2 71/80/2 74/83/2 128/175/2
f 148/188/7 147/187/7 22/38/7 32/37/7
f 153/193/5 19/24/5 22/27/5 147/194/5
f 149/189/5 14/16/5 17/19/5 157/199/5
f 154/196/2 5/5/2 8/8/2 161/205/2
f 3/21/2 18/20/2 162/206/2 23/211/2
f 29/34/5 28/33/5 158/200/5 167/212/5
f 35/213/5 152/192/5 146/195/5 36/214/5
f 37/215/7 36/216/7 146/186/7 145/185/7
f 75/105/2 138/173/2 127/176/2 81/106/2
f 52/59/6 135/169/6 138/172/6 75/84/6
f 96/122/3 95/121/3 168/217/3 169/218/3
f 81/93/5 127/159/5 129/161/5 82/94/5
f 94/118/5 93/117/5 170/219/5 100/126/5
f 119/151/4 118/150/4 64/71/4 111/141/4
f 125/157/6 85/115/6 94/118/6 99/125/6
f 134/166/2 55/96/2 85/99/2 125/167/2
f 118/150/4 140/178/4 65/72/4 64/71/4
f 142/180/5 45/52/5 55/62/5 134/181/5
f 144/184/6 42/49/6 45/52/6 142/180/6
f 149/189/2 28/33/2 31/36/2 150/190/2
f 154/196/6 18/20/6 13/23/6 155/197/6
f 160/204/4 155/203/4 13/13/4 12/12/4
f 157/220/4 119/151/4 111/141/4 158/221/4
f 98/124/3 96/122/3 169/218/3 171/222/3
f 172/223/5 173/224/5 174/225/5 175/226/5
f 16/18/4 110/140/4 116/148/4 17/227/4
f 93/228/1 105/133/1 176/229/1 170/230/1
f 17/227/4 116/148/4 119/151/4 157/220/4
f 43/231/3 113/144/3 107/136/3 44/232/3
f 29/233/2 109/139/2 112/143/2 30/234/2
f 158/221/4 111/141/4 108/142/4 167/235/4
f 15/17/3 25/30/3 110/140/3 16/18/3
f 167/236/1 108/138/1 109/139/1 29/233/1
f 44/232/1 107/136/1 102/137/1 54/237/1
f 84/238/3 103/132/3 105/133/3 93/228/3
f 54/239/2 102/128/2 103/129/2 84/240/2
f 105/133/1 83/95/1 177/241/1 176/229/1
f 97/123/1 87/119/1 96/122/1 98/124/1
f 104/130/2 79/100/2 87/103/2 97/131/2
f 106/134/3 41/48/3 79/91/3 104/135/3
f 114/146/1 38/45/1 41/48/1 106/134/1
f 68/75/2 25/30/2 27/32/2 115/147/2
f 178/242/2 90/243/2 166/244/2 171/245/2
f 131/246/2 178/242/2 171/245/2 169/247/2
f 174/248/2 179/249/2 91/250/2 175/251/2
f 175/251/2 91/250/2 90/243/2 178/242/2
f 177/252/2 180/253/2 179/249/2 174/248/2
f 176/254/2 177/252/2 174/248/2 181/255/2
f 170/256/2 176/254/2 181/255/2 100/257/2
f 101/258/2 132/259/2 131/246/2 182/260/2
f 100/257/2 181/255/2 132/259/2 101/258/2
f 182/260/2 131/246/2 169/247/2 168/261/2
f 121/153/6 120/152/6 132/164/6 181/262/6
f 83/95/1 82/94/1 180/263/1 177/241/1
f 130/162/1 163/207/1 178/264/1 131/163/1
f 82/94/6 129/161/6 179/265/6 180/263/6
f 126/158/5 99/125/5 101/127/5 182/266/5
f 163/207/5 172/223/5 175/226/5 178/264/5
f 92/114/3 98/124/3 171/222/3 166/210/3
f 173/224/3 121/153/3 181/262/3 174/225/3
f 129/161/6 88/108/6 91/111/6 179/265/6
f 95/121/5 126/158/5 182/266/5 168/217/5
f 165/209/1 164/208/1 183/267/1 184/268/1
f 164/208/6 123/155/6 185/269/6 183/267/6
f 172/223/2 163/207/2 165/209/2 186/270/2
f 130/162/2 120/152/2 123/155/2 164/208/2
f 173/224/2 172/223/2 186/270/2 187/271/2
f 121/153/2 173/224/2 187/271/2 122/154/2
f 188/272/2 189/273/2 190/274/2 185/269/2
f 185/269/2 190/274/2 184/268/2 183/267/2
f 186/270/5 165/209/5 184/268/5 190/274/5
f 123/155/6 122/154/6 188/272/6 185/269/6
f 122/154/3 187/271/3 189/273/3 188/272/3
f 187/271/5 186/270/5 190/274/5 189/273/5
f 140/178/4 191/275/4 192/276/4 65/72/4
f 52/59/2 193/277/2 194/278/2 135/169/2
f 136/170/2 195/279/2 196/280/2 77/86/2
f 69/76/4 197/281/4 198/282/4 139/177/4
f 139/177/4 198/282/4 191/275/4 140/178/4
f 135/169/2 194/278/2 195/279/2 136/170/2
f 199/283/2 56/63/2 59/66/2 200/284/2
f 201/285/1 46/53/1 49/56/1 202/286/1
f 51/287/3 203/288/3 193/289/3 52/290/3
f 77/86/2 196/280/2 49/291/2 48/87/2
f 61/68/2 204/292/2 205/293/2 62/69/2
f 65/72/4 192/276/4 206/294/4 66/73/4
f 57/64/3 56/63/3 197/281/3 69/76/3
f 66/79/1 206/295/1 204/292/1 61/68/1
f 137/296/8 138/297/8 75/298/8 193/299/8 194/300/8 195/301/8 196/302/8 49/303/8 72/304/8 71/305/8
f 207/306/1 201/285/1 202/286/1 208/307/1
f 209/308/2 199/283/2 200/284/2 210/309/2
f 191/275/4 211/310/4 212/311/4 192/276/4
f 213/312/9 214/313/9 215/314/10 216/315/11
f 217/316/2 196/317/2 218/318/2 219/319/2
f 197/281/4 220/320/4 221/321/4 198/282/4
f 198/282/4 221/321/4 211/310/4 191/275/4
f 194/322/12 214/313/12 222/323/2 195/324/2
f 203/288/3 223/325/3 213/326/3 193/289/3
f 196/317/2 217/316/2 202/327/2 49/328/2
f 204/292/2 224/329/2 225/330/2 205/293/2
f 192/276/4 212/311/4 226/331/4 206/294/4
f 56/63/3 199/283/3 220/320/3 197/281/3
f 206/295/1 226/332/1 224/329/1 204/292/1
f 9/9/2 209/308/2 210/309/2 227/333/2
f 228/334/1 207/306/1 208/307/1 33/335/1
f 211/310/4 229/336/4 230/337/4 212/311/4
f 213/338/7 231/339/7 232/340/7 214/341/7
f 222/342/7 233/343/7 234/344/7 217/345/7
f 220/320/4 235/346/4 236/347/4 221/321/4
f 221/321/4 236/347/4 229/336/4 211/310/4
f 214/341/7 232/340/7 233/343/7 222/342/7
f 223/325/3 237/348/3 231/349/3 213/326/3
f 217/345/7 234/344/7 208/350/7 202/351/7
f 224/329/2 238/352/2 239/353/2 225/330/2
f 212/311/4 230/337/4 240/354/4 226/331/4
f 199/283/3 209/308/3 235/346/3 220/320/3
f 226/332/1 240/355/1 238/352/1 224/329/1
f 20/25/1 228/334/1 33/335/1 21/26/1
f 6/6/2 9/9/2 227/333/2 7/7/2
f 229/336/4 160/204/4 12/12/4 230/337/4
f 231/339/7 37/215/7 145/185/7 232/340/7
f 32/37/13 234/344/13 241/356/13 242/357/13
f 235/346/4 11/11/4 159/201/4 236/347/4
f 236/347/4 159/201/4 160/204/4 229/336/4
f 148/188/14 32/37/14 242/357/14 243/358/14
f 237/348/3 34/41/3 37/44/3 231/349/3
f 234/344/7 32/37/7 33/40/7 208/350/7
f 238/352/2 4/4/2 24/29/2 239/353/2
f 230/337/4 12/12/4 1/15/4 240/354/4
f 209/308/3 9/9/3 11/11/3 235/346/3
f 240/355/1 1/1/1 4/4/1 238/352/1
f 244/359/7 243/360/7 242/361/7 241/362/7
f 245/363/7 246/364/7 243/360/7 244/359/7
f 234/344/15 233/343/15 244/365/15 241/356/15
f 145/185/14 148/188/14 243/358/14 246/366/14
f 232/340/16 145/185/16 246/366/16 245/367/16
f 233/343/15 232/340/15 245/367/15 244/365/15
f 247/368/17 248/369/18 249/370/2 250/371/2
f 214/313/12 194/322/12 247/372/17 215/314/10
f 193/373/19 213/312/19 216/315/11 248/374/18
f 194/300/20 193/299/20 248/369/18 247/368/17
f 251/375/5 252/376/5 253/377/5 254/378/5
f 248/374/18 216/315/11 251/379/2 249/380/2
f 216/315/11 215/314/10 252/381/2 251/379/2
f 215/314/10 247/372/17 250/382/2 252/381/2
f 255/383/2 254/378/2 253/377/2 256/384/2
f 252/376/1 250/385/1 256/384/1 253/377/1
f 250/386/6 249/387/6 255/388/6 256/389/6
f 249/390/3 251/375/3 254/378/3 255/383/3
f 218/391/6 257/392/6 258/393/6 259/394/6
f 196/302/2 195/301/2 257/395/2 218/396/2
f 195/324/2 222/323/2 260/397/2 257/398/2
f 222/323/2 217/316/2 219/319/2 260/397/2
f 258/399/2 261/400/2 262/401/2 259/402/2
f 257/403/3 260/404/3 261/400/3 258/399/3
f 260/404/5 219/405/5 262/401/5 261/400/5
f 219/405/1 218/406/1 259/402/1 262/401/1
f 263/407/3 264/408/3 34/41/3 237/348/3
f 265/409/1 266/410/1 228/334/1 20/25/1
f 267/411/3 263/407/3 237/348/3 223/325/3
f 266/410/1 268/412/1 207/306/1 228/334/1
f 269/413/3 267/411/3 223/325/3 203/288/3
f 268/412/1 270/414/1 201/285/1 207/306/1
f 271/415/3 269/413/3 203/288/3 51/287/3
f 270/414/1 272/416/1 46/53/1 201/285/1
f 273/417/1 274/418/1 38/45/1 114/146/1
f 275/419/3 276/420/3 113/144/3 43/231/3
f 277/421/6 278/422/6 42/49/6 144/184/6
f 279/423/5 280/424/5 152/192/5 35/213/5
f 153/425/4 152/426/4 281/427/4 282/428/4
f 283/429/6 284/430/6 143/183/6 39/46/6
f 285/431/3 19/432/3 286/433/3 287/434/3
f 284/430/6 277/421/6 144/184/6 143/183/6
f 288/435/1 273/417/1 114/146/1 47/145/1
f 276/420/3 289/436/3 50/57/3 113/144/3
f 289/436/3 271/437/3 51/58/3 50/57/3
f 272/416/1 288/438/1 47/54/1 46/53/1
f 278/422/6 275/439/6 43/50/6 42/49/6
f 274/418/1 283/429/1 39/46/1 38/45/1
f 264/408/3 279/440/3 35/42/3 34/41/3
f 285/441/5 265/409/5 20/25/5 19/24/5
f 8/8/5 7/7/5 265/409/5 285/441/5
f 24/29/3 23/28/3 279/440/3 264/408/3
f 27/32/1 26/31/1 283/442/1 274/443/1
f 31/36/6 30/35/6 275/444/6 278/445/6
f 59/66/1 58/65/1 288/438/1 272/416/1
f 63/70/3 62/69/3 271/415/3 289/446/3
f 112/143/3 63/70/3 289/446/3 276/447/3
f 58/65/1 115/147/1 273/448/1 288/438/1
f 151/191/6 150/190/6 277/449/6 284/450/6
f 162/206/5 161/205/5 290/451/5 280/424/5
f 26/31/6 151/191/6 284/450/6 283/442/6
f 161/205/5 8/8/5 285/441/5 290/451/5
f 23/211/5 162/206/5 280/424/5 279/423/5
f 150/190/6 31/36/6 278/445/6 277/449/6
f 30/234/3 112/143/3 276/447/3 275/452/3
f 115/147/1 27/32/1 274/443/1 273/448/1
f 200/284/1 59/66/1 272/416/1 270/414/1
f 62/69/3 205/293/3 269/413/3 271/415/3
f 210/309/1 200/284/1 270/414/1 268/412/1
f 205/293/3 225/330/3 267/411/3 269/413/3
f 227/333/1 210/309/1 268/412/1 266/410/1
f 225/330/3 239/353/3 263/407/3 267/411/3
f 7/7/1 227/333/1 266/410/1 265/409/1
f 239/353/3 24/29/3 264/408/3 263/407/3
f 290/453/2 285/431/2 287/434/2 291/454/2
f 280/455/2 290/453/2 291/454/2 292/456/2
f 19/432/4 153/425/4 282/428/4 286/433/4
f 293/457/5 294/458/5 295/459/5 296/460/5
f 152/426/1 280/455/1 292/456/1 281/427/1
f 293/457/21 297/461/21 298/462/21 299/463/21
f 300/464/22 301/465/22 298/462/22 297/461/22
f 291/454/23 299/463/23 298/462/23 301/465/23
f 302/466/24 303/467/24 304/468/24 305/469/24
f 296/460/25 306/470/25 304/468/25 303/467/25
f 282/428/26 305/469/26 304/468/26 306/470/26
f 293/457/5 296/460/5 303/467/5 297/461/5
f 297/461/5 303/467/5 302/466/5 300/464/5
f 287/434/27 286/433/27 307/471/27 308/472/27
f 308/472/28 307/471/28 295/459/28 294/458/28
f 309/473/29 310/474/29 311/475/29 312/476/29
f 312/476/30 311/475/30 281/427/30 292/456/30
f 286/433/31 282/428/31 306/470/31 307/471/31
f 307/471/32 306/470/32 296/460/32 295/459/32
f 282/428/31 281/427/31 311/475/31 305/469/31
f 305/469/32 311/475/32 310/474/32 302/466/32
f 300/464/33 309/473/33 312/476/33 301/465/33
f 301/465/34 312/476/34 292/456/34 291/454/34
f 294/458/33 293/457/33 299/463/33 308/472/33
f 308/472/34 299/463/34 291/454/34 287/434/34
f 309/473/5 300/464/5 302/466/5 310/474/5
f 313/477/1 314/478/1 315/479/1 316/480/1
f 317/481/35 318/482/35 319/483/35 320/484/35
f 321/485/3 322/486/3 323/487/3 324/488/3
f 325/489/36 326/490/36 327/491/37 328/492/37
f 329/493/38 321/485/38 324/488/36 326/490/36
f 330/494/39 331/495/39 332/496/40 333/497/40
f 334/498/39 335/499/39 336/500/40 337/501/40
f 338/502/38 339/503/38 340/504/41 341/505/36
f 324/488/3 323/487/3 342/506/3 343/507/3
f 344/508/3 345/509/3 346/510/3 347/511/3
f 348/512/36 349/513/36 350/514/37 351/515/37
f 352/516/39 353/517/39 354/518/40 355/519/40
f 356/520/38 357/521/38 325/489/36 358/522/41
f 359/523/42 360/524/35 361/525/35 362/526/42
f 363/527/43 364/528/43 365/529/43 366/530/43
f 367/531/38 368/532/38 349/513/36 348/512/36
f 369/533/39 370/534/39 371/535/40 372/536/40
f 371/535/40 373/537/40 374/538/44 375/539/44
f 376/540/43 377/541/43 378/542/43 379/543/43
f 339/503/38 356/520/38 358/522/41 340/504/41
f 332/544/1 380/545/1 381/546/1 382/547/1
f 353/517/39 334/498/39 337/501/40 354/518/40
f 355/519/40 354/518/40 383/548/44 384/549/44
f 335/499/39 369/533/39 372/536/40 336/500/40
f 385/550/43 344/508/43 347/511/43 386/551/43
f 368/532/38 338/502/38 341/505/36 349/513/36
f 387/552/38 367/531/38 348/512/36 388/553/36
f 318/482/35 389/554/35 390/555/35 319/483/35
f 370/534/39 391/556/39 373/537/40 371/535/40
f 349/513/36 341/505/36 392/557/37 350/514/37
f 322/486/39 352/516/39 355/519/40 323/487/40
f 337/501/40 336/500/40 393/558/44 394/559/44
f 357/521/38 329/493/38 326/490/36 325/489/36
f 395/560/35 316/561/35 396/562/35 397/563/35
f 315/564/43 398/565/43 399/566/43 400/567/43
f 401/568/38 387/552/38 388/553/36 380/569/36
f 391/556/39 330/494/39 333/497/40 373/537/40
f 354/518/40 337/501/40 394/559/44 383/548/44
f 402/570/39 403/571/39 404/572/39 405/573/39
f 406/574/38 407/575/38 408/576/38 409/577/38
f 410/578/1 411/579/1 412/580/1 413/581/1
f 414/582/39 415/583/39 416/584/39 417/585/39
f 418/586/39 402/570/39 405/573/39 419/587/39
f 420/588/45 421/589/45 422/590/45 423/591/45
f 424/592/45 410/578/45 413/581/45 425/593/45
f 426/594/39 427/595/39 428/596/39 429/597/39
f 430/598/39 431/599/39 432/600/39 433/601/39
f 434/602/1 435/603/1 436/604/1 437/605/1
f 427/595/39 418/586/39 419/587/39 428/596/39
f 438/606/38 439/607/38 440/608/38 441/609/38
f 442/610/38 435/611/38 434/612/38 443/613/38
f 415/583/39 430/598/39 433/601/39 416/584/39
f 444/614/38 445/615/38 446/616/38 447/617/38
f 431/599/39 426/594/39 429/597/39 432/600/39
f 403/571/39 448/618/39 449/619/39 404/572/39
f 450/620/38 451/621/38 452/622/38 453/623/38
f 451/621/3 414/582/3 417/585/3 452/622/3
f 454/624/1 455/625/1 449/626/1 409/627/1
f 456/628/1 457/629/1 455/625/1 454/624/1
f 405/573/39 404/572/39 458/630/39 459/631/39
f 409/577/38 408/576/38 460/632/38 454/633/38
f 434/612/38 453/623/38 461/634/38 462/635/38
f 417/585/39 416/584/39 463/636/39 464/637/39
f 419/587/39 405/573/39 459/631/39 465/638/39
f 408/576/38 441/609/38 466/639/38 460/632/38
f 440/608/38 447/617/38 467/640/38 468/641/38
f 429/597/39 428/596/39 469/642/39 470/643/39
f 433/601/39 432/600/39 471/644/39 472/645/39
f 446/616/38 443/613/38 473/646/38 411/647/38
f 428/596/39 419/587/39 465/638/39 469/642/39
f 441/609/38 440/608/38 468/641/38 466/639/38
f 443/613/38 434/612/38 462/635/38 473/646/38
f 416/584/39 433/601/39 472/645/39 463/636/39
f 447/617/38 446/616/38 411/647/38 467/640/38
f 432/600/39 429/597/39 470/643/39 471/644/39
f 404/572/39 449/619/39 455/648/39 458/630/39
f 453/623/38 452/622/38 474/649/38 461/634/38
f 452/622/3 417/585/3 464/637/3 474/649/3
f 401/650/1 331/651/1 457/629/1 456/628/1
f 459/631/39 458/630/39 475/652/39 476/653/39
f 454/633/38 460/632/38 477/654/38 456/655/38
f 468/656/46 467/657/46 478/658/46 479/659/46
f 464/637/39 463/636/39 480/660/39 481/661/39
f 465/638/39 459/631/39 476/653/39 482/662/39
f 443/663/47 446/664/47 483/665/47 484/666/47
f 421/589/1 462/667/1 485/668/1 422/590/1
f 470/643/39 469/642/39 486/669/39 487/670/39
f 472/645/39 471/644/39 488/671/39 489/672/39
f 441/673/48 408/674/48 490/675/48 491/676/48
f 469/642/39 465/638/39 482/662/39 486/669/39
f 466/639/38 468/641/38 492/677/38 493/678/38
f 473/646/38 462/635/38 421/679/38 424/680/38
f 463/636/39 472/645/39 489/672/39 480/660/39
f 467/640/38 411/647/38 410/681/38 494/682/38
f 471/644/39 470/643/39 487/670/39 488/671/39
f 458/630/39 455/648/39 457/683/39 475/652/39
f 461/634/38 474/649/38 495/684/38 420/685/38
f 474/649/3 464/637/3 481/661/3 495/684/3
f 380/545/1 332/544/1 331/651/1 401/650/1
f 476/653/39 475/652/39 330/494/39 391/556/39
f 456/655/38 477/654/38 387/552/38 401/568/38
f 421/679/38 420/685/38 329/493/38 357/521/38
f 481/661/39 480/660/39 352/516/39 322/486/39
f 482/662/39 476/653/39 391/556/39 370/534/39
f 477/654/38 493/678/38 367/531/38 387/552/38
f 492/677/38 494/682/38 338/502/38 368/532/38
f 487/670/39 486/669/39 369/533/39 335/499/39
f 489/672/39 488/671/39 334/498/39 353/517/39
f 410/681/38 424/680/38 356/520/38 339/503/38
f 486/669/39 482/662/39 370/534/39 369/533/39
f 493/678/38 492/677/38 368/532/38 367/531/38
f 424/680/38 421/679/38 357/521/38 356/520/38
f 480/660/39 489/672/39 353/517/39 352/516/39
f 494/682/38 410/681/38 339/503/38 338/502/38
f 488/671/39 487/670/39 335/499/39 334/498/39
f 475/652/39 457/683/39 331/495/39 330/494/39
f 420/685/38 495/684/38 321/485/38 329/493/38
f 495/684/3 481/661/3 322/486/3 321/485/3
f 496/686/3 497/687/3 414/582/3 451/621/3
f 498/688/38 496/686/38 451/621/38 450/620/38
f 499/689/39 314/690/39 448/618/39 403/571/39
f 500/691/39 501/692/39 426/594/39 431/599/39
f 502/693/38 503/694/38 445/615/38 444/614/38
f 504/695/39 505/696/39 430/598/39 415/583/39
f 506/697/38 507/698/38 435/611/38 442/610/38
f 508/699/38 509/700/38 439/607/38 438/606/38
f 510/701/39 511/702/39 418/586/39 427/595/39
f 503/694/38 506/697/38 442/610/38 445/615/38
f 505/696/39 500/691/39 431/599/39 430/598/39
f 501/692/39 510/701/39 427/595/39 426/594/39
f 509/700/38 502/693/38 444/614/38 439/607/38
f 512/703/38 508/699/38 438/606/38 407/575/38
f 511/702/39 513/704/39 402/570/39 418/586/39
f 497/687/39 504/695/39 415/583/39 414/582/39
f 507/698/38 498/688/38 450/620/38 435/611/38
f 313/705/38 512/703/38 407/575/38 406/574/38
f 513/704/39 499/689/39 403/571/39 402/570/39
f 409/627/1 449/626/1 448/706/1 406/707/1
f 514/708/39 398/565/39 499/689/39 513/704/39
f 316/561/38 395/560/38 512/703/38 313/705/38
f 344/508/39 385/550/39 504/695/39 497/687/39
f 515/709/39 514/708/39 513/704/39 511/702/39
f 389/710/49 318/711/49 516/712/49 517/713/49
f 503/714/1 389/710/1 517/713/1 518/715/1
f 364/528/39 363/527/39 510/701/39 501/692/39
f 377/541/39 376/540/39 500/691/39 505/696/39
f 507/716/1 317/717/1 519/718/1 520/719/1
f 363/527/39 515/709/39 511/702/39 510/701/39
f 521/720/38 360/524/38 509/700/38 508/699/38
f 318/482/38 317/481/38 507/698/38 506/697/38
f 385/550/39 377/541/39 505/696/39 504/695/39
f 359/523/38 389/554/38 503/694/38 502/693/38
f 376/540/39 364/528/39 501/692/39 500/691/39
f 398/565/39 315/564/39 314/690/39 499/689/39
f 522/721/38 345/509/38 496/686/38 498/688/38
f 345/509/3 344/508/3 497/687/3 496/686/3
f 406/707/1 448/706/1 314/478/1 313/477/1
f 435/603/50 450/722/50 523/723/50 436/604/50
f 407/724/46 438/725/46 524/726/46 525/727/46
f 439/728/50 444/729/50 526/730/50 527/731/50
f 445/732/46 442/733/46 528/734/46 529/735/46
f 461/736/3 420/588/3 423/591/3 530/737/3
f 466/738/3 493/739/3 531/740/3 532/741/3
f 467/657/3 494/742/3 533/743/3 478/658/3
f 473/744/3 424/592/3 425/593/3 534/745/3
f 408/674/1 407/724/1 525/727/1 490/675/1
f 447/746/47 440/747/47 535/748/47 536/749/47
f 460/750/51 466/738/51 532/741/51 537/751/51
f 462/667/50 461/736/50 530/737/50 485/668/50
f 538/752/38 539/753/38 540/754/38 541/755/38
f 438/725/3 441/673/3 491/676/3 524/726/3
f 542/756/38 543/757/38 544/758/38 545/759/38
f 546/760/38 547/761/38 548/762/38 549/763/38
f 411/579/46 473/744/46 534/745/46 412/580/46
f 550/764/38 551/765/38 552/766/38 553/767/38
f 453/768/47 434/602/47 437/605/47 554/769/47
f 440/747/1 439/728/1 527/731/1 535/748/1
f 494/742/45 492/770/45 555/771/45 533/743/45
f 556/772/38 557/773/38 558/774/38 559/775/38
f 444/729/3 447/746/3 536/749/3 526/730/3
f 492/770/1 468/656/1 479/659/1 555/771/1
f 477/776/1 460/750/1 537/751/1 560/777/1
f 450/722/3 453/768/3 554/769/3 523/723/3
f 561/778/38 562/779/38 563/780/38 564/781/38
f 442/733/3 443/663/3 484/666/3 528/734/3
f 565/782/38 566/783/38 567/784/38 568/785/38
f 493/739/45 477/776/45 560/777/45 531/740/45
f 569/786/38 570/787/38 571/788/38 572/789/38
f 538/752/52 541/755/52 573/790/52 574/791/52
f 574/791/53 573/790/53 483/665/53 529/735/53
f 546/760/54 549/763/54 575/792/54 576/793/54
f 576/793/53 575/792/53 437/605/53 436/604/53
f 550/764/55 553/767/55 577/794/55 578/795/55
f 578/795/53 577/794/53 535/748/53 527/731/53
f 528/734/56 484/666/56 579/796/56 580/797/56
f 580/797/57 579/796/57 540/754/57 539/753/57
f 526/730/58 536/749/58 581/798/58 582/799/58
f 582/799/57 581/798/57 552/766/57 551/765/57
f 524/726/59 491/676/59 583/800/59 584/801/59
f 584/801/57 583/800/57 567/802/57 566/803/57
f 523/723/60 554/769/60 585/804/60 586/805/60
f 586/805/61 585/804/61 548/762/61 547/761/61
f 565/806/62 568/807/62 587/808/62 588/809/62
f 588/809/63 587/808/63 490/675/63 525/727/63
f 554/769/64 437/605/64 575/792/64 585/804/64
f 585/804/65 575/792/65 549/763/65 548/762/65
f 491/676/64 490/675/64 587/808/64 583/800/64
f 583/800/65 587/808/65 568/807/65 567/802/65
f 536/749/64 535/748/64 577/794/64 581/798/64
f 581/798/65 577/794/65 553/767/65 552/766/65
f 484/666/64 483/665/64 573/790/64 579/796/64
f 579/796/65 573/790/65 541/755/65 540/754/65
f 557/773/66 556/772/66 589/810/66 590/811/66
f 590/811/67 589/810/67 485/668/67 530/737/67
f 562/812/66 561/813/66 591/814/66 592/815/66
f 592/815/68 591/814/68 537/751/68 532/741/68
f 570/787/66 569/786/66 593/816/66 594/817/66
f 594/817/67 593/816/67 479/659/67 478/658/67
f 543/757/69 542/756/69 595/818/69 596/819/69
f 596/819/67 595/818/67 412/580/67 534/745/67
f 542/756/70 545/759/70 597/820/70 595/818/70
f 595/818/53 597/820/53 413/581/53 412/580/53
f 556/772/71 559/775/71 598/821/71 589/810/71
f 589/810/53 598/821/53 422/590/53 485/668/53
f 569/786/72 572/789/72 599/822/72 593/816/72
f 593/816/53 599/822/53 555/771/53 479/659/53
f 534/745/56 425/593/56 600/823/56 596/819/56
f 596/819/73 600/823/73 544/758/73 543/757/73
f 478/658/60 533/743/60 601/824/60 594/817/60
f 594/817/74 601/824/74 571/788/74 570/787/74
f 532/741/56 531/740/56 602/825/56 592/815/56
f 592/815/75 602/825/75 563/826/75 562/812/75
f 530/737/60 423/591/60 603/827/60 590/811/60
f 590/811/74 603/827/74 558/774/74 557/773/74
f 561/813/72 564/828/72 604/829/72 591/814/72
f 591/814/76 604/829/76 560/777/76 537/751/76
f 423/591/64 422/590/64 598/821/64 603/827/64
f 603/827/77 598/821/77 559/775/77 558/774/77
f 531/740/64 560/777/64 604/829/64 602/825/64
f 602/825/77 604/829/77 564/828/77 563/826/77
f 533/743/64 555/771/64 599/822/64 601/824/64
f 601/824/77 599/822/77 572/789/77 571/788/77
f 425/593/64 413/581/64 597/820/64 600/823/64
f 600/823/77 597/820/77 545/759/77 544/758/77
f 539/753/78 538/752/78 574/791/78 580/797/78
f 580/797/79 574/791/79 529/735/79 528/734/79
f 551/765/80 550/764/80 578/795/80 582/799/80
f 582/799/81 578/795/81 527/731/81 526/730/81
f 566/803/82 565/806/82 588/809/82 584/801/82
f 584/801/81 588/809/81 525/727/81 524/726/81
f 547/761/82 546/760/82 576/793/82 586/805/82
f 586/805/81 576/793/81 436/604/81 523/723/81
f 446/664/1 445/732/1 529/735/1 483/665/1
f 605/830/83 386/831/83 347/511/84 346/510/84
f 362/832/84 366/833/84 365/834/83 390/835/83
f 319/836/83 379/837/83 378/838/83 320/839/83
f 606/840/83 607/841/83 608/842/83 361/843/83
f 390/835/83 365/834/83 379/837/83 319/836/83
f 361/843/83 608/842/83 366/833/84 362/832/84
f 397/844/83 399/845/83 607/841/83 606/840/83
f 320/839/83 378/838/83 386/831/83 605/830/83
f 396/846/84 400/847/84 399/845/83 397/844/83
f 515/709/43 363/527/43 366/530/43 608/848/43
f 522/721/35 317/481/35 320/484/35 605/849/35
f 360/524/35 521/720/42 606/850/42 361/525/35
f 514/708/43 515/709/43 608/848/43 607/851/43
f 377/541/43 385/550/43 386/551/43 378/542/43
f 364/528/43 376/540/43 379/543/43 365/529/43
f 521/720/42 395/560/35 397/563/35 606/850/42
f 389/554/35 359/523/42 362/526/42 390/555/35
f 398/565/43 514/708/43 607/851/43 399/566/43
f 345/509/85 522/721/35 605/849/35 346/510/85
f 316/480/1 315/479/1 400/847/1 396/846/1
f 522/852/3 498/853/3 609/854/3 610/855/3
f 521/856/3 508/857/3 611/858/3 612/859/3
f 359/860/3 502/861/3 613/862/3 614/863/3
f 318/711/3 506/864/3 615/865/3 516/712/3
f 506/864/86 503/714/86 518/715/86 615/865/86
f 616/866/38 617/867/38 618/868/38 619/869/38
f 508/857/87 512/870/87 620/871/87 611/858/87
f 317/717/88 522/852/88 610/855/88 519/718/88
f 621/872/38 622/873/38 623/874/38 624/875/38
f 509/876/1 360/877/1 625/878/1 626/879/1
f 512/870/1 395/880/1 627/881/1 620/871/1
f 628/882/38 629/883/38 630/884/38 631/885/38
f 498/853/89 507/716/89 520/719/89 609/854/89
f 360/877/49 359/860/49 614/863/49 625/878/49
f 502/861/45 509/876/45 626/879/45 613/862/45
f 395/880/90 521/856/90 612/859/90 627/881/90
f 632/886/91 633/887/91 634/888/91 635/889/91
f 635/889/92 634/888/92 517/713/92 516/712/92
f 622/873/93 621/872/93 636/890/93 637/891/93
f 637/891/94 636/890/94 519/718/94 610/855/94
f 617/867/95 616/866/95 638/892/95 639/893/95
f 639/893/96 638/892/96 625/878/96 614/863/96
f 629/894/91 628/895/91 640/896/91 641/897/91
f 641/897/81 640/896/81 627/881/81 612/859/81
f 633/887/97 642/898/97 643/899/97 634/888/97
f 634/888/98 643/899/98 518/715/98 517/713/98
f 621/872/97 624/875/97 644/900/97 636/890/97
f 636/890/98 644/900/98 520/719/98 519/718/98
f 616/866/52 619/869/52 645/901/52 638/892/52
f 638/892/99 645/901/99 626/879/99 625/878/99
f 516/712/100 615/865/100 646/902/100 635/889/100
f 635/889/101 646/902/101 647/903/101 632/886/101
f 614/863/100 613/862/100 648/904/100 639/893/100
f 639/893/102 648/904/102 618/868/102 617/867/102
f 612/859/100 611/858/100 649/905/100 641/897/100
f 641/897/102 649/905/102 630/906/102 629/894/102
f 610/855/58 609/854/58 650/907/58 637/891/58
f 637/891/103 650/907/103 623/874/103 622/873/103
f 628/895/104 631/908/104 651/909/104 640/896/104
f 640/896/105 651/909/105 620/871/105 627/881/105
f 609/854/106 520/719/106 644/900/106 650/907/106
f 650/907/77 644/900/77 624/875/77 623/874/77
f 611/858/106 620/871/106 651/909/106 649/905/106
f 649/905/107 651/909/107 631/908/107 630/906/107
f 613/862/108 626/879/108 645/901/108 648/904/108
f 648/904/109 645/901/109 619/869/109 618/868/109
f 615/865/106 518/715/106 643/899/106 646/902/106
f 646/902/109 643/899/109 642/898/109 647/903/109
f 633/887/38 632/886/38 647/903/38 642/898/38
f 375/539/110 374/538/110 652/910/110 653/911/110
f 392/557/111 654/912/111 655/913/111 656/914/111
f 381/915/111 657/916/111 658/917/111 659/918/111
f 351/515/111 350/514/111 660/919/111 661/920/111
f 662/921/110 382/922/110 663/923/110 664/924/110
f 374/538/110 662/921/110 664/924/110 652/910/110
f 665/925/110 375/539/110 653/911/110 666/926/110
f 393/558/110 665/925/110 666/926/110 667/927/110
f 327/491/111 343/507/111 668/928/111 669/929/111
f 373/537/40 333/497/40 662/921/44 374/538/44
f 336/500/40 372/536/40 665/925/44 393/558/44
f 326/490/36 324/488/36 343/507/37 327/491/37
f 388/553/36 348/512/36 351/515/37 657/916/37
f 333/497/40 332/496/40 382/922/44 662/921/44
f 323/487/40 355/519/40 384/549/44 342/506/44
f 380/569/36 388/553/36 657/916/37 381/915/37
f 358/522/41 325/489/36 328/492/37 670/930/37
f 341/505/36 340/504/41 654/912/37 392/557/37
f 372/536/40 371/535/40 375/539/44 665/925/44
f 658/931/112 664/932/112 663/933/112 659/934/112
f 671/935/112 672/936/112 667/937/112 655/938/112
f 669/929/112 673/939/112 674/940/112 675/941/112
f 656/942/112 666/943/112 653/944/112 660/945/112
f 675/941/112 674/940/112 672/936/112 671/935/112
f 655/938/112 667/937/112 666/943/112 656/942/112
f 660/945/112 653/944/112 652/946/112 661/947/112
f 668/928/112 676/948/112 673/939/112 669/929/112
f 661/947/112 652/946/112 664/932/112 658/931/112
f 394/559/110 393/558/110 667/927/110 672/949/110
f 657/916/111 351/515/111 661/920/111 658/917/111
f 383/548/110 394/559/110 672/949/110 674/950/110
f 654/912/111 670/930/111 671/951/111 655/913/111
f 670/930/111 328/492/111 675/952/111 671/951/111
f 328/492/111 327/491/111 669/929/111 675/952/111
f 382/547/1 381/546/1 659/953/1 663/954/1
f 384/549/110 383/548/110 674/950/110 673/955/110
f 342/506/110 384/549/110 673/955/110 676/948/110
f 343/507/3 342/506/3 676/948/3 668/928/3
f 350/514/111 392/557/111 656/914/111 660/919/111
f 654/956/1 340/957/1 677/958/1 678/959/1
f 358/960/3 670/961/3 679/962/3 680/963/3
f 670/961/113 654/956/113 678/959/113 679/962/113
f 681/964/37 682/965/37 683/966/37 684/967/37
f 677/958/114 680/963/114 685/968/114 686/969/114
f 686/969/115 685/968/115 682/965/115 681/964/115
f 684/967/116 683/966/116 687/970/116 688/971/116
f 688/971/117 687/970/117 679/962/117 678/959/117
f 680/963/118 679/962/118 687/970/118 685/968/118
f 685/968/119 687/970/119 683/966/119 682/965/119
f 678/959/120 677/958/120 686/969/120 688/971/120
f 688/971/121 686/969/121 681/964/121 684/967/121
f 340/957/122 358/960/122 680/963/122 677/958/122
