# Blender v2.93.0 OBJ File: ''
# www.blender.org
mtllib panneauagglomeration.mtl
o Plane
v -0.447838 -1.040540 -0.046844
v 0.448991 -1.040540 -0.046844
v 0.448991 -1.040540 -0.061545
v -0.447838 -1.040540 -0.061545
v -0.458793 -1.051495 -0.061545
v -0.457325 -1.046018 -0.061545
v -0.453315 -1.042008 -0.061545
v 0.454469 -1.042008 -0.061545
v 0.458479 -1.046018 -0.061545
v 0.459947 -1.051495 -0.061545
v 0.459947 -1.301357 -0.061545
v 0.458479 -1.306835 -0.061545
v 0.454469 -1.310845 -0.061545
v 0.448991 -1.312312 -0.061545
v -0.447838 -1.312312 -0.061545
v -0.453315 -1.310845 -0.061545
v -0.457325 -1.306835 -0.061545
v -0.458793 -1.301357 -0.061545
v 0.459947 -1.051495 -0.046844
v 0.459947 -1.301357 -0.046844
v 0.448991 -1.312312 -0.046844
v -0.447838 -1.312312 -0.046844
v -0.453315 -1.042008 -0.046844
v -0.457325 -1.046018 -0.046844
v -0.458793 -1.051495 -0.046844
v -0.458793 -1.301357 -0.046844
v -0.457325 -1.306835 -0.046844
v -0.453315 -1.310845 -0.046844
v 0.454469 -1.310845 -0.046844
v 0.458479 -1.306835 -0.046844
v 0.458479 -1.046018 -0.046844
v 0.454469 -1.042008 -0.046844
vt 0.471528 0.719913
vt 0.484178 0.719913
vt 0.484178 0.719913
vt 0.471528 0.719913
vt -0.001004 0.611035
vt -0.000473 0.604898
vt 0.004941 0.599310
vt 0.010885 0.598762
vt 0.984193 0.598762
vt 0.990138 0.599310
vt 0.995551 0.604898
vt 0.996082 0.611035
vt 0.996082 0.890965
vt 0.995551 0.897101
vt 0.990138 0.902690
vt 0.984193 0.903238
vt 0.010885 0.903238
vt 0.004941 0.902690
vt -0.000473 0.897101
vt -0.001004 0.890965
vt 0.484332 0.720435
vt 0.484332 0.732349
vt 0.484332 0.732349
vt 0.484332 0.720435
vt 0.484178 0.732872
vt 0.471528 0.732872
vt 0.471528 0.732872
vt 0.484178 0.732872
vt 0.471451 0.719936
vt 0.471380 0.720174
vt 0.471373 0.720435
vt 0.471373 0.732349
vt 0.471380 0.732610
vt 0.471451 0.732848
vt 0.484255 0.732848
vt 0.484326 0.732610
vt 0.484326 0.720174
vt 0.484255 0.719936
vt 0.471373 0.732349
vt 0.471380 0.732610
vt 0.471451 0.732848
vt 0.484326 0.732610
vt 0.484255 0.732848
vt 0.484326 0.720174
vt 0.484255 0.719936
vt 0.471373 0.720435
vt 0.471380 0.720174
vt 0.471451 0.719936
vn 0.0000 1.0000 0.0000
vn -0.0000 0.0000 -1.0000
vn 1.0000 0.0000 0.0000
vn 0.0000 -1.0000 0.0000
vn -0.0000 -0.0000 1.0000
vn -0.9659 -0.2588 0.0000
vn -0.7071 -0.7071 0.0000
vn -0.2587 -0.9660 0.0000
vn 0.9659 -0.2588 0.0000
vn 0.7071 -0.7071 0.0000
vn 0.2587 -0.9660 0.0000
vn 0.9659 0.2589 0.0000
vn 0.7071 0.7071 0.0000
vn 0.2589 0.9659 0.0000
vn -0.9659 0.2589 0.0000
vn -0.7071 0.7071 0.0000
vn -0.2589 0.9659 0.0000
vn -1.0000 0.0000 0.0000
usemtl Material.008
s off
f 1/1/1 2/2/1 3/3/1 4/4/1
f 5/5/2 6/6/2 7/7/2 4/8/2 3/9/2 8/10/2 9/11/2 10/12/2 11/13/2 12/14/2 13/15/2 14/16/2 15/17/2 16/18/2 17/19/2 18/20/2
f 19/21/3 20/22/3 11/23/3 10/24/3
f 21/25/4 22/26/4 15/27/4 14/28/4
f 1/1/5 23/29/5 24/30/5 25/31/5 26/32/5 27/33/5 28/34/5 22/26/5 21/25/5 29/35/5 30/36/5 20/22/5 19/21/5 31/37/5 32/38/5 2/2/5
f 26/32/6 18/39/6 17/40/6 27/33/6
f 27/33/7 17/40/7 16/41/7 28/34/7
f 28/34/8 16/41/8 15/27/8 22/26/8
f 11/23/9 20/22/9 30/36/9 12/42/9
f 12/42/10 30/36/10 29/35/10 13/43/10
f 13/43/11 29/35/11 21/25/11 14/28/11
f 19/21/12 10/24/12 9/44/12 31/37/12
f 31/37/13 9/44/13 8/45/13 32/38/13
f 32/38/14 8/45/14 3/3/14 2/2/14
f 5/46/15 25/31/15 24/30/15 6/47/15
f 6/47/16 24/30/16 23/29/16 7/48/16
f 7/48/17 23/29/17 1/1/17 4/4/17
f 26/32/18 25/31/18 5/46/18 18/39/18
o Cube_Cube.006
v 0.020150 -1.500984 0.052881
v 0.020150 -1.167704 0.052881
v -0.020150 -1.167704 0.052881
v -0.020150 -1.500984 0.052881
v 0.052881 -1.500984 -0.020150
v 0.052881 -1.167704 -0.020150
v 0.052881 -1.167704 0.020150
v 0.052881 -1.500984 0.020148
v 0.043294 -1.167704 -0.043294
v 0.020150 -1.167704 -0.052882
v -0.020150 -1.167704 -0.052882
v -0.043294 -1.167704 -0.043294
v -0.052881 -1.167704 -0.020150
v -0.052881 -1.167704 0.020150
v -0.043294 -1.167704 0.043294
v 0.043294 -1.167704 0.043294
v -0.052881 -1.500984 0.020148
v -0.052881 -1.500984 -0.020150
v -0.020150 -1.500984 -0.052883
v 0.020150 -1.500984 -0.052883
v -0.043294 -1.500984 0.043294
v -0.043294 -1.500984 -0.043296
v 0.043294 -1.500984 -0.043296
v 0.043294 -1.500984 0.043294
vt 0.728738 0.243764
vt 0.733809 0.243764
vt 0.733809 0.245697
vt 0.728738 0.245697
vt 0.728738 0.238692
vt 0.733809 0.238692
vt 0.733809 0.240625
vt 0.728738 0.240625
vt 0.734271 0.237583
vt 0.735380 0.237121
vt 0.737313 0.237121
vt 0.738423 0.237583
vt 0.738881 0.238692
vt 0.738881 0.240625
vt 0.738423 0.241734
vt 0.737313 0.242193
vt 0.735380 0.242193
vt 0.734271 0.241734
vt 0.728738 0.228548
vt 0.733809 0.228548
vt 0.733809 0.230478
vt 0.728738 0.230478
vt 0.728738 0.233620
vt 0.733809 0.233620
vt 0.733809 0.235553
vt 0.728738 0.235553
vt 0.733809 0.247268
vt 0.728738 0.247268
vt 0.728738 0.226977
vt 0.733809 0.226977
vt 0.728738 0.232049
vt 0.733809 0.232049
vt 0.728738 0.237121
vt 0.733809 0.237121
vt 0.728738 0.242193
vt 0.733809 0.242193
vt 0.723666 0.238692
vt 0.724124 0.237583
vt 0.725237 0.237121
vt 0.727167 0.237121
vt 0.728279 0.237583
vt 0.728279 0.241734
vt 0.727167 0.242193
vt 0.725237 0.242193
vt 0.724124 0.241734
vt 0.723666 0.240625
vn 0.0000 -0.0000 1.0000
vn 1.0000 0.0000 0.0000
vn 0.0000 1.0000 0.0000
vn -1.0000 0.0000 0.0000
vn 0.0000 0.0000 -1.0000
vn -0.3827 -0.0000 0.9239
vn -0.9239 -0.0000 0.3827
vn -0.3827 0.0000 -0.9239
vn -0.9239 0.0000 -0.3827
vn 0.9239 0.0000 -0.3827
vn 0.3827 0.0000 -0.9239
vn 0.3827 -0.0000 0.9239
vn 0.9239 -0.0000 0.3827
vn 0.0000 -1.0000 -0.0000
usemtl Material.008
s 1
f 33/49/19 34/50/19 35/51/19 36/52/19
f 37/53/20 38/54/20 39/55/20 40/56/20
f 38/54/21 41/57/21 42/58/21 43/59/21 44/60/21 45/61/21 46/62/21 47/63/21 35/64/21 34/65/21 48/66/21 39/55/21
f 49/67/22 46/68/22 45/69/22 50/70/22
f 51/71/23 43/72/23 42/73/23 52/74/23
f 36/52/24 35/51/24 47/75/24 53/76/24
f 53/77/25 47/78/25 46/68/25 49/67/25
f 43/72/26 51/71/26 54/79/26 44/80/26
f 44/80/27 54/79/27 50/70/27 45/69/27
f 38/54/28 37/53/28 55/81/28 41/82/28
f 41/82/29 55/81/29 52/74/29 42/73/29
f 34/50/30 33/49/30 56/83/30 48/84/30
f 48/84/31 56/83/31 40/56/31 39/55/31
f 50/85/32 54/86/32 51/87/32 52/88/32 55/89/32 37/53/32 40/56/32 56/90/32 33/91/32 36/92/32 53/93/32 49/94/32
