# Blender v3.0.0 OBJ File: ''
# www.blender.org
mtllib garage.mtl
o base
v -0.037513 -0.055358 -0.362491
v -0.037513 -0.055358 -0.269688
v -0.037513 -0.122299 -0.269688
v -0.037513 -0.122299 -0.362491
v -0.130316 -0.055358 -0.269688
v -0.130316 -0.055358 -0.362491
v -0.130316 -0.122299 -0.362491
v -0.130316 -0.122299 -0.269688
v -0.040171 -0.057318 -0.362491
v -0.040171 -0.057363 -0.354136
v -0.127658 -0.057363 -0.354136
v -0.127658 -0.057318 -0.362491
v -0.040171 -0.120339 -0.362491
v -0.127658 -0.120339 -0.362491
v -0.040171 -0.120294 -0.358805
v -0.127658 -0.120294 -0.358805
v -0.258069 0.392565 -0.215769
v -0.258069 0.550561 -0.215769
v -0.258069 0.550561 -0.258068
v -0.258069 0.392565 -0.258068
v 0.203360 0.392565 -0.258068
v 0.175767 0.550561 -0.258068
v 0.258069 0.550561 -0.258068
v 0.258069 0.392565 -0.258068
v 0.258069 0.323778 0.208996
v 0.258069 0.600845 0.208996
v 0.258069 0.550561 0.258070
v 0.258069 0.392565 0.258070
v -0.175767 0.392565 0.258070
v -0.175767 0.550561 0.258070
v -0.258069 0.550561 0.258070
v -0.258069 0.392565 0.258070
v 0.175767 -1.303374 0.208994
v 0.258069 -1.303374 0.208994
v 0.258069 -1.303374 0.258068
v 0.175767 -1.303374 0.258068
v 0.261444 0.634885 0.261445
v 0.178066 0.634885 0.261445
v 0.171389 0.634660 0.249311
v 0.251641 0.634660 0.249311
v 0.259757 0.622886 0.210508
v 0.259757 0.622886 -0.194199
v 0.259757 0.622886 -0.194199
v 0.259757 0.622886 0.210508
v 0.259757 0.622886 -0.215839
v 0.259757 0.622886 -0.259756
v 0.259757 0.622886 -0.259756
v 0.259757 0.622886 -0.215839
v 0.261444 0.634885 -0.215910
v 0.261444 0.634885 -0.194128
v 0.261444 0.634885 -0.194128
v 0.261444 0.634885 -0.215910
v -0.261444 0.634885 -0.261443
v -0.178066 0.634885 -0.261443
v -0.178066 0.634885 -0.261443
v -0.261444 0.634885 -0.261443
v -0.246376 0.622886 -0.215839
v -0.246376 0.622886 -0.194199
v -0.246376 0.622886 -0.194199
v -0.246376 0.622886 -0.215839
v -0.259757 0.622886 -0.194199
v -0.250017 0.623111 -0.189248
v -0.237139 0.623111 -0.189248
v 0.178066 0.634885 -0.261443
v 0.171389 0.634660 -0.253971
v -0.171389 0.634660 -0.253971
v -0.258069 -1.303374 0.208994
v -0.175767 -1.303374 0.208994
v -0.175767 -1.303374 0.258068
v -0.258069 -1.303374 0.258068
v 0.175767 0.550561 0.258070
v 0.175767 0.392565 0.258070
v -0.175767 0.550561 -0.258068
v -0.203360 0.392565 -0.258068
v -0.194162 -0.746459 -0.258069
v -0.203360 -0.225413 -0.258069
v 0.203360 -0.225413 -0.258069
v 0.194162 -0.746459 -0.258069
v -0.258069 -0.746459 -0.258069
v -0.258069 -0.225413 -0.258069
v -0.258069 0.145938 -0.258069
v -0.203360 0.145938 -0.258069
v 0.175767 -0.746459 0.258069
v 0.121061 -0.314989 0.258069
v -0.230474 -0.314989 0.258069
v -0.175767 -0.746459 0.258069
v 0.175767 0.145937 0.258069
v -0.175767 0.145937 0.258069
v 0.258069 -0.746459 0.258069
v 0.258069 -0.225413 0.258069
v 0.258069 0.145937 0.258069
v -0.258069 -0.225413 0.258069
v -0.258069 -0.746459 0.258069
v -0.258069 0.145938 0.258069
v 0.258069 -0.746459 0.208995
v 0.258069 -0.225413 0.208995
v 0.258069 0.145937 0.208995
v 0.258069 -0.225413 -0.258069
v 0.258069 -0.746459 -0.258069
v 0.203360 0.145938 -0.258069
v 0.258069 0.145938 -0.258069
v -0.258069 -0.746459 -0.215770
v -0.258069 -0.225413 -0.215770
v -0.258069 0.145938 -0.215770
v -0.189891 0.083576 -0.258069
v -0.189891 -0.215447 -0.258069
v -0.203360 0.083576 -0.258069
v 0.189891 0.142385 -0.258069
v 0.189891 0.382599 -0.258068
v 0.189891 -0.215447 -0.258069
v -0.189891 0.382599 -0.258068
v 0.189891 0.083576 -0.258069
v 0.203360 0.083576 -0.258069
v -0.189891 0.089090 -0.258069
v -0.203360 0.090866 -0.258069
v -0.258069 0.083576 -0.215770
v -0.258069 0.083576 -0.258069
v 0.258069 0.083576 -0.258069
v 0.258069 0.083576 0.208995
v 0.258069 0.083576 0.258069
v -0.230474 -0.006000 0.258069
v -0.258069 0.083576 0.258069
v 0.121061 -0.006000 0.258069
v -0.037513 -0.055358 -0.269688
v -0.037513 -0.122299 -0.269688
v -0.130316 -0.122299 -0.269688
v -0.130316 -0.055358 -0.269688
v -0.189891 0.142385 -0.258069
v 0.189891 0.089090 -0.258069
v 0.203360 0.090866 -0.258069
v -0.258069 0.090866 -0.215770
v -0.258069 0.090866 -0.258069
v 0.258069 0.090866 -0.258069
v 0.258069 0.090866 0.208995
v 0.258069 0.090866 0.258069
v -0.175767 0.090866 0.258069
v -0.258069 0.090866 0.258069
v 0.175767 0.090866 0.258069
v 0.258069 0.145938 -0.215770
v 0.258069 0.090866 -0.215770
v -0.244776 0.090866 -0.215770
v -0.244776 0.145938 -0.215770
v 0.258069 0.083576 -0.215770
v 0.258069 0.600845 -0.194269
v 0.258069 0.323778 -0.194269
v 0.244776 0.392565 -0.194269
v 0.244776 0.550561 -0.194269
v -0.258069 0.090866 0.208995
v -0.258069 0.145938 0.208995
v -0.258069 0.145938 -0.194270
v -0.258069 0.090866 -0.194270
v 0.258069 -0.746459 -0.215770
v 0.258069 -0.225413 -0.215770
v 0.244776 -0.225413 -0.215770
v 0.244776 -0.746459 -0.215770
v -0.258069 0.083576 0.208995
v -0.258069 0.083576 -0.194270
v -0.244776 0.145938 -0.194270
v -0.244776 0.090866 -0.194270
v 0.258069 0.392565 -0.215769
v 0.258069 0.550561 -0.215769
v 0.244776 0.550561 -0.215769
v 0.244776 0.392565 -0.215769
v -0.258069 -0.225413 0.208995
v -0.258069 -0.225413 -0.194270
v 0.258069 0.145938 -0.194270
v 0.244776 0.145938 -0.194270
v -0.258069 0.392565 0.208996
v -0.258069 0.392565 -0.194269
v 0.258069 0.090866 -0.194270
v 0.258069 0.083576 -0.194270
v 0.244776 0.083576 -0.194270
v 0.244776 0.090866 -0.194270
v -0.258069 -0.746459 0.208995
v -0.258069 -0.746459 -0.194270
v 0.258069 -1.303374 -0.194271
v 0.175767 -1.303374 -0.194271
v 0.166713 -1.303374 -0.194271
v 0.244776 -1.303374 -0.194271
v 0.244776 0.145938 -0.215770
v 0.244776 0.090866 -0.215770
v 0.244776 0.083576 -0.215770
v -0.175767 -1.303374 -0.258070
v 0.175767 -1.303374 -0.258070
v 0.175767 -1.303374 -0.215771
v -0.175767 -1.303374 -0.215771
v 0.258069 -1.303374 -0.215771
v 0.244776 -1.303374 -0.215771
v 0.166713 -1.303374 -0.215771
v -0.258069 -1.303374 -0.258070
v -0.258069 -1.303374 -0.215771
v -0.258069 -0.782327 -0.215770
v -0.244776 -1.303374 -0.215771
v -0.244776 -0.782327 -0.215770
v 0.178066 0.634885 -0.261443
v -0.259757 0.622886 0.210508
v -0.259757 0.622886 0.259758
v -0.259757 0.622886 0.259758
v -0.259757 0.622886 0.210508
v 0.261444 0.634885 -0.261443
v 0.261444 0.634885 -0.261443
v 0.258069 -1.303374 -0.258070
v -0.244776 -0.225413 -0.194270
v -0.244776 -0.746459 -0.194270
v -0.244776 0.392565 -0.215769
v -0.244776 0.083576 -0.194270
v -0.244776 0.083576 -0.215770
v 0.244776 -0.225413 -0.194270
v -0.244776 -0.225413 -0.215770
v -0.244776 0.392565 -0.194269
v -0.244776 -0.746459 -0.215770
v 0.244776 -0.746459 -0.194270
v -0.166713 -1.303374 -0.215771
v -0.166713 -1.303374 -0.194271
v -0.244776 -1.303374 -0.194271
v -0.261444 0.634885 0.261445
v -0.261444 0.634885 0.261445
v -0.244776 0.550561 -0.194269
v -0.244776 0.550561 -0.215769
v 0.258069 -0.782327 -0.194270
v 0.244776 -0.782327 -0.194270
v -0.258069 0.550561 -0.194269
v -0.259757 0.622886 -0.215839
v -0.175767 -1.303374 -0.194271
v 0.246376 0.622886 -0.194199
v 0.246376 0.622886 -0.215839
v 0.246376 0.622886 -0.215839
v 0.246376 0.622886 -0.194199
v 0.258069 -0.225413 -0.194270
v -0.258069 -1.303374 -0.194271
v 0.176917 0.622886 -0.259756
v 0.176917 0.622886 -0.259756
v -0.259757 0.622886 -0.215839
v -0.261444 0.634885 -0.194128
v -0.261444 0.634885 -0.215910
v -0.261444 0.634885 -0.215910
v -0.261444 0.634885 -0.194128
v -0.259757 0.622886 -0.194199
v -0.176917 0.622886 -0.259756
v -0.176917 0.622886 -0.259756
v -0.259757 0.622886 -0.259756
v 0.176917 0.622886 0.259758
v -0.176917 0.622886 0.259758
v -0.258069 0.550561 0.208996
v 0.259757 0.622886 0.259758
v 0.237139 0.623111 -0.189248
v 0.250017 0.623111 -0.189248
v 0.261444 0.634885 0.212019
v 0.261444 0.634885 0.261445
v 0.251641 0.634660 0.249311
v 0.251641 0.634660 0.201739
v 0.250017 0.623111 -0.210077
v 0.237139 0.623111 -0.210077
v -0.251641 0.634660 -0.253971
v -0.251641 0.634660 -0.210145
v -0.259757 0.622886 -0.259756
v -0.250017 0.623111 -0.252347
v -0.170283 0.623111 -0.252347
v 0.251641 0.634660 -0.189180
v 0.251641 0.634660 -0.210145
v -0.251641 0.634660 0.249311
v -0.250017 0.623111 0.247687
v 0.250017 0.623111 -0.252347
v 0.251641 0.634660 -0.253971
v 0.250017 0.623111 0.247687
v 0.170283 0.623111 0.247687
v -0.250017 0.623111 0.200284
v -0.251641 0.634660 -0.189180
v 0.170283 0.623111 -0.252347
v -0.261444 0.634885 0.212019
v -0.251641 0.634660 0.201739
v 0.261444 0.634885 0.212019
v 0.259757 0.622886 0.259758
v -0.261444 0.634885 0.212019
v -0.250017 0.623111 0.247687
v -0.170283 0.623111 0.247687
v -0.171389 0.634660 0.249311
v -0.251641 0.634660 0.249311
v -0.250017 0.623111 -0.210077
v -0.238679 0.634660 -0.210145
v -0.238679 0.634660 -0.189180
v 0.250017 0.623111 0.200284
v -0.237139 0.623111 -0.210077
v 0.238679 0.634660 -0.210145
v 0.238679 0.634660 -0.189180
v -0.178066 0.634885 0.261445
v 0.250017 0.623111 0.247687
v 0.258069 -0.746459 -0.194270
v 0.167716 0.524104 -0.258068
v -0.167716 0.524104 -0.258068
v -0.175982 0.428521 -0.258068
v 0.175982 0.428521 -0.258068
v 0.258069 -0.782327 0.208995
v 0.228958 -0.747618 -0.206214
v 0.241392 -0.747618 -0.206214
v -0.258069 -0.782327 0.258069
v -0.258069 -0.782327 0.208995
v -0.184965 -0.782327 -0.258069
v -0.258069 -0.782327 -0.258069
v -0.241392 -0.781168 -0.245780
v -0.173012 -0.781168 -0.245780
v 0.228958 -0.781168 -0.186103
v 0.241392 -0.781168 -0.186103
v 0.244776 -0.782327 -0.215770
v 0.258069 -0.782327 -0.215770
v 0.241392 -0.781168 -0.206214
v 0.228958 -0.781168 -0.206214
v -0.244776 -0.782327 -0.194270
v -0.164409 -0.747618 0.237004
v 0.164409 -0.747618 0.237004
v -0.258069 -0.782327 -0.194270
v 0.241392 -0.747618 -0.186103
v 0.228958 -0.747618 -0.186103
v -0.241392 -0.747618 -0.186103
v -0.241392 -0.747618 0.191101
v 0.258069 -0.782327 -0.258069
v -0.175767 -0.782327 0.258069
v 0.175767 -0.782327 0.258069
v 0.164409 -0.781168 0.237004
v -0.164409 -0.781168 0.237004
v -0.241392 -0.747618 0.237004
v -0.241392 -0.781168 0.191101
v -0.241392 -0.781168 -0.186103
v 0.241392 -0.747618 0.237004
v 0.184965 -0.782327 -0.258069
v -0.241392 -0.781168 0.237004
v 0.258069 -0.782327 0.258069
v 0.241392 -0.747618 -0.245780
v 0.241392 -0.781168 0.237004
v 0.241392 -0.747618 0.191101
v 0.241392 -0.781168 -0.245780
v 0.241392 -0.781168 0.191101
v -0.228958 -0.781168 -0.186103
v -0.228958 -0.747618 -0.186103
v -0.228958 -0.747618 -0.206214
v -0.228958 -0.781168 -0.206214
v -0.241392 -0.747618 -0.206214
v -0.241392 -0.781168 -0.206214
v -0.241392 -0.747618 -0.245780
v 0.173012 -0.781168 -0.245780
v 0.181615 -0.747618 -0.245780
v -0.181615 -0.747618 -0.245780
v 0.207256 0.732005 0.304304
v 0.304303 0.732005 0.304304
v 0.397069 0.812780 0.397070
v 0.270438 0.812780 0.397070
v -0.207256 0.732005 -0.304302
v -0.304303 0.732005 -0.304302
v -0.397069 0.812780 -0.397068
v -0.270438 0.812780 -0.397068
v 0.304303 0.732005 -0.217695
v 0.304303 0.732005 -0.304302
v 0.397069 0.812780 -0.397068
v 0.397069 0.812780 -0.221559
v -0.270438 0.812780 0.333544
v -0.397069 0.812780 0.333544
v -0.397069 0.812780 0.397070
v -0.270438 0.812780 0.397070
v -0.304303 0.732005 -0.217695
v 0.207256 0.732005 -0.304302
v 0.304303 0.732005 0.250422
v -0.207256 0.732005 0.304304
v -0.304303 0.732005 0.304304
v -0.304303 0.732005 0.250422
v 0.397069 0.812780 0.333544
v 0.270438 0.812780 0.333544
v 0.270438 0.812780 -0.397068
v -0.270438 0.812780 -0.221559
v 0.270438 0.812780 -0.221559
v -0.270438 0.812780 -0.188479
v 0.270438 0.812780 -0.188479
v 0.397069 0.812780 -0.188479
v -0.397069 0.812780 -0.221559
v -0.304303 0.732005 -0.192343
v -0.397069 0.812780 -0.188479
v 0.304303 0.732005 -0.192343
v -0.189891 0.382599 -0.258068
v 0.189891 0.382599 -0.258068
v 0.189891 0.382599 -0.307322
v -0.189891 0.382599 -0.307322
v 0.157846 0.290358 -0.307322
v 0.157846 0.145746 -0.307323
v 0.157846 0.145746 -0.293562
v 0.157846 0.290358 -0.293561
v 0.189891 0.083576 -0.258069
v 0.189891 -0.215447 -0.258069
v 0.189891 -0.215447 -0.307323
v 0.189891 0.083576 -0.307323
v -0.189891 -0.215447 -0.258069
v -0.189891 -0.215447 -0.307323
v -0.189891 0.142385 -0.258069
v -0.189891 0.142385 -0.307323
v -0.176114 0.009555 -0.307323
v -0.176114 -0.205225 -0.307323
v -0.189891 0.083576 -0.307323
v 0.176114 0.125549 -0.307323
v 0.176114 0.372378 -0.307322
v 0.189891 0.142385 -0.307323
v 0.176114 -0.205225 -0.307323
v -0.176114 0.372378 -0.307322
v 0.176114 0.009555 -0.307323
v -0.176114 0.060882 -0.307323
v -0.189891 0.089090 -0.307323
v -0.189891 0.083576 -0.258069
v 0.189891 0.089090 -0.258069
v 0.189891 0.089090 -0.307323
v 0.176114 0.008817 -0.328971
v -0.176114 0.008817 -0.328971
v 0.022169 -0.089001 -0.350499
v 0.022169 -0.090237 -0.352791
v 0.070631 -0.092816 -0.352900
v 0.119093 -0.090237 -0.352791
v 0.119093 -0.089001 -0.350499
v 0.133212 -0.089001 -0.350499
v 0.176114 -0.204562 -0.365699
v -0.176114 -0.204562 -0.365699
v 0.133212 -0.083036 -0.348008
v 0.119093 -0.083036 -0.348008
v 0.119093 -0.081800 -0.345716
v 0.070631 -0.079220 -0.345607
v 0.022169 -0.081800 -0.345716
v 0.022169 -0.083036 -0.348008
v 0.008050 -0.083036 -0.348008
v 0.008050 -0.089001 -0.350499
v 0.119093 -0.083020 -0.325151
v 0.119093 -0.081734 -0.325151
v 0.070631 -0.092904 -0.325151
v 0.119093 -0.090324 -0.325151
v 0.119093 -0.089038 -0.325151
v 0.133212 -0.089038 -0.325151
v 0.133212 -0.083020 -0.325151
v 0.070631 -0.097681 -0.325151
v 0.070631 -0.074377 -0.325151
v 0.070631 -0.079154 -0.325151
v 0.022169 -0.081734 -0.325151
v 0.022169 -0.083020 -0.325151
v 0.022169 -0.090324 -0.325151
v 0.022169 -0.089038 -0.325151
v 0.008050 -0.083020 -0.325151
v 0.008050 -0.089038 -0.325151
v -0.127658 -0.120339 -0.362491
v -0.127658 -0.120294 -0.358805
v -0.040171 -0.120294 -0.358805
v -0.040171 -0.120339 -0.362491
v 0.189891 0.142385 -0.258069
v -0.176114 0.125549 -0.307323
v 0.176114 0.060882 -0.307323
v -0.189891 0.089090 -0.258069
v -0.157846 0.290358 -0.307322
v -0.157846 0.145746 -0.307323
v -0.157846 0.290358 -0.293561
v -0.157846 0.145746 -0.293562
vt 0.705454 0.243957
vt 0.705454 0.211908
vt 0.728551 0.211908
vt 0.728551 0.243957
vt 0.728551 0.243957
vt 0.728551 0.211908
vt 0.751648 0.211908
vt 0.751648 0.243957
vt 0.632792 0.645652
vt 0.629907 0.645652
vt 0.629907 0.615439
vt 0.632792 0.615439
vt 0.673387 0.211908
vt 0.705435 0.211908
vt 0.705435 0.243956
vt 0.673387 0.243956
vt 0.673387 0.179859
vt 0.705435 0.179859
vt 0.705435 0.211908
vt 0.673387 0.211908
vt 0.706112 0.180777
vt 0.705436 0.179859
vt 0.728551 0.179859
vt 0.727874 0.180777
vt 0.727874 0.210990
vt 0.728551 0.211908
vt 0.705436 0.211908
vt 0.706112 0.210990
vt 0.630024 0.645652
vt 0.631296 0.645674
vt 0.632792 0.667397
vt 0.629907 0.667397
vt 0.632792 0.689140
vt 0.629907 0.689140
vt 0.631402 0.667419
vt 0.632675 0.667397
vt 0.673387 0.274169
vt 0.673387 0.243956
vt 0.695095 0.243958
vt 0.695095 0.274171
vt 0.358765 0.865714
vt 0.358818 0.920230
vt 0.344211 0.920244
vt 0.344158 0.865728
vt 0.019477 0.393313
vt 0.029005 0.447870
vt 0.000583 0.447870
vt 0.000583 0.393313
vt 0.196938 0.841961
vt 0.196939 0.937557
vt 0.179992 0.920208
vt 0.179991 0.865694
vt 0.208414 0.393177
vt 0.208414 0.447716
vt 0.179992 0.447716
vt 0.179992 0.393177
vt 0.806802 0.424069
vt 0.806802 0.452491
vt 0.789855 0.452491
vt 0.789855 0.424069
vt 0.995796 0.454107
vt 0.995796 0.482901
vt 0.991606 0.485207
vt 0.991606 0.457492
vt 0.342379 0.472699
vt 0.342379 0.472699
vt 0.342379 0.472699
vt 0.342379 0.472699
vt 0.342379 0.472699
vt 0.342379 0.472699
vt 0.342379 0.472699
vt 0.342379 0.472699
vt 0.342379 0.472699
vt 0.342379 0.472699
vt 0.342379 0.472699
vt 0.342379 0.472699
vt 0.342379 0.472699
vt 0.342379 0.472699
vt 0.342379 0.472699
vt 0.342379 0.472699
vt 0.342379 0.472699
vt 0.342379 0.472699
vt 0.342379 0.472699
vt 0.342379 0.472699
vt 0.979368 0.754571
vt 0.983989 0.754571
vt 0.980625 0.756281
vt 0.976178 0.756281
vt 0.539392 0.577289
vt 0.539392 0.700276
vt 0.536811 0.697970
vt 0.536811 0.579595
vt 0.806802 0.274248
vt 0.806802 0.302670
vt 0.789855 0.302670
vt 0.789855 0.274248
vt 0.358235 0.393177
vt 0.358235 0.447716
vt 0.329813 0.447716
vt 0.329813 0.393177
vt 0.178827 0.393313
vt 0.178826 0.447870
vt 0.150404 0.447870
vt 0.159933 0.393313
vt 0.156762 0.000000
vt 0.159936 0.179921
vt 0.019479 0.179921
vt 0.022658 0.000000
vt 0.178831 0.000000
vt 0.178829 0.179921
vt 0.178828 0.308151
vt 0.159934 0.308151
vt 0.329813 0.000000
vt 0.310921 0.148938
vt 0.189522 0.148938
vt 0.208414 0.000000
vt 0.329813 0.308044
vt 0.208414 0.308044
vt 0.358235 0.000000
vt 0.358235 0.179859
vt 0.358235 0.308044
vt 0.179992 0.179859
vt 0.179992 0.000000
vt 0.179992 0.308045
vt 0.196933 0.472699
vt 0.196936 0.652474
vt 0.179988 0.652474
vt 0.179986 0.472699
vt 0.196937 0.780601
vt 0.179990 0.780601
vt 0.000586 0.179921
vt 0.000588 0.000000
vt 0.019478 0.308151
vt 0.000584 0.308151
vt 0.358385 0.472699
vt 0.358559 0.652483
vt 0.343951 0.652497
vt 0.343777 0.472713
vt 0.358683 0.780616
vt 0.344075 0.780630
vt 0.155283 0.286617
vt 0.155285 0.183362
vt 0.159935 0.286617
vt 0.024129 0.306924
vt 0.024128 0.389871
vt 0.024131 0.183362
vt 0.155282 0.389871
vt 0.024129 0.286617
vt 0.019478 0.286617
vt 0.155283 0.288521
vt 0.159935 0.289134
vt 0.358662 0.759098
vt 0.344054 0.759113
vt 0.000585 0.286617
vt 0.196937 0.759084
vt 0.179990 0.759084
vt 0.189522 0.255597
vt 0.179992 0.286518
vt 0.358235 0.286518
vt 0.310921 0.255597
vt 0.178828 0.286617
vt 0.728551 0.179859
vt 0.751666 0.179859
vt 0.751666 0.211908
vt 0.728551 0.211908
vt 0.155283 0.306924
vt 0.024129 0.288521
vt 0.019478 0.289134
vt 0.358664 0.761614
vt 0.344057 0.761628
vt 0.000585 0.289134
vt 0.196937 0.761600
vt 0.179990 0.761600
vt 0.208414 0.289034
vt 0.179992 0.289034
vt 0.358235 0.289034
vt 0.329813 0.289034
vt 0.178828 0.289134
vt 0.946472 0.457835
vt 0.946490 0.438834
vt 0.961097 0.438848
vt 0.961079 0.457849
vt 0.986084 0.438884
vt 0.986107 0.457894
vt 0.981516 0.457900
vt 0.981493 0.438890
vt 0.946469 0.460350
vt 0.961077 0.460365
vt 0.340772 0.480310
vt 0.340890 0.575983
vt 0.336270 0.552236
vt 0.336203 0.497679
vt 0.650591 0.457843
vt 0.650591 0.438841
vt 0.789855 0.438841
vt 0.789855 0.457843
vt 0.991606 0.274253
vt 0.991384 0.454112
vt 0.986794 0.454106
vt 0.987016 0.274248
vt 0.650591 0.460359
vt 0.789855 0.460359
vt 0.980964 0.563387
vt 0.980941 0.582404
vt 0.976350 0.582398
vt 0.976374 0.563382
vt 0.946367 0.566960
vt 0.960974 0.566975
vt 0.991121 0.667430
vt 0.991054 0.721969
vt 0.986463 0.721963
vt 0.986531 0.667425
vt 0.650591 0.566974
vt 0.789855 0.566974
vt 0.340966 0.637392
vt 0.336375 0.637398
vt 0.650591 0.353743
vt 0.789855 0.353743
vt 0.340989 0.656409
vt 0.340992 0.658926
vt 0.336402 0.658932
vt 0.336399 0.656415
vt 0.650590 0.746759
vt 0.789854 0.746759
vt 0.633065 0.075720
vt 0.633065 0.104142
vt 0.633065 0.107269
vt 0.633065 0.080311
vt 0.946572 0.353740
vt 0.961179 0.353755
vt 0.991226 0.582298
vt 0.986636 0.582292
vt 0.946194 0.746736
vt 0.960802 0.746750
vt 0.991253 0.560771
vt 0.991250 0.563288
vt 0.986659 0.563282
vt 0.986662 0.560766
vt 0.962020 0.028422
vt 0.962020 0.149821
vt 0.947412 0.149821
vt 0.947412 0.028422
vt 0.633065 0.104142
vt 0.633065 0.075720
vt 0.633065 0.080311
vt 0.633065 0.107269
vt 0.962020 0.000000
vt 0.947412 0.000000
vt 0.991414 0.926957
vt 0.991414 0.747098
vt 0.996004 0.747098
vt 0.996004 0.926957
vt 0.342379 0.472699
vt 0.342379 0.472699
vt 0.342379 0.472699
vt 0.342379 0.472699
vt 0.342379 0.472699
vt 0.342379 0.472699
vt 0.342379 0.472699
vt 0.342379 0.472699
vt 0.962020 0.178243
vt 0.947412 0.178243
vt 0.981321 0.274253
vt 0.981099 0.454174
vt 0.976508 0.454168
vt 0.976730 0.274248
vt 0.946624 0.299227
vt 0.961232 0.299241
vt 0.985979 0.353752
vt 0.981388 0.353757
vt 0.976152 0.563149
vt 0.976152 0.582150
vt 0.968727 0.582150
vt 0.968727 0.563149
vt 0.976152 0.560634
vt 0.968727 0.560634
vt 0.968680 0.563163
vt 0.968680 0.582166
vt 0.961255 0.582166
vt 0.961255 0.563163
vt 0.968680 0.560648
vt 0.961255 0.560648
vt 0.976150 0.454023
vt 0.968725 0.454023
vt 0.968680 0.454032
vt 0.961255 0.454032
vt 0.968681 0.667263
vt 0.961256 0.667263
vt 0.968680 0.274248
vt 0.961255 0.274248
vt 0.976153 0.667244
vt 0.968728 0.667244
vt 0.976148 0.274248
vt 0.968723 0.274248
vt 0.991414 0.774056
vt 0.991414 0.889201
vt 0.983989 0.889201
vt 0.983989 0.774056
vt 0.991414 0.747098
vt 0.983989 0.747098
vt 0.342379 0.472699
vt 0.342379 0.472699
vt 0.991414 0.916160
vt 0.983989 0.916160
vt 0.976154 0.721757
vt 0.968729 0.721757
vt 0.968681 0.721779
vt 0.961256 0.721779
vt 0.988840 0.179921
vt 0.988840 0.000000
vt 0.993431 0.000000
vt 0.993431 0.179921
vt 0.980836 0.667566
vt 0.980769 0.722123
vt 0.976178 0.722117
vt 0.976245 0.667560
vt 0.980967 0.560870
vt 0.976377 0.560864
vt 0.633065 0.225541
vt 0.633065 0.222414
vt 0.985911 0.299213
vt 0.981321 0.299219
vt 0.986110 0.460411
vt 0.981520 0.460417
vt 0.986463 0.274248
vt 0.981842 0.274253
vt 0.633065 0.225541
vt 0.633065 0.222414
vt 0.342379 0.472699
vt 0.342379 0.472699
vt 0.342379 0.472699
vt 0.342379 0.472699
vt 0.633065 0.253963
vt 0.633065 0.249373
vt 0.341124 0.765622
vt 0.336533 0.765628
vt 0.341346 0.472699
vt 0.336725 0.472704
vt 0.633065 0.253963
vt 0.633065 0.249373
vt 0.342379 0.472699
vt 0.342379 0.472699
vt 0.986242 0.567070
vt 0.981651 0.567076
vt 0.342379 0.472699
vt 0.342379 0.472699
vt 0.991606 0.746934
vt 0.986985 0.746929
vt 0.342379 0.472699
vt 0.342379 0.472699
vt 0.342379 0.472699
vt 0.342379 0.472699
vt 0.981321 0.747098
vt 0.976700 0.747092
vt 0.342379 0.472699
vt 0.342379 0.472699
vt 0.976178 0.746734
vt 0.968705 0.746734
vt 0.968705 0.746757
vt 0.961232 0.746757
vt 0.336203 0.937557
vt 0.336179 0.945186
vt 0.196417 0.945186
vt 0.358818 0.945209
vt 0.343652 0.945224
vt 0.330210 0.472699
vt 0.208017 0.472699
vt 0.179409 0.472699
vt 0.150801 0.472852
vt 0.028608 0.472852
vt 0.000000 0.472852
vt 0.650591 0.299227
vt 0.633644 0.299227
vt 0.633061 0.274248
vt 0.650069 0.274248
vt 0.946065 0.274248
vt 0.961232 0.274263
vt 0.179409 0.472852
vt 0.358818 0.472699
vt 0.988840 0.156767
vt 0.984219 0.156767
vt 0.981029 0.155057
vt 0.985477 0.155057
vt 0.375887 0.729070
vt 0.358818 0.729070
vt 0.363008 0.725684
vt 0.379437 0.725684
vt 0.343360 0.565061
vt 0.343360 0.569682
vt 0.341370 0.566318
vt 0.341370 0.561871
vt 0.523668 0.548496
vt 0.539392 0.548496
vt 0.536811 0.551881
vt 0.521676 0.551881
vt 0.945483 0.775367
vt 0.945483 0.746759
vt 0.948042 0.750122
vt 0.948042 0.777658
vt 0.523668 0.729070
vt 0.516145 0.729070
vt 0.514436 0.725684
vt 0.521676 0.725684
vt 0.040341 0.831607
vt 0.044504 0.831019
vt 0.044293 0.835209
vt 0.040285 0.835776
vt 0.960649 0.926168
vt 0.945483 0.926168
vt 0.948042 0.922804
vt 0.962639 0.922804
vt 0.539392 0.729070
vt 0.536811 0.725684
vt 0.997599 0.150801
vt 0.997599 0.179409
vt 0.993431 0.176045
vt 0.993431 0.148510
vt 0.983989 0.894330
vt 0.983989 0.911338
vt 0.980625 0.907169
vt 0.980625 0.890800
vt 0.516145 0.548496
vt 0.514436 0.551881
vt 0.945483 0.897560
vt 0.948042 0.895269
vt 0.375887 0.548496
vt 0.379437 0.551881
vt 0.342379 0.472699
vt 0.342379 0.472699
vt 0.342379 0.472699
vt 0.342379 0.472699
vt 0.342379 0.472699
vt 0.342379 0.472699
vt 0.342379 0.472699
vt 0.342379 0.472699
vt 0.342379 0.472699
vt 0.342379 0.472699
vt 0.342379 0.472699
vt 0.342379 0.472699
vt 0.995796 0.482203
vt 0.995796 0.454668
vt 0.999800 0.454107
vt 0.999800 0.481821
vt 0.995796 0.627349
vt 0.995796 0.599814
vt 0.999800 0.600196
vt 0.999800 0.627910
vt 1.000000 0.892804
vt 1.000000 0.920340
vt 0.996004 0.920901
vt 0.996004 0.893187
vt 0.699104 0.243956
vt 0.699104 0.258554
vt 0.695095 0.259115
vt 0.695095 0.243980
vt 0.040308 0.852146
vt 0.044316 0.851638
vt 1.000000 0.747658
vt 1.000000 0.775193
vt 0.996004 0.774812
vt 0.996004 0.747098
vt 0.703112 0.244517
vt 0.703112 0.259115
vt 0.699104 0.259091
vt 0.699104 0.243956
vt 0.521676 0.556357
vt 0.514436 0.556357
vt 0.036085 0.965540
vt 0.036277 0.831019
vt 0.040285 0.831048
vt 0.040093 0.966048
vt 0.712282 0.259091
vt 0.712282 0.251898
vt 0.716288 0.251875
vt 0.716288 0.259115
vt 0.665969 0.272756
vt 0.665969 0.265563
vt 0.669976 0.265540
vt 0.669976 0.272780
vt 0.637053 0.269800
vt 0.641040 0.269240
vt 0.641040 0.273716
vt 0.637053 0.274248
vt 0.641040 0.269801
vt 0.645026 0.269240
vt 0.645026 0.273716
vt 0.641040 0.274248
vt 0.514436 0.721208
vt 0.521676 0.721208
vt 0.633065 0.269240
vt 0.637053 0.269800
vt 0.637053 0.274248
vt 0.633065 0.273716
vt 0.649012 0.274248
vt 0.645026 0.273687
vt 0.645026 0.269240
vt 0.649012 0.269771
vt 0.343360 0.569682
vt 0.343360 0.574303
vt 0.341370 0.577493
vt 0.341370 0.573045
vt 0.997599 0.028608
vt 0.993431 0.030899
vt 0.984219 0.164240
vt 0.981029 0.162250
vt 0.997599 0.000000
vt 0.993431 0.003364
vt 0.979368 0.747098
vt 0.976178 0.749088
vt 0.707406 0.245824
vt 0.711546 0.246188
vt 0.711546 0.250361
vt 0.707561 0.250011
vt 0.995796 0.605887
vt 0.991606 0.603582
vt 0.653153 0.273414
vt 0.649012 0.273782
vt 0.649167 0.269594
vt 0.653153 0.269240
vt 0.040285 0.986668
vt 0.036121 0.986080
vt 0.036062 0.981910
vt 0.040070 0.982477
vt 0.988840 0.017008
vt 0.985477 0.020538
vt 0.995796 0.634681
vt 0.991606 0.631296
vt 0.960649 0.746759
vt 0.962639 0.750122
vt 0.988840 0.000000
vt 0.985477 0.004168
vt 0.040496 0.986667
vt 0.044504 0.986638
vt 0.358818 0.548496
vt 0.363008 0.551881
vt 0.789855 0.299228
vt 0.789831 0.274248
vt 0.179409 0.945186
vt 0.633644 0.353743
vt 0.633643 0.746758
vt 0.633644 0.566974
vt 0.633644 0.438841
vt 0.633644 0.460358
vt 0.633644 0.457843
vt 0.336201 0.761600
vt 0.336201 0.780601
vt 0.336201 0.759084
vt 0.336199 0.652474
vt 0.336201 0.841961
vt 0.336197 0.472699
vt 0.946065 0.302670
vt 0.946065 0.424069
vt 0.946065 0.274248
vt 0.946065 0.452491
vt 0.031785 0.438734
vt 0.147623 0.438734
vt 0.150478 0.405729
vt 0.028931 0.405729
vt 0.945483 0.746761
vt 0.945483 0.926537
vt 0.806219 0.926535
vt 0.806219 0.746759
vt 0.343651 0.544363
vt 0.341370 0.540380
vt 0.341517 0.534001
vt 0.343651 0.537727
vt 0.789272 0.746759
vt 0.789272 0.926544
vt 0.772325 0.926544
vt 0.772325 0.746759
vt 0.612897 0.780095
vt 0.612897 0.754849
vt 0.617143 0.760608
vt 0.617143 0.784222
vt 0.341346 0.945543
vt 0.336755 0.945548
vt 0.515026 0.729070
vt 0.515026 0.733660
vt 0.512204 0.739123
vt 0.512204 0.734829
vt 0.973605 0.179776
vt 0.973605 0.000000
vt 0.981029 0.000000
vt 0.981029 0.179776
vt 0.341370 0.506895
vt 0.343652 0.502911
vt 0.343652 0.509549
vt 0.341517 0.513275
vt 0.945443 0.452491
vt 0.945443 0.632276
vt 0.938019 0.632276
vt 0.938019 0.452491
vt 0.000000 0.802597
vt 0.000000 0.681198
vt 0.007274 0.685120
vt 0.007274 0.798674
vt 0.608306 0.850068
vt 0.608306 0.670146
vt 0.612897 0.670146
vt 0.612897 0.850068
vt 0.156210 0.826428
vt 0.156210 0.831019
vt 0.153389 0.825260
vt 0.153389 0.820966
vt 0.986463 0.746929
vt 0.981873 0.746934
vt 0.016947 0.652776
vt 0.156210 0.652776
vt 0.153389 0.658535
vt 0.023126 0.658535
vt 0.537058 0.729070
vt 0.537058 0.908846
vt 0.522451 0.908846
vt 0.522451 0.729070
vt 0.358818 0.878891
vt 0.358818 0.757492
vt 0.366090 0.761414
vt 0.366090 0.874968
vt 0.633061 0.926544
vt 0.633061 0.746759
vt 0.000000 0.652776
vt 0.007274 0.658535
vt 0.996197 0.274248
vt 0.996197 0.454107
vt 0.991606 0.454107
vt 0.991606 0.274248
vt 0.515026 0.907313
vt 0.375765 0.907313
vt 0.381942 0.901554
vt 0.512204 0.901554
vt 0.178243 0.652776
vt 0.178243 0.832561
vt 0.163636 0.832561
vt 0.163636 0.652776
vt 0.000000 0.831019
vt 0.007274 0.825260
vt 0.028422 0.472854
vt 0.025246 0.652775
vt 0.000000 0.652776
vt 0.000000 0.472854
vt 0.358818 0.907313
vt 0.366090 0.901554
vt 0.789272 0.926535
vt 0.789272 0.746759
vt 0.929504 0.000000
vt 0.944111 0.000000
vt 0.947412 0.005759
vt 0.933748 0.005759
vt 0.661487 0.000000
vt 0.661487 0.179859
vt 0.633065 0.179859
vt 0.633065 0.000000
vt 0.358818 0.729070
vt 0.366090 0.734829
vt 0.811308 0.000000
vt 0.811308 0.179859
vt 0.782886 0.179859
vt 0.782886 0.000000
vt 0.016947 0.831019
vt 0.023126 0.825260
vt 0.627504 0.933092
vt 0.612897 0.933092
vt 0.617143 0.927333
vt 0.630807 0.927333
vt 0.178243 0.472852
vt 0.178243 0.652773
vt 0.152997 0.652774
vt 0.149821 0.472853
vt 0.375765 0.729070
vt 0.381942 0.734829
vt 0.028585 0.977135
vt 0.017009 0.977135
vt 0.017009 0.846871
vt 0.028585 0.846871
vt 0.928314 0.255138
vt 0.916737 0.255138
vt 0.916737 0.239285
vt 0.928314 0.239285
vt 0.699389 0.262586
vt 0.699389 0.274171
vt 0.695095 0.274171
vt 0.695095 0.262586
vt 0.663162 0.265539
vt 0.663162 0.253963
vt 0.670107 0.253963
vt 0.670107 0.265539
vt 0.656217 0.265540
vt 0.656217 0.253963
vt 0.663162 0.253963
vt 0.663162 0.265540
vt 0.699389 0.274171
vt 0.699389 0.262586
vt 0.703683 0.262586
vt 0.703683 0.274171
vt 0.703112 0.259115
vt 0.703112 0.247534
vt 0.707406 0.247534
vt 0.707406 0.259115
vt 0.656217 0.267627
vt 0.644641 0.267627
vt 0.644641 0.253963
vt 0.656217 0.253963
vt 0.916737 0.109022
vt 0.928314 0.109022
vt 0.707977 0.262586
vt 0.707977 0.274167
vt 0.703683 0.274167
vt 0.703683 0.262586
vt 0.644641 0.267627
vt 0.633065 0.267627
vt 0.633065 0.253963
vt 0.644641 0.253963
vt 0.973605 0.023614
vt 0.962020 0.020643
vt 0.962020 0.000000
vt 0.973605 0.000000
vt 0.017009 0.831019
vt 0.028585 0.831019
vt 0.974220 0.773344
vt 0.962639 0.773344
vt 0.962639 0.746759
vt 0.974220 0.746759
vt 0.974220 0.913484
vt 0.962639 0.913484
vt 0.962639 0.886898
vt 0.974220 0.886898
vt 0.973605 0.166725
vt 0.962020 0.166725
vt 0.962020 0.146081
vt 0.973605 0.143110
vt 0.522451 0.733660
vt 0.519149 0.739123
vt 0.929504 0.178243
vt 0.929504 0.156174
vt 0.933748 0.151841
vt 0.933748 0.172484
vt 0.627504 0.754849
vt 0.630807 0.760608
vt 0.163635 0.826428
vt 0.160334 0.820966
vt 0.612897 0.907846
vt 0.617143 0.903718
vt 0.944111 0.178243
vt 0.947412 0.172484
vt 0.522451 0.902722
vt 0.515026 0.902722
vt 0.512204 0.897260
vt 0.519149 0.897260
vt 0.929504 0.022070
vt 0.933748 0.026403
vt 0.156210 0.657366
vt 0.163635 0.657366
vt 0.160334 0.662829
vt 0.153389 0.662829
vt 0.341370 0.527622
vt 0.343651 0.523638
vt 0.343651 0.530274
vt 0.341517 0.534001
vt 0.343652 0.523638
vt 0.341370 0.519654
vt 0.341517 0.513274
vt 0.343652 0.517000
vt 0.601089 0.065550
vt 0.601089 0.032036
vt 0.633065 0.000000
vt 0.633065 0.043731
vt 0.390914 0.208698
vt 0.390914 0.242212
vt 0.358818 0.274248
vt 0.358818 0.230517
vt 0.420823 0.032036
vt 0.390914 0.032036
vt 0.358818 0.000000
vt 0.419428 0.000000
vt 0.380756 0.504765
vt 0.380756 0.548496
vt 0.358818 0.548496
vt 0.358818 0.504765
vt 0.879568 0.180267
vt 0.879568 0.210176
vt 0.845446 0.195375
vt 0.845446 0.179651
vt 0.607098 0.846808
vt 0.607098 0.880322
vt 0.573356 0.865534
vt 0.573356 0.836741
vt 0.845446 0.191568
vt 0.845446 0.210176
vt 0.811308 0.195371
vt 0.811308 0.178302
vt 0.573356 0.846808
vt 0.573356 0.880323
vt 0.539392 0.865522
vt 0.539392 0.836728
vt 0.582482 0.242212
vt 0.601089 0.242212
vt 0.633065 0.274248
vt 0.611127 0.274248
vt 0.573356 0.670146
vt 0.573356 0.703661
vt 0.539392 0.713741
vt 0.539392 0.684947
vt 0.607098 0.670146
vt 0.607098 0.703661
vt 0.573356 0.713754
vt 0.573356 0.684960
vt 0.380756 0.274248
vt 0.380756 0.317979
vt 0.358818 0.317979
vt 0.358818 0.274248
vt 0.390914 0.065550
vt 0.358818 0.043731
vt 0.601089 0.208698
vt 0.633065 0.230517
vt 0.633061 0.317979
vt 0.633061 0.504765
vt 0.572452 0.504765
vt 0.572452 0.317979
vt 0.561028 0.504765
vt 0.561028 0.317979
vt 0.633061 0.274248
vt 0.572452 0.274248
vt 0.561028 0.274248
vt 0.420823 0.242212
vt 0.419428 0.274248
vt 0.429578 0.242212
vt 0.430852 0.274248
vt 0.845446 0.000000
vt 0.845446 0.029909
vt 0.811308 0.030521
vt 0.811308 0.014797
vt 0.845446 0.038664
vt 0.811308 0.038043
vt 0.879568 0.018608
vt 0.879568 0.171512
vt 0.845446 0.172129
vt 0.845446 0.031870
vt 0.633061 0.548496
vt 0.572452 0.548496
vt 0.561028 0.548496
vt 0.582482 0.032036
vt 0.429578 0.032036
vt 0.430852 0.000000
vt 0.611127 0.000000
vt 0.879568 0.000000
vt 0.845446 0.014801
vt 0.000000 0.962173
vt 0.000000 0.831019
vt 0.017009 0.831019
vt 0.017009 0.962173
vt 0.776309 0.261806
vt 0.776309 0.211908
vt 0.781062 0.211908
vt 0.781062 0.261806
vt 0.938018 0.555663
vt 0.938018 0.658834
vt 0.921009 0.658834
vt 0.921009 0.555662
vt 0.899728 0.240176
vt 0.899728 0.109022
vt 0.916737 0.109022
vt 0.916737 0.240176
vt 0.629906 0.671964
vt 0.629907 0.754849
vt 0.612897 0.754849
vt 0.612897 0.671964
vt 0.794613 0.581307
vt 0.794613 0.655472
vt 0.789855 0.659002
vt 0.789855 0.555747
vt 0.916251 0.541252
vt 0.916251 0.456020
vt 0.921009 0.452491
vt 0.921009 0.535438
vt 0.916251 0.655471
vt 0.921009 0.659000
vt 0.794613 0.456022
vt 0.789855 0.452493
vt 0.916251 0.581306
vt 0.794613 0.563584
vt 0.789855 0.553843
vt 0.629907 0.548496
vt 0.629906 0.651672
vt 0.612897 0.651672
vt 0.612897 0.548496
vt 0.938018 0.553760
vt 0.921009 0.553760
vt 0.028585 0.952657
vt 0.028585 0.831019
vt 0.036062 0.831019
vt 0.036062 0.952657
vt 0.573066 0.601666
vt 0.573482 0.601667
vt 0.574372 0.584931
vt 0.573482 0.568195
vt 0.573066 0.568194
vt 0.573066 0.563318
vt 0.612897 0.548508
vt 0.612897 0.670146
vt 0.539392 0.670134
vt 0.539392 0.548496
vt 0.571018 0.563318
vt 0.571018 0.568193
vt 0.570602 0.568193
vt 0.569712 0.584929
vt 0.570602 0.601665
vt 0.571018 0.601665
vt 0.571018 0.606541
vt 0.573066 0.606542
vt 0.879568 0.230660
vt 0.879568 0.109022
vt 0.899728 0.109022
vt 0.899728 0.230660
vt 0.633065 0.253963
vt 0.633906 0.179859
vt 0.641379 0.180199
vt 0.653226 0.253963
vt 0.672545 0.179859
vt 0.673387 0.253960
vt 0.653226 0.253960
vt 0.665073 0.180199
vt 0.178687 0.472852
vt 0.178687 0.480746
vt 0.178243 0.480746
vt 0.178261 0.473644
vt 0.769208 0.228644
vt 0.759625 0.228644
vt 0.759620 0.211908
vt 0.769165 0.211908
vt 0.341789 0.472699
vt 0.341789 0.482244
vt 0.341346 0.482242
vt 0.341360 0.473489
vt 0.343446 0.544363
vt 0.343446 0.553117
vt 0.341370 0.553114
vt 0.341387 0.545221
vt 0.712853 0.262586
vt 0.712853 0.271339
vt 0.707977 0.271339
vt 0.707977 0.262586
vt 0.665969 0.273433
vt 0.661093 0.273433
vt 0.661093 0.265539
vt 0.665969 0.265539
vt 0.756894 0.216738
vt 0.757561 0.211908
vt 0.759620 0.212192
vt 0.758953 0.217022
vt 0.759620 0.234009
vt 0.751648 0.232908
vt 0.630350 0.615439
vt 0.631241 0.598703
vt 0.632890 0.598703
vt 0.629907 0.615439
vt 0.769208 0.245380
vt 0.769210 0.228644
vt 0.776274 0.228644
vt 0.776309 0.245380
vt 0.629907 0.548496
vt 0.632890 0.565231
vt 0.631241 0.565231
vt 0.630350 0.548496
vt 0.178705 0.479954
vt 0.178687 0.472852
vt 0.179131 0.472853
vt 0.179131 0.480746
vt 0.769165 0.245380
vt 0.759620 0.245380
vt 0.341804 0.481454
vt 0.341789 0.472700
vt 0.342233 0.472699
vt 0.342233 0.482244
vt 0.343441 0.553977
vt 0.343446 0.561871
vt 0.341370 0.561871
vt 0.341383 0.553117
vt 0.712282 0.250361
vt 0.712282 0.259115
vt 0.707406 0.259115
vt 0.707406 0.250361
vt 0.661093 0.273433
vt 0.656217 0.273433
vt 0.656217 0.265539
vt 0.661093 0.265539
vt 0.752315 0.249895
vt 0.754374 0.250179
vt 0.753707 0.255009
vt 0.751648 0.254725
vt 0.630350 0.581967
vt 0.629907 0.581967
vt 0.769208 0.211908
vt 0.776309 0.211908
vt 0.629907 0.581967
vt 0.630350 0.581967
vt 0.343652 0.502911
vt 0.342379 0.502911
vt 0.342379 0.472699
vt 0.343652 0.472699
vt 0.938018 0.452491
vt 0.938018 0.535372
vt 0.794613 0.541254
vt 0.789855 0.535440
vt 0.916251 0.563582
vt 0.629906 0.653575
vt 0.612897 0.653575
vt 0.909942 0.484343
vt 0.800921 0.484344
vt 0.800921 0.534279
vt 0.909942 0.534278
vt 0.049256 0.831019
vt 0.049256 0.940040
vt 0.044504 0.940040
vt 0.044504 0.831019
vt 0.054008 0.831019
vt 0.054008 0.940040
vt 0.049256 0.940040
vt 0.049256 0.831019
vt 0.781062 0.261803
vt 0.781062 0.211908
vt 0.785814 0.211908
vt 0.785814 0.261803
vt 0.929504 0.109022
vt 0.879568 0.109021
vt 0.879568 0.000000
vt 0.929504 0.000001
vn 1.0000 0.0000 0.0000
vn -1.0000 0.0000 0.0000
vn 0.0000 -1.0000 -0.0054
vn 0.0000 1.0000 0.0000
vn 0.0000 -1.0000 -0.0000
vn 0.0000 0.0000 -1.0000
vn 0.0000 0.0740 -0.9973
vn 0.0000 -0.0000 1.0000
vn 0.0000 -0.9998 0.0185
vn 0.0000 0.0000 0.0000
vn 0.0000 0.9990 -0.0454
vn 0.0000 -0.9995 -0.0301
vn -0.0007 0.0007 -1.0000
vn -0.0022 0.0009 -1.0000
vn 0.0000 0.0005 1.0000
vn 0.0000 0.0005 -1.0000
vn -0.0030 0.0016 -1.0000
vn 0.0000 0.0010 -1.0000
vn 0.9998 -0.0221 0.0000
vn -0.9998 -0.0221 0.0000
vn 0.9971 -0.0764 -0.0000
vn -0.9997 -0.0233 0.0000
vn 0.0000 -0.0233 0.9997
vn 0.0000 -0.0233 -0.9997
vn 0.9997 -0.0233 0.0000
vn 0.0229 -0.9997 -0.0000
vn 0.0000 -0.9992 0.0390
vn -0.0229 -0.9997 0.0000
vn 0.0000 0.9995 -0.0304
vn -0.7779 -0.0211 -0.6281
vn 0.0231 0.9997 0.0000
vn 0.0000 0.9998 0.0186
vn -0.0231 0.9997 0.0000
vn 0.0000 -0.1392 0.9903
vn 0.0000 -0.1392 -0.9903
vn 0.9903 -0.1392 0.0000
vn -0.9903 -0.1393 -0.0000
vn -0.9903 -0.1392 0.0000
vn 0.9903 -0.1393 -0.0000
vn -0.9912 -0.1322 0.0000
vn 0.9912 -0.1322 0.0000
vn 0.0000 0.0059 -1.0000
vn 0.0000 0.0059 1.0000
vn 0.0244 0.9997 0.0000
vn -0.0244 0.9997 0.0000
vn 0.7779 0.0211 0.6281
vn -0.7779 0.0211 0.6281
vn 0.7779 -0.0211 -0.6281
vn 0.9992 -0.0351 -0.0180
vn 0.0000 0.9927 0.1204
vn 0.0000 0.9956 -0.0939
vn 0.0000 0.9901 -0.1405
vn 0.0000 -0.9927 0.1204
vn 0.0000 -0.9985 0.0549
vn 0.0000 -0.9901 -0.1405
vn -0.0693 -0.9976 -0.0000
vn 0.0000 0.9985 0.0549
vn -0.0693 0.9976 0.0000
vn 0.0693 -0.9976 0.0000
vn 0.0693 0.9976 0.0000
vn 0.0731 0.9973 0.0000
vn 0.0000 -0.9956 -0.0939
vn 0.0731 -0.9973 0.0000
vn -0.0731 0.9973 0.0000
vn -0.0731 -0.9973 0.0000
vn 0.0000 -0.7542 0.6567
vn 0.0000 -0.7542 -0.6567
vn 0.6567 -0.7542 0.0000
vn -0.9149 -0.4037 0.0000
vn 0.0000 -0.4037 -0.9149
vn 0.9149 -0.4037 -0.0000
vn 0.0000 -0.4037 0.9149
vn -0.6567 -0.7542 -0.0000
vn 0.0000 0.9994 -0.0341
vn -0.0063 0.1615 -0.9868
vn 0.0923 0.1753 -0.9802
vn 0.0000 -0.9999 -0.0114
vn -0.0532 0.9986 0.0032
vn 0.0000 1.0000 0.0015
vn 0.0000 -1.0000 0.0007
vn -0.0532 -0.9986 0.0032
vn 0.0532 0.9986 0.0032
vn 0.0532 -0.9986 0.0032
vn 0.0000 0.9999 -0.0122
usemtl Material.004
s 1
f 1/1/1 2/2/1 3/3/1 4/4/1
f 5/5/2 6/6/2 7/7/2 8/8/2
f 9/9/3 10/10/3 11/11/3 12/12/3
f 2/13/4 1/14/4 6/15/4 5/16/4
f 8/17/5 7/18/5 4/19/5 3/20/5
f 9/21/6 1/22/6 4/23/6 13/24/6
f 14/25/6 7/26/6 6/27/6 12/28/6
f 12/28/6 6/27/6 1/22/6 9/21/6
f 13/24/6 4/23/6 7/26/6 14/25/6
f 13/29/2 15/30/2 10/31/2 9/32/2
f 12/33/1 11/34/1 16/35/1 14/36/1
usemtl Material.005
f 11/37/7 10/38/7 15/39/7 16/40/7
usemtl Material.001
f 17/41/2 18/42/2 19/43/2 20/44/2
f 21/45/6 22/46/6 23/47/6 24/48/6
f 25/49/1 26/50/1 27/51/1 28/52/1
f 29/53/8 30/54/8 31/55/8 32/56/8
f 33/57/5 34/58/5 35/59/5 36/60/5
f 37/61/9 38/62/9 39/63/9 40/64/9
f 41/65/10 42/66/10 43/67/10 44/68/10
f 45/69/10 46/70/10 47/71/10 48/72/10
f 49/73/10 50/74/10 51/75/10 52/76/10
f 53/77/10 54/78/8 55/79/8 56/80/10
f 57/81/10 58/82/10 59/83/10 60/84/10
f 59/85/11 61/86/11 62/87/11 63/88/11
f 55/89/12 64/90/12 65/91/12 66/92/12
f 67/93/5 68/94/5 69/95/5 70/96/5
f 68/94/5 33/57/5 36/60/5 69/95/5
f 28/97/8 27/98/8 71/99/8 72/100/8
f 72/100/8 71/99/8 30/54/8 29/53/8
f 20/101/6 19/102/6 73/103/6 74/104/6
f 75/105/6 76/106/6 77/107/6 78/108/6
f 79/109/6 80/110/6 76/106/6 75/105/6
f 81/111/6 20/101/6 74/104/6 82/112/6
f 83/113/8 84/114/8 85/115/8 86/116/8
f 87/117/8 72/100/8 29/53/8 88/118/8
f 89/119/8 90/120/8 84/114/8 83/113/8
f 91/121/8 28/97/8 72/100/8 87/117/8
f 86/116/8 85/115/8 92/122/8 93/123/8
f 88/118/8 29/53/8 32/56/8 94/124/8
f 95/125/1 96/126/1 90/127/1 89/128/1
f 97/129/1 25/49/1 28/52/1 91/130/1
f 78/108/6 77/107/6 98/131/6 99/132/6
f 100/133/6 21/45/6 24/48/6 101/134/6
f 102/135/2 103/136/2 80/137/2 79/138/2
f 104/139/2 17/41/2 20/44/2 81/140/2
f 105/141/6 106/142/6 76/106/6 107/143/6
f 108/144/6 109/145/6 21/45/6 100/133/6
f 106/142/6 110/146/6 77/107/6 76/106/6
f 109/145/6 111/147/6 74/104/6 21/45/6
f 110/146/6 112/148/6 113/149/6 77/107/6
f 114/150/6 105/141/6 107/143/6 115/151/6
f 103/136/2 116/152/2 117/153/2 80/137/2
f 77/107/6 113/149/6 118/154/6 98/131/6
f 96/126/1 119/155/1 120/156/1 90/127/1
f 85/115/8 121/157/8 122/158/8 92/122/8
f 90/120/8 120/159/8 123/160/8 84/114/8
f 80/110/6 117/161/6 107/143/6 76/106/6
f 124/162/6 125/163/6 126/164/6 127/165/6
f 111/147/6 128/166/6 82/112/6 74/104/6
f 128/166/6 114/150/6 115/151/6 82/112/6
f 112/148/6 129/167/6 130/168/6 113/149/6
f 129/167/6 108/144/6 100/133/6 130/168/6
f 116/152/2 131/169/2 132/170/2 117/153/2
f 131/169/2 104/139/2 81/140/2 132/170/2
f 113/149/6 130/168/6 133/171/6 118/154/6
f 130/168/6 100/133/6 101/134/6 133/171/6
f 119/155/1 134/172/1 135/173/1 120/156/1
f 134/172/1 97/129/1 91/130/1 135/173/1
f 121/157/8 136/174/8 137/175/8 122/158/8
f 136/174/8 88/118/8 94/124/8 137/175/8
f 120/159/8 135/176/8 138/177/8 123/160/8
f 135/176/8 91/121/8 87/117/8 138/177/8
f 123/160/8 138/177/8 136/174/8 121/157/8
f 138/177/8 87/117/8 88/118/8 136/174/8
f 117/161/6 132/178/6 115/151/6 107/143/6
f 132/178/6 81/111/6 82/112/6 115/151/6
f 133/179/1 101/180/1 139/181/1 140/182/1
f 104/183/8 131/184/8 141/185/8 142/186/8
f 118/187/1 133/179/1 140/182/1 143/188/1
f 144/189/13 145/190/6 146/191/6 147/192/14
f 148/193/2 149/194/2 150/195/2 151/196/2
f 152/197/8 153/198/8 154/199/8 155/200/8
f 156/201/2 148/193/2 151/196/2 157/202/2
f 151/203/6 150/204/6 158/205/6 159/206/6
f 98/207/1 118/187/1 143/188/1 153/208/1
f 160/209/8 161/210/15 162/211/15 163/212/8
f 164/213/2 156/201/2 157/202/2 165/214/2
f 145/190/6 166/215/6 167/216/6 146/191/6
f 149/194/2 168/217/2 169/218/2 150/195/2
f 170/219/6 171/220/6 172/221/6 173/222/6
f 174/223/2 164/213/2 165/214/2 175/224/2
f 176/225/8 177/226/8 178/227/8 179/228/8
f 101/180/1 24/229/1 160/230/1 139/181/1
f 139/231/8 160/209/8 163/212/8 180/232/8
f 99/233/1 98/207/1 153/208/1 152/234/1
f 143/235/8 140/236/8 181/237/8 182/238/8
f 183/239/5 184/240/5 185/241/5 186/242/5
f 185/243/6 187/244/6 188/245/6 189/246/6
f 190/247/5 183/239/5 186/242/5 191/248/5
f 192/249/8 191/250/8 193/251/8 194/252/8
f 54/78/8 195/253/8 64/254/8 55/79/8
f 196/255/10 197/256/10 198/257/10 199/258/10
f 200/259/10 49/73/10 52/76/10 201/260/10
f 166/215/6 170/219/6 173/222/6 167/216/6
f 184/240/5 202/261/5 187/262/5 185/241/5
f 175/263/6 165/264/6 203/265/6 204/266/6
f 24/229/1 23/267/1 161/268/1 160/230/1
f 140/236/8 139/231/8 180/232/8 181/237/8
f 17/269/8 104/183/8 142/186/8 205/270/8
f 181/271/1 180/272/1 167/273/1 173/274/1
f 182/275/1 181/271/1 173/274/1 172/276/1
f 159/277/2 158/278/2 142/279/2 141/280/2
f 206/281/2 159/277/2 141/280/2 207/282/2
f 154/283/1 182/275/1 172/276/1 208/284/1
f 203/285/2 206/281/2 207/282/2 209/286/2
f 158/278/2 210/287/2 205/288/2 142/279/2
f 204/289/2 203/285/2 209/286/2 211/290/2
f 180/272/1 163/291/1 146/292/1 167/273/1
f 155/293/1 154/283/1 208/284/1 212/294/1
f 213/295/5 189/296/5 178/297/5 214/298/5
f 193/299/5 213/295/5 214/298/5 215/300/5
f 197/256/10 216/301/10 217/302/10 198/257/10
f 195/253/8 200/259/10 201/260/10 64/254/8
f 189/296/5 188/303/5 179/304/5 178/297/5
f 163/291/1 162/305/1 147/306/1 146/292/1
f 210/287/2 218/307/2 219/308/2 205/288/2
f 220/309/6 176/310/6 179/311/6 221/312/6
f 169/313/6 222/314/16 218/315/16 210/316/6
f 157/317/6 151/203/6 159/206/6 206/318/6
f 186/319/6 185/243/6 189/246/6 213/320/6
f 18/321/15 17/269/8 205/270/8 219/322/15
f 131/184/8 116/323/8 207/324/8 141/185/8
f 223/325/10 18/321/15 219/322/15 57/326/10
f 177/226/8 224/327/8 214/328/8 178/227/8
f 153/198/8 143/235/8 182/238/8 154/199/8
f 225/329/10 226/330/10 227/331/10 228/332/10
f 191/333/6 186/319/6 213/320/6 193/334/6
f 171/220/6 229/335/6 208/336/6 172/221/6
f 42/337/17 144/189/13 147/192/14 225/338/17
f 224/327/8 230/339/8 215/340/8 214/328/8
f 165/264/6 157/317/6 206/318/6 203/265/6
f 46/70/10 231/341/8 232/342/8 47/71/10
f 116/323/8 103/343/8 209/344/8 207/324/8
f 223/345/10 57/81/10 60/84/10 233/346/10
f 150/204/6 169/313/6 210/316/6 158/205/6
f 161/210/15 45/347/10 226/348/10 162/211/15
f 234/349/10 235/350/10 236/351/10 237/352/10
f 222/314/16 238/353/18 58/354/18 218/315/16
f 231/341/8 239/355/8 240/356/8 232/342/8
f 147/306/19 162/305/19 226/357/19 225/358/19
f 219/308/20 218/307/20 58/359/20 57/360/20
f 26/50/21 144/361/21 42/362/21 41/363/21
f 19/43/22 18/42/22 223/364/22 241/365/22
f 30/54/23 71/99/23 242/366/23 243/367/23
f 31/55/23 30/54/23 243/367/23 197/368/23
f 22/46/24 73/103/24 239/369/24 231/370/24
f 23/47/24 22/46/24 231/370/24 46/371/24
f 244/372/22 31/373/22 197/374/22 196/375/22
f 161/268/25 23/267/25 46/376/25 45/377/25
f 73/103/24 19/102/24 241/378/24 239/369/24
f 71/99/23 27/98/23 245/379/23 242/366/23
f 43/380/11 228/381/11 246/382/11 247/383/11
f 248/384/26 249/385/26 250/386/26 251/387/26
f 227/388/27 48/389/27 252/390/27 253/391/27
f 236/392/28 56/393/28 254/394/28 255/395/28
f 240/396/29 256/397/29 257/398/29 258/399/29
f 52/400/26 51/401/26 259/402/26 260/403/26
f 198/404/30 217/405/30 261/406/30 262/407/30
f 48/408/31 47/409/31 263/410/31 252/411/31
f 201/412/26 52/400/26 260/403/26 264/413/26
f 242/414/32 245/415/32 265/416/32 266/417/32
f 199/418/33 198/419/33 262/420/33 267/421/33
f 237/422/28 236/392/28 255/395/28 268/423/28
f 47/409/29 232/424/29 269/425/29 263/410/29
f 270/426/28 237/422/28 268/423/28 271/427/28
f 232/424/29 240/396/29 258/399/29 269/425/29
f 239/355/8 241/428/10 256/429/10 240/356/8
f 272/430/10 37/431/10 249/432/10 248/433/10
f 37/431/10 245/434/10 273/435/10 249/432/10
f 241/428/10 223/345/10 233/346/10 256/429/10
f 235/350/10 53/77/10 56/80/10 236/351/10
f 226/330/10 45/69/10 48/72/10 227/331/10
f 42/66/10 225/329/10 228/332/10 43/67/10
f 274/436/10 234/349/10 237/352/10 270/437/10
f 58/82/10 238/438/10 61/439/10 59/83/10
f 266/440/34 265/441/34 40/442/34 39/443/34
f 275/444/34 276/445/34 277/446/34 278/447/34
f 276/445/34 266/440/34 39/443/34 277/446/34
f 258/448/35 257/449/35 254/450/35 66/451/35
f 252/452/36 263/453/36 264/454/36 260/455/36
f 267/456/37 262/407/38 261/406/38 271/457/38
f 263/458/35 269/459/35 65/460/35 264/461/35
f 269/459/35 258/448/35 66/451/35 65/460/35
f 257/462/38 279/463/38 255/464/38 254/465/38
f 268/423/5 255/395/5 280/466/5 281/467/5
f 282/468/39 247/469/39 259/470/39 251/471/36
f 283/472/40 63/473/40 281/474/40 280/475/40
f 246/476/41 253/477/41 284/478/41 285/479/41
f 62/480/42 268/481/42 281/482/42 63/483/42
f 252/484/43 260/485/43 284/486/43 253/487/43
f 260/403/5 259/402/5 285/488/5 284/489/5
f 259/490/42 247/491/42 246/492/42 285/493/42
f 255/494/43 279/495/43 283/496/43 280/497/43
f 64/90/12 201/412/12 264/413/12 65/91/12
f 233/498/27 60/499/27 283/500/27 279/501/27
f 243/502/32 242/414/32 266/417/32 276/503/32
f 228/381/44 227/504/44 253/505/44 246/382/44
f 197/506/32 243/502/32 276/503/32 275/507/32
f 60/508/45 59/85/45 63/88/45 283/509/45
f 216/510/46 197/511/46 275/512/46 278/513/46
f 38/62/9 286/514/9 277/515/9 39/63/9
f 245/516/47 37/517/47 40/518/47 265/519/47
f 249/520/48 273/521/48 287/522/48 250/523/48
f 44/524/31 43/380/31 247/383/31 282/525/31
f 286/514/9 216/526/9 278/527/9 277/515/9
f 56/393/12 55/89/12 66/92/12 254/394/12
f 256/397/33 233/528/33 279/529/33 257/398/33
f 273/530/31 44/524/31 282/525/31 287/531/31
f 287/522/36 282/468/39 251/471/36 250/523/36
f 62/532/37 267/456/37 271/457/38 268/533/37
f 216/301/10 274/436/10 270/437/10 217/302/10
f 50/74/10 272/430/10 248/433/10 51/75/10
f 217/534/28 270/426/28 271/427/28 261/535/28
f 61/86/33 199/418/33 267/421/33 62/87/33
f 51/401/26 248/384/26 251/387/26 259/402/26
f 222/536/22 244/372/22 196/375/22 238/537/22
f 27/51/49 26/50/49 41/363/49 245/538/49
f 32/539/2 31/373/2 244/372/2 168/217/2
f 238/438/10 196/255/10 199/258/10 61/439/10
f 93/540/2 92/541/2 164/213/2 174/223/2
f 94/542/2 32/539/2 168/217/2 149/194/2
f 92/541/2 122/543/2 156/201/2 164/213/2
f 122/543/2 137/544/2 148/193/2 156/201/2
f 137/544/2 94/542/2 149/194/2 148/193/2
f 170/545/1 166/546/1 97/129/1 134/172/1
f 171/547/1 170/545/1 134/172/1 119/155/1
f 229/548/1 171/547/1 119/155/1 96/126/1
f 166/546/1 145/549/1 25/49/1 97/129/1
f 288/550/1 229/548/1 96/126/1 95/125/1
f 224/551/5 177/552/5 33/57/5 68/94/5
f 230/553/5 224/551/5 68/94/5 67/93/5
f 245/434/10 41/65/10 44/68/10 273/435/10
f 177/552/5 176/554/5 34/58/5 33/57/5
f 145/549/1 144/361/1 26/50/1 25/49/1
f 289/555/6 290/556/6 73/103/6 22/46/6
f 290/556/6 291/557/6 74/104/6 73/103/6
f 292/558/6 289/555/6 22/46/6 21/45/6
f 291/557/6 292/558/6 21/45/6 74/104/6
f 176/559/1 220/560/1 293/561/1 34/562/1
f 152/563/50 155/564/50 294/565/50 295/566/50
f 70/567/2 296/568/2 297/569/2 67/570/2
f 298/571/51 299/572/51 300/573/51 301/574/51
f 229/335/6 288/575/6 212/576/6 208/336/6
f 220/577/52 221/578/52 302/579/52 303/580/52
f 188/581/1 304/582/1 221/583/1 179/584/1
f 304/585/53 305/586/53 306/587/53 307/588/53
f 215/589/2 308/590/2 194/591/2 193/592/2
f 83/593/54 86/594/54 309/595/54 310/596/54
f 230/597/6 311/598/6 308/599/6 215/600/6
f 212/601/55 288/602/55 312/603/55 313/604/55
f 103/343/8 102/605/8 211/606/8 209/344/8
f 174/607/56 175/608/56 314/609/56 315/610/56
f 202/611/1 316/612/1 305/613/1 187/614/1
f 317/615/57 318/616/57 319/617/57 320/618/57
f 67/570/2 297/569/2 311/619/2 230/620/2
f 93/621/56 174/607/56 315/610/56 321/622/56
f 187/623/8 305/624/8 304/625/8 188/626/8
f 311/627/58 297/628/58 322/629/58 323/630/58
f 191/631/2 192/632/2 299/633/2 190/634/2
f 89/635/54 83/593/54 310/596/54 324/636/54
f 184/637/6 325/638/6 316/639/6 202/640/6
f 297/628/58 296/641/58 326/642/58 322/629/58
f 34/562/1 293/561/1 327/643/1 35/644/1
f 99/645/59 152/646/59 295/647/59 328/648/59
f 69/649/8 317/650/8 296/651/8 70/652/8
f 318/616/57 327/653/57 329/654/57 319/617/57
f 35/655/8 327/656/8 318/657/8 36/658/8
f 288/602/59 95/659/59 330/660/59 312/603/59
f 36/658/8 318/657/8 317/650/8 69/649/8
f 305/661/60 316/662/60 331/663/60 306/664/60
f 190/665/6 299/666/6 298/667/6 183/668/6
f 86/594/54 93/621/54 321/622/54 309/595/54
f 183/668/6 298/667/6 325/638/6 184/637/6
f 293/669/60 220/577/60 303/580/60 332/670/60
f 303/671/1 312/672/1 330/673/1 332/674/1
f 326/675/2 321/676/2 315/677/2 322/678/2
f 312/679/6 303/680/6 302/681/6 313/682/6
f 307/683/1 294/684/1 313/685/1 302/686/1
f 333/687/2 334/688/2 335/689/2 336/690/2
f 323/691/6 314/692/6 334/693/6 333/694/6
f 337/695/8 338/696/8 336/697/8 335/698/8
f 331/699/1 328/700/1 295/701/1 306/702/1
f 322/678/2 315/677/2 314/703/2 323/704/2
f 306/705/8 295/706/8 294/707/8 307/708/8
f 338/709/2 337/710/2 339/711/2 300/712/2
f 340/713/6 341/714/6 328/715/6 331/716/6
f 332/674/1 330/673/1 324/717/1 329/718/1
f 320/719/8 309/720/8 321/721/8 326/722/8
f 329/723/8 324/724/8 310/725/8 319/726/8
f 319/726/8 310/725/8 309/720/8 320/719/8
f 300/727/6 339/728/6 342/729/6 301/730/6
f 301/730/6 342/729/6 341/714/6 340/713/6
f 221/578/61 304/731/61 307/732/61 302/579/61
f 79/733/62 75/734/62 342/735/62 339/736/62
f 299/572/58 192/737/58 338/738/58 300/573/58
f 155/739/63 212/601/63 313/604/63 294/740/63
f 325/741/51 298/571/51 301/574/51 340/742/51
f 102/743/56 79/733/56 339/736/56 337/744/56
f 194/745/64 308/746/64 333/747/64 336/748/64
f 75/734/62 78/749/62 341/750/62 342/735/62
f 316/662/51 325/741/51 340/742/51 331/663/51
f 204/751/65 211/752/65 335/753/65 334/754/65
f 78/749/62 99/645/62 328/648/62 341/750/62
f 308/746/52 311/627/52 323/630/52 333/747/52
f 327/653/60 293/669/60 332/670/60 329/654/60
f 175/608/55 204/751/55 334/754/55 314/609/55
f 95/659/59 89/635/59 324/636/59 330/660/59
f 211/755/50 102/756/50 337/757/50 335/758/50
f 296/641/57 317/615/57 320/618/57 326/642/57
f 192/759/53 194/760/53 336/761/53 338/762/53
usemtl Material.006
f 168/217/2 244/372/2 222/536/2 169/218/2
usemtl Material.002
f 343/763/66 344/764/66 345/765/66 346/766/66
f 347/767/67 348/768/67 349/769/67 350/770/67
f 351/771/68 352/772/68 353/773/68 354/774/68
f 355/775/4 356/776/4 357/777/4 358/778/4
f 359/779/69 348/780/69 53/781/69 235/782/69
f 360/783/70 352/784/70 200/785/70 195/786/70
f 361/787/71 344/788/71 37/789/71 272/790/71
f 362/791/72 363/792/72 216/793/72 286/794/72
f 364/795/73 363/796/73 357/797/73 356/798/73
f 344/799/72 343/800/72 38/801/72 37/802/72
f 343/800/72 362/791/72 286/794/72 38/801/72
f 348/803/70 347/804/70 54/805/70 53/806/70
f 347/804/70 360/783/70 195/786/70 54/805/70
f 365/807/4 366/808/4 346/809/4 345/810/4
f 366/808/4 355/775/4 358/778/4 346/809/4
f 352/772/67 360/811/67 367/812/67 353/773/67
f 360/811/67 347/767/67 350/770/67 367/812/67
f 363/796/66 362/813/66 358/814/66 357/797/66
f 362/813/66 343/763/66 346/766/66 358/814/66
f 367/815/4 350/816/4 368/817/4 369/818/4
f 369/818/4 368/817/4 370/819/4 371/820/4
f 353/821/4 367/815/4 369/818/4 354/822/4
f 354/822/4 369/818/4 371/820/4 372/823/4
f 348/768/73 359/824/73 373/825/73 349/769/73
f 359/824/73 374/826/73 375/827/73 373/825/73
f 352/828/71 351/829/71 49/830/71 200/831/71
f 351/829/71 376/832/71 50/833/71 49/830/71
f 364/834/69 374/835/69 234/836/69 274/837/69
f 374/835/69 359/779/69 235/782/69 234/836/69
f 350/816/4 349/838/4 373/839/4 368/817/4
f 368/817/4 373/839/4 375/840/4 370/819/4
f 361/841/68 376/842/68 372/843/68 365/844/68
f 376/842/68 351/771/68 354/774/68 372/843/68
f 344/764/68 361/841/68 365/844/68 345/765/68
f 363/845/69 364/834/69 274/837/69 216/846/69
f 371/820/4 370/819/4 355/775/4 366/808/4
f 372/823/4 371/820/4 366/808/4 365/807/4
f 374/826/73 364/795/73 356/798/73 375/827/73
f 376/832/71 361/787/71 272/790/71 50/833/71
f 370/819/4 375/840/4 356/776/4 355/775/4
f 377/847/4 378/848/4 379/849/4 380/850/4
f 381/851/2 382/852/2 383/853/2 384/854/2
f 385/855/1 386/856/1 387/857/1 388/858/1
f 386/859/5 389/860/5 390/861/5 387/862/5
f 391/863/2 377/864/2 380/865/2 392/866/2
f 393/867/6 394/868/6 390/869/6 395/870/6
f 396/871/6 397/872/6 379/873/6 398/874/6
f 394/868/6 399/875/6 387/876/6 390/869/6
f 397/872/6 400/877/6 380/878/6 379/873/6
f 399/875/6 401/879/6 388/858/6 387/876/6
f 402/880/6 393/867/6 395/870/6 403/881/6
f 389/882/2 404/883/2 395/884/2 390/885/2
f 405/886/1 385/855/1 388/858/1 406/887/1
f 393/888/74 401/889/74 407/890/74 408/891/74
f 409/892/75 410/893/75 411/894/75 412/895/75 413/896/75 414/897/75 415/898/75 416/899/75 408/900/75 407/901/75 417/902/75 418/903/75 419/904/75 420/905/75 421/906/75 422/907/75 423/908/75 424/909/75
f 415/898/76 414/897/76 417/902/76 407/901/76
f 399/910/77 394/911/77 416/912/77 415/913/77
f 394/914/2 393/915/2 408/916/2 416/917/2
f 401/918/1 399/919/1 415/920/1 407/921/1
f 418/922/2 425/923/2 426/924/2 419/925/2
f 411/926/78 427/927/78 428/928/78 412/929/78
f 412/930/2 428/931/2 429/932/2 413/933/2
f 414/934/2 430/935/2 431/936/2 417/937/2
f 413/938/79 429/939/79 430/940/79 414/941/79
f 431/942/80 425/943/80 418/944/80 417/945/80
f 425/946/6 431/947/6 430/948/6 429/949/6
f 429/949/6 432/950/6 433/951/6 425/946/6
f 428/952/8 427/953/8 432/954/8 429/955/8
f 426/956/81 434/957/81 420/958/81 419/959/81
f 425/960/8 433/961/8 434/962/8 426/963/8
f 421/964/1 435/965/1 436/966/1 422/967/1
f 410/968/82 437/969/82 427/927/82 411/926/82
f 409/970/1 438/971/1 437/972/1 410/973/1
f 423/974/1 439/975/1 440/976/1 424/977/1
f 424/978/79 440/979/79 438/980/79 409/981/79
f 436/982/80 439/983/80 423/984/80 422/985/80
f 436/986/6 438/987/6 440/988/6 439/989/6
f 438/987/6 436/986/6 433/951/6 432/950/6
f 437/990/8 438/991/8 432/954/8 427/953/8
f 434/957/83 435/992/83 421/993/83 420/958/83
f 436/994/8 435/995/8 434/962/8 433/961/8
f 441/996/84 442/997/84 443/998/84 444/999/84
f 378/1000/1 445/1001/1 398/874/1 379/873/1
f 445/1001/1 405/886/1 406/887/1 398/874/1
f 400/877/6 446/1002/6 392/1003/6 380/878/6
f 446/1002/6 402/880/6 403/881/6 392/1003/6
f 401/879/6 447/1004/6 406/887/6 388/858/6
f 447/1004/6 396/871/6 398/874/6 406/887/6
f 404/883/2 448/1005/2 403/1006/2 395/884/2
f 448/1005/2 391/863/2 392/866/2 403/1006/2
f 393/867/6 402/880/6 447/1004/6 401/879/6
f 402/880/6 446/1002/6 396/871/6 447/1004/6
f 381/1007/6 449/1008/6 400/877/6 397/872/6
f 449/1008/6 450/1009/6 446/1002/6 400/877/6
f 382/1010/6 381/1007/6 397/872/6 396/871/6
f 450/1009/6 382/1010/6 396/871/6 446/1002/6
f 449/1011/5 381/1012/5 384/1013/5 451/1014/5
f 382/1015/4 450/1016/4 452/1017/4 383/1018/4
f 450/1019/1 449/1020/1 451/1021/1 452/1022/1
usemtl Material.007
f 84/114/8 123/160/8 121/157/8 85/115/8
usemtl Material.008
f 291/557/6 290/556/6 289/555/6 292/558/6
usemtl Material.003
f 452/1023/6 451/1024/6 384/1025/6 383/1026/6
o linke
v -0.156618 0.146351 -0.299655
v -0.156618 0.289387 -0.299654
v 0.156618 0.289387 -0.299654
v 0.156618 0.146351 -0.299655
vt 1.000000 0.000000
vt 1.000000 1.018878
vt 0.000000 1.018878
vt 0.000000 0.000000
vn 0.0000 0.0000 -1.0000
usemtl Material.009
s 1
f 453/1027/85 454/1028/85 455/1029/85 456/1030/85
