# Blender v3.6.3 OBJ File: 'casier.blend'
# www.blender.org
mtllib locker.mtl
o Cylinder
v -0.317483 0.052125 0.350990
v -0.317483 0.014402 0.350990
v -0.317483 0.052125 0.422728
v -0.317483 0.014402 0.422728
v -0.326450 0.052125 0.350990
v -0.326450 0.014402 0.350990
v -0.326450 0.052125 0.422728
v -0.326450 0.014402 0.422728
v -0.317483 -0.014308 0.350990
v -0.317483 -0.052016 0.350990
v -0.317483 -0.014308 0.422728
v -0.317483 -0.052016 0.422728
v -0.326450 -0.014308 0.350990
v -0.326450 -0.052016 0.350990
v -0.326450 -0.014308 0.422728
v -0.326450 -0.052016 0.422728
v -0.373475 -0.734318 0.400000
v -0.373475 0.734318 0.400000
v -0.400000 -0.748392 -0.400000
v -0.224360 0.596517 0.348945
v -0.400000 0.748392 -0.400000
v -0.224360 0.622921 0.357529
v 0.373475 -0.734318 0.400000
v 0.373475 0.734318 0.400000
v 0.400000 -0.748392 -0.400000
v 0.224360 0.596517 0.348945
v 0.400000 0.748392 -0.400000
v 0.224360 0.622921 0.357529
v -0.400000 -0.748392 0.400000
v -0.400000 0.748392 0.400000
v 0.400000 0.748392 0.400000
v -0.224360 0.539716 0.348945
v 0.400000 -0.748392 0.400000
v -0.224360 0.566120 0.357529
v -0.373475 -0.734318 0.410360
v -0.373475 0.734318 0.410360
v 0.373475 0.734318 0.410360
v 0.224360 0.539716 0.348945
v 0.373475 -0.734318 0.410360
v 0.224360 0.566120 0.357529
v -0.224360 0.478181 0.348945
v -0.224360 0.504585 0.357529
v 0.224360 0.478181 0.348945
v 0.224360 0.504585 0.357529
v -0.224360 0.458214 0.410360
v -0.224360 0.487409 0.410360
v -0.224360 0.519749 0.410360
v -0.224360 0.548944 0.410360
v -0.224360 0.576550 0.410360
v -0.224360 0.605745 0.410360
v 0.224360 0.458214 0.410360
v 0.224360 0.487409 0.410360
v 0.224360 0.519749 0.410360
v 0.224360 0.605745 0.410360
v 0.224360 0.548944 0.410360
v 0.224360 0.576550 0.410360
v 0.370318 0.589558 0.394841
v 0.380648 0.638022 0.403319
v 0.380850 0.589558 0.405374
v 0.372372 0.638022 0.415705
v 0.370318 0.589558 0.415907
v 0.368263 0.638022 0.415705
v 0.359785 0.589558 0.405374
v 0.359987 0.638022 0.403319
v 0.370318 -0.681830 0.394841
v 0.380648 -0.633366 0.403319
v 0.380850 -0.681830 0.405374
v 0.372372 -0.633366 0.415705
v 0.370318 -0.681830 0.415907
v 0.368263 -0.633366 0.415705
v 0.359785 -0.681830 0.405374
v 0.359987 -0.633366 0.403319
v -0.373475 0.762465 0.400000
v -0.373475 2.231101 0.400000
v -0.400000 0.748392 -0.400000
v -0.224360 2.093300 0.348945
v -0.400000 2.245175 -0.400000
v -0.224360 2.119704 0.357529
v 0.373475 0.762465 0.400000
v 0.373475 2.231101 0.400000
v 0.400000 0.748392 -0.400000
v 0.224360 2.093300 0.348945
v 0.400000 2.245175 -0.400000
v 0.224360 2.119704 0.357529
v -0.400000 0.748392 0.400000
v -0.400000 2.245175 0.400000
v 0.400000 2.245175 0.400000
v -0.224360 2.036499 0.348945
v 0.400000 0.748392 0.400000
v -0.224360 2.062903 0.357529
v -0.373475 0.762465 0.410360
v -0.373475 2.231101 0.410360
v 0.373475 2.231101 0.410360
v 0.224360 2.036499 0.348945
v 0.373475 0.762465 0.410360
v 0.224360 2.062903 0.357529
v -0.224360 1.974964 0.348945
v -0.224360 2.001368 0.357529
v 0.224360 1.974964 0.348945
v 0.224360 2.001368 0.357529
v -0.224360 1.954997 0.410360
v -0.224360 1.984192 0.410360
v -0.224360 2.016532 0.410360
v -0.224360 2.045727 0.410360
v -0.224360 2.073334 0.410360
v -0.224360 2.102529 0.410360
v 0.224360 1.954997 0.410360
v 0.224360 1.984192 0.410360
v 0.224360 2.016532 0.410360
v 0.224360 2.102529 0.410360
v 0.224360 2.045727 0.410360
v 0.224360 2.073334 0.410360
v 0.370318 2.086341 0.394841
v 0.380648 2.134805 0.403319
v 0.380850 2.086341 0.405374
v 0.372372 2.134805 0.415705
v 0.370318 2.086341 0.415907
v 0.368263 2.134805 0.415705
v 0.359785 2.086341 0.405374
v 0.359987 2.134805 0.403319
v 0.370318 0.814954 0.394841
v 0.380648 0.863417 0.403319
v 0.380850 0.814954 0.405374
v 0.372372 0.863417 0.415705
v 0.370318 0.814954 0.415907
v 0.368263 0.863417 0.415705
v 0.359785 0.814954 0.405374
v 0.359987 0.863417 0.403319
v -0.317483 1.441883 0.350990
v -0.317483 1.404160 0.350990
v -0.317483 1.441883 0.422728
v -0.317483 1.404160 0.422728
v -0.326450 1.441883 0.350990
v -0.326450 1.404160 0.350990
v -0.326450 1.441883 0.422728
v -0.326450 1.404160 0.422728
v -0.317483 1.375451 0.350990
v -0.317483 1.337743 0.350990
v -0.317483 1.375451 0.422728
v -0.317483 1.337743 0.422728
v -0.326450 1.375451 0.350990
v -0.326450 1.337743 0.350990
v -0.326450 1.375451 0.422728
v -0.326450 1.337743 0.422728
v -0.321480 1.414243 0.379719
v -0.321480 1.414243 0.422804
v -0.308817 1.410128 0.379719
v -0.308817 1.410128 0.422804
v -0.300991 1.399357 0.379719
v -0.300991 1.399357 0.422804
v -0.300991 1.386043 0.379719
v -0.300991 1.386043 0.422804
v -0.308817 1.375271 0.379719
v -0.308817 1.375271 0.422804
v -0.321480 1.371157 0.379719
v -0.321480 1.371157 0.422804
v -0.334142 1.375271 0.379719
v -0.334142 1.375271 0.422804
v -0.341968 1.386043 0.379719
v -0.341968 1.386043 0.422804
v -0.341968 1.399357 0.379719
v -0.341968 1.399357 0.422804
v -0.334142 1.410128 0.379719
v -0.334142 1.410128 0.422804
v -0.321480 0.021245 0.379719
v -0.321480 0.021245 0.422804
v -0.308817 0.017130 0.379719
v -0.308817 0.017130 0.422804
v -0.300991 0.006359 0.379719
v -0.300991 0.006359 0.422804
v -0.300991 -0.006955 0.379719
v -0.300991 -0.006955 0.422804
v -0.308817 -0.017727 0.379719
v -0.308817 -0.017727 0.422804
v -0.321480 -0.021841 0.379719
v -0.321480 -0.021841 0.422804
v -0.334142 -0.017727 0.379719
v -0.334142 -0.017727 0.422804
v -0.341968 -0.006955 0.379719
v -0.341968 -0.006955 0.422804
v -0.341968 0.006359 0.379719
v -0.341968 0.006359 0.422804
v -0.334142 0.017130 0.379719
v -0.334142 0.017130 0.422804
vt 0.901191 0.870235
vt 0.891683 0.870235
vt 0.891683 0.852154
vt 0.901191 0.852154
vt 0.816583 0.927319
vt 0.816583 0.936810
vt 0.814323 0.936810
vt 0.814323 0.927319
vt 0.891683 0.870235
vt 0.901191 0.870235
vt 0.901191 0.888315
vt 0.891683 0.888315
vt 0.816348 0.936811
vt 0.816348 0.946302
vt 0.814088 0.946302
vt 0.814088 0.936811
vt 0.910699 0.852154
vt 0.912959 0.852154
vt 0.912959 0.870168
vt 0.910699 0.870168
vt 0.919739 0.852154
vt 0.921999 0.852154
vt 0.921999 0.870168
vt 0.919739 0.870168
vt 0.910695 0.888315
vt 0.901191 0.888315
vt 0.901191 0.870235
vt 0.910695 0.870235
vt 0.949300 0.852154
vt 0.949300 0.861642
vt 0.947040 0.861642
vt 0.947040 0.852154
vt 0.901191 0.888315
vt 0.910695 0.888315
vt 0.910695 0.906396
vt 0.901191 0.906396
vt 0.950304 0.870235
vt 0.950304 0.879722
vt 0.948044 0.879722
vt 0.948044 0.870235
vt 0.920198 0.888315
vt 0.922459 0.888315
vt 0.922459 0.906329
vt 0.920198 0.906329
vt 0.920198 0.870235
vt 0.922459 0.870235
vt 0.922459 0.888249
vt 0.920198 0.888249
vt 0.403259 0.377245
vt 0.403259 0.000000
vt 0.604889 0.000000
vt 0.604889 0.377245
vt 0.201630 0.753863
vt 0.201630 0.377245
vt 0.403259 0.377245
vt 0.403259 0.753863
vt 0.000000 0.754490
vt 0.000000 0.377245
vt 0.201630 0.377245
vt 0.201630 0.754490
vt 0.809120 0.739060
vt 0.809120 0.927319
vt 0.806519 0.927319
vt 0.806519 0.739060
vt 0.402514 0.753863
vt 0.402514 0.955492
vt 0.201630 0.955492
vt 0.201630 0.753863
vt 0.603398 0.753863
vt 0.603398 0.955492
vt 0.402514 0.955492
vt 0.402514 0.753863
vt 0.799833 0.749683
vt 0.799833 0.380153
vt 0.806519 0.376612
vt 0.806519 0.753224
vt 0.611574 0.380153
vt 0.611574 0.749683
vt 0.604889 0.753224
vt 0.604889 0.376612
vt 0.994778 0.370151
vt 0.994778 -0.000000
vt 0.997389 -0.000000
vt 0.997389 0.370151
vt 0.811722 0.739060
vt 0.811722 0.927319
vt 0.809120 0.927319
vt 0.809120 0.739060
vt 0.997389 0.370151
vt 0.997389 0.740301
vt 0.994778 0.740301
vt 0.994778 0.370151
vt 0.891683 0.852154
vt 0.891683 0.965248
vt 0.884914 0.965248
vt 0.884914 0.852154
vt 0.871377 0.852154
vt 0.871377 0.965248
vt 0.864608 0.965248
vt 0.864608 0.852154
vt 0.959732 0.739060
vt 0.959732 0.852154
vt 0.952963 0.852154
vt 0.952963 0.739060
vt 0.201630 0.000000
vt 0.201630 0.377245
vt 0.000000 0.377245
vt 0.000000 0.000000
vt 0.403259 0.753863
vt 0.403259 0.377245
vt 0.604889 0.377245
vt 0.604889 0.753863
vt 0.403259 0.000000
vt 0.403259 0.377245
vt 0.201630 0.377245
vt 0.201630 0.000000
vt 0.814323 0.739060
vt 0.814323 0.927319
vt 0.811722 0.927319
vt 0.811722 0.739060
vt 0.200884 0.754490
vt 0.200884 0.956119
vt 0.000000 0.956119
vt -0.000000 0.754490
vt 0.805773 0.753224
vt 0.805773 0.954854
vt 0.604889 0.954854
vt 0.604889 0.753224
vt 0.799833 0.373071
vt 0.799833 0.003541
vt 0.806519 0.000000
vt 0.806519 0.376612
vt 0.611574 0.003541
vt 0.611574 0.373071
vt 0.604889 0.376612
vt 0.604889 0.000000
vt 0.997389 0.370151
vt 0.997389 -0.000000
vt 1.000000 -0.000000
vt 1.000000 0.370151
vt 0.816925 0.739060
vt 0.816925 0.927319
vt 0.814323 0.927319
vt 0.814323 0.739060
vt 1.000000 0.370151
vt 1.000000 0.740301
vt 0.997389 0.740301
vt 0.997389 0.370151
vt 0.864608 0.852154
vt 0.864608 0.965248
vt 0.857839 0.965248
vt 0.857839 0.852154
vt 0.878146 0.852154
vt 0.878146 0.965248
vt 0.871377 0.965248
vt 0.871377 0.852154
vt 0.884915 0.852154
vt 0.884915 0.965248
vt 0.878146 0.965248
vt 0.878146 0.852154
vt 0.901191 0.906396
vt 0.891683 0.906396
vt 0.891683 0.888315
vt 0.901191 0.888315
vt 0.814088 0.927319
vt 0.814088 0.936811
vt 0.811828 0.936811
vt 0.811828 0.927319
vt 0.901191 0.852154
vt 0.910698 0.852154
vt 0.910698 0.870235
vt 0.901191 0.870235
vt 0.915468 0.935611
vt 0.915468 0.945102
vt 0.913207 0.945102
vt 0.913207 0.935611
vt 0.921999 0.852154
vt 0.924259 0.852154
vt 0.924259 0.870168
vt 0.921999 0.870168
vt 0.912959 0.852154
vt 0.915219 0.852154
vt 0.915219 0.870168
vt 0.912959 0.870168
vt 0.920198 0.888315
vt 0.910695 0.888315
vt 0.910695 0.870235
vt 0.920198 0.870235
vt 0.948336 0.922673
vt 0.948336 0.932160
vt 0.946076 0.932160
vt 0.946076 0.922673
vt 0.910695 0.888315
vt 0.920198 0.888315
vt 0.920198 0.906396
vt 0.910695 0.906396
vt 0.950024 0.906396
vt 0.950024 0.915884
vt 0.947764 0.915884
vt 0.947764 0.906396
vt 0.915219 0.852154
vt 0.917479 0.852154
vt 0.917479 0.870168
vt 0.915219 0.870168
vt 0.917479 0.852154
vt 0.919739 0.852154
vt 0.919739 0.870168
vt 0.917479 0.870168
vt 0.948970 0.945926
vt 0.948970 0.935107
vt 0.952161 0.935017
vt 0.952161 0.945836
vt 0.936993 0.945877
vt 0.936993 0.935017
vt 0.939708 0.935017
vt 0.939708 0.945877
vt 0.943064 0.935017
vt 0.943064 0.945877
vt 0.945778 0.935017
vt 0.945778 0.945877
vt 0.941661 0.881143
vt 0.941661 0.870324
vt 0.944853 0.870235
vt 0.944853 0.881054
vt 0.948044 0.870324
vt 0.948044 0.881143
vt 0.937290 0.933532
vt 0.937290 0.922673
vt 0.940005 0.922673
vt 0.940005 0.933532
vt 0.943361 0.922673
vt 0.943361 0.933532
vt 0.921443 0.935262
vt 0.924633 0.936303
vt 0.926604 0.939018
vt 0.926604 0.942370
vt 0.924633 0.945079
vt 0.921443 0.946109
vt 0.918253 0.945068
vt 0.916282 0.942353
vt 0.916282 0.939002
vt 0.918253 0.936293
vt 0.946076 0.922673
vt 0.946076 0.933532
vt 0.945779 0.945836
vt 0.945779 0.935017
vt 0.907175 0.935611
vt 0.910366 0.936646
vt 0.912339 0.939356
vt 0.912339 0.942706
vt 0.910366 0.945417
vt 0.907175 0.946452
vt 0.903983 0.945417
vt 0.902011 0.942706
vt 0.902011 0.939356
vt 0.903983 0.936646
vt 0.944853 0.897419
vt 0.944853 0.886600
vt 0.948044 0.886511
vt 0.948044 0.897330
vt 0.938254 0.863013
vt 0.938254 0.852154
vt 0.940969 0.852154
vt 0.940969 0.863013
vt 0.944325 0.852154
vt 0.944325 0.863013
vt 0.947040 0.852154
vt 0.947040 0.863013
vt 0.806519 0.950572
vt 0.806519 0.939753
vt 0.809710 0.939664
vt 0.809710 0.950482
vt 0.812901 0.939753
vt 0.812901 0.950572
vt 0.938979 0.917255
vt 0.938979 0.906396
vt 0.941693 0.906396
vt 0.941693 0.917255
vt 0.945049 0.906396
vt 0.945049 0.917255
vt 0.931832 0.935018
vt 0.935022 0.936058
vt 0.936993 0.938773
vt 0.936993 0.942125
vt 0.935022 0.944834
vt 0.931832 0.945865
vt 0.928643 0.944824
vt 0.926672 0.942109
vt 0.926672 0.938757
vt 0.928643 0.936048
vt 0.947764 0.906396
vt 0.947764 0.917255
vt 0.941661 0.897330
vt 0.941661 0.886511
vt 0.896847 0.935611
vt 0.900039 0.936646
vt 0.902011 0.939356
vt 0.902011 0.942706
vt 0.900039 0.945417
vt 0.896847 0.946452
vt 0.893656 0.945417
vt 0.891683 0.942706
vt 0.891683 0.939356
vt 0.893656 0.936646
vt 0.957195 0.039697
vt 0.957195 0.046643
vt 0.844101 0.046643
vt 0.844101 0.039697
vt 0.957195 0.032351
vt 0.994778 0.000000
vt 0.994778 0.369530
vt 0.806519 0.369530
vt 0.806519 0.000000
vt 0.844101 0.032351
vt 0.844101 0.053989
vt 0.844101 0.062126
vt 0.844101 0.069472
vt 0.957195 0.069472
vt 0.957195 0.062126
vt 0.957195 0.053989
vt 0.929456 0.902787
vt 0.922458 0.902787
vt 0.922458 0.888786
vt 0.929456 0.886511
vt 0.931257 0.868430
vt 0.924259 0.868430
vt 0.924259 0.852154
vt 0.931257 0.854429
vt 0.864487 0.739060
vt 0.880341 0.739060
vt 0.880341 0.852154
vt 0.864487 0.852154
vt 0.912049 0.739060
vt 0.925687 0.739060
vt 0.925687 0.852154
vt 0.912049 0.852154
vt 0.936454 0.886511
vt 0.929456 0.886511
vt 0.929456 0.872510
vt 0.936454 0.870235
vt 0.936454 0.902787
vt 0.929456 0.902787
vt 0.929456 0.886511
vt 0.936454 0.888786
vt 0.848633 0.739060
vt 0.864487 0.739060
vt 0.864487 0.852154
vt 0.848633 0.852154
vt 0.939325 0.739060
vt 0.952963 0.739060
vt 0.952963 0.852154
vt 0.939325 0.852154
vt 0.938254 0.868430
vt 0.931257 0.868430
vt 0.931257 0.854429
vt 0.938254 0.852154
vt 0.933669 0.922672
vt 0.926672 0.922672
vt 0.926672 0.906396
vt 0.933669 0.908671
vt 0.880341 0.739060
vt 0.896195 0.739060
vt 0.896195 0.852154
vt 0.880341 0.852154
vt 0.816925 0.852154
vt 0.830563 0.852154
vt 0.830563 0.965248
vt 0.816925 0.965248
vt 0.903983 0.935611
vt 0.903983 0.923211
vt 0.906598 0.935153
vt 0.942089 0.922463
vt 0.938979 0.920377
vt 0.938979 0.919341
vt 0.942089 0.917255
vt 0.900448 0.935153
vt 0.897833 0.923210
vt 0.900908 0.922673
vt 0.931981 0.935017
vt 0.934118 0.922673
vt 0.934636 0.934864
vt 0.910132 0.935611
vt 0.907518 0.935153
vt 0.910132 0.923210
vt 0.935154 0.922673
vt 0.907058 0.922673
vt 0.940201 0.886299
vt 0.936454 0.886313
vt 0.936454 0.882566
vt 0.940201 0.882552
vt 0.937290 0.935017
vt 0.921377 0.935262
vt 0.916282 0.923750
vt 0.921377 0.922673
vt 0.897833 0.935611
vt 0.939564 0.904036
vt 0.936454 0.901950
vt 0.936454 0.900914
vt 0.939564 0.898828
vt 0.894298 0.935153
vt 0.891683 0.923211
vt 0.894758 0.922673
vt 0.933669 0.918741
vt 0.935806 0.906396
vt 0.936324 0.918587
vt 0.903983 0.935611
vt 0.901368 0.935153
vt 0.903983 0.923211
vt 0.936842 0.906396
vt 0.900908 0.922673
vt 0.943949 0.886299
vt 0.940201 0.886313
vt 0.940201 0.882566
vt 0.943949 0.882552
vt 0.938979 0.918741
vt 0.926472 0.935262
vt 0.921377 0.923750
vt 0.926472 0.922673
vt 0.957195 0.409226
vt 0.957195 0.416173
vt 0.844101 0.416173
vt 0.844101 0.409226
vt 0.957195 0.401881
vt 0.994778 0.369530
vt 0.994778 0.739060
vt 0.806519 0.739060
vt 0.806519 0.369530
vt 0.844101 0.401881
vt 0.844101 0.423518
vt 0.844101 0.431656
vt 0.844101 0.439001
vt 0.957195 0.439001
vt 0.957195 0.431656
vt 0.957195 0.423518
vt 0.912676 0.922673
vt 0.905679 0.922673
vt 0.905679 0.908671
vt 0.912676 0.906396
vt 0.919674 0.922672
vt 0.912676 0.922672
vt 0.912676 0.906396
vt 0.919674 0.908671
vt 0.896195 0.739060
vt 0.912049 0.739060
vt 0.912049 0.852154
vt 0.896195 0.852154
vt 0.830563 0.852154
vt 0.844201 0.852154
vt 0.844201 0.965248
vt 0.830563 0.965248
vt 0.926672 0.922673
vt 0.919674 0.922673
vt 0.919674 0.908671
vt 0.926672 0.906396
vt 0.929456 0.886511
vt 0.922459 0.886511
vt 0.922459 0.870235
vt 0.929456 0.872510
vt 0.832779 0.739060
vt 0.848633 0.739060
vt 0.848633 0.852154
vt 0.832779 0.852154
vt 0.925687 0.739060
vt 0.939325 0.739060
vt 0.939325 0.852154
vt 0.925687 0.852154
vt 0.905679 0.922672
vt 0.898681 0.922672
vt 0.898681 0.908671
vt 0.905679 0.906396
vt 0.898681 0.922673
vt 0.891683 0.922673
vt 0.891683 0.906396
vt 0.898681 0.908671
vt 0.816925 0.739060
vt 0.832779 0.739060
vt 0.832779 0.852154
vt 0.816925 0.852154
vt 0.844201 0.852154
vt 0.857839 0.852154
vt 0.857839 0.965248
vt 0.844201 0.965248
vt 0.891683 0.935611
vt 0.941364 0.868220
vt 0.938254 0.866135
vt 0.938254 0.865099
vt 0.941364 0.863013
vt 0.912747 0.935153
vt 0.910132 0.923210
vt 0.913207 0.922672
vt 0.926672 0.935017
vt 0.928808 0.922673
vt 0.929326 0.934864
vt 0.897833 0.935611
vt 0.895218 0.935153
vt 0.897833 0.923210
vt 0.929844 0.922673
vt 0.894758 0.922673
vt 0.933669 0.922488
vt 0.933669 0.918741
vt 0.937416 0.918755
vt 0.937416 0.922502
vt 0.931981 0.935017
vt 0.939057 0.882552
vt 0.936454 0.870235
vt 0.941661 0.870235
vt 0.910132 0.935610
vt 0.942674 0.904036
vt 0.939564 0.901950
vt 0.939564 0.900914
vt 0.942674 0.898828
vt 0.806519 0.939664
vt 0.808655 0.927319
vt 0.809173 0.939510
vt 0.916282 0.935610
vt 0.913667 0.935153
vt 0.916282 0.923210
vt 0.809691 0.927319
vt 0.913207 0.922673
vt 0.945112 0.866760
vt 0.941364 0.866774
vt 0.941364 0.863027
vt 0.945112 0.863013
vt 0.811828 0.939664
vt 0.939058 0.898829
vt 0.936454 0.886511
vt 0.941661 0.886511
vt 0.907058 0.922673
vn -1.0000 0.0000 0.0000
vn 0.0000 0.0000 -1.0000
vn 1.0000 0.0000 0.0000
vn 0.0000 0.0000 1.0000
vn 0.0000 -1.0000 0.0000
vn 0.0000 1.0000 -0.0000
vn 0.0000 -0.3092 0.9510
vn 0.3090 0.9511 0.0000
vn 0.8090 0.5878 0.0000
vn 0.8090 -0.5878 0.0000
vn 0.3090 -0.9511 -0.0000
vn -0.3090 -0.9511 -0.0000
vn -0.8090 -0.5878 0.0000
vn -0.8090 0.5878 0.0000
vn -0.3090 0.9511 0.0000
vn 0.0000 0.9510 0.3092
vn 0.0000 -0.9510 -0.3092
vn 0.7068 -0.0270 -0.7068
vn 0.8312 0.0270 0.5554
vn 0.7069 -0.0270 0.7068
vn -0.7068 -0.0270 -0.7069
vn 0.0000 0.0042 1.0000
vn -0.8312 0.0270 0.5554
vn -0.7068 -0.0270 0.7068
vn 0.0000 0.1723 -0.9850
vn 0.7069 -0.0270 -0.7068
vn -0.7068 -0.0270 -0.7068
usemtl Metal
s off
f 1/1/1 2/2/1 4/3/1 3/4/1
f 3/5/2 4/6/2 8/7/2 7/8/2
f 7/9/3 8/10/3 6/11/3 5/12/3
f 5/13/4 6/14/4 2/15/4 1/16/4
f 3/17/5 7/18/5 5/19/5 1/20/5
f 8/21/6 4/22/6 2/23/6 6/24/6
f 9/25/1 10/26/1 12/27/1 11/28/1
f 11/29/2 12/30/2 16/31/2 15/32/2
f 15/33/3 16/34/3 14/35/3 13/36/3
f 13/37/4 14/38/4 10/39/4 9/40/4
f 11/41/5 15/42/5 13/43/5 9/44/5
f 16/45/6 12/46/6 10/47/6 14/48/6
f 29/49/1 30/50/1 21/51/1 19/52/1
f 19/53/2 21/54/2 27/55/2 25/56/2
f 25/57/3 27/58/3 31/59/3 33/60/3
f 17/61/5 23/62/5 39/63/5 35/64/5
f 19/65/5 25/66/5 33/67/5 29/68/5
f 27/69/6 21/70/6 30/71/6 31/72/6
f 17/73/4 18/74/4 30/75/4 29/76/4
f 24/77/4 23/78/4 33/79/4 31/80/4
f 23/78/4 17/73/4 29/76/4 33/79/4
f 18/74/4 24/77/4 31/80/4 30/75/4
f 18/81/1 17/82/1 35/83/1 36/84/1
f 24/85/6 18/86/6 36/87/6 37/88/6
f 23/89/3 24/90/3 37/91/3 39/92/3
f 20/93/7 26/94/7 28/95/7 22/96/7
f 32/97/7 38/98/7 40/99/7 34/100/7
f 41/101/7 43/102/7 44/103/7 42/104/7
f 85/105/1 86/106/1 77/107/1 75/108/1
f 75/109/2 77/110/2 83/111/2 81/112/2
f 81/113/3 83/114/3 87/115/3 89/116/3
f 73/117/5 79/118/5 95/119/5 91/120/5
f 75/121/5 81/122/5 89/123/5 85/124/5
f 83/125/6 77/126/6 86/127/6 87/128/6
f 73/129/4 74/130/4 86/131/4 85/132/4
f 80/133/4 79/134/4 89/135/4 87/136/4
f 79/134/4 73/129/4 85/132/4 89/135/4
f 74/130/4 80/133/4 87/136/4 86/131/4
f 74/137/1 73/138/1 91/139/1 92/140/1
f 80/141/6 74/142/6 92/143/6 93/144/6
f 79/145/3 80/146/3 93/147/3 95/148/3
f 76/149/7 82/150/7 84/151/7 78/152/7
f 88/153/7 94/154/7 96/155/7 90/156/7
f 97/157/7 99/158/7 100/159/7 98/160/7
f 129/161/1 130/162/1 132/163/1 131/164/1
f 131/165/2 132/166/2 136/167/2 135/168/2
f 135/169/3 136/170/3 134/171/3 133/172/3
f 133/173/4 134/174/4 130/175/4 129/176/4
f 131/177/5 135/178/5 133/179/5 129/180/5
f 136/181/6 132/182/6 130/183/6 134/184/6
f 137/185/1 138/186/1 140/187/1 139/188/1
f 139/189/2 140/190/2 144/191/2 143/192/2
f 143/193/3 144/194/3 142/195/3 141/196/3
f 141/197/4 142/198/4 138/199/4 137/200/4
f 139/201/5 143/202/5 141/203/5 137/204/5
f 144/205/6 140/206/6 138/207/6 142/208/6
f 145/209/8 146/210/8 148/211/8 147/212/8
f 147/213/9 148/214/9 150/215/9 149/216/9
f 149/216/3 150/215/3 152/217/3 151/218/3
f 151/218/10 152/217/10 154/219/10 153/220/10
f 153/221/11 154/222/11 156/223/11 155/224/11
f 155/224/12 156/223/12 158/225/12 157/226/12
f 157/227/13 158/228/13 160/229/13 159/230/13
f 159/230/1 160/229/1 162/231/1 161/232/1
f 148/233/4 146/234/4 164/235/4 162/236/4 160/237/4 158/238/4 156/239/4 154/240/4 152/241/4 150/242/4
f 161/232/14 162/231/14 164/243/14 163/244/14
f 163/245/15 164/246/15 146/210/15 145/209/15
f 145/247/2 147/248/2 149/249/2 151/250/2 153/251/2 155/252/2 157/253/2 159/254/2 161/255/2 163/256/2
f 165/257/8 166/258/8 168/259/8 167/260/8
f 167/261/9 168/262/9 170/263/9 169/264/9
f 169/264/3 170/263/3 172/265/3 171/266/3
f 171/266/10 172/265/10 174/267/10 173/268/10
f 173/269/11 174/270/11 176/271/11 175/272/11
f 175/272/12 176/271/12 178/273/12 177/274/12
f 177/275/13 178/276/13 180/277/13 179/278/13
f 179/278/1 180/277/1 182/279/1 181/280/1
f 168/281/4 166/282/4 184/283/4 182/284/4 180/285/4 178/286/4 176/287/4 174/288/4 172/289/4 170/290/4
f 181/280/14 182/279/14 184/291/14 183/292/14
f 183/293/15 184/294/15 166/258/15 165/257/15
f 165/295/2 167/296/2 169/297/2 171/298/2 173/299/2 175/300/2 177/301/2 179/302/2 181/303/2 183/304/2
usemtl red
f 49/305/4 48/306/4 55/307/4 56/308/4
f 50/309/4 36/310/4 35/311/4 39/312/4 37/313/4 54/314/4 56/308/4 55/307/4 53/315/4 52/316/4 51/317/4 45/318/4 46/319/4 47/320/4 48/306/4 49/305/4
f 54/314/4 37/313/4 36/310/4 50/309/4
f 52/316/4 53/315/4 47/320/4 46/319/4
f 20/321/3 22/322/3 50/323/3 49/324/3
f 28/325/1 26/326/1 56/327/1 54/328/1
f 56/329/16 26/330/16 20/331/16 49/332/16
f 50/333/17 22/334/17 28/335/17 54/336/17
f 32/337/3 34/338/3 48/339/3 47/340/3
f 40/341/1 38/342/1 53/343/1 55/344/1
f 53/345/16 38/346/16 32/347/16 47/348/16
f 48/349/17 34/350/17 40/351/17 55/352/17
f 41/353/3 42/354/3 46/355/3 45/356/3
f 44/357/1 43/358/1 51/359/1 52/360/1
f 51/361/16 43/362/16 41/363/16 45/364/16
f 46/365/17 42/366/17 44/367/17 52/368/17
f 57/369/18 58/370/18 59/371/18
f 64/372/6 62/373/6 60/374/6 58/375/6
f 67/376/19 66/377/19 68/378/19
f 59/379/20 60/380/20 61/381/20
f 57/382/21 63/383/21 64/384/21
f 60/380/22 62/385/22 61/381/22
f 63/383/23 62/386/23 64/384/23
f 57/387/5 59/388/5 61/389/5 63/390/5
f 63/391/24 61/381/24 62/385/24
f 57/392/25 64/393/25 58/394/25
f 65/395/26 66/377/26 67/376/26
f 72/396/6 70/397/6 68/398/6 66/399/6
f 115/400/19 114/401/19 116/402/19
f 67/403/20 68/404/20 69/405/20
f 65/406/27 71/407/27 72/408/27
f 68/404/22 70/409/22 69/405/22
f 71/407/23 70/410/23 72/408/23
f 65/411/5 67/412/5 69/413/5 71/414/5
f 71/415/24 69/405/24 70/409/24
f 65/416/25 72/417/25 66/418/25
f 105/419/4 104/420/4 111/421/4 112/422/4
f 106/423/4 92/424/4 91/425/4 95/426/4 93/427/4 110/428/4 112/422/4 111/421/4 109/429/4 108/430/4 107/431/4 101/432/4 102/433/4 103/434/4 104/420/4 105/419/4
f 110/428/4 93/427/4 92/424/4 106/423/4
f 108/430/4 109/429/4 103/434/4 102/433/4
f 76/435/3 78/436/3 106/437/3 105/438/3
f 84/439/1 82/440/1 112/441/1 110/442/1
f 112/443/16 82/444/16 76/445/16 105/446/16
f 106/447/17 78/448/17 84/449/17 110/450/17
f 88/451/3 90/452/3 104/453/3 103/454/3
f 96/455/1 94/456/1 109/457/1 111/458/1
f 109/459/16 94/460/16 88/461/16 103/462/16
f 104/463/17 90/464/17 96/465/17 111/466/17
f 97/467/3 98/468/3 102/469/3 101/470/3
f 100/471/1 99/472/1 107/473/1 108/474/1
f 107/475/16 99/476/16 97/477/16 101/478/16
f 102/479/17 98/480/17 100/481/17 108/482/17
f 113/483/26 114/401/26 115/400/26
f 120/484/6 118/485/6 116/486/6 114/487/6
f 123/488/19 122/489/19 124/490/19
f 115/491/20 116/492/20 117/493/20
f 113/494/27 119/495/27 120/496/27
f 116/492/22 118/497/22 117/493/22
f 119/495/23 118/498/23 120/496/23
f 113/499/5 115/500/5 117/501/5 119/502/5
f 119/503/24 117/493/24 118/497/24
f 113/504/25 120/505/25 114/506/25
f 121/507/18 122/489/18 123/488/18
f 128/508/6 126/509/6 124/510/6 122/511/6
f 123/512/20 124/513/20 125/514/20
f 121/515/21 127/516/21 128/517/21
f 124/513/22 126/518/22 125/514/22
f 127/516/23 126/519/23 128/517/23
f 121/520/5 123/521/5 125/522/5 127/523/5
f 127/524/24 125/514/24 126/518/24
f 121/525/25 128/526/25 122/527/25
f 59/371/19 58/370/19 60/528/19
