# Blender v3.0.0 OBJ File: ''
# www.blender.org
mtllib portenom.mtl
o Cube_Cube.001
v -0.514247 -1.515026 0.110626
v -0.514247 -1.482645 0.083243
v 0.514247 -1.482645 0.083243
v 0.514247 -1.515026 0.110626
v -0.514247 -1.515026 -0.105278
v -0.514247 -1.284332 -0.047549
v 0.514247 -1.284332 -0.047549
v 0.514247 -1.515026 -0.105278
v 0.514247 -1.249021 -0.031283
v -0.514247 -1.249021 -0.031283
v -0.514247 -1.211375 -0.009288
v 0.514247 -1.211375 -0.009288
v -0.514247 -1.366722 0.005335
v -0.514247 -1.366865 0.004562
v 0.514247 -1.366865 0.004562
v 0.514247 -1.366722 0.005335
v -0.514247 -1.360529 -0.006783
v -0.514247 -1.366722 0.000013
v -0.514247 -1.366865 0.000786
v -0.514247 -1.210233 -0.001780
v -0.514247 -1.209442 -0.003546
v 0.514247 -1.366722 0.000013
v 0.514247 -1.360529 -0.006783
v 0.514247 -1.209442 -0.003546
v 0.514247 -1.210233 -0.001780
v 0.514247 -1.366865 0.000786
v 0.514247 -1.385549 -0.037600
v 0.514247 -1.482645 -0.077895
v -0.514247 -1.482645 -0.077895
v -0.514247 -1.385549 -0.037600
v 0.514247 -1.207343 0.004235
v -0.514247 -1.207343 0.004235
v -0.514247 -1.208045 0.005590
v 0.514247 -1.208045 0.005590
v -0.514247 -1.366865 0.002674
v -0.514247 -1.207911 0.002674
v -0.514247 -1.207343 0.001113
v -0.514247 -1.208045 -0.000242
v 0.514247 -1.208045 -0.000242
v 0.514247 -1.207343 0.001113
v 0.514247 -1.207911 0.002674
v 0.514247 -1.366865 0.002674
v -0.514247 -1.370191 -0.008867
v -0.514247 -1.388143 -0.017132
v 0.514247 -1.284332 0.052897
v -0.514247 -1.284332 0.052897
v 0.514247 -1.249021 0.036631
v 0.514247 -1.211375 0.014636
v -0.514247 -1.211375 0.014636
v -0.514247 -1.249021 0.036631
v -0.514247 -1.388143 0.022480
v -0.514247 -1.370191 0.014215
v 0.514247 -1.370191 0.014215
v 0.514247 -1.388143 0.022480
v 0.514247 -1.385549 0.042948
v -0.514247 -1.209442 0.008894
v -0.514247 -1.210233 0.007128
v -0.514247 -1.360529 0.012131
v -0.514247 -1.385549 0.042948
v 0.514247 -1.209442 0.008894
v 0.514247 -1.360529 0.012131
v 0.514247 -1.210233 0.007128
v 0.514247 -1.388143 -0.017132
v 0.514247 -1.370191 -0.008867
v -0.514247 -1.208529 -0.001256
v -0.514247 -1.209040 -0.002465
v 0.514247 -1.209040 -0.002465
v 0.514247 -1.208529 -0.001256
v -0.514247 -1.209040 0.007813
v -0.514247 -1.208529 0.006603
v 0.514247 -1.208529 0.006603
v 0.514247 -1.209040 0.007813
v 0.514247 -1.207046 0.002103
v 0.514247 -1.207046 0.003245
v -0.514247 -1.207046 0.003245
v -0.514247 -1.207046 0.002103
v 0.514247 -1.405697 -0.026059
v 0.514247 -1.425918 -0.037819
v 0.514247 -1.446824 -0.051261
v 0.514247 -1.466372 -0.065071
v -0.514247 -1.466372 -0.065071
v -0.514247 -1.446824 -0.051261
v -0.514247 -1.425918 -0.037819
v -0.514247 -1.405697 -0.026059
v 0.514247 -1.466372 0.070419
v 0.514247 -1.446824 0.056609
v 0.514247 -1.425918 0.043167
v 0.514247 -1.405697 0.031407
v -0.514247 -1.405697 0.031407
v -0.514247 -1.425918 0.043167
v -0.514247 -1.446824 0.056609
v -0.514247 -1.466372 0.070419
v -0.514247 -1.368797 -0.007869
v -0.514247 -1.367661 -0.006311
v -0.514247 -1.366894 -0.004347
v -0.514247 -1.366570 -0.002168
v 0.514247 -1.366570 -0.002168
v 0.514247 -1.366894 -0.004347
v 0.514247 -1.367661 -0.006311
v 0.514247 -1.368797 -0.007869
v -0.514247 -1.366570 0.007516
v -0.514247 -1.366894 0.009695
v -0.514247 -1.367661 0.011659
v -0.514247 -1.368797 0.013217
v 0.514247 -1.368797 0.013217
v 0.514247 -1.367661 0.011659
v 0.514247 -1.366894 0.009695
v 0.514247 -1.366570 0.007516
vt 0.967861 0.668943
vt 0.932514 0.668943
vt 0.932514 0.000000
vt 0.967861 0.000000
vt 0.323639 0.668943
vt 0.077422 0.668943
vt 0.077422 0.000000
vt 0.323639 0.000000
vt 0.039900 0.000000
vt 0.039900 0.668943
vt 0.000000 0.668943
vt 0.000000 0.000000
vt 0.991065 0.000000
vt 0.991659 0.000000
vt 0.991659 0.668943
vt 0.991065 0.668943
vt 0.257617 0.673589
vt 0.255695 0.833673
vt 0.250482 0.840320
vt 0.249888 0.840473
vt 0.251856 0.672363
vt 0.253212 0.671514
vt 0.080772 0.840320
vt 0.075558 0.833673
vt 0.073637 0.673589
vt 0.078041 0.671514
vt 0.079397 0.672363
vt 0.081365 0.840473
vt 0.000000 0.999491
vt 0.044286 0.751892
vt 0.056764 0.713994
vt 0.051918 0.860526
vt 0.021006 0.964738
vt 0.310247 0.964738
vt 0.279335 0.860526
vt 0.274489 0.713994
vt 0.286967 0.751892
vt 0.331253 0.999491
vt 0.975840 0.000000
vt 0.975840 0.668943
vt 0.974801 0.668943
vt 0.974801 0.000000
vt 0.248440 0.840473
vt 0.248440 0.669871
vt 0.249637 0.669261
vt 0.250677 0.670015
vt 0.080577 0.670015
vt 0.081616 0.669261
vt 0.082813 0.669871
vt 0.082813 0.840473
vt 0.257294 0.844043
vt 0.263634 0.863310
vt 0.647278 0.000000
vt 0.647278 0.668943
vt 0.401060 0.668943
vt 0.401060 0.000000
vt 0.363539 0.668943
vt 0.323639 0.668943
vt 0.323639 0.000000
vt 0.363539 0.000000
vt 0.829783 0.668943
vt 0.810340 0.668943
vt 0.810340 0.000000
vt 0.829783 0.000000
vt 0.165627 0.999491
vt 0.144621 0.964738
vt 0.113708 0.860526
vt 0.108863 0.713994
vt 0.121341 0.751892
vt 0.239263 0.673589
vt 0.243668 0.671514
vt 0.245023 0.672363
vt 0.246992 0.840473
vt 0.246398 0.840320
vt 0.241185 0.833673
vt 0.217545 0.860526
vt 0.186633 0.964738
vt 0.165627 0.999491
vt 0.209913 0.751892
vt 0.222391 0.713994
vt 0.246203 0.670015
vt 0.247243 0.669261
vt 0.967861 0.000000
vt 0.972265 0.000000
vt 0.972265 0.668943
vt 0.967860 0.668943
vt 0.239586 0.844043
vt 0.233246 0.863310
vt 0.090068 0.833673
vt 0.084855 0.840320
vt 0.084262 0.840473
vt 0.086230 0.672363
vt 0.087585 0.671514
vt 0.091990 0.673589
vt 0.098007 0.863310
vt 0.091667 0.844043
vt 0.993107 0.000000
vt 0.993107 0.668943
vt 0.084010 0.669261
vt 0.085050 0.670015
vt 0.669491 0.000000
vt 0.669491 0.668943
vt 0.650049 0.668943
vt 0.650049 0.000000
vt 0.994555 0.000000
vt 0.994555 0.668943
vt 0.067619 0.863310
vt 0.073960 0.844043
vt 0.986214 0.000000
vt 0.986214 0.668943
vt 0.981809 0.668943
vt 0.981809 0.000000
vt 0.251454 0.670534
vt 0.252382 0.671083
vt 0.078871 0.671083
vt 0.079799 0.670534
vt 0.244498 0.671083
vt 0.245425 0.670534
vt 0.085828 0.670534
vt 0.086756 0.671083
vt 0.082375 0.668943
vt 0.083251 0.668943
vt 0.248002 0.668943
vt 0.248878 0.668943
vt 0.979274 0.668943
vt 0.979274 0.000000
vt 0.980052 0.000000
vt 0.980052 0.668943
vt 0.980980 0.000000
vt 0.980980 0.668943
vt 0.973095 0.000000
vt 0.973095 0.668943
vt 0.974023 0.000000
vt 0.974023 0.668943
vt 0.976599 0.000000
vt 0.976599 0.668943
vt 0.977475 0.000000
vt 0.977475 0.668943
vt 0.978234 0.000000
vt 0.978234 0.668943
vt 0.060772 0.882151
vt 0.051750 0.903853
vt 0.041438 0.926292
vt 0.030844 0.947271
vt 0.300409 0.947271
vt 0.289815 0.926292
vt 0.279503 0.903853
vt 0.270482 0.882151
vt 0.134782 0.947271
vt 0.124189 0.926292
vt 0.113876 0.903853
vt 0.104855 0.882151
vt 0.226398 0.882151
vt 0.217377 0.903853
vt 0.207064 0.926292
vt 0.196471 0.947271
vt 0.688522 0.000000
vt 0.688522 0.668943
vt 0.710475 0.000000
vt 0.710475 0.668943
vt 0.733203 0.000000
vt 0.733203 0.668943
vt 0.754480 0.000000
vt 0.754480 0.668943
vt 0.772223 0.000000
vt 0.772223 0.668943
vt 0.914771 0.668943
vt 0.914771 0.000000
vt 0.893494 0.668943
vt 0.893494 0.000000
vt 0.870767 0.668943
vt 0.870767 0.000000
vt 0.848813 0.668943
vt 0.848813 0.000000
vt 0.807569 0.000000
vt 0.807569 0.668943
vt 0.256528 0.842547
vt 0.255333 0.841327
vt 0.253826 0.840504
vt 0.252154 0.840157
vt 0.079099 0.840157
vt 0.077427 0.840504
vt 0.075920 0.841327
vt 0.074725 0.842547
vt 0.244726 0.840157
vt 0.243054 0.840504
vt 0.241547 0.841327
vt 0.240352 0.842547
vt 0.090901 0.842547
vt 0.089706 0.841327
vt 0.088199 0.840504
vt 0.086528 0.840157
vt 0.995149 0.668943
vt 0.995149 0.000000
vt 0.996821 0.000000
vt 0.996821 0.668943
vt 0.998493 0.000000
vt 0.998493 0.668943
vt 1.000000 0.000000
vt 1.000000 0.668943
vt 0.647278 0.668943
vt 0.647278 0.000000
vt 0.648531 0.000000
vt 0.648531 0.668943
vt 0.808823 0.668943
vt 0.808823 0.000000
vt 0.807569 0.668943
vt 0.807569 0.000000
vt 0.986214 0.668943
vt 0.986214 0.000000
vt 0.987721 0.000000
vt 0.987721 0.668943
vt 0.989393 0.000000
vt 0.989393 0.668943
vn 0.0000 -0.6457 -0.7636
vn 0.0000 0.2428 -0.9701
vn 0.0000 0.5045 -0.8634
vn 0.0000 -0.9834 0.1814
vn -1.0000 -0.0000 0.0000
vn 1.0000 -0.0000 0.0000
vn 0.0000 0.4184 -0.9083
vn 0.0000 0.8877 0.4604
vn 0.0000 0.2428 0.9701
vn 0.0000 0.5045 0.8634
vn 0.0000 -0.4182 -0.9084
vn 0.0000 0.4184 0.9083
vn 0.0000 0.9477 0.3191
vn 0.0000 -1.0000 0.0000
vn 0.0000 -0.4182 0.9084
vn 0.0000 0.9477 -0.3191
vn 1.0000 -0.0001 0.0000
vn -1.0000 -0.0001 0.0000
vn 0.0000 0.9027 -0.4303
vn 0.0000 0.9211 -0.3893
vn 0.0000 0.9373 -0.3486
vn 0.0000 0.9373 0.3485
vn 0.0000 0.9211 0.3893
vn 0.0000 0.9027 0.4303
vn 0.0000 0.9580 0.2869
vn 0.0000 1.0000 0.0000
vn 0.0000 0.9580 -0.2868
vn 0.0000 0.8877 -0.4605
vn 0.0000 -0.4533 0.8914
vn 0.0000 -0.5028 0.8644
vn 0.0000 -0.5408 0.8411
vn 0.0000 -0.5770 0.8167
vn 0.0000 -0.6190 0.7854
vn 0.0000 -0.6189 -0.7854
vn 0.0000 -0.5770 -0.8167
vn 0.0000 -0.5408 -0.8411
vn 0.0000 -0.5028 -0.8644
vn 0.0000 -0.4533 -0.8914
vn 0.0000 -0.6457 0.7636
vn 0.0000 -0.9976 -0.0697
vn 0.0000 -0.9892 0.1468
vn 0.0000 -0.9315 0.3638
vn 0.0000 -0.8078 0.5894
vn 0.0000 -0.5823 0.8130
vn 0.0000 -0.5823 -0.8130
vn 0.0000 -0.8078 -0.5894
vn 0.0000 -0.9315 -0.3638
vn 0.0000 -0.9892 -0.1468
vn 0.0000 -0.9976 0.0697
vn 0.0000 -0.9834 -0.1814
usemtl Material.001
s 1
f 1/1/1 2/2/1 3/3/1 4/4/1
f 5/5/2 6/6/2 7/7/2 8/8/2
f 9/9/3 10/10/3 11/11/3 12/12/3
f 13/13/4 14/14/4 15/15/4 16/16/4
f 11/17/5 17/18/5 18/19/5 19/20/5 20/21/5 21/22/5
f 22/23/6 23/24/6 12/25/6 24/26/6 25/27/6 26/28/6
f 8/29/6 7/30/6 9/31/6 27/32/6 28/33/6
f 7/7/7 6/6/7 10/10/7 9/9/7
f 29/34/5 30/35/5 10/36/5 6/37/5 5/38/5
f 31/39/8 32/40/8 33/41/8 34/42/8
f 19/20/5 35/43/5 36/44/5 37/45/5 38/46/5 20/21/5
f 26/28/6 25/27/6 39/47/6 40/48/6 41/49/6 42/50/6
f 43/51/5 17/18/5 11/17/5 10/36/5 30/35/5 44/52/5
f 1/53/9 4/54/9 45/55/9 46/56/9
f 47/57/10 48/58/10 49/59/10 50/60/10
f 51/61/11 52/62/11 53/63/11 54/64/11
f 4/65/6 3/66/6 55/67/6 47/68/6 45/69/6
f 49/70/5 56/71/5 57/72/5 14/73/5 13/74/5 58/75/5
f 45/55/12 47/57/12 50/60/12 46/56/12
f 59/76/5 2/77/5 1/78/5 46/79/5 50/80/5
f 35/43/5 14/73/5 57/72/5 33/81/5 32/82/5 36/44/5
f 48/83/13 60/84/13 56/85/13 49/86/13
f 58/75/5 52/87/5 51/88/5 59/76/5 50/80/5 49/70/5
f 61/89/6 16/90/6 15/91/6 62/92/6 60/93/6 48/94/6
f 55/67/6 54/95/6 53/96/6 61/89/6 48/94/6 47/68/6
f 35/97/14 42/98/14 15/15/14 14/14/14
f 42/50/6 41/49/6 31/99/6 34/100/6 62/92/6 15/91/6
f 44/101/15 63/102/15 64/103/15 43/104/15
f 19/105/14 26/106/14 42/98/14 35/97/14
f 63/107/6 27/32/6 9/31/6 12/25/6 23/24/6 64/108/6
f 12/109/16 11/110/16 21/111/16 24/112/16
f 38/46/5 65/113/5 20/21/5
f 65/113/5 66/114/5 20/21/5
f 66/114/5 21/22/5 20/21/5
f 24/26/6 67/115/6 25/27/6
f 67/115/6 68/116/6 25/27/6
f 68/116/6 39/47/6 25/27/6
f 56/71/5 69/117/5 57/72/5
f 69/117/5 70/118/5 57/72/5
f 70/118/5 33/81/5 57/72/5
f 34/100/6 71/119/6 62/92/6
f 71/119/6 72/120/6 62/92/6
f 72/120/6 60/93/6 62/92/6
f 40/48/6 73/121/17 41/49/6
f 73/121/17 74/122/6 41/49/6
f 74/122/6 31/99/6 41/49/6
f 32/82/5 75/123/5 36/44/5
f 75/123/5 76/124/18 36/44/5
f 76/124/18 37/45/5 36/44/5
f 38/125/19 39/126/19 68/127/19 65/128/19
f 65/128/20 68/127/20 67/129/20 66/130/20
f 66/130/21 67/129/21 24/112/21 21/111/21
f 56/85/22 60/84/22 72/131/22 69/132/22
f 69/132/23 72/131/23 71/133/23 70/134/23
f 70/134/24 71/133/24 34/42/24 33/41/24
f 32/40/25 31/39/25 74/135/25 75/136/25
f 75/136/26 74/135/26 73/137/26 76/138/26
f 76/138/27 73/137/27 40/139/27 37/140/27
f 39/126/28 38/125/28 37/140/28 40/139/28
f 63/107/6 77/141/6 27/32/6
f 77/141/6 78/142/6 27/32/6
f 78/142/6 79/143/6 27/32/6
f 79/143/6 80/144/6 27/32/6
f 80/144/6 28/33/6 27/32/6
f 29/34/5 81/145/5 30/35/5
f 81/145/5 82/146/5 30/35/5
f 82/146/5 83/147/5 30/35/5
f 83/147/5 84/148/5 30/35/5
f 84/148/5 44/52/5 30/35/5
f 3/66/6 85/149/6 55/67/6
f 85/149/6 86/150/6 55/67/6
f 86/150/6 87/151/6 55/67/6
f 87/151/6 88/152/6 55/67/6
f 88/152/6 54/95/6 55/67/6
f 51/88/5 89/153/5 59/76/5
f 89/153/5 90/154/5 59/76/5
f 90/154/5 91/155/5 59/76/5
f 91/155/5 92/156/5 59/76/5
f 92/156/5 2/77/5 59/76/5
f 63/102/29 44/101/29 84/157/29 77/158/29
f 77/158/30 84/157/30 83/159/30 78/160/30
f 78/160/31 83/159/31 82/161/31 79/162/31
f 79/162/32 82/161/32 81/163/32 80/164/32
f 80/164/33 81/163/33 29/165/33 28/166/33
f 3/3/34 2/2/34 92/167/34 85/168/34
f 85/168/35 92/167/35 91/169/35 86/170/35
f 86/170/36 91/169/36 90/171/36 87/172/36
f 87/172/37 90/171/37 89/173/37 88/174/37
f 88/174/38 89/173/38 51/61/38 54/64/38
f 5/175/39 8/176/39 28/166/39 29/165/39
f 43/51/5 93/177/5 17/18/5
f 93/177/5 94/178/5 17/18/5
f 94/178/5 95/179/5 17/18/5
f 95/179/5 96/180/5 17/18/5
f 96/180/5 18/19/5 17/18/5
f 22/23/6 97/181/6 23/24/6
f 97/181/6 98/182/6 23/24/6
f 98/182/6 99/183/6 23/24/6
f 99/183/6 100/184/6 23/24/6
f 100/184/6 64/108/6 23/24/6
f 13/74/5 101/185/5 58/75/5
f 101/185/5 102/186/5 58/75/5
f 102/186/5 103/187/5 58/75/5
f 103/187/5 104/188/5 58/75/5
f 104/188/5 52/87/5 58/75/5
f 53/96/6 105/189/6 61/89/6
f 105/189/6 106/190/6 61/89/6
f 106/190/6 107/191/6 61/89/6
f 107/191/6 108/192/6 61/89/6
f 108/192/6 16/90/6 61/89/6
f 22/193/40 18/194/40 96/195/40 97/196/40
f 97/196/41 96/195/41 95/197/41 98/198/41
f 98/198/42 95/197/42 94/199/42 99/200/42
f 99/201/43 94/202/43 93/203/43 100/204/43
f 100/204/44 93/203/44 43/104/44 64/103/44
f 53/63/45 52/62/45 104/205/45 105/206/45
f 105/206/46 104/205/46 103/207/46 106/208/46
f 106/209/47 103/210/47 102/211/47 107/212/47
f 107/212/48 102/211/48 101/213/48 108/214/48
f 108/214/49 101/213/49 13/13/49 16/16/49
f 18/194/50 22/193/50 26/106/50 19/105/50
