# Blender v3.6.3 OBJ File: ''
# www.blender.org
mtllib cokeconcasseur.mtl
o Cylinder_Cylinder.001
v 0.000000 -0.144744 -0.064665
v 0.000000 0.215775 -0.064665
v 0.045725 0.215775 -0.045725
v 0.045725 -0.144744 -0.045725
v 0.064665 0.215775 -0.000000
v 0.064665 -0.144744 0.000000
v 0.045725 0.215775 0.045725
v 0.045725 -0.144744 0.045725
v 0.000000 0.215775 0.064665
v 0.000000 -0.144744 0.064665
v -0.045725 0.215775 0.045725
v -0.045725 -0.144744 0.045725
v -0.064665 0.215775 -0.000000
v -0.064665 -0.144744 0.000000
v 0.036059 0.236644 -0.036059
v 0.000000 0.236644 -0.050995
v -0.036059 0.236644 -0.036059
v -0.050995 0.236644 -0.000000
v -0.036059 0.236644 0.036059
v 0.000000 0.236644 0.050995
v 0.036059 0.236644 0.036059
v 0.050995 0.236644 -0.000000
v -0.045725 0.215775 -0.045725
v -0.045725 -0.144744 -0.045725
v 0.000000 -0.210042 -0.054309
v 0.000000 -0.155733 -0.076805
v 0.054309 -0.155733 -0.054309
v 0.038403 -0.210042 -0.038402
v 0.000000 -0.101423 -0.054309
v 0.000000 -0.078928 0.000000
v 0.038403 -0.101423 -0.038403
v 0.000000 -0.232538 0.000000
v 0.076805 -0.155733 0.000000
v 0.054309 -0.210042 0.000000
v 0.054309 -0.101423 0.000000
v 0.054309 -0.155733 0.054309
v 0.038403 -0.210042 0.038403
v 0.038403 -0.101423 0.038403
v 0.000000 -0.155733 0.076805
v 0.000000 -0.210042 0.054309
v 0.000000 -0.101423 0.054309
v -0.038403 -0.101423 0.038403
v -0.054309 -0.155733 0.054309
v -0.038403 -0.210042 0.038403
v -0.054309 -0.210042 0.000000
v -0.054309 -0.101423 0.000000
v -0.076805 -0.155733 0.000000
v -0.038403 -0.210042 -0.038402
v -0.038403 -0.101423 -0.038403
v -0.054309 -0.155733 -0.054309
vt 0.065717 0.719756
vt 0.065717 0.049219
vt 0.158655 0.049219
vt 0.158655 0.719756
vt 0.224371 0.040168
vt 0.224371 0.710706
vt 0.224371 0.719756
vt 0.224371 0.049219
vt 0.317309 0.049219
vt 0.317309 0.719756
vt 0.383026 0.040168
vt 0.383026 0.710706
vt 0.383026 0.719756
vt 0.383026 0.049219
vt 0.475964 0.049219
vt 0.475964 0.719756
vt 0.541680 0.040168
vt 0.541680 0.710706
vt 1.000000 0.808753
vt 1.000000 0.882045
vt 0.948175 0.933870
vt 0.874883 0.933870
vt 0.823058 0.882045
vt 0.823058 0.808753
vt 0.874883 0.756928
vt 0.948175 0.756928
vt 0.541680 0.712619
vt 0.541680 0.042081
vt 0.634618 0.042081
vt 0.634618 0.712619
vt 0.000000 0.710706
vt 0.000000 0.040168
vt 0.858989 0.691211
vt 0.793273 0.756928
vt 0.700335 0.756928
vt 0.634618 0.691211
vt 0.634618 0.598274
vt 0.700335 0.532557
vt 0.793273 0.532557
vt 0.858989 0.598274
vt 0.075540 0.007137
vt 0.148832 0.007137
vt 0.200657 0.000000
vt 0.234194 0.007137
vt 0.307486 0.007137
vt 0.359311 0.000000
vt 0.392849 0.007137
vt 0.466141 0.007137
vt 0.517966 0.000000
vt 0.551503 0.000000
vt 0.624795 0.000000
vt 0.023715 0.000000
vt 0.634618 0.366621
vt 0.729179 0.345035
vt 0.735465 0.455241
vt 0.639064 0.444549
vt 0.487573 0.853004
vt 0.393352 0.813977
vt 0.487573 0.774949
vt 0.728838 0.851148
vt 0.823058 0.890176
vt 0.767865 0.945369
vt 0.836313 0.355115
vt 0.840758 0.433043
vt 0.750643 0.532557
vt 0.649796 0.499219
vt 0.432380 0.719756
vt 0.689811 0.945369
vt 0.000000 0.825049
vt 0.033084 0.719756
vt 0.088620 0.724202
vt 0.078540 0.831336
vt 0.100126 0.925897
vt 0.188747 0.825049
vt 0.178054 0.921451
vt 0.354325 0.719756
vt 0.634618 0.890176
vt 0.166548 0.719756
vt 0.836641 0.227467
vt 0.737856 0.266495
vt 0.748606 0.188440
vt 0.844242 0.172275
vt 0.299132 0.774949
vt 0.634618 0.812121
vt 0.634618 0.227467
vt 0.642219 0.172275
vt 0.642219 0.094220
vt 0.748606 0.078054
vt 0.844242 0.094220
vt 0.299132 0.853004
vt 0.689811 0.756928
vt 0.767865 0.756928
vt 0.634618 0.039027
vt 0.737856 -0.000000
vt 0.836641 0.039027
vt 0.354325 0.908197
vt 0.823058 0.812121
vt 0.188747 0.826143
vt 0.204912 0.719756
vt 0.282967 0.719756
vt 0.299132 0.826143
vt 0.204912 0.921779
vt 0.282967 0.921779
vt 0.432380 0.908197
vt 0.735465 0.266495
vt 0.840758 0.299579
vt 0.639063 0.311085
vn 0.3827 -0.0000 -0.9239
vn 0.9239 -0.0000 -0.3827
vn 0.9239 0.0000 0.3827
vn 0.3827 0.0000 0.9239
vn -0.3827 0.0000 0.9239
vn -0.9239 0.0000 0.3827
vn 0.0000 1.0000 -0.0000
vn -0.9239 -0.0000 -0.3827
vn -0.3827 -0.0000 -0.9239
vn 0.0000 -1.0000 0.0000
vn 0.3274 0.5177 -0.7904
vn 0.7904 0.5177 -0.3274
vn 0.7904 0.5177 0.3274
vn 0.3274 0.5177 0.7904
vn -0.3274 0.5177 0.7904
vn -0.7904 0.5177 0.3274
vn -0.7904 0.5177 -0.3274
vn -0.3274 0.5177 -0.7904
vn 0.3574 -0.3574 -0.8629
vn 0.1566 0.9125 -0.3780
vn 0.1566 -0.9125 -0.3780
vn 0.3574 0.3574 -0.8629
vn 0.8629 -0.3574 -0.3574
vn 0.3780 0.9125 -0.1566
vn 0.3780 -0.9125 -0.1566
vn 0.8629 0.3574 -0.3574
vn 0.8629 -0.3574 0.3574
vn 0.3780 0.9125 0.1566
vn 0.3780 -0.9125 0.1566
vn 0.8629 0.3574 0.3574
vn 0.3574 -0.3574 0.8629
vn 0.1566 0.9125 0.3780
vn 0.1566 -0.9125 0.3780
vn 0.3574 0.3574 0.8629
vn -0.3574 0.3574 0.8629
vn -0.3574 -0.3574 0.8629
vn -0.1566 0.9125 0.3780
vn -0.1566 -0.9125 0.3780
vn -0.3780 -0.9125 0.1566
vn -0.8629 0.3574 0.3574
vn -0.8629 -0.3574 0.3574
vn -0.3780 0.9125 0.1566
vn -0.3780 -0.9125 -0.1566
vn -0.8629 0.3574 -0.3574
vn -0.8629 -0.3574 -0.3574
vn -0.3780 0.9125 -0.1566
vn -0.1566 -0.9125 -0.3780
vn -0.3574 0.3574 -0.8629
vn -0.3574 -0.3574 -0.8629
vn -0.1566 0.9125 -0.3780
usemtl Material.001
s 1
f 1/1/1 2/2/1 3/3/1 4/4/1
f 4/4/2 3/3/2 5/5/2 6/6/2
f 6/7/3 5/8/3 7/9/3 8/10/3
f 8/10/4 7/9/4 9/11/4 10/12/4
f 10/13/5 9/14/5 11/15/5 12/16/5
f 12/16/6 11/15/6 13/17/6 14/18/6
f 15/19/7 16/20/7 17/21/7 18/22/7 19/23/7 20/24/7 21/25/7 22/26/7
f 14/27/8 13/28/8 23/29/8 24/30/8
f 24/31/9 23/32/9 2/2/9 1/1/9
f 1/33/10 4/34/10 6/35/10 8/36/10 10/37/10 12/38/10 14/39/10 24/40/10
f 16/41/11 15/42/11 3/3/11 2/2/11
f 15/42/12 22/43/12 5/5/12 3/3/12
f 22/44/13 21/45/13 7/9/13 5/8/13
f 21/45/14 20/46/14 9/11/14 7/9/14
f 20/47/15 19/48/15 11/15/15 9/14/15
f 19/48/16 18/49/16 13/17/16 11/15/16
f 18/50/17 17/51/17 23/29/17 13/28/17
f 17/52/18 16/41/18 2/2/18 23/32/18
f 25/53/19 26/54/19 27/55/19 28/56/19
f 29/57/20 30/58/20 31/59/20
f 32/60/21 25/61/21 28/62/21
f 26/54/22 29/63/22 31/64/22 27/55/22
f 28/56/23 27/55/23 33/65/23 34/66/23
f 31/59/24 30/58/24 35/67/24
f 32/60/25 28/62/25 34/68/25
f 27/69/26 31/70/26 35/71/26 33/72/26
f 34/73/27 33/72/27 36/74/27 37/75/27
f 35/67/28 30/58/28 38/76/28
f 32/60/29 34/68/29 37/77/29
f 33/72/30 35/71/30 38/78/30 36/74/30
f 37/79/31 36/80/31 39/81/31 40/82/31
f 38/76/32 30/58/32 41/83/32
f 32/60/33 37/77/33 40/84/33
f 36/80/34 38/85/34 41/86/34 39/81/34
f 39/81/35 41/86/35 42/87/35 43/88/35
f 40/82/36 39/81/36 43/88/36 44/89/36
f 41/83/37 30/58/37 42/90/37
f 32/60/38 40/84/38 44/91/38
f 32/60/39 44/91/39 45/92/39
f 43/88/40 42/87/40 46/93/40 47/94/40
f 44/89/41 43/88/41 47/94/41 45/95/41
f 42/90/42 30/58/42 46/96/42
f 32/60/43 45/92/43 48/97/43
f 47/98/44 46/99/44 49/100/44 50/101/44
f 45/102/45 47/98/45 50/101/45 48/103/45
f 46/96/46 30/58/46 49/104/46
f 32/60/47 48/97/47 25/61/47
f 50/105/48 49/106/48 29/63/48 26/54/48
f 48/107/49 50/105/49 26/54/49 25/53/49
f 49/104/50 30/58/50 29/57/50
