# Blender v3.0.0 OBJ File: 'v2.blend'
# www.blender.org
mtllib churchconfessional.mtl
o Cube
v -0.487796 -1.625152 0.671273
v -0.487796 1.423135 0.671273
v 0.455256 -0.268823 0.729292
v 0.487796 1.423135 0.671273
v -0.487796 0.916217 0.671273
v 0.455256 0.262520 0.729292
v -0.487796 -1.625152 0.000000
v -0.487796 1.423135 0.000000
v 0.487796 -1.625152 0.000000
v 0.487796 1.423135 0.000000
v 0.487796 1.029250 0.000000
v -0.487796 0.916217 0.000000
v 0.487796 0.784484 1.447976
v 0.487796 -1.493419 1.447976
v -0.487796 -1.625152 1.505994
v -0.487796 0.916217 1.505994
v 0.410905 -1.625152 0.671273
v 0.410905 1.423135 0.671273
v 0.410905 0.916217 0.671273
v 0.410905 1.423135 0.000000
v 0.410905 -1.625152 0.000000
v 0.410905 -1.625152 1.505994
v 0.410905 0.916217 1.505994
v -0.487796 1.169676 0.671273
v 0.487796 1.169676 0.671273
v 0.487796 1.169676 0.000000
v -0.487796 1.169676 0.000000
v 0.410905 1.169676 0.671273
v 0.487796 2.009469 0.000000
v 0.487796 2.009469 0.671273
v 0.410905 2.009469 0.671273
v -0.487796 2.009469 0.671273
v -0.487796 2.009469 0.000000
v 0.410905 2.009469 0.000000
v 0.487796 2.219209 0.000000
v 0.487796 2.053981 0.671273
v 0.410905 2.053981 0.671273
v -0.487796 2.053981 0.671273
v -0.487796 2.219209 0.000000
v 0.410905 2.219209 0.000000
v 0.487796 0.916217 0.671273
v 0.487796 -1.625152 0.671273
v 0.487796 0.916217 1.505994
v 0.487796 -1.625152 1.505994
v -0.253777 0.262520 0.729292
v -0.253777 -0.268823 0.729292
v -0.286317 0.784484 1.447976
v -0.286317 -1.493419 1.447976
v 0.487796 0.784484 0.729292
v 0.487796 -1.493419 0.729292
v -0.286317 0.784484 0.729292
v -0.286317 -1.493419 0.729292
v 0.487796 -0.808870 0.671273
v -0.487796 -0.808870 0.671273
v -0.487796 -0.808870 0.000000
v 0.487796 -0.808870 0.000000
v 0.487796 -0.808870 1.505994
v -0.487796 -0.808870 1.505994
v 0.410905 -0.808870 1.505994
v 0.487796 -0.761761 0.729292
v 0.487796 -0.761761 1.447976
v -0.286317 -0.761761 0.729292
v -0.286317 -0.761761 1.447976
v 0.455256 -0.098156 0.729292
v -0.253777 -0.098156 0.729292
v 0.487796 -0.879477 0.671273
v -0.487796 -0.879477 0.000000
v 0.487796 -0.879477 0.000000
v 0.487796 -0.879477 1.505994
v 0.410905 -0.879477 1.505994
v 0.487796 -0.825049 0.729292
v 0.487796 -0.825049 1.447976
v -0.286317 -0.825049 0.729292
v -0.286317 -0.825049 1.447976
v 0.455256 -0.112919 0.729292
v -0.253777 -0.112919 0.729292
v -0.487796 -0.879477 0.671273
v -0.487796 -0.879477 1.505994
v -0.286317 -0.761761 1.168230
v -0.286317 -0.825049 1.168230
v -0.286317 -0.761761 1.229501
v -0.286317 -0.825049 1.229501
v -0.286317 -1.571394 1.168230
v -0.286317 -1.571394 1.229501
v 0.407984 -0.761761 1.447976
v 0.407984 -0.825049 1.447976
v 0.407984 -0.761761 1.168230
v 0.407984 -0.825049 1.168230
v 0.407984 -0.761761 1.229501
v 0.407984 -0.825049 1.229501
v 0.407984 -1.571394 1.168230
v 0.407984 -1.571394 1.229501
v -0.487796 -1.625152 0.514643
v 0.487796 1.423135 0.514643
v 0.406579 0.261065 0.468961
v -0.487796 1.423135 0.514643
v 0.487796 -1.625152 0.514643
v -0.487796 0.916217 0.514643
v 0.410905 -1.625152 0.514643
v -0.487796 1.169676 0.514643
v 0.487796 1.169676 0.514643
v 0.487796 2.009469 0.514643
v -0.487796 2.009469 0.514643
v 0.487796 2.092534 0.514643
v -0.487796 2.092534 0.514643
v 0.410905 2.092534 0.514643
v -0.487796 -0.808870 0.514643
v 0.406579 -0.144169 0.468961
v 0.487796 -0.879477 0.514643
v -0.487796 -0.879477 0.514643
v 0.393336 -0.113847 0.045682
v 0.393336 0.323709 0.045682
v 0.487796 0.916217 0.514643
v 0.487796 -0.808870 0.514643
v -0.234264 0.323709 0.045682
v -0.234264 -0.113847 0.045682
v -0.247507 0.261065 0.468961
v -0.247507 -0.144169 0.468961
v 0.487796 0.915010 0.045682
v 0.487796 -0.705147 0.045682
v -0.328724 0.915010 0.045682
v -0.328724 -0.705147 0.045682
v -0.487796 -1.625152 -0.671273
v -0.487796 1.423135 -0.671273
v 0.455256 -0.268823 -0.729292
v 0.487796 1.423135 -0.671273
v -0.487796 0.916217 -0.671273
v 0.455256 0.262520 -0.729292
v 0.487796 0.784484 -1.447976
v 0.487796 -1.493419 -1.447976
v -0.487796 -1.625152 -1.505994
v -0.487796 0.916217 -1.505994
v 0.410905 -1.625152 -0.671273
v 0.410905 1.423135 -0.671273
v 0.410905 0.916217 -0.671273
v 0.410905 -1.625152 -1.505994
v 0.410905 0.916217 -1.505994
v -0.487796 1.169676 -0.671273
v 0.487796 1.169676 -0.671273
v 0.410905 1.169676 -0.671273
v 0.487796 2.009469 -0.671273
v 0.410905 2.009469 -0.671273
v -0.487796 2.009469 -0.671273
v 0.487796 2.053981 -0.671273
v 0.410905 2.053981 -0.671273
v -0.487796 2.053981 -0.671273
v 0.487796 0.916217 -0.671273
v 0.487796 -1.625152 -0.671273
v 0.487796 0.916217 -1.505994
v 0.487796 -1.625152 -1.505994
v -0.253777 0.262520 -0.729292
v -0.253777 -0.268823 -0.729292
v -0.286317 0.784484 -1.447976
v -0.286317 -1.493419 -1.447976
v 0.487796 0.784484 -0.729292
v 0.487796 -1.493419 -0.729292
v -0.286317 0.784484 -0.729292
v -0.286317 -1.493419 -0.729292
v 0.487796 -0.808870 -0.671273
v -0.487796 -0.808870 -0.671273
v 0.487796 -0.808870 -1.505994
v -0.487796 -0.808870 -1.505994
v 0.410905 -0.808870 -1.505994
v 0.487796 -0.761761 -0.729292
v 0.487796 -0.761761 -1.447976
v -0.286317 -0.761761 -0.729292
v -0.286317 -0.761761 -1.447976
v 0.455256 -0.098156 -0.729292
v -0.253777 -0.098156 -0.729292
v 0.487796 -0.879477 -0.671273
v 0.487796 -0.879477 -1.505994
v 0.410905 -0.879477 -1.505994
v 0.487796 -0.825049 -0.729292
v 0.487796 -0.825049 -1.447976
v -0.286317 -0.825049 -0.729292
v -0.286317 -0.825049 -1.447976
v 0.455256 -0.112919 -0.729292
v -0.253777 -0.112919 -0.729292
v -0.487796 -0.879477 -0.671273
v -0.487796 -0.879477 -1.505994
v -0.286317 -0.761761 -1.168230
v -0.286317 -0.825049 -1.168230
v -0.286317 -0.761761 -1.229501
v -0.286317 -0.825049 -1.229501
v -0.286317 -1.571394 -1.168230
v -0.286317 -1.571394 -1.229501
v 0.407984 -0.761761 -1.447976
v 0.407984 -0.825049 -1.447976
v 0.407984 -0.761761 -1.168230
v 0.407984 -0.825049 -1.168230
v 0.407984 -0.761761 -1.229501
v 0.407984 -0.825049 -1.229501
v 0.407984 -1.571394 -1.168230
v 0.407984 -1.571394 -1.229501
v -0.487796 -1.625152 -0.514643
v 0.487796 1.423135 -0.514643
v 0.406579 0.261065 -0.468961
v -0.487796 1.423135 -0.514643
v 0.487796 -1.625152 -0.514643
v -0.487796 0.916217 -0.514643
v 0.410905 -1.625152 -0.514643
v -0.487796 1.169676 -0.514643
v 0.487796 1.169676 -0.514643
v 0.487796 2.009469 -0.514643
v -0.487796 2.009469 -0.514643
v 0.487796 2.092534 -0.514643
v -0.487796 2.092534 -0.514643
v 0.410905 2.092534 -0.514643
v -0.487796 -0.808870 -0.514643
v 0.406579 -0.144169 -0.468961
v 0.487796 -0.879477 -0.514643
v -0.487796 -0.879477 -0.514643
v 0.393336 -0.113847 -0.045682
v 0.393336 0.323709 -0.045682
v 0.487796 0.916217 -0.514643
v 0.487796 -0.808870 -0.514643
v -0.234264 0.323709 -0.045682
v -0.234264 -0.113847 -0.045682
v -0.247507 0.261065 -0.468961
v -0.247507 -0.144169 -0.468961
v 0.487796 0.915010 -0.045682
v 0.487796 -0.705147 -0.045682
v -0.328724 0.915010 -0.045682
v -0.328724 -0.705147 -0.045682
v 0.487796 0.822044 0.468961
v 0.487796 -0.705147 0.468961
v -0.328724 0.822044 0.468961
v -0.328724 -0.705147 0.468961
v 0.487796 0.822044 -0.468961
v 0.487796 -0.705147 -0.468961
v -0.328724 0.822044 -0.468961
v -0.328724 -0.705147 -0.468961
vt 0.436167 0.301407
vt 0.452818 0.301407
vt 0.452818 0.324770
vt 0.436167 0.324770
vt 0.971492 0.184476
vt 0.954840 0.184476
vt 0.954840 0.000000
vt 0.971492 0.000000
vt 0.689593 0.301407
vt 0.705377 0.301407
vt 0.705377 0.324770
vt 0.689593 0.324770
vt 0.200260 0.147874
vt 0.200260 0.124511
vt 0.238780 0.124511
vt 0.238780 0.147874
vt 0.783195 0.465064
vt 0.783195 0.649540
vt 0.658685 0.649540
vt 0.658685 0.465064
vt 0.306185 0.301407
vt 0.419516 0.301407
vt 0.419516 0.324770
vt 0.306185 0.324770
vt 0.053626 0.147874
vt 0.166957 0.147874
vt 0.166957 0.224640
vt 0.053626 0.224640
vt 0.183609 0.147874
vt 0.200260 0.224640
vt 0.183609 0.224640
vt 0.480548 0.633757
vt 0.367217 0.633757
vt 0.367217 0.449281
vt 0.480548 0.449281
vt 0.048988 0.124511
vt 0.000000 0.124511
vt 0.000000 0.000000
vt 0.048988 0.000000
vt 0.705377 0.449281
vt 0.689593 0.449281
vt 0.513701 0.808443
vt 0.406499 0.808443
vt 0.406499 0.649540
vt 0.513701 0.649540
vt 0.505117 0.324770
vt 0.505117 0.449281
vt 0.480548 0.649540
vt 0.367217 0.649540
vt 0.783195 0.449281
vt 0.658685 0.449281
vt 0.916321 0.184476
vt 0.916321 0.000000
vt 0.505117 0.301407
vt 0.971492 0.200260
vt 0.954840 0.200260
vt 0.988143 0.200260
vt 0.988143 0.184476
vt 0.988143 0.000000
vt 0.883526 0.447073
vt 0.900030 0.323662
vt 0.900030 0.449281
vt 0.419516 0.449281
vt 0.783195 0.449281
vt 0.783195 0.465064
vt 0.241704 0.124511
vt 0.244237 0.147874
vt 0.916321 0.200260
vt 0.913396 0.200260
vt 0.913396 0.184476
vt 0.965695 0.216043
vt 0.965695 0.400520
vt 0.927175 0.400520
vt 0.927175 0.216043
vt 0.965695 0.200260
vt 0.927175 0.200260
vt 0.452818 0.224640
vt 0.491338 0.224640
vt 0.491338 0.301407
vt 0.015783 0.626177
vt 0.200260 0.626177
vt 0.200260 0.649540
vt 0.015783 0.649540
vt 0.000000 0.626177
vt 0.000000 0.649540
vt 0.505117 0.224640
vt 0.496795 0.301407
vt 0.913396 0.400520
vt 0.913396 0.216043
vt 0.913396 0.200260
vt 0.913396 0.000000
vt 0.305122 0.333425
vt 0.261213 0.333425
vt 0.252559 0.324770
vt 0.301546 0.324770
vt 0.309280 0.440626
vt 0.410862 0.440626
vt 0.306185 0.449281
vt 0.410862 0.333425
vt 0.261213 0.440626
vt 0.252559 0.449281
vt 0.935637 0.697607
vt 0.935637 0.799189
vt 0.828435 0.799189
vt 0.828435 0.697607
vt 0.500904 0.967345
vt 0.456995 0.967345
vt 0.456995 0.808443
vt 0.500904 0.808443
vt 0.620903 0.649540
vt 0.728105 0.649540
vt 0.728105 0.808443
vt 0.620903 0.808443
vt 0.090693 0.656220
vt 0.080451 0.656220
vt 0.000000 0.649540
vt 0.043909 0.649540
vt 0.091663 0.801763
vt 0.115358 0.801763
vt 0.149649 0.808443
vt 0.048067 0.808443
vt 0.080451 0.801763
vt 0.000000 0.808443
vt 0.115358 0.656220
vt 0.149649 0.649540
vt 0.090693 0.801763
vt 0.043909 0.808443
vt 0.091663 0.656220
vt 0.048067 0.649540
vt 0.913396 0.317804
vt 0.811815 0.317804
vt 0.811815 0.158902
vt 0.913396 0.158902
vt 0.935637 0.693449
vt 0.828435 0.693449
vt 0.305741 0.950962
vt 0.305741 0.808443
vt 0.309899 0.808443
vt 0.309899 0.950962
vt 0.309280 0.333425
vt 0.485187 0.649540
vt 0.485187 0.633757
vt 0.166957 0.124511
vt 0.053626 0.124511
vt 0.053626 0.000000
vt 0.166957 0.000000
vt 0.485187 0.449281
vt 0.048988 0.147874
vt 0.048988 0.224640
vt 0.301546 0.301407
vt 0.252559 0.301407
vt 0.000000 0.147874
vt 0.000000 0.224640
vt 0.534175 0.633757
vt 0.534175 0.449281
vt 0.534175 0.649540
vt 0.305122 0.440626
vt 0.301546 0.449281
vt 0.935637 0.649540
vt 0.828435 0.649540
vt 0.968225 0.808443
vt 0.968225 0.967345
vt 0.935636 0.967345
vt 0.935636 0.824826
vt 0.968225 0.824826
vt 0.595680 0.808443
vt 0.595680 0.950962
vt 0.586541 0.950962
vt 0.586541 0.808443
vt 0.967412 0.498312
vt 0.958272 0.498312
vt 0.958272 0.449281
vt 0.967412 0.449281
vt 0.967412 0.502470
vt 0.958272 0.502470
vt 0.628269 0.967345
vt 0.628269 0.950962
vt 0.628269 0.808443
vt 0.407963 0.950962
vt 0.407963 0.808443
vt 0.456995 0.808443
vt 0.456995 0.950962
vt 1.000000 0.498312
vt 1.000000 0.502470
vt 0.968225 0.934579
vt 0.968225 0.792060
vt 0.977364 0.792060
vt 0.977364 0.934579
vt 0.358931 0.808443
vt 0.358931 0.950962
vt 0.815972 0.317804
vt 0.815972 0.334187
vt 0.811815 0.334187
vt 0.864241 0.441593
vt 0.864241 0.437436
vt 0.873381 0.437436
vt 0.873381 0.441593
vt 0.831653 0.441593
vt 0.831653 0.437435
vt 0.864241 0.388404
vt 0.873381 0.388404
vt 0.252559 0.224640
vt 0.301546 0.224640
vt 0.306185 0.224640
vt 0.491338 0.324770
vt 0.494262 0.324770
vt 0.000000 0.549411
vt 0.015783 0.549411
vt 0.200260 0.549411
vt 0.238780 0.224640
vt 0.252559 0.224640
vt 0.426942 0.224640
vt 0.436167 0.224640
vt 0.183609 0.124511
vt 0.505117 0.224640
vt 0.689593 0.224640
vt 0.189414 0.808443
vt 0.252552 0.808443
vt 0.252552 0.976050
vt 0.189414 0.976050
vt 0.705377 0.224640
vt 0.419437 0.231454
vt 0.312999 0.231454
vt 0.413329 0.294592
vt 0.312999 0.294592
vt 0.768515 0.335214
vt 0.768515 0.441652
vt 0.705377 0.435544
vt 0.705377 0.335214
vt 0.667101 0.953986
vt 0.628269 0.943994
vt 0.628269 0.809730
vt 0.667101 0.808443
vt 0.126276 0.976050
vt 0.063138 0.976050
vt 0.063138 0.808443
vt 0.126276 0.808443
vt 0.744223 0.315824
vt 0.772969 0.315824
vt 0.811815 0.335214
vt 0.705377 0.335214
vt 0.772969 0.186997
vt 0.744223 0.186997
vt 0.705377 0.167607
vt 0.811815 0.167607
vt 0.436167 0.147874
vt 0.436167 0.124511
vt 0.452818 0.124511
vt 0.452818 0.147874
vt 0.941621 0.465064
vt 0.941621 0.649540
vt 0.924969 0.649540
vt 0.924969 0.465064
vt 0.689593 0.147874
vt 0.689593 0.124511
vt 0.705377 0.124511
vt 0.705377 0.147874
vt 0.200260 0.301407
vt 0.238780 0.301407
vt 0.238780 0.324770
vt 0.200260 0.324770
vt 0.534175 0.465064
vt 0.658685 0.465064
vt 0.658685 0.649540
vt 0.534175 0.649540
vt 0.306185 0.147874
vt 0.306185 0.124511
vt 0.419516 0.124511
vt 0.419516 0.147874
vt 0.053626 0.301407
vt 0.166957 0.301407
vt 0.183609 0.301407
vt 0.313591 0.465064
vt 0.313591 0.649540
vt 0.200260 0.649540
vt 0.200260 0.465064
vt 0.048988 0.324770
vt 0.048988 0.449281
vt 0.000000 0.449281
vt 0.000000 0.324770
vt 0.689593 0.000000
vt 0.705377 0.000000
vt 0.299297 0.808442
vt 0.299297 0.649540
vt 0.406499 0.649540
vt 0.406499 0.808442
vt 0.505117 0.124511
vt 0.505117 0.000000
vt 0.313591 0.449281
vt 0.200260 0.449281
vt 0.534175 0.449281
vt 0.658685 0.449281
vt 0.886450 0.649540
vt 0.886450 0.465064
vt 0.505117 0.147874
vt 0.941621 0.449281
vt 0.924969 0.449281
vt 0.958272 0.449281
vt 0.958272 0.465064
vt 0.958272 0.649540
vt 0.705933 0.810650
vt 0.722437 0.808443
vt 0.722437 0.934062
vt 0.419516 0.000000
vt 0.534175 0.449281
vt 0.534175 0.465064
vt 0.244237 0.301407
vt 0.241704 0.324770
vt 0.883525 0.465064
vt 0.883525 0.449281
vt 0.886450 0.449281
vt 0.491338 0.147874
vt 0.015784 0.472644
vt 0.015784 0.449281
vt 0.200260 0.449281
vt 0.200260 0.472644
vt 0.000000 0.472644
vt 0.000000 0.449281
vt 0.496795 0.147874
vt 0.883525 0.649540
vt 0.305122 0.115856
vt 0.301546 0.124511
vt 0.252559 0.124511
vt 0.261213 0.115856
vt 0.309280 0.008654
vt 0.306185 0.000000
vt 0.410862 0.008654
vt 0.410862 0.115856
vt 0.252559 0.000000
vt 0.261213 0.008654
vt 0.828435 0.847256
vt 0.935636 0.847256
vt 0.935636 0.948838
vt 0.828435 0.948838
vt 0.544813 0.808443
vt 0.544813 0.967345
vt 0.500904 0.967345
vt 0.500904 0.808443
vt 0.620903 0.649540
vt 0.620903 0.808442
vt 0.513701 0.808442
vt 0.513701 0.649540
vt 0.240342 0.801763
vt 0.193558 0.808443
vt 0.149649 0.808443
vt 0.230100 0.801763
vt 0.241312 0.656220
vt 0.197716 0.649540
vt 0.299297 0.649540
vt 0.265007 0.656220
vt 0.149649 0.649540
vt 0.230100 0.656220
vt 0.299297 0.808443
vt 0.265007 0.801763
vt 0.240342 0.656220
vt 0.193558 0.649540
vt 0.197716 0.808443
vt 0.241312 0.801763
vt 0.913396 0.000000
vt 0.913396 0.158902
vt 0.811815 0.158902
vt 0.811815 0.000000
vt 0.828435 0.843098
vt 0.935636 0.843098
vt 0.252552 0.808443
vt 0.256710 0.808443
vt 0.256710 0.950962
vt 0.252552 0.950962
vt 0.309280 0.115856
vt 0.318229 0.449281
vt 0.318229 0.465064
vt 0.166957 0.324770
vt 0.166957 0.449281
vt 0.053626 0.449281
vt 0.053626 0.324770
vt 0.318229 0.649540
vt 0.048988 0.301407
vt 0.301546 0.147874
vt 0.252559 0.147874
vt 0.000000 0.301407
vt 0.367217 0.465064
vt 0.367217 0.649540
vt 0.367217 0.449281
vt 0.301546 0.000000
vt 0.305122 0.008654
vt 0.828435 0.799189
vt 0.935636 0.799189
vt 0.968225 0.808442
vt 0.968225 0.792059
vt 0.935636 0.792059
vt 0.935636 0.649540
vt 0.968225 0.649540
vt 0.553952 0.967345
vt 0.544813 0.967345
vt 0.544813 0.824826
vt 0.553952 0.824826
vt 0.864241 0.384246
vt 0.864241 0.335214
vt 0.873381 0.335214
vt 0.873381 0.384246
vt 0.873381 0.388404
vt 0.864241 0.388404
vt 0.586541 0.808443
vt 0.586541 0.967345
vt 0.586541 0.824826
vt 0.358931 0.808443
vt 0.407963 0.808443
vt 0.407963 0.950962
vt 0.358931 0.950962
vt 0.831653 0.384246
vt 0.831653 0.388404
vt 0.977364 0.792060
vt 0.968225 0.792060
vt 0.968225 0.649540
vt 0.977364 0.649540
vt 0.305741 0.808443
vt 0.305741 0.950962
vt 0.814610 0.633271
vt 0.810452 0.633271
vt 0.810452 0.616888
vt 0.814610 0.616888
vt 0.967412 0.555660
vt 0.958272 0.555660
vt 0.958272 0.551502
vt 0.967412 0.551502
vt 1.000000 0.555660
vt 1.000000 0.551502
vt 0.958272 0.502470
vt 0.967412 0.502470
vt 0.491338 0.124511
vt 0.494262 0.124511
vt 0.183609 0.324770
vt 0.063138 0.808443
vt 0.063138 0.976050
vt 0.000000 0.976050
vt 0.000000 0.808443
vt 0.419437 0.217826
vt 0.312999 0.217826
vt 0.413329 0.154688
vt 0.312999 0.154688
vt 0.831653 0.441652
vt 0.768515 0.441652
vt 0.768515 0.341322
vt 0.831653 0.335214
vt 0.961199 0.594499
vt 0.958272 0.555660
vt 0.984894 0.555725
vt 0.984894 0.594557
vt 0.126276 0.976050
vt 0.126276 0.808443
vt 0.189414 0.808443
vt 0.189414 0.976050
vt 0.744223 0.019390
vt 0.705377 0.000000
vt 0.811815 0.000000
vt 0.772969 0.019390
vt 0.772969 0.148217
vt 0.811815 0.167607
vt 0.705377 0.167607
vt 0.744223 0.148217
vt 0.796824 0.616888
vt 0.796824 0.645633
vt 0.783195 0.645633
vt 0.783195 0.616888
vt 0.965695 0.329087
vt 0.965695 0.200260
vt 0.979324 0.200260
vt 0.979324 0.329087
vt 0.796824 0.616888
vt 0.810452 0.616888
vt 0.810452 0.645633
vt 0.796824 0.645633
vt 0.805769 0.817147
vt 0.819397 0.817147
vt 0.819397 0.945975
vt 0.805769 0.945975
vt 0.846672 0.465952
vt 0.820049 0.465952
vt 0.783195 0.449281
vt 0.883525 0.449281
vt 0.820049 0.600216
vt 0.846672 0.600216
vt 0.883525 0.616888
vt 0.783195 0.616888
vt 0.764958 0.800476
vt 0.791581 0.800476
vt 0.828435 0.817147
vt 0.728104 0.817147
vt 0.791581 0.666212
vt 0.764958 0.666212
vt 0.728104 0.649540
vt 0.828435 0.649540
vt 0.929579 0.410441
vt 0.953274 0.410383
vt 0.953274 0.449215
vt 0.926652 0.449281
vt 0.766937 0.817147
vt 0.766937 0.962691
vt 0.728105 0.961404
vt 0.728105 0.827140
vt 0.956201 0.410441
vt 0.979896 0.410383
vt 0.979896 0.449215
vt 0.953274 0.449281
vt 0.667101 0.808443
vt 0.705933 0.818435
vt 0.705933 0.952699
vt 0.667101 0.953986
vt 0.902957 0.449222
vt 0.900030 0.410383
vt 0.926652 0.410448
vt 0.926652 0.449281
vt 0.766937 0.962691
vt 0.766937 0.817147
vt 0.805769 0.818435
vt 0.805769 0.952699
vn 1.0000 0.0000 0.0000
vn 0.0000 0.0000 1.0000
vn 0.0000 -1.0000 0.0000
vn -1.0000 0.0000 0.0000
vn 0.0000 1.0000 0.0000
vn 0.0000 0.9569 0.2905
vn 0.0000 0.0000 -1.0000
vn 0.0000 0.9710 0.2390
vn 0.0000 0.9847 -0.1740
vn 0.0000 -0.9767 -0.2145
vn 0.0000 0.9569 -0.2905
vn 0.0000 0.9710 -0.2390
vn 0.9997 0.0000 0.0241
vn 0.0000 -0.9767 0.2145
vn -0.9830 0.0000 0.1838
vn 0.0000 -1.0000 0.0056
vn 0.9997 0.0000 -0.0241
vn 0.0000 -1.0000 -0.0056
vn -0.9830 0.0000 -0.1838
vn 0.0000 0.9847 0.1740
usemtl Material.001
s off
f 101/1/1 94/2/1 4/3/1 25/4/1
f 28/5/2 18/6/2 2/7/2 24/8/2
f 99/9/3 97/10/3 42/11/3 17/12/3
f 96/13/4 2/14/4 32/15/4 103/16/4
f 19/17/5 5/18/5 16/19/5 23/20/5
f 114/21/1 113/22/1 41/23/1 53/24/1
f 107/25/4 98/26/4 12/27/4 55/28/4
f 100/29/4 96/13/4 8/30/4 27/31/4
f 59/32/2 23/33/2 16/34/2 58/35/2
f 77/36/4 1/37/4 15/38/4 78/39/4
f 17/12/3 42/11/3 44/40/3 22/41/3
f 14/42/5 50/43/5 52/44/5 48/45/5
f 1/46/3 17/12/3 22/41/3 15/47/3
f 57/48/2 43/49/2 23/33/2 59/32/2
f 41/50/5 19/17/5 23/20/5 43/51/5
f 2/7/2 18/6/2 31/52/2 32/53/2
f 93/54/3 99/9/3 17/12/3 1/46/3
f 25/55/2 4/56/2 18/6/2 28/5/2
f 41/57/2 25/55/2 28/5/2 19/58/2
f 98/26/4 100/29/4 27/31/4 12/27/4
f 19/58/2 28/5/2 24/8/2 5/59/2
f 113/22/1 101/1/1 25/4/1 41/23/1
f 19/60/4 23/61/4 28/62/4
f 41/23/1 25/4/1 43/63/1
f 25/64/6 28/65/6 23/20/6 43/51/6
f 103/16/4 32/15/4 38/66/4 105/67/4
f 31/52/2 30/68/2 36/69/2 37/70/2
f 20/71/7 8/72/7 33/73/7 34/74/7
f 18/6/2 4/56/2 30/68/2 31/52/2
f 10/75/7 20/71/7 34/74/7 29/76/7
f 94/2/1 10/77/1 29/78/1 102/79/1
f 106/80/8 105/81/8 38/82/8 37/83/8
f 104/84/8 106/80/8 37/83/8 36/85/8
f 102/79/1 29/78/1 35/86/1 104/87/1
f 34/74/7 33/73/7 39/88/7 40/89/7
f 29/76/7 34/74/7 40/89/7 35/90/7
f 32/53/2 31/52/2 37/70/2 38/91/2
f 71/92/1 50/93/1 42/94/1 66/95/1
f 61/96/1 13/97/1 43/63/1 57/98/1
f 13/97/1 49/99/1 41/23/1 43/63/1
f 50/93/1 14/100/1 44/101/1 42/94/1
f 62/102/1 51/103/1 47/104/1 63/105/1
f 72/106/7 14/107/7 48/108/7 74/109/7
f 49/110/3 13/111/3 47/112/3 51/113/3
f 75/114/2 3/115/2 50/116/2 71/117/2
f 65/118/2 45/119/2 51/120/2 62/121/2
f 3/115/2 46/122/2 52/123/2 50/116/2
f 45/119/2 6/124/2 49/125/2 51/120/2
f 76/126/2 65/118/2 62/121/2 73/127/2
f 6/124/2 64/128/2 60/129/2 49/125/2
f 75/114/2 64/128/2 65/118/2 76/126/2
f 13/130/7 61/131/7 63/132/7 47/133/7
f 73/134/1 62/102/1 63/105/1 74/135/1
f 79/136/7 87/137/7 88/138/7 80/139/7
f 49/99/1 60/140/1 53/24/1 41/23/1
f 69/141/2 57/48/2 59/32/2 70/142/2
f 5/143/4 54/144/4 58/145/4 16/146/4
f 70/142/2 59/32/2 58/35/2 78/147/2
f 110/148/4 107/25/4 55/28/4 67/149/4
f 109/150/1 114/21/1 53/24/1 66/95/1
f 97/151/1 109/150/1 66/95/1 42/94/1
f 93/152/4 110/148/4 67/149/4 7/153/4
f 22/154/2 70/142/2 78/147/2 15/155/2
f 44/156/2 69/141/2 70/142/2 22/154/2
f 14/100/1 72/157/1 69/158/1 44/101/1
f 52/159/1 73/134/1 74/135/1 48/160/1
f 3/115/2 75/114/2 76/126/2 46/122/2
f 46/122/2 76/126/2 73/127/2 52/123/2
f 64/128/2 75/114/2 71/117/2 60/129/2
f 72/161/3 74/162/3 82/163/3 90/164/3 86/165/3
f 60/140/1 71/92/1 66/95/1 53/24/1
f 54/144/4 77/36/4 78/39/4 58/145/4
f 81/166/5 89/167/5 87/168/5 79/169/5
f 82/170/4 80/171/4 83/172/4 84/173/4
f 82/170/4 81/174/4 79/175/4 80/171/4
f 61/176/5 85/177/5 89/167/5 81/166/5 63/178/5
f 90/179/2 82/180/2 84/181/2 92/182/2
f 74/183/4 63/184/4 81/174/4 82/170/4
f 92/185/3 84/186/3 83/187/3 91/188/3
f 80/139/7 88/138/7 91/189/7 83/190/7
f 72/191/7 86/192/7 85/193/7 61/131/7
f 89/194/1 90/195/1 88/196/1 87/197/1
f 85/198/1 86/199/1 90/195/1 89/194/1
f 88/196/1 90/195/1 92/200/1 91/201/1
f 57/98/1 69/158/1 72/157/1 61/96/1
f 1/37/4 77/36/4 110/148/4 93/152/4
f 9/202/1 68/203/1 109/150/1 97/151/1
f 68/203/1 56/204/1 114/21/1 109/150/1
f 77/36/4 54/144/4 107/25/4 110/148/4
f 30/205/1 102/79/1 104/87/1 36/206/1
f 35/207/8 40/208/8 106/80/8 104/84/8
f 40/208/8 39/209/8 105/81/8 106/80/8
f 4/3/1 94/2/1 102/79/1 30/205/1
f 33/210/4 103/16/4 105/67/4 39/211/4
f 11/212/1 26/213/1 101/1/1 113/22/1
f 5/143/4 24/214/4 100/29/4 98/26/4
f 7/215/3 21/216/3 99/9/3 93/54/3
f 24/214/4 2/14/4 96/13/4 100/29/4
f 54/144/4 5/143/4 98/26/4 107/25/4
f 226/217/5 120/218/5 122/219/5 228/220/5
f 8/30/4 96/13/4 103/16/4 33/210/4
f 21/216/3 9/221/3 97/10/3 99/9/3
f 26/213/1 10/77/1 94/2/1 101/1/1
f 119/222/1 120/223/1 56/204/1 11/212/1
f 225/224/1 119/222/1 11/212/1 113/22/1
f 120/223/1 226/225/1 114/21/1 56/204/1
f 226/225/1 225/224/1 113/22/1 114/21/1
f 122/226/1 121/227/1 227/228/1 228/229/1
f 64/230/9 108/231/9 118/232/9 65/233/9
f 119/234/10 225/235/10 227/236/10 121/237/10
f 112/238/2 111/239/2 120/240/2 119/241/2
f 116/242/2 115/243/2 121/244/2 122/245/2
f 111/239/2 116/242/2 122/245/2 120/240/2
f 115/243/2 112/238/2 119/241/2 121/244/2
f 203/246/1 139/247/1 126/248/1 196/249/1
f 140/250/7 138/251/7 124/252/7 134/253/7
f 201/254/3 133/255/3 148/256/3 199/257/3
f 198/258/4 205/259/4 143/260/4 124/261/4
f 135/262/5 137/263/5 132/264/5 127/265/5
f 216/266/1 159/267/1 147/268/1 215/269/1
f 209/270/4 55/28/4 12/27/4 200/271/4
f 202/272/4 27/31/4 8/30/4 198/258/4
f 163/273/7 162/274/7 132/275/7 137/276/7
f 179/277/4 180/278/4 131/279/4 123/280/4
f 133/255/3 136/281/3 150/282/3 148/256/3
f 130/283/5 154/284/5 158/285/5 156/286/5
f 123/287/3 131/288/3 136/281/3 133/255/3
f 161/289/7 163/273/7 137/276/7 149/290/7
f 147/291/5 149/292/5 137/263/5 135/262/5
f 124/252/7 143/293/7 142/294/7 134/253/7
f 195/295/3 123/287/3 133/255/3 201/254/3
f 139/296/7 140/250/7 134/253/7 126/297/7
f 147/298/7 135/299/7 140/250/7 139/296/7
f 200/271/4 12/27/4 27/31/4 202/272/4
f 135/299/7 127/300/7 138/251/7 140/250/7
f 215/269/1 147/268/1 139/247/1 203/246/1
f 135/301/4 140/302/4 137/303/4
f 147/268/1 149/304/1 139/247/1
f 139/305/11 149/292/11 137/263/11 140/306/11
f 205/259/4 207/307/4 146/308/4 143/260/4
f 142/294/7 145/309/7 144/310/7 141/311/7
f 134/253/7 142/294/7 141/311/7 126/297/7
f 196/249/1 204/312/1 29/78/1 10/77/1
f 208/313/12 145/314/12 146/315/12 207/316/12
f 206/317/12 144/318/12 145/314/12 208/313/12
f 204/312/1 206/319/1 35/86/1 29/78/1
f 143/293/7 146/320/7 145/309/7 142/294/7
f 173/321/1 170/322/1 148/323/1 156/324/1
f 165/325/1 161/326/1 149/304/1 129/327/1
f 129/327/1 149/304/1 147/268/1 155/328/1
f 156/324/1 148/323/1 150/329/1 130/330/1
f 166/331/1 167/332/1 153/333/1 157/334/1
f 174/335/2 176/336/2 154/337/2 130/338/2
f 155/339/3 157/340/3 153/341/3 129/342/3
f 177/343/7 173/344/7 156/345/7 125/346/7
f 169/347/7 166/348/7 157/349/7 151/350/7
f 125/346/7 156/345/7 158/351/7 152/352/7
f 151/350/7 157/349/7 155/353/7 128/354/7
f 178/355/7 175/356/7 166/348/7 169/347/7
f 128/354/7 155/353/7 164/357/7 168/358/7
f 177/343/7 178/355/7 169/347/7 168/358/7
f 129/359/2 153/360/2 167/361/2 165/362/2
f 175/363/1 176/364/1 167/332/1 166/331/1
f 181/365/2 182/366/2 190/367/2 189/368/2
f 155/328/1 147/268/1 159/267/1 164/369/1
f 171/370/7 172/371/7 163/273/7 161/289/7
f 127/372/4 132/373/4 162/374/4 160/375/4
f 172/371/7 180/376/7 162/274/7 163/273/7
f 212/377/4 67/149/4 55/28/4 209/270/4
f 211/378/1 170/322/1 159/267/1 216/266/1
f 199/379/1 148/323/1 170/322/1 211/378/1
f 195/380/4 7/153/4 67/149/4 212/377/4
f 136/381/7 131/382/7 180/376/7 172/371/7
f 150/383/7 136/381/7 172/371/7 171/370/7
f 130/330/1 150/329/1 171/384/1 174/385/1
f 158/386/1 154/387/1 176/364/1 175/363/1
f 125/346/7 152/352/7 178/355/7 177/343/7
f 152/352/7 158/351/7 175/356/7 178/355/7
f 168/358/7 164/357/7 173/344/7 177/343/7
f 174/388/3 188/389/3 192/390/3 184/391/3 176/392/3
f 164/369/1 159/267/1 170/322/1 173/321/1
f 160/375/4 162/374/4 180/278/4 179/277/4
f 183/393/5 181/394/5 189/395/5 191/396/5
f 184/397/4 186/398/4 185/399/4 182/400/4
f 184/397/4 182/400/4 181/401/4 183/402/4
f 165/403/5 167/404/5 183/393/5 191/396/5 187/405/5
f 192/406/7 194/407/7 186/408/7 184/409/7
f 176/410/4 184/397/4 183/402/4 167/411/4
f 194/412/3 193/413/3 185/414/3 186/415/3
f 182/366/2 185/416/2 193/417/2 190/367/2
f 174/418/2 165/419/2 187/420/2 188/421/2
f 191/422/1 189/423/1 190/424/1 192/425/1
f 187/426/1 191/422/1 192/425/1 188/427/1
f 190/424/1 193/428/1 194/429/1 192/425/1
f 161/326/1 165/325/1 174/385/1 171/384/1
f 123/280/4 195/380/4 212/377/4 179/277/4
f 9/202/1 199/379/1 211/378/1 68/203/1
f 68/203/1 211/378/1 216/266/1 56/204/1
f 179/277/4 212/377/4 209/270/4 160/375/4
f 141/430/1 144/431/1 206/319/1 204/312/1
f 35/207/12 206/317/12 208/313/12 40/208/12
f 40/208/12 208/313/12 207/316/12 39/209/12
f 126/248/1 141/430/1 204/312/1 196/249/1
f 33/210/4 39/211/4 207/307/4 205/259/4
f 11/212/1 215/269/1 203/246/1 26/213/1
f 127/372/4 200/271/4 202/272/4 138/432/4
f 7/215/3 195/295/3 201/254/3 21/216/3
f 138/432/4 202/272/4 198/258/4 124/261/4
f 160/375/4 209/270/4 200/271/4 127/372/4
f 230/433/5 232/434/5 224/435/5 222/436/5
f 8/30/4 33/210/4 205/259/4 198/258/4
f 21/216/3 201/254/3 199/257/3 9/221/3
f 26/213/1 203/246/1 196/249/1 10/77/1
f 221/437/1 11/212/1 56/204/1 222/438/1
f 229/439/1 215/269/1 11/212/1 221/437/1
f 222/438/1 56/204/1 216/266/1 230/440/1
f 230/440/1 216/266/1 215/269/1 229/439/1
f 224/441/1 232/442/1 231/443/1 223/444/1
f 65/445/13 118/446/13 117/447/13 45/448/13
f 221/449/14 223/450/14 231/451/14 229/452/14
f 214/453/7 221/454/7 222/455/7 213/456/7
f 218/457/7 224/458/7 223/459/7 217/460/7
f 213/456/7 222/455/7 224/458/7 218/457/7
f 217/460/7 223/459/7 221/454/7 214/453/7
f 111/461/4 112/462/4 214/463/4 213/464/4
f 116/465/5 111/466/5 213/467/5 218/468/5
f 116/469/1 218/470/1 217/471/1 115/472/1
f 115/473/3 217/474/3 214/475/3 112/476/3
f 108/477/7 95/478/7 225/479/7 226/480/7
f 117/481/7 118/482/7 228/483/7 227/484/7
f 118/482/7 108/477/7 226/480/7 228/483/7
f 95/478/7 117/481/7 227/484/7 225/479/7
f 197/485/2 210/486/2 230/487/2 229/488/2
f 220/489/2 219/490/2 231/491/2 232/492/2
f 210/486/2 220/489/2 232/492/2 230/487/2
f 219/490/2 197/485/2 229/488/2 231/491/2
f 64/493/15 6/494/15 95/495/15 108/496/15
f 6/497/16 45/498/16 117/499/16 95/500/16
f 169/501/17 151/502/17 219/503/17 220/504/17
f 128/505/18 197/506/18 219/507/18 151/508/18
f 168/509/19 210/510/19 197/511/19 128/512/19
f 168/513/20 169/514/20 220/515/20 210/516/20
o Cube.001
v 0.488663 1.164725 0.048615
v 0.488663 1.981301 0.048615
v 0.488663 1.164725 -0.054004
v 0.488663 1.981301 -0.054004
v 0.526045 1.164725 0.048615
v 0.526045 1.981301 0.048615
v 0.526045 1.164725 -0.054004
v 0.526045 1.981301 -0.054004
v 0.488663 1.716090 0.048615
v 0.488663 1.831440 0.048615
v 0.488663 1.831440 -0.054004
v 0.488663 1.716090 -0.054004
v 0.526045 1.831440 -0.054004
v 0.526045 1.716090 -0.054004
v 0.526045 1.831440 0.048615
v 0.526045 1.716090 0.048615
v 0.488663 1.731742 0.275093
v 0.488663 1.815788 0.275093
v 0.488663 1.815788 -0.280483
v 0.488663 1.731742 -0.280483
v 0.526045 1.815788 -0.280483
v 0.526045 1.731742 -0.280483
v 0.526045 1.815788 0.275093
v 0.526045 1.731742 0.275093
vt 0.408846 0.587965
vt 0.408846 0.705221
vt 0.591154 0.705221
vt 0.591154 0.587965
vt 0.454305 0.587965
vt 0.454305 0.705221
vt 0.545695 0.705221
vt 0.545695 0.587965
vt 0.591154 0.587965
vt 0.591154 0.705221
vt 0.408846 0.705221
vt 0.408846 0.587965
vt 0.545695 0.587965
vt 0.545695 0.705221
vt 0.454305 0.705221
vt 0.454305 0.587965
vt 0.454305 0.591154
vt 0.545695 0.591154
vt 0.545695 0.408846
vt 0.454305 0.408846
vt 0.545695 0.591154
vt 0.454305 0.591154
vt 0.454305 0.408846
vt 0.545695 0.408846
vt 0.545695 0.066305
vt 0.545695 0.497712
vt 0.454305 0.497712
vt 0.454305 0.066305
vt 0.545695 0.408846
vt 0.454305 0.408846
vt 0.454305 0.006501
vt 0.545695 0.006501
vt 0.591154 0.066305
vt 0.591154 0.497712
vt 0.408846 0.497712
vt 0.408846 0.066305
vt 0.454305 0.066305
vt 0.454305 0.497712
vt 0.545695 0.497712
vt 0.545695 0.066305
vt 0.454305 0.591154
vt 0.545695 0.591154
vt 0.545695 0.993499
vt 0.454305 0.993499
vt 0.408846 0.066305
vt 0.408846 0.497712
vt 0.591154 0.497712
vt 0.591154 0.066305
vt 0.545695 0.509958
vt 0.545695 0.575718
vt 0.454305 0.575718
vt 0.454305 0.509958
vt 0.454305 0.509958
vt 0.454305 0.575718
vt 0.545695 0.575718
vt 0.545695 0.509958
vt 0.006501 0.575718
vt 0.006501 0.509958
vt 0.993499 0.509958
vt 0.993499 0.575718
vt 0.993499 0.575718
vt 0.993499 0.509958
vt 0.545695 0.591154
vt 0.454305 0.591154
vt 0.454305 0.993499
vt 0.545695 0.993499
vt 0.006501 0.509958
vt 0.006501 0.575718
vt 0.454305 0.408846
vt 0.545695 0.408846
vt 0.545695 0.006501
vt 0.454305 0.006501
vn -1.0000 -0.0000 0.0000
vn 0.0000 -0.0000 -1.0000
vn 1.0000 0.0000 0.0000
vn 0.0000 -0.0000 1.0000
vn 0.0000 -1.0000 0.0000
vn 0.0000 1.0000 0.0000
vn 0.0000 0.9976 0.0689
vn 0.0000 0.9976 -0.0689
vn 0.0000 -0.9976 -0.0689
vn 0.0000 -0.9976 0.0689
usemtl Wood.001
s off
f 242/517/21 234/518/21 236/519/21 243/520/21
f 243/521/22 236/522/22 240/523/22 245/524/22
f 245/525/23 240/526/23 238/527/23 247/528/23
f 247/529/24 238/530/24 234/531/24 242/532/24
f 235/533/25 239/534/25 237/535/25 233/536/25
f 240/537/26 236/538/26 234/539/26 238/540/26
f 237/541/24 248/542/24 241/543/24 233/544/24
f 247/545/27 242/546/27 250/547/27 255/548/27
f 239/549/23 246/550/23 248/551/23 237/552/23
f 246/550/23 245/525/23 247/528/23 248/551/23
f 235/553/22 244/554/22 246/555/22 239/556/22
f 243/557/28 245/558/28 253/559/28 251/560/28
f 233/561/21 241/562/21 244/563/21 235/564/21
f 241/562/21 242/517/21 243/520/21 244/563/21
f 256/565/24 255/566/24 250/567/24 249/568/24
f 252/569/22 251/570/22 253/571/22 254/572/22
f 248/551/23 247/528/23 255/573/23 256/574/23
f 245/525/23 246/550/23 254/575/23 253/576/23
f 244/563/21 243/520/21 251/577/21 252/578/21
f 246/579/29 244/580/29 252/581/29 254/582/29
f 242/517/21 241/562/21 249/583/21 250/584/21
f 241/585/30 248/586/30 256/587/30 249/588/30
