# Blender v3.0.0 OBJ File: ''
# www.blender.org
mtllib untitled.mtl
o Cube_Cube.001
v 0.854848 -0.075485 2.243715
v 0.854848 0.075485 2.243715
v -0.854848 0.075485 2.243715
v -0.854848 -0.075485 2.243715
v 1.000000 -0.075485 -1.918035
v 1.000000 0.075485 -1.918035
v 1.000000 0.075485 1.918035
v 1.000000 -0.075485 1.918035
v -0.215815 0.075485 0.484227
v -0.215815 0.075485 -0.484227
v -0.897362 0.075485 -2.013425
v -1.000000 0.075485 -1.918035
v -1.000000 0.075485 1.918035
v -0.897362 0.075485 2.013425
v -0.854848 -0.075485 -2.243715
v -0.854848 0.075485 -2.243715
v 0.854848 0.075485 -2.243715
v 0.854848 -0.075485 -2.243715
v -1.000000 -0.075485 1.918035
v -1.000000 -0.075485 -1.918035
v 0.215815 0.075485 0.484227
v 0.215815 0.075485 -0.484227
v -0.506503 1.193091 -0.484227
v -0.506503 1.193091 0.484227
v 0.897362 0.075485 2.013425
v 0.897362 0.075485 -2.013425
v -0.660029 0.789688 -0.484227
v -0.660029 0.789688 0.484227
v -0.980553 0.075485 2.080875
v -0.927424 0.075485 2.200082
v -0.927424 0.075485 -2.200082
v -0.980553 0.075485 -2.080875
v 0.980553 0.075485 -2.080875
v 0.927424 0.075485 -2.200082
v 0.927424 0.075485 2.200082
v 0.980553 0.075485 2.080875
v -0.927424 -0.075485 2.200082
v -0.980553 -0.075485 2.080875
v -0.927424 -0.075485 -2.200082
v -0.980553 -0.075485 -2.080875
v 0.980553 -0.075485 -2.080875
v 0.927424 -0.075485 -2.200082
v 0.927424 -0.075485 2.200082
v 0.980553 -0.075485 2.080875
v -0.728181 0.288582 3.904275
v -0.496070 0.288582 3.904275
v -0.498066 0.329160 3.975069
v -0.726185 0.329160 3.975069
v -0.496070 4.873709 4.046508
v -0.498066 4.967309 3.975070
v -0.726185 4.967309 3.975070
v -0.728181 4.873709 4.046508
v -0.728181 4.875574 -4.009443
v -0.728181 4.875574 -4.147771
v -0.688540 4.875574 -4.083857
v -0.688540 4.875574 -3.945529
v -0.728181 4.873710 -4.261788
v -0.726185 4.967309 -4.190350
v -0.498066 4.967309 -4.190350
v -0.496070 4.873710 -4.261788
v -0.496070 5.007887 3.904276
v -0.728181 5.007887 3.904276
v -0.496070 4.873709 3.904276
v -0.728181 4.748919 -4.147771
v -0.728181 0.547552 3.932490
v -0.728181 0.420897 3.932490
v -0.728181 0.422761 4.046507
v -0.728181 0.420899 -4.009444
v -0.728181 0.420899 -4.147772
v -0.726185 0.329162 -4.190351
v -0.728181 0.288584 -4.119557
v -0.728181 4.875573 3.794163
v -0.728181 4.875573 3.932491
v -0.688540 4.748919 -3.945529
v -0.688540 4.748919 -4.083857
v -0.728181 4.748918 3.932491
v -0.688540 4.875573 3.996405
v -0.688540 4.748918 3.996405
v -0.728181 0.420897 3.794162
v -0.688540 0.420897 3.996404
v -0.688540 0.420897 3.858077
v -0.728181 0.547554 -4.147772
v -0.688540 0.420899 -4.083858
v -0.688540 0.547554 -4.083858
v -0.688540 0.420899 -3.945530
v -0.688540 4.875573 3.858078
v -0.688540 4.748918 3.858078
v -0.728181 5.007888 -4.119556
v -0.496070 5.007888 -4.119556
v -0.496070 4.873710 -4.119556
v -0.498066 0.329162 -4.190351
v -0.496070 0.288584 -4.119557
v -0.496070 0.422763 -4.119557
v -0.496070 0.422761 3.904275
v -0.496070 0.422763 -4.261789
v -0.688540 0.547552 3.858077
v -0.688540 0.547554 -3.945530
v -0.688540 0.547552 3.996404
v -0.728181 0.422763 -4.261789
v -0.496070 0.422761 4.046507
vt 0.974194 0.485702
vt 0.973061 0.485702
vt 0.973061 0.484733
vt 0.974194 0.484733
vt 0.974194 0.486835
vt 0.973061 0.486835
vt 0.973061 0.485866
vt 0.974194 0.485866
vt 0.972373 0.486228
vt 0.972373 0.486473
vt 0.971987 0.486859
vt 0.971928 0.486835
vt 0.971928 0.485866
vt 0.971987 0.485842
vt 0.974194 0.487968
vt 0.973061 0.487968
vt 0.973061 0.486999
vt 0.974194 0.486999
vt 0.974194 0.489101
vt 0.973061 0.489101
vt 0.973061 0.488132
vt 0.974194 0.488132
vt 0.972617 0.486228
vt 0.972617 0.486473
vt 0.972617 0.486473
vt 0.972617 0.486228
vt 0.972011 0.485784
vt 0.972979 0.485784
vt 0.973003 0.485842
vt 0.973003 0.486859
vt 0.972979 0.486917
vt 0.972011 0.486917
vt 0.972373 0.486473
vt 0.972373 0.486228
vt 0.971928 0.485825
vt 0.971955 0.485810
vt 0.971955 0.486891
vt 0.971928 0.486876
vt 0.973035 0.486891
vt 0.973020 0.486917
vt 0.973020 0.485784
vt 0.973035 0.485810
vt 0.973020 0.485825
vt 0.973061 0.484692
vt 0.974194 0.484692
vt 0.974194 0.489183
vt 0.973061 0.489183
vt 0.973061 0.489142
vt 0.974194 0.489142
vt 0.974194 0.488009
vt 0.973061 0.488009
vt 0.974194 0.488091
vt 0.973061 0.488091
vt 0.974194 0.486876
vt 0.973061 0.486876
vt 0.974194 0.486958
vt 0.973061 0.486958
vt 0.974194 0.485743
vt 0.973061 0.485743
vt 0.974194 0.485825
vt 0.973061 0.485825
vt 0.975327 0.486835
vt 0.975316 0.486876
vt 0.975286 0.486906
vt 0.975245 0.486917
vt 0.974276 0.486917
vt 0.974235 0.486906
vt 0.974235 0.485795
vt 0.974276 0.485784
vt 0.975245 0.485784
vt 0.975286 0.485795
vt 0.975316 0.485825
vt 0.975327 0.485866
vt 0.974194 0.488428
vt 0.973061 0.488428
vt 0.973061 0.488050
vt 0.974194 0.488050
vt 0.973439 0.488050
vt 0.973061 0.488050
vt 0.973061 0.486917
vt 0.973439 0.486917
vt 0.973063 0.486172
vt 0.973063 0.485816
vt 0.973063 0.485816
vt 0.973063 0.486172
vt 0.973439 0.485784
vt 0.973061 0.485784
vt 0.973061 0.484651
vt 0.973439 0.484651
vt 0.975327 0.486162
vt 0.974194 0.486162
vt 0.974194 0.485784
vt 0.975327 0.485784
vt 0.972306 0.486162
vt 0.971928 0.486162
vt 0.971928 0.485784
vt 0.972306 0.485784
vt 0.973440 0.485816
vt 0.973816 0.486885
vt 0.974192 0.486885
vt 0.974194 0.486917
vt 0.973817 0.486917
vt 0.974192 0.486172
vt 0.974192 0.485816
vt 0.974194 0.485784
vt 0.974194 0.486162
vt 0.973063 0.486529
vt 0.973063 0.486885
vt 0.973061 0.486539
vt 0.973440 0.486172
vt 0.973440 0.485816
vt 0.973440 0.486885
vt 0.973063 0.486885
vt 0.973440 0.486885
vt 0.974192 0.486529
vt 0.974192 0.486885
vt 0.974192 0.486529
vt 0.973816 0.485816
vt 0.974192 0.485816
vt 0.973816 0.485816
vt 0.974192 0.486172
vt 0.973063 0.486529
vt 0.973440 0.486529
vt 0.973061 0.486162
vt 0.974194 0.486539
vt 0.972306 0.486917
vt 0.971928 0.486917
vt 0.971928 0.486539
vt 0.972306 0.486539
vt 0.975327 0.486917
vt 0.974194 0.486917
vt 0.974194 0.486539
vt 0.975327 0.486539
vt 0.974194 0.489183
vt 0.973061 0.489183
vt 0.973061 0.488805
vt 0.974194 0.488805
vt 0.973061 0.486539
vt 0.972684 0.486539
vt 0.972684 0.486162
vt 0.973061 0.486162
vt 0.973061 0.486917
vt 0.972684 0.486917
vt 0.973816 0.486529
vt 0.973816 0.486172
vt 0.973816 0.486885
vt 0.973817 0.485784
vt 0.972684 0.485784
vt 0.973061 0.485784
vt 0.973817 0.484651
vt 0.974194 0.484651
vt 0.974194 0.488050
vt 0.973817 0.488050
vt 0.979516 0.096432
vt 0.983693 0.096432
vt 0.983693 0.100389
vt 0.979516 0.100389
vn 0.0000 0.0000 1.0000
vn 1.0000 0.0000 0.0000
vn 0.0000 1.0000 0.0000
vn 0.0000 0.0000 -1.0000
vn -1.0000 0.0000 0.0000
vn 0.8399 0.5428 0.0000
vn -0.9346 0.3557 0.0000
vn -0.8492 -0.5281 -0.0000
vn -0.5153 0.0000 0.8570
vn -0.9134 0.0000 0.4071
vn -0.9929 0.0000 0.1186
vn -0.5153 0.0000 -0.8570
vn -0.9134 0.0000 -0.4071
vn -0.9929 0.0000 -0.1186
vn 0.9929 0.0000 -0.1186
vn 0.9134 0.0000 -0.4071
vn 0.5153 0.0000 -0.8570
vn 0.5153 0.0000 0.8570
vn 0.9134 0.0000 0.4071
vn 0.9929 0.0000 0.1186
vn -0.0000 -1.0000 -0.0000
vn 0.0000 -0.8676 0.4973
vn 0.0000 0.6067 0.7949
vn 0.0000 0.6067 -0.7949
vn 0.0000 0.8676 0.4973
vn 0.9999 0.0124 0.0117
vn -1.0000 0.0073 -0.0000
vn -1.0000 0.0025 -0.0092
vn -1.0000 0.0084 -0.0010
vn -1.0000 0.0015 0.0000
vn -1.0000 -0.0073 0.0000
vn -1.0000 -0.0025 0.0092
vn -1.0000 -0.0084 0.0010
vn -1.0000 -0.0015 -0.0000
vn -1.0000 -0.0017 -0.0083
vn -1.0000 -0.0025 -0.0092
vn -1.0000 -0.0084 -0.0010
vn -1.0000 -0.0002 -0.0014
vn -1.0000 0.0017 0.0083
vn -1.0000 0.0025 0.0092
vn -1.0000 0.0084 0.0010
vn -1.0000 0.0002 0.0014
vn 0.8498 0.0000 -0.5271
vn -0.8498 -0.0000 0.5271
vn -1.0000 0.0017 -0.0083
vn -1.0000 0.0002 -0.0014
vn -1.0000 -0.0017 0.0083
vn -1.0000 -0.0002 0.0014
vn 0.9999 0.0124 -0.0117
vn 0.0000 0.8676 -0.4973
vn 0.0000 -0.8676 -0.4973
vn 0.9999 -0.0124 -0.0117
vn -1.0000 0.0073 0.0001
vn -1.0000 -0.0073 -0.0001
vn 0.9999 -0.0124 0.0117
vn 0.0000 -0.6067 -0.7949
vn 0.0000 -0.6067 0.7949
usemtl Material.003
s 1
f 1/1/1 2/2/1 3/3/1 4/4/1
f 5/5/2 6/6/2 7/7/2 8/8/2
f 9/9/3 10/10/3 11/11/3 12/12/3 13/13/3 14/14/3
f 15/15/4 16/16/4 17/17/4 18/18/4
f 19/19/5 13/20/5 12/21/5 20/22/5
f 21/23/6 22/24/6 23/25/6 24/26/6
f 21/23/3 9/9/3 14/14/3 3/27/3 2/28/3 25/29/3
f 22/24/3 21/23/3 25/29/3 7/7/3 6/6/3 26/30/3
f 10/10/3 22/24/3 26/30/3 17/31/3 16/32/3 11/11/3
f 23/25/7 27/33/7 28/34/7 24/26/7
f 10/10/8 9/9/8 28/34/8 27/33/8
f 9/9/1 21/23/1 24/26/1 28/34/1
f 22/24/4 10/10/4 27/33/4 23/25/4
f 13/13/3 29/35/3 14/14/3
f 29/35/3 30/36/3 14/14/3
f 30/36/3 3/27/3 14/14/3
f 16/32/3 31/37/3 11/11/3
f 31/37/3 32/38/3 11/11/3
f 32/38/3 12/12/3 11/11/3
f 6/6/3 33/39/3 26/30/3
f 33/39/3 34/40/3 26/30/3
f 34/40/3 17/31/3 26/30/3
f 2/28/3 35/41/3 25/29/3
f 35/41/3 36/42/3 25/29/3
f 36/42/3 7/43/3 25/29/3
f 4/4/9 3/3/9 30/44/9 37/45/9
f 37/46/10 30/47/10 29/48/10 38/49/10
f 38/49/11 29/48/11 13/20/11 19/19/11
f 16/16/12 15/15/12 39/50/12 31/51/12
f 31/51/13 39/50/13 40/52/13 32/53/13
f 32/53/14 40/52/14 20/22/14 12/21/14
f 6/6/15 5/5/15 41/54/15 33/55/15
f 33/55/16 41/54/16 42/56/16 34/57/16
f 34/57/17 42/56/17 18/18/17 17/17/17
f 2/2/18 1/1/18 43/58/18 35/59/18
f 35/59/19 43/58/19 44/60/19 36/61/19
f 36/61/20 44/60/20 8/8/20 7/7/20
f 20/62/21 40/63/21 39/64/21 15/65/21 18/66/21 42/67/21 41/54/21 5/5/21 8/8/21 44/60/21 43/68/21 1/69/21 4/70/21 37/71/21 38/72/21 19/73/21
f 45/74/22 46/75/22 47/76/22 48/77/22
f 49/78/23 50/79/23 51/80/23 52/81/23
f 53/82/21 54/83/21 55/84/21 56/85/21
f 57/86/24 58/87/24 59/88/24 60/89/24
f 61/90/25 62/91/25 51/92/25 50/93/25
f 63/94/26 61/95/26 50/96/26 49/97/26
f 64/98/27 54/83/28 58/87/29 57/86/30
f 65/99/31 66/100/32 48/101/33 67/102/34
f 68/103/35 69/104/36 70/105/37 71/106/38
f 72/107/39 73/108/40 51/80/41 62/109/42
f 74/110/5 56/85/5 55/84/5 75/111/5
f 76/112/43 73/108/43 77/113/43 78/114/43
f 79/115/3 66/100/3 80/116/3 81/117/3
f 82/118/44 69/104/44 83/119/44 84/120/44
f 69/104/3 68/103/3 85/121/3 83/119/3
f 68/103/3 79/115/3 81/117/3 85/121/3
f 78/114/5 77/113/5 86/122/5 87/123/5
f 87/123/5 86/122/5 56/85/5 74/110/5
f 54/83/28 53/82/45 88/124/46 58/87/29
f 53/82/45 72/107/39 62/109/42 88/124/46
f 66/100/32 79/115/47 45/125/48 48/101/33
f 79/115/47 68/103/35 71/106/38 45/125/48
f 60/126/49 59/127/49 89/128/49 90/129/49
f 90/129/2 89/128/2 61/95/2 63/94/2
f 59/130/50 58/131/50 88/132/50 89/133/50
f 89/133/3 88/132/3 62/91/3 61/90/3
f 73/108/21 72/107/21 86/122/21 77/113/21
f 72/107/21 53/82/21 56/85/21 86/122/21
f 70/134/51 91/135/51 92/136/51 71/137/51
f 71/137/21 92/136/21 46/75/21 45/74/21
f 92/138/2 93/139/2 94/140/2 46/141/2
f 93/139/2 90/129/2 63/94/2 94/140/2
f 91/142/52 95/143/52 93/139/52 92/138/52
f 95/143/2 60/126/2 90/129/2 93/139/2
f 81/117/5 96/144/5 97/145/5 85/121/5
f 80/116/5 98/146/5 96/144/5 81/117/5
f 98/146/5 78/114/5 87/123/5 96/144/5
f 54/83/44 64/98/44 75/111/44 55/84/44
f 64/98/44 82/118/44 84/120/44 75/111/44
f 66/100/43 65/99/43 98/146/43 80/116/43
f 65/99/43 76/112/43 78/114/43 98/146/43
f 85/121/5 97/145/5 84/120/5 83/119/5
f 97/145/5 74/110/5 75/111/5 84/120/5
f 73/108/40 76/112/53 52/81/30 51/80/41
f 76/112/53 65/99/31 67/102/34 52/81/30
f 69/104/36 82/118/54 99/147/34 70/105/37
f 82/118/54 64/98/27 57/86/30 99/147/34
f 46/141/55 94/140/55 100/148/55 47/149/55
f 94/140/2 63/94/2 49/97/2 100/148/2
f 70/105/56 99/147/56 95/150/56 91/151/56
f 99/147/4 57/86/4 60/89/4 95/150/4
f 47/152/57 100/153/57 67/102/57 48/101/57
f 100/153/1 49/78/1 52/81/1 67/102/1
f 96/154/5 87/155/5 74/156/5 97/157/5
