# Blender v2.93.0 OBJ File: ''
# www.blender.org
mtllib balisep.mtl
o Cylinder.002
v 0.000000 -1.502255 -0.099360
v 0.000000 -1.491316 -0.099360
v 0.019384 -1.491316 -0.097451
v 0.019384 -1.502255 -0.097451
v 0.038023 -1.491316 -0.091797
v 0.038023 -1.502255 -0.091797
v 0.055201 -1.491316 -0.082615
v 0.055201 -1.502255 -0.082615
v 0.070258 -1.491316 -0.070259
v 0.070258 -1.502255 -0.070259
v 0.082615 -1.491316 -0.055202
v 0.082615 -1.502255 -0.055202
v 0.091797 -1.491316 -0.038024
v 0.091797 -1.502255 -0.038024
v 0.097451 -1.491316 -0.019385
v 0.097451 -1.502255 -0.019385
v 0.099360 -1.491316 -0.000000
v 0.099360 -1.502255 -0.000000
v 0.097451 -1.491316 0.019384
v 0.097451 -1.502255 0.019384
v 0.091797 -1.491316 0.038023
v 0.091797 -1.502255 0.038023
v 0.082615 -1.491316 0.055201
v 0.082615 -1.502255 0.055201
v 0.070258 -1.491316 0.070258
v 0.070258 -1.502255 0.070258
v 0.055201 -1.491316 0.082614
v 0.055201 -1.502255 0.082614
v 0.038023 -1.491316 0.091796
v 0.038023 -1.502255 0.091796
v 0.019384 -1.491316 0.097451
v 0.019384 -1.502255 0.097451
v 0.000000 -1.491316 0.099360
v 0.000000 -1.502255 0.099360
v -0.019384 -1.491316 0.097451
v -0.019384 -1.502255 0.097451
v -0.038023 -1.491316 0.091796
v -0.038023 -1.502255 0.091796
v -0.055201 -1.491316 0.082614
v -0.055201 -1.502255 0.082614
v -0.070258 -1.491316 0.070258
v -0.070258 -1.502255 0.070258
v -0.082615 -1.491316 0.055201
v -0.082615 -1.502255 0.055201
v -0.091797 -1.491316 0.038023
v -0.091797 -1.502255 0.038023
v -0.097451 -1.491316 0.019384
v -0.097451 -1.502255 0.019384
v -0.099360 -1.491316 -0.000000
v -0.099360 -1.502255 -0.000000
v -0.097451 -1.491316 -0.019385
v -0.097451 -1.502255 -0.019385
v -0.091797 -1.491316 -0.038024
v -0.091797 -1.502255 -0.038024
v -0.082615 -1.491316 -0.055202
v -0.082615 -1.502255 -0.055202
v -0.070258 -1.491316 -0.070259
v -0.070258 -1.502255 -0.070259
v -0.055201 -1.491316 -0.082615
v -0.055201 -1.502255 -0.082615
v -0.038023 -1.491316 -0.091797
v -0.038023 -1.502255 -0.091797
v 0.076120 -1.491316 -0.015142
v 0.077612 -1.491316 -0.000000
v -0.019384 -1.491316 -0.097451
v -0.019384 -1.502255 -0.097451
v 0.056987 -1.464716 -0.011336
v 0.058104 -1.464716 -0.000000
v 0.000000 -1.491316 0.077611
v -0.015142 -1.491316 0.076120
v -0.076120 -1.491316 -0.015142
v -0.071704 -1.491316 -0.029701
v 0.043119 -1.491316 -0.064532
v 0.054880 -1.491316 -0.054880
v 0.054880 -1.491316 0.054879
v 0.043119 -1.491316 0.064531
v -0.064532 -1.491316 0.043118
v -0.071704 -1.491316 0.029700
v -0.029701 -1.491316 -0.071704
v -0.015142 -1.491316 -0.076120
v 0.076120 -1.491316 0.015141
v -0.029701 -1.491316 0.071704
v -0.064532 -1.491316 -0.043119
v 0.064532 -1.491316 -0.043119
v 0.029701 -1.491316 0.071704
v -0.076120 -1.491316 0.015141
v 0.000000 -1.491316 -0.077612
v 0.015142 -1.491316 -0.076120
v 0.071704 -1.491316 0.029700
v -0.043119 -1.491316 0.064531
v -0.054880 -1.491316 -0.054880
v 0.071704 -1.491316 -0.029701
v 0.015142 -1.491316 0.076120
v -0.077612 -1.491316 -0.000000
v 0.029701 -1.491316 -0.071704
v 0.064532 -1.491316 0.043118
v -0.054880 -1.491316 0.054879
v -0.043119 -1.491316 -0.064532
v 0.048312 -1.464716 0.032281
v 0.053681 -1.464716 0.022235
v 0.040538 -1.464716 0.016791
v 0.036483 -1.464716 0.024377
v -0.048312 -1.464716 0.032281
v -0.053681 -1.464716 0.022235
v 0.056987 -1.464716 0.011335
v -0.056987 -1.464716 0.011335
v -0.058104 -1.464716 -0.000000
v -0.056987 -1.464716 -0.011336
v 0.041086 -1.464716 0.041086
v -0.053681 -1.464716 -0.022236
v 0.032281 -1.464716 0.048311
v -0.048312 -1.464716 -0.032282
v 0.022235 -1.464716 0.053681
v 0.000000 -1.464716 -0.058104
v 0.011335 -1.464716 -0.056988
v -0.041086 -1.464716 -0.041086
v 0.011335 -1.464716 0.056987
v 0.022235 -1.464716 -0.053682
v -0.032281 -1.464716 -0.048312
v 0.000000 -1.464716 0.058104
v 0.032281 -1.464716 -0.048312
v -0.022235 -1.464716 -0.053682
v -0.011335 -1.464716 0.056987
v 0.041086 -1.464716 -0.041086
v -0.011335 -1.464716 -0.056988
v -0.022235 -1.464716 0.053681
v 0.048312 -1.464716 -0.032282
v -0.032281 -1.464716 0.048311
v 0.053681 -1.464716 -0.022236
v -0.041086 -1.464716 0.041086
v 0.016791 -1.464716 0.040538
v 0.024377 -1.464716 0.036483
v 0.026165 -1.414283 0.039158
v 0.018023 -1.414283 0.043510
v -0.043878 -1.464716 -0.000000
v -0.043035 -1.464716 -0.008561
v 0.031026 -1.464716 0.031026
v -0.040538 -1.464716 -0.016792
v -0.036483 -1.464716 -0.024378
v 0.000000 -1.464716 -0.043878
v 0.008560 -1.464716 -0.043036
v -0.031026 -1.464716 -0.031027
v 0.008560 -1.464716 0.043035
v 0.016791 -1.464716 -0.040538
v -0.024377 -1.464716 -0.036484
v 0.000000 -1.464716 0.043878
v 0.024377 -1.464716 -0.036484
v -0.016791 -1.464716 -0.040538
v -0.008560 -1.464716 0.043035
v 0.031026 -1.464716 -0.031027
v -0.008560 -1.464716 -0.043036
v -0.016791 -1.464716 0.040538
v 0.036483 -1.464716 -0.024378
v -0.024377 -1.464716 0.036483
v 0.040538 -1.464716 -0.016792
v -0.031026 -1.464716 0.031026
v 0.043035 -1.464716 -0.008561
v -0.036483 -1.464716 0.024377
v 0.043878 -1.464716 -0.000000
v -0.040538 -1.464716 0.016791
v 0.043035 -1.464716 0.008560
v -0.043035 -1.464716 0.008560
v -0.018023 -0.768933 0.043511
v -0.009188 -0.768933 0.046191
v -0.009188 -0.707042 0.046191
v -0.018023 -0.707042 0.043511
v 0.000000 -1.414283 -0.047095
v 0.009188 -1.414283 -0.046191
v -0.039158 -1.414283 -0.026165
v -0.033301 -1.414283 -0.033302
v 0.009188 -1.414283 0.046190
v 0.018023 -1.414283 -0.043511
v -0.026165 -1.414283 -0.039159
v 0.000000 -1.414283 0.047095
v 0.026165 -1.414283 -0.039159
v -0.018023 -1.414283 -0.043511
v -0.009188 -1.414283 0.046190
v 0.033301 -1.414283 -0.033302
v -0.009188 -1.414283 -0.046191
v -0.018023 -1.414283 0.043510
v 0.039158 -1.414283 -0.026165
v -0.026165 -1.414283 0.039158
v 0.043510 -1.414283 -0.018023
v -0.033301 -1.414283 0.033301
v 0.046190 -1.414283 -0.009188
v -0.039158 -1.414283 0.026165
v 0.047095 -1.414283 -0.000000
v -0.043510 -1.414283 0.018022
v 0.046190 -1.414283 0.009187
v -0.046190 -1.414283 0.009187
v 0.043510 -1.414283 0.018022
v -0.047095 -1.414283 -0.000000
v 0.039158 -1.414283 0.026165
v -0.046190 -1.414283 -0.009188
v 0.033301 -1.414283 0.033301
v -0.043510 -1.414283 -0.018023
v 0.018023 -0.768933 -0.043510
v 0.009188 -0.768933 -0.046190
v 0.009188 -0.707042 -0.046190
v 0.018023 -0.707042 -0.043510
v 0.039158 -0.768933 -0.026165
v 0.033301 -0.768933 -0.033301
v 0.033301 -0.707042 -0.033301
v 0.039158 -0.707042 -0.026165
v -0.026165 -0.768933 0.039159
v -0.026165 -0.707042 0.039159
v 0.043510 -0.768933 -0.018022
v 0.043510 -0.707042 -0.018022
v 0.026165 -0.768933 -0.039158
v 0.026165 -0.707042 -0.039158
v -0.033301 -0.768933 0.033302
v -0.033301 -0.707042 0.033302
v 0.046190 -0.768933 -0.009187
v 0.046190 -0.707042 -0.009187
v -0.039158 -0.768933 0.026165
v -0.039158 -0.707042 0.026165
v 0.047095 -0.768933 0.000001
v 0.047095 -0.707042 0.000001
v -0.043510 -0.768933 0.018023
v -0.043510 -0.707042 0.018023
v 0.046190 -0.768933 0.009188
v 0.046190 -0.707042 0.009188
v -0.046190 -0.768933 0.009188
v -0.046190 -0.707042 0.009188
v 0.043510 -0.768933 0.018023
v 0.043510 -0.707042 0.018023
v -0.047095 -0.768933 0.000001
v -0.047095 -0.707042 0.000001
v 0.039158 -0.768933 0.026165
v 0.039158 -0.707042 0.026165
v -0.046190 -0.768933 -0.009187
v -0.046190 -0.707042 -0.009187
v 0.033301 -0.768933 0.033302
v 0.033301 -0.707042 0.033302
v -0.043510 -0.768933 -0.018022
v -0.043510 -0.707042 -0.018022
v 0.026165 -0.768933 0.039159
v 0.026165 -0.707042 0.039159
v -0.039158 -0.768933 -0.026165
v -0.039158 -0.707042 -0.026165
v 0.018023 -0.768933 0.043511
v 0.018023 -0.707042 0.043511
v -0.033301 -0.768933 -0.033301
v -0.033301 -0.707042 -0.033301
v 0.009188 -0.768933 0.046191
v 0.009188 -0.707042 0.046191
v 0.002580 -0.701945 -0.012968
v 0.000000 -0.701945 -0.013222
v -0.002580 -0.701945 -0.012968
v -0.005060 -0.701945 -0.012215
v -0.007346 -0.701945 -0.010994
v -0.009350 -0.701945 -0.009349
v -0.010994 -0.701945 -0.007345
v -0.012216 -0.701945 -0.005060
v -0.012968 -0.701945 -0.002579
v -0.013223 -0.701945 0.000001
v -0.012968 -0.701945 0.002580
v -0.012216 -0.701945 0.005061
v -0.010994 -0.701945 0.007346
v -0.009350 -0.701945 0.009350
v -0.007346 -0.701945 0.010994
v -0.005060 -0.701945 0.012216
v -0.002580 -0.701945 0.012969
v 0.000000 -0.701945 0.013223
v 0.002580 -0.701945 0.012969
v 0.005060 -0.701945 0.012216
v 0.007346 -0.701945 0.010994
v 0.009350 -0.701945 0.009350
v 0.010994 -0.701945 0.007346
v 0.012216 -0.701945 0.005061
v 0.012968 -0.701945 0.002580
v 0.013222 -0.701945 0.000001
v 0.012968 -0.701945 -0.002579
v 0.012216 -0.701945 -0.005060
v 0.010994 -0.701945 -0.007345
v 0.009350 -0.701945 -0.009349
v 0.007346 -0.701945 -0.010994
v 0.005060 -0.701945 -0.012215
v -0.026165 -0.768933 -0.039158
v -0.026165 -0.707042 -0.039158
v 0.000000 -0.768933 0.047096
v 0.000000 -0.707042 0.047096
v 0.000000 -0.768933 -0.047094
v -0.009188 -0.768933 -0.046190
v -0.009188 -0.707042 -0.046190
v 0.000000 -0.707042 -0.047094
v -0.018023 -0.768933 -0.043510
v -0.018023 -0.707042 -0.043510
v 0.000000 -0.704563 -0.037174
v 0.007252 -0.704563 -0.036459
v 0.014226 -0.704563 -0.034344
v 0.020653 -0.704563 -0.030909
v 0.026286 -0.704563 -0.026286
v 0.030909 -0.704563 -0.020653
v 0.034345 -0.704563 -0.014225
v 0.036460 -0.704563 -0.007252
v 0.037174 -0.704563 0.000001
v 0.036460 -0.704563 0.007253
v 0.034345 -0.704563 0.014226
v 0.030909 -0.704563 0.020653
v 0.026286 -0.704563 0.026286
v 0.020653 -0.704563 0.030909
v 0.014226 -0.704563 0.034345
v 0.007252 -0.704563 0.036460
v 0.000000 -0.704563 0.037175
v -0.007252 -0.704563 0.036460
v -0.014226 -0.704563 0.034345
v -0.020653 -0.704563 0.030909
v -0.026286 -0.704563 0.026286
v -0.030909 -0.704563 0.020653
v -0.034345 -0.704563 0.014226
v -0.036460 -0.704563 0.007253
v -0.037174 -0.704563 0.000001
v -0.036460 -0.704563 -0.007252
v -0.034345 -0.704563 -0.014225
v -0.030909 -0.704563 -0.020653
v -0.026286 -0.704563 -0.026286
v -0.020653 -0.704563 -0.030909
v -0.014226 -0.704563 -0.034344
v -0.007252 -0.704563 -0.036459
v 0.000000 -0.981830 -0.047094
v 0.009188 -0.981830 -0.046190
v -0.018023 -0.981830 -0.043510
v -0.009188 -0.981830 -0.046190
v 0.026165 -0.981830 -0.039159
v 0.033301 -0.981830 -0.033302
v 0.000000 -0.981830 0.047096
v -0.009188 -0.981830 0.046190
v -0.026165 -0.981830 -0.039159
v 0.009188 -0.981830 0.046190
v -0.033301 -0.981830 -0.033302
v 0.018023 -0.981830 0.043511
v -0.039158 -0.981830 -0.026165
v 0.026165 -0.981830 0.039159
v -0.043510 -0.981830 -0.018022
v 0.033301 -0.981830 0.033302
v -0.046190 -0.981830 -0.009187
v 0.039158 -0.981830 0.026165
v -0.047095 -0.981830 0.000001
v 0.043510 -0.981830 0.018023
v -0.046190 -0.981830 0.009188
v 0.046190 -0.981830 0.009188
v -0.043510 -0.981830 0.018023
v 0.047095 -0.981830 0.000001
v -0.039158 -0.981830 0.026165
v 0.046190 -0.981830 -0.009187
v -0.033301 -0.981830 0.033302
v 0.043510 -0.981830 -0.018022
v -0.026165 -0.981830 0.039159
v 0.018023 -0.981830 -0.043510
v 0.039158 -0.981830 -0.026165
v -0.018023 -0.981830 0.043511
v 0.000000 -0.900745 -0.047094
v 0.009188 -0.900745 -0.046190
v -0.018023 -0.900745 -0.043510
v -0.009188 -0.900745 -0.046190
v 0.026165 -0.900745 -0.039158
v 0.033301 -0.900745 -0.033301
v 0.000000 -0.900745 0.047096
v -0.009188 -0.900745 0.046190
v -0.026165 -0.900745 -0.039158
v 0.009188 -0.900745 0.046190
v -0.033301 -0.900745 -0.033301
v 0.018023 -0.900745 0.043511
v -0.039158 -0.900745 -0.026165
v 0.026165 -0.900745 0.039159
v -0.043510 -0.900745 -0.018022
v 0.033301 -0.900745 0.033302
v -0.046190 -0.900745 -0.009187
v 0.039158 -0.900745 0.026165
v -0.047095 -0.900745 0.000001
v 0.043510 -0.900745 0.018023
v -0.046190 -0.900745 0.009188
v 0.046190 -0.900745 0.009188
v -0.043510 -0.900745 0.018023
v 0.047095 -0.900745 0.000001
v -0.039158 -0.900745 0.026165
v 0.046190 -0.900745 -0.009187
v -0.033301 -0.900745 0.033302
v 0.043510 -0.900745 -0.018022
v -0.026165 -0.900745 0.039159
v 0.018023 -0.900745 -0.043510
v 0.039158 -0.900745 -0.026165
v -0.018023 -0.900745 0.043511
v 0.000000 -0.830825 -0.047094
v 0.009188 -0.830825 -0.046190
v -0.018023 -0.830825 -0.043510
v -0.009188 -0.830825 -0.046190
v 0.026165 -0.830825 -0.039158
v 0.033301 -0.830825 -0.033301
v 0.000000 -0.830825 0.047096
v -0.009188 -0.830825 0.046191
v -0.026165 -0.830825 -0.039158
v 0.009188 -0.830825 0.046191
v -0.033301 -0.830825 -0.033301
v 0.018023 -0.830825 0.043511
v -0.039158 -0.830825 -0.026165
v 0.026165 -0.830825 0.039159
v -0.043510 -0.830825 -0.018022
v 0.033301 -0.830825 0.033302
v -0.046190 -0.830825 -0.009187
v 0.039158 -0.830825 0.026165
v -0.047095 -0.830825 0.000001
v 0.043510 -0.830825 0.018023
v -0.046190 -0.830825 0.009188
v 0.046190 -0.830825 0.009188
v -0.043510 -0.830825 0.018023
v 0.047095 -0.830825 0.000001
v -0.039158 -0.830825 0.026165
v 0.046190 -0.830825 -0.009187
v -0.033301 -0.830825 0.033302
v 0.043510 -0.830825 -0.018022
v -0.026165 -0.830825 0.039159
v 0.018023 -0.830825 -0.043510
v 0.039158 -0.830825 -0.026165
v -0.018023 -0.830825 0.043511
vt 0.923602 0.737035
vt 0.923602 0.924928
vt 0.911852 0.924928
vt 0.911852 0.737035
vt 0.900103 0.924928
vt 0.900103 0.737035
vt 0.888353 0.924928
vt 0.888353 0.737035
vt 0.876638 0.924928
vt 0.876638 0.737035
vt 0.864889 0.924928
vt 0.864889 0.737035
vt 0.853139 0.924928
vt 0.853139 0.737035
vt 0.841389 0.924928
vt 0.841389 0.737035
vt 0.829639 0.924928
vt 0.829639 0.737035
vt 0.817923 0.924928
vt 0.817923 0.737035
vt 0.806173 0.924928
vt 0.806173 0.737035
vt 0.794423 0.924928
vt 0.794423 0.737035
vt 0.782673 0.924928
vt 0.782673 0.737035
vt 0.770959 0.924928
vt 0.770959 0.737035
vt 0.759209 0.924928
vt 0.759209 0.737035
vt 0.747459 0.924928
vt 0.747459 0.737035
vt 0.735710 0.924928
vt 0.735710 0.737035
vt 0.723960 0.924928
vt 0.723960 0.737035
vt 0.712245 0.924928
vt 0.712245 0.737035
vt 0.700495 0.924928
vt 0.700495 0.737035
vt 0.688746 0.924928
vt 0.688746 0.737035
vt 0.676996 0.924928
vt 0.676996 0.737035
vt 0.665279 0.924928
vt 0.665279 0.737035
vt 0.653529 0.924928
vt 0.653529 0.737035
vt 0.641780 0.924928
vt 0.641780 0.737035
vt 0.630030 0.924928
vt 0.630030 0.737035
vt 0.618280 0.924928
vt 0.618280 0.737035
vt 0.606565 0.924928
vt 0.606565 0.737035
vt 0.594816 0.924928
vt 0.594816 0.737035
vt 0.583066 0.924928
vt 0.583066 0.737035
vt 0.571316 0.924928
vt 0.571316 0.737035
vt 0.841389 0.924928
vt 0.829639 0.924928
vt 0.559567 0.924928
vt 0.559567 0.737035
vt 0.547852 0.924928
vt 0.547852 0.737035
vt 0.829639 0.733281
vt 0.847247 0.731558
vt 0.864164 0.726423
vt 0.879740 0.718085
vt 0.893418 0.706886
vt 0.904652 0.693208
vt 0.912955 0.677632
vt 0.918090 0.660715
vt 0.919846 0.643108
vt 0.918090 0.625533
vt 0.912955 0.608616
vt 0.904652 0.593008
vt 0.893418 0.579327
vt 0.879740 0.568128
vt 0.864164 0.559790
vt 0.847247 0.554655
vt 0.829639 0.552934
vt 0.812065 0.554655
vt 0.795148 0.559790
vt 0.779539 0.568128
vt 0.765894 0.579362
vt 0.754660 0.593008
vt 0.746321 0.608616
vt 0.741222 0.625533
vt 0.739466 0.643108
vt 0.741222 0.660715
vt 0.746321 0.677632
vt 0.754660 0.693208
vt 0.765894 0.706886
vt 0.779539 0.718085
vt 0.795148 0.726423
vt 0.812065 0.731558
vt 0.841389 0.924928
vt 0.829639 0.924928
vt 0.735710 0.924928
vt 0.723960 0.924928
vt 0.630030 0.924928
vt 0.618280 0.924928
vt 0.888353 0.924928
vt 0.876638 0.924928
vt 0.782673 0.924928
vt 0.770959 0.924928
vt 0.676996 0.924928
vt 0.665279 0.924928
vt 0.571316 0.924928
vt 0.559567 0.924928
vt 0.817923 0.924928
vt 0.712245 0.924928
vt 0.606565 0.924928
vt 0.864889 0.924928
vt 0.759209 0.924928
vt 0.653529 0.924928
vt 0.923602 0.924928
vt 0.911852 0.924928
vt 0.547852 0.924928
vt 0.806173 0.924928
vt 0.700495 0.924928
vt 0.594816 0.924928
vt 0.853139 0.924928
vt 0.747459 0.924928
vt 0.641780 0.924928
vt 0.900103 0.924928
vt 0.794423 0.924928
vt 0.688746 0.924928
vt 0.583066 0.924928
vt 0.794423 0.924928
vt 0.806173 0.924928
vt 0.806173 0.924928
vt 0.794423 0.924928
vt 0.676996 0.924928
vt 0.665279 0.924928
vt 0.817923 0.924928
vt 0.653529 0.924928
vt 0.641780 0.924928
vt 0.630030 0.924928
vt 0.782673 0.924928
vt 0.618280 0.924928
vt 0.770959 0.924928
vt 0.606565 0.924928
vt 0.759209 0.924928
vt 0.923602 0.924928
vt 0.911852 0.924928
vt 0.594816 0.924928
vt 0.747459 0.924928
vt 0.900103 0.924928
vt 0.583066 0.924928
vt 0.735710 0.924928
vt 0.888353 0.924928
vt 0.571316 0.924928
vt 0.723960 0.924928
vt 0.876638 0.924928
vt 0.559567 0.924928
vt 0.712245 0.924928
vt 0.864889 0.924928
vt 0.547852 0.924928
vt 0.700495 0.924928
vt 0.853139 0.924928
vt 0.688746 0.924928
vt 0.396553 0.411229
vt 0.406210 0.411229
vt 0.406210 0.411229
vt 0.396553 0.411229
vt 0.641780 0.924928
vt 0.630030 0.924928
vt 0.782673 0.924928
vt 0.618280 0.924928
vt 0.770959 0.924928
vt 0.606565 0.924928
vt 0.759209 0.924928
vt 0.923602 0.924928
vt 0.911852 0.924928
vt 0.594816 0.924928
vt 0.747459 0.924928
vt 0.900103 0.924928
vt 0.583066 0.924928
vt 0.735710 0.924928
vt 0.888353 0.924928
vt 0.571316 0.924928
vt 0.723960 0.924928
vt 0.876638 0.924928
vt 0.559567 0.924928
vt 0.712245 0.924928
vt 0.864889 0.924928
vt 0.547852 0.924928
vt 0.700495 0.924928
vt 0.853139 0.924928
vt 0.688746 0.924928
vt 0.841389 0.924928
vt 0.676996 0.924928
vt 0.829639 0.924928
vt 0.665279 0.924928
vt 0.817923 0.924928
vt 0.653529 0.924928
vt 0.265080 0.382212
vt 0.270585 0.382212
vt 0.270585 0.382212
vt 0.265080 0.382212
vt 0.522280 0.411229
vt 0.531960 0.411229
vt 0.531960 0.411229
vt 0.522280 0.411229
vt 0.261122 0.411229
vt 0.270802 0.411229
vt 0.270802 0.411229
vt 0.261122 0.411229
vt 0.386872 0.411229
vt 0.386872 0.411229
vt 0.512623 0.411229
vt 0.512623 0.411229
vt 0.251465 0.411229
vt 0.251465 0.411229
vt 0.377192 0.411229
vt 0.377192 0.411229
vt 0.502942 0.411229
vt 0.502942 0.411229
vt 0.241784 0.411229
vt 0.241784 0.411229
vt 0.367536 0.411229
vt 0.367536 0.411229
vt 0.493262 0.411229
vt 0.493262 0.411229
vt 0.232104 0.411229
vt 0.232104 0.411229
vt 0.357855 0.411229
vt 0.357855 0.411229
vt 0.483606 0.411229
vt 0.483606 0.411229
vt 0.222447 0.411229
vt 0.222447 0.411229
vt 0.348174 0.411229
vt 0.348174 0.411229
vt 0.473925 0.411229
vt 0.473925 0.411229
vt 0.338518 0.411229
vt 0.338518 0.411229
vt 0.464244 0.411229
vt 0.464244 0.411229
vt 0.328837 0.411229
vt 0.328837 0.411229
vt 0.454587 0.411229
vt 0.454587 0.411229
vt 0.319156 0.411229
vt 0.319156 0.411229
vt 0.444908 0.411229
vt 0.444908 0.411229
vt 0.309500 0.411229
vt 0.309500 0.411229
vt 0.435227 0.411229
vt 0.435227 0.411229
vt 0.299819 0.411229
vt 0.299819 0.411229
vt 0.425570 0.411229
vt 0.425570 0.411229
vt 0.290139 0.411229
vt 0.290139 0.411229
vt 0.415890 0.411229
vt 0.415890 0.411229
vt 0.280482 0.411229
vt 0.280482 0.411229
vt 0.353341 0.382212
vt 0.358845 0.382212
vt 0.358845 0.382212
vt 0.353341 0.382212
vt 0.336779 0.382212
vt 0.342308 0.382212
vt 0.342308 0.382212
vt 0.336779 0.382212
vt 0.259552 0.382212
vt 0.259552 0.382212
vt 0.331275 0.382212
vt 0.331275 0.382212
vt 0.347812 0.382212
vt 0.347812 0.382212
vt 0.254048 0.382212
vt 0.254048 0.382212
vt 0.325747 0.382212
vt 0.325747 0.382212
vt 0.248520 0.382212
vt 0.248520 0.382212
vt 0.320243 0.382212
vt 0.320243 0.382212
vt 0.243016 0.382212
vt 0.243016 0.382212
vt 0.314714 0.382212
vt 0.314714 0.382212
vt 0.237487 0.382212
vt 0.237487 0.382212
vt 0.309210 0.382212
vt 0.309210 0.382212
vt 0.231983 0.382212
vt 0.231983 0.382212
vt 0.303682 0.382212
vt 0.303682 0.382212
vt 0.226455 0.382212
vt 0.226455 0.382212
vt 0.298178 0.382212
vt 0.298178 0.382212
vt 0.220951 0.382212
vt 0.220951 0.382212
vt 0.292650 0.382212
vt 0.292650 0.382212
vt 0.215422 0.382212
vt 0.215422 0.382212
vt 0.287145 0.382212
vt 0.287145 0.382212
vt 0.209918 0.382212
vt 0.209918 0.382212
vt 0.281617 0.382212
vt 0.281617 0.382212
vt 0.234300 0.261484
vt 0.231983 0.261724
vt 0.229665 0.261484
vt 0.227421 0.260808
vt 0.225369 0.259720
vt 0.223557 0.258223
vt 0.222085 0.256438
vt 0.220974 0.254361
vt 0.220299 0.252139
vt 0.220082 0.249823
vt 0.220299 0.247506
vt 0.220974 0.245260
vt 0.222085 0.243208
vt 0.223557 0.241398
vt 0.225369 0.239926
vt 0.227421 0.238838
vt 0.229665 0.238162
vt 0.231983 0.237921
vt 0.234300 0.238162
vt 0.236522 0.238838
vt 0.238574 0.239926
vt 0.240384 0.241398
vt 0.241857 0.243208
vt 0.242967 0.245260
vt 0.243643 0.247506
vt 0.243860 0.249823
vt 0.243643 0.252139
vt 0.242967 0.254361
vt 0.241857 0.256438
vt 0.240384 0.258223
vt 0.238574 0.259720
vt 0.236522 0.260808
vt 0.204389 0.382212
vt 0.204389 0.382212
vt 0.276112 0.382212
vt 0.276112 0.382212
vt 0.187853 0.382212
vt 0.193357 0.382212
vt 0.193357 0.382212
vt 0.187853 0.382212
vt 0.198885 0.382212
vt 0.198885 0.382212
vt 0.364373 0.382212
vt 0.363793 0.382212
vt 0.359424 0.382212
vt 0.239370 0.291465
vt 0.232852 0.292094
vt 0.353919 0.382212
vt 0.247361 0.289220
vt 0.352761 0.382212
vt 0.348391 0.382212
vt 0.254748 0.285455
vt 0.347232 0.382212
vt 0.342887 0.382212
vt 0.261266 0.280337
vt 0.256196 0.284489
vt 0.337359 0.382212
vt 0.266650 0.274037
vt 0.331855 0.382212
vt 0.270705 0.266793
vt 0.267616 0.272588
vt 0.330696 0.382212
vt 0.326326 0.382212
vt 0.273265 0.258924
vt 0.271357 0.265201
vt 0.325168 0.382212
vt 0.320823 0.382212
vt 0.274254 0.250692
vt 0.273602 0.257210
vt 0.315294 0.382212
vt 0.273602 0.242435
vt 0.274254 0.248954
vt 0.314135 0.382212
vt 0.309790 0.382212
vt 0.271357 0.234445
vt 0.273265 0.240722
vt 0.308631 0.382212
vt 0.304261 0.382212
vt 0.267616 0.227058
vt 0.270705 0.232828
vt 0.298757 0.382212
vt 0.262497 0.220541
vt 0.293229 0.382212
vt 0.256196 0.215156
vt 0.261266 0.219309
vt 0.292070 0.382212
vt 0.287724 0.382212
vt 0.248954 0.211101
vt 0.286566 0.382212
vt 0.282196 0.382212
vt 0.241085 0.208517
vt 0.247361 0.210425
vt 0.276692 0.382212
vt 0.232852 0.207552
vt 0.275534 0.382212
vt 0.271164 0.382212
vt 0.224572 0.208180
vt 0.231114 0.207552
vt 0.270006 0.382212
vt 0.265660 0.382212
vt 0.216605 0.210425
vt 0.260132 0.382212
vt 0.209218 0.214191
vt 0.214988 0.211101
vt 0.254628 0.382212
vt 0.202700 0.219309
vt 0.207769 0.215156
vt 0.253468 0.382212
vt 0.249100 0.382212
vt 0.197316 0.225609
vt 0.201468 0.220541
vt 0.247940 0.382212
vt 0.243595 0.382212
vt 0.193236 0.232828
vt 0.238067 0.382212
vt 0.190678 0.240722
vt 0.236908 0.382212
vt 0.232562 0.382212
vt 0.189688 0.248954
vt 0.190340 0.242435
vt 0.231404 0.382212
vt 0.227034 0.382212
vt 0.190340 0.257210
vt 0.189688 0.250692
vt 0.221530 0.382212
vt 0.192584 0.265201
vt 0.190678 0.258924
vt 0.216001 0.382212
vt 0.196327 0.272588
vt 0.193236 0.266793
vt 0.214843 0.382212
vt 0.210498 0.382212
vt 0.201468 0.279106
vt 0.197316 0.274037
vt 0.209339 0.382212
vt 0.204969 0.382212
vt 0.207769 0.284489
vt 0.199465 0.382212
vt 0.214988 0.288544
vt 0.209218 0.285455
vt 0.193937 0.382212
vt 0.222882 0.291128
vt 0.216605 0.289220
vt 0.192778 0.382212
vt 0.188432 0.382212
vt 0.231114 0.292094
vt 0.364373 0.382212
vt 0.531960 0.411229
vt 0.522280 0.411229
vt 0.241784 0.411229
vt 0.232104 0.411229
vt 0.502942 0.411229
vt 0.493262 0.411229
vt 0.377192 0.411229
vt 0.367536 0.411229
vt 0.251465 0.411229
vt 0.222447 0.411229
vt 0.386872 0.411229
vt 0.261122 0.411229
vt 0.396553 0.411229
vt 0.270802 0.411229
vt 0.406210 0.411229
vt 0.280482 0.411229
vt 0.415890 0.411229
vt 0.290139 0.411229
vt 0.425570 0.411229
vt 0.299819 0.411229
vt 0.435227 0.411229
vt 0.309500 0.411229
vt 0.444908 0.411229
vt 0.319156 0.411229
vt 0.454587 0.411229
vt 0.328837 0.411229
vt 0.464244 0.411229
vt 0.338518 0.411229
vt 0.473925 0.411229
vt 0.348174 0.411229
vt 0.512623 0.411229
vt 0.483606 0.411229
vt 0.357855 0.411229
vt 0.374918 0.797579
vt 0.385514 0.797579
vt 0.385514 0.797579
vt 0.374918 0.797579
vt 0.056764 0.797579
vt 0.067360 0.797579
vt 0.067360 0.797579
vt 0.056764 0.797579
vt 0.343086 0.797579
vt 0.353706 0.797579
vt 0.353706 0.797579
vt 0.343086 0.797579
vt 0.205235 0.797579
vt 0.215829 0.797579
vt 0.215829 0.797579
vt 0.205235 0.797579
vt 0.077978 0.797579
vt 0.077978 0.797579
vt 0.046170 0.797579
vt 0.046170 0.797579
vt 0.226449 0.797579
vt 0.226449 0.797579
vt 0.088574 0.797579
vt 0.088574 0.797579
vt 0.237043 0.797579
vt 0.237043 0.797579
vt 0.099192 0.797579
vt 0.099192 0.797579
vt 0.247662 0.797579
vt 0.247662 0.797579
vt 0.109786 0.797579
vt 0.109786 0.797579
vt 0.258257 0.797579
vt 0.258257 0.797579
vt 0.120405 0.797579
vt 0.120405 0.797579
vt 0.268851 0.797579
vt 0.268851 0.797579
vt 0.131000 0.797579
vt 0.131000 0.797579
vt 0.279470 0.797579
vt 0.279470 0.797579
vt 0.141594 0.797579
vt 0.141594 0.797579
vt 0.290065 0.797579
vt 0.290065 0.797579
vt 0.152213 0.797579
vt 0.152213 0.797579
vt 0.300684 0.797579
vt 0.300684 0.797579
vt 0.162808 0.797579
vt 0.162808 0.797579
vt 0.311278 0.797579
vt 0.311278 0.797579
vt 0.173427 0.797579
vt 0.173427 0.797579
vt 0.321898 0.797579
vt 0.321898 0.797579
vt 0.184021 0.797579
vt 0.184021 0.797579
vt 0.364300 0.797579
vt 0.364300 0.797579
vt 0.332492 0.797579
vt 0.332492 0.797579
vt 0.194616 0.797579
vt 0.194616 0.797579
vt 0.389696 0.265274
vt 0.396022 0.265274
vt 0.396022 0.265274
vt 0.389696 0.265274
vt 0.200214 0.265274
vt 0.206515 0.265274
vt 0.206515 0.265274
vt 0.200214 0.265274
vt 0.370746 0.265274
vt 0.377071 0.265274
vt 0.377071 0.265274
vt 0.370746 0.265274
vt 0.288642 0.265274
vt 0.294943 0.265274
vt 0.294943 0.265274
vt 0.288642 0.265274
vt 0.212839 0.265274
vt 0.212839 0.265274
vt 0.193888 0.265274
vt 0.193888 0.265274
vt 0.301268 0.265274
vt 0.301268 0.265274
vt 0.219164 0.265274
vt 0.219164 0.265274
vt 0.307593 0.265274
vt 0.307593 0.265274
vt 0.225465 0.265274
vt 0.225465 0.265274
vt 0.313894 0.265274
vt 0.313894 0.265274
vt 0.231790 0.265274
vt 0.231790 0.265274
vt 0.320218 0.265274
vt 0.320218 0.265274
vt 0.238115 0.265274
vt 0.238115 0.265274
vt 0.326519 0.265274
vt 0.326519 0.265274
vt 0.244416 0.265274
vt 0.244416 0.265274
vt 0.332845 0.265274
vt 0.332845 0.265274
vt 0.250741 0.265274
vt 0.250741 0.265274
vt 0.339170 0.265274
vt 0.339170 0.265274
vt 0.257041 0.265274
vt 0.257041 0.265274
vt 0.345470 0.265274
vt 0.345470 0.265274
vt 0.263366 0.265274
vt 0.263366 0.265274
vt 0.351795 0.265274
vt 0.351795 0.265274
vt 0.269692 0.265274
vt 0.269692 0.265274
vt 0.358120 0.265274
vt 0.358120 0.265274
vt 0.275992 0.265274
vt 0.275992 0.265274
vt 0.383372 0.265274
vt 0.383372 0.265274
vt 0.364421 0.265274
vt 0.364421 0.265274
vt 0.282317 0.265274
vt 0.282317 0.265274
vt 0.374918 0.797579
vt 0.385514 0.797579
vt 0.385514 0.797579
vt 0.374918 0.797579
vt 0.056764 0.797579
vt 0.067360 0.797579
vt 0.067360 0.797579
vt 0.056764 0.797579
vt 0.343086 0.797579
vt 0.353706 0.797579
vt 0.353706 0.797579
vt 0.343086 0.797579
vt 0.205235 0.797579
vt 0.215829 0.797579
vt 0.215829 0.797579
vt 0.205235 0.797579
vt 0.077978 0.797579
vt 0.077978 0.797579
vt 0.046170 0.797579
vt 0.046170 0.797579
vt 0.226449 0.797579
vt 0.226449 0.797579
vt 0.088574 0.797579
vt 0.088574 0.797579
vt 0.237043 0.797579
vt 0.237043 0.797579
vt 0.099192 0.797579
vt 0.099192 0.797579
vt 0.247662 0.797579
vt 0.247662 0.797579
vt 0.109786 0.797579
vt 0.109786 0.797579
vt 0.258257 0.797579
vt 0.258257 0.797579
vt 0.120405 0.797579
vt 0.120405 0.797579
vt 0.268851 0.797579
vt 0.268851 0.797579
vt 0.131000 0.797579
vt 0.131000 0.797579
vt 0.279470 0.797579
vt 0.279470 0.797579
vt 0.141594 0.797579
vt 0.141594 0.797579
vt 0.290065 0.797579
vt 0.290065 0.797579
vt 0.152213 0.797579
vt 0.152213 0.797579
vt 0.300684 0.797579
vt 0.300684 0.797579
vt 0.162808 0.797579
vt 0.162808 0.797579
vt 0.311278 0.797579
vt 0.311278 0.797579
vt 0.173427 0.797579
vt 0.173427 0.797579
vt 0.321898 0.797579
vt 0.321898 0.797579
vt 0.184021 0.797579
vt 0.184021 0.797579
vt 0.364300 0.797579
vt 0.364300 0.797579
vt 0.332492 0.797579
vt 0.332492 0.797579
vt 0.194616 0.797579
vt 0.194616 0.797579
vn 0.0980 0.0000 -0.9952
vn 0.2903 0.0000 -0.9569
vn 0.4714 0.0000 -0.8819
vn 0.6344 0.0000 -0.7730
vn 0.7730 -0.0000 -0.6344
vn 0.8819 -0.0000 -0.4714
vn 0.9569 -0.0000 -0.2903
vn 0.9952 -0.0000 -0.0980
vn 0.9952 -0.0000 0.0980
vn 0.9569 -0.0000 0.2903
vn 0.8819 -0.0000 0.4714
vn 0.7730 -0.0000 0.6344
vn 0.6344 0.0000 0.7730
vn 0.4714 0.0000 0.8819
vn 0.2903 0.0000 0.9569
vn 0.0980 0.0000 0.9952
vn -0.0980 0.0000 0.9952
vn -0.2903 0.0000 0.9569
vn -0.4714 0.0000 0.8819
vn -0.6344 0.0000 0.7730
vn -0.7730 -0.0000 0.6344
vn -0.8819 0.0000 0.4714
vn -0.9569 0.0000 0.2903
vn -0.9952 0.0000 0.0980
vn -0.9952 0.0000 -0.0980
vn -0.9569 0.0000 -0.2903
vn -0.8819 0.0000 -0.4714
vn -0.7730 0.0000 -0.6344
vn -0.6344 0.0000 -0.7730
vn -0.4714 0.0000 -0.8819
vn 0.0000 1.0000 0.0000
vn -0.2903 0.0000 -0.9569
vn -0.0980 0.0000 -0.9952
vn 0.0000 -1.0000 0.0000
vn 0.8039 0.5895 -0.0792
vn -0.7124 0.5895 0.3808
vn 0.8039 0.5895 0.0792
vn -0.7730 0.5895 0.2344
vn 0.7730 0.5895 0.2344
vn -0.8039 0.5895 0.0792
vn 0.7124 0.5895 0.3807
vn -0.8039 0.5895 -0.0792
vn 0.6244 0.5895 0.5124
vn -0.7730 0.5895 -0.2344
vn 0.5124 0.5895 0.6244
vn -0.7124 0.5895 -0.3807
vn 0.3808 0.5895 0.7124
vn 0.0792 0.5895 -0.8039
vn -0.6244 0.5895 -0.5124
vn 0.2344 0.5895 0.7730
vn 0.2345 0.5895 -0.7730
vn -0.5124 0.5895 -0.6244
vn 0.0792 0.5895 0.8039
vn 0.3808 0.5895 -0.7124
vn -0.3808 0.5895 -0.7124
vn -0.0792 0.5895 0.8039
vn 0.5124 0.5895 -0.6244
vn -0.2345 0.5895 -0.7730
vn -0.2344 0.5895 0.7730
vn 0.6244 0.5895 -0.5124
vn -0.0792 0.5895 -0.8039
vn -0.3808 0.5895 0.7123
vn 0.7124 0.5895 -0.3808
vn -0.5124 0.5895 0.6244
vn 0.7730 0.5895 -0.2344
vn -0.6244 0.5895 0.5124
vn 0.4705 -0.0634 0.8801
vn 0.0977 -0.0634 -0.9932
vn -0.7715 -0.0634 -0.6331
vn 0.2897 -0.0634 0.9550
vn 0.2898 -0.0634 -0.9550
vn -0.6332 -0.0634 -0.7714
vn 0.0978 -0.0634 0.9932
vn 0.4704 -0.0634 -0.8802
vn -0.4704 -0.0634 -0.8802
vn -0.0978 -0.0634 0.9932
vn 0.6331 -0.0634 -0.7714
vn -0.2898 -0.0634 -0.9550
vn -0.2897 -0.0634 0.9550
vn 0.7715 -0.0634 -0.6331
vn -0.0977 -0.0634 -0.9932
vn -0.4705 -0.0634 0.8801
vn 0.8801 -0.0634 -0.4705
vn -0.6332 -0.0634 0.7714
vn 0.9550 -0.0633 -0.2897
vn -0.7714 -0.0634 0.6332
vn 0.9932 -0.0634 -0.0978
vn -0.8802 -0.0634 0.4704
vn 0.9932 -0.0634 0.0978
vn -0.9550 -0.0633 0.2897
vn 0.9550 -0.0633 0.2897
vn -0.9932 -0.0634 0.0978
vn 0.8802 -0.0634 0.4704
vn -0.9932 -0.0634 -0.0978
vn 0.7714 -0.0634 0.6331
vn -0.9550 -0.0633 -0.2897
vn 0.6332 -0.0634 0.7714
vn -0.8801 -0.0634 -0.4705
vn -0.0979 0.0000 -0.9952
vn 0.0239 0.9699 -0.2423
vn 0.0107 0.9940 -0.1086
vn 0.0707 0.9699 -0.2330
vn 0.0317 0.9940 -0.1045
vn 0.1148 0.9699 -0.2148
vn 0.0515 0.9940 -0.0963
vn 0.1545 0.9699 -0.1882
vn 0.0693 0.9940 -0.0844
vn 0.1882 0.9699 -0.1545
vn 0.0844 0.9940 -0.0693
vn 0.2148 0.9699 -0.1148
vn 0.0963 0.9940 -0.0515
vn 0.2331 0.9699 -0.0707
vn 0.1045 0.9940 -0.0317
vn 0.2424 0.9699 -0.0239
vn 0.1086 0.9940 -0.0107
vn 0.2424 0.9699 0.0239
vn 0.1086 0.9940 0.0107
vn 0.2331 0.9699 0.0707
vn 0.1045 0.9940 0.0317
vn 0.2148 0.9699 0.1148
vn 0.0963 0.9940 0.0515
vn 0.1882 0.9699 0.1545
vn 0.0844 0.9940 0.0693
vn 0.1545 0.9699 0.1882
vn 0.0693 0.9940 0.0844
vn 0.1148 0.9699 0.2148
vn 0.0515 0.9940 0.0963
vn 0.0707 0.9699 0.2330
vn 0.0317 0.9940 0.1045
vn 0.0239 0.9699 0.2423
vn 0.0107 0.9940 0.1086
vn -0.0239 0.9699 0.2423
vn -0.0107 0.9940 0.1086
vn -0.0707 0.9699 0.2330
vn -0.0317 0.9940 0.1045
vn -0.1148 0.9699 0.2148
vn -0.0515 0.9940 0.0963
vn -0.1545 0.9699 0.1882
vn -0.0693 0.9940 0.0844
vn -0.1882 0.9699 0.1545
vn -0.0844 0.9940 0.0693
vn -0.2148 0.9699 0.1148
vn -0.0963 0.9940 0.0515
vn -0.2331 0.9699 0.0707
vn -0.1045 0.9940 0.0317
vn -0.2424 0.9699 0.0239
vn -0.1087 0.9940 0.0107
vn -0.2424 0.9699 -0.0239
vn -0.1087 0.9940 -0.0107
vn -0.2331 0.9699 -0.0707
vn -0.1045 0.9940 -0.0317
vn -0.2148 0.9699 -0.1148
vn -0.0963 0.9940 -0.0515
vn -0.1882 0.9699 -0.1545
vn -0.0844 0.9940 -0.0693
vn -0.1545 0.9699 -0.1882
vn -0.0693 0.9940 -0.0844
vn -0.1148 0.9699 -0.2148
vn -0.0515 0.9940 -0.0963
vn -0.0707 0.9699 -0.2330
vn -0.0317 0.9940 -0.1045
vn -0.0239 0.9699 -0.2423
vn -0.0107 0.9940 -0.1086
vn 0.0979 0.0000 -0.9952
vn -0.0981 -0.0000 0.9952
vn 0.0981 -0.0000 0.9952
vn 0.2902 -0.0000 0.9570
vn -0.2902 -0.0000 0.9570
usemtl Material.001
s 1
f 1/1/1 2/2/1 3/3/1 4/4/1
f 4/4/2 3/3/2 5/5/2 6/6/2
f 6/6/3 5/5/3 7/7/3 8/8/3
f 8/8/4 7/7/4 9/9/4 10/10/4
f 10/10/5 9/9/5 11/11/5 12/12/5
f 12/12/6 11/11/6 13/13/6 14/14/6
f 14/14/7 13/13/7 15/15/7 16/16/7
f 16/16/8 15/15/8 17/17/8 18/18/8
f 18/18/9 17/17/9 19/19/9 20/20/9
f 20/20/10 19/19/10 21/21/10 22/22/10
f 22/22/11 21/21/11 23/23/11 24/24/11
f 24/24/12 23/23/12 25/25/12 26/26/12
f 26/26/13 25/25/13 27/27/13 28/28/13
f 28/28/14 27/27/14 29/29/14 30/30/14
f 30/30/15 29/29/15 31/31/15 32/32/15
f 32/32/16 31/31/16 33/33/16 34/34/16
f 34/34/17 33/33/17 35/35/17 36/36/17
f 36/36/18 35/35/18 37/37/18 38/38/18
f 38/38/19 37/37/19 39/39/19 40/40/19
f 40/40/20 39/39/20 41/41/20 42/42/20
f 42/42/21 41/41/21 43/43/21 44/44/21
f 44/44/22 43/43/22 45/45/22 46/46/22
f 46/46/23 45/45/23 47/47/23 48/48/23
f 48/48/24 47/47/24 49/49/24 50/50/24
f 50/50/25 49/49/25 51/51/25 52/52/25
f 52/52/26 51/51/26 53/53/26 54/54/26
f 54/54/27 53/53/27 55/55/27 56/56/27
f 56/56/28 55/55/28 57/57/28 58/58/28
f 58/58/29 57/57/29 59/59/29 60/60/29
f 60/60/30 59/59/30 61/61/30 62/62/30
f 17/17/31 15/15/31 63/63/31 64/64/31
f 62/62/32 61/61/32 65/65/32 66/66/32
f 66/66/33 65/65/33 2/67/33 1/68/33
f 1/69/34 4/70/34 6/71/34 8/72/34 10/73/34 12/74/34 14/75/34 16/76/34 18/77/34 20/78/34 22/79/34 24/80/34 26/81/34 28/82/34 30/83/34 32/84/34 34/85/34 36/86/34 38/87/34 40/88/34 42/89/34 44/90/34 46/91/34 48/92/34 50/93/34 52/94/34 54/95/34 56/96/34 58/97/34 60/98/34 62/99/34 66/100/34
f 64/64/35 63/63/35 67/101/35 68/102/35
f 35/35/31 33/33/31 69/103/31 70/104/31
f 53/53/31 51/51/31 71/105/31 72/106/31
f 9/9/31 7/7/31 73/107/31 74/108/31
f 27/27/31 25/25/31 75/109/31 76/110/31
f 45/45/31 43/43/31 77/111/31 78/112/31
f 65/65/31 61/61/31 79/113/31 80/114/31
f 19/19/31 17/17/31 64/64/31 81/115/31
f 37/37/31 35/35/31 70/104/31 82/116/31
f 55/55/31 53/53/31 72/106/31 83/117/31
f 11/11/31 9/9/31 74/108/31 84/118/31
f 29/29/31 27/27/31 76/110/31 85/119/31
f 47/47/31 45/45/31 78/112/31 86/120/31
f 3/3/31 2/2/31 87/121/31 88/122/31
f 2/67/31 65/65/31 80/114/31 87/123/31
f 21/21/31 19/19/31 81/115/31 89/124/31
f 39/39/31 37/37/31 82/116/31 90/125/31
f 57/57/31 55/55/31 83/117/31 91/126/31
f 13/13/31 11/11/31 84/118/31 92/127/31
f 31/31/31 29/29/31 85/119/31 93/128/31
f 49/49/31 47/47/31 86/120/31 94/129/31
f 5/5/31 3/3/31 88/122/31 95/130/31
f 23/23/31 21/21/31 89/124/31 96/131/31
f 41/41/31 39/39/31 90/125/31 97/132/31
f 59/59/31 57/57/31 91/126/31 98/133/31
f 15/15/31 13/13/31 92/127/31 63/63/31
f 33/33/31 31/31/31 93/128/31 69/103/31
f 51/51/31 49/49/31 94/129/31 71/105/31
f 7/7/31 5/5/31 95/130/31 73/107/31
f 25/25/31 23/23/31 96/131/31 75/109/31
f 43/43/31 41/41/31 97/132/31 77/111/31
f 61/61/31 59/59/31 98/133/31 79/113/31
f 99/134/31 100/135/31 101/136/31 102/137/31
f 78/112/36 77/111/36 103/138/36 104/139/36
f 81/115/37 64/64/37 68/102/37 105/140/37
f 86/120/38 78/112/38 104/139/38 106/141/38
f 89/124/39 81/115/39 105/140/39 100/135/39
f 94/129/40 86/120/40 106/141/40 107/142/40
f 96/131/41 89/124/41 100/135/41 99/134/41
f 71/105/42 94/129/42 107/142/42 108/143/42
f 75/109/43 96/131/43 99/134/43 109/144/43
f 72/106/44 71/105/44 108/143/44 110/145/44
f 76/110/45 75/109/45 109/144/45 111/146/45
f 83/117/46 72/106/46 110/145/46 112/147/46
f 85/119/47 76/110/47 111/146/47 113/148/47
f 88/122/48 87/121/48 114/149/48 115/150/48
f 91/126/49 83/117/49 112/147/49 116/151/49
f 93/128/50 85/119/50 113/148/50 117/152/50
f 95/130/51 88/122/51 115/150/51 118/153/51
f 98/133/52 91/126/52 116/151/52 119/154/52
f 69/103/53 93/128/53 117/152/53 120/155/53
f 73/107/54 95/130/54 118/153/54 121/156/54
f 79/113/55 98/133/55 119/154/55 122/157/55
f 70/104/56 69/103/56 120/155/56 123/158/56
f 74/108/57 73/107/57 121/156/57 124/159/57
f 80/114/58 79/113/58 122/157/58 125/160/58
f 82/116/59 70/104/59 123/158/59 126/161/59
f 84/118/60 74/108/60 124/159/60 127/162/60
f 87/123/61 80/114/61 125/160/61 114/163/61
f 90/125/62 82/116/62 126/161/62 128/164/62
f 92/127/63 84/118/63 127/162/63 129/165/63
f 97/132/64 90/125/64 128/164/64 130/166/64
f 63/63/65 92/127/65 129/165/65 67/101/65
f 77/111/66 97/132/66 130/166/66 103/138/66
f 131/167/67 132/168/67 133/169/67 134/170/67
f 108/143/31 107/142/31 135/171/31 136/172/31
f 109/144/31 99/134/31 102/137/31 137/173/31
f 110/145/31 108/143/31 136/172/31 138/174/31
f 111/146/31 109/144/31 137/173/31 132/175/31
f 112/147/31 110/145/31 138/174/31 139/176/31
f 113/148/31 111/146/31 132/175/31 131/177/31
f 115/150/31 114/149/31 140/178/31 141/179/31
f 116/151/31 112/147/31 139/176/31 142/180/31
f 117/152/31 113/148/31 131/177/31 143/181/31
f 118/153/31 115/150/31 141/179/31 144/182/31
f 119/154/31 116/151/31 142/180/31 145/183/31
f 120/155/31 117/152/31 143/181/31 146/184/31
f 121/156/31 118/153/31 144/182/31 147/185/31
f 122/157/31 119/154/31 145/183/31 148/186/31
f 123/158/31 120/155/31 146/184/31 149/187/31
f 124/159/31 121/156/31 147/185/31 150/188/31
f 125/160/31 122/157/31 148/186/31 151/189/31
f 126/161/31 123/158/31 149/187/31 152/190/31
f 127/162/31 124/159/31 150/188/31 153/191/31
f 114/163/31 125/160/31 151/189/31 140/192/31
f 128/164/31 126/161/31 152/190/31 154/193/31
f 129/165/31 127/162/31 153/191/31 155/194/31
f 130/166/31 128/164/31 154/193/31 156/195/31
f 67/101/31 129/165/31 155/194/31 157/196/31
f 103/138/31 130/166/31 156/195/31 158/197/31
f 68/102/31 67/101/31 157/196/31 159/198/31
f 104/139/31 103/138/31 158/197/31 160/199/31
f 105/140/31 68/102/31 159/198/31 161/200/31
f 106/141/31 104/139/31 160/199/31 162/201/31
f 100/135/31 105/140/31 161/200/31 101/136/31
f 107/142/31 106/141/31 162/201/31 135/171/31
f 163/202/18 164/203/18 165/204/18 166/205/18
f 141/206/68 140/207/68 167/208/68 168/209/68
f 142/210/69 139/211/69 169/212/69 170/213/69
f 143/214/70 131/167/70 134/170/70 171/215/70
f 144/216/71 141/206/71 168/209/71 172/217/71
f 145/218/72 142/210/72 170/213/72 173/219/72
f 146/220/73 143/214/73 171/215/73 174/221/73
f 147/222/74 144/216/74 172/217/74 175/223/74
f 148/224/75 145/218/75 173/219/75 176/225/75
f 149/226/76 146/220/76 174/221/76 177/227/76
f 150/228/77 147/222/77 175/223/77 178/229/77
f 151/230/78 148/224/78 176/225/78 179/231/78
f 152/232/79 149/226/79 177/227/79 180/233/79
f 153/234/80 150/228/80 178/229/80 181/235/80
f 140/236/81 151/230/81 179/231/81 167/237/81
f 154/238/82 152/232/82 180/233/82 182/239/82
f 155/240/83 153/234/83 181/235/83 183/241/83
f 156/242/84 154/238/84 182/239/84 184/243/84
f 157/244/85 155/240/85 183/241/85 185/245/85
f 158/246/86 156/242/86 184/243/86 186/247/86
f 159/248/87 157/244/87 185/245/87 187/249/87
f 160/250/88 158/246/88 186/247/88 188/251/88
f 161/252/89 159/248/89 187/249/89 189/253/89
f 162/254/90 160/250/90 188/251/90 190/255/90
f 101/256/91 161/252/91 189/253/91 191/257/91
f 135/258/92 162/254/92 190/255/92 192/259/92
f 102/260/93 101/256/93 191/257/93 193/261/93
f 136/262/94 135/258/94 192/259/94 194/263/94
f 137/264/95 102/260/95 193/261/95 195/265/95
f 138/266/96 136/262/96 194/263/96 196/267/96
f 132/168/97 137/264/97 195/265/97 133/169/97
f 139/211/98 138/266/98 196/267/98 169/212/98
f 197/268/2 198/269/2 199/270/2 200/271/2
f 201/272/5 202/273/5 203/274/5 204/275/5
f 205/276/19 163/202/19 166/205/19 206/277/19
f 207/278/6 201/272/6 204/275/6 208/279/6
f 209/280/3 197/268/3 200/271/3 210/281/3
f 211/282/20 205/276/20 206/277/20 212/283/20
f 213/284/7 207/278/7 208/279/7 214/285/7
f 215/286/21 211/282/21 212/283/21 216/287/21
f 217/288/8 213/284/8 214/285/8 218/289/8
f 219/290/22 215/286/22 216/287/22 220/291/22
f 221/292/9 217/288/9 218/289/9 222/293/9
f 223/294/23 219/290/23 220/291/23 224/295/23
f 225/296/10 221/292/10 222/293/10 226/297/10
f 227/298/24 223/294/24 224/295/24 228/299/24
f 229/300/11 225/296/11 226/297/11 230/301/11
f 231/302/25 227/298/25 228/299/25 232/303/25
f 233/304/12 229/300/12 230/301/12 234/305/12
f 235/306/26 231/302/26 232/303/26 236/307/26
f 237/308/13 233/304/13 234/305/13 238/309/13
f 239/310/27 235/306/27 236/307/27 240/311/27
f 241/312/14 237/308/14 238/309/14 242/313/14
f 243/314/28 239/310/28 240/311/28 244/315/28
f 245/316/15 241/312/15 242/313/15 246/317/15
f 247/318/31 248/319/31 249/320/31 250/321/31 251/322/31 252/323/31 253/324/31 254/325/31 255/326/31 256/327/31 257/328/31 258/329/31 259/330/31 260/331/31 261/332/31 262/333/31 263/334/31 264/335/31 265/336/31 266/337/31 267/338/31 268/339/31 269/340/31 270/341/31 271/342/31 272/343/31 273/344/31 274/345/31 275/346/31 276/347/31 277/348/31 278/349/31
f 279/350/29 243/314/29 244/315/29 280/351/29
f 281/352/16 245/316/16 246/317/16 282/353/16
f 283/354/99 284/355/99 285/356/99 286/357/99
f 287/358/30 279/350/30 280/351/30 288/359/30
f 164/203/17 281/352/17 282/353/17 165/204/17
f 202/273/4 209/280/4 210/281/4 203/274/4
f 284/355/32 287/358/32 288/359/32 285/356/32
f 199/270/100 286/360/100 289/361/100 290/362/100
f 290/363/101 289/364/101 248/319/101 247/318/101
f 200/271/102 199/270/102 290/362/102 291/365/102
f 291/366/103 290/363/103 247/318/103 278/349/103
f 210/281/104 200/271/104 291/367/104 292/368/104
f 292/369/105 291/366/105 278/349/105 277/348/105
f 203/274/106 210/281/106 292/370/106 293/371/106
f 293/372/107 292/373/107 277/348/107 276/347/107
f 204/275/108 203/274/108 293/371/108 294/374/108
f 294/375/109 293/372/109 276/347/109 275/346/109
f 208/279/110 204/275/110 294/374/110 295/376/110
f 295/377/111 294/378/111 275/346/111 274/345/111
f 214/285/112 208/279/112 295/379/112 296/380/112
f 296/381/113 295/382/113 274/345/113 273/344/113
f 218/289/114 214/285/114 296/383/114 297/384/114
f 297/385/115 296/386/115 273/344/115 272/343/115
f 222/293/116 218/289/116 297/384/116 298/387/116
f 298/388/117 297/389/117 272/343/117 271/342/117
f 226/297/118 222/293/118 298/390/118 299/391/118
f 299/392/119 298/393/119 271/342/119 270/341/119
f 230/301/120 226/297/120 299/394/120 300/395/120
f 300/396/121 299/397/121 270/341/121 269/340/121
f 234/305/122 230/301/122 300/395/122 301/398/122
f 301/399/123 300/396/123 269/340/123 268/339/123
f 238/309/124 234/305/124 301/398/124 302/400/124
f 302/401/125 301/402/125 268/339/125 267/338/125
f 242/313/126 238/309/126 302/403/126 303/404/126
f 303/405/127 302/401/127 267/338/127 266/337/127
f 246/317/128 242/313/128 303/406/128 304/407/128
f 304/408/129 303/409/129 266/337/129 265/336/129
f 282/353/130 246/317/130 304/407/130 305/410/130
f 305/411/131 304/408/131 265/336/131 264/335/131
f 165/204/132 282/353/132 305/412/132 306/413/132
f 306/414/133 305/415/133 264/335/133 263/334/133
f 166/205/134 165/204/134 306/416/134 307/417/134
f 307/418/135 306/414/135 263/334/135 262/333/135
f 206/277/136 166/205/136 307/417/136 308/419/136
f 308/420/137 307/421/137 262/333/137 261/332/137
f 212/283/138 206/277/138 308/419/138 309/422/138
f 309/423/139 308/424/139 261/332/139 260/331/139
f 216/287/140 212/283/140 309/425/140 310/426/140
f 310/427/141 309/428/141 260/331/141 259/330/141
f 220/291/142 216/287/142 310/429/142 311/430/142
f 311/431/143 310/427/143 259/330/143 258/329/143
f 224/295/144 220/291/144 311/430/144 312/432/144
f 312/433/145 311/431/145 258/329/145 257/328/145
f 228/299/146 224/295/146 312/434/146 313/435/146
f 313/436/147 312/437/147 257/328/147 256/327/147
f 232/303/148 228/299/148 313/438/148 314/439/148
f 314/440/149 313/441/149 256/327/149 255/326/149
f 236/307/150 232/303/150 314/439/150 315/442/150
f 315/443/151 314/444/151 255/326/151 254/325/151
f 240/311/152 236/307/152 315/442/152 316/445/152
f 316/446/153 315/447/153 254/325/153 253/324/153
f 244/315/154 240/311/154 316/448/154 317/449/154
f 317/450/155 316/451/155 253/324/155 252/323/155
f 280/351/156 244/315/156 317/452/156 318/453/156
f 318/454/157 317/450/157 252/323/157 251/322/157
f 288/359/158 280/351/158 318/453/158 319/455/158
f 319/456/159 318/457/159 251/322/159 250/321/159
f 285/356/160 288/359/160 319/455/160 320/458/160
f 320/459/161 319/460/161 250/321/161 249/320/161
f 286/357/162 285/356/162 320/461/162 289/462/162
f 289/463/163 320/459/163 249/320/163 248/319/163
f 198/269/164 283/464/164 286/360/164 199/270/164
f 168/209/164 167/208/164 321/465/164 322/466/164
f 179/231/32 176/225/32 323/467/32 324/468/32
f 178/229/4 175/223/4 325/469/4 326/470/4
f 177/227/165 174/221/165 327/471/165 328/472/165
f 176/225/30 173/219/30 329/473/30 323/467/30
f 167/237/99 179/231/99 324/468/99 321/474/99
f 174/221/166 171/215/166 330/475/166 327/471/166
f 173/219/29 170/213/29 331/476/29 329/473/29
f 171/215/167 134/170/167 332/477/167 330/475/167
f 170/213/28 169/212/28 333/478/28 331/476/28
f 134/170/14 133/169/14 334/479/14 332/477/14
f 169/212/27 196/267/27 335/480/27 333/478/27
f 133/169/13 195/265/13 336/481/13 334/479/13
f 196/267/26 194/263/26 337/482/26 335/480/26
f 195/265/12 193/261/12 338/483/12 336/481/12
f 194/263/25 192/259/25 339/484/25 337/482/25
f 193/261/11 191/257/11 340/485/11 338/483/11
f 192/259/24 190/255/24 341/486/24 339/484/24
f 191/257/10 189/253/10 342/487/10 340/485/10
f 190/255/23 188/251/23 343/488/23 341/486/23
f 189/253/9 187/249/9 344/489/9 342/487/9
f 188/251/22 186/247/22 345/490/22 343/488/22
f 187/249/8 185/245/8 346/491/8 344/489/8
f 186/247/21 184/243/21 347/492/21 345/490/21
f 185/245/7 183/241/7 348/493/7 346/491/7
f 184/243/20 182/239/20 349/494/20 347/492/20
f 175/223/3 172/217/3 350/495/3 325/469/3
f 183/241/6 181/235/6 351/496/6 348/493/6
f 182/239/19 180/233/19 352/497/19 349/494/19
f 181/235/5 178/229/5 326/470/5 351/496/5
f 172/217/2 168/209/2 322/466/2 350/495/2
f 180/233/168 177/227/168 328/472/168 352/497/168
f 322/498/164 321/499/164 353/500/164 354/501/164
f 324/502/32 323/503/32 355/504/32 356/505/32
f 326/506/4 325/507/4 357/508/4 358/509/4
f 328/510/165 327/511/165 359/512/165 360/513/165
f 323/503/30 329/514/30 361/515/30 355/504/30
f 321/516/99 324/502/99 356/505/99 353/517/99
f 327/511/166 330/518/166 362/519/166 359/512/166
f 329/514/29 331/520/29 363/521/29 361/515/29
f 330/518/167 332/522/167 364/523/167 362/519/167
f 331/520/28 333/524/28 365/525/28 363/521/28
f 332/522/14 334/526/14 366/527/14 364/523/14
f 333/524/27 335/528/27 367/529/27 365/525/27
f 334/526/13 336/530/13 368/531/13 366/527/13
f 335/528/26 337/532/26 369/533/26 367/529/26
f 336/530/12 338/534/12 370/535/12 368/531/12
f 337/532/25 339/536/25 371/537/25 369/533/25
f 338/534/11 340/538/11 372/539/11 370/535/11
f 339/536/24 341/540/24 373/541/24 371/537/24
f 340/538/10 342/542/10 374/543/10 372/539/10
f 341/540/23 343/544/23 375/545/23 373/541/23
f 342/542/9 344/546/9 376/547/9 374/543/9
f 343/544/22 345/548/22 377/549/22 375/545/22
f 344/546/8 346/550/8 378/551/8 376/547/8
f 345/548/21 347/552/21 379/553/21 377/549/21
f 346/550/7 348/554/7 380/555/7 378/551/7
f 347/552/20 349/556/20 381/557/20 379/553/20
f 325/507/3 350/558/3 382/559/3 357/508/3
f 348/554/6 351/560/6 383/561/6 380/555/6
f 349/556/19 352/562/19 384/563/19 381/557/19
f 351/560/5 326/506/5 358/509/5 383/561/5
f 350/558/2 322/498/2 354/501/2 382/559/2
f 352/562/168 328/510/168 360/513/168 384/563/168
f 354/564/164 353/565/164 385/566/164 386/567/164
f 356/568/32 355/569/32 387/570/32 388/571/32
f 358/572/4 357/573/4 389/574/4 390/575/4
f 360/576/165 359/577/165 391/578/165 392/579/165
f 355/569/30 361/580/30 393/581/30 387/570/30
f 353/582/99 356/568/99 388/571/99 385/583/99
f 359/577/166 362/584/166 394/585/166 391/578/166
f 361/580/29 363/586/29 395/587/29 393/581/29
f 362/584/167 364/588/167 396/589/15 394/585/15
f 363/586/28 365/590/28 397/591/28 395/587/28
f 364/588/14 366/592/14 398/593/14 396/589/14
f 365/590/27 367/594/27 399/595/27 397/591/27
f 366/592/13 368/596/13 400/597/13 398/593/13
f 367/594/26 369/598/26 401/599/26 399/595/26
f 368/596/12 370/600/12 402/601/12 400/597/12
f 369/598/25 371/602/25 403/603/25 401/599/25
f 370/600/11 372/604/11 404/605/11 402/601/11
f 371/602/24 373/606/24 405/607/24 403/603/24
f 372/604/10 374/608/10 406/609/10 404/605/10
f 373/606/23 375/610/23 407/611/23 405/607/23
f 374/608/9 376/612/9 408/613/9 406/609/9
f 375/610/22 377/614/22 409/615/22 407/611/22
f 376/612/8 378/616/8 410/617/8 408/613/8
f 377/614/21 379/618/21 411/619/21 409/615/21
f 378/616/7 380/620/7 412/621/7 410/617/7
f 379/618/20 381/622/20 413/623/20 411/619/20
f 357/573/3 382/624/3 414/625/3 389/574/3
f 380/620/6 383/626/6 415/627/6 412/621/6
f 381/622/19 384/628/19 416/629/19 413/623/19
f 383/626/5 358/572/5 390/575/5 415/627/5
f 382/624/2 354/564/2 386/567/2 414/625/2
f 384/628/168 360/576/168 392/579/18 416/629/18
f 386/630/164 385/631/164 283/632/164 198/633/164
f 388/634/32 387/635/32 287/636/32 284/637/32
f 390/638/4 389/639/4 209/640/4 202/641/4
f 392/642/165 391/643/165 281/644/17 164/645/17
f 387/635/30 393/646/30 279/647/30 287/636/30
f 385/648/99 388/634/99 284/637/99 283/649/99
f 391/643/166 394/650/166 245/651/16 281/644/16
f 393/646/29 395/652/29 243/653/29 279/647/29
f 394/650/15 396/654/15 241/655/15 245/651/15
f 395/652/28 397/656/28 239/657/28 243/653/28
f 396/654/14 398/658/14 237/659/14 241/655/14
f 397/656/27 399/660/27 235/661/27 239/657/27
f 398/658/13 400/662/13 233/663/13 237/659/13
f 399/660/26 401/664/26 231/665/26 235/661/26
f 400/662/12 402/666/12 229/667/12 233/663/12
f 401/664/25 403/668/25 227/669/25 231/665/25
f 402/666/11 404/670/11 225/671/11 229/667/11
f 403/668/24 405/672/24 223/673/24 227/669/24
f 404/670/10 406/674/10 221/675/10 225/671/10
f 405/672/23 407/676/23 219/677/23 223/673/23
f 406/674/9 408/678/9 217/679/9 221/675/9
f 407/676/22 409/680/22 215/681/22 219/677/22
f 408/678/8 410/682/8 213/683/8 217/679/8
f 409/680/21 411/684/21 211/685/21 215/681/21
f 410/682/7 412/686/7 207/687/7 213/683/7
f 411/684/20 413/688/20 205/689/20 211/685/20
f 389/639/3 414/690/3 197/691/3 209/640/3
f 412/686/6 415/692/6 201/693/6 207/687/6
f 413/688/19 416/694/19 163/695/19 205/689/19
f 415/692/5 390/638/5 202/641/5 201/693/5
f 414/690/2 386/630/2 198/633/2 197/691/2
f 416/694/18 392/642/18 164/645/18 163/695/18
