# Blender v2.93.0 OBJ File: ''
# www.blender.org
mtllib 5.mtl
o Cube_Cube.004
v 0.020150 -1.497868 0.052881
v 0.020150 -0.839541 0.052881
v -0.020150 -0.839541 0.052881
v -0.020150 -1.497868 0.052881
v 0.052881 -1.497868 -0.020150
v 0.052881 -0.839541 -0.020150
v 0.052881 -0.839541 0.020150
v 0.052881 -1.497868 0.020148
v 0.043294 -0.839541 -0.043294
v 0.020150 -0.839541 -0.052882
v -0.020150 -0.839541 -0.052882
v -0.043294 -0.839541 -0.043294
v -0.052881 -0.839541 -0.020150
v -0.052881 -0.839541 0.020150
v -0.043294 -0.839541 0.043294
v 0.043294 -0.839541 0.043294
v -0.052881 -1.497868 0.020148
v -0.052881 -1.497868 -0.020150
v -0.020150 -1.497868 -0.052883
v 0.020150 -1.497868 -0.052883
v -0.043294 -1.497868 0.043294
v -0.043294 -1.497868 -0.043296
v 0.043294 -1.497868 -0.043296
v 0.043294 -1.497868 0.043294
vt 0.941420 0.254819
vt 0.943002 0.254819
vt 0.943002 0.255422
vt 0.941420 0.255422
vt 0.941420 0.253237
vt 0.943002 0.253237
vt 0.943002 0.253840
vt 0.941420 0.253840
vt 0.943146 0.252891
vt 0.943492 0.252747
vt 0.944095 0.252747
vt 0.944441 0.252891
vt 0.944584 0.253237
vt 0.944584 0.253840
vt 0.944441 0.254186
vt 0.944095 0.254329
vt 0.943492 0.254329
vt 0.943146 0.254186
vt 0.941420 0.250073
vt 0.943002 0.250073
vt 0.943002 0.250675
vt 0.941420 0.250675
vt 0.941420 0.251655
vt 0.943002 0.251655
vt 0.943002 0.252258
vt 0.941420 0.252258
vt 0.943002 0.255912
vt 0.941420 0.255912
vt 0.941420 0.249583
vt 0.943002 0.249583
vt 0.941420 0.251165
vt 0.943002 0.251165
vt 0.941420 0.252747
vt 0.943002 0.252747
vt 0.941420 0.254329
vt 0.943002 0.254329
vt 0.939838 0.253237
vt 0.939981 0.252891
vt 0.940328 0.252747
vt 0.940930 0.252747
vt 0.941277 0.252891
vt 0.941277 0.254186
vt 0.940930 0.254329
vt 0.940328 0.254329
vt 0.939981 0.254186
vt 0.939838 0.253840
vn 0.0000 -0.0000 1.0000
vn 1.0000 -0.0000 0.0000
vn 0.0000 1.0000 0.0000
vn -1.0000 0.0000 0.0000
vn 0.0000 0.0000 -1.0000
vn -0.3827 -0.0000 0.9239
vn -0.9239 -0.0000 0.3827
vn -0.3827 0.0000 -0.9239
vn -0.9239 0.0000 -0.3827
vn 0.9239 0.0000 -0.3827
vn 0.3827 0.0000 -0.9239
vn 0.3827 -0.0000 0.9239
vn 0.9239 -0.0000 0.3827
vn 0.0000 -1.0000 0.0000
usemtl Material.006
s 1
f 1/1/1 2/2/1 3/3/1 4/4/1
f 5/5/2 6/6/2 7/7/2 8/8/2
f 6/6/3 9/9/3 10/10/3 11/11/3 12/12/3 13/13/3 14/14/3 15/15/3 3/16/3 2/17/3 16/18/3 7/7/3
f 17/19/4 14/20/4 13/21/4 18/22/4
f 19/23/5 11/24/5 10/25/5 20/26/5
f 4/4/6 3/3/6 15/27/6 21/28/6
f 21/29/7 15/30/7 14/20/7 17/19/7
f 11/24/8 19/23/8 22/31/8 12/32/8
f 12/32/9 22/31/9 18/22/9 13/21/9
f 6/6/10 5/5/10 23/33/10 9/34/10
f 9/34/11 23/33/11 20/26/11 10/25/11
f 2/2/12 1/1/12 24/35/12 16/36/12
f 16/36/13 24/35/13 8/8/13 7/7/13
f 18/37/14 22/38/14 19/39/14 20/40/14 23/41/14 5/5/14 8/8/14 24/42/14 1/43/14 4/44/14 21/45/14 17/46/14
o Cylinder.005
v -0.248121 -0.652978 -0.073451
v -0.282016 -0.652978 -0.073451
v -0.270179 -0.633769 -0.073451
v -0.248121 -0.619084 -0.073451
v 0.253509 -0.652978 -0.073451
v 0.004952 -0.652978 -0.073451
v 0.004952 -0.619084 -0.073451
v 0.253509 -0.619084 -0.073451
v 0.253509 -1.159127 -0.073451
v 0.004952 -1.159127 -0.073451
v 0.004952 -0.906054 -0.073451
v 0.253509 -0.906054 -0.073451
v -0.248121 -1.159127 -0.073451
v -0.282016 -1.159127 -0.073451
v -0.282016 -0.906054 -0.073451
v -0.248121 -0.906054 -0.073451
v 0.291922 -1.159127 -0.073451
v 0.291922 -0.906054 -0.073451
v 0.291922 -0.652978 -0.073451
v 0.280085 -0.633769 -0.073451
v 0.004952 -1.193023 -0.073451
v -0.248121 -1.193023 -0.073451
v 0.283857 -1.176080 -0.073451
v 0.253509 -1.193023 -0.073451
v -0.273950 -1.176080 -0.073451
v -0.248121 -0.652978 -0.053296
v -0.248121 -0.619084 -0.053296
v -0.270179 -0.633769 -0.053296
v -0.282016 -0.652978 -0.053296
v 0.253509 -0.652978 -0.053296
v 0.253509 -0.619084 -0.053296
v 0.004952 -0.619084 -0.053296
v 0.004952 -0.652978 -0.053296
v 0.253509 -1.159127 -0.053296
v 0.253509 -0.906054 -0.053296
v 0.004952 -0.906054 -0.053296
v 0.004952 -1.159127 -0.053296
v -0.248121 -1.159127 -0.053296
v -0.248121 -0.906054 -0.053296
v -0.282016 -0.906054 -0.053296
v -0.282016 -1.159127 -0.053296
v 0.291922 -1.159127 -0.053296
v 0.291922 -0.906054 -0.053296
v 0.291922 -0.652978 -0.053296
v 0.280085 -0.633769 -0.053296
v 0.004952 -1.193023 -0.053296
v -0.248121 -1.193023 -0.053296
v 0.283857 -1.176080 -0.053296
v 0.253509 -1.193023 -0.053296
v -0.273950 -1.176080 -0.053296
vt 0.926588 0.926588
vt 0.983720 0.926588
vt 0.967366 0.950096
vt 0.926588 0.983720
vt 0.081030 0.926588
vt 0.500000 0.926588
vt 0.500000 0.983720
vt 0.081030 0.983720
vt 0.081030 0.073412
vt 0.500000 0.073412
vt 0.500000 0.500000
vt 0.081030 0.500000
vt 0.926588 0.073412
vt 0.983720 0.073412
vt 0.983720 0.500000
vt 0.926588 0.500000
vt 0.016280 0.073412
vt 0.016280 0.500000
vt 0.016280 0.926588
vt 0.032634 0.950096
vt 0.500000 0.016280
vt 0.926588 0.016280
vt 0.039508 0.043790
vt 0.081030 0.016280
vt 0.968436 0.043790
vt 0.075512 0.975171
vt 0.075512 0.975366
vt 0.075707 0.975366
vt 0.075707 0.975171
vt 0.072625 0.975171
vt 0.072625 0.975366
vt 0.074055 0.975366
vt 0.074055 0.975171
vt 0.072625 0.972258
vt 0.072625 0.973714
vt 0.074055 0.973714
vt 0.074055 0.972258
vt 0.075512 0.972258
vt 0.075512 0.973714
vt 0.075707 0.973714
vt 0.075707 0.972258
vt 0.072404 0.972258
vt 0.072404 0.973714
vt 0.072404 0.975171
vt 0.072404 0.975366
vt 0.074055 0.972063
vt 0.075512 0.972063
vt 0.072404 0.972063
vt 0.072625 0.972063
vt 0.075707 0.972063
vt 0.075512 0.972063
vt 0.075707 0.972063
vt 0.072404 0.973714
vt 0.072404 0.972258
vt 0.072404 0.975366
vt 0.072404 0.975171
vt 0.075707 0.975171
vt 0.075707 0.975366
vt 0.074055 0.972063
vt 0.075707 0.972258
vt 0.072625 0.975366
vt 0.075512 0.975366
vt 0.072625 0.972063
vt 0.074055 0.975366
vt 0.072404 0.972063
vt 0.075707 0.973714
vn -0.0000 -0.0000 -1.0000
vn 0.0000 0.0000 1.0000
vn -0.5485 -0.8362 0.0000
vn 1.0000 -0.0000 0.0000
vn 0.8513 0.5246 0.0000
vn -0.8513 0.5246 0.0000
vn 0.0000 -1.0000 -0.0000
vn -0.9030 -0.4296 0.0000
vn 0.4836 0.8753 0.0000
vn -0.5542 0.8324 0.0000
vn 0.0000 1.0000 -0.0000
vn 0.4875 -0.8731 0.0000
vn -1.0000 0.0000 0.0000
vn 0.9030 -0.4296 0.0000
usemtl Material.011
s 1
f 25/47/15 26/48/15 27/49/15 28/50/15
f 29/51/15 30/52/15 31/53/15 32/54/15
f 33/55/15 34/56/15 35/57/15 36/58/15
f 37/59/15 38/60/15 39/61/15 40/62/15
f 41/63/15 33/55/15 36/58/15 42/64/15
f 43/65/15 29/51/15 32/54/15 44/66/15
f 34/56/15 37/59/15 40/62/15 35/57/15
f 30/52/15 25/47/15 28/50/15 31/53/15
f 35/57/15 40/62/15 25/47/15 30/52/15
f 42/64/15 36/58/15 29/51/15 43/65/15
f 36/58/15 35/57/15 30/52/15 29/51/15
f 40/62/15 39/61/15 26/48/15 25/47/15
f 45/67/15 46/68/15 37/59/15 34/56/15
f 47/69/15 48/70/15 33/55/15 41/63/15
f 46/68/15 49/71/15 38/60/15 37/59/15
f 48/70/15 45/67/15 34/56/15 33/55/15
f 50/72/16 51/73/16 52/74/16 53/75/16
f 54/76/16 55/77/16 56/78/16 57/79/16
f 58/80/16 59/81/16 60/82/16 61/83/16
f 62/84/16 63/85/16 64/86/16 65/87/16
f 66/88/16 67/89/16 59/81/16 58/80/16
f 68/90/16 69/91/16 55/77/16 54/76/16
f 61/83/16 60/82/16 63/85/16 62/84/16
f 57/79/16 56/78/16 51/73/16 50/72/16
f 60/82/16 57/79/16 50/72/16 63/85/16
f 67/89/16 68/90/16 54/76/16 59/81/16
f 59/81/16 54/76/16 57/79/16 60/82/16
f 63/85/16 50/72/16 53/75/16 64/86/16
f 70/92/16 61/83/16 62/84/16 71/93/16
f 72/94/16 66/88/16 58/80/16 73/95/16
f 71/93/16 62/84/16 65/87/16 74/96/16
f 73/95/16 58/80/16 61/83/16 70/92/16
f 46/97/17 71/93/17 74/96/17 49/98/17
f 42/99/18 67/89/18 66/88/18 41/100/18
f 44/101/19 69/91/19 68/90/19 43/102/19
f 26/103/20 53/75/20 52/74/20 27/104/20
f 45/105/21 70/92/21 71/93/21 46/97/21
f 49/98/22 74/96/22 65/87/22 38/106/22
f 32/107/23 55/77/23 69/91/23 44/101/23
f 27/104/24 52/74/24 51/73/24 28/108/24
f 48/109/21 73/95/21 70/92/21 45/105/21
f 31/110/25 56/78/25 55/77/25 32/107/25
f 28/108/25 51/73/25 56/78/25 31/110/25
f 47/111/26 72/94/26 73/95/26 48/109/26
f 43/102/18 68/90/18 67/89/18 42/99/18
f 39/112/27 64/86/27 53/75/27 26/103/27
f 41/100/28 66/88/28 72/94/28 47/111/28
f 38/106/27 65/87/27 64/86/27 39/112/27
