# Blender v3.0.0 OBJ File: ''
# www.blender.org
mtllib table.mtl
o base
v 0.521194 -0.592905 -1.448689
v -0.078069 -0.592631 -1.447235
v -0.078069 -0.592631 -1.447235
v 0.521194 -0.592905 -1.448689
v -0.078069 -0.563426 -1.422202
v -0.078069 -0.563426 -1.452261
v -0.078069 -0.588981 -1.452261
v -0.078069 -0.591172 -1.450789
v -0.078069 -0.593021 -1.435103
v -0.078069 -0.593021 -1.422202
v 0.521194 -0.563426 -1.422202
v 0.521194 -0.595594 -1.422688
v 0.521194 -0.563426 0.205679
v 0.521194 -0.593022 0.205679
v 0.534663 -0.596539 -1.422738
v 0.532702 -0.593022 0.205679
v 0.521194 -0.563426 -1.452261
v 0.532702 -0.563426 -1.452261
v 0.532702 -0.591690 -1.452261
v 0.532674 -0.591690 -1.452261
v 0.521194 -0.588981 -1.452261
v 0.521194 -0.595016 -1.440560
v 0.532772 -0.594378 -1.452750
v 0.593537 -1.738988 -1.512804
v 0.582669 -1.743641 -1.513048
v 0.539384 -0.595830 -1.435630
v 0.600001 -1.738765 -1.482667
v 0.600001 -1.737672 -1.495540
v 0.598108 -1.737456 -1.507687
v 0.582669 -1.746186 -1.483057
v 0.539313 -0.563426 -1.422202
v 0.539313 -0.563426 0.205679
v 0.539313 -0.588983 0.205679
v 0.539313 -0.588981 -1.422202
v 0.532737 -0.593021 -1.452261
v 0.537413 -0.593021 -1.447268
v 0.537447 -0.594800 -1.447735
v 0.537377 -0.591690 -1.447235
v 0.539313 -0.591690 -1.435103
v 0.539348 -0.593021 -1.435103
v 0.537377 -0.592632 0.205679
v 0.537377 -0.592632 0.205679
v 0.538746 -0.591173 0.205679
v 0.537951 -0.592908 -1.422202
v 0.539313 -0.563426 -1.435103
v 0.539313 -0.591690 -1.435030
v 0.537377 -0.563426 -1.447235
v 0.537951 -0.592908 -1.422202
v 0.521194 -0.591252 -1.451214
v 0.538914 -0.591253 -1.422202
v -0.521194 -0.592905 -1.448689
v -0.521194 -0.592905 -1.448689
v 0.078069 -0.592631 -1.447235
v 0.078069 -0.592631 -1.447235
v 0.078069 -0.563426 -1.422202
v 0.078069 -0.593021 -1.422202
v 0.078069 -0.593021 -1.435103
v 0.078069 -0.591172 -1.450789
v 0.078069 -0.588981 -1.452261
v 0.078069 -0.563426 -1.452261
v -0.521194 -0.563426 -1.422202
v -0.521194 -0.595594 -1.422688
v -0.521194 -0.563426 0.205679
v -0.521194 -0.593022 0.205679
v -0.532702 -0.593022 0.205679
v -0.534663 -0.596539 -1.422738
v -0.521194 -0.563426 -1.452261
v -0.521194 -0.588981 -1.452261
v -0.532674 -0.591690 -1.452261
v -0.532702 -0.591690 -1.452261
v -0.532702 -0.563426 -1.452261
v -0.521194 -0.595016 -1.440560
v -0.582669 -1.743641 -1.513048
v -0.593537 -1.738987 -1.512804
v -0.532772 -0.594378 -1.452750
v -0.539384 -0.595830 -1.435630
v -0.600001 -1.737672 -1.495540
v -0.600001 -1.738764 -1.482667
v -0.477838 -0.563426 -1.460443
v -0.532717 -0.563426 -1.453429
v -0.493121 -0.563426 -1.460443
v -0.582669 -1.746186 -1.483057
v -0.598108 -1.737456 -1.507687
v -0.539313 -0.563426 -1.422202
v -0.539313 -0.588981 -1.422202
v -0.539313 -0.588983 0.205679
v -0.539313 -0.563426 0.205679
v -0.539313 -0.563426 -1.435103
v -0.542917 -0.563426 -1.437877
v -0.537377 -0.563426 -1.447235
v -0.537447 -0.594800 -1.447735
v -0.537413 -0.593021 -1.447268
v -0.532737 -0.593021 -1.452261
v -0.537377 -0.591690 -1.447235
v -0.539313 -0.591690 -1.435103
v -0.539348 -0.593021 -1.435103
v -0.538746 -0.591173 0.205679
v -0.537377 -0.592632 0.205679
v -0.537377 -0.592632 0.205679
v -0.537951 -0.592908 -1.422202
v -0.539313 -0.591690 -1.435030
v -0.537951 -0.592908 -1.422202
v -0.521194 -0.591252 -1.451214
v -0.538914 -0.591253 -1.422202
v 0.521194 -0.592907 1.448689
v 0.521194 -0.592907 1.448689
v -0.078069 -0.592633 1.447235
v -0.078069 -0.592633 1.447235
v -0.078069 -0.563427 1.422203
v -0.078069 -0.593022 1.422203
v -0.078069 -0.593022 1.435103
v -0.078069 -0.591174 1.450789
v -0.078069 -0.588983 1.452261
v -0.078069 -0.563427 1.452261
v 0.521194 -0.563427 1.422203
v 0.521194 -0.595596 1.422689
v 0.521194 -0.563426 -0.205679
v 0.521194 -0.593021 -0.205679
v 0.532702 -0.593021 -0.205679
v 0.534663 -0.596540 1.422738
v 0.521194 -0.563427 1.452261
v 0.521194 -0.588983 1.452261
v 0.532674 -0.591691 1.452261
v 0.532702 -0.591691 1.452261
v 0.532702 -0.563427 1.452261
v 0.521194 -0.595018 1.440560
v 0.582669 -1.743643 1.513048
v 0.593537 -1.738989 1.512804
v 0.532772 -0.594379 1.452750
v 0.539384 -0.595832 1.435630
v 0.600001 -1.737674 1.495540
v 0.600001 -1.738766 1.482667
v 0.477838 -0.563427 1.460443
v 0.532717 -0.563427 1.453429
v 0.493121 -0.563427 1.460443
v 0.582669 -1.746187 1.483057
v 0.598108 -1.737457 1.507687
v 0.539313 -0.563427 1.422203
v 0.539313 -0.588983 1.422203
v 0.539313 -0.588982 -0.205679
v 0.539313 -0.563426 -0.205679
v 0.539313 -0.563427 1.435103
v 0.542917 -0.563427 1.437877
v 0.537377 -0.563427 1.447236
v 0.537447 -0.594802 1.447735
v 0.537413 -0.593022 1.447268
v 0.532737 -0.593022 1.452261
v 0.537377 -0.591691 1.447235
v 0.539313 -0.591691 1.435103
v 0.539348 -0.593022 1.435103
v 0.538746 -0.591172 -0.205679
v 0.537377 -0.592631 -0.205679
v 0.537377 -0.592631 -0.205679
v 0.537951 -0.592910 1.422203
v 0.539313 -0.591691 1.435030
v 0.537951 -0.592910 1.422203
v 0.521194 -0.591254 1.451215
v 0.538914 -0.591255 1.422203
v -0.521194 -0.592907 1.448689
v 0.078069 -0.592633 1.447235
v 0.078069 -0.592633 1.447235
v -0.521194 -0.592907 1.448689
v 0.078069 -0.563427 1.422203
v 0.078069 -0.563427 1.452261
v 0.078069 -0.588983 1.452261
v 0.078069 -0.591174 1.450789
v 0.078069 -0.593022 1.435103
v 0.078069 -0.593022 1.422203
v -0.521194 -0.563427 1.422203
v -0.521194 -0.595596 1.422689
v -0.521194 -0.563426 -0.205679
v -0.521194 -0.593021 -0.205679
v -0.534663 -0.596540 1.422738
v -0.532702 -0.593021 -0.205679
v -0.521194 -0.563427 1.452261
v -0.532702 -0.563427 1.452261
v -0.532702 -0.591691 1.452261
v -0.532674 -0.591691 1.452261
v -0.521194 -0.588983 1.452261
v -0.521194 -0.595018 1.440560
v -0.532772 -0.594379 1.452750
v -0.593537 -1.738989 1.512804
v -0.582669 -1.743642 1.513048
v -0.539384 -0.595832 1.435630
v -0.600001 -1.738766 1.482667
v -0.600001 -1.737674 1.495540
v -0.477838 -0.563427 1.460443
v -0.493121 -0.563427 1.460443
v -0.532717 -0.563427 1.453429
v -0.598108 -1.737457 1.507687
v -0.582669 -1.746187 1.483057
v -0.539313 -0.563427 1.422203
v -0.539313 -0.563426 -0.205679
v -0.539313 -0.588982 -0.205679
v -0.539313 -0.588983 1.422203
v -0.539313 -0.563427 1.435103
v -0.537377 -0.563427 1.447236
v -0.542917 -0.563427 1.437877
v -0.532737 -0.593022 1.452261
v -0.537413 -0.593022 1.447268
v -0.537447 -0.594802 1.447735
v -0.537377 -0.591691 1.447235
v -0.539313 -0.591691 1.435103
v -0.539348 -0.593022 1.435103
v -0.537377 -0.592631 -0.205679
v -0.537377 -0.592631 -0.205679
v -0.538746 -0.591172 -0.205679
v -0.537951 -0.592910 1.422203
v -0.539313 -0.591691 1.435030
v -0.537951 -0.592910 1.422203
v -0.521194 -0.591254 1.451215
v -0.538914 -0.591255 1.422203
vt 0.938847 0.143212
vt 0.938708 0.143212
vt 0.938708 0.143212
vt 0.938847 0.143212
vt 0.937876 0.141381
vt 0.937876 0.141381
vt 0.937876 0.141381
vt 0.937876 0.141381
vt 0.937876 0.141381
vt 0.937876 0.141381
vt 0.937876 0.141381
vt 0.937876 0.141381
vt 0.938847 0.143378
vt 0.938708 0.143378
vt 0.938708 0.143378
vt 0.938847 0.143378
vt 0.938847 0.143461
vt 0.938847 0.143461
vt 0.938950 0.143378
vt 0.938935 0.143461
vt 0.938847 0.143212
vt 0.938935 0.143212
vt 0.938935 0.143212
vt 0.938934 0.143212
vt 0.938847 0.143212
vt 0.938846 0.143212
vt 0.938935 0.143212
vt 0.938934 0.143212
vt 0.938847 0.143212
vt 0.938985 0.143307
vt 0.938985 0.143378
vt 0.938985 0.143307
vt 0.938980 0.143221
vt 0.938847 0.143378
vt 0.938985 0.143378
vt 0.938985 0.143461
vt 0.938985 0.143461
vt 0.938985 0.143378
vt 0.938708 0.143307
vt 0.938847 0.143279
vt 0.938935 0.143212
vt 0.938982 0.143219
vt 0.938985 0.143212
vt 0.938985 0.143212
vt 0.938985 0.143307
vt 0.938985 0.143307
vt 0.938708 0.143212
vt 0.938708 0.143212
vt 0.945980 0.793956
vt 0.945980 0.793956
vt 0.945980 0.793956
vt 0.945980 0.793956
vt 0.945980 0.793956
vt 0.945980 0.793956
vt 0.945980 0.793956
vt 0.945980 0.793956
vt 0.938985 0.143378
vt 0.938985 0.143461
vt 0.938985 0.143307
vt 0.938985 0.143307
vt 0.938985 0.143212
vt 0.938985 0.143378
vt 0.938847 0.143212
vt 0.938985 0.143378
vt 0.938708 0.143212
vt 0.938985 0.143461
vt 0.938985 0.143461
vt 0.938847 0.143212
vt 0.938847 0.143212
vt 0.938708 0.143212
vt 0.938708 0.143212
vt 0.937876 0.141381
vt 0.937876 0.141381
vt 0.937876 0.141381
vt 0.937876 0.141381
vt 0.937876 0.141381
vt 0.937876 0.141381
vt 0.937876 0.141381
vt 0.937876 0.141381
vt 0.938847 0.143378
vt 0.938847 0.143378
vt 0.938708 0.143378
vt 0.938708 0.143378
vt 0.938847 0.143461
vt 0.938847 0.143461
vt 0.938935 0.143461
vt 0.938950 0.143378
vt 0.938847 0.143212
vt 0.938847 0.143212
vt 0.938934 0.143212
vt 0.938935 0.143212
vt 0.938935 0.143212
vt 0.938846 0.143212
vt 0.938847 0.143212
vt 0.938934 0.143212
vt 0.938935 0.143212
vt 0.938985 0.143307
vt 0.938985 0.143307
vt 0.938985 0.143378
vt 0.939853 0.788395
vt 0.939853 0.789168
vt 0.940262 0.789168
vt 0.940497 0.789057
vt 0.940497 0.788395
vt 0.938847 0.143378
vt 0.938980 0.143221
vt 0.938985 0.143378
vt 0.938985 0.143378
vt 0.938985 0.143461
vt 0.938985 0.143461
vt 0.938708 0.143307
vt 0.938847 0.143279
vt 0.935556 0.795507
vt 0.936020 0.793443
vt 0.935556 0.792927
vt 0.935556 0.793443
vt 0.935556 0.794048
vt 0.938985 0.143212
vt 0.938982 0.143219
vt 0.938935 0.143212
vt 0.938985 0.143212
vt 0.938985 0.143307
vt 0.938985 0.143307
vt 0.938708 0.143212
vt 0.938708 0.143212
vt 0.945980 0.793956
vt 0.945980 0.793956
vt 0.945980 0.793956
vt 0.945980 0.793956
vt 0.945980 0.793956
vt 0.945980 0.793956
vt 0.945980 0.793956
vt 0.945980 0.793956
vt 0.938985 0.143378
vt 0.938985 0.143461
vt 0.938985 0.143307
vt 0.938985 0.143307
vt 0.938985 0.143212
vt 0.938985 0.143378
vt 0.938847 0.143212
vt 0.938985 0.143378
vt 0.938708 0.143212
vt 0.938985 0.143461
vt 0.938985 0.143461
vt 0.938847 0.143212
vt 0.938847 0.143212
vt 0.938708 0.143212
vt 0.938708 0.143212
vt 0.937876 0.141381
vt 0.937876 0.141381
vt 0.937876 0.141381
vt 0.937876 0.141381
vt 0.937876 0.141381
vt 0.937876 0.141381
vt 0.937876 0.141381
vt 0.937876 0.141381
vt 0.938847 0.143378
vt 0.938847 0.143378
vt 0.938708 0.143378
vt 0.938708 0.143378
vt 0.938847 0.143461
vt 0.938847 0.143461
vt 0.938935 0.143461
vt 0.938950 0.143378
vt 0.938847 0.143212
vt 0.938847 0.143212
vt 0.938934 0.143212
vt 0.938935 0.143212
vt 0.938935 0.143212
vt 0.938846 0.143212
vt 0.938847 0.143212
vt 0.938934 0.143212
vt 0.938935 0.143212
vt 0.938985 0.143307
vt 0.938985 0.143307
vt 0.938985 0.143378
vt 0.939853 0.788395
vt 0.939853 0.789168
vt 0.940262 0.789168
vt 0.940497 0.789057
vt 0.940497 0.788395
vt 0.938847 0.143378
vt 0.938980 0.143221
vt 0.938985 0.143378
vt 0.938985 0.143378
vt 0.938985 0.143461
vt 0.938985 0.143461
vt 0.938708 0.143307
vt 0.938847 0.143279
vt 0.935556 0.795507
vt 0.936020 0.793443
vt 0.935556 0.792927
vt 0.935556 0.793443
vt 0.935556 0.794048
vt 0.938985 0.143212
vt 0.938982 0.143219
vt 0.938935 0.143212
vt 0.938985 0.143212
vt 0.938985 0.143307
vt 0.938985 0.143307
vt 0.938708 0.143212
vt 0.938708 0.143212
vt 0.945980 0.793956
vt 0.945980 0.793956
vt 0.945980 0.793956
vt 0.945980 0.793956
vt 0.945980 0.793956
vt 0.945980 0.793956
vt 0.945980 0.793956
vt 0.945980 0.793956
vt 0.938985 0.143378
vt 0.938985 0.143461
vt 0.938985 0.143307
vt 0.938985 0.143307
vt 0.938985 0.143212
vt 0.938985 0.143378
vt 0.938847 0.143212
vt 0.938985 0.143378
vt 0.938708 0.143212
vt 0.938985 0.143461
vt 0.938985 0.143461
vt 0.938847 0.143212
vt 0.938708 0.143212
vt 0.938708 0.143212
vt 0.938847 0.143212
vt 0.937876 0.141381
vt 0.937876 0.141381
vt 0.937876 0.141381
vt 0.937876 0.141381
vt 0.937876 0.141381
vt 0.937876 0.141381
vt 0.937876 0.141381
vt 0.937876 0.141381
vt 0.938847 0.143378
vt 0.938708 0.143378
vt 0.938708 0.143378
vt 0.938847 0.143378
vt 0.938847 0.143461
vt 0.938847 0.143461
vt 0.938950 0.143378
vt 0.938935 0.143461
vt 0.938847 0.143212
vt 0.938935 0.143212
vt 0.938935 0.143212
vt 0.938934 0.143212
vt 0.938847 0.143212
vt 0.938846 0.143212
vt 0.938935 0.143212
vt 0.938934 0.143212
vt 0.938847 0.143212
vt 0.938985 0.143307
vt 0.938985 0.143378
vt 0.938985 0.143307
vt 0.939853 0.788395
vt 0.940497 0.788395
vt 0.940497 0.789057
vt 0.940262 0.789168
vt 0.939853 0.789168
vt 0.938980 0.143221
vt 0.938847 0.143378
vt 0.938985 0.143378
vt 0.938985 0.143461
vt 0.938985 0.143461
vt 0.938985 0.143378
vt 0.938708 0.143307
vt 0.938847 0.143279
vt 0.935556 0.795507
vt 0.935556 0.794048
vt 0.935556 0.793443
vt 0.935556 0.792927
vt 0.936020 0.793443
vt 0.938935 0.143212
vt 0.938982 0.143219
vt 0.938985 0.143212
vt 0.938985 0.143212
vt 0.938985 0.143307
vt 0.938985 0.143307
vt 0.938708 0.143212
vt 0.938708 0.143212
vt 0.945980 0.793956
vt 0.945980 0.793956
vt 0.945980 0.793956
vt 0.945980 0.793956
vt 0.945980 0.793956
vt 0.945980 0.793956
vt 0.945980 0.793956
vt 0.945980 0.793956
vt 0.938985 0.143378
vt 0.938985 0.143461
vt 0.938985 0.143307
vt 0.938985 0.143307
vt 0.938985 0.143212
vt 0.938985 0.143378
vt 0.938847 0.143212
vt 0.938985 0.143378
vt 0.938708 0.143212
vt 0.938985 0.143461
vt 0.938985 0.143461
vn 0.0000 0.0000 1.0000
vn -1.0000 0.0000 0.0000
vn 0.0004 -0.0079 1.0000
vn -0.0378 -0.9993 0.0018
vn 0.0000 0.0000 -1.0000
vn -0.4744 0.0256 -0.8800
vn 0.9821 0.0446 0.1831
vn 0.3939 -0.9159 -0.0777
vn -0.0000 -0.0524 0.9986
vn 1.0000 -0.0000 0.0000
vn -0.0039 -0.9998 -0.0188
vn -0.9986 -0.0532 -0.0035
vn 0.7178 0.2174 -0.6615
vn 0.7308 0.0279 -0.6821
vn 0.9871 0.0283 -0.1573
vn 0.9866 0.0544 -0.1540
vn 0.9868 0.0488 -0.1547
vn 0.9867 0.0484 -0.1553
vn -0.2521 -0.8816 -0.3990
vn -0.0026 -0.9925 -0.1225
vn -0.2951 -0.0140 -0.9554
vn 0.4507 -0.8927 0.0014
vn 0.8625 -0.4675 0.1938
vn 0.7322 0.0000 -0.6811
vn 0.9875 0.0000 -0.1576
vn 0.9864 0.0604 -0.1527
vn 0.7325 0.0744 -0.6766
vn 0.9940 0.0208 0.1069
vn 0.9941 0.0202 0.1069
vn -0.0816 -0.8339 -0.5459
vn -0.0983 -0.4167 -0.9037
vn 0.9843 -0.1725 0.0365
vn 0.8635 -0.5024 0.0440
vn -0.0002 -0.4912 -0.8710
vn -0.0010 -0.8901 -0.4557
vn 0.9774 -0.2116 0.0001
vn 0.8004 -0.5994 0.0002
vn 0.0000 0.0000 0.0000
vn -0.0004 -0.0079 1.0000
vn 0.0378 -0.9993 0.0018
vn 0.4744 0.0256 -0.8800
vn -0.9821 0.0446 0.1831
vn 0.0000 -1.0000 0.0000
vn -0.3939 -0.9159 -0.0777
vn 0.0039 -0.9998 -0.0188
vn 0.9986 -0.0532 -0.0035
vn -0.7178 0.2174 -0.6615
vn -0.7308 0.0279 -0.6820
vn -0.9871 0.0283 -0.1573
vn -0.9866 0.0544 -0.1540
vn -0.9867 0.0484 -0.1553
vn -0.9868 0.0488 -0.1547
vn 0.2521 -0.8816 -0.3990
vn 0.0026 -0.9925 -0.1225
vn 0.2951 -0.0140 -0.9554
vn -0.4507 -0.8927 0.0014
vn -0.8625 -0.4675 0.1938
vn -0.7322 0.0000 -0.6811
vn -0.9875 0.0000 -0.1576
vn -0.9864 0.0604 -0.1527
vn -0.7325 0.0744 -0.6766
vn -0.9941 0.0202 0.1069
vn 0.0816 -0.8339 -0.5459
vn 0.0983 -0.4167 -0.9037
vn -0.9843 -0.1728 0.0365
vn -0.8635 -0.5024 0.0440
vn 0.0002 -0.4912 -0.8710
vn 0.0010 -0.8901 -0.4557
vn -0.9774 -0.2116 0.0001
vn -0.8004 -0.5994 0.0002
vn 0.0004 -0.0079 -1.0000
vn -0.0378 -0.9993 -0.0018
vn -0.4744 0.0256 0.8800
vn 0.9821 0.0446 -0.1831
vn 0.3939 -0.9159 0.0777
vn -0.0000 -0.0524 -0.9986
vn -0.0039 -0.9998 0.0188
vn -0.9986 -0.0532 0.0035
vn 0.7178 0.2174 0.6615
vn 0.7308 0.0279 0.6820
vn 0.9871 0.0283 0.1573
vn 0.9866 0.0544 0.1540
vn 0.9867 0.0487 0.1553
vn 0.9867 0.0487 0.1548
vn -0.2520 -0.8816 0.3990
vn -0.0026 -0.9925 0.1225
vn -0.2951 -0.0140 0.9554
vn 0.4506 -0.8927 -0.0014
vn 0.8625 -0.4675 -0.1938
vn 0.7322 -0.0000 0.6811
vn 0.9875 -0.0000 0.1576
vn 0.9864 0.0604 0.1527
vn 0.7326 0.0744 0.6766
vn 0.9941 0.0203 -0.1069
vn -0.0815 -0.8340 0.5458
vn -0.0982 -0.4163 0.9039
vn 0.9843 -0.1729 -0.0365
vn 0.8635 -0.5024 -0.0439
vn -0.0003 -0.4915 0.8709
vn -0.0010 -0.8902 0.4556
vn 0.9774 -0.2116 -0.0001
vn 0.8004 -0.5994 -0.0002
vn -0.0004 -0.0079 -1.0000
vn 0.0378 -0.9993 -0.0018
vn 0.4744 0.0256 0.8800
vn -0.9821 0.0446 -0.1831
vn -0.3939 -0.9159 0.0777
vn 0.0039 -0.9998 0.0188
vn 0.9986 -0.0532 0.0035
vn -0.7178 0.2173 0.6615
vn -0.7308 0.0279 0.6821
vn -0.9871 0.0283 0.1573
vn -0.9866 0.0544 0.1540
vn -0.9867 0.0488 0.1549
vn -0.9867 0.0487 0.1553
vn 0.2520 -0.8816 0.3990
vn 0.0026 -0.9925 0.1225
vn 0.2951 -0.0140 0.9554
vn -0.4506 -0.8927 -0.0014
vn -0.8625 -0.4675 -0.1938
vn -0.7322 -0.0000 0.6811
vn -0.9875 -0.0000 0.1576
vn -0.9864 0.0604 0.1527
vn -0.7326 0.0744 0.6766
vn -0.9941 0.0210 -0.1068
vn -0.9941 0.0203 -0.1069
vn -0.9941 0.0209 -0.1068
vn 0.0815 -0.8340 0.5458
vn 0.0982 -0.4163 0.9039
vn -0.9843 -0.1729 -0.0365
vn -0.8635 -0.5024 -0.0439
vn 0.0003 -0.4915 0.8709
vn 0.0010 -0.8902 0.4556
vn -0.9774 -0.2116 -0.0001
vn -0.8004 -0.5994 -0.0002
usemtl Material.001
s 1
f 1/1/1 2/2/1 3/3/1 4/4/1
f 5/5/2 6/6/2 7/7/2 8/8/2 3/9/2 2/10/2 9/11/2 10/12/2
f 11/13/3 5/14/3 10/15/3 12/16/3
f 13/17/2 11/13/2 12/16/2 14/18/2
f 12/16/4 15/19/4 16/20/4 14/18/4
f 17/21/5 18/22/5 19/23/5 20/24/5 21/25/5
f 22/26/6 23/27/6 24/28/6 25/29/6
f 26/30/7 15/19/7 27/31/7 28/32/7
f 25/29/8 24/28/8 29/33/8 28/32/8 27/31/8 30/34/8
f 15/19/9 12/16/9 30/34/9 27/31/9
f 31/35/10 32/36/10 33/37/10 34/38/10
f 9/39/11 22/40/11 12/16/11 10/15/11
f 12/16/12 22/40/12 25/29/12 30/34/12
f 23/27/13 35/41/13 36/42/13 37/43/13
f 19/23/14 38/44/14 36/42/14 35/41/14
f 39/45/15 40/46/15 36/42/15 38/44/15
f 26/30/16 37/43/17 36/42/18 40/46/18
f 23/27/19 22/26/19 1/1/19 35/41/19
f 6/47/5 17/21/5 21/25/5 7/48/5
f 22/40/20 9/39/20 2/2/20 1/1/20
f 35/41/21 1/1/21 4/4/21 20/24/21 19/23/21
f 32/49/1 13/50/1 14/51/1 16/52/1 41/53/1 42/54/1 43/55/1 33/56/1
f 44/57/22 41/58/22 16/20/22 15/19/22
f 45/59/10 31/35/10 34/38/10 46/60/10 39/45/10
f 40/46/23 44/57/23 15/19/23 26/30/23
f 19/23/24 18/22/24 47/61/24 38/44/24
f 38/44/25 47/61/25 45/59/25 39/45/25
f 26/30/16 28/32/26 29/33/26 37/43/17
f 37/43/27 29/33/27 24/28/27 23/27/27
f 39/45/28 46/60/28 48/62/29 44/57/28 40/46/28
f 4/4/30 49/63/30 20/24/30
f 49/63/31 21/25/31 20/24/31
f 34/38/32 50/64/32 46/60/32
f 50/64/33 48/62/33 46/60/33
f 7/48/34 21/25/34 49/63/34 8/65/34
f 8/65/35 49/63/35 4/4/35 3/3/35
f 34/38/36 33/37/36 43/66/36 50/64/36
f 50/64/37 43/66/37 42/67/37 48/62/37
f 48/62/38 42/67/38 41/58/38 44/57/38
f 51/68/1 52/69/1 53/70/1 54/71/1
f 55/72/10 56/73/10 57/74/10 54/75/10 53/76/10 58/77/10 59/78/10 60/79/10
f 61/80/39 62/81/39 56/82/39 55/83/39
f 63/84/10 64/85/10 62/81/10 61/80/10
f 62/81/40 64/85/40 65/86/40 66/87/40
f 67/88/5 68/89/5 69/90/5 70/91/5 71/92/5
f 72/93/41 73/94/41 74/95/41 75/96/41
f 76/97/42 77/98/42 78/99/42 66/87/42
f 79/100/43 67/101/43 71/102/43 80/103/43 81/104/43
f 73/94/44 82/105/44 78/99/44 77/98/44 83/106/44 74/95/44
f 66/87/9 78/99/9 82/105/9 62/81/9
f 84/107/2 85/108/2 86/109/2 87/110/2
f 57/111/45 56/82/45 62/81/45 72/112/45
f 62/81/46 82/105/46 73/94/46 72/112/46
f 88/113/43 89/114/43 80/115/43 71/116/43 90/117/43
f 75/96/47 91/118/47 92/119/47 93/120/47
f 70/91/48 93/120/48 92/119/48 94/121/48
f 95/122/49 94/121/49 92/119/49 96/123/49
f 76/97/50 96/123/51 92/119/51 91/118/52
f 75/96/53 93/120/53 51/68/53 72/93/53
f 60/124/5 59/125/5 68/89/5 67/88/5
f 72/112/54 51/68/54 54/71/54 57/111/54
f 93/120/55 70/91/55 69/90/55 52/69/55 51/68/55
f 87/126/1 86/127/1 97/128/1 98/129/1 99/130/1 65/131/1 64/132/1 63/133/1
f 100/134/56 66/87/56 65/86/56 99/135/56
f 88/136/2 95/122/2 101/137/2 85/108/2 84/107/2
f 96/123/57 76/97/57 66/87/57 100/134/57
f 70/91/58 94/121/58 90/138/58 71/92/58
f 94/121/59 95/122/59 88/136/59 90/138/59
f 76/97/50 91/118/52 83/106/60 77/98/60
f 91/118/61 75/96/61 74/95/61 83/106/61
f 95/122/62 96/123/62 100/134/62 102/139/62 101/137/62
f 52/69/63 69/90/63 103/140/63
f 103/140/64 69/90/64 68/89/64
f 85/108/65 101/137/65 104/141/65
f 104/141/66 101/137/66 102/139/66
f 59/125/67 58/142/67 103/140/67 68/89/67
f 58/142/68 53/70/68 52/69/68 103/140/68
f 85/108/69 104/141/69 97/143/69 86/109/69
f 104/141/70 102/139/70 98/144/70 97/143/70
f 102/139/38 100/134/38 99/135/38 98/144/38
f 105/145/1 106/146/1 107/147/1 108/148/1
f 109/149/2 110/150/2 111/151/2 108/152/2 107/153/2 112/154/2 113/155/2 114/156/2
f 115/157/71 116/158/71 110/159/71 109/160/71
f 117/161/2 118/162/2 116/158/2 115/157/2
f 116/158/72 118/162/72 119/163/72 120/164/72
f 121/165/1 122/166/1 123/167/1 124/168/1 125/169/1
f 126/170/73 127/171/73 128/172/73 129/173/73
f 130/174/74 131/175/74 132/176/74 120/164/74
f 133/177/43 121/178/43 125/179/43 134/180/43 135/181/43
f 127/171/75 136/182/75 132/176/75 131/175/75 137/183/75 128/172/75
f 120/164/76 132/176/76 136/182/76 116/158/76
f 138/184/10 139/185/10 140/186/10 141/187/10
f 111/188/77 110/159/77 116/158/77 126/189/77
f 116/158/78 136/182/78 127/171/78 126/189/78
f 142/190/43 143/191/43 134/192/43 125/193/43 144/194/43
f 129/173/79 145/195/79 146/196/79 147/197/79
f 124/168/80 147/197/80 146/196/80 148/198/80
f 149/199/81 148/198/81 146/196/81 150/200/81
f 130/174/82 150/200/83 146/196/83 145/195/84
f 129/173/85 147/197/85 105/145/85 126/170/85
f 114/201/1 113/202/1 122/166/1 121/165/1
f 126/189/86 105/145/86 108/148/86 111/188/86
f 147/197/87 124/168/87 123/167/87 106/146/87 105/145/87
f 141/203/5 140/204/5 151/205/5 152/206/5 153/207/5 119/208/5 118/209/5 117/210/5
f 154/211/88 120/164/88 119/163/88 153/212/88
f 142/213/10 149/199/10 155/214/10 139/185/10 138/184/10
f 150/200/89 130/174/89 120/164/89 154/211/89
f 124/168/90 148/198/90 144/215/90 125/169/90
f 148/198/91 149/199/91 142/213/91 144/215/91
f 130/174/82 145/195/84 137/183/92 131/175/92
f 145/195/93 129/173/93 128/172/93 137/183/93
f 149/199/94 150/200/94 154/211/94 156/216/94 155/214/94
f 106/146/95 123/167/95 157/217/95
f 157/217/96 123/167/96 122/166/96
f 139/185/97 155/214/97 158/218/97
f 158/218/98 155/214/98 156/216/98
f 113/202/99 112/219/99 157/217/99 122/166/99
f 112/219/100 107/147/100 106/146/100 157/217/100
f 139/185/101 158/218/101 151/220/101 140/186/101
f 158/218/102 156/216/102 152/221/102 151/220/102
f 156/216/38 154/211/38 153/212/38 152/221/38
f 159/222/1 160/223/1 161/224/1 162/225/1
f 163/226/10 164/227/10 165/228/10 166/229/10 161/230/10 160/231/10 167/232/10 168/233/10
f 169/234/103 163/235/103 168/236/103 170/237/103
f 171/238/10 169/234/10 170/237/10 172/239/10
f 170/237/104 173/240/104 174/241/104 172/239/104
f 175/242/1 176/243/1 177/244/1 178/245/1 179/246/1
f 180/247/105 181/248/105 182/249/105 183/250/105
f 184/251/106 173/240/106 185/252/106 186/253/106
f 187/254/43 188/255/43 189/256/43 176/257/43 175/258/43
f 183/250/107 182/249/107 190/259/107 186/253/107 185/252/107 191/260/107
f 173/240/76 170/237/76 191/260/76 185/252/76
f 192/261/2 193/262/2 194/263/2 195/264/2
f 167/265/108 180/266/108 170/237/108 168/236/108
f 170/237/109 180/266/109 183/250/109 191/260/109
f 196/267/43 197/268/43 176/269/43 189/270/43 198/271/43
f 181/248/110 199/272/110 200/273/110 201/274/110
f 177/244/111 202/275/111 200/273/111 199/272/111
f 203/276/112 204/277/112 200/273/112 202/275/112
f 184/251/113 201/274/114 200/273/115 204/277/115
f 181/248/116 180/247/116 159/222/116 199/272/116
f 164/278/1 175/242/1 179/246/1 165/279/1
f 180/266/117 167/265/117 160/223/117 159/222/117
f 199/272/118 159/222/118 162/225/118 178/245/118 177/244/118
f 193/280/5 171/281/5 172/282/5 174/283/5 205/284/5 206/285/5 207/286/5 194/287/5
f 208/288/119 205/289/119 174/241/119 173/240/119
f 196/290/2 192/261/2 195/264/2 209/291/2 203/276/2
f 204/277/120 208/288/120 173/240/120 184/251/120
f 177/244/121 176/243/121 197/292/121 202/275/121
f 202/275/122 197/292/122 196/290/122 203/276/122
f 184/251/113 186/253/123 190/259/123 201/274/114
f 201/274/124 190/259/124 182/249/124 181/248/124
f 203/276/125 209/291/125 210/293/126 208/288/127 204/277/127
f 162/225/128 211/294/128 178/245/128
f 211/294/129 179/246/129 178/245/129
f 195/264/130 212/295/130 209/291/130
f 212/295/131 210/293/131 209/291/131
f 165/279/132 179/246/132 211/294/132 166/296/132
f 166/296/133 211/294/133 162/225/133 161/224/133
f 195/264/134 194/263/134 207/297/134 212/295/134
f 212/295/135 207/297/135 206/298/135 210/293/135
f 210/293/38 206/298/38 205/289/38 208/288/38
o colored
v 0.493121 -0.563426 -1.460443
v 0.493121 -0.503417 -1.460443
v 0.562715 -0.503417 -1.460443
v 0.562715 -0.563426 -1.460443
v 0.562715 -0.563426 -1.290648
v 0.562715 -0.503417 -1.290648
v 0.562715 -0.503419 -0.000000
v 0.562715 -0.563426 -0.000000
v 0.539313 -0.563426 -1.422202
v 0.539313 -0.563426 0.205679
v 0.562715 -0.503417 -1.358857
v 0.562715 -0.563426 -1.358857
v 0.520768 -0.503417 -1.373134
v 0.505484 -0.503417 -1.373134
v 0.505484 -0.503419 -0.000000
v 0.520768 -0.503419 -0.000000
v -0.078069 -0.563426 -1.422202
v 0.521194 -0.563426 -1.422202
v 0.521194 -0.563426 0.205679
v 0.000000 -0.563426 -0.000000
v 0.000000 -0.563426 -1.460443
v 0.477838 -0.563426 -1.460443
v 0.521194 -0.563426 -1.452261
v -0.078069 -0.563426 -1.452261
v 0.520768 -0.503417 -1.398489
v 0.505484 -0.503417 -1.398489
v 0.477838 -0.503417 -1.460443
v 0.000000 -0.503417 -1.460443
v 0.000000 -0.503417 -1.398489
v 0.000000 -0.503417 -1.373134
v 0.000000 -0.503419 -0.000000
v 0.539313 -0.563426 -1.435103
v 0.542917 -0.563426 -1.437877
v 0.532717 -0.563426 -1.453429
v 0.532702 -0.563426 -1.452261
v 0.537377 -0.563426 -1.447235
v -0.493121 -0.563426 -1.460443
v -0.562715 -0.563426 -1.460443
v -0.562715 -0.503417 -1.460443
v -0.493121 -0.503417 -1.460443
v -0.562715 -0.563426 -1.290648
v -0.562715 -0.563426 -0.000000
v -0.562715 -0.503419 -0.000000
v -0.562715 -0.503417 -1.290648
v -0.539313 -0.563426 -1.422202
v -0.539313 -0.563426 0.205679
v -0.562715 -0.563426 -1.358857
v -0.562715 -0.503417 -1.358857
v -0.520768 -0.503417 -1.373134
v -0.520768 -0.503419 -0.000000
v -0.505484 -0.503419 -0.000000
v -0.505484 -0.503417 -1.373134
v 0.078069 -0.563426 -1.422202
v -0.521194 -0.563426 0.205679
v -0.521194 -0.563426 -1.422202
v 0.078069 -0.563426 -1.452261
v -0.521194 -0.563426 -1.452261
v -0.477838 -0.563426 -1.460443
v -0.520768 -0.503417 -1.398489
v -0.505484 -0.503417 -1.398489
v -0.477838 -0.503417 -1.460443
v -0.539313 -0.563426 -1.435103
v -0.542917 -0.563426 -1.437877
v -0.532717 -0.563426 -1.453429
v 0.493121 -0.563427 1.460443
v 0.562715 -0.563427 1.460443
v 0.562715 -0.503418 1.460443
v 0.493121 -0.503419 1.460443
v 0.562715 -0.563427 1.290648
v 0.562715 -0.503419 1.290648
v 0.539313 -0.563427 1.422203
v 0.539313 -0.563426 -0.205679
v 0.562715 -0.563427 1.358858
v 0.562715 -0.503419 1.358858
v 0.520768 -0.503419 1.373135
v 0.505484 -0.503419 1.373135
v -0.078069 -0.563427 1.422203
v 0.521194 -0.563426 -0.205679
v 0.521194 -0.563427 1.422203
v 0.000000 -0.563427 1.460443
v -0.078069 -0.563427 1.452261
v 0.521194 -0.563427 1.452261
v 0.477838 -0.563427 1.460443
v 0.520768 -0.503419 1.398489
v 0.505484 -0.503419 1.398489
v 0.477838 -0.503419 1.460443
v 0.000000 -0.503418 1.460443
v 0.000000 -0.503419 1.398489
v 0.000000 -0.503419 1.373135
v 0.539313 -0.563427 1.435103
v 0.542917 -0.563427 1.437877
v 0.532717 -0.563427 1.453429
v -0.493121 -0.563427 1.460443
v -0.493121 -0.503419 1.460443
v -0.562715 -0.503418 1.460443
v -0.562715 -0.563427 1.460443
v -0.562715 -0.563427 1.290648
v -0.562715 -0.503419 1.290648
v -0.539313 -0.563427 1.422203
v -0.539313 -0.563426 -0.205679
v -0.562715 -0.503419 1.358858
v -0.562715 -0.563427 1.358858
v -0.520768 -0.503419 1.373135
v -0.505484 -0.503419 1.373135
v 0.078069 -0.563427 1.422203
v -0.521194 -0.563427 1.422203
v -0.521194 -0.563426 -0.205679
v -0.477838 -0.563427 1.460443
v -0.521194 -0.563427 1.452261
v 0.078069 -0.563427 1.452261
v -0.520768 -0.503419 1.398489
v -0.505484 -0.503419 1.398489
v -0.477838 -0.503419 1.460443
v -0.539313 -0.563427 1.435103
v -0.542917 -0.563427 1.437877
v -0.532717 -0.563427 1.453429
vt 0.935573 0.791999
vt 0.936698 0.791999
vt 0.936698 0.792186
vt 0.935573 0.792186
vt 0.935573 0.792636
vt 0.936698 0.792636
vt 0.936698 0.792749
vt 0.935573 0.792749
vt 0.940497 0.789941
vt 0.941141 0.789941
vt 0.941141 0.790327
vt 0.940497 0.790327
vt 0.936698 0.792411
vt 0.935573 0.792411
vt 0.936885 0.792636
vt 0.937073 0.792636
vt 0.937073 0.792749
vt 0.936885 0.792749
vt 0.934657 0.786553
vt 0.942906 0.786553
vt 0.942906 0.791502
vt 0.934657 0.791502
vt 0.939208 0.788395
vt 0.939853 0.788395
vt 0.939853 0.789168
vt 0.939208 0.789168
vt 0.936885 0.792411
vt 0.937073 0.792411
vt 0.936885 0.792186
vt 0.937073 0.792186
vt 0.935573 0.791624
vt 0.936698 0.791624
vt 0.936698 0.791811
vt 0.935573 0.791811
vt 0.937260 0.792186
vt 0.937260 0.792411
vt 0.937260 0.792636
vt 0.937260 0.792749
vt 0.940497 0.789609
vt 0.940596 0.789168
vt 0.941141 0.789168
vt 0.940497 0.788395
vt 0.941141 0.788395
vt 0.940497 0.789057
vt 0.940262 0.789168
vt 0.935556 0.795507
vt 0.935556 0.794048
vt 0.935556 0.793443
vt 0.935556 0.792927
vt 0.936020 0.793443
vt 0.935573 0.791999
vt 0.935573 0.792186
vt 0.936698 0.792186
vt 0.936698 0.791999
vt 0.935573 0.792636
vt 0.935573 0.792749
vt 0.936698 0.792749
vt 0.936698 0.792636
vt 0.940497 0.789941
vt 0.940497 0.790327
vt 0.941141 0.790327
vt 0.941141 0.789941
vt 0.935573 0.792411
vt 0.936698 0.792411
vt 0.936885 0.792636
vt 0.936885 0.792749
vt 0.937073 0.792749
vt 0.937073 0.792636
vt 0.934657 0.786553
vt 0.942906 0.791502
vt 0.942906 0.786553
vt 0.939208 0.789168
vt 0.939853 0.789168
vt 0.939853 0.788395
vt 0.936885 0.792411
vt 0.937073 0.792411
vt 0.936885 0.792186
vt 0.937073 0.792186
vt 0.935573 0.791811
vt 0.936698 0.791811
vt 0.940497 0.789609
vt 0.941141 0.789168
vt 0.940596 0.789168
vt 0.940497 0.788395
vt 0.940497 0.789057
vt 0.941141 0.788395
vt 0.935573 0.791999
vt 0.935573 0.792186
vt 0.936698 0.792186
vt 0.936698 0.791999
vt 0.935573 0.792636
vt 0.936698 0.792636
vt 0.940497 0.789941
vt 0.940497 0.790327
vt 0.941141 0.789941
vt 0.935573 0.792411
vt 0.936698 0.792411
vt 0.936885 0.792636
vt 0.937073 0.792636
vt 0.934657 0.786553
vt 0.942906 0.791502
vt 0.942906 0.786553
vt 0.939208 0.788395
vt 0.939208 0.789168
vt 0.939853 0.789168
vt 0.939853 0.788395
vt 0.936885 0.792411
vt 0.937073 0.792411
vt 0.936885 0.792186
vt 0.937073 0.792186
vt 0.935573 0.791624
vt 0.935573 0.791811
vt 0.936698 0.791811
vt 0.936698 0.791624
vt 0.937260 0.792411
vt 0.937260 0.792186
vt 0.937260 0.792636
vt 0.940497 0.789609
vt 0.941141 0.789168
vt 0.940596 0.789168
vt 0.940497 0.788395
vt 0.940497 0.789057
vt 0.941141 0.788395
vt 0.935573 0.791999
vt 0.936698 0.791999
vt 0.936698 0.792186
vt 0.935573 0.792186
vt 0.935573 0.792636
vt 0.936698 0.792636
vt 0.940497 0.789941
vt 0.941141 0.789941
vt 0.940497 0.790327
vt 0.936698 0.792411
vt 0.935573 0.792411
vt 0.936885 0.792636
vt 0.937073 0.792636
vt 0.934657 0.786553
vt 0.942906 0.786553
vt 0.942906 0.791502
vt 0.939853 0.788395
vt 0.939853 0.789168
vt 0.939208 0.789168
vt 0.936885 0.792411
vt 0.937073 0.792411
vt 0.936885 0.792186
vt 0.937073 0.792186
vt 0.936698 0.791811
vt 0.935573 0.791811
vt 0.940497 0.789609
vt 0.940596 0.789168
vt 0.941141 0.789168
vt 0.940497 0.788395
vt 0.941141 0.788395
vt 0.940497 0.789057
vn 0.0000 0.0000 -1.0000
vn 1.0000 0.0000 0.0000
vn -0.0000 -1.0000 -0.0000
vn -0.0000 1.0000 0.0000
vn -1.0000 0.0000 0.0000
vn 0.0000 0.0000 1.0000
usemtl Material.001
s 1
f 213/299/136 214/300/136 215/301/136 216/302/136
f 217/303/137 218/304/137 219/305/137 220/306/137
f 221/307/138 217/308/138 220/309/138 222/310/138
f 216/302/137 215/301/137 223/311/137 224/312/137
f 224/312/137 223/311/137 218/304/137 217/303/137
f 225/313/139 226/314/139 227/315/139 228/316/139
f 229/317/138 230/318/138 231/319/138 232/320/138
f 233/321/138 234/322/138 235/323/138 236/324/138
f 237/325/139 238/326/139 226/314/139 225/313/139
f 214/327/139 239/328/139 238/326/139 237/325/139
f 233/329/136 240/330/136 239/331/136 234/332/136
f 239/328/139 240/333/139 241/334/139 238/326/139
f 238/326/139 241/334/139 242/335/139 226/314/139
f 226/314/139 242/335/139 243/336/139 227/315/139
f 215/301/139 214/327/139 237/325/139 223/311/139
f 223/311/139 237/325/139 225/313/139 218/304/139
f 218/304/139 225/313/139 228/316/139 219/305/139
f 244/337/138 245/338/138 224/339/138 217/308/138 221/307/138
f 234/332/136 239/331/136 214/300/136 213/299/136
f 213/340/138 216/341/138 224/339/138 245/338/138 246/342/138
f 234/322/138 213/340/138 246/342/138 247/343/138 235/323/138
f 244/344/138 248/345/138 247/346/138 246/347/138 245/348/138
f 249/349/136 250/350/136 251/351/136 252/352/136
f 253/353/140 254/354/140 255/355/140 256/356/140
f 257/357/138 258/358/138 254/359/138 253/360/138
f 250/350/140 259/361/140 260/362/140 251/351/140
f 259/361/140 253/353/140 256/356/140 260/362/140
f 261/363/139 262/364/139 263/365/139 264/366/139
f 265/367/138 232/320/138 266/368/138 267/369/138
f 233/321/138 268/370/138 269/371/138 270/372/138
f 271/373/139 261/363/139 264/366/139 272/374/139
f 252/375/139 271/373/139 272/374/139 273/376/139
f 233/329/136 270/377/136 273/378/136 240/330/136
f 273/376/139 272/374/139 241/334/139 240/333/139
f 272/374/139 264/366/139 242/335/139 241/334/139
f 264/366/139 263/365/139 243/336/139 242/335/139
f 251/351/139 260/362/139 271/373/139 252/375/139
f 260/362/139 256/356/139 261/363/139 271/373/139
f 256/356/139 255/355/139 262/364/139 261/363/139
f 274/379/138 257/357/138 253/360/138 259/380/138 275/381/138
f 270/377/136 249/349/136 252/352/136 273/378/136
f 249/382/138 276/383/138 275/381/138 259/380/138 250/384/138
f 277/385/141 278/386/141 279/387/141 280/388/141
f 281/389/137 220/306/137 219/305/137 282/390/137
f 283/391/138 284/392/138 220/309/138 281/393/138
f 278/386/137 285/394/137 286/395/137 279/387/137
f 285/394/137 281/389/137 282/390/137 286/395/137
f 287/396/139 228/316/139 227/315/139 288/397/139
f 289/398/138 232/320/138 290/399/138 291/400/138
f 292/401/138 293/402/138 294/403/138 295/404/138
f 296/405/139 287/396/139 288/397/139 297/406/139
f 280/407/139 296/405/139 297/406/139 298/408/139
f 292/409/141 295/410/141 298/411/141 299/412/141
f 298/408/139 297/406/139 300/413/139 299/414/139
f 297/406/139 288/397/139 301/415/139 300/413/139
f 288/397/139 227/315/139 243/336/139 301/415/139
f 279/387/139 286/395/139 296/405/139 280/407/139
f 286/395/139 282/390/139 287/396/139 296/405/139
f 282/390/139 219/305/139 228/316/139 287/396/139
f 302/416/138 283/391/138 281/393/138 285/417/138 303/418/138
f 295/410/141 277/385/141 280/388/141 298/411/141
f 277/419/138 304/420/138 303/418/138 285/417/138 278/421/138
f 305/422/141 306/423/141 307/424/141 308/425/141
f 309/426/140 310/427/140 255/355/140 254/354/140
f 311/428/138 309/429/138 254/359/138 312/430/138
f 308/425/140 307/424/140 313/431/140 314/432/140
f 314/432/140 313/431/140 310/427/140 309/426/140
f 315/433/139 316/434/139 263/365/139 262/364/139
f 317/435/138 318/436/138 319/437/138 232/320/138
f 292/401/138 320/438/138 321/439/138 322/440/138
f 323/441/139 324/442/139 316/434/139 315/433/139
f 306/443/139 325/444/139 324/442/139 323/441/139
f 292/409/141 299/412/141 325/445/141 320/446/141
f 325/444/139 299/414/139 300/413/139 324/442/139
f 324/442/139 300/413/139 301/415/139 316/434/139
f 316/434/139 301/415/139 243/336/139 263/365/139
f 307/424/139 306/443/139 323/441/139 313/431/139
f 313/431/139 323/441/139 315/433/139 310/427/139
f 310/427/139 315/433/139 262/364/139 255/355/139
f 326/447/138 327/448/138 314/449/138 309/429/138 311/428/138
f 320/446/141 325/445/141 306/423/141 305/422/141
f 305/450/138 308/451/138 314/449/138 327/448/138 328/452/138
