# Blender v2.93.0 OBJ File: ''
# www.blender.org
mtllib paper.mtl
o Cube_Cube.001
v 0.177818 0.282220 0.000448
v 0.177818 0.282220 -0.000448
v -0.177818 0.282220 -0.000448
v -0.177818 0.282220 0.000448
v 0.179404 -0.280634 0.000448
v 0.179404 -0.280634 -0.000448
v 0.179404 0.280634 -0.000448
v 0.179404 0.280634 0.000448
v 0.177818 -0.280634 -0.002036
v -0.177818 -0.280634 -0.002036
v -0.177818 0.280634 -0.002036
v 0.177818 0.280634 -0.002036
v -0.179404 0.280634 0.000448
v -0.179404 0.280634 -0.000448
v -0.179404 -0.280634 -0.000448
v -0.179404 -0.280634 0.000448
v -0.177818 -0.282220 0.000448
v -0.177818 -0.282220 -0.000448
v 0.177818 -0.282220 -0.000448
v 0.177818 -0.282220 0.000448
v -0.177818 0.280634 0.002036
v -0.177818 -0.280634 0.002036
v 0.177818 0.280634 0.002036
v 0.177818 -0.280634 0.002036
vt 0.976762 0.868806
vt 0.976910 0.868806
vt 0.976910 0.869471
vt 0.976762 0.869471
vt 0.976762 0.868134
vt 0.976910 0.868134
vt 0.976910 0.868801
vt 0.976762 0.868801
vt 0.977174 0.868134
vt 0.977840 0.868134
vt 0.977840 0.868801
vt 0.977174 0.868801
vt 0.976762 0.866791
vt 0.976910 0.866791
vt 0.976910 0.867459
vt 0.976762 0.867459
vt 0.976762 0.867464
vt 0.976910 0.867464
vt 0.976910 0.868129
vt 0.976762 0.868129
vt 0.975832 0.868801
vt 0.975832 0.868803
vt 0.975829 0.868801
vt 0.977171 0.869471
vt 0.976910 0.869474
vt 0.975832 0.868134
vt 0.975829 0.868134
vt 0.975832 0.868132
vt 0.977171 0.867464
vt 0.976497 0.868801
vt 0.976500 0.868801
vt 0.976497 0.868803
vt 0.976497 0.868134
vt 0.976497 0.868132
vt 0.976500 0.868134
vt 0.977171 0.868134
vt 0.976762 0.866789
vt 0.976910 0.866789
vt 0.977171 0.866791
vn 0.0000 1.0000 0.0000
vn 1.0000 0.0000 0.0000
vn 0.0000 0.0000 -1.0000
vn -1.0000 0.0000 0.0000
vn 0.0000 -1.0000 0.0000
vn -0.5774 0.5772 0.5774
vn -0.5774 0.5773 -0.5774
vn -0.5774 -0.5772 0.5774
vn -0.5774 -0.5772 -0.5774
vn 0.5774 0.5772 0.5774
vn 0.5774 0.5772 -0.5774
vn 0.5774 -0.5772 0.5774
vn 0.5774 -0.5772 -0.5774
vn -0.7072 -0.0000 0.7070
vn -0.7071 0.7071 0.0000
vn -0.7072 0.0000 -0.7070
vn -0.7071 -0.7071 0.0000
vn -0.0000 -0.7073 0.7069
vn 0.0000 -0.7073 -0.7069
vn 0.7071 -0.7071 0.0000
vn 0.7072 -0.0000 0.7070
vn 0.7072 0.0000 -0.7070
vn 0.7071 0.7071 0.0000
vn 0.0000 0.7073 0.7069
vn -0.0000 0.7073 -0.7069
vn 0.0000 -0.0000 1.0000
usemtl Material.001
s 1
f 1/1/1 2/2/1 3/3/1 4/4/1
f 5/5/2 6/6/2 7/7/2 8/8/2
f 9/9/3 10/10/3 11/11/3 12/12/3
f 13/13/4 14/14/4 15/15/4 16/16/4
f 17/17/5 18/18/5 19/19/5 20/20/5
f 21/21/6 4/22/6 13/23/6
f 3/3/7 11/24/7 14/25/7
f 22/26/8 16/27/8 17/28/8
f 10/29/9 18/18/9 15/15/9
f 23/30/10 8/31/10 1/32/10
f 12/12/11 2/2/11 7/7/11
f 24/33/12 20/34/12 5/35/12
f 9/9/13 6/36/13 19/19/13
f 22/26/14 21/21/14 13/23/14 16/27/14
f 4/37/15 3/38/15 14/14/15 13/13/15
f 11/39/16 10/29/16 15/15/16 14/14/16
f 18/18/17 17/17/17 16/16/17 15/15/17
f 24/33/18 22/26/18 17/28/18 20/34/18
f 10/29/19 9/9/19 19/19/19 18/18/19
f 6/6/20 5/5/20 20/20/20 19/19/20
f 23/30/21 24/33/21 5/5/21 8/8/21
f 9/9/22 12/12/22 7/7/22 6/6/22
f 2/2/23 1/1/23 8/8/23 7/7/23
f 21/21/24 23/30/24 1/32/24 4/22/24
f 12/12/25 11/24/25 3/3/25 2/2/25
f 22/26/26 24/33/26 23/30/26 21/21/26
