# Blender v3.0.0 OBJ File: ''
# www.blender.org
mtllib telesc.mtl
o Cylinder
v 0.120171 0.280449 0.170596
v 0.120171 0.325823 0.184908
v 0.130493 0.325114 0.187155
v 0.130493 0.279741 0.172843
v 0.138770 0.323129 0.193450
v 0.138770 0.277755 0.179139
v 0.143363 0.320259 0.202547
v 0.143363 0.274886 0.188236
v 0.143363 0.317075 0.212643
v 0.143363 0.271701 0.198332
v 0.138770 0.314205 0.221740
v 0.138770 0.268832 0.207428
v 0.130493 0.312220 0.228035
v 0.130493 0.266846 0.213724
v 0.120171 0.311512 0.230281
v 0.120171 0.266138 0.215970
v 0.109850 0.312220 0.228035
v 0.109850 0.266846 0.213724
v 0.101573 0.314205 0.221740
v 0.101573 0.268832 0.207428
v 0.096979 0.317075 0.212643
v 0.096979 0.271701 0.198332
v 0.096979 0.320259 0.202547
v 0.096979 0.274886 0.188236
v 0.101573 0.323129 0.193450
v 0.101573 0.277755 0.179139
v 0.143363 0.609291 0.307666
v 0.138770 0.606422 0.316763
v 0.109850 0.325114 0.187155
v 0.109850 0.279741 0.172843
v 0.143363 0.263350 0.184597
v 0.138770 0.266220 0.175501
v 0.143363 0.246994 0.179438
v 0.138770 0.249864 0.170341
v 0.109850 0.255311 0.210086
v 0.120171 0.254602 0.212333
v 0.130493 0.268205 0.169205
v 0.120171 0.268914 0.166958
v 0.109850 0.268205 0.169205
v 0.101573 0.266220 0.175501
v 0.130493 0.255311 0.210086
v 0.138770 0.257298 0.203790
v 0.096979 0.263350 0.184597
v 0.096979 0.260166 0.194693
v 0.143363 0.260166 0.194693
v 0.101573 0.257298 0.203790
v 0.120171 0.252557 0.161799
v 0.109850 0.251849 0.164046
v 0.096979 0.246994 0.179438
v 0.096979 0.243809 0.189535
v 0.143363 0.243809 0.189535
v 0.101573 0.249864 0.170341
v 0.138770 0.240940 0.198631
v 0.130493 0.238955 0.204926
v 0.132359 0.610046 0.305271
v 0.129945 0.608539 0.310051
v 0.120171 0.238246 0.207173
v 0.130493 0.251849 0.164046
v 0.109850 0.238955 0.204926
v 0.101573 0.240940 0.198631
v 0.120171 0.241567 0.167698
v 0.126618 0.241124 0.169101
v 0.131787 0.239884 0.173033
v 0.134656 0.238093 0.178714
v 0.134656 0.236104 0.185020
v 0.131787 0.234312 0.190702
v 0.126618 0.233071 0.194633
v 0.120171 0.232629 0.196037
v 0.113725 0.233071 0.194633
v 0.108555 0.234312 0.190702
v 0.105686 0.236104 0.185020
v 0.105686 0.238093 0.178714
v 0.108555 0.239884 0.173033
v 0.113725 0.241124 0.169101
v 0.129358 0.245268 0.164442
v 0.120171 0.245899 0.162442
v 0.136725 0.243501 0.170045
v 0.140813 0.240947 0.178141
v 0.140813 0.238113 0.187127
v 0.136725 0.235560 0.195224
v 0.129358 0.233793 0.200827
v 0.120171 0.233161 0.202827
v 0.110984 0.233793 0.200827
v 0.103618 0.235560 0.195224
v 0.099529 0.238113 0.187127
v 0.099529 0.240947 0.178141
v 0.103618 0.243501 0.170045
v 0.110984 0.245268 0.164442
v 0.101573 0.606422 0.316763
v 0.096979 0.609291 0.307666
v 0.138770 0.615344 0.288473
v 0.143363 0.612476 0.297570
v 0.120171 0.603728 0.325305
v 0.109850 0.604436 0.323058
v 0.120171 0.618039 0.279932
v 0.130493 0.617330 0.282178
v 0.101573 0.615344 0.288473
v 0.109850 0.617330 0.282178
v 0.130493 0.604436 0.323058
v 0.096979 0.612476 0.297570
v 0.110397 0.608539 0.310051
v 0.114747 0.607495 0.313360
v 0.114747 0.865800 0.395399
v 0.110397 0.866844 0.392091
v 0.107983 0.611720 0.299965
v 0.110397 0.613227 0.295185
v 0.132359 0.611720 0.299965
v 0.129945 0.613227 0.295185
v 0.107983 0.610046 0.305271
v 0.125595 0.614271 0.291876
v 0.114747 0.614271 0.291876
v 0.120171 0.614643 0.290695
v 0.125595 0.607495 0.313360
v 0.120171 0.607123 0.314541
v 0.120171 0.872948 0.372735
v 0.114747 0.872576 0.373916
v 0.116634 0.871397 0.377654
v 0.120171 0.871640 0.376884
v 0.125595 0.872576 0.373916
v 0.125595 0.865800 0.395399
v 0.120171 0.865428 0.396580
v 0.132359 0.868351 0.387310
v 0.129945 0.866844 0.392091
v 0.107983 0.870025 0.382005
v 0.110397 0.871533 0.377224
v 0.129945 0.871533 0.377224
v 0.132359 0.870025 0.382005
v 0.107983 0.868351 0.387310
v 0.112224 0.868643 0.386387
v 0.113798 0.867659 0.389504
v 0.113799 1.162900 0.482626
v 0.112225 1.163882 0.479509
v 0.128118 0.868643 0.386387
v 0.126544 0.867659 0.389504
v 0.112224 0.869734 0.382928
v 0.113798 0.870716 0.379811
v 0.126544 0.870716 0.379811
v 0.128118 0.869734 0.382928
v 0.123708 0.866979 0.391661
v 0.120171 0.866736 0.392431
v 0.116634 0.866979 0.391661
v 0.123708 0.871397 0.377654
v 0.116635 1.162219 0.484783
v 0.120171 1.161977 0.485553
v 0.120171 1.161038 0.488530
v 0.115280 1.161374 0.487466
v 0.126544 1.162900 0.482626
v 0.123708 1.162219 0.484783
v 0.113799 1.165957 0.472932
v 0.116635 1.166638 0.470776
v 0.128118 1.164974 0.476049
v 0.128118 1.163882 0.479509
v 0.112225 1.164974 0.476049
v 0.123708 1.166638 0.470776
v 0.126544 1.165957 0.472932
v 0.120171 1.166880 0.470006
v 0.109181 1.165183 0.475387
v 0.109181 1.163674 0.480172
v 0.107887 1.167674 0.481743
v 0.107887 1.169361 0.476396
v 0.111358 1.166543 0.471076
v 0.115280 1.167483 0.468093
v 0.131162 1.165183 0.475387
v 0.131162 1.163674 0.480172
v 0.125062 1.167483 0.468093
v 0.128985 1.166543 0.471076
v 0.111358 1.162314 0.484483
v 0.120171 1.167819 0.467029
v 0.125062 1.161374 0.487466
v 0.128985 1.162314 0.484483
v 0.125638 1.171932 0.468243
v 0.120171 1.172308 0.467053
v 0.120171 1.177125 0.468572
v 0.125638 1.176750 0.469763
v 0.130022 1.170880 0.471577
v 0.114705 1.165103 0.489895
v 0.110320 1.166155 0.486561
v 0.125638 1.165103 0.489895
v 0.120171 1.164728 0.491085
v 0.114705 1.171932 0.468243
v 0.132455 1.167674 0.481743
v 0.130022 1.166155 0.486561
v 0.110320 1.170880 0.471577
v 0.132455 1.169361 0.476396
v 0.107887 1.174178 0.477914
v 0.107887 1.172491 0.483263
v 0.108548 1.173959 0.483567
v 0.108548 1.175556 0.478507
v 0.125638 1.169920 0.491414
v 0.120171 1.169544 0.492604
v 0.114705 1.176750 0.469763
v 0.132455 1.172491 0.483263
v 0.130022 1.170972 0.488080
v 0.110320 1.175698 0.473096
v 0.130022 1.175698 0.473096
v 0.132455 1.174178 0.477914
v 0.110320 1.170972 0.488080
v 0.114705 1.169920 0.491414
v 0.114999 1.177989 0.470793
v 0.120171 1.178344 0.469667
v 0.125344 1.177989 0.470793
v 0.129492 1.176993 0.473948
v 0.114999 1.171526 0.491281
v 0.110850 1.172521 0.488126
v 0.131794 1.173959 0.483567
v 0.129492 1.172521 0.488126
v 0.125344 1.171526 0.491281
v 0.120171 1.171171 0.492407
v 0.124074 1.178967 0.473866
v 0.120171 1.179234 0.473016
v 0.116268 1.178967 0.473866
v 0.113138 1.178216 0.476247
v 0.111401 1.177130 0.479686
v 0.111401 1.175926 0.483504
v 0.113138 1.174841 0.486945
v 0.116268 1.174090 0.489325
v 0.120171 1.173822 0.490175
v 0.124074 1.174090 0.489325
v 0.127205 1.174841 0.486945
v 0.128942 1.175926 0.483504
v 0.128942 1.177130 0.479686
v 0.127205 1.178216 0.476247
v 0.131794 1.175556 0.478507
v 0.110850 1.176993 0.473948
v 0.111793 1.178019 0.475061
v 0.115522 1.178914 0.472224
v 0.109724 1.175293 0.483706
v 0.109724 1.176727 0.479158
v 0.115522 1.173106 0.490640
v 0.111793 1.174000 0.487803
v 0.124821 1.173106 0.490640
v 0.120171 1.172787 0.491652
v 0.130618 1.175293 0.483706
v 0.128549 1.174000 0.487803
v 0.128549 1.178019 0.475061
v 0.130618 1.176727 0.479158
v 0.124821 1.178914 0.472224
v 0.120171 1.179233 0.471212
vt 0.979178 0.168776
vt 0.979178 0.171196
vt 0.978833 0.171196
vt 0.978833 0.168776
vt 0.978487 0.171196
vt 0.978487 0.168776
vt 0.978141 0.171196
vt 0.978141 0.168776
vt 0.977796 0.171196
vt 0.977796 0.168776
vt 0.977450 0.171196
vt 0.977450 0.168776
vt 0.977104 0.171196
vt 0.977104 0.168776
vt 0.976759 0.171196
vt 0.976759 0.168776
vt 0.976413 0.171196
vt 0.976413 0.168776
vt 0.976067 0.171196
vt 0.976067 0.168776
vt 0.975722 0.171196
vt 0.975722 0.168776
vt 0.975376 0.171196
vt 0.975376 0.168776
vt 0.975030 0.171196
vt 0.975030 0.168776
vt 0.977796 0.171196
vt 0.977450 0.171196
vt 0.974685 0.171196
vt 0.974685 0.168776
vt 0.974339 0.171196
vt 0.974339 0.168776
vt 0.978141 0.168776
vt 0.978487 0.168776
vt 0.979195 0.096431
vt 0.978711 0.096431
vt 0.978711 0.096431
vt 0.979195 0.096431
vt 0.976413 0.168776
vt 0.976759 0.168776
vt 0.978833 0.168776
vt 0.979178 0.168776
vt 0.974685 0.168776
vt 0.975030 0.168776
vt 0.977104 0.168776
vt 0.977450 0.168776
vt 0.975376 0.168776
vt 0.975722 0.168776
vt 0.977796 0.168776
vt 0.976067 0.168776
vt 0.974339 0.168776
vt 0.973876 0.096431
vt 0.973393 0.096431
vt 0.973393 0.096431
vt 0.973876 0.096431
vt 0.975327 0.096431
vt 0.974843 0.096431
vt 0.974843 0.096431
vt 0.975327 0.096431
vt 0.978228 0.096431
vt 0.978228 0.096431
vt 0.974360 0.096431
vt 0.974360 0.096431
vt 0.977744 0.096431
vt 0.977744 0.096431
vt 0.977261 0.096431
vt 0.977261 0.096431
vt 0.977796 0.171196
vt 0.977450 0.171196
vt 0.976777 0.096431
vt 0.976777 0.096431
vt 0.979678 0.096431
vt 0.979678 0.096431
vt 0.976294 0.096431
vt 0.976294 0.096431
vt 0.975810 0.096431
vt 0.975810 0.096431
vt 0.978469 0.095753
vt 0.978910 0.095653
vt 0.979263 0.095371
vt 0.979459 0.094964
vt 0.979459 0.094513
vt 0.979263 0.094106
vt 0.978910 0.093825
vt 0.978469 0.093724
vt 0.978029 0.093825
vt 0.977676 0.094106
vt 0.977480 0.094513
vt 0.977480 0.094964
vt 0.977676 0.095371
vt 0.978029 0.095653
vt 0.980162 0.096431
vt 0.979705 0.096431
vt 0.980135 0.096431
vt 0.978508 0.096354
vt 0.979136 0.096211
vt 0.979221 0.096431
vt 0.979206 0.096178
vt 0.979709 0.095776
vt 0.978738 0.096431
vt 0.979757 0.095716
vt 0.980036 0.095136
vt 0.978254 0.096431
vt 0.980053 0.095060
vt 0.980053 0.094417
vt 0.977771 0.096431
vt 0.978201 0.096431
vt 0.980036 0.094341
vt 0.979757 0.093762
vt 0.977287 0.096431
vt 0.977718 0.096431
vt 0.979709 0.093701
vt 0.979206 0.093300
vt 0.976804 0.096431
vt 0.977234 0.096431
vt 0.979136 0.093266
vt 0.978508 0.093123
vt 0.976320 0.096431
vt 0.978431 0.093123
vt 0.977803 0.093266
vt 0.975837 0.096431
vt 0.977734 0.093300
vt 0.977230 0.093701
vt 0.975353 0.096431
vt 0.977182 0.093762
vt 0.976903 0.094341
vt 0.974870 0.096431
vt 0.975300 0.096431
vt 0.976886 0.094417
vt 0.976886 0.095060
vt 0.974386 0.096431
vt 0.974817 0.096431
vt 0.977182 0.095716
vt 0.973903 0.096431
vt 0.974333 0.096431
vt 0.977230 0.095776
vt 0.977734 0.096178
vt 0.973419 0.096431
vt 0.977803 0.096211
vt 0.978431 0.096354
vt 0.980162 0.096431
vt 0.976067 0.171196
vt 0.975722 0.171196
vt 0.978487 0.171196
vt 0.978141 0.171196
vt 0.976759 0.171196
vt 0.976413 0.171196
vt 0.979178 0.171196
vt 0.978833 0.171196
vt 0.975030 0.171196
vt 0.974685 0.171196
vt 0.977104 0.171196
vt 0.975376 0.171196
vt 0.974339 0.171196
vt 0.974483 0.102248
vt 0.975307 0.102248
vt 0.975307 0.102248
vt 0.974483 0.102248
vt 0.975376 0.171196
vt 0.975030 0.171196
vt 0.978141 0.171196
vt 0.978487 0.171196
vt 0.976067 0.171196
vt 0.975722 0.171196
vt 0.978833 0.171196
vt 0.974685 0.171196
vt 0.979178 0.171196
vt 0.977104 0.171196
vt 0.976413 0.171196
vt 0.974339 0.171196
vt 0.976759 0.171196
vt 0.970364 0.102248
vt 0.971188 0.102248
vt 0.971188 0.102248
vt 0.970364 0.102248
vt 0.981073 0.102248
vt 0.981897 0.102248
vt 0.981897 0.102248
vt 0.981073 0.102248
vt 0.976131 0.102248
vt 0.976954 0.102248
vt 0.976954 0.102248
vt 0.976131 0.102248
vt 0.974761 0.176080
vt 0.975585 0.176080
vt 0.975585 0.176080
vt 0.974761 0.176080
vt 0.977778 0.102248
vt 0.978602 0.102248
vt 0.978602 0.102248
vt 0.977778 0.102248
vt 0.976408 0.176080
vt 0.977232 0.176080
vt 0.977232 0.176080
vt 0.976408 0.176080
vt 0.979426 0.102248
vt 0.980250 0.102248
vt 0.980250 0.102248
vt 0.979426 0.102248
vt 0.978056 0.176080
vt 0.978880 0.176080
vt 0.978880 0.176080
vt 0.978056 0.176080
vt 0.973659 0.102248
vt 0.974483 0.102248
vt 0.974483 0.102248
vt 0.973659 0.102248
vt 0.978602 0.102248
vt 0.977778 0.102248
vt 0.972012 0.102248
vt 0.972835 0.102248
vt 0.972835 0.102248
vt 0.972012 0.102248
vt 0.980250 0.102248
vt 0.979426 0.102248
vt 0.973659 0.102248
vt 0.976954 0.102248
vt 0.976131 0.102248
vt 0.975307 0.102248
vt 0.981073 0.102248
vt 0.981897 0.102248
vt 0.975307 0.102248
vt 0.976131 0.102248
vt 0.976131 0.102248
vt 0.975307 0.102248
vt 0.977778 0.102248
vt 0.976954 0.102248
vt 0.972012 0.102248
vt 0.971188 0.102248
vt 0.979426 0.102248
vt 0.978602 0.102248
vt 0.972835 0.102248
vt 0.981073 0.102248
vt 0.980250 0.102248
vt 0.981897 0.102248
vt 0.970364 0.102248
vt 0.972835 0.102248
vt 0.973659 0.102248
vt 0.973659 0.102248
vt 0.972835 0.102248
vt 0.972012 0.102248
vt 0.971188 0.102248
vt 0.979426 0.102248
vt 0.978602 0.102248
vt 0.981073 0.102248
vt 0.980250 0.102248
vt 0.974483 0.102248
vt 0.981897 0.102248
vt 0.976954 0.102248
vt 0.970364 0.102248
vt 0.977778 0.102248
vt 0.981073 0.102248
vt 0.981897 0.102248
vt 0.981897 0.102248
vt 0.981073 0.102248
vt 0.980250 0.102248
vt 0.975307 0.102248
vt 0.974483 0.102248
vt 0.976954 0.102248
vt 0.976131 0.102248
vt 0.971188 0.102248
vt 0.970364 0.102248
vt 0.978602 0.102248
vt 0.977778 0.102248
vt 0.972012 0.102248
vt 0.979426 0.102248
vt 0.972835 0.102248
vt 0.973659 0.102248
vt 0.973659 0.102248
vt 0.972835 0.102248
vt 0.976954 0.102248
vt 0.976131 0.102248
vt 0.971188 0.102248
vt 0.970364 0.102248
vt 0.978602 0.102248
vt 0.977778 0.102248
vt 0.972012 0.102248
vt 0.980250 0.102248
vt 0.979426 0.102248
vt 0.974483 0.102248
vt 0.975307 0.102248
vt 0.971188 0.102248
vt 0.970364 0.102248
vt 0.981073 0.102248
vt 0.980250 0.102248
vt 0.975307 0.102248
vt 0.974483 0.102248
vt 0.978602 0.102248
vt 0.977778 0.102248
vt 0.976954 0.102248
vt 0.976131 0.102248
vt 0.974222 0.095623
vt 0.973247 0.095845
vt 0.972272 0.095623
vt 0.971490 0.094999
vt 0.971056 0.094098
vt 0.971056 0.093097
vt 0.971490 0.092196
vt 0.972272 0.091573
vt 0.973247 0.091350
vt 0.974222 0.091573
vt 0.975004 0.092196
vt 0.975438 0.093097
vt 0.975438 0.094098
vt 0.975004 0.094999
vt 0.979426 0.102248
vt 0.981897 0.102248
vt 0.972012 0.102248
vt 0.971998 0.102248
vt 0.971201 0.102248
vt 0.972030 0.096079
vt 0.971099 0.095336
vt 0.973646 0.102248
vt 0.972849 0.102248
vt 0.970549 0.094193
vt 0.970549 0.093002
vt 0.975293 0.102248
vt 0.974497 0.102248
vt 0.971099 0.091859
vt 0.972030 0.091116
vt 0.976941 0.102248
vt 0.976144 0.102248
vt 0.973267 0.090834
vt 0.974429 0.091099
vt 0.978589 0.102248
vt 0.977792 0.102248
vt 0.975420 0.091890
vt 0.975937 0.092963
vt 0.980236 0.102248
vt 0.979439 0.102248
vt 0.975937 0.094232
vt 0.975420 0.095305
vt 0.976968 0.102248
vt 0.974464 0.091116
vt 0.972066 0.091099
vt 0.973228 0.090834
vt 0.981060 0.102248
vt 0.980263 0.102248
vt 0.974464 0.096079
vt 0.981884 0.102248
vt 0.974429 0.096096
vt 0.973267 0.096361
vt 0.970377 0.102248
vt 0.973228 0.096361
vt 0.972066 0.096096
vt 0.970557 0.094232
vt 0.973673 0.102248
vt 0.970557 0.092963
vn 0.2225 0.2933 -0.9298
vn 0.2225 0.2974 -0.9285
vn 0.6235 0.2352 -0.7456
vn 0.6235 0.2385 -0.7446
vn 0.6235 0.2385 -0.7445
vn 0.9010 0.1305 -0.4138
vn 0.9010 0.1323 -0.4132
vn 1.0000 0.0000 0.0000
vn 0.9010 -0.1305 0.4138
vn 0.9010 -0.1323 0.4132
vn 0.6235 -0.2352 0.7456
vn 0.6235 -0.2385 0.7446
vn 0.6235 -0.2385 0.7445
vn 0.2225 -0.2933 0.9298
vn 0.2225 -0.2974 0.9285
vn -0.2225 -0.2933 0.9298
vn -0.2225 -0.2974 0.9285
vn -0.6235 -0.2352 0.7456
vn -0.6235 -0.2385 0.7445
vn -0.6235 -0.2385 0.7446
vn -0.9009 -0.1305 0.4138
vn -0.9009 -0.1324 0.4132
vn -0.9009 -0.1324 0.4133
vn -1.0000 -0.0000 0.0000
vn -0.9009 0.1305 -0.4138
vn -0.9009 0.1324 -0.4132
vn -0.9009 0.1324 -0.4133
vn 0.9010 -0.1342 0.4126
vn -0.6235 0.2352 -0.7456
vn -0.6235 0.2385 -0.7445
vn -0.6235 0.2385 -0.7446
vn -0.2226 0.2933 -0.9298
vn -0.2225 0.2974 -0.9285
vn -0.2226 0.2932 -0.9298
vn -0.0000 0.9537 0.3008
vn -0.2226 -0.2933 0.9298
vn 0.0000 -0.9537 -0.3008
vn 0.2056 -0.0940 -0.9741
vn 0.0851 -0.7689 -0.6337
vn 0.5760 -0.1477 -0.8040
vn 0.2387 -0.7911 -0.5632
vn 0.8324 -0.2444 -0.4974
vn 0.3448 -0.8311 -0.4363
vn 0.9239 -0.3649 -0.1151
vn 0.3827 -0.8811 -0.2779
vn 0.8324 -0.4856 0.2671
vn 0.3447 -0.9311 -0.1195
vn 0.5760 -0.5823 0.5737
vn 0.2386 -0.9711 0.0074
vn 0.2056 -0.6359 0.7439
vn 0.0852 -0.9933 0.0779
vn -0.2056 -0.6359 0.7439
vn -0.0852 -0.9933 0.0779
vn -0.5760 -0.5823 0.5737
vn -0.2386 -0.9711 0.0074
vn -0.8323 -0.4856 0.2672
vn -0.3448 -0.9311 -0.1195
vn -0.9239 -0.3649 -0.1151
vn -0.3827 -0.8811 -0.2779
vn -0.8324 -0.2444 -0.4975
vn -0.3448 -0.8311 -0.4363
vn -0.5761 -0.1477 -0.8039
vn -0.2387 -0.7911 -0.5632
vn -0.2056 -0.0940 -0.9741
vn -0.0851 -0.7689 -0.6337
vn 0.2225 0.2932 -0.9298
vn -0.9009 -0.1342 0.4127
vn 0.9010 0.1342 -0.4126
vn -0.2225 -0.3015 0.9271
vn 0.2225 0.3015 -0.9271
vn -0.6235 0.2418 -0.7435
vn 0.6235 -0.2418 0.7435
vn -0.6235 -0.2418 0.7435
vn -0.2225 0.3015 -0.9271
vn 0.6235 0.2418 -0.7435
vn 0.2225 -0.3015 0.9271
vn -0.9009 0.1342 -0.4127
vn -0.6235 -0.2367 0.7452
vn -0.0000 0.9537 0.3007
vn 0.0000 0.9537 0.3009
vn 0.2225 0.2951 -0.9292
vn 0.2225 -0.2951 0.9292
vn -0.2225 0.2951 -0.9292
vn 0.9010 -0.1313 0.4135
vn -0.9010 0.1313 -0.4135
vn 0.9010 0.1313 -0.4135
vn -0.9010 -0.1313 0.4135
vn 0.6235 -0.2367 0.7452
vn -0.2225 -0.2951 0.9292
vn -0.6234 0.2367 -0.7452
vn 0.6234 0.2367 -0.7452
vn -0.9010 -0.1305 0.4138
vn 0.0001 0.9537 0.3009
vn -0.0001 0.9537 0.3009
vn 0.6236 -0.2352 0.7456
vn -0.6236 -0.2352 0.7456
vn 0.2224 -0.2933 0.9298
vn -0.2225 0.2933 -0.9298
vn -0.9010 0.1305 -0.4138
vn -0.9574 -0.2755 -0.0869
vn 0.0000 -0.9537 -0.3007
vn 0.0001 -0.9537 -0.3008
vn -0.0002 -0.9537 -0.3008
vn 0.0002 -0.9537 -0.3009
vn -0.0001 -0.9537 -0.3008
vn 0.0004 -0.9537 -0.3008
vn 0.2226 0.2933 -0.9298
vn 0.5969 -0.0502 -0.8007
vn -0.5969 -0.5004 0.6271
vn 0.2130 0.0054 -0.9770
vn 0.2131 -0.5561 0.8034
vn -0.2130 0.0054 -0.9770
vn 0.8626 -0.4003 0.3094
vn -0.8625 -0.1506 -0.4831
vn 0.8626 -0.1504 -0.4830
vn -0.8625 -0.4005 0.3093
vn 0.5969 -0.5004 0.6271
vn -0.2131 -0.5561 0.8034
vn -0.5969 -0.0502 -0.8007
vn 0.9574 -0.2753 -0.0869
vn -0.9144 0.3860 0.1217
vn 0.2226 -0.2933 0.9298
vn -0.2226 0.2933 -0.9297
vn 0.9009 -0.1306 0.4138
vn -0.9009 -0.1306 0.4138
vn -0.2226 -0.2933 0.9297
vn -0.6234 0.2352 -0.7457
vn 0.6234 0.2352 -0.7457
vn -0.6234 -0.2352 0.7457
vn -0.2034 0.6545 -0.7282
vn 0.5701 0.6012 -0.5599
vn -0.5701 0.1709 0.8036
vn 0.8240 0.2666 0.5000
vn 0.2035 0.1180 0.9719
vn 0.8238 0.5056 -0.2565
vn -0.8240 0.2666 0.5000
vn 0.2035 0.6541 -0.7285
vn -0.2035 0.1177 0.9720
vn 0.5702 0.1710 0.8035
vn -0.8238 0.5056 -0.2565
vn 0.9145 0.3859 0.1217
vn -0.4645 0.8114 -0.3548
vn -0.1925 0.9797 0.0559
vn -0.7449 0.6362 0.2007
vn -0.3086 0.9072 0.2860
vn -0.4644 0.4611 0.7561
vn -0.1924 0.8346 0.5161
vn 0.1658 0.4178 0.8933
vn 0.0685 0.8169 0.5727
vn 0.6712 0.5390 0.5089
vn 0.2781 0.8669 0.4138
vn 0.6711 0.7335 -0.1075
vn 0.2781 0.9474 0.1585
vn 0.4645 0.4611 0.7561
vn 0.1924 0.8346 0.5161
vn -0.1658 0.4178 0.8933
vn -0.0686 0.8167 0.5730
vn 0.7449 0.6362 0.2007
vn 0.3085 0.9072 0.2860
vn 0.4645 0.8114 -0.3547
vn 0.1925 0.9797 0.0560
vn 0.1657 0.8547 -0.4919
vn 0.0686 0.9976 -0.0009
vn -0.1658 0.8547 -0.4919
vn -0.0686 0.9976 -0.0009
vn -0.6711 0.7335 -0.1075
vn -0.2779 0.9474 0.1586
vn -0.6711 0.5390 0.5089
vn -0.2779 0.8669 0.4138
vn -0.5700 0.6013 -0.5600
usemtl Material.001
s 1
f 1/1/1 2/2/2 3/3/2 4/4/1
f 4/4/3 3/3/4 5/5/5 6/6/3
f 6/6/6 5/5/7 7/7/7 8/8/6
f 8/8/8 7/7/8 9/9/8 10/10/8
f 10/10/9 9/9/10 11/11/10 12/12/9
f 12/12/11 11/11/12 13/13/13 14/14/11
f 14/14/14 13/13/15 15/15/15 16/16/14
f 16/16/16 15/15/17 17/17/17 18/18/16
f 18/18/18 17/17/19 19/19/20 20/20/18
f 20/20/21 19/19/22 21/21/23 22/22/21
f 22/22/24 21/21/24 23/23/24 24/24/24
f 24/24/25 23/23/26 25/25/27 26/26/25
f 11/11/10 9/9/10 27/27/28 28/28/28
f 26/26/29 25/25/30 29/29/31 30/30/29
f 30/30/32 29/29/33 2/31/33 1/32/32
f 6/6/6 8/8/6 31/33/6 32/34/6
f 32/35/6 31/36/6 33/37/6 34/38/6
f 16/16/16 18/18/16 35/39/16 36/40/16
f 1/1/1 4/4/1 37/41/1 38/42/1
f 26/26/29 30/30/29 39/43/29 40/44/29
f 12/12/11 14/14/11 41/45/11 42/46/11
f 22/22/24 24/24/24 43/47/24 44/48/24
f 8/8/8 10/10/8 45/49/8 31/33/8
f 18/18/18 20/20/18 46/50/18 35/39/18
f 30/30/32 1/32/32 38/51/34 39/43/34
f 4/4/3 6/6/3 32/34/3 37/41/3
f 14/14/14 16/16/14 36/40/14 41/45/14
f 24/24/25 26/26/25 40/44/25 43/47/25
f 10/10/9 12/12/9 42/46/9 45/49/9
f 20/20/21 22/22/21 44/48/21 46/50/21
f 39/52/34 38/53/34 47/54/34 48/55/34
f 44/56/24 43/57/24 49/58/24 50/59/24
f 31/36/8 45/60/8 51/61/8 33/37/8
f 43/57/25 40/62/25 52/63/25 49/58/25
f 45/60/9 42/64/9 53/65/9 51/61/9
f 40/62/29 39/52/29 48/55/29 52/63/29
f 42/64/11 41/66/11 54/67/11 53/65/11
f 28/28/35 27/27/35 55/68/35 56/69/35
f 41/66/14 36/70/14 57/71/14 54/67/14
f 37/72/3 32/35/3 34/38/3 58/73/3
f 36/70/16 35/74/16 59/75/36 57/71/36
f 35/74/18 46/76/18 60/77/18 59/75/18
f 61/78/37 62/79/37 63/80/37 64/81/37 65/82/37 66/83/37 67/84/37 68/85/37 69/86/37 70/87/37 71/88/37 72/89/37 73/90/37 74/91/37
f 46/76/21 44/56/21 50/59/21 60/77/21
f 47/92/38 58/73/38 75/93/38 76/94/38
f 76/95/39 75/96/39 62/79/39 61/78/39
f 58/73/40 34/38/40 77/97/40 75/93/40
f 75/98/41 77/99/41 63/80/41 62/79/41
f 34/38/42 33/37/42 78/100/42 77/97/42
f 77/101/43 78/102/43 64/81/43 63/80/43
f 33/37/44 51/61/44 79/103/44 78/100/44
f 78/104/45 79/105/45 65/82/45 64/81/45
f 51/61/46 53/65/46 80/106/46 79/107/46
f 79/108/47 80/109/47 66/83/47 65/82/47
f 53/65/48 54/67/48 81/110/48 80/111/48
f 80/112/49 81/113/49 67/84/49 66/83/49
f 54/67/50 57/71/50 82/114/50 81/115/50
f 81/116/51 82/117/51 68/85/51 67/84/51
f 57/71/52 59/75/52 83/118/52 82/114/52
f 82/119/53 83/120/53 69/86/53 68/85/53
f 59/75/54 60/77/54 84/121/54 83/118/54
f 83/122/55 84/123/55 70/87/55 69/86/55
f 60/77/56 50/59/56 85/124/56 84/121/56
f 84/125/57 85/126/57 71/88/57 70/87/57
f 50/59/58 49/58/58 86/127/58 85/128/58
f 85/129/59 86/130/59 72/89/59 71/88/59
f 49/58/60 52/63/60 87/131/60 86/132/60
f 86/130/61 87/133/61 73/90/61 72/89/61
f 52/63/62 48/55/62 88/134/62 87/135/62
f 87/136/63 88/137/63 74/91/63 73/90/63
f 48/55/64 47/54/64 76/138/64 88/134/64
f 88/139/65 76/140/65 61/78/65 74/91/65
f 38/141/1 37/72/1 58/73/66 47/92/66
f 21/21/23 19/19/22 89/142/67 90/143/67
f 7/7/7 5/5/7 91/144/68 92/145/68
f 17/17/17 15/15/17 93/146/69 94/147/69
f 3/3/2 2/2/2 95/148/70 96/149/70
f 29/29/31 25/25/30 97/150/71 98/151/71
f 13/13/13 11/11/12 28/28/72 99/152/72
f 23/23/24 21/21/24 90/143/24 100/153/24
f 9/9/8 7/7/8 92/145/8 27/27/8
f 19/19/20 17/17/19 94/147/73 89/142/73
f 2/31/33 29/29/33 98/151/74 95/154/74
f 5/5/5 3/3/4 96/149/75 91/144/75
f 15/15/15 13/13/15 99/152/76 93/146/76
f 25/25/27 23/23/26 100/153/77 97/150/77
f 101/155/78 102/156/78 103/157/78 104/158/78
f 97/150/35 100/153/35 105/159/35 106/160/35
f 27/27/35 92/145/35 107/161/35 55/68/35
f 92/145/35 91/144/35 108/162/35 107/161/35
f 90/143/35 89/142/35 101/163/35 109/164/35
f 91/144/35 96/149/35 110/165/35 108/162/35
f 98/151/35 97/150/35 106/160/35 111/166/35
f 100/153/35 90/143/35 109/164/35 105/159/35
f 96/149/35 95/148/35 112/167/35 110/165/35
f 99/152/35 28/28/35 56/69/35 113/168/35
f 89/142/35 94/147/35 102/169/35 101/163/35
f 95/154/35 98/151/35 111/166/35 112/170/35
f 94/147/35 93/146/79 114/171/79 102/169/35
f 93/146/79 99/152/35 113/168/35 114/171/79
f 115/172/35 116/173/80 117/174/80 118/175/35
f 110/176/81 112/177/81 115/178/81 119/179/81
f 114/180/82 113/181/82 120/182/82 121/183/82
f 112/184/83 111/185/83 116/186/83 115/187/83
f 56/188/84 55/189/84 122/190/84 123/191/84
f 106/192/85 105/193/85 124/194/85 125/195/85
f 107/196/86 108/197/86 126/198/86 127/199/86
f 109/200/87 101/201/87 104/202/87 128/203/87
f 113/181/88 56/188/88 123/191/88 120/182/88
f 102/156/89 114/180/89 121/183/89 103/157/89
f 111/185/90 106/192/90 125/195/90 116/186/90
f 55/189/8 107/196/8 127/199/8 122/190/8
f 105/193/24 109/200/24 128/203/24 124/194/24
f 108/197/91 110/176/91 119/179/91 126/198/91
f 129/204/92 130/205/92 131/206/92 132/207/92
f 123/191/35 122/190/35 133/208/35 134/209/35
f 125/210/93 124/211/35 135/212/35 136/213/93
f 127/199/35 126/198/94 137/214/94 138/215/35
f 128/216/35 104/158/35 130/205/35 129/204/35
f 120/182/35 123/191/35 134/209/35 139/217/35
f 103/157/35 121/183/80 140/218/80 141/219/35
f 116/173/80 125/210/93 136/213/93 117/174/80
f 122/190/35 127/199/35 138/215/35 133/208/35
f 124/211/35 128/216/35 129/204/35 135/212/35
f 126/198/94 119/179/80 142/220/80 137/214/94
f 104/158/35 103/157/35 141/219/35 130/205/35
f 119/179/80 115/178/35 118/221/35 142/220/80
f 121/183/80 120/182/35 139/217/35 140/218/80
f 143/222/37 144/223/37 145/224/37 146/225/37
f 139/217/95 134/209/95 147/226/95 148/227/95
f 141/219/16 140/218/16 144/223/16 143/222/16
f 117/174/29 136/213/29 149/228/29 150/229/29
f 133/208/8 138/215/8 151/230/8 152/231/8
f 135/212/24 129/204/24 132/207/24 153/232/24
f 137/214/3 142/220/3 154/233/3 155/234/3
f 130/205/96 141/219/96 143/222/96 131/206/96
f 142/220/1 118/221/1 156/235/1 154/233/1
f 140/218/97 139/217/97 148/227/97 144/223/97
f 118/175/98 117/174/98 150/229/98 156/236/98
f 134/209/9 133/208/9 152/231/9 147/226/9
f 136/213/99 135/212/99 153/232/99 149/228/99
f 138/215/6 137/214/6 155/234/6 151/230/6
f 157/237/100 158/238/100 159/239/100 160/240/100
f 150/229/101 149/228/37 161/241/37 162/242/101
f 152/231/102 151/230/103 163/243/103 164/244/102
f 153/232/104 132/207/105 158/238/105 157/237/106
f 155/234/37 154/233/101 165/245/101 166/246/37
f 131/206/101 143/222/37 146/225/37 167/247/101
f 154/233/101 156/235/37 168/248/37 165/245/101
f 144/223/37 148/227/37 169/249/37 145/224/37
f 156/236/37 150/229/101 162/242/101 168/250/37
f 147/226/101 152/231/102 164/244/102 170/251/101
f 149/228/37 153/232/104 157/237/106 161/241/37
f 151/230/103 155/234/37 166/246/37 163/243/103
f 132/207/105 131/206/101 167/247/101 158/238/105
f 148/227/37 147/226/101 170/251/101 169/249/37
f 171/252/107 172/253/107 173/254/107 174/255/107
f 166/246/108 165/245/108 171/252/108 175/256/108
f 167/247/109 146/225/109 176/257/109 177/258/109
f 165/245/110 168/248/110 172/253/110 171/252/110
f 145/224/111 169/249/111 178/259/111 179/260/111
f 168/250/112 162/242/112 180/261/112 172/262/112
f 170/251/113 164/244/113 181/263/113 182/264/113
f 161/241/114 157/237/114 160/240/114 183/265/114
f 163/243/115 166/246/115 175/256/115 184/266/115
f 158/238/116 167/247/116 177/258/116 159/239/116
f 169/249/117 170/251/117 182/264/117 178/259/117
f 146/225/118 145/224/118 179/260/118 176/257/118
f 162/242/119 161/241/119 183/265/119 180/261/119
f 164/244/120 163/243/120 184/266/120 181/263/120
f 185/267/121 186/268/121 187/269/121 188/270/121
f 179/260/122 178/259/122 189/271/122 190/272/122
f 172/262/123 180/261/123 191/273/123 173/274/123
f 182/264/124 181/263/124 192/275/124 193/276/124
f 183/265/99 160/240/99 185/267/99 194/277/99
f 184/266/6 175/256/6 195/278/6 196/279/6
f 159/239/125 177/258/125 197/280/125 186/268/125
f 178/259/11 182/264/11 193/276/11 189/271/11
f 176/257/126 179/260/126 190/272/126 198/281/126
f 180/261/127 183/265/127 194/277/127 191/273/127
f 181/263/8 184/266/8 196/279/8 192/275/8
f 160/240/24 159/239/24 186/268/24 185/267/24
f 175/256/128 171/252/128 174/255/128 195/278/128
f 177/258/129 176/257/129 198/281/129 197/280/129
f 173/274/130 191/273/130 199/282/130 200/283/130
f 195/278/131 174/255/131 201/284/131 202/285/131
f 197/280/132 198/281/132 203/286/132 204/287/132
f 193/276/133 192/275/133 205/288/133 206/289/133
f 190/272/134 189/271/134 207/290/134 208/291/134
f 209/292/35 210/293/35 211/294/35 212/295/35 213/296/35 214/297/35 215/298/35 216/299/35 217/300/35 218/301/35 219/302/35 220/303/35 221/304/35 222/305/35
f 196/279/135 195/278/135 202/285/135 223/306/135
f 186/268/136 197/280/136 204/287/136 187/269/136
f 174/255/137 173/254/137 200/307/137 201/284/137
f 198/281/138 190/272/138 208/291/138 203/286/138
f 189/271/139 193/276/139 206/289/139 207/290/139
f 194/277/140 185/267/140 188/270/140 224/308/140
f 192/275/141 196/279/141 223/306/141 205/288/141
f 199/282/142 224/308/142 225/309/142 226/310/142
f 226/311/143 225/312/143 212/295/143 211/294/143
f 188/270/144 187/269/144 227/313/144 228/314/144
f 228/315/145 227/316/145 214/297/145 213/296/145
f 204/287/146 203/286/146 229/317/146 230/318/146
f 230/319/147 229/320/147 216/299/147 215/298/147
f 208/291/148 207/290/148 231/321/148 232/322/148
f 232/323/149 231/324/149 218/301/149 217/300/149
f 206/289/150 205/288/150 233/325/150 234/326/150
f 234/327/151 233/328/151 220/303/151 219/302/151
f 223/306/152 202/285/152 235/329/152 236/330/152
f 236/331/153 235/332/153 222/305/153 221/304/153
f 207/290/154 206/289/154 234/326/154 231/333/154
f 231/334/155 234/327/155 219/302/155 218/301/155
f 203/286/156 208/291/156 232/322/156 229/317/156
f 229/335/157 232/336/157 217/300/157 216/299/157
f 205/288/158 223/306/158 236/330/158 233/325/158
f 233/328/159 236/331/159 221/304/159 220/303/159
f 202/285/160 201/284/160 237/337/160 235/338/160
f 235/332/161 237/339/161 209/292/161 222/305/161
f 201/284/162 200/307/162 238/340/162 237/337/162
f 237/341/163 238/342/163 210/293/163 209/292/163
f 200/283/164 199/282/164 226/310/164 238/343/164
f 238/344/165 226/345/165 211/294/165 210/293/165
f 224/308/166 188/270/166 228/314/166 225/309/166
f 225/312/167 228/346/167 213/296/167 212/295/167
f 187/269/168 204/287/168 230/318/168 227/347/168
f 227/348/169 230/319/169 215/298/169 214/297/169
f 191/273/170 194/277/170 224/308/170 199/282/170
