# Blender v3.0.0 OBJ File: ''
# www.blender.org
mtllib baguette.mtl
o Cylinder_Cylinder.001
v 0.000000 0.298675 -0.035960
v 0.000000 0.462686 -0.005353
v 0.002097 0.462686 -0.005250
v 0.007016 0.298675 -0.035269
v 0.004114 0.462686 -0.004946
v 0.013761 0.298675 -0.033223
v 0.005973 0.462686 -0.004451
v 0.019978 0.298675 -0.029900
v 0.007602 0.462686 -0.003785
v 0.025428 0.298675 -0.025428
v 0.008939 0.462686 -0.002974
v 0.029900 0.298675 -0.019978
v 0.009932 0.462686 -0.002049
v 0.033223 0.298675 -0.013761
v 0.010544 0.462686 -0.001044
v 0.035269 0.298675 -0.007015
v 0.010751 0.462686 0.000000
v 0.035960 0.298675 0.000000
v 0.010544 0.462686 0.001044
v 0.035269 0.298675 0.007016
v 0.009932 0.462686 0.002049
v 0.033223 0.298675 0.013761
v 0.008939 0.462686 0.002974
v 0.029900 0.298675 0.019979
v 0.007602 0.462686 0.003785
v 0.025428 0.298675 0.025428
v 0.005973 0.462686 0.004451
v 0.019978 0.298675 0.029900
v 0.004114 0.462686 0.004946
v 0.013761 0.298675 0.033223
v 0.002097 0.462686 0.005251
v 0.007016 0.298675 0.035269
v 0.000000 0.462686 0.005353
v 0.000000 0.298675 0.035960
v -0.002097 0.462686 0.005251
v -0.007016 0.298675 0.035269
v -0.004114 0.462686 0.004946
v -0.013761 0.298675 0.033223
v -0.005973 0.462686 0.004451
v -0.019978 0.298675 0.029900
v -0.007602 0.462686 0.003785
v -0.025428 0.298675 0.025428
v -0.008939 0.462686 0.002974
v -0.029900 0.298675 0.019979
v -0.009932 0.462686 0.002049
v -0.033223 0.298675 0.013761
v -0.010544 0.462686 0.001044
v -0.035269 0.298675 0.007016
v -0.010751 0.462686 0.000000
v -0.035960 0.298675 0.000000
v -0.010544 0.462686 -0.001044
v -0.035269 0.298675 -0.007015
v -0.009932 0.462686 -0.002049
v -0.033223 0.298675 -0.013761
v -0.008939 0.462686 -0.002974
v -0.029900 0.298675 -0.019978
v -0.007602 0.462686 -0.003785
v -0.025428 0.298675 -0.025428
v -0.005973 0.462686 -0.004451
v -0.019978 0.298675 -0.029900
v -0.004114 0.462686 -0.004946
v -0.013761 0.298675 -0.033223
v -0.002097 0.462686 -0.005250
v -0.007016 0.298675 -0.035269
v 0.000000 -0.382800 -0.035960
v 0.007016 -0.382800 -0.035269
v 0.013761 -0.382800 -0.033223
v 0.019978 -0.382800 -0.029900
v 0.025428 -0.382800 -0.025428
v 0.029900 -0.382800 -0.019979
v 0.033223 -0.382800 -0.013762
v 0.035269 -0.382800 -0.007016
v 0.035960 -0.382800 -0.000000
v 0.035269 -0.382800 0.007015
v 0.033223 -0.382800 0.013761
v 0.029900 -0.382800 0.019978
v 0.025428 -0.382800 0.025428
v 0.019978 -0.382800 0.029900
v 0.013761 -0.382800 0.033223
v 0.007016 -0.382800 0.035269
v 0.000000 -0.382800 0.035960
v -0.007016 -0.382800 0.035269
v -0.013761 -0.382800 0.033223
v -0.019978 -0.382800 0.029900
v -0.025428 -0.382800 0.025428
v -0.029900 -0.382800 0.019978
v -0.033223 -0.382800 0.013761
v -0.035269 -0.382800 0.007015
v -0.035960 -0.382800 -0.000000
v -0.035269 -0.382800 -0.007016
v -0.033223 -0.382800 -0.013762
v -0.029900 -0.382800 -0.019979
v -0.025428 -0.382800 -0.025428
v -0.019978 -0.382800 -0.029900
v -0.013761 -0.382800 -0.033223
v -0.007016 -0.382800 -0.035269
vt 0.000000 0.186709
vt 0.176275 0.204070
vt 0.175678 0.216208
vt 0.000000 0.227505
vt 0.176288 0.227996
vt 0.007959 0.267518
vt 0.178083 0.238981
vt 0.023571 0.305209
vt 0.180993 0.248741
vt 0.046236 0.339130
vt 0.184907 0.256901
vt 0.075084 0.367977
vt 0.189674 0.263148
vt 0.109005 0.390642
vt 0.195111 0.267241
vt 0.146696 0.406255
vt 0.201009 0.269023
vt 0.186709 0.414214
vt 0.207141 0.268426
vt 0.227505 0.414214
vt 0.213272 0.265472
vt 0.267518 0.406255
vt 0.219165 0.260275
vt 0.305209 0.390642
vt 0.224596 0.253035
vt 0.339130 0.367977
vt 0.229354 0.244030
vt 0.367977 0.339130
vt 0.233258 0.233607
vt 0.390642 0.305209
vt 0.236156 0.222164
vt 0.406255 0.267518
vt 0.237938 0.210143
vt 0.414214 0.227505
vt 0.238536 0.198006
vt 0.414214 0.186709
vt 0.237925 0.186218
vt 0.406255 0.146696
vt 0.236130 0.175233
vt 0.390642 0.109005
vt 0.233220 0.165473
vt 0.367977 0.075084
vt 0.229306 0.157312
vt 0.339130 0.046237
vt 0.224540 0.151066
vt 0.305209 0.023571
vt 0.219103 0.146973
vt 0.267518 0.007959
vt 0.213205 0.145191
vt 0.227505 0.000000
vt 0.207073 0.145788
vt 0.186709 0.000000
vt 0.200942 0.148742
vt 0.146696 0.007959
vt 0.195048 0.153938
vt 0.109005 0.023571
vt 0.189618 0.161178
vt 0.075084 0.046236
vt 0.184859 0.170183
vt 0.046236 0.075084
vt 0.180956 0.180607
vt 0.023571 0.109005
vt 0.178057 0.192049
vt 0.007959 0.146696
vt 0.000000 0.600922
vt 0.007959 0.560910
vt 0.023571 0.523219
vt 0.046236 0.489298
vt 0.075084 0.460450
vt 0.109005 0.437785
vt 0.146696 0.422173
vt 0.186709 0.414214
vt 0.227505 0.414214
vt 0.267518 0.422173
vt 0.305209 0.437785
vt 0.339130 0.460450
vt 0.367977 0.489298
vt 0.390642 0.523219
vt 0.406255 0.560910
vt 0.414214 0.600922
vt 0.414214 0.641719
vt 0.406255 0.681731
vt 0.390642 0.719422
vt 0.367977 0.753343
vt 0.339130 0.782191
vt 0.305209 0.804856
vt 0.267518 0.820468
vt 0.227505 0.828427
vt 0.186709 0.828427
vt 0.146696 0.820468
vt 0.109005 0.804856
vt 0.075084 0.782191
vt 0.046236 0.753343
vt 0.023571 0.719422
vt 0.007959 0.681731
vt 0.000000 0.641719
vt 0.769875 0.378380
vt 0.769875 0.756760
vt 0.735954 0.756760
vt 0.735954 0.378380
vt 0.807566 0.378380
vt 0.807566 0.756760
vt 0.847579 0.378380
vt 0.847579 0.756760
vt 0.888375 0.378380
vt 0.888375 0.756760
vt 0.928388 0.378380
vt 0.928388 0.756760
vt 0.966079 0.378380
vt 0.966079 0.756760
vt 1.000000 0.378380
vt 1.000000 0.756760
vt 0.443061 0.000000
vt 0.443061 0.378380
vt 0.414214 0.378380
vt 0.414214 0.000000
vt 0.476982 0.000000
vt 0.476982 0.378380
vt 0.514673 0.000000
vt 0.514673 0.378380
vt 0.554686 0.000000
vt 0.554686 0.378380
vt 0.595482 0.000000
vt 0.595482 0.378380
vt 0.635495 0.000000
vt 0.635495 0.378380
vt 0.673186 0.000000
vt 0.673186 0.378380
vt 0.707107 0.000000
vt 0.707107 0.378380
vt 0.735954 0.000000
vt 0.735954 0.378380
vt 0.443061 0.378380
vt 0.443061 0.756760
vt 0.414214 0.756760
vt 0.414214 0.378380
vt 0.476982 0.378380
vt 0.476982 0.756760
vt 0.514673 0.378380
vt 0.514673 0.756760
vt 0.554686 0.378380
vt 0.554686 0.756760
vt 0.595482 0.378380
vt 0.595482 0.756760
vt 0.635495 0.378380
vt 0.635495 0.756760
vt 0.673186 0.378380
vt 0.673186 0.756760
vt 0.707107 0.378380
vt 0.707107 0.756760
vt 0.735954 0.378380
vt 0.735954 0.756760
vt 0.769875 0.000000
vt 0.769875 0.378380
vt 0.735954 0.378380
vt 0.735954 0.000000
vt 0.807566 0.000000
vt 0.807566 0.378380
vt 0.847579 0.000000
vt 0.847579 0.378380
vt 0.888375 0.000000
vt 0.888375 0.378380
vt 0.928388 0.000000
vt 0.928388 0.378380
vt 0.966079 0.000000
vt 0.966079 0.378380
vt 1.000000 0.000000
vt 1.000000 0.378380
vn 0.0853 0.1823 -0.9795
vn 0.2549 0.1802 -0.9500
vn 0.4207 0.1761 -0.8899
vn 0.5788 0.1706 -0.7974
vn 0.7231 0.1645 -0.6709
vn 0.8450 0.1587 -0.5107
vn 0.9346 0.1541 -0.3205
vn 0.9824 0.1515 -0.1094
vn 0.9824 0.1515 0.1094
vn 0.9346 0.1541 0.3205
vn 0.8450 0.1587 0.5107
vn 0.7231 0.1645 0.6709
vn 0.5788 0.1706 0.7974
vn 0.4207 0.1761 0.8899
vn 0.2549 0.1802 0.9500
vn 0.0853 0.1823 0.9795
vn -0.0853 0.1823 0.9795
vn -0.2549 0.1802 0.9500
vn -0.4207 0.1761 0.8899
vn -0.5788 0.1706 0.7974
vn -0.7230 0.1645 0.6709
vn -0.8450 0.1587 0.5107
vn -0.9346 0.1541 0.3205
vn -0.9824 0.1515 0.1094
vn -0.9824 0.1515 -0.1094
vn -0.9346 0.1541 -0.3205
vn -0.8450 0.1587 -0.5107
vn -0.7230 0.1645 -0.6709
vn -0.5788 0.1706 -0.7974
vn -0.4207 0.1761 -0.8899
vn 0.0000 1.0000 -0.0000
vn -0.2549 0.1802 -0.9500
vn -0.0853 0.1823 -0.9795
vn 0.0000 -1.0000 -0.0000
vn -0.0980 0.0000 -0.9952
vn -0.2903 0.0000 -0.9569
vn -0.4714 0.0000 -0.8819
vn -0.6344 0.0000 -0.7730
vn -0.7730 0.0000 -0.6344
vn -0.8819 0.0000 -0.4714
vn -0.9569 0.0000 -0.2903
vn -0.9952 0.0000 -0.0980
vn -0.9952 -0.0000 0.0980
vn -0.9569 -0.0000 0.2903
vn -0.8819 -0.0000 0.4714
vn -0.7730 -0.0000 0.6344
vn -0.6344 -0.0000 0.7730
vn -0.4714 -0.0000 0.8819
vn -0.2903 -0.0000 0.9569
vn -0.0980 -0.0000 0.9952
vn 0.0980 -0.0000 0.9952
vn 0.2903 -0.0000 0.9569
vn 0.4714 -0.0000 0.8819
vn 0.6344 -0.0000 0.7730
vn 0.7730 -0.0000 0.6344
vn 0.8819 -0.0000 0.4714
vn 0.9569 -0.0000 0.2903
vn 0.9952 -0.0000 0.0980
vn 0.9952 0.0000 -0.0980
vn 0.9569 0.0000 -0.2903
vn 0.8819 0.0000 -0.4714
vn 0.7730 0.0000 -0.6344
vn 0.6344 0.0000 -0.7730
vn 0.4714 0.0000 -0.8819
vn 0.2903 0.0000 -0.9569
vn 0.0980 0.0000 -0.9952
usemtl Black_Nickel
s 1
f 1/1/1 2/2/1 3/3/1 4/4/1
f 4/4/2 3/3/2 5/5/2 6/6/2
f 6/6/3 5/5/3 7/7/3 8/8/3
f 8/8/4 7/7/4 9/9/4 10/10/4
f 10/10/5 9/9/5 11/11/5 12/12/5
f 12/12/6 11/11/6 13/13/6 14/14/6
f 14/14/7 13/13/7 15/15/7 16/16/7
f 16/16/8 15/15/8 17/17/8 18/18/8
f 18/18/9 17/17/9 19/19/9 20/20/9
f 20/20/10 19/19/10 21/21/10 22/22/10
f 22/22/11 21/21/11 23/23/11 24/24/11
f 24/24/12 23/23/12 25/25/12 26/26/12
f 26/26/13 25/25/13 27/27/13 28/28/13
f 28/28/14 27/27/14 29/29/14 30/30/14
f 30/30/15 29/29/15 31/31/15 32/32/15
f 32/32/16 31/31/16 33/33/16 34/34/16
f 34/34/17 33/33/17 35/35/17 36/36/17
f 36/36/18 35/35/18 37/37/18 38/38/18
f 38/38/19 37/37/19 39/39/19 40/40/19
f 40/40/20 39/39/20 41/41/20 42/42/20
f 42/42/21 41/41/21 43/43/21 44/44/21
f 44/44/22 43/43/22 45/45/22 46/46/22
f 46/46/23 45/45/23 47/47/23 48/48/23
f 48/48/24 47/47/24 49/49/24 50/50/24
f 50/50/25 49/49/25 51/51/25 52/52/25
f 52/52/26 51/51/26 53/53/26 54/54/26
f 54/54/27 53/53/27 55/55/27 56/56/27
f 56/56/28 55/55/28 57/57/28 58/58/28
f 58/58/29 57/57/29 59/59/29 60/60/29
f 60/60/30 59/59/30 61/61/30 62/62/30
f 3/3/31 2/2/31 63/63/31 61/61/31 59/59/31 57/57/31 55/55/31 53/53/31 51/51/31 49/49/31 47/47/31 45/45/31 43/43/31 41/41/31 39/39/31 37/37/31 35/35/31 33/33/31 31/31/31 29/29/31 27/27/31 25/25/31 23/23/31 21/21/31 19/19/31 17/17/31 15/15/31 13/13/31 11/11/31 9/9/31 7/7/31 5/5/31
f 62/62/32 61/61/32 63/63/32 64/64/32
f 64/64/33 63/63/33 2/2/33 1/1/33
f 65/65/34 66/66/34 67/67/34 68/68/34 69/69/34 70/70/34 71/71/34 72/72/34 73/73/34 74/74/34 75/75/34 76/76/34 77/77/34 78/78/34 79/79/34 80/80/34 81/81/34 82/82/34 83/83/34 84/84/34 85/85/34 86/86/34 87/87/34 88/88/34 89/89/34 90/90/34 91/91/34 92/92/34 93/93/34 94/94/34 95/95/34 96/96/34
f 96/97/35 64/98/35 1/99/35 65/100/35
f 95/101/36 62/102/36 64/98/36 96/97/36
f 94/103/37 60/104/37 62/102/37 95/101/37
f 93/105/38 58/106/38 60/104/38 94/103/38
f 92/107/39 56/108/39 58/106/39 93/105/39
f 91/109/40 54/110/40 56/108/40 92/107/40
f 90/111/41 52/112/41 54/110/41 91/109/41
f 89/113/42 50/114/42 52/115/42 90/116/42
f 88/117/43 48/118/43 50/114/43 89/113/43
f 87/119/44 46/120/44 48/118/44 88/117/44
f 86/121/45 44/122/45 46/120/45 87/119/45
f 85/123/46 42/124/46 44/122/46 86/121/46
f 84/125/47 40/126/47 42/124/47 85/123/47
f 83/127/48 38/128/48 40/126/48 84/125/48
f 82/129/49 36/130/49 38/128/49 83/127/49
f 81/131/50 34/132/50 36/130/50 82/129/50
f 80/133/51 32/134/51 34/135/51 81/136/51
f 79/137/52 30/138/52 32/134/52 80/133/52
f 78/139/53 28/140/53 30/138/53 79/137/53
f 77/141/54 26/142/54 28/140/54 78/139/54
f 76/143/55 24/144/55 26/142/55 77/141/55
f 75/145/56 22/146/56 24/144/56 76/143/56
f 74/147/57 20/148/57 22/146/57 75/145/57
f 73/149/58 18/150/58 20/148/58 74/147/58
f 72/151/59 16/152/59 18/150/59 73/149/59
f 71/153/60 14/154/60 16/155/60 72/156/60
f 70/157/61 12/158/61 14/154/61 71/153/61
f 69/159/62 10/160/62 12/158/62 70/157/62
f 68/161/63 8/162/63 10/160/63 69/159/63
f 67/163/64 6/164/64 8/162/64 68/161/64
f 66/165/65 4/166/65 6/164/65 67/163/65
f 65/167/66 1/168/66 4/166/66 66/165/66
o Cylinder.001_Cylinder.002
v 0.018534 0.414563 0.020684
v -0.018534 0.414563 0.020684
v -0.027554 0.353383 0.000520
v 0.027554 0.353383 0.000520
v -0.014891 0.462623 0.052024
v -0.018534 0.494274 0.099880
v -0.027554 0.514832 0.160929
v -0.018534 0.534995 0.099749
v -0.014891 0.566336 0.051689
v -0.018534 0.614192 0.020038
v -0.027554 0.675241 -0.000520
v -0.018534 0.614061 -0.020683
v -0.014891 0.566001 -0.052024
v -0.018534 0.534350 -0.099880
v -0.027554 0.513792 -0.160929
v -0.018534 0.493628 -0.099749
v -0.014891 0.462287 -0.051689
v -0.018534 0.414432 -0.020038
v 0.018534 0.493628 -0.099749
v 0.027554 0.513792 -0.160929
v 0.018534 0.534350 -0.099880
v 0.018534 0.614061 -0.020683
v 0.027554 0.675241 -0.000520
v 0.018534 0.614192 0.020038
v 0.018534 0.414432 -0.020038
v 0.018534 0.534995 0.099749
v 0.027554 0.514832 0.160929
v 0.018534 0.494274 0.099880
v 0.014891 0.462623 0.052024
v 0.014891 0.462287 -0.051689
v 0.014891 0.566001 -0.052024
v 0.014891 0.566336 0.051689
vt 0.077446 0.077784
vt 0.077446 0.397446
vt 0.000000 0.475230
vt 0.000000 0.000000
vt 0.706511 0.587011
vt 0.723698 0.504057
vt 0.706511 0.421103
vt 0.663962 0.336038
vt 0.749027 0.378587
vt 0.831981 0.395774
vt 0.914935 0.378587
vt 1.000000 0.336038
vt 0.957451 0.421103
vt 0.940264 0.504057
vt 0.957451 0.587011
vt 1.000000 0.672076
vt 0.914935 0.629527
vt 0.831981 0.612340
vt 0.749027 0.629527
vt 0.663962 0.672076
vt 0.422611 0.077784
vt 0.422611 0.397446
vt 0.331981 0.475230
vt 0.331981 0.000000
vt 0.331981 0.475230
vt 0.331981 0.950459
vt 0.241352 0.872675
vt 0.241352 0.553013
vt 0.077446 0.553013
vt 0.077446 0.872675
vt 0.000000 0.950459
vt 0.000000 0.475230
vt 0.663962 0.475230
vt 0.663962 0.950459
vt 0.573333 0.872675
vt 0.573333 0.553013
vt 0.663962 0.000000
vt 0.663962 0.475230
vt 0.586516 0.397446
vt 0.586516 0.077784
vt 0.409427 0.553013
vt 0.409427 0.872675
vt 0.331981 0.950459
vt 0.331981 0.475230
vt 0.331981 0.000000
vt 0.331981 0.475230
vt 0.241352 0.397446
vt 0.241352 0.077784
vt 0.156736 0.109204
vt 0.156736 0.366026
vt 0.507226 0.109204
vt 0.507226 0.366026
vt 0.156736 0.584433
vt 0.156736 0.841255
vt 0.488717 0.584433
vt 0.488717 0.841255
vt 0.663962 0.336038
vt 0.706511 0.250973
vt 0.723698 0.168019
vt 0.706511 0.085065
vt 0.749027 0.042549
vt 0.831981 0.059736
vt 0.914935 0.042549
vt 1.000000 0.000000
vt 0.957451 0.085065
vt 0.940264 0.168019
vt 0.957451 0.250973
vt 1.000000 0.336038
vt 0.914935 0.293489
vt 0.831981 0.276302
vt 0.749027 0.293489
vn 0.0000 -0.3130 0.9497
vn -1.0000 0.0000 -0.0000
vn 0.0000 -0.9497 -0.3130
vn 0.0000 0.9477 -0.3191
vn 0.0000 0.3130 -0.9497
vn 0.0000 0.3191 0.9477
vn 0.0000 -0.3191 -0.9477
vn 0.0000 0.9497 0.3130
vn 0.0000 -0.9477 0.3191
vn 0.0000 -0.5462 0.8376
vn 0.0000 -0.8341 0.5516
vn 0.0000 -0.8376 -0.5462
vn 0.0000 -0.5516 -0.8341
vn 0.0000 0.5462 -0.8376
vn 0.0000 0.8341 -0.5516
vn 0.0000 0.8376 0.5462
vn 0.0000 0.5516 0.8341
vn 1.0000 -0.0000 0.0000
usemtl Procedural_Gold_Material
s 1
f 97/169/67 98/170/67 99/171/67 100/172/67
f 98/173/68 101/174/68 102/175/68 103/176/68 104/177/68 105/178/68 106/179/68 107/180/68 108/181/68 109/182/68 110/183/68 111/184/68 112/185/68 113/186/68 114/187/68 99/188/68
f 115/189/69 112/190/69 111/191/69 116/192/69
f 116/193/70 111/194/70 110/195/70 117/196/70
f 118/197/71 108/198/71 107/199/71 119/200/71
f 119/201/72 107/202/72 106/203/72 120/204/72
f 100/205/73 99/206/73 114/207/73 121/208/73
f 122/209/74 104/210/74 103/211/74 123/212/74
f 123/213/75 103/214/75 102/215/75 124/216/75
f 98/170/76 97/169/76 125/217/76 101/218/76
f 101/218/77 125/217/77 124/216/77 102/215/77
f 112/190/78 115/189/78 126/219/78 113/220/78
f 113/220/79 126/219/79 121/208/79 114/207/79
f 108/198/80 118/197/80 127/221/80 109/222/80
f 109/222/81 127/221/81 117/196/81 110/195/81
f 104/210/82 122/209/82 128/223/82 105/224/82
f 105/224/83 128/223/83 120/204/83 106/203/83
f 123/225/84 124/226/84 125/227/84 97/228/84 100/205/84 121/229/84 126/230/84 115/231/84 116/232/84 117/233/84 127/234/84 118/235/84 119/236/84 120/237/84 128/238/84 122/239/84
