# Blender v3.0.0 OBJ File: 'cross.blend'
# www.blender.org
mtllib tombe.mtl
o cube
v 0.294287 -0.054479 0.756697
v 0.294287 0.186572 0.756697
v 0.310687 0.186572 0.756697
v 0.310687 -0.054479 0.756697
v 0.310687 0.186572 0.771341
v 0.310687 -0.054479 0.771341
v 0.294287 0.186572 0.771341
v 0.294287 -0.054479 0.771341
v 0.361016 0.141767 0.756697
v 0.243957 0.141767 0.756697
v 0.243957 0.158166 0.756697
v 0.361016 0.158166 0.756697
v 0.243957 0.158166 0.771341
v 0.361016 0.158166 0.771341
v 0.243957 0.141767 0.771341
v 0.361016 0.141767 0.771341
v 0.243119 -0.511767 0.767747
v 0.243119 0.328499 0.767747
v 0.486237 0.328499 0.767747
v 0.486237 -0.511767 0.767747
v 0.486237 0.328499 0.851116
v 0.486237 -0.511767 0.851116
v -0.047074 0.380044 0.851116
v 0.017491 0.328499 0.851116
v 0.243119 0.328499 0.851116
v 0.243119 0.426454 0.851116
v 0.046193 0.439484 0.851116
v 0.000000 0.398038 0.851116
v -0.486237 -0.511767 0.851116
v -0.486237 0.328499 0.851116
v -0.486237 0.328499 0.767747
v -0.486237 -0.511767 0.767747
v 0.000000 -0.511767 0.767747
v 0.000000 -0.511767 0.851116
v -0.047074 0.380044 0.767747
v 0.000000 0.398038 0.767747
v 0.243119 -0.511767 0.851116
v -0.166818 0.258731 0.851116
v 0.017491 0.328499 0.767747
v 0.046193 0.439484 0.767747
v 0.243119 0.426454 0.767747
v 0.486237 0.398038 0.851116
v 0.486237 0.398038 0.767747
v 0.440044 0.439484 0.767747
v 0.440044 0.439484 0.851116
v -0.381338 0.328499 0.851116
v -0.166818 0.258731 0.767747
v -0.381338 0.328499 0.767747
v 0.094951 0.474371 0.767747
v 0.151138 0.498648 0.767747
v 0.211937 0.511099 0.767747
v 0.274300 0.511099 0.767747
v 0.335100 0.498648 0.767747
v 0.391287 0.474371 0.767747
v 0.391287 0.474371 0.851116
v 0.335100 0.498648 0.851116
v 0.274300 0.511099 0.851116
v 0.211937 0.511099 0.851116
v 0.151138 0.498648 0.851116
v 0.094951 0.474371 0.851116
v -0.333583 0.329791 0.767747
v -0.281461 0.333603 0.767747
v -0.227585 0.339744 0.767747
v -0.174657 0.347906 0.767747
v -0.125331 0.357679 0.767747
v -0.082080 0.368574 0.767747
v -0.082080 0.368574 0.851116
v -0.125331 0.357679 0.851116
v -0.174657 0.347906 0.851116
v -0.227585 0.339744 0.851116
v -0.281461 0.333603 0.851116
v -0.333583 0.329791 0.851116
v -0.620334 -0.557608 -1.062284
v -0.620334 -0.504742 -1.062284
v 0.620334 -0.504742 -1.062284
v 0.620334 -0.557608 -1.062284
v 0.620334 -0.504742 1.062284
v 0.620334 -0.557608 1.062284
v -0.620334 -0.504742 1.062284
v -0.620334 -0.557608 1.062284
v 0.590034 -0.710444 -1.026374
v 0.590034 -0.710444 1.026374
v -0.590034 -0.710444 1.026374
v -0.590034 -0.710444 -1.026374
v -0.592265 -0.557917 1.026374
v -0.592265 -0.557917 -1.026374
v 0.592265 -0.557917 1.026374
v 0.592265 -0.557917 -1.026374
v -0.530948 -0.440246 -0.939458
v -0.530948 -0.394347 -0.939458
v 0.530948 -0.394347 -0.939458
v 0.530948 -0.440246 -0.939458
v 0.530948 -0.394347 0.968108
v 0.530948 -0.440246 0.968108
v -0.530948 -0.394347 0.968108
v -0.530948 -0.440246 0.968108
v 0.506149 -0.529835 -0.915177
v 0.506149 -0.529835 0.943827
v -0.506149 -0.529835 0.943827
v -0.506149 -0.529835 -0.915177
v -0.508063 -0.444042 0.943827
v -0.508063 -0.444042 -0.915177
v 0.508063 -0.444042 0.943827
v 0.508063 -0.444042 -0.915177
vt 0.068036 1.000000
vt 0.068036 0.000000
vt 0.136071 0.000000
vt 0.136071 1.000000
vt 0.196822 0.000000
vt 0.196822 1.000000
vt 0.136071 1.000000
vt 0.136071 0.000000
vt 0.000000 1.000000
vt 0.000000 0.000000
vt 0.068036 0.000000
vt 0.068035 1.000000
vt 0.196822 1.000000
vt 0.196822 0.000000
vt 0.257573 0.000000
vt 0.257573 1.000000
vt 0.454386 0.553655
vt 0.393635 0.553655
vt 0.393635 0.485619
vt 0.454386 0.485619
vt 0.332885 0.485619
vt 0.393635 0.485619
vt 0.393635 0.553655
vt 0.332885 0.553655
vt 0.393635 0.000000
vt 0.393635 0.485619
vt 0.325604 0.485619
vt 0.325604 0.000000
vt 0.393635 0.485619
vt 0.393635 0.000000
vt 0.454386 0.000000
vt 0.454386 0.485619
vt 0.257573 0.485619
vt 0.257573 0.000000
vt 0.325604 0.000000
vt 0.325604 0.485619
vt 0.515137 0.000000
vt 0.515137 0.485619
vt 0.454386 0.485619
vt 0.454386 0.000000
vt 0.515137 0.553650
vt 0.454386 0.553650
vt 0.454386 0.485619
vt 0.515137 0.485619
vt 0.272134 0.485619
vt 0.332884 0.485619
vt 0.332884 0.553650
vt 0.272134 0.553650
vt 0.226995 0.000000
vt 0.226995 0.447192
vt 0.181596 0.447192
vt 0.181596 0.000000
vt 0.891219 0.461724
vt 0.891219 0.907473
vt 0.882270 0.907473
vt 0.882270 0.461724
vt 0.082008 0.474625
vt 0.094064 0.447192
vt 0.136197 0.447192
vt 0.136197 0.499324
vt 0.099424 0.506259
vt 0.090798 0.484201
vt 0.882270 0.016318
vt 0.882270 0.461724
vt 0.873320 0.461724
vt 0.873320 0.016318
vt 0.656660 0.757298
vt 0.665609 0.757298
vt 0.665609 0.848096
vt 0.656660 0.848096
vt 0.674559 0.666500
vt 0.683509 0.666500
vt 0.683509 0.676823
vt 0.674559 0.676823
vt 0.136197 0.000000
vt 0.059647 0.410061
vt 0.090798 0.000000
vt 0.656660 0.711899
vt 0.665609 0.711899
vt 0.269128 0.447192
vt 0.281185 0.474625
vt 0.272394 0.484201
vt 0.263768 0.506259
vt 0.226995 0.499324
vt 0.882270 0.944362
vt 0.891219 0.944362
vt 0.891219 0.967041
vt 0.882270 0.967041
vt 0.019589 0.447192
vt 0.000000 0.447192
vt 0.000000 0.000000
vt 0.181596 0.447192
vt 0.181596 0.484201
vt 0.172970 0.506259
vt 0.272394 0.000000
vt 0.303545 0.410061
vt 0.181596 0.000000
vt 0.656660 0.666500
vt 0.665609 0.666500
vt 0.683509 0.699562
vt 0.674559 0.699562
vt 0.674559 0.685950
vt 0.665609 0.685950
vt 0.665609 0.666500
vt 0.674559 0.666500
vt 0.254664 0.524825
vt 0.244171 0.537746
vt 0.232818 0.544372
vt 0.221172 0.544372
vt 0.209819 0.537746
vt 0.199327 0.524825
vt 0.190222 0.506259
vt 0.163865 0.524825
vt 0.153373 0.537746
vt 0.142020 0.544372
vt 0.130374 0.544372
vt 0.119021 0.537746
vt 0.108529 0.524825
vt 0.683509 0.718868
vt 0.674559 0.718868
vt 0.683509 0.732674
vt 0.674559 0.732674
vt 0.600213 0.454868
vt 0.591263 0.454868
vt 0.591263 0.442809
vt 0.600213 0.442809
vt 0.591263 0.431246
vt 0.600213 0.431246
vt 0.591263 0.420757
vt 0.600213 0.420757
vt 0.891219 1.000000
vt 0.882270 1.000000
vt 0.882270 0.986279
vt 0.891219 0.986279
vt 0.181596 0.484201
vt 0.343604 0.447192
vt 0.334686 0.447880
vt 0.324953 0.449909
vt 0.314893 0.453177
vt 0.305009 0.457521
vt 0.295798 0.462722
vt 0.287722 0.468520
vt 0.075471 0.468520
vt 0.067394 0.462722
vt 0.058183 0.457521
vt 0.048300 0.453177
vt 0.038239 0.449909
vt 0.028506 0.447880
vt 0.674559 0.694886
vt 0.665609 0.694886
vt 0.674559 0.704791
vt 0.665609 0.704791
vt 0.674559 0.715168
vt 0.665609 0.715168
vt 0.674559 0.725497
vt 0.665609 0.725497
vt 0.674559 0.735259
vt 0.665609 0.735259
vt 0.674559 0.743965
vt 0.665609 0.743965
vt 0.674559 0.751179
vt 0.665609 0.751179
vt 0.363192 0.000000
vt 0.363192 0.447192
vt 0.827232 0.431240
vt 0.799097 0.431240
vt 0.799097 0.199563
vt 0.827232 0.199563
vt 0.855277 0.199563
vt 0.855277 0.427634
vt 0.827232 0.427634
vt 0.854246 0.693401
vt 0.826111 0.693401
vt 0.826111 0.461724
vt 0.854246 0.461724
vt 0.882270 0.689795
vt 0.854246 0.689795
vt 0.854246 0.461724
vt 0.882270 0.461724
vt 0.363192 0.461724
vt 0.583553 0.461724
vt 0.583553 0.682085
vt 0.363192 0.682085
vt 0.591263 0.461724
vt 0.363192 0.461724
vt 0.363192 0.231677
vt 0.591263 0.231677
vt 0.587408 0.226436
vt 0.591263 0.231677
vt 0.363192 0.231677
vt 0.367047 0.226436
vt 0.587408 0.005242
vt 0.591263 0.000000
vt 0.367047 0.005242
vt 0.363192 0.000000
vt 0.672438 0.199979
vt 0.753614 0.199563
vt 0.753614 0.420757
vt 0.672438 0.420341
vt 0.279174 0.764733
vt 0.198294 0.764733
vt 0.198294 0.544372
vt 0.279174 0.544372
vt 0.591263 0.199979
vt 0.672438 0.199563
vt 0.672438 0.420757
vt 0.591263 0.420341
vt 0.359988 0.764734
vt 0.279174 0.764734
vt 0.279174 0.544373
vt 0.359988 0.544373
vt 0.850168 0.198294
vt 0.825741 0.198294
vt 0.825741 0.000000
vt 0.850168 0.000000
vt 0.607902 0.871275
vt 0.583553 0.871275
vt 0.583553 0.666500
vt 0.607902 0.666500
vt 0.656660 0.864794
vt 0.632232 0.864794
vt 0.632232 0.666500
vt 0.656660 0.666500
vt 0.632232 0.871275
vt 0.607902 0.871275
vt 0.607902 0.666500
vt 0.632232 0.666500
vt 0.780296 0.000000
vt 0.780296 0.199563
vt 0.591263 0.199563
vt 0.591263 0.000000
vt 0.583553 0.461724
vt 0.780452 0.461724
vt 0.780452 0.666500
vt 0.004273 0.746542
vt 0.000000 0.749148
vt 0.000000 0.544372
vt 0.004273 0.546979
vt 0.194021 0.746542
vt 0.198294 0.749148
vt 0.194021 0.546979
vt 0.198294 0.544372
vt 0.780452 0.651829
vt 0.826111 0.651471
vt 0.826111 0.841218
vt 0.780452 0.840861
vt 0.753614 0.199563
vt 0.799097 0.199563
vt 0.799097 0.399125
vt 0.753614 0.399125
vt 0.780452 0.462081
vt 0.826111 0.461724
vt 0.826111 0.651471
vt 0.780452 0.651114
vt 0.825741 0.199563
vt 0.780296 0.199563
vt 0.780296 0.000000
vt 0.825741 0.000000
vn 0.0000 0.0000 -1.0000
vn 1.0000 -0.0000 0.0000
vn 0.0000 -0.0000 1.0000
vn -1.0000 -0.0000 0.0000
vn 0.0000 -1.0000 0.0000
vn 0.0000 1.0000 0.0000
vn -0.3571 0.9341 0.0000
vn 0.6678 0.7443 0.0000
vn -0.6678 0.7443 0.0000
vn -0.5819 0.8133 0.0000
vn -0.3966 0.9180 0.0000
vn -0.2006 0.9797 0.0000
vn 0.2006 0.9797 0.0000
vn 0.3966 0.9180 0.0000
vn 0.5819 0.8133 0.0000
vn -0.0270 0.9996 0.0000
vn -0.0729 0.9973 0.0000
vn -0.1133 0.9936 0.0000
vn -0.1524 0.9883 0.0000
vn -0.1944 0.9809 0.0000
vn -0.2443 0.9697 0.0000
vn -0.3114 0.9503 0.0000
vn -0.0002 -1.0000 0.0083
vn -0.0102 -0.9999 0.0006
vn -0.0102 -0.9999 -0.0006
vn -0.0002 -1.0000 -0.0083
vn 0.0002 -1.0000 0.0083
vn 0.0102 -0.9999 0.0006
vn 0.0002 -1.0000 -0.0083
vn 0.0102 -0.9999 -0.0006
vn 0.9999 -0.0146 -0.0000
vn -0.9999 -0.0146 -0.0000
vn -0.1636 -0.9865 -0.0000
vn 0.0000 -0.9880 0.1545
vn 0.1636 -0.9865 -0.0000
vn 0.0000 -0.9880 -0.1545
vn 0.9998 -0.0223 -0.0000
vn -0.9998 -0.0223 -0.0000
usemtl Granite_Texture.001
s 1
f 1/1/1 2/2/1 3/3/1 4/4/1
f 4/5/2 3/6/2 5/7/2 6/8/2
f 6/9/3 5/10/3 7/11/3 8/12/3
f 8/13/4 7/14/4 2/15/4 1/16/4
f 4/17/5 6/18/5 8/19/5 1/20/5
f 5/21/6 3/22/6 2/23/6 7/24/6
f 9/25/1 10/26/1 11/27/1 12/28/1
f 12/29/6 11/30/6 13/31/6 14/32/6
f 14/33/3 13/34/3 15/35/3 16/36/3
f 16/37/5 15/38/5 10/39/5 9/40/5
f 12/41/2 14/42/2 16/43/2 9/44/2
f 13/45/4 11/46/4 10/47/4 15/48/4
usemtl Granite_Texture
f 17/49/1 18/50/1 19/51/1 20/52/1
f 20/53/2 19/54/2 21/55/2 22/56/2
f 23/57/3 24/58/3 25/59/3 26/60/3 27/61/3 28/62/3
f 29/63/4 30/64/4 31/65/4 32/66/4
f 33/67/5 34/68/5 29/69/5 32/70/5
f 35/71/7 23/72/7 28/73/7 36/74/7
f 37/75/3 25/59/3 24/58/3 38/76/3 34/77/3
f 17/78/5 37/79/5 34/68/5 33/67/5
f 18/50/1 39/80/1 35/81/1 36/82/1 40/83/1 41/84/1
f 42/85/8 43/86/8 44/87/8 45/88/8
f 21/55/2 19/54/2 43/86/2 42/85/2
f 34/77/3 38/76/3 46/89/3 30/90/3 29/91/3
f 25/59/3 21/92/3 42/93/3 45/94/3 26/60/3
f 33/95/1 47/96/1 39/80/1 18/50/1 17/49/1
f 22/97/3 21/92/3 25/59/3 37/75/3
f 20/98/5 22/99/5 37/79/5 17/78/5
f 27/100/9 40/101/9 36/74/9 28/73/9
f 46/102/6 48/103/6 31/104/6 30/105/6
f 40/83/1 49/106/1 41/84/1
f 49/106/1 50/107/1 41/84/1
f 50/107/1 51/108/1 41/84/1
f 51/108/1 52/109/1 41/84/1
f 52/109/1 53/110/1 41/84/1
f 53/110/1 54/111/1 41/84/1
f 54/111/1 44/112/1 41/84/1
f 45/94/3 55/113/3 26/60/3
f 55/113/3 56/114/3 26/60/3
f 56/114/3 57/115/3 26/60/3
f 57/115/3 58/116/3 26/60/3
f 58/116/3 59/117/3 26/60/3
f 59/117/3 60/118/3 26/60/3
f 60/118/3 27/61/3 26/60/3
f 40/101/10 27/100/10 60/119/10 49/120/10
f 49/120/11 60/119/11 59/121/11 50/122/11
f 50/123/12 59/124/12 58/125/12 51/126/12
f 51/126/6 58/125/6 57/127/6 52/128/6
f 52/128/13 57/127/13 56/129/13 53/130/13
f 53/131/14 56/132/14 55/133/14 54/134/14
f 54/134/15 55/133/15 45/88/15 44/87/15
f 19/51/1 18/50/1 41/84/1 44/112/1 43/135/1
f 48/136/1 61/137/1 62/138/1 63/139/1 64/140/1 65/141/1 66/142/1 35/81/1 39/80/1 47/96/1
f 23/57/3 67/143/3 68/144/3 69/145/3 70/146/3 71/147/3 72/148/3 46/89/3 38/76/3 24/58/3
f 48/103/16 46/102/16 72/149/16 61/150/16
f 61/150/17 72/149/17 71/151/17 62/152/17
f 62/152/18 71/151/18 70/153/18 63/154/18
f 63/154/19 70/153/19 69/155/19 64/156/19
f 64/156/20 69/155/20 68/157/20 65/158/20
f 65/158/21 68/157/21 67/159/21 66/160/21
f 66/160/22 67/159/22 23/161/22 35/162/22
f 32/163/1 31/164/1 48/136/1 47/96/1 33/95/1
f 73/165/1 74/166/1 75/167/1 76/168/1
f 76/168/2 75/169/2 77/170/2 78/171/2
f 78/172/3 77/173/3 79/174/3 80/175/3
f 80/176/4 79/177/4 74/178/4 73/179/4
f 81/180/5 82/181/5 83/182/5 84/183/5
f 77/184/6 75/185/6 74/186/6 79/187/6
f 85/188/23 80/189/24 73/190/25 86/191/26
f 87/192/27 78/193/28 80/189/24 85/188/23
f 88/194/29 76/195/30 78/193/28 87/192/27
f 86/191/26 73/190/25 76/195/30 88/194/29
f 84/196/1 86/197/1 88/198/1 81/199/1
f 81/200/31 88/201/31 87/202/31 82/203/31
f 82/204/3 87/205/3 85/206/3 83/207/3
f 83/208/32 85/209/32 86/210/32 84/211/32
f 89/212/1 90/213/1 91/214/1 92/215/1
f 92/216/2 91/217/2 93/218/2 94/219/2
f 94/220/3 93/221/3 95/222/3 96/223/3
f 96/224/4 95/225/4 90/226/4 89/227/4
f 97/228/5 98/229/5 99/230/5 100/231/5
f 93/218/6 91/232/6 90/233/6 95/234/6
f 101/235/33 96/236/33 89/237/33 102/238/33
f 103/239/34 94/240/34 96/236/34 101/235/34
f 104/241/35 92/242/35 94/240/35 103/239/35
f 102/238/36 89/237/36 92/242/36 104/241/36
f 100/243/1 102/244/1 104/245/1 97/246/1
f 97/247/37 104/248/37 103/249/37 98/250/37
f 98/251/3 103/252/3 101/253/3 99/254/3
f 99/255/38 101/256/38 102/257/38 100/258/38
